<svg xmlns="http://www.w3.org/2000/svg" viewBox="0 0 20 20" version="1.1" x="0px" y="0px"><path d="M 1.9902344 0 C 0.89765165 1.4802974e-16 0 0.89074862 0 1.9902344 L 0 18.009766 C 1.4802974e-16 19.102349 0.89074862 20 1.9902344 20 L 18.009766 20 C 19.102349 20 20 19.109252 20 18.009766 L 20 1.9902344 C 20 0.89765165 19.109252 0 18.009766 0 L 1.9902344 0 z M 3.1914062 1.5 L 16.808594 1.5 C 17.743157 1.5 18.5 2.2627109 18.5 3.1914062 L 18.5 16.808594 C 18.5 17.743157 17.73729 18.5 16.808594 18.5 L 3.1914062 18.5 C 2.2568433 18.5 1.5 17.73729 1.5 16.808594 L 1.5 3.1914062 C 1.5 2.2568433 2.2627102 1.5 3.1914062 1.5 z "/></svg>
