<svg xmlns="http://www.w3.org/2000/svg" viewBox="0 0 48 48" x="0px" y="0px"><g><path d="M48,8.73c-.24-.86,1.49-.15-32.72-8.7a1,1,0,0,0-1.19.65l-2,6A1,1,0,0,0,12.74,8l1.38.36-.6,2.24A8.28,8.28,0,0,0,4,18.77V30H1a1,1,0,0,0-1,1V47a1,1,0,0,0,1,1H5a5,5,0,0,0,5-5V42h9a5,5,0,1,0,7-7c0-11.72-.1-10.22.25-10.13a3,3,0,0,0,3.67-2.12l.26-1c9.72,2.61,8.5,3.07,9.47-.56a23.16,23.16,0,0,0,3.16.81,1,1,0,0,0,1-.75l1.56-5.79a1,1,0,0,0-.71-1.23L43.44,14C48.05,9.36,48.17,9.48,48,8.73Zm-35,3.8-.92,3.4a1,1,0,0,0,.71,1.23l5.8,1.55-.26,1A3,3,0,0,0,20,23.18V35a4.46,4.46,0,0,0-1,1H10V35a5,5,0,0,0-4-4.9V18.77A6.27,6.27,0,0,1,13,12.53ZM8,43a3,3,0,0,1-3,3H2V32H5a3,3,0,0,1,3,3Zm2-3V38h8.1a5,5,0,0,0,0,2Zm13,2a3,3,0,1,1,3-3A3,3,0,0,1,23,42Zm1-7.9a5,5,0,0,0-2,0V23.76l2,.54Zm4-11.84a1,1,0,0,1-1.22.71L21,21.42a1,1,0,0,1-.71-1.23l.26-1,7.73,2.07Zm9.47-.57L14.27,15.48l1.79-6.63,11.25,3,.8,1.6c.28.57-.08.32,10.69,3.26ZM43.14,16l-1,3.86-1.93-.52c.91-3.39.53-2.6,1.63-3.7ZM39.7,14.88l-10-2.73-.8-1.6c-.28-.57.44-.23-14.6-4.24l1.37-4.12L45,9.54Z"/><path d="M23,38a1,1,0,0,0,0,2A1,1,0,0,0,23,38Z"/></g></svg>
