<svg xmlns="http://www.w3.org/2000/svg" viewBox="0 0 48 48" x="0px" y="0px"><g><path d="M25,35.54A4,4,0,1,0,23,43,4,4,0,0,0,25,35.54ZM23,40a1,1,0,0,1,0-2A1,1,0,0,1,23,40Z"/><path d="M39.49,17.93c-.69,2.63-.4,1.51-1.32,5l-8.7-2.33L29,22.52a2,2,0,0,1-2.45,1.42L25,23.53v9.82a5.91,5.91,0,0,0-4,0c0-12.1.13-10.85-.29-11a2,2,0,0,1-1.41-2.45L19.82,18l-6.77-1.81L14,12.71h0a6.28,6.28,0,0,0-8,6.06C6,32,6,31,6,31.13A4,4,0,0,1,9,35v2h8.35a5.91,5.91,0,0,0,0,4H9v2a4,4,0,0,1-4,4H1V31H4V18.77a8.28,8.28,0,0,1,10.5-8l.33-1.22L26.61,12.7l1,2Z"/><path d="M15,1,13,7l15,4,1,2,11,3,7-7Z"/><path d="M41.8,17c-.95,3.63-.92,3.42-.92,3.52l1.93.52,1.55-5.8-.63-.17Z"/></g></svg>
