<svg xmlns="http://www.w3.org/2000/svg" xmlns:xlink="http://www.w3.org/1999/xlink" version="1.1" x="0px" y="0px" viewBox="0 0 100 100" enable-background="new 0 0 100 100" xml:space="preserve"><path d="M58.395,78.855H41.605c-1.07,0-1.938,0.868-1.938,1.938s0.867,1.937,1.938,1.937h16.789c1.07,0,1.938-0.867,1.938-1.937  S59.465,78.855,58.395,78.855z"/><path d="M60.332,86.282c0-1.07-0.867-1.937-1.938-1.937H41.605c-1.07,0-1.938,0.867-1.938,1.937c0,1.07,0.867,1.938,1.938,1.938  h16.789C59.465,88.219,60.332,87.352,60.332,86.282z" /><path d="M54.732,94.757l3.246-3.708c0.586-0.671,0.34-1.215-0.553-1.215H42.574c-0.893,0-1.139,0.544-0.553,1.215l3.246,3.708  C45.385,94.891,45.624,95,45.803,95h8.395C54.376,95,54.615,94.891,54.732,94.757z" /><path d="M39.271,74.989c0.196,1.052,1.146,1.917,2.215,1.917h17.029c1.069,0,2.019-0.865,2.215-1.917  c1.979-10.588,10.581-16.994,10.581-27.454c0-11.77-9.541-21.311-21.311-21.311s-21.311,9.542-21.311,21.311  C28.689,57.995,37.291,64.401,39.271,74.989z"/></svg>
