<svg xmlns="http://www.w3.org/2000/svg" data-name="Layer 1" viewBox="0 0 100 100" x="0px" y="0px"><path d="M50.33,2h-.65A48,48,0,0,0,50,98h0a48,48,0,0,0,.33-96ZM84.59,30H68A51.87,51.87,0,0,0,60.2,11.37,40.1,40.1,0,0,1,84.59,30ZM50,88.41A40.43,40.43,0,0,1,40.22,70H59.78A40.43,40.43,0,0,1,50,88.41ZM38.74,62a97.67,97.67,0,0,1,0-24H61.26A95,95,0,0,1,62,50a95,95,0,0,1-.74,12ZM10,50a40,40,0,0,1,1.84-12H30.71a101.76,101.76,0,0,0,0,24H11.84A40,40,0,0,1,10,50ZM50,11.59A40.43,40.43,0,0,1,59.78,30H40.22A40.43,40.43,0,0,1,50,11.59ZM69.29,38H88.16a40.05,40.05,0,0,1,0,24H69.29A104.71,104.71,0,0,0,70,50,104.71,104.71,0,0,0,69.29,38ZM39.8,11.37A51.87,51.87,0,0,0,32,30H15.41A40.1,40.1,0,0,1,39.8,11.37ZM15.41,70H32A51.87,51.87,0,0,0,39.8,88.63,40.1,40.1,0,0,1,15.41,70ZM60.2,88.63A51.87,51.87,0,0,0,68,70h16.6A40.1,40.1,0,0,1,60.2,88.63Z"/></svg>
