<svg xmlns="http://www.w3.org/2000/svg" xmlns:xlink="http://www.w3.org/1999/xlink" xmlns:serif="http://www.serif.com/" viewBox="0 0 32 32" version="1.1" xml:space="preserve" style="" x="0px" y="0px" fill-rule="evenodd" clip-rule="evenodd" stroke-linejoin="round" stroke-miterlimit="2"><g transform="matrix(1,0,0,1,-156,0)"><g><g transform="matrix(2.2619,0,0,2.375,2.35714,-53.625)"><path d="M75.346,22.738C75.262,22.638 75.135,22.579 75,22.579C74.865,22.579 74.738,22.638 74.654,22.738C74.654,22.738 73.156,24.537 72.257,26.155C71.839,26.908 71.558,27.631 71.558,28.143C71.558,29.952 73.1,31.421 75,31.421C76.9,31.421 78.442,29.952 78.442,28.143C78.442,27.631 78.161,26.908 77.743,26.155C76.844,24.537 75.346,22.738 75.346,22.738Z"/></g><g transform="matrix(0.333333,0,0,0.458056,104.667,15.7896)"><path d="M159.15,32.522C162.81,29.785 166.163,31.628 169.747,33.02C175.548,35.272 181.682,37.232 188.962,32.651C189.027,32.61 189.09,32.567 189.15,32.522C192.81,29.785 196.163,31.628 199.747,33.02C205.548,35.272 211.682,37.232 218.962,32.651C219.027,32.61 219.09,32.567 219.15,32.522C222.797,29.794 226.047,31.44 229.564,32.759C235.197,34.87 241.255,36.83 248.79,32.752C250.119,32.033 250.395,30.664 249.407,29.697C248.419,28.73 246.538,28.529 245.21,29.248C241.757,31.117 238.792,30.917 236.065,30.159C233.737,29.511 231.549,28.538 229.396,27.823C226.556,26.879 223.747,26.366 220.887,26.838C218.961,27.157 216.968,27.915 214.94,29.41C211.783,31.361 208.973,31.228 206.336,30.487C204.016,29.835 201.805,28.82 199.622,28.054C196.748,27.046 193.889,26.459 191.008,26.873C189.029,27.157 186.992,27.898 184.94,29.411C181.783,31.361 178.973,31.228 176.336,30.487C174.016,29.835 171.805,28.82 169.622,28.054C166.748,27.046 163.889,26.459 161.008,26.873C159,27.162 156.933,27.919 154.85,29.478C153.695,30.341 153.721,31.725 154.908,32.565C156.095,33.405 157.996,33.386 159.15,32.522Z"/></g><g transform="matrix(0.333333,0,0,0.458056,104.667,10.7896)"><path d="M159.15,32.522C162.81,29.785 166.163,31.628 169.747,33.02C175.548,35.272 181.682,37.232 188.962,32.651C189.027,32.61 189.09,32.567 189.15,32.522C192.81,29.785 196.163,31.628 199.747,33.02C205.548,35.272 211.682,37.232 218.962,32.651C219.027,32.61 219.09,32.567 219.15,32.522C222.797,29.794 226.047,31.44 229.564,32.759C235.197,34.87 241.255,36.83 248.79,32.752C250.119,32.033 250.395,30.664 249.407,29.697C248.419,28.73 246.538,28.529 245.21,29.248C241.757,31.117 238.792,30.917 236.065,30.159C233.737,29.511 231.549,28.538 229.396,27.823C226.556,26.879 223.747,26.366 220.887,26.838C218.961,27.157 216.968,27.915 214.94,29.41C211.783,31.361 208.973,31.228 206.336,30.487C204.016,29.835 201.805,28.82 199.622,28.054C196.748,27.046 193.889,26.459 191.008,26.873C189.029,27.157 186.992,27.898 184.94,29.411C181.783,31.361 178.973,31.228 176.336,30.487C174.016,29.835 171.805,28.82 169.622,28.054C166.748,27.046 163.889,26.459 161.008,26.873C159,27.162 156.933,27.919 154.85,29.478C153.695,30.341 153.721,31.725 154.908,32.565C156.095,33.405 157.996,33.386 159.15,32.522Z"/></g></g></g></svg>
