<?xml version="1.0" encoding="UTF-8" standalone="no"?>
<!-- Created with Inkscape (http://www.inkscape.org/) -->

<svg
   width="1000"
   height="1000"
   version="1.1"
   id="svg8"
   xmlns="http://www.w3.org/2000/svg"
   xmlns:svg="http://www.w3.org/2000/svg"
   xmlns:rdf="http://www.w3.org/1999/02/22-rdf-syntax-ns#"
   xmlns:cc="http://creativecommons.org/ns#"
   xmlns:dc="http://purl.org/dc/elements/1.1/">
  <defs
     id="defs5498" />
  <metadata
     id="metadata5594">
    <rdf:RDF>
      <cc:Work
         rdf:about="">
        <dc:format>image/svg+xml</dc:format>
        <dc:type
           rdf:resource="http://purl.org/dc/dcmitype/StillImage" />
      </cc:Work>
    </rdf:RDF>
  </metadata>
  <path
     style="fill:#000000;fill-opacity:1;fill-rule:nonzero;stroke:none"
     d="m 332.1875,855.5 c -122.625,-57.75 -210.375,-177 -223.875,-318 h -56.25 c 19.125,231 212.25,412.5 448.125,412.5 l 24.75,-1.125 L 382.0625,806 Z M 365.5625,611 c -7.125,0 -13.875,-1.125 -19.5,-3 -6,-2.25 -10.875,-4.875 -15,-9 -4.125,-3.75 -7.5,-8.25 -9.75,-13.875 -2.25,-5.25 -3.375,-11.25 -3.375,-17.625 h -48.75 c 0,13.5 2.625,25.5 7.875,35.625 5.25,10.125 12.375,18.75 21,25.875 9,6.75 19.125,12 30.75,15.375 11.25,3.75 23.25,5.625 36,5.625 13.875,0 27,-1.875 38.625,-5.625 12,-3.75 22.5,-9.375 31.125,-16.5 8.625,-7.125 15.75,-16.125 20.625,-27 4.875,-10.875 7.5,-22.875 7.5,-36.375 0,-7.125 -0.75,-14.25 -2.625,-21 -1.875,-6.75 -4.5,-13.125 -8.625,-19.125 -3.75,-6 -9,-11.25 -15,-16.125 -6.375,-4.875 -13.875,-8.625 -22.875,-11.625 7.5,-3.375 13.875,-7.5 19.5,-12.375 5.625,-4.875 10.125,-10.125 13.875,-15.75 3.75,-5.625 6.375,-11.25 8.25,-17.25 1.875,-6 2.625,-12 2.625,-18 0,-13.5 -2.25,-25.5 -6.75,-36 -4.5,-10.5 -10.875,-19.125 -19.125,-25.875 -7.5,-7.125 -17.625,-12.375 -28.875,-16.125 -11.625,-3.375 -24.375,-5.25 -38.25,-5.25 -13.5,0 -25.875,1.875 -37.5,6 -11.25,4.125 -21.375,9.75 -29.625,16.875 -7.875,7.125 -14.25,15.375 -19.125,25.125 -4.5,9.75 -6.75,20.25 -6.75,31.875 h 48.75 c 0,-6.375 1.125,-12 3.375,-16.875 2.25,-4.875 5.25,-9.375 9.375,-12.75 4.125,-3.375 8.625,-6.375 14.25,-8.25 5.625,-1.875 11.25,-3 18,-3 15,0 26.25,3.75 33.375,11.625 7.125,7.5 10.875,18.375 10.875,32.25 0,6.75 -1.125,12.75 -3,18.375 -1.875,5.625 -5.25,10.125 -9.375,13.875 -4.125,3.75 -9.375,6.75 -15.375,9 -6,2.25 -13.5,3.375 -21.75,3.375 h -28.875 v 38.625 h 28.875 c 8.25,0 15.75,0.75 22.5,2.625 6.75,1.875 12.375,4.875 16.875,8.625 4.5,4.125 8.25,9 10.875,15 2.625,6 3.75,13.125 3.75,21.375 0,15.375 -4.5,27 -13.125,34.875 -8.625,8.625 -20.625,12.375 -35.625,12.375 z m 320.625,-222 c -12,-12.375 -26.25,-22.125 -42.75,-28.875 -16.125,-6.75 -34.5,-10.125 -54.75,-10.125 h -88.5 v 300 h 86.25 c 20.625,0 39.75,-3.375 56.625,-10.125 16.875,-6.75 31.5,-16.125 43.5,-28.5 12,-12.375 21.375,-27.375 27.75,-44.625 6.375,-17.625 9.75,-37.125 9.75,-58.875 v -15 c 0,-21.75 -3.375,-41.25 -9.75,-58.875 -6.75,-17.625 -16.125,-32.625 -28.125,-45 z m -14.625,118.5 c 0,15.75 -1.875,29.625 -5.25,42.375 -3.75,12.375 -9,23.25 -16.125,31.875 -7.125,8.625 -16.125,15.375 -26.625,19.875 -10.875,4.5 -23.25,6.75 -37.125,6.75 h -34.125 V 392 h 36.375 c 27,0 47.625,8.625 61.5,25.875 14.25,17.25 21.375,42 21.375,74.625 z M 500.1875,50 l -24.75,1.125 142.875,142.875 49.875,-49.875 c 122.625,58.125 210.375,177 223.5,318 h 56.25 C 929.1875,231.5 736.0625,50 500.1875,50 Z m 0,0"
     id="path6" />
</svg>
