<?xml version="1.0" encoding="UTF-8" standalone="no"?>
<!-- Created with Inkscape (http://www.inkscape.org/) -->

<svg
   width="1000"
   height="1000"
   version="1.1"
   id="svg8"
   xmlns="http://www.w3.org/2000/svg"
   xmlns:svg="http://www.w3.org/2000/svg"
   xmlns:rdf="http://www.w3.org/1999/02/22-rdf-syntax-ns#"
   xmlns:cc="http://creativecommons.org/ns#"
   xmlns:dc="http://purl.org/dc/elements/1.1/">
  <defs
     id="defs5498" />
  <metadata
     id="metadata5594">
    <rdf:RDF>
      <cc:Work
         rdf:about="">
        <dc:format>image/svg+xml</dc:format>
        <dc:type
           rdf:resource="http://purl.org/dc/dcmitype/StillImage" />
      </cc:Work>
    </rdf:RDF>
  </metadata>
  <path
     style="fill:#000000;fill-opacity:1;fill-rule:nonzero;stroke:none"
     d="m 496.59766,393.82422 h 85.01953 V 266.41797 H 709.14844 V 181.47656 H 581.61719 V 54.066408 H 496.59766 V 181.47656 H 369.07031 v 84.94141 H 496.59766 Z M 326.55859,776.05469 c -46.76172,0 -84.59375,38.22265 -84.59375,84.9375 0,46.71875 37.83203,84.9414 84.59375,84.9414 46.76172,0 85.01953,-38.22265 85.01953,-84.9414 0,-46.71485 -38.25781,-84.9375 -85.01953,-84.9375 z m 425.10157,0 c -46.76172,0 -84.59766,38.22265 -84.59766,84.9375 0,46.71875 37.83594,84.9414 84.59766,84.9414 46.75781,0 85.01953,-38.22265 85.01953,-84.9414 0,-46.71485 -38.26172,-84.9375 -85.01953,-84.9375 z m -417.875,-138.02735 1.27734,-5.09765 38.25781,-69.22657 h 316.69922 c 31.88281,0 59.9375,-17.41015 74.39063,-43.74218 L 928.5,222.24609 854.53125,181.47656 h -0.42188 L 807.34766,266.41797 690.01953,478.76562 H 391.60156 L 386.07422,467.29687 290.85156,266.41797 250.46484,181.47656 210.50781,96.539064 H 71.5 v 84.937496 h 85.01953 L 309.55469,503.82422 252.16797,607.875 c -6.80078,11.89062 -10.62891,25.90625 -10.62891,40.76953 0,46.71484 38.25781,84.9375 85.01953,84.9375 h 510.1211 v -84.9375 H 344.41406 c -5.52734,0 -10.6289,-4.67187 -10.6289,-10.61719 z m 0,0"
     id="path6" />
</svg>
