<?xml version="1.0" encoding="UTF-8" standalone="no"?>
<!-- Created with Inkscape (http://www.inkscape.org/) -->

<svg
   width="1000"
   height="1000"
   version="1.1"
   id="svg8"
   xmlns="http://www.w3.org/2000/svg"
   xmlns:svg="http://www.w3.org/2000/svg"
   xmlns:rdf="http://www.w3.org/1999/02/22-rdf-syntax-ns#"
   xmlns:cc="http://creativecommons.org/ns#"
   xmlns:dc="http://purl.org/dc/elements/1.1/">
  <defs
     id="defs5498" />
  <metadata
     id="metadata5594">
    <rdf:RDF>
      <cc:Work
         rdf:about="">
        <dc:format>image/svg+xml</dc:format>
        <dc:type
           rdf:resource="http://purl.org/dc/dcmitype/StillImage" />
      </cc:Work>
    </rdf:RDF>
  </metadata>
  <path
     style="fill:#000000;fill-opacity:1;fill-rule:nonzero;stroke:none"
     d="M 815,140 H 626.89844 C 608,87.800781 558.5,50 500,50 441.5,50 392,87.800781 373.10156,140 H 185 c -49.5,0 -90,40.5 -90,90 v 630 c 0,49.5 40.5,90 90,90 h 630 c 49.5,0 90,-40.5 90,-90 V 230 c 0,-49.5 -40.5,-90 -90,-90 z m -315,0 c 24.75,0 45,20.25 45,45 0,24.75 -20.25,45 -45,45 -24.75,0 -45,-20.25 -45,-45 0,-24.75 20.25,-45 45,-45 z M 410,770 230,590 293.44922,526.55078 410,642.64844 706.55078,346.10156 770,410 Z m 0,0"
     id="path6" />
</svg>
