<?xml version="1.0" encoding="UTF-8" standalone="no"?>
<!-- Created with Inkscape (http://www.inkscape.org/) -->

<svg
   width="1000"
   height="1000"
   version="1.1"
   id="svg8"
   xmlns="http://www.w3.org/2000/svg"
   xmlns:svg="http://www.w3.org/2000/svg"
   xmlns:rdf="http://www.w3.org/1999/02/22-rdf-syntax-ns#"
   xmlns:cc="http://creativecommons.org/ns#"
   xmlns:dc="http://purl.org/dc/elements/1.1/">
  <defs
     id="defs5498" />
  <metadata
     id="metadata5594">
    <rdf:RDF>
      <cc:Work
         rdf:about="">
        <dc:format>image/svg+xml</dc:format>
        <dc:type
           rdf:resource="http://purl.org/dc/dcmitype/StillImage" />
      </cc:Work>
    </rdf:RDF>
  </metadata>
  <path
     style="fill:#000000;fill-opacity:1;fill-rule:nonzero;stroke:none"
     d="M 725,50 950,275 V 50 Z M 950,725 725,950 H 950 Z M 275,950 50,725 V 950 Z M 50,275 275,50 H 50 Z M 778.4375,221.5625 C 624.875,68 375.125,68 221.5625,221.5625 68,375.125 68,624.875 221.5625,778.4375 375.125,932 624.875,932 778.4375,778.4375 932,624.875 932,375.6875 778.4375,221.5625 Z m -61.875,495 C 596.75,836.375 403.25,836.375 283.4375,716.5625 163.625,596.75 163.625,403.25 283.4375,283.4375 c 119.8125,-119.8125 313.3125,-119.8125 433.125,0 119.8125,119.8125 119.8125,313.3125 0,433.125 z m 0,0"
     id="path6" />
</svg>
