<?xml version="1.0" encoding="UTF-8" standalone="no"?>
<!-- Created with Inkscape (http://www.inkscape.org/) -->

<svg
   width="1000"
   height="1000"
   version="1.1"
   id="svg8"
   xmlns="http://www.w3.org/2000/svg"
   xmlns:svg="http://www.w3.org/2000/svg"
   xmlns:rdf="http://www.w3.org/1999/02/22-rdf-syntax-ns#"
   xmlns:cc="http://creativecommons.org/ns#"
   xmlns:dc="http://purl.org/dc/elements/1.1/">
  <defs
     id="defs5498" />
  <metadata
     id="metadata5594">
    <rdf:RDF>
      <cc:Work
         rdf:about="">
        <dc:format>image/svg+xml</dc:format>
        <dc:type
           rdf:resource="http://purl.org/dc/dcmitype/StillImage" />
      </cc:Work>
    </rdf:RDF>
  </metadata>
  <path
     id="path6"
     style="fill:#000000;fill-opacity:1;fill-rule:nonzero;stroke:none"
     d="M 258.6875 50 L 220.48242 81.976562 L 283.79492 145.29102 L 315.89062 118.37109 L 258.6875 50 z M 741.3125 50 L 683.66406 118.37109 L 889.22656 290.86328 L 946.87109 222.49219 L 741.3125 50 z M 94.261719 69.171875 L 37.583984 126.26758 L 96.806641 185.49023 L 53.128906 222.04688 L 110.77344 290.41797 L 160.24219 248.92578 L 196.08984 284.77344 C 134.95481 355.29614 97.816406 447.16767 97.816406 547.81641 C 97.816406 769.91016 277.45703 950 500 950 C 600.64757 950 692.52063 912.86219 763.04297 851.72656 L 860.10742 948.79102 L 916.99414 891.9043 L 818.42578 793.33594 L 754.63281 729.54297 L 318.27148 293.18164 L 254.47852 229.38867 L 222.11719 197.02734 L 158.74219 133.65234 L 94.261719 69.171875 z M 500 145.62891 C 437.04608 145.62891 377.48301 160.12517 324.42383 185.91992 L 392.44531 253.94141 C 425.97343 241.6894 462.19602 235.00391 500 235.00391 C 672.9375 235.00391 812.80859 374.875 812.80859 547.81641 C 812.80859 585.61886 806.12407 621.84021 793.87305 655.36719 L 861.89453 723.38867 C 887.68799 670.33048 902.18359 610.76877 902.18359 547.81641 C 902.18359 325.71875 722.09375 145.62891 500 145.62891 z M 259.39258 348.07617 L 699.73828 788.42188 C 645.58105 833.45048 576.04823 860.625 500 860.625 C 327.0625 860.625 187.19141 720.75391 187.19141 547.81641 C 187.19141 471.76703 214.36464 402.23365 259.39258 348.07617 z " />
</svg>
