<?xml version="1.0" encoding="UTF-8" standalone="no"?>
<!-- Created with Inkscape (http://www.inkscape.org/) -->

<svg
   width="1000"
   height="1000"
   version="1.1"
   id="svg16"
   xmlns="http://www.w3.org/2000/svg"
   xmlns:svg="http://www.w3.org/2000/svg"
   xmlns:rdf="http://www.w3.org/1999/02/22-rdf-syntax-ns#"
   xmlns:cc="http://creativecommons.org/ns#"
   xmlns:dc="http://purl.org/dc/elements/1.1/">
  <defs
     id="defs5498" />
  <metadata
     id="metadata5594">
    <rdf:RDF>
      <cc:Work
         rdf:about="">
        <dc:format>image/svg+xml</dc:format>
        <dc:type
           rdf:resource="http://purl.org/dc/dcmitype/StillImage" />
      </cc:Work>
    </rdf:RDF>
  </metadata>
  <path
     style="fill:#000000;fill-opacity:1;fill-rule:nonzero;stroke:none"
     d="m 182.38464,544.30457 c 2.70313,27.27734 6.67188,38.63281 6.67188,38.63281 3.96484,21.625 18.92187,19.10156 18.92187,19.10156 H 787.9198 c 17,0 20.96484,-16.76172 20.96484,-16.76172 3.1875,-13.63672 5.46875,-27.45312 7.15235,-40.91015 H 182.38464 Z m 575.01563,57.49609 -515.59766,0.0586 c 0,0 -7.86719,-10.21093 -9.85156,-36.88671 h 535.96094 c 0,0.0586 0.66015,21.75 -10.51172,36.82812 z m 59.41797,-181.91797 c -1.98438,-21.6289 -15.80079,-21.98828 -15.80079,-21.98828 H 200.1698 c -14.48047,0 -17.00391,14.35938 -17.00391,14.35938 -3.24219,41.63281 -3.72265,74.375 -2.88281,99.55078 h 638.69531 c 3.00391,-51.60938 -2.16015,-91.92188 -2.16015,-91.92188 z m -263.7461,55.63282 H 446.55261 c -9.37109,0 -17.00391,-7.62891 -17.00391,-17.00391 0,-4.68359 1.92188,-8.94922 4.98829,-12.01563 3.0625,-3.0625 7.32812,-4.98437 12.01562,-4.98437 h 106.51953 c 9.3711,0 17,7.62891 17,17 0,9.375 -7.57031,17.00391 -17,17.00391 z m 0,0"
     id="path6" />
  <path
     style="fill:#000000;fill-opacity:1;fill-rule:nonzero;stroke:none"
     d="m 757.40027,591.46863 c -16.46485,0 -32.92578,0 -49.32422,0 -39.71485,0 -79.48438,0 -119.19922,0 -48.60156,0 -97.20703,0 -145.80859,0 -43.01563,0 -86.09375,0 -129.17188,0 -23.06641,0 -46.13672,0 -69.20703,0 -0.96484,0 -1.92578,0 -2.88672,0 3.00391,1.67969 5.94922,3.42187 8.95313,5.10547 -0.42188,-0.54297 -0.72266,-1.08203 -1.08204,-1.6836 -0.48046,-0.78125 -0.83984,-1.5625 -1.26171,-2.40234 -0.23829,-0.42187 -0.42188,-0.90234 -0.60157,-1.38281 -0.66015,-1.5 0.96094,2.46484 -0.0586,-0.23828 -3.36328,-8.59375 -4.74609,-17.54297 -5.40625,-25.95313 -3.42578,3.42188 -6.91016,6.90625 -10.33594,10.33203 15.92188,0 31.84375,0 47.76563,0 38.87109,0 77.67968,0 116.55078,0 48.42187,0 96.84765,0 145.33203,0 44.63672,0 89.33594,0 133.97266,0 27.51562,0 55.09375,0 82.60937,0 3.24219,0 6.48828,0 9.73438,0 -3.42579,-3.42578 -6.91016,-6.91015 -10.33594,-10.33203 0,1.14063 0,2.22266 -0.0586,3.36328 -0.0625,1.26172 -0.17968,2.52344 -0.24218,3.78516 -0.0586,0.78125 -0.17969,1.5 -0.23828,2.28125 0.35937,-2.76172 -0.0625,0.17969 -0.1211,0.60156 -1.4414,8.71094 -3.48437,14.71875 -8.41015,21.56641 -3.30469,4.6289 -0.84375,11.53515 3.72265,14.17969 5.22656,3.0664 10.875,0.84375 14.17969,-3.72266 8.35156,-11.65625 12.31641,-27.69922 11.89453,-41.99609 -0.11719,-5.64844 -4.625,-10.33204 -10.33203,-10.33204 -15.92188,0 -31.84375,0 -47.76172,0 -38.87109,0 -77.68359,0 -116.55469,0 -48.42187,0 -96.84765,0 -145.32812,0 -44.64063,0 -89.33985,0 -133.97656,0 -27.51563,0 -55.09375,0 -82.60938,0 -3.24219,0 -6.48828,0 -9.73047,0 -5.28906,0 -10.8164,4.7461 -10.33594,10.33204 1.08204,13.8164 3.1836,29.25781 10.75391,41.33203 2.64453,4.26562 6.67188,5.94922 11.35547,5.94922 7.44922,0 14.90234,0 22.35156,0 33.94141,0 67.88672,0 101.83203,0 47.34375,0 94.74219,0 142.08594,0 46.32031,0 92.70313,0 139.02344,0 30.9375,0 61.82031,0 92.76172,0 5.22656,0 10.39062,0 15.61718,0 5.64844,0 10.33594,-4.6875 10.33594,-10.33204 -0.0625,-5.76953 -4.80859,-10.45312 -10.45312,-10.45312 z m 0,0"
     id="path8" />
  <path
     style="fill:#000000;fill-opacity:1;fill-rule:nonzero;stroke:none"
     d="m 172.05261,544.30457 c 1.38281,13.57812 2.82422,27.69531 6.91016,40.85547 0.59765,1.98046 0.89843,3.96484 1.5625,5.94531 1.5,4.80859 3.90234,8.83203 7.02734,12.73828 4.26563,5.22656 10.75391,7.80859 17.24219,8.53125 1.02344,0.12109 2.04297,0.17969 3.0664,0.0586 6.42579,-0.66015 1.37891,-0.0586 0.23829,-0.0586 0.0586,0 0.0586,0 0.12109,0 0.41797,0 0.90234,0 1.32031,0 2.34375,0 4.6875,0 7.03125,0 25.53125,0 51.125,0 76.66016,0 42.89453,0 85.79297,0 128.6875,0 48.84375,0 97.6875,0 146.53125,0 43.3789,0 86.69531,0 130.07031,0 26.49609,0 52.92969,0 79.42578,0 3.36328,0 6.72656,0 10.09375,0 12.55469,0 23.96875,-7.44922 28.95703,-18.98438 2.34375,-5.40625 3.30469,-10.93359 4.50391,-16.70312 2.16406,-10.69531 3.72656,-21.50781 5.10937,-32.32031 0.71875,-5.58985 -5.23046,-10.33594 -10.33593,-10.33594 -13.75782,0 -27.45703,0 -41.21485,0 -34.84375,0 -69.6914,0 -104.59375,0 -46.4414,0 -92.88281,0 -139.32422,0 -48.48437,0 -96.96484,0 -145.51171,0 -41.03125,0 -82.00782,0 -123.03907,0 -23.97265,0 -48.0039,0 -71.97656,0 -2.70312,0 -5.40625,0 -8.10937,0 -5.76563,-0.0586 -10.45313,4.625 -10.45313,10.27344 0,5.64843 4.6875,10.33593 10.33203,10.33593 13.75781,0 27.45703,0 41.21485,0 34.84765,0 69.6914,0 104.59765,0 46.44141,0 92.88281,0 139.32031,0 48.48438,0 96.96875,0 145.45313,0 41.03125,0 82.00781,0 123.03906,0 23.97266,0 48.00391,0 71.97656,0 2.70313,0 5.40625,0 8.10938,0 -3.42578,-3.42578 -6.91016,-6.91015 -10.33203,-10.33593 -1.44141,11.41406 -3.36719,22.71093 -5.82813,33.88672 -0.42187,1.92187 -0.78125,3.84375 -1.4414,5.70703 -0.90235,2.70312 1.01953,-2.16407 -0.0625,0.23828 -0.53907,1.20312 -1.26172,2.34375 -1.98047,3.42578 -1.26172,1.86328 1.5625,-1.86328 0.0586,-0.0625 -0.42187,0.54297 -0.90234,1.02344 -1.4414,1.50391 -0.35938,0.35937 -2.28125,1.86328 -0.1211,0.23828 -0.60156,0.48437 -1.26172,0.84375 -1.92187,1.20312 -1.44141,0.83985 -2.82422,1.14063 -5.04688,1.14063 -0.30078,0 -0.66015,0 -0.96094,0 -6.0664,0 -12.07421,0 -18.14453,0 -30.33984,0 -60.67968,0 -91.07812,0 -45.17969,0 -90.35938,0 -135.53906,0 -48.60157,0 -97.20704,0 -145.8086,0 -40.61328,0 -81.22656,0 -121.90234,0 -21.20703,0 -42.47266,0 -63.67969,0 -0.90234,0 -1.80469,0 -2.70703,0 -0.0586,0 -0.0586,0 -0.11719,0 -0.90234,0 -1.86328,0.12109 -2.76562,0.36328 -0.83985,0.11719 -2.10157,0.23828 2.52343,-0.36328 -0.30078,0.0625 -0.60156,0.0625 -0.90234,0.0625 -0.35937,0 -0.71875,0 -1.14062,0 -2.22266,-0.1211 3.0039,0.53906 0.54296,0.0586 -0.72265,-0.12109 -1.4414,-0.35937 -2.16406,-0.60156 3.30469,1.14453 0.53906,0.17969 -0.35937,-0.35938 -2.34375,-1.4414 1.08203,1.01953 -0.30078,-0.24218 -0.30079,-0.29688 -0.66016,-0.59766 -0.96094,-0.96094 -1.6836,-1.74219 1.32031,1.92578 -0.17969,-0.17969 -0.36328,-0.48047 -2.16406,-4.02344 -1.32422,-2.04297 -0.66015,-1.62109 -1.14062,-3.24219 -1.5625,-4.92578 -0.48047,-1.86328 -0.96094,-3.72266 -1.4414,-5.58594 -3.00391,-11.17578 -4.26563,-21.75 -5.34766,-32.625 -0.53906,-5.58593 -4.26563,-10.33203 -10.33203,-10.33203 -5.16797,0.1211 -10.875,4.86719 -10.27344,10.45313 z m 0,0"
     id="path10" />
  <path
     style="fill:#000000;fill-opacity:1;fill-rule:nonzero;stroke:none"
     d="m 553.07214,465.18347 c -34.96484,0 -69.93359,0 -104.83984,0 -0.53906,0 -1.01953,0 -1.5586,0 -0.60156,0 -2.04296,-0.12109 -0.42187,0.11719 -0.96094,-0.11719 -1.92188,-0.48047 -2.88281,-0.78125 2.34375,0.78125 -2.34375,-1.80078 -0.48047,-0.30078 -0.78125,-0.59766 -1.38281,-1.32031 -2.04297,-2.03906 1.32031,1.5 -0.42188,-0.90235 -0.54297,-1.14453 0.96094,1.74218 -0.23828,-0.89844 -0.30078,-1.19922 -0.78125,-2.82422 0,1.74219 -0.11719,-1.26172 -0.0625,-1.32422 0.30078,-2.22266 0.89844,-3.36719 1.32422,-2.40234 -0.83984,0.66406 1.02344,-1.32031 0.89843,-0.83984 1.08203,-0.96094 0.41797,-0.48047 0.60156,-0.42187 1.26171,-0.78125 1.86328,-1.08203 -1.44141,0.78125 1.68359,-0.41797 1.74218,-0.41797 -0.60156,0.11719 -1.32031,0 0.66016,0 0.12109,0 0.24219,0 0.30078,0 0.72266,0 1.50391,0 2.22266,0 3.125,0 6.25,0 9.375,0 22.52734,0 45.05859,0 67.58594,0 8.47265,0 17.0039,0 25.47656,0 0.48047,0 0.96094,0 1.4414,0 0.78125,0 1.74219,0.11719 0.30079,-0.12109 0.48046,0.0586 3.90234,1.32031 2.22265,0.53906 0.17969,0.0625 2.76172,1.80469 1.14063,0.54297 0.35937,0.29687 2.64453,3.0039 1.62109,1.5 0.12109,0.17969 1.50391,2.94531 0.72266,1.02344 0.17968,0.48046 0.83984,4.08203 0.66015,2.16015 0,0.17969 -0.17968,3.48438 0.1211,1.32422 -0.0625,0.53906 -1.32422,3.90234 -0.54297,2.22266 -0.0586,0.17968 -1.80078,2.76172 -0.53906,1.14062 -0.30079,0.35938 -3.00391,2.64453 -1.50391,1.6211 -0.53906,0.35937 -1.08203,0.66015 -1.67969,0.96093 0.96094,-0.35937 0.89844,-0.35937 -0.24219,0.0625 -0.66015,0.17969 -1.26171,0.35938 -1.92187,0.48047 1.20312,-0.24219 1.14062,-0.30078 -0.17969,-0.17969 -5.64844,0.17969 -10.33594,4.5625 -10.33594,10.33204 0,5.52734 4.6875,10.51171 10.33594,10.33203 11.59375,-0.35938 21.20703,-7.02735 25.59375,-17.78125 4.08594,-10.09375 0.96094,-21.75 -6.55078,-29.32032 -7.26953,-7.26953 -16.64062,-7.6875 -26.07422,-7.6875 -21.6875,0 -43.375,0 -65.0039,0 -9.3711,0 -18.7461,0 -28.0586,0 -1.98047,0 -3.96484,0 -6.00781,0 -9.12891,0 -17.42188,4.38282 -22.70703,11.77344 -12.91797,17.84375 1.14062,43.01563 22.58984,43.01563 5.64453,0 11.35547,0 17.0625,0 29.79688,0 59.53516,0 89.33594,0 5.64844,0 10.33203,-4.6836 10.33203,-10.33203 -0.11719,-5.64844 -4.86328,-10.33204 -10.51172,-10.33204 z m 0,0"
     id="path12" />
  <path
     style="fill:#000000;fill-opacity:1;fill-rule:nonzero;stroke:none"
     d="m 827.20886,419.88269 c -1.37891,-13.27734 -7.50781,-29.32031 -22.52734,-31.90234 -2.10157,-0.35938 -3.60547,-0.48047 -5.58985,-0.48047 -6.72656,0 -13.51562,0 -20.24609,0 -30.82031,0 -61.64063,0 -92.51953,0 -45.0586,0 -90.17969,0 -135.23828,0 -48.72266,0 -97.44532,0 -146.17188,0 -41.7539,0 -83.50781,0 -125.20312,0 -24.15235,0 -48.30078,0 -72.45313,0 -10.15625,0 -20.48828,0.42188 -27.63672,9.19141 -2.94531,3.66406 -5.58593,8.05078 -6.42968,12.73828 -1.08203,6.0664 -1.08203,12.375 -1.5,18.5039 -0.36328,5.82813 -0.72266,11.65625 -1.02344,17.42188 -0.89844,18.74609 -1.32031,37.48828 -1.01953,56.23437 0.0586,3.36329 0.12109,6.78907 0.23828,10.15235 0.17969,5.64843 4.56641,10.33593 10.33594,10.33593 13.63671,0 27.27343,0 40.91406,0 34.66406,0 69.32812,0 104.05469,0 46.32031,0 92.64062,0 138.96093,0 48.60547,0 97.14844,0 145.75,0 41.45703,0 82.85157,0 124.30469,0 24.93359,0 49.80469,0 74.73828,0 3.30469,0 6.66797,0 9.97266,0 5.88672,0 10.03125,-4.75 10.33203,-10.33593 1.86328,-30.39844 1.80469,-61.58203 -2.04297,-91.85938 -0.71875,-5.58593 -4.14453,-10.33203 -10.33203,-10.33203 -5.10547,0 -11.05469,4.7461 -10.33203,10.33203 3.84375,30.33985 3.90234,61.46094 2.22265,91.92188 3.42188,-3.42578 6.90625,-6.91016 10.33204,-10.33594 -13.63672,0 -27.27735,0 -40.91407,0 -34.66406,0 -69.33203,0 -104.05468,0 -46.32032,0 -92.64063,0 -138.96094,0 -48.60547,0 -97.14844,0 -145.75391,0 -41.45312,0 -82.84765,0 -124.30078,0 -24.93359,0 -49.80469,0 -74.73828,0 -3.30469,0 -6.66797,0 -9.97266,0 3.42188,3.42578 6.91016,6.91016 10.33203,10.33594 -0.60156,-17.54297 -0.41796,-35.08594 0.17969,-52.57031 0.36328,-10.875 0.96094,-21.8086 1.6836,-32.6836 0.17968,-2.82422 0.35937,-5.64844 0.60156,-8.53125 0.12109,-1.4414 0.23828,-2.88281 0.30078,-4.32422 -0.12109,1.74219 -0.30078,1.6211 -0.24219,1.08203 0.1211,-0.48046 0.24219,-1.02343 0.42188,-1.5039 0.12109,-0.35938 0.23828,-0.78125 0.41797,-1.14063 0.54296,-1.5039 -1.25782,2.64453 0,0.17969 0.36328,-0.78125 2.70703,-3.84375 0.72265,-1.44141 0.42188,-0.54296 0.90235,-1.02343 1.38281,-1.4414 1.74219,-1.6836 -1.92187,1.26172 0.17969,-0.1211 0.42188,-0.30078 2.70313,-1.26171 0.30078,-0.35937 0.78125,-0.30078 1.6211,-0.48047 2.46094,-0.72266 -2.33984,0.54297 0.66406,0 1.08203,0 0.30078,0 0.66016,0 0.96094,0 2.10547,0 4.14844,0 6.25,0 24.26953,0 48.54297,0 72.75391,0 41.8164,0 83.6289,0 125.38671,0 48.72266,0 97.44532,0 146.16797,0 45.0625,0 90.0586,0 135.11719,0 30.76172,0 61.46094,0 92.22266,0 6.42968,0 12.91797,0 19.34375,0 0.84375,0 1.74218,0 2.58593,0 1.85938,0 -3.60546,-0.71875 -0.90234,-0.0586 0.96094,0.23828 3.42578,1.26172 -0.17969,-0.24219 0.83985,0.36328 1.6211,0.84375 2.40235,1.32422 1.62109,1.07813 -1.98438,-1.68359 -0.42188,-0.30078 0.42188,0.35938 0.84375,0.83984 1.26172,1.26172 1.5625,1.62109 -1.37891,-1.98438 0,-0.0625 0.42188,0.60156 0.78125,1.26172 1.14453,1.86328 0.23828,0.35938 1.19922,2.76563 0.29688,0.48047 0.36328,0.83984 0.60156,1.74219 0.84375,2.58203 0.66015,2.10547 0.83984,3.66797 0.96093,4.75 0.60157,5.58594 4.26563,10.33203 10.33204,10.33203 5.28906,0.0586 10.99609,-4.6875 10.45312,-10.27344 z m 0,0"
     id="path14" />
</svg>
