<?xml version="1.0" encoding="UTF-8" standalone="no"?>
<!-- Created with Inkscape (http://www.inkscape.org/) -->

<svg
   width="1000"
   height="1000"
   version="1.1"
   id="svg8"
   xmlns="http://www.w3.org/2000/svg"
   xmlns:svg="http://www.w3.org/2000/svg"
   xmlns:rdf="http://www.w3.org/1999/02/22-rdf-syntax-ns#"
   xmlns:cc="http://creativecommons.org/ns#"
   xmlns:dc="http://purl.org/dc/elements/1.1/">
  <defs
     id="defs5498" />
  <metadata
     id="metadata5594">
    <rdf:RDF>
      <cc:Work
         rdf:about="">
        <dc:format>image/svg+xml</dc:format>
        <dc:type
           rdf:resource="http://purl.org/dc/dcmitype/StillImage" />
      </cc:Work>
    </rdf:RDF>
  </metadata>
  <path
     style="fill:#000000;fill-opacity:1;fill-rule:nonzero;stroke:none"
     d="m 275,725 c 0,20.625 16.875,37.5 37.5,37.5 H 350 v 131.25 c 0,31.125 25.125,56.25 56.25,56.25 31.125,0 56.25,-25.125 56.25,-56.25 V 762.5 h 75 v 131.25 c 0,31.125 25.125,56.25 56.25,56.25 31.125,0 56.25,-25.125 56.25,-56.25 V 762.5 h 37.5 c 20.625,0 37.5,-16.875 37.5,-37.5 V 350 H 275 Z M 181.25,350 C 150.125,350 125,375.125 125,406.25 v 262.5 c 0,31.125 25.125,56.25 56.25,56.25 31.125,0 56.25,-25.125 56.25,-56.25 V 406.25 C 237.5,375.125 212.375,350 181.25,350 Z m 637.5,0 c -31.125,0 -56.25,25.125 -56.25,56.25 v 262.5 c 0,31.125 25.125,56.25 56.25,56.25 31.125,0 56.25,-25.125 56.25,-56.25 V 406.25 C 875,375.125 849.875,350 818.75,350 Z M 632.375,131 681.125,82.25 c 7.5,-7.5 7.5,-19.125 0,-26.625 -7.5,-7.5 -19.125,-7.5 -26.625,0 l -55.5,55.5 C 569.375,96.125 535.625,87.5 500,87.5 c -36,0 -69.75,8.625 -99.75,23.625 l -55.875,-55.5 c -7.5,-7.5 -19.125,-7.5 -26.625,0 -7.5,7.5 -7.5,19.125 0,26.625 l 49.125,49.125 C 311.375,172.25 275,237.875 275,312.5 H 725 C 725,237.875 688.625,171.875 632.375,131 Z M 425,237.5 H 387.5 V 200 H 425 Z m 187.5,0 H 575 V 200 h 37.5 z m 0,0"
     id="path6" />
</svg>
