<?xml version="1.0" encoding="UTF-8" standalone="no"?>
<!-- Created with Inkscape (http://www.inkscape.org/) -->

<svg
   width="1000"
   height="1000"
   version="1.1"
   id="svg8"
   xmlns="http://www.w3.org/2000/svg"
   xmlns:svg="http://www.w3.org/2000/svg"
   xmlns:rdf="http://www.w3.org/1999/02/22-rdf-syntax-ns#"
   xmlns:cc="http://creativecommons.org/ns#"
   xmlns:dc="http://purl.org/dc/elements/1.1/">
  <defs
     id="defs5498" />
  <metadata
     id="metadata5594">
    <rdf:RDF>
      <cc:Work
         rdf:about="">
        <dc:format>image/svg+xml</dc:format>
        <dc:type
           rdf:resource="http://purl.org/dc/dcmitype/StillImage" />
      </cc:Work>
    </rdf:RDF>
  </metadata>
  <path
     style="fill:#000000;fill-opacity:1;fill-rule:nonzero;stroke:none"
     d="m 450,750 c 0,27.5 22.5,50 50,50 27.5,0 50,-22.5 50,-50 0,-27.5 -22.5,-50 -50,-50 -27.5,0 -50,22.5 -50,50 z m 0,-700 v 200 h 100 v -96 c 169.5,24.5 300,169.5 300,346 0,193.5 -156.5,350 -350,350 -193.5,0 -350,-156.5 -350,-350 0,-84 29.5,-161 79,-221 l 271,271 70.5,-70.5 -340,-340 v 1 C 121,222.5 50,352.5 50,500 50,748.5 251,950 500,950 748.5,950 950,748.5 950,500 950,251.5 748.5,50 500,50 Z m 350,450 c 0,-27.5 -22.5,-50 -50,-50 -27.5,0 -50,22.5 -50,50 0,27.5 22.5,50 50,50 27.5,0 50,-22.5 50,-50 z m -600,0 c 0,27.5 22.5,50 50,50 27.5,0 50,-22.5 50,-50 0,-27.5 -22.5,-50 -50,-50 -27.5,0 -50,22.5 -50,50 z m 0,0"
     id="path6" />
</svg>
