<?xml version="1.0" encoding="UTF-8" standalone="no"?>
<!-- Created with Inkscape (http://www.inkscape.org/) -->

<svg
   width="1000"
   height="1000"
   version="1.1"
   id="svg14"
   xmlns="http://www.w3.org/2000/svg"
   xmlns:svg="http://www.w3.org/2000/svg"
   xmlns:rdf="http://www.w3.org/1999/02/22-rdf-syntax-ns#"
   xmlns:cc="http://creativecommons.org/ns#"
   xmlns:dc="http://purl.org/dc/elements/1.1/">
  <defs
     id="defs5498" />
  <metadata
     id="metadata5594">
    <rdf:RDF>
      <cc:Work
         rdf:about="">
        <dc:format>image/svg+xml</dc:format>
        <dc:type
           rdf:resource="http://purl.org/dc/dcmitype/StillImage" />
      </cc:Work>
    </rdf:RDF>
  </metadata>
  <path
     style="fill:#000000;fill-opacity:1;fill-rule:nonzero;stroke:none"
     d="M 915.38281,50 H 84.617188 C 65.550781,50 50,65.550781 50,84.617188 V 915.38281 C 50,934.44922 65.550781,950 84.617188,950 H 915.38281 C 934.44922,950 950,934.53906 950,915.38281 V 84.617188 C 950,65.550781 934.44922,50 915.38281,50 Z M 292.30859,846.15234 c -57.28125,0 -103.84765,-46.5625 -103.84765,-103.84375 0,-57.28515 46.5664,-103.84765 103.84765,-103.84765 57.28125,0 103.84375,46.5625 103.84375,103.84765 0,57.28125 -46.5625,103.84375 -103.84375,103.84375 z M 223.07812,534.61719 c 0,-19.06641 15.55079,-34.61719 34.61329,-34.61719 0,-19.06641 15.55078,-34.61719 34.61718,-34.61719 19.0625,0 34.61328,15.55078 34.61328,34.61719 19.06641,0 34.61719,15.46094 34.61719,34.61719 0,19.15234 -15.55078,34.61328 -34.61719,34.61328 0,19.0664 -15.55078,34.61719 -34.61328,34.61719 -19.0664,0 -34.61718,-15.46485 -34.61718,-34.61719 -19.0625,0 -34.61329,-15.55078 -34.61329,-34.61328 z m 484.61329,311.53515 c -57.28125,0 -103.84375,-46.5625 -103.84375,-103.84375 0,-57.28515 46.5625,-103.84765 103.84375,-103.84765 57.28515,0 103.84765,46.5625 103.84765,103.84765 0,57.28125 -46.5625,103.84375 -103.84765,103.84375 z M 638.46094,534.61719 C 638.46094,515.55078 654.01172,500 673.07812,500 h 69.23047 c 19.0625,0 34.61328,15.46094 34.61328,34.61719 0,19.15234 -15.55078,34.61328 -34.61328,34.61328 h -69.23047 c -19.0664,0 -34.61718,-15.55078 -34.61718,-34.61328 z M 811.53906,396.15234 c 0,19.06641 -15.46484,34.61719 -34.61719,34.61719 H 223.07812 c -19.0664,0 -34.61718,-15.46484 -34.61718,-34.61719 v -207.6914 c 0,-19.0625 15.46484,-34.61328 34.61718,-34.61328 h 553.84375 c 19.06641,0 34.61719,15.55078 34.61719,34.61328 z m 0,0"
     id="path6" />
  <path
     style="fill:#000000;fill-opacity:1;fill-rule:nonzero;stroke:none"
     d="m 673.07812,742.30859 c 0,-19.11718 15.4961,-34.61718 34.61329,-34.61718 19.11718,0 34.61718,15.5 34.61718,34.61718 0,19.11719 -15.5,34.61328 -34.61718,34.61328 -19.11719,0 -34.61329,-15.49609 -34.61329,-34.61328"
     id="path8" />
  <path
     style="fill:#000000;fill-opacity:1;fill-rule:nonzero;stroke:none"
     d="m 257.69141,742.30859 c 0,-19.11718 15.5,-34.61718 34.61718,-34.61718 19.11719,0 34.61328,15.5 34.61328,34.61718 0,19.11719 -15.49609,34.61328 -34.61328,34.61328 -19.11718,0 -34.61718,-15.49609 -34.61718,-34.61328"
     id="path10" />
  <path
     style="fill:#000000;fill-opacity:1;fill-rule:nonzero;stroke:none"
     d="m 257.69141,361.53906 h 227.98828 l 93.74218,-93.74219 c 13.53125,-13.53125 35.40625,-13.53125 48.9375,0 13.52735,13.52735 13.52735,35.40625 0,48.9336 l -44.71875,44.71875 158.66797,0.0898 V 223.07812 H 257.69141 Z m 0,0"
     id="path12" />
</svg>
