<?xml version="1.0" encoding="UTF-8" standalone="no"?>
<!-- Created with Inkscape (http://www.inkscape.org/) -->

<svg
   width="1000"
   height="1000"
   version="1.1"
   id="svg8"
   xmlns="http://www.w3.org/2000/svg"
   xmlns:svg="http://www.w3.org/2000/svg"
   xmlns:rdf="http://www.w3.org/1999/02/22-rdf-syntax-ns#"
   xmlns:cc="http://creativecommons.org/ns#"
   xmlns:dc="http://purl.org/dc/elements/1.1/">
  <defs
     id="defs5498" />
  <metadata
     id="metadata5594">
    <rdf:RDF>
      <cc:Work
         rdf:about="">
        <dc:format>image/svg+xml</dc:format>
        <dc:type
           rdf:resource="http://purl.org/dc/dcmitype/StillImage" />
      </cc:Work>
    </rdf:RDF>
  </metadata>
  <path
     style="fill:#000000;fill-opacity:1;fill-rule:nonzero;stroke:none"
     d="M 915.35156,361.42969 H 880.74219 V 292.14453 C 880.74219,273.0625 865.19141,257.5 846.12891,257.5 H 84.648438 c -19.066407,0 -34.613282,15.5625 -34.613282,34.64453 v 415.71094 c 0,19.08203 15.546875,34.64453 34.613282,34.64453 H 846.12891 c 19.0625,0 34.61328,-15.5625 34.61328,-34.64453 v -69.28516 h 34.60937 c 19.06641,0 34.61328,-15.5625 34.61328,-34.64062 V 396.07031 c 0,-19.07812 -15.54687,-34.64062 -34.61328,-34.64062 z M 361.55078,534.64453 H 223.09766 c -19.0625,0 -34.61329,-15.47656 -34.61329,-34.64453 0,-19.07813 15.46094,-34.64453 34.61329,-34.64453 h 138.45312 c 19.0625,0 34.60938,15.5664 34.60938,34.64453 0,19.07812 -15.54688,34.64453 -34.60938,34.64453 z m 346.125,0 H 673.0625 v 34.64063 c 0,19.08203 -15.54688,34.64453 -34.61328,34.64453 -19.0625,0 -34.60938,-15.47657 -34.60938,-34.64453 v -34.64063 h -34.61328 c -19.0625,0 -34.61328,-15.47656 -34.61328,-34.64453 0,-19.07813 15.46094,-34.64453 34.61328,-34.64453 h 34.61328 v -34.64063 c 0,-19.08203 15.46094,-34.64453 34.60938,-34.64453 19.0664,0 34.61328,15.47656 34.61328,34.64453 v 34.64063 h 34.61328 c 19.0625,0 34.61328,15.5664 34.61328,34.64453 0,19.07812 -15.55078,34.64453 -34.61328,34.64453 z m 0,0"
     id="path6" />
</svg>
