<?xml version="1.0" encoding="UTF-8" standalone="no"?>
<!-- Created with Inkscape (http://www.inkscape.org/) -->

<svg
   width="1000"
   height="1000"
   version="1.1"
   id="svg8"
   xmlns="http://www.w3.org/2000/svg"
   xmlns:svg="http://www.w3.org/2000/svg"
   xmlns:rdf="http://www.w3.org/1999/02/22-rdf-syntax-ns#"
   xmlns:cc="http://creativecommons.org/ns#"
   xmlns:dc="http://purl.org/dc/elements/1.1/">
  <defs
     id="defs5498" />
  <metadata
     id="metadata5594">
    <rdf:RDF>
      <cc:Work
         rdf:about="">
        <dc:format>image/svg+xml</dc:format>
        <dc:type
           rdf:resource="http://purl.org/dc/dcmitype/StillImage" />
      </cc:Work>
    </rdf:RDF>
  </metadata>
  <path
     style="fill:#000000;fill-opacity:1;fill-rule:nonzero;stroke:none"
     d="M 915.35156,361.42969 H 880.74219 V 292.14453 C 880.74219,273.0625 865.19141,257.5 846.12891,257.5 H 84.648438 c -19.066407,0 -34.613282,15.5625 -34.613282,34.64453 v 415.71094 c 0,19.08203 15.546875,34.64453 34.613282,34.64453 H 846.12891 c 19.0625,0 34.61328,-15.5625 34.61328,-34.64453 v -69.28516 h 34.60937 c 19.06641,0 34.61328,-15.5625 34.61328,-34.64062 V 396.07031 c 0,-19.07812 -15.54687,-34.64062 -34.61328,-34.64062 z m -417.10937,149.5625 -34.61328,103.92578 c -4.83204,14.50781 -18.35938,23.65234 -32.85547,23.65234 -3.60157,0 -7.28907,-0.52734 -10.98047,-1.75781 -18.09766,-6.06641 -27.9375,-25.67578 -21.875,-43.78516 l 19.41406,-58.29687 -21.17187,-0.0859 c -11.15625,0 -21.60938,-5.36328 -28.10938,-14.42187 -6.5,-9.05469 -8.25781,-20.66407 -4.74609,-31.21485 l 34.61328,-103.92578 c 6.0625,-18.11328 25.74219,-27.96094 43.75,-21.89453 18.09765,6.06641 27.9375,25.67578 21.875,43.78516 l -19.32813,58.38281 h 21.17188 c 11.15625,0 21.61328,5.36328 28.11328,14.42187 6.5,9.05469 8.25781,20.57422 4.74219,31.21485 z m 0,0"
     id="path6" />
</svg>
