<?xml version="1.0" encoding="UTF-8" standalone="no"?>
<!-- Created with Inkscape (http://www.inkscape.org/) -->

<svg
   width="1000"
   height="1000"
   version="1.1"
   id="svg14"
   xmlns="http://www.w3.org/2000/svg"
   xmlns:svg="http://www.w3.org/2000/svg"
   xmlns:rdf="http://www.w3.org/1999/02/22-rdf-syntax-ns#"
   xmlns:cc="http://creativecommons.org/ns#"
   xmlns:dc="http://purl.org/dc/elements/1.1/">
  <defs
     id="defs5498" />
  <metadata
     id="metadata5594">
    <rdf:RDF>
      <cc:Work
         rdf:about="">
        <dc:format>image/svg+xml</dc:format>
        <dc:type
           rdf:resource="http://purl.org/dc/dcmitype/StillImage" />
      </cc:Work>
    </rdf:RDF>
  </metadata>
  <path
     style="fill:#000000;fill-opacity:1;fill-rule:nonzero;stroke:none"
     d="m 257.5,223.09766 h 485 v 69.22656 h -485 z m 0,0"
     id="path6" />
  <path
     style="fill:#000000;fill-opacity:1;fill-rule:nonzero;stroke:none"
     d="m 465.35547,84.64844 c 0,-19.066407 -15.47266,-34.613282 -34.64063,-34.613282 H 326.78516 c -19.07813,0 -34.64063,15.546875 -34.64063,34.613282 v 69.22265 h 173.21094 z m 0,0"
     id="path8" />
  <path
     style="fill:#000000;fill-opacity:1;fill-rule:nonzero;stroke:none"
     d="m 707.85547,84.64844 c 0,-19.066407 -15.5625,-34.613282 -34.64063,-34.613282 H 569.28516 c -19.07813,0 -34.64063,15.546875 -34.64063,34.613282 v 69.22265 h 173.21094 z m 0,0"
     id="path10" />
  <path
     style="fill:#000000;fill-opacity:1;fill-rule:nonzero;stroke:none"
     d="m 257.5,361.55078 v 553.80078 c 0,19.06641 15.5625,34.61328 34.64453,34.61328 h 415.71094 c 19.08203,0 34.64453,-15.46093 34.64453,-34.61328 V 361.55078 Z m 294.46484,207.67578 c 13.98047,0 26.64063,8.4336 32.00391,21.34766 5.36328,12.91406 2.375,27.84765 -7.5625,37.6875 L 472.48047,732.09766 c -6.77344,6.76562 -15.65235,10.10546 -24.53125,10.10546 -8.88281,0 -17.76172,-3.33984 -24.53125,-10.10546 -13.54297,-13.52735 -13.54297,-35.40235 0,-48.92969 l 44.92969,-44.71875 h -20.3125 c -13.98047,0 -26.64063,-8.4336 -32.00391,-21.34375 -5.36328,-12.91406 -2.375,-27.85156 7.5625,-37.6875 L 527.51953,475.57812 c 13.54297,-13.52734 35.43359,-13.52734 48.97656,0 13.53907,13.52735 13.53907,35.40235 0,48.9336 l -44.7539,44.71484 z m 0,0"
     id="path12" />
</svg>
