<?xml version="1.0" encoding="UTF-8" standalone="no"?>
<!-- Created with Inkscape (http://www.inkscape.org/) -->

<svg
   width="1000"
   height="1000"
   version="1.1"
   id="svg10"
   xmlns="http://www.w3.org/2000/svg"
   xmlns:svg="http://www.w3.org/2000/svg"
   xmlns:rdf="http://www.w3.org/1999/02/22-rdf-syntax-ns#"
   xmlns:cc="http://creativecommons.org/ns#"
   xmlns:dc="http://purl.org/dc/elements/1.1/">
  <defs
     id="defs5498" />
  <metadata
     id="metadata5594">
    <rdf:RDF>
      <cc:Work
         rdf:about="">
        <dc:format>image/svg+xml</dc:format>
        <dc:type
           rdf:resource="http://purl.org/dc/dcmitype/StillImage" />
      </cc:Work>
    </rdf:RDF>
  </metadata>
  <path
     style="fill:#000000;fill-opacity:1;fill-rule:nonzero;stroke:none"
     d="m 430.71484,534.61328 c 0,38.21484 31.03907,69.22656 69.28516,69.22656 38.24609,0 69.28516,-31.01172 69.28516,-69.22656 V 500 H 430.71484 Z m 0,0"
     id="path6" />
  <path
     style="fill:#000000;fill-opacity:1;fill-rule:nonzero;stroke:none"
     d="M 707.85547,119.25781 H 638.57031 V 84.64844 c 0,-19.066407 -15.47265,-34.613282 -34.64062,-34.613282 H 396.07031 c -19.07812,0 -34.64062,15.546875 -34.64062,34.613282 v 34.60937 h -69.28516 c -19.08203,0 -34.64453,15.55079 -34.64453,34.61328 v 761.48047 c 0,19.06641 15.47656,34.61328 34.64453,34.61328 h 415.71094 c 19.08203,0 34.64453,-15.46093 34.64453,-34.61328 V 153.87109 c 0,-19.06249 -15.5625,-34.61328 -34.64453,-34.61328 z m -69.28516,415.35547 c 0,64.39453 -44.3125,118.42188 -103.92578,133.88281 v 39.17969 c 0,19.0625 -15.56641,34.61328 -34.64453,34.61328 -19.07813,0 -34.64453,-15.55078 -34.64453,-34.61328 V 668.49609 C 405.65625,653.03516 361.42969,599.00781 361.42969,534.61328 v -69.22656 c 0,-19.0625 15.47265,-34.61328 34.64062,-34.61328 v -69.22266 c 0,-19.06641 15.5625,-34.61328 34.64453,-34.61328 19.07813,0 34.64063,15.46094 34.64063,34.61328 v 69.22266 h 69.28906 v -69.22266 c 0,-19.06641 15.47266,-34.61328 34.64063,-34.61328 19.16796,0 34.64453,15.46094 34.64453,34.61328 v 69.22266 c 19.07812,0 34.64062,15.55078 34.64062,34.61328 z m 0,0"
     id="path8" />
</svg>
