<?xml version="1.0" encoding="UTF-8" standalone="no"?>
<!-- Created with Inkscape (http://www.inkscape.org/) -->

<svg
   width="1000"
   height="1000"
   version="1.1"
   id="svg8"
   xmlns="http://www.w3.org/2000/svg"
   xmlns:svg="http://www.w3.org/2000/svg"
   xmlns:rdf="http://www.w3.org/1999/02/22-rdf-syntax-ns#"
   xmlns:cc="http://creativecommons.org/ns#"
   xmlns:dc="http://purl.org/dc/elements/1.1/">
  <defs
     id="defs5498" />
  <metadata
     id="metadata5594">
    <rdf:RDF>
      <cc:Work
         rdf:about="">
        <dc:format>image/svg+xml</dc:format>
        <dc:type
           rdf:resource="http://purl.org/dc/dcmitype/StillImage" />
      </cc:Work>
    </rdf:RDF>
  </metadata>
  <path
     style="fill:#000000;fill-opacity:1;fill-rule:nonzero;stroke:none"
     d="M 500,50 C 251.05078,50 50,250.96875 50,500 50,748.94922 250.96875,950 500,950 749.03125,950 950,749.03125 950,500 949.92187,250.96875 748.95312,50 500,50 Z M 618.96484,350.97656 C 611.98437,365.01562 602.94531,376.99219 592,386.98437 567.01562,367 534.97656,355.02344 500,355.02344 c -34.97656,0 -65.98438,11.97656 -92,31.96093 -11.02344,-9.99218 -19.98438,-23 -26.96484,-36.00781 32.99218,-26.01172 73.99609,-41 118.96484,-41 44.96875,0 85.97266,14.98828 118.96484,41 z m -445.95703,312.00391 -4.99609,3.01172 C 127.00781,569 163.01563,454 256.99609,399.99219 c 11.97657,-6.98047 24.03125,-11.97657 36.00782,-16.97266 -1.98438,-13.00781 -3.96485,-26.01562 -3.96485,-39.97266 0,-108.01953 80.97266,-197.0039 185.98047,-208.98046 v 6.02734 c -72.01562,11.97656 -126.02344,73.99609 -126.02344,149.02344 0,77.00781 57.97266,141.01172 133,149.97265 0,0 0,0 1.03125,-1.03125 3.01563,0 4.9961,1.03125 8.01172,1.03125 v 19.98828 c -19.03515,3.96485 -32.99219,21.01563 -32.99219,42.03125 0,4.9961 1.03125,9.99219 1.98047,14.03907 l -19.98437,9.99218 c -44.01563,-65.03515 -131.97266,-85.97265 -200.96875,-46 -65.11328,37.83204 -91.04688,115.79297 -66.06641,183.83985 z m 272.98438,-24.03125 c -3.01563,14.98828 -8.96485,29.02734 -16.97266,42.03515 -70.98437,-27.99609 -121.02734,-98.02734 -121.02734,-179 0,-8.96484 1.03125,-16.97265 1.98437,-24.98437 1.98047,0 3.96485,0 6.02735,0 13.00781,0 26.96484,1.98437 39.01953,6.02734 -1.03125,6.02735 -1.03125,13.00782 -1.03125,19.03516 -1.03125,61.94141 36.95703,114.91797 92,136.88672 z m 85.96875,126.02344 c -11.02344,-6.98047 -21.96875,-14.03907 -31.96094,-23 -9.99219,8.96093 -21.01563,16.97265 -32.99219,24.03125 -93.03125,54.00781 -210.96094,29.02734 -274.01172,-55.99219 l 4.9961,-3.01563 c 46,55.99219 126.97265,72.01172 192.00781,34.97657 C 460.02734,702 485.96094,613.96875 449.00391,541.95312 l 19.03515,-8.96093 c 8.01172,8.01172 18.00391,11.97656 29.97656,11.97656 11.02735,0 21.01954,-3.96484 29.02735,-11.02344 l 19.98828,9.99219 c -1.03125,1.98047 -1.98438,3.96484 -3.01563,6.98047 -1.03125,1.98047 -1.98046,3.96484 -1.98046,4.99609 -26.01563,67.96485 1.03125,146.95703 65.98437,184.94922 65.03125,37.98828 146.00781,21.01563 192.00781,-34.97656 l 4.9961,3.01172 c -61.07032,84.07031 -179.08203,110.08203 -273.0625,56.07422 z M 645.92969,481.99609 c 13.00781,-3.96484 26.01172,-6.02734 39.01953,-6.02734 1.98437,0 3.96484,0 6.02734,0 1.03125,8.96094 1.98438,16.97266 1.98438,26.01562 0,80.97266 -49.96485,149.97266 -121.02735,179 -8.01172,-13.00781 -14.03906,-26.96484 -16.97265,-42.03515 54.01172,-21.96875 93.03125,-75.02735 93.03125,-136.96485 -1.03125,-6.98046 -1.03125,-14.03906 -2.0625,-19.98828 z m 180.98437,179.95313 c 24.98047,-67.96875 -1.03125,-146.00781 -65.98828,-183.9961 -49.96484,-29.02734 -108.96875,-26.01562 -154.01562,1.98047 -16.97266,9.99219 -31.96094,24.03125 -42.98829,39.97266 -1.98046,1.98437 -3.01171,3.96484 -4.99609,6.98047 l -19.03125,-8.96485 c 1.98047,-4.99609 3.01172,-9.99218 3.01172,-14.98828 0,-19.98437 -14.03906,-36.95703 -32.99219,-42.03125 v -19.98828 c 21.96875,-1.03125 44.01563,-6.98047 64.00391,-18.0039 47.02734,-26.01172 77.96094,-75.97657 77.96094,-133 0,-75.02735 -54.96485,-136.96875 -126.02344,-149.02344 v -6.02734 c 103.97265,11.97656 184.94922,100.96093 184.94922,208.98046 0,13.00782 -1.03125,26.01563 -3.96485,39.01953 11.97266,3.96485 24.02735,9.99219 36.00391,16.01954 93.03125,54.01171 129.98828,169.00781 88.98437,266.0039 z m 0,0"
     id="path6" />
</svg>
