<?xml version="1.0" encoding="UTF-8" standalone="no"?>
<!-- Created with Inkscape (http://www.inkscape.org/) -->

<svg
   width="1000"
   height="1000"
   version="1.1"
   id="svg12"
   xmlns="http://www.w3.org/2000/svg"
   xmlns:svg="http://www.w3.org/2000/svg"
   xmlns:rdf="http://www.w3.org/1999/02/22-rdf-syntax-ns#"
   xmlns:cc="http://creativecommons.org/ns#"
   xmlns:dc="http://purl.org/dc/elements/1.1/">
  <defs
     id="defs5498" />
  <metadata
     id="metadata5594">
    <rdf:RDF>
      <cc:Work
         rdf:about="">
        <dc:format>image/svg+xml</dc:format>
        <dc:type
           rdf:resource="http://purl.org/dc/dcmitype/StillImage" />
      </cc:Work>
    </rdf:RDF>
  </metadata>
  <path
     style="fill:#000000;fill-opacity:1;fill-rule:nonzero;stroke:none"
     d="m 440.82422,821.66016 c -13.53906,13.53125 -13.53906,35.40625 0,48.93359 6.77344,6.76562 15.65234,10.10156 24.53125,10.10156 v 34.61328 c 0,19.0625 15.5664,34.61328 34.64453,34.61328 19.07812,0 34.64453,-15.46093 34.64453,-34.61328 v -34.61328 c 8.87891,0 17.75781,-3.33594 24.53125,-10.10156 13.53906,-13.52734 13.53906,-35.40234 0,-48.93359 L 524.53125,787.05078 C 517.76172,780.28516 508.87891,776.94531 500,776.94531 c -8.87891,0 -17.76172,3.33985 -24.53125,10.10547 z m 0,0"
     id="path6" />
  <path
     style="fill:#000000;fill-opacity:1;fill-rule:nonzero;stroke:none"
     d="M 707.85547,50.078127 H 292.14453 C 273.0625,50.078127 257.5,65.628908 257.5,84.691408 V 569.26953 h 485 V 84.691408 c 0,-19.0625 -15.5625,-34.613281 -34.64453,-34.613281 z M 567.52734,337.96094 532.88281,441.80078 c -4.83594,14.49219 -18.375,23.62891 -32.88281,23.62891 -3.60547,0 -7.29688,-0.52735 -10.99219,-1.75391 -18.10937,-6.0625 -27.96094,-25.65234 -21.89062,-43.75 l 19.42968,-58.24609 -21.1914,-0.0859 c -11.16406,0 -21.62891,-5.35938 -28.13281,-14.41016 -6.50782,-9.04687 -8.26563,-20.64453 -4.75,-31.18359 L 467.11719,212.1602 c 6.0664,-18.09766 25.76172,-27.9375 43.78515,-21.875 18.11328,6.0625 27.96094,25.65234 21.89453,43.75 l -19.34375,58.33203 h 21.19141 c 11.16406,0 21.53906,5.35937 28.13281,14.40625 6.50782,9.05078 8.26563,20.55859 4.75,31.1875 z m 0,0"
     id="path8" />
  <path
     style="fill:#000000;fill-opacity:1;fill-rule:nonzero;stroke:none"
     d="m 257.5,742.33203 c 0,19.06641 15.5625,34.61328 34.64453,34.61328 h 415.71094 c 19.08203,0 34.64453,-15.46094 34.64453,-34.61328 V 638.49609 h -485 z m 0,0"
     id="path10" />
</svg>
