<?xml version="1.0" encoding="UTF-8" standalone="no"?>
<!-- Created with Inkscape (http://www.inkscape.org/) -->

<svg
   width="1000"
   height="1000"
   version="1.1"
   id="svg30"
   xmlns="http://www.w3.org/2000/svg"
   xmlns:svg="http://www.w3.org/2000/svg"
   xmlns:rdf="http://www.w3.org/1999/02/22-rdf-syntax-ns#"
   xmlns:cc="http://creativecommons.org/ns#"
   xmlns:dc="http://purl.org/dc/elements/1.1/">
  <defs
     id="defs5498" />
  <metadata
     id="metadata5594">
    <rdf:RDF>
      <cc:Work
         rdf:about="">
        <dc:format>image/svg+xml</dc:format>
        <dc:type
           rdf:resource="http://purl.org/dc/dcmitype/StillImage" />
      </cc:Work>
    </rdf:RDF>
  </metadata>
  <path
     style="fill:#000000;fill-opacity:1;fill-rule:nonzero;stroke:none"
     d="m 226.01991,150.60195 c 0,-47.14844 38.46484,-86.234375 85.73047,-86.234375 H 688.5785 c 47.26563,0 85.24219,39.085935 85.24219,86.234375 z m 0,0"
     id="path6" />
  <path
     style="fill:#000000;fill-opacity:1;fill-rule:nonzero;stroke:none"
     d="m 240.11757,150.76602 c 0,-2.76954 0.16015,-5.6211 0.40625,-8.38673 0.40625,-4.48047 -0.48828,2.6875 0.24609,-1.71093 0.24219,-1.38672 0.48828,-2.6875 0.73047,-4.07032 0.57031,-2.6875 1.30469,-5.29297 2.03906,-7.90234 0.40625,-1.30078 0.81641,-2.52344 1.30469,-3.82422 0.32422,-0.8164 0.65234,-1.71094 0.97656,-2.52734 -0.57031,1.30469 -0.48828,1.14062 0.16406,-0.32422 2.19922,-4.88672 4.96875,-9.44531 7.98438,-13.84375 0.082,-0.16406 2.69141,-3.58203 0.98047,-1.38281 0.8125,-1.0586 1.71094,-2.03516 2.52344,-3.01563 2.03906,-2.35937 4.23828,-4.476562 6.4414,-6.593749 0.97656,-0.898438 1.95313,-1.792969 3.01172,-2.605469 0.16406,-0.08203 3.58594,-2.769531 1.30469,-1.058594 2.12109,-1.628906 4.32031,-3.015625 6.60156,-4.480469 5.86719,-3.664062 8.47656,-4.722656 13.60938,-6.515624 2.52734,-0.894532 5.21484,-1.628907 7.82421,-2.195313 1.30469,-0.328125 2.6875,-0.570313 3.99219,-0.816406 0.16406,0 4.64453,-0.652344 1.71094,-0.324219 3.26172,-0.410156 6.60156,-0.570312 9.94531,-0.570312 11.57032,0 23.22266,0 34.79688,0 59.16406,0 118.32812,0 177.49218,0 51.09766,0 102.19532,0 153.29297,0 3.25782,0 6.51953,0 9.77735,0 0.48828,0 0.89843,0 1.38672,0 1.38281,0 2.85156,0.08203 4.23828,0.08203 0.89453,0.07813 1.87109,0.07813 2.76953,0.160156 0.16406,0 4.72656,0.570313 1.79297,0.164063 4.48047,0.652343 8.88281,1.710937 13.20312,3.09375 1.71094,0.570312 3.42188,1.140624 5.05078,1.792968 -1.30468,-0.570312 -1.14062,-0.488281 0.32422,0.160156 1.22266,0.570313 2.44531,1.140626 3.58594,1.710938 3.91406,1.957031 7.66016,4.316406 11.24609,6.921875 1.30469,0.976563 1.38672,1.058594 0.32813,0.164063 0.65234,0.570312 1.38672,1.140624 2.03515,1.710937 1.71485,1.382813 3.26172,2.929687 4.89063,4.476563 1.55078,1.546876 3.09766,3.175776 4.48437,4.804686 0.57032,0.65234 1.14063,1.30469 1.71094,2.03516 2.76953,3.33984 -1.55078,-2.11719 1.0586,1.38672 2.36328,3.17578 4.40234,6.59375 6.27343,10.09765 1.0625,1.95313 1.95703,3.98828 2.9336,6.02344 -0.57032,-1.30078 -0.48828,-1.13672 0.082,0.32813 0.48828,1.21875 0.89844,2.52343 1.38672,3.82812 1.30468,3.82422 2.19922,7.81641 3.01562,11.80469 0.16406,0.89844 0.32422,1.79297 0.40625,2.6875 -0.48828,-2.92969 0.082,1.54687 0.082,1.79297 0.2461,2.35937 0.2461,4.64062 0.2461,7.00391 4.64453,-4.64454 9.37109,-9.36719 14.01562,-14.00782 -27.38281,0 -54.68359,0 -82.0664,0 -60.79297,0 -121.58594,0 -182.30079,0 -62.26171,0 -124.60546,0 -186.86328,0 -31.86718,0 -63.8125,0 -95.67578,0 -0.32422,0 -0.57031,0 -0.89453,0 -7.664,0 -14.01947,6.35156 -14.01947,14.00782 0,7.65234 6.35547,14.0039 14.01953,14.0039 27.37891,0 54.67969,0 82.0625,0 60.79297,0 121.58984,0 182.30078,0 62.26172,0 124.60547,0 186.86719,0 31.86328,0 63.80859,0 95.67187,0 0.32813,0 0.57032,0 0.89844,0 7.57813,0 14.09766,-6.35156 14.01563,-14.0039 -0.24219,-25.2461 -9.61328,-48.94141 -26.32032,-67.835944 -16.38281,-18.808594 -39.93359,-29.476563 -64.46093,-32.082031 -11.89844,-1.304688 -24.36719,-0.40625 -36.34766,-0.40625 -57.53516,0 -114.98828,0 -172.52344,0 -53.46093,0 -106.91797,0 -160.46093,0 -14.50782,0 -28.6875,-0.164063 -42.94922,3.746093 -42.70313,11.804688 -72.44532,52.523442 -72.77344,96.496102 -0.082,7.65234 6.4375,14.0039 14.01953,14.0039 7.73828,0 14.01563,-6.35156 14.09766,-14.0039 z m 0,0"
     id="path8" />
  <path
     style="fill:#000000;fill-opacity:1;fill-rule:nonzero;stroke:none"
     d="M 225.77382,203.6957 H 773.65663 V 690.0082 H 225.77382 Z m 0,0"
     id="path10" />
  <path
     style="fill:#000000;fill-opacity:1;fill-rule:nonzero;stroke:none"
     d="m 773.90272,189.85195 c -27.38281,0 -54.68359,0 -82.0664,0 -60.79297,0 -121.58594,0 -182.30078,0 -62.26172,0 -124.60547,0 -186.86719,0 -31.86328,0 -63.80859,0 -95.67188,0 -0.32812,0 -0.57031,0 -0.89843,0 -7.74219,0 -14.09766,6.35156 -14.09766,14.00781 0,29.96485 0,59.9336 0,89.90235 0,63.02734 0,126.13672 0,189.16406 0,55.86328 0,111.64453 0,167.42578 0,13.27344 0,26.54688 0,39.82031 0,7.65625 6.35547,14.00782 14.01953,14.00782 27.37891,0 54.67969,0 82.0625,0 60.79297,0 121.58984,0 182.30078,0 62.26172,0 124.60547,0 186.86719,0 31.86328,0 63.80859,0 95.67187,0 0.32813,0 0.57032,0 0.89844,0 7.66016,0 14.01563,-6.35157 14.01563,-14.00782 0,-29.96484 0,-59.93359 0,-89.90234 0,-63.02734 0,-126.13672 0,-189.16406 0,-55.78125 0,-111.5625 0,-167.34375 0,-13.27344 0,-26.54688 0,-39.82031 0.082,-7.73829 -6.27344,-14.08985 -13.9336,-14.08985 -7.66015,0 -14.01953,6.35156 -14.01953,14.00781 0,29.96485 0,59.9336 0,89.90235 0,63.02734 0,126.13672 0,189.16406 0,55.78125 0,111.5625 0,167.34375 0,13.27344 0,26.54688 0,39.82031 4.64844,-4.64062 9.375,-9.36328 14.01953,-14.0039 -27.38281,0 -54.68359,0 -82.0664,0 -60.79297,0 -121.58594,0 -182.30078,0 -62.26172,0 -124.60547,0 -186.86719,0 -31.86328,0 -63.80859,0 -95.67188,0 -0.32812,0 -0.57031,0 -0.89843,0 4.64843,4.64062 9.375,9.36328 14.01953,14.0039 0,-29.96484 0,-59.93359 0,-89.89843 0,-63.03125 0,-126.14063 0,-189.16797 0,-55.78125 0,-111.5625 0,-167.34375 0,-13.27344 0,-26.54688 0,-39.82032 -4.64453,4.64063 -9.3711,9.36329 -14.01953,14.00782 27.38281,0 54.68359,0 82.0664,0 60.79297,0 121.58985,0 182.30078,0 62.26172,0 124.60547,0 186.86719,0 31.86328,0 63.80859,0 95.67188,0 0.32812,0 0.57031,0 0.89843,0 7.66016,0 14.01563,-6.35547 14.01563,-14.00782 0,-7.65625 -6.35547,-14.00781 -14.01563,-14.00781 z m 0,0"
     id="path12" />
  <path
     style="fill:#000000;fill-opacity:1;fill-rule:nonzero;stroke:none"
     d="m 226.01991,740.33633 v 1.54687 c 0,47.23047 38.46484,84.6875 85.73047,84.6875 h 27.38281 c 0,31.10938 25.01563,55.12891 55.98438,55.12891 h 210.09375 c 30.88281,0 55.98437,-24.10156 55.98437,-55.12891 h 27.38281 c 47.26563,0 85.24219,-37.375 85.24219,-84.6875 v -1.54687 z m 241.30078,75.8125 c 0,17.01953 -13.85156,30.86328 -30.88672,30.86328 h -0.32422 c -17.03125,0 -30.88671,-13.84375 -30.88671,-30.86328 v -0.32813 c 0,-17.01562 13.85546,-30.85937 30.88671,-30.85937 h 0.32422 c 17.03516,0 30.88672,13.84375 30.88672,30.85937 z m 127.375,0 c 0,17.01953 -13.85156,30.86328 -30.88672,30.86328 h -0.32422 c -17.03125,0 -30.88671,-13.84375 -30.88671,-30.86328 v -0.32813 c 0,-17.01562 13.85546,-30.85937 30.88671,-30.85937 h 0.32422 c 17.03516,0 30.88672,13.84375 30.88672,30.85937 z m 0,0"
     id="path14" />
  <path
     style="fill:#000000;fill-opacity:1;fill-rule:nonzero;stroke:none"
     d="m 580.68007,816.14883 c 0,0.89453 -0.082,1.78906 -0.082,2.76953 0.24609,-1.46875 0.16406,-1.38672 -0.082,0.24219 -0.082,0.57031 -1.79296,5.375 -0.65234,2.85156 -0.65234,1.54687 -1.62891,3.01172 -2.52344,4.47656 1.46485,-2.19531 -1.46875,1.54688 -1.95703,2.03906 -0.65234,0.56641 -1.22265,1.13672 -1.95703,1.70703 1.14063,-0.89453 1.05859,-0.89453 -0.32422,0.082 -0.48828,0.32812 -5.05469,2.44531 -2.44531,1.38671 -1.62891,0.64844 -3.34375,1.0586 -5.13281,1.38282 2.76953,-0.57032 -1.38672,0 -2.03907,0 -0.89843,0 -1.79296,-0.082 -2.76953,-0.082 1.46485,0.24609 1.38282,0.16406 -0.24609,-0.082 -0.57031,-0.082 -5.37891,-1.78906 -2.85156,-0.65234 -1.55078,-0.64844 -3.01563,-1.625 -4.48438,-2.52344 2.20313,1.46485 -1.54687,-1.46484 -2.03515,-1.95312 -0.57032,-0.65235 -1.14063,-1.22266 -1.71094,-1.95313 0.89453,1.13672 0.89453,1.0586 -0.082,-0.32812 -0.32813,-0.48828 -2.44532,-5.04688 -1.38672,-2.44141 -0.65235,-1.6289 -0.97656,-3.33984 -1.38281,-5.13281 0.57031,2.76953 0,-1.38281 0,-2.03516 0,-0.89453 0,-1.78906 0.0781,-2.76562 -0.24219,1.46484 -0.16016,1.38281 0.082,-0.2461 0.082,-0.57031 1.79297,-5.375 0.65235,-2.85156 0.65234,-1.54687 1.6289,-3.01172 2.52734,-4.47656 -1.46875,2.19922 1.46484,-1.54688 1.95703,-2.03516 0.65234,-0.57031 1.22266,-1.14062 1.95313,-1.71093 -1.14063,0.89453 -1.0586,0.89453 0.32812,-0.082 0.48828,-0.32421 5.05078,-2.4414 2.44531,-1.38281 1.62891,-0.65234 3.33985,-0.98047 5.13282,-1.38672 -2.76954,0.57032 1.38671,0 2.03906,0 0.89453,0 1.79297,0.082 2.76953,0.082 -1.46875,-0.24218 -1.38672,-0.16406 0.24219,0.082 0.57031,0.082 5.3789,1.79296 2.85547,0.65234 1.54687,0.64844 3.01562,1.62891 4.48046,2.52344 -2.19921,-1.46485 1.54688,1.46484 2.03907,1.95312 0.57031,0.65235 1.14062,1.22266 1.71093,1.95703 -0.89843,-1.14062 -0.89843,-1.05859 0.082,0.32422 0.32421,0.48828 2.4414,5.04688 1.38281,2.44141 0.65234,1.6289 1.05859,3.33984 1.38672,5.13281 -0.48828,-2.76953 0,1.46484 0,2.03516 0,7.65234 6.35547,14.0039 14.01562,14.0039 7.66016,0 14.01953,-6.35156 14.01953,-14.0039 0,-24.91797 -20.21093,-44.70703 -44.90625,-45.19532 -24.9375,-0.57031 -44.73828,20.60157 -45.22656,44.86719 -0.57031,24.92188 20.61719,44.70703 44.90234,45.27735 24.9375,0.57031 44.73829,-20.60157 45.3086,-44.86719 0.16406,-7.65625 -6.51953,-14.00781 -14.01563,-14.00781 -7.82422,-0.082 -13.93359,6.26953 -14.09765,13.92578 z m 0,0"
     id="path16" />
  <path
     style="fill:#000000;fill-opacity:1;fill-rule:nonzero;stroke:none"
     d="m 453.22304,816.14883 c 0,0.89453 0,1.78906 -0.082,2.76953 0.2461,-1.46875 0.16407,-1.38672 -0.082,0.24219 -0.082,0.57031 -1.79297,5.375 -0.65234,2.85156 -0.64844,1.54687 -1.62891,3.01172 -2.52344,4.47656 1.46485,-2.19531 -1.46875,1.54688 -1.95703,2.03906 -0.65234,0.56641 -1.22266,1.13672 -1.95703,1.70703 1.14062,-0.89453 1.0625,-0.89453 -0.32422,0.082 -0.48828,0.32812 -5.05469,2.44531 -2.44531,1.38671 -1.62891,0.64844 -3.33985,1.0586 -5.13281,1.38282 2.76953,-0.57032 -1.38672,0 -2.03907,0 -0.89453,0 -1.79297,-0.082 -2.76953,-0.082 1.46485,0.24609 1.38281,0.16406 -0.24609,-0.082 -0.57031,-0.082 -5.37891,-1.78906 -2.85156,-0.65234 -1.54688,-0.64844 -3.01563,-1.625 -4.48047,-2.52344 2.19922,1.46485 -1.55078,-1.46484 -2.03907,-1.95312 -0.57031,-0.65235 -1.14062,-1.22266 -1.71093,-1.95313 0.89453,1.13672 0.89453,1.0586 -0.082,-0.32812 -0.32422,-0.48828 -2.44532,-5.04688 -1.38672,-2.44141 -0.65235,-1.6289 -0.97657,-3.33984 -1.38282,-5.13281 0.57032,2.76953 0,-1.38281 0,-2.03516 0,-0.89453 0.082,-1.78906 0.082,-2.76562 -0.2461,1.46484 -0.16407,1.38281 0.0781,-0.2461 0.082,-0.57031 1.79297,-5.375 0.65234,-2.85156 0.65235,-1.54687 1.63282,-3.01172 2.52735,-4.47656 -1.46485,2.19922 1.46875,-1.54688 1.95703,-2.03516 0.65234,-0.57031 1.22266,-1.14062 1.95312,-1.71093 -1.14062,0.89453 -1.05859,0.89453 0.32813,-0.082 0.48828,-0.32421 5.05078,-2.4414 2.44531,-1.38281 1.62891,-0.65234 3.33985,-0.98047 5.13281,-1.38672 -2.76953,0.57032 1.38672,0 2.03907,0 0.89453,0 1.79297,0.082 2.76953,0.082 -1.46875,-0.24218 -1.38672,-0.16406 0.24609,0.082 0.57031,0.082 5.375,1.79296 2.85156,0.65234 1.54688,0.64844 3.01563,1.62891 4.48047,2.52344 -2.28125,-1.46485 1.55078,1.46484 2.03907,1.95312 0.57031,0.65235 1.14062,1.22266 1.71093,1.95703 -0.89843,-1.14062 -0.89843,-1.05859 0.082,0.32422 0.32422,0.48828 2.44532,5.04688 1.38282,2.44141 0.65234,1.6289 0.98047,3.33984 1.38672,5.13281 -0.48829,-2.76953 0,1.46484 0,2.03516 0,7.65234 6.35546,14.0039 14.01562,14.0039 7.66016,0 14.01953,-6.35156 14.01953,-14.0039 0,-24.91797 -20.21094,-44.70703 -44.90234,-45.19532 -24.9375,-0.57031 -44.74219,20.60157 -45.3125,44.86719 -0.57031,24.92188 20.61719,44.70703 44.90234,45.27735 24.9375,0.57031 44.74219,-20.60157 45.3125,-44.86719 0.16016,-7.65625 -6.51953,-14.00781 -14.01953,-14.00781 -7.74219,-0.082 -13.85156,6.26953 -14.01562,13.92578 z m 0,0"
     id="path18" />
  <path
     style="fill:#000000;fill-opacity:1;fill-rule:nonzero;stroke:none"
     d="m 212.00038,740.33633 c 0,36.39843 19.07031,69.94922 51.01562,87.78125 14.91407,8.30859 32.19141,12.54297 49.22266,12.54297 8.96485,0 18.01172,0 26.97266,0 -4.64453,-4.64454 -9.3711,-9.36719 -14.01563,-14.00782 0.32813,25.57032 14.17969,49.1836 37,61.07422 11.81641,6.1875 24.60938,8.0625 37.73047,8.0625 23.71484,0 47.42969,0 71.22656,0 31.69922,0 63.32032,0 95.01953,0 10.4336,0 20.78125,0 31.21485,0 9.45312,0 18.66015,-0.24609 27.87109,-2.76953 29.66406,-8.22266 49.71094,-35.99219 50.11719,-66.36719 -4.64453,4.64063 -9.37109,9.36328 -14.01563,14.00782 8.88282,0 17.76563,0 26.64844,0 17.35547,0 34.14453,-4.23438 49.38281,-12.54297 32.02735,-17.26172 50.60938,-51.95313 50.60938,-87.78125 0,-7.65625 -6.35547,-14.00782 -14.01563,-14.00782 -27.38281,0 -54.68359,0 -82.0664,0 -60.79297,0 -121.58985,0 -182.30078,0 -62.26172,0 -124.60547,0 -186.86719,0 -31.86328,0 -63.80859,0 -95.67187,0 -0.32813,0 -0.57032,0 -0.89844,0 -7.82422,-0.082 -14.17969,6.35157 -14.17969,14.00782 0,7.65234 6.35547,14.0039 14.01953,14.0039 27.37891,0 54.67969,0 82.0625,0 60.79297,0 121.58984,0 182.30078,0 62.26172,0 124.60547,0 186.86719,0 31.86328,0 63.80859,0 95.67187,0 0.32813,0 0.57032,0 0.89844,0 -4.64453,-4.64062 -9.37109,-9.36328 -14.01562,-14.0039 0,2.84765 -0.082,5.69922 -0.2461,8.55078 -0.082,0.89453 -0.16406,1.87109 -0.24609,2.76562 0.24609,-1.46484 0.16406,-1.30078 -0.0781,0.32813 -0.32812,2.19922 -0.8164,4.47656 -1.38671,6.67578 -0.81641,3.50391 -1.95704,6.83984 -3.17969,10.17969 -0.65235,1.54687 -0.65235,1.6289 -0.082,0.32422 -0.32422,0.8164 -0.73047,1.6289 -1.14063,2.36328 -0.89453,1.95312 -1.95312,3.91015 -3.09375,5.78125 -6.92969,12.13281 -16.46484,20.84765 -29.58594,27.6875 -1.54687,0.8125 -3.17578,1.54687 -4.80468,2.28125 2.52343,-1.14063 -2.36328,0.8125 -2.85547,0.97656 -3.82813,1.38281 -7.74219,2.35937 -11.73438,3.09375 -0.48828,0.082 -5.78515,0.89453 -3.01562,0.48828 -1.875,0.24609 -3.66797,0.32422 -5.53906,0.40625 -1.95704,0.082 -3.91407,0.082 -5.78907,0.082 -8.63672,0 -17.19531,0 -25.83203,0 -7.74219,0 -13.93359,6.35156 -14.01562,14.00781 0,1.38282 -0.082,2.76563 -0.16407,4.23438 -0.24609,4.47656 0.57032,-2.60547 -0.16406,1.70703 -0.40625,2.60938 -1.14062,5.21484 -1.95312,7.82031 -0.082,0.24219 -1.63282,4.23438 -0.49219,1.54688 -0.48828,1.22265 -1.14063,2.35937 -1.71094,3.5 -0.57031,1.14062 -1.30469,2.28125 -1.95312,3.33984 -0.2461,0.40625 -3.26172,4.5586 -1.55078,2.44141 -1.62891,2.03906 -3.42188,3.91015 -5.29688,5.62109 -0.89453,0.89453 -1.95703,1.71094 -2.93359,2.52344 2.19922,-1.87109 -1.14063,0.73437 -1.30469,0.89453 -2.11719,1.46875 -4.48047,2.6875 -6.76172,3.82813 -3.83203,1.875 2.52344,-0.89454 -1.46875,0.65234 -1.62891,0.65234 -3.33984,1.14062 -5.05078,1.62891 -1.30469,0.32421 -2.60938,0.65234 -3.91406,0.89453 -4.31641,0.89453 2.77343,-0.16407 -1.62891,0.24609 -1.875,0.16016 -3.75,0.24219 -5.54297,0.24219 -0.48828,0 -0.89453,0 -1.38281,0 -2.60938,0 -5.29688,0 -7.90625,0 -26.07813,0 -52.23828,0 -78.31641,0 -30.80468,0 -61.60937,0 -92.41406,0 -8.80078,0 -17.51953,0 -26.32031,0 -1.22266,0 -2.52735,0 -3.75,0 -1.38672,0 -2.76953,-0.082 -4.15625,-0.16016 -0.2461,0 -4.72656,-0.57031 -1.71094,-0.16406 -2.69141,-0.40625 -5.21484,-1.14063 -7.82422,-1.875 -1.30469,-0.40625 -2.52734,-0.89453 -3.75,-1.30078 2.69141,1.05859 -1.22265,-0.65235 -1.38281,-0.73438 -2.69141,-1.30078 -5.29688,-3.01172 -7.74219,-4.72265 2.19922,1.6289 -1.71094,-1.54688 -2.12109,-1.95313 -1.30078,-1.14062 -2.44141,-2.44531 -3.58594,-3.66406 -0.57031,-0.65234 -1.14062,-1.30469 -1.62891,-1.95703 0.89844,1.14062 0.81641,1.05859 -0.16406,-0.24219 -1.21875,-1.79297 -2.36328,-3.66406 -3.33984,-5.53906 -0.24219,-0.48828 -2.28125,-5.12891 -1.30469,-2.60547 -0.8125,-2.03516 -1.46484,-4.15234 -2.03516,-6.35156 -0.48828,-1.71094 -0.73437,-3.5 -1.05859,-5.29297 0.24219,1.46484 0.24219,1.38281 0.0781,-0.32422 -0.0781,-1.38672 -0.16016,-2.76953 -0.16016,-4.15234 -0.082,-7.65625 -6.35938,-14.00782 -14.01953,-14.00782 -8.39063,0 -16.86719,0 -25.26172,0 -1.14062,0 -2.36328,0 -3.50391,0 -1.875,0 -3.75,-0.16406 -5.625,-0.24609 -0.89453,-0.0781 -1.87109,-0.16016 -2.76953,-0.24219 2.9336,0.32422 -1.54687,-0.24609 -1.71093,-0.24609 -3.99219,-0.64844 -7.98829,-1.70703 -11.81641,-2.92969 -1.71094,-0.57031 -3.33984,-1.14062 -5.05469,-1.79297 1.30469,0.57031 1.22266,0.48828 -0.32422,-0.16406 -1.22265,-0.56641 -2.36328,-1.13672 -3.58593,-1.70703 -12.875,-6.4336 -22.2461,-15.3086 -29.17579,-26.54688 -4.5625,-7.32812 -5.62109,-10.17968 -7.90234,-18.5664 -0.49219,-1.71094 -0.89844,-3.50391 -1.22266,-5.29297 -0.16406,-0.89844 -0.32812,-1.79297 -0.48828,-2.6875 -0.73437,-4.39844 0.24219,2.76562 -0.24609,-1.71094 -0.32813,-3.33984 -0.40625,-6.59766 -0.40625,-9.93359 0,-7.65625 -6.35938,-14.00782 -14.01953,-14.00782 -7.82425,-0.082 -14.17972,6.3516 -14.17972,14.00785 z m 0,0"
     id="path20" />
  <path
     style="fill:#000000;fill-opacity:1;fill-rule:nonzero;stroke:none"
     d="m 416.3871,881.45742 h 39.11719 v 54.15234 H 416.3871 Z m 0,0"
     id="path22" />
  <path
     style="fill:#000000;fill-opacity:1;fill-rule:nonzero;stroke:none"
     d="m 455.83241,867.61367 c -13.03906,0 -26.07812,0 -39.11719,0 -7.66015,0 -14.01953,6.35156 -14.01953,14.00781 0,18.07813 0,36.07422 0,54.15235 0,7.65234 6.35938,14.0039 14.01953,14.0039 13.03907,0 26.07813,0 39.11719,0 7.66016,0 14.01563,-6.35156 14.01563,-14.0039 0,-18.07813 0,-36.07422 0,-54.15235 0,-7.57422 -6.35547,-14.00781 -14.01563,-14.00781 -7.66016,0 -14.01953,6.35156 -14.01953,14.00781 0,18.07813 0,36.07422 0,54.15235 4.64453,-4.64453 9.37109,-9.36719 14.01953,-14.00782 -13.03906,0 -26.07812,0 -39.11719,0 4.64453,4.64063 9.3711,9.36329 14.01563,14.00782 0,-18.07813 0,-36.07422 0,-54.15235 -4.64453,4.64063 -9.3711,9.36328 -14.01563,14.00391 13.03907,0 26.07813,0 39.11719,0 7.66016,0 14.01563,-6.35156 14.01563,-14.00391 0,-7.57422 -6.35547,-14.00781 -14.01563,-14.00781 z m 0,0"
     id="path24" />
  <path
     style="fill:#000000;fill-opacity:1;fill-rule:nonzero;stroke:none"
     d="m 542.78554,881.45742 h 37.16015 v 54.15234 h -37.16015 z m 0,0"
     id="path26" />
  <path
     style="fill:#000000;fill-opacity:1;fill-rule:nonzero;stroke:none"
     d="m 580.27382,921.76601 c -12.38672,0 -24.77735,0 -37.16407,0 4.64454,4.64063 9.375,9.36329 14.01954,14.00782 0,-18.07813 0,-36.07422 0,-54.15235 -4.64454,4.64063 -9.375,9.36328 -14.01954,14.00391 12.38672,0 24.77735,0 37.16407,0 -4.64844,-4.64063 -9.375,-9.36328 -14.01953,-14.00391 0,18.07813 0,36.07422 0,54.15235 0,7.65234 6.35937,14.0039 14.01953,14.0039 7.66015,0 14.01562,-6.35156 14.01562,-14.0039 0,-18.07813 0,-36.07422 0,-54.15235 0,-7.65625 -6.35547,-14.00781 -14.01562,-14.00781 -12.38672,0 -24.77735,0 -37.16407,0 -7.66015,0 -14.01562,6.35156 -14.01562,14.00781 0,18.07813 0,36.07422 0,54.15235 0,7.65234 6.35547,14.0039 14.01562,14.0039 12.38672,0 24.77735,0 37.16407,0 7.66015,0 14.01562,-6.35156 14.01562,-14.0039 0,-7.57422 -6.35547,-14.00782 -14.01562,-14.00782 z m 0,0"
     id="path28" />
</svg>
