<?xml version="1.0" encoding="UTF-8" standalone="no"?>
<!-- Created with Inkscape (http://www.inkscape.org/) -->

<svg
   width="1000"
   height="1000"
   version="1.1"
   id="svg26"
   xmlns="http://www.w3.org/2000/svg"
   xmlns:svg="http://www.w3.org/2000/svg"
   xmlns:rdf="http://www.w3.org/1999/02/22-rdf-syntax-ns#"
   xmlns:cc="http://creativecommons.org/ns#"
   xmlns:dc="http://purl.org/dc/elements/1.1/">
  <defs
     id="defs5498" />
  <metadata
     id="metadata5594">
    <rdf:RDF>
      <cc:Work
         rdf:about="">
        <dc:format>image/svg+xml</dc:format>
        <dc:type
           rdf:resource="http://purl.org/dc/dcmitype/StillImage" />
      </cc:Work>
    </rdf:RDF>
  </metadata>
  <path
     style="fill:#000000;fill-opacity:1;fill-rule:nonzero;stroke:none"
     d="m 405.94141,383.96875 c -1.98438,1.98437 -3.01563,5 -1.03125,6.98047 1.98046,1.98437 4.99609,3.01562 6.97656,1.03125 24.98437,-19.98438 54.96094,-31.00781 87.0039,-31.00781 32.03907,0 62.01954,11.02343 87,31.00781 1.03125,1.03125 1.98438,1.03125 3.01563,1.03125 1.98047,0 3.01172,-1.03125 3.96484,-1.98438 1.98438,-1.98047 1.03125,-6.02734 -1.03125,-6.97656 -26.96484,-21.96875 -59.95703,-32.99219 -93.98047,-32.99219 -31.88281,-0.082 -64.875,11.89453 -91.91796,32.91016 z m 0,0"
     id="path6" />
  <path
     style="fill:#000000;fill-opacity:1;fill-rule:nonzero;stroke:none"
     d="m 311.95703,472.00391 c -3.01172,0 -6.02734,1.98437 -6.02734,4.99609 -1.03125,8.96094 -1.98047,16.97266 -1.98047,26.01172 0,80.02344 47.98047,151.95703 123.00781,182.01562 1.03125,0 1.03125,0 1.98047,0 1.98437,0 3.96875,-1.03125 5,-3.01172 1.02734,-3.01562 0,-6.02734 -3.01563,-6.98046 -70.98046,-27.9961 -116.98046,-95.96485 -116.98046,-172.02344 0,-8.00781 1.03125,-16.01953 1.98046,-24.02735 1.03125,-4.04687 -0.94921,-6.98046 -3.96484,-6.98046 z m 0,0"
     id="path8" />
  <path
     style="fill:#000000;fill-opacity:1;fill-rule:nonzero;stroke:none"
     d="m 445.99219,642.99219 c 1.98047,0 3.96484,-1.02735 4.99609,-3.01172 1.03125,-3.01563 0,-6.02735 -3.01562,-6.98047 -54.00782,-21.01563 -87.95313,-72.96484 -87.95313,-129.98828 0,-6.02735 0,-11.97266 1.03125,-18 0,-3.01563 -1.98437,-6.02735 -4.99609,-6.02735 -3.01563,0 -6.02735,1.98047 -6.02735,4.9961 -1.03125,6.97656 -1.03125,13.0039 -1.03125,19.98437 0,62.01953 36.95703,116.98047 95.01172,139.98047 0.95313,-0.95312 1.98438,-0.95312 1.98438,-0.95312 z m 0,0"
     id="path10" />
  <path
     style="fill:#000000;fill-opacity:1;fill-rule:nonzero;stroke:none"
     d="m 377.94531,355.97266 c 1.98047,1.98437 4.9961,3.01562 6.97656,1.03125 32.99219,-26.01172 72.01172,-39.96875 113.96875,-39.96875 41.95313,0 80.97266,14.03515 113.96485,39.96875 1.03125,1.03125 1.98437,1.03125 3.01562,1.03125 1.98047,0 3.01172,-1.03125 3.96485,-1.98047 1.98437,-1.98438 1.03125,-6.02735 -1.03125,-6.98047 -34.97657,-27.9961 -77.00782,-42.03516 -121.02344,-42.03516 -44.01953,0 -85.97266,14.03906 -121.02734,42.03516 0.23828,0.87109 0.23828,4.91797 1.1914,6.89844 z m 0,0"
     id="path12" />
  <path
     style="fill:#000000;fill-opacity:1;fill-rule:nonzero;stroke:none"
     d="m 245.01953,483.98047 c 65.03516,-37.98828 149.02344,-18.00391 192.00781,44.01562 1.03125,1.98438 3.96875,3.01172 6.98047,1.98438 l 19.03516,-8.96485 c 1.98047,-1.03125 3.96484,-3.96484 3.01172,-6.97656 -1.03125,-3.96875 -1.98047,-8.01172 -1.98047,-11.97656 0,-16.97266 11.97656,-31.96094 29.02734,-36.00781 1.98047,-1.03125 3.96485,-3.01172 3.96485,-4.9961 v -19.98437 c 0,-3.01563 -1.98438,-4.9961 -4.9961,-4.9961 -3.01562,0 -4.99609,0 -8.01172,-1.03125 -1.03125,0 -1.98047,0 -3.01172,0 -70.98437,-9.99609 -124.99218,-70.98437 -124.99218,-142.99609 0,-70.98047 50.99609,-131.01953 119.99609,-141.96094 3.01172,0 3.96484,-3.01562 3.96484,-5 v -6.02734 c 0,-1.98047 -1.03125,-3.01172 -1.98437,-3.96484 -0.95313,-0.94922 -3.01172,-1.03125 -3.96484,-1.03125 -106.98829,13.00781 -187.96094,103.97656 -187.96094,211.99609 0,11.97266 1.02734,24.02734 3.01172,36.00391 -11.02344,3.96484 -21.96875,8.96093 -32.99219,14.98828 -94.14062,53.93359 -132.12891,169.88281 -90.09375,268.9375 1.03125,1.03125 1.98047,1.98437 3.01172,3.01562 1.03125,0 1.03125,0 1.98437,0 0.94922,0 1.98047,0 3.01172,-1.03125 l 4.9961,-3.01562 c 1.98437,-1.02735 3.01562,-3.96485 1.98437,-6.02735 -24.03125,-65.98437 2.93359,-138.94922 64,-174.95312 z m -83.03515,124.98828 c -11.02344,-80.01953 26.96484,-160.99609 100.00781,-202.94922 11.02343,-6.02734 23,-11.97656 34.97656,-16.01953 1.98437,-1.03125 3.96484,-3.01563 3.01562,-6.03125 -1.98437,-13.00391 -3.96875,-26.01172 -3.96875,-37.98828 0,-83.98828 50.9961,-156.95313 126.02344,-187.96094 -47.03125,26.96484 -77.96094,77.00781 -77.96094,133.95313 0,77.96093 59.00782,144.97656 136.01563,154.01953 1.03125,0 1.98437,0 3.01172,0 h 1.03125 v 11.02343 c -19.98438,6.02735 -32.99219,24.02735 -32.99219,44.96875 0,3.96485 0,6.97657 1.03125,11.02344 l -11.02344,4.9961 c -46,-64.00391 -133.95312,-82.95704 -202.95312,-42.98829 -48.21875,27.91797 -76.21484,79.94532 -76.21484,133.95313 z m 0,0"
     id="path14" />
  <path
     style="fill:#000000;fill-opacity:1;fill-rule:nonzero;stroke:none"
     d="M 500,50 C 252,50 50,252 50,500 50,748 252,950 500,950 748,950 950,748 950,500 949.92187,252 747.92187,50 500,50 Z m 0,888.97656 C 258.02734,938.97656 61.023438,741.97266 61.023438,500 61.023438,258.02734 258.02734,61.023438 500,61.023438 741.97266,61.023438 938.97656,258.02734 938.97656,500 938.97656,741.97266 741.97266,938.97656 500,938.97656 Z m 0,0"
     id="path16" />
  <path
     style="fill:#000000;fill-opacity:1;fill-rule:nonzero;stroke:none"
     d="m 742.92578,395.94531 c -9.99609,-6.02734 -21.01953,-11.02344 -31.96484,-14.98828 1.98437,-11.97656 3.01562,-23 3.01562,-34.97656 0,-108.01953 -80.97656,-198.98438 -187.96484,-211.99219 -1.98047,0 -3.01172,0 -3.96485,1.03125 -1.03125,1.03125 -1.98046,1.98438 -1.98046,3.96485 v 6.02734 c 0,3.01562 1.98046,4.99609 3.96484,4.99609 70.03125,11.97657 119.99609,72.01172 119.99609,141.96485 0,52.02734 -29.02734,100.96093 -73.99609,126.02343 -19.03516,9.99219 -39.97266,16.01953 -60.98828,16.96875 -3.01563,0 -4.9961,1.98438 -4.9961,4.9961 v 19.03515 c 0,1.98438 1.98047,4.9961 3.96485,4.9961 16.97265,3.96484 29.02734,19.03515 29.02734,36.00781 0,3.96484 -1.03125,8.96094 -1.98437,13.00781 -1.03125,3.01172 0,4.9961 3.01562,6.97656 l 18,8.96485 c 1.98438,1.03125 4.9961,0 6.98047,-1.98438 1.03125,-1.98437 3.01563,-3.96484 3.96484,-6.02734 l 1.03125,-1.03125 c 11.02344,-14.98828 24.98438,-26.96484 39.97266,-36.95703 44.96875,-26.96485 100.96094,-27.9961 146.96094,-1.98438 60.98828,34.97657 88.03125,108.97266 62.96875,174.95703 -1.03125,1.98047 0,4.9961 1.98437,6.02735 l 4.9961,3.01172 c 1.03125,0 1.98437,1.03125 3.01172,1.03125 1.03125,0 1.03125,0 1.98437,0 1.03125,0 3.01563,-1.98047 3.01563,-3.01172 42.98437,-96.9961 4.04296,-213.02344 -90.01563,-267.03516 z m 17.05078,78.04297 c -24.03125,-14.03906 -50.99609,-21.01953 -77.01172,-21.01953 -27.99609,0 -55.99218,6.98047 -80.01953,21.96875 -16.97265,11.02344 -31.96484,24.03125 -44.01953,41.00391 0,0 0,1.03125 -1.03125,1.03125 0,1.03125 -1.03125,1.03125 -1.03125,1.98046 l -9.99219,-4.99609 c 1.03125,-3.96484 1.98438,-8.00781 1.98438,-11.97266 0,-21.01953 -13.00781,-39.02343 -32.99219,-44.96875 v -9.99609 c 21.01563,-1.98047 42.03125,-8.00781 59.95703,-18 49.01172,-26.96484 80.02344,-78.99219 80.02344,-136.01562 0,-57.02344 -31.01172,-108.01954 -77.96094,-133.95313 73.9961,31.00781 126.01953,103.97266 126.01953,187.96094 0,13.00781 -1.03125,24.98437 -3.01172,37.98828 0,3.01562 1.03125,5 3.01172,6.02734 11.97657,3.96875 24.03125,9.9961 34.97657,16.02344 C 811.84375,449.08203 849.83203,530.05859 838.88672,610 837.9375,553.92969 809.94141,501.98437 759.97656,473.98828 Z m 0,0"
     id="path18" />
  <path
     style="fill:#000000;fill-opacity:1;fill-rule:nonzero;stroke:none"
     d="m 805.97656,701.92187 -5,-3.01562 C 798.99609,697.875 795.98047,697.875 794,699.9375 749.03125,753.94922 672.02344,767.90625 611.03125,732.92969 549.01172,696.92578 523,622.92969 548.0625,556.94531 c 0,-1.03125 1.03125,-1.98437 1.03125,-3.96875 0,0 1.03125,-1.03125 1.03125,-1.98047 1.03125,-1.98437 1.98047,-3.96484 3.01172,-6.02734 1.03125,-3.01563 0,-6.02734 -1.98047,-6.98047 l -19.98828,-9.99219 c -1.98047,-1.03125 -3.96485,-1.03125 -6.02735,1.03125 -6.98046,6.02735 -16.01953,9.99219 -24.98046,9.99219 -9.9961,0 -19.03516,-3.96484 -26.01563,-11.02344 -1.98047,-1.98437 -3.96484,-1.98437 -6.02734,-1.03125 l -19.03516,8.96094 c -1.03125,1.03125 -1.98047,1.98438 -3.01172,3.01563 0,1.03125 0,3.01171 0,3.96484 34.97656,67.96875 9.99219,151.95703 -57.02344,190.02344 -60.98828,34.97656 -137.99609,21.96875 -182.96484,-32.99219 -1.98437,-1.98047 -4.99609,-3.01172 -6.98047,-1.03125 l -4.99609,3.01562 c -1.03125,1.03125 -1.98438,1.98047 -3.01563,3.96485 0,1.03125 0,3.01172 1.03125,3.96484 42.03516,55.99219 105.95703,85.01953 170.99219,85.01953 36.00391,0 72.96484,-8.96093 106.98828,-29.02734 11.02344,-6.02734 21.01563,-13.00781 29.97656,-21.01563 8.96485,6.97657 19.03516,14.03516 29.02735,19.98438 34.02344,19.03516 70.03125,29.02734 106.98828,29.02734 65.03516,0 129.98828,-29.98047 170.99219,-85.01953 1.03125,-1.03125 1.03125,-3.01172 1.03125,-3.96484 0,-0.95313 -1.19141,-1.90235 -2.14063,-2.9336 z m -271,55.03907 c -11.02344,-6.02735 -21.01953,-14.03907 -31.01172,-21.96875 -1.98047,-1.98047 -4.99609,-1.98047 -6.97656,0 -9.99609,8.96093 -21.01953,16.01953 -31.96484,23 -72.96485,42.03515 -162.02735,34.02343 -225.94922,-14.98828 47.03125,26.96484 105.95703,29.02734 154.96875,0 70.03125,-39.97266 96.99609,-126.97657 62.97265,-198.98829 l 11.02344,-4.99609 C 477,546 487.07422,550.04297 499.04687,550.04297 c 11.02735,0 21.01954,-3.96485 29.98047,-9.99219 l 11.97657,6.02734 c 0,0 -1.03125,1.03125 -1.03125,1.98438 -1.03125,1.98047 -1.98438,3.96484 -1.98438,6.02734 -26.96484,70.98047 1.03125,151.00391 67.01563,188.99219 49.01562,29.02734 108.01953,26.96484 154.97265,0 -63.05078,48.85547 -152.03515,55.83203 -225,13.87891 z m 0,0"
     id="path20" />
  <path
     style="fill:#000000;fill-opacity:1;fill-rule:nonzero;stroke:none"
     d="m 551.94922,631.96875 c -3.01563,1.03125 -3.96875,3.96875 -3.01563,6.98047 1.03125,1.98437 3.01563,3.01562 4.9961,3.01562 1.03125,0 1.03125,0 1.98437,0 57.97266,-23 95.01172,-77.96093 95.01172,-139.98047 0,-6.98046 -1.03125,-14.03906 -1.03125,-21.01953 0,-3.01172 -3.01562,-4.99609 -6.02734,-4.99609 -3.01563,0 -4.9961,3.01562 -4.9961,6.02734 1.03125,6.98047 1.03125,13.00782 1.03125,19.98828 0.0781,57.97266 -34.97656,108.96875 -87.95312,129.98438 z m 0,0"
     id="path22" />
  <path
     style="fill:#000000;fill-opacity:1;fill-rule:nonzero;stroke:none"
     d="m 569,673.92578 c -3.01563,1.03125 -3.96484,3.96484 -3.01563,6.97656 1.03125,1.98438 3.01563,3.01563 4.9961,3.01563 1.03125,0 1.03125,0 1.98437,0 75.02735,-29.98047 123.00782,-100.96094 123.00782,-182.01563 0,-8.96093 -1.03125,-18.0039 -1.98438,-26.96484 0,-3.01172 -3.01172,-4.99609 -6.02734,-4.99609 -3.01172,0 -4.9961,3.01562 -4.9961,6.02734 1.03125,8.96094 1.98438,16.97266 1.98438,24.98437 0,77.00782 -46,144.02344 -115.94922,172.97266 z m 0,0"
     id="path24" />
</svg>
