<?xml version="1.0" encoding="UTF-8" standalone="no"?>
<!-- Created with Inkscape (http://www.inkscape.org/) -->

<svg
   width="1000"
   height="1000"
   version="1.1"
   id="svg8"
   xmlns="http://www.w3.org/2000/svg"
   xmlns:svg="http://www.w3.org/2000/svg"
   xmlns:rdf="http://www.w3.org/1999/02/22-rdf-syntax-ns#"
   xmlns:cc="http://creativecommons.org/ns#"
   xmlns:dc="http://purl.org/dc/elements/1.1/">
  <defs
     id="defs5498" />
  <metadata
     id="metadata5594">
    <rdf:RDF>
      <cc:Work
         rdf:about="">
        <dc:format>image/svg+xml</dc:format>
        <dc:type
           rdf:resource="http://purl.org/dc/dcmitype/StillImage" />
      </cc:Work>
    </rdf:RDF>
  </metadata>
  <path
     style="fill:#000000;fill-opacity:1;fill-rule:nonzero;stroke:none"
     d="M 841.62562,318.14447 778.64515,282.5976 C 821.70374,215.85541 817.34828,132.98432 765.8639,84.656194 714.45374,36.546819 612.62562,25.339788 480.81312,138.26557 307.29749,287.02338 224.18031,282.95697 190.11781,267.24994 c -37.98437,-17.41406 -48.125,-60.45703 -48.125,-83.08594 h -33.27734 c 0,40.97266 20.85156,91.86719 67.48047,113.35156 15.78124,7.21094 33.13281,10.85157 52.1953,10.85157 69.83594,0 161.66407,-48.46875 274.0586,-144.83203 115.10547,-98.578125 199.71875,-92.796875 240.63672,-54.53516 40.1289,37.54688 42.1289,103.71484 6.64062,157.32422 l -82.1875,-46.32813 -40.20312,71.3125 C 488.80921,261.89838 341.4264,323.64447 268.16468,453.48431 177.76625,613.664 234.39124,816.6015 394.62562,906.9726 554.85999,997.33978 757.86781,940.73431 848.26624,780.55463 921.52796,650.71088 898.18031,492.74603 801.28187,389.45697 Z m 0,0"
     id="path6" />
</svg>
