<?xml version="1.0" encoding="UTF-8" standalone="no"?>
<!-- Created with Inkscape (http://www.inkscape.org/) -->

<svg
   width="1000"
   height="1000"
   version="1.1"
   id="svg8"
   xmlns="http://www.w3.org/2000/svg"
   xmlns:svg="http://www.w3.org/2000/svg"
   xmlns:rdf="http://www.w3.org/1999/02/22-rdf-syntax-ns#"
   xmlns:cc="http://creativecommons.org/ns#"
   xmlns:dc="http://purl.org/dc/elements/1.1/">
  <defs
     id="defs5498" />
  <metadata
     id="metadata5594">
    <rdf:RDF>
      <cc:Work
         rdf:about="">
        <dc:format>image/svg+xml</dc:format>
        <dc:type
           rdf:resource="http://purl.org/dc/dcmitype/StillImage" />
      </cc:Work>
    </rdf:RDF>
  </metadata>
  <path
     style="fill:#000000;fill-opacity:1;fill-rule:nonzero;stroke:none"
     d="M 776.89062,50.359377 H 223.10937 C 204.04687,50.359377 188.5,65.89844 188.5,84.945314 V 915.05469 c 0,19.04687 15.46094,34.58593 34.60937,34.58593 h 553.78125 c 19.0625,0 34.60938,-15.44921 34.60938,-34.58593 V 84.945314 C 811.5,65.89844 795.95312,50.359377 776.89062,50.359377 Z M 534.60937,188.71094 h 103.83594 c 19.0625,0 34.60938,15.53906 34.60938,34.58593 0,19.05079 -15.54688,34.58985 -34.60938,34.58985 H 534.60937 C 515.54687,257.88672 500,242.43359 500,223.29687 c 0,-19.13671 15.54687,-34.58593 34.60937,-34.58593 z m 0,103.76172 h 103.83594 c 19.0625,0 34.60938,15.53906 34.60938,34.58984 0,19.04687 -15.54688,34.58594 -34.60938,34.58594 H 534.60937 C 515.54687,361.64844 500,346.19922 500,327.0625 c 0,-19.05078 15.54687,-34.58984 34.60937,-34.58984 z m 0,103.76562 h 103.83594 c 19.0625,0 34.60938,15.44922 34.60938,34.58594 0,19.05078 -15.54688,34.58984 -34.60938,34.58984 H 534.60937 C 515.54687,465.41406 500,449.875 500,430.82422 c 0,-19.05078 15.54687,-34.58594 34.60937,-34.58594 z m 0,103.76172 h 103.83594 c 19.0625,0 34.60938,15.44922 34.60938,34.58594 0,19.14062 -15.54688,34.58984 -34.60938,34.58984 H 534.60937 C 515.54687,569.17578 500,553.63672 500,534.58594 500,515.53906 515.54687,500 534.60937,500 Z M 328.70312,316.08984 363.3125,212.32422 c 6.0625,-18.08203 25.73828,-27.91406 43.74609,-21.85938 18.09766,6.0586 27.9375,25.63282 21.875,43.71875 l -19.32812,58.28907 h 21.17187 c 11.15625,0 21.60938,5.35546 28.10938,14.39843 6.5039,9.04297 8.25781,20.62891 4.74609,31.16407 l -34.61328,103.76171 c -4.83203,14.48438 -18.35937,23.61719 -32.85156,23.61719 -3.60156,0 -7.29297,-0.52734 -10.98047,-1.75781 -18.09766,-6.05859 -27.9375,-25.63281 -21.875,-43.71875 l 19.41406,-58.19922 -21.17187,-0.0898 c -11.15625,0 -21.60938,-5.35547 -28.10938,-14.39453 -6.5,-9.04297 -8.25781,-20.54297 -4.74219,-31.16407 z M 638.44531,811.28906 H 534.60937 C 515.54687,811.28906 500,795.75 500,776.70312 c 0,-19.05078 15.54687,-34.58984 34.60937,-34.58984 h 103.83594 c 19.0625,0 34.60938,15.45313 34.60938,34.58984 0,19.04688 -15.54688,34.58594 -34.60938,34.58594 z M 673.05469,707.52734 H 326.94531 c -19.0625,0 -34.61328,-15.44922 -34.61328,-34.58984 0,-19.04688 15.55078,-34.58594 34.61328,-34.58594 h 346.10938 c 19.0625,0 34.61328,15.53906 34.61328,34.58594 0,19.05078 -15.55078,34.58984 -34.61328,34.58984 z m 0,0"
     id="path6" />
</svg>
