<?xml version="1.0" encoding="UTF-8" standalone="no"?>
<!-- Created with Inkscape (http://www.inkscape.org/) -->

<svg
   width="1000"
   height="1000"
   version="1.1"
   id="svg14"
   xmlns="http://www.w3.org/2000/svg"
   xmlns:svg="http://www.w3.org/2000/svg"
   xmlns:rdf="http://www.w3.org/1999/02/22-rdf-syntax-ns#"
   xmlns:cc="http://creativecommons.org/ns#"
   xmlns:dc="http://purl.org/dc/elements/1.1/">
  <defs
     id="defs5498" />
  <metadata
     id="metadata5594">
    <rdf:RDF>
      <cc:Work
         rdf:about="">
        <dc:format>image/svg+xml</dc:format>
        <dc:type
           rdf:resource="http://purl.org/dc/dcmitype/StillImage" />
      </cc:Work>
    </rdf:RDF>
  </metadata>
  <path
     style="fill:#000000;fill-opacity:1;fill-rule:nonzero;stroke:none"
     d="M 545.26172,189.92187 V 50.558592 H 455.25 V 189.92187 C 275.31641,212.33594 140.34375,360.67969 135.80469,544.95703 h 179.93359 c 0,98.89453 81.01953,179.74219 179.9375,179.74219 99.00391,0 179.93359,-80.92969 179.93359,-179.74219 h 179.9375 C 860.17187,360.67969 720.74219,212.33594 545.26172,189.92187 Z m 0,0"
     id="path6" />
  <path
     style="fill:#000000;fill-opacity:1;fill-rule:nonzero;stroke:none"
     d="m 455.25,814.61328 h 90.01172 V 949.44141 H 455.25 Z m 0,0"
     id="path8" />
  <path
     style="fill:#000000;fill-opacity:1;fill-rule:nonzero;stroke:none"
     d="m 716.46094,807.33984 63.63281,-63.5625 95.40625,95.30078 -63.63281,63.56641 z m 0,0"
     id="path10" />
  <path
     style="fill:#000000;fill-opacity:1;fill-rule:nonzero;stroke:none"
     d="M 188.13281,905.98047 124.5,842.41797 l 95.40625,-95.30469 63.63281,63.5625 z m 0,0"
     id="path12" />
</svg>
