<?xml version="1.0" encoding="UTF-8" standalone="no"?>
<!-- Created with Inkscape (http://www.inkscape.org/) -->

<svg
   width="1000"
   height="1000"
   version="1.1"
   id="svg14"
   xmlns="http://www.w3.org/2000/svg"
   xmlns:svg="http://www.w3.org/2000/svg"
   xmlns:rdf="http://www.w3.org/1999/02/22-rdf-syntax-ns#"
   xmlns:cc="http://creativecommons.org/ns#"
   xmlns:dc="http://purl.org/dc/elements/1.1/">
  <defs
     id="defs5498" />
  <metadata
     id="metadata5594">
    <rdf:RDF>
      <cc:Work
         rdf:about="">
        <dc:format>image/svg+xml</dc:format>
        <dc:type
           rdf:resource="http://purl.org/dc/dcmitype/StillImage" />
      </cc:Work>
    </rdf:RDF>
  </metadata>
  <path
     style="fill:#000000;fill-opacity:1;fill-rule:nonzero;stroke:none"
     d="M 926.55471,387.96484 C 903.35158,355.78125 865.19143,337.3125 821.97658,337.3125 h -40.63672 c 0,-22.38281 -18.2539,-40.64453 -40.63281,-40.64453 H 90.546895 c -22.382813,0 -40.636719,18.15625 -40.636719,40.64453 v 203.23047 c 0,141.64062 80.960934,264.40234 198.949214,325.16406 h -36.41015 c -22.37891,0 -40.63281,18.26172 -40.63281,40.64844 0,22.38672 18.2539,40.64453 40.63281,40.64453 h 446.98828 c 22.37891,0 40.63281,-18.15625 40.63281,-40.64453 0,-22.38672 -18.2539,-40.64844 -40.63281,-40.64844 h -77.04297 c 56.00391,-28.88281 103.54688,-71.48828 138.19922,-123.69141 87.14844,-13.41015 181.20703,-109.14453 221.22656,-229.22265 14.95313,-45.08203 9.48828,-90.57813 -15.26562,-124.82813 z m -61.87891,99.14063 c -21.76172,65.40234 -58.99609,113.78515 -94.88672,142.98047 7.22266,-28.67969 11.55078,-58.59375 11.55078,-89.54297 v -121.9375 h 40.63672 c 17.32813,0 30.73438,5.8789 38.67578,16.91797 9.17969,12.79297 10.72657,31.5664 4.02344,51.58203 z m 0,0"
     id="path6" />
  <path
     style="fill:#000000;fill-opacity:1;fill-rule:nonzero;stroke:none"
     d="m 247.00002,255.81641 c 21.96875,0 39.8125,-17.53907 40.63672,-39.30469 l 0.30859,-0.51563 c 4.125,-6.91406 11.85938,-19.80859 11.85938,-41.26562 0,-20.83984 -7.32032,-33.62891 -11.55078,-40.64453 4.23046,-7.01563 11.55078,-19.8086 11.55078,-40.64844 C 299.80471,71.054688 281.5508,53 259.17189,53 c -21.96875,0 -39.8125,17.539062 -40.63671,39.304688 l -0.3086,0.515624 c -4.125,6.910157 -11.85937,19.808598 -11.85937,41.265628 0,20.83984 7.32031,33.6289 11.55078,40.64453 -4.23047,7.01562 -11.55078,19.80859 -11.55078,40.64453 0,22.49219 18.15234,40.44141 40.63281,40.44141 z m 0,0"
     id="path8" />
  <path
     style="fill:#000000;fill-opacity:1;fill-rule:nonzero;stroke:none"
     d="m 409.54299,255.81641 c 21.96484,0 39.80859,-17.53907 40.63281,-39.30469 l 0.30859,-0.51563 c 4.125,-6.91406 11.86329,-19.80859 11.86329,-41.26562 0,-20.83984 -7.32422,-33.62891 -11.55079,-40.64453 4.22657,-7.01563 11.55079,-19.8086 11.55079,-40.64844 C 462.34768,71.054688 444.19533,53 421.71096,53 c -21.96875,0 -39.8086,17.539062 -40.63672,39.304688 l -0.3086,0.515624 c -4.125,6.910157 -11.85937,19.808598 -11.85937,41.265628 0,20.83984 7.32422,33.6289 11.55078,40.64453 -4.22656,7.01562 -11.55078,19.80859 -11.55078,40.64453 0,22.49219 18.15234,40.44141 40.63672,40.44141 z m 0,0"
     id="path10" />
  <path
     style="fill:#000000;fill-opacity:1;fill-rule:nonzero;stroke:none"
     d="m 572.08205,255.81641 c 21.96875,0 39.80859,-17.53907 40.63281,-39.30469 l 0.3125,-0.51563 c 4.125,-6.91406 11.85938,-19.80859 11.85938,-41.26562 0,-20.83984 -7.32422,-33.62891 -11.55078,-40.64453 4.22656,-7.01563 11.55078,-19.8086 11.55078,-40.64844 C 624.88674,71.054688 606.63283,53 584.25002,53 562.28518,53 544.44143,70.539062 543.61721,92.304688 l -0.3086,0.515624 c -4.1289,6.910157 -11.86328,19.808598 -11.86328,41.265628 0,20.83984 7.32422,33.6289 11.55078,40.64453 -4.22656,7.01562 -11.55078,19.80859 -11.55078,40.64453 0,22.49219 18.15235,40.44141 40.63672,40.44141 z m 0,0"
     id="path12" />
</svg>
