<?xml version="1.0" encoding="UTF-8" standalone="no"?>
<!-- Created with Inkscape (http://www.inkscape.org/) -->

<svg
   width="1000"
   height="1000"
   version="1.1"
   id="svg8"
   xmlns="http://www.w3.org/2000/svg"
   xmlns:svg="http://www.w3.org/2000/svg"
   xmlns:rdf="http://www.w3.org/1999/02/22-rdf-syntax-ns#"
   xmlns:cc="http://creativecommons.org/ns#"
   xmlns:dc="http://purl.org/dc/elements/1.1/">
  <defs
     id="defs5498" />
  <metadata
     id="metadata5594">
    <rdf:RDF>
      <cc:Work
         rdf:about="">
        <dc:format>image/svg+xml</dc:format>
        <dc:type
           rdf:resource="http://purl.org/dc/dcmitype/StillImage" />
      </cc:Work>
    </rdf:RDF>
  </metadata>
  <path
     style="fill:#000000;fill-opacity:1;fill-rule:nonzero;stroke:none"
     d="m 435.46822,564.53178 c 42.47336,42.47337 90.26108,76.98072 141.23353,102.989 l 82.3227,-82.32269 c 10.35525,-10.35526 25.75692,-13.54276 38.76657,-9.03496 39.02623,13.00138 79.38103,19.90119 119.7386,21.4839 9.55698,0 18.85157,3.98024 26.01931,11.14798 7.43291,7.43291 11.14799,16.99266 11.14522,26.54688 l -0.0249,131.69588 c 0.26516,9.29182 -3.45543,18.85158 -10.88833,26.28448 -7.43568,7.43568 -16.99543,11.15627 -26.55518,11.15903 C 659.51334,800.26074 502.87539,738.15964 382.35787,617.64213 261.84036,497.12461 199.73926,340.48666 195.51872,182.77422 c 0.003,-9.55975 3.72335,-19.1195 11.15903,-26.55518 7.4329,-7.4329 16.99266,-11.15349 26.55241,-11.15626 l 131.69311,-0.0221 c 9.55422,-0.003 19.11398,3.71231 26.54688,11.14522 7.16775,7.16775 10.88282,16.7275 11.14799,26.01932 1.31754,40.62273 8.74768,80.97753 21.74906,120.00376 4.51056,13.01241 1.58822,28.1434 -9.03496,38.76657 l -82.32269,82.3227 c 25.47795,50.97245 59.9853,98.76017 102.45867,141.23353 z m 0,0"
     id="path6" />
</svg>
