<?xml version="1.0" encoding="UTF-8" standalone="no"?>
<!-- Created with Inkscape (http://www.inkscape.org/) -->

<svg
   width="1000"
   height="1000"
   version="1.1"
   id="svg8"
   xmlns="http://www.w3.org/2000/svg"
   xmlns:svg="http://www.w3.org/2000/svg"
   xmlns:rdf="http://www.w3.org/1999/02/22-rdf-syntax-ns#"
   xmlns:cc="http://creativecommons.org/ns#"
   xmlns:dc="http://purl.org/dc/elements/1.1/">
  <defs
     id="defs5498" />
  <metadata
     id="metadata5594">
    <rdf:RDF>
      <cc:Work
         rdf:about="">
        <dc:format>image/svg+xml</dc:format>
        <dc:type
           rdf:resource="http://purl.org/dc/dcmitype/StillImage" />
      </cc:Work>
    </rdf:RDF>
  </metadata>
  <path
     style="fill:#000000;fill-opacity:1;fill-rule:nonzero;stroke:none"
     d="M 500,50 C 251.60156,50 50,251.60156 50,500 50,748.39844 251.60156,950 500,950 748.39844,950 950,748.39844 950,500 950,251.60156 748.39844,50 500,50 Z M 702.5,680 H 320 c -74.69922,0 -135,-60.30078 -135,-135 0,-74.69922 60.30078,-135 135,-135 l 6.30078,0.44922 C 346.10156,332.60156 415.85156,275 500,275 c 99.44922,0 180,80.55078 180,180 h 22.5 C 764.60156,455 815,505.39844 815,567.5 815,629.60156 764.60156,680 702.5,680 Z m 0,0"
     id="path6" />
</svg>
