<?xml version="1.0" encoding="UTF-8" standalone="no"?>
<!-- Created with Inkscape (http://www.inkscape.org/) -->

<svg
   width="1000"
   height="1000"
   version="1.1"
   id="svg8"
   xmlns="http://www.w3.org/2000/svg"
   xmlns:svg="http://www.w3.org/2000/svg"
   xmlns:rdf="http://www.w3.org/1999/02/22-rdf-syntax-ns#"
   xmlns:cc="http://creativecommons.org/ns#"
   xmlns:dc="http://purl.org/dc/elements/1.1/">
  <defs
     id="defs5498" />
  <metadata
     id="metadata5594">
    <rdf:RDF>
      <cc:Work
         rdf:about="">
        <dc:format>image/svg+xml</dc:format>
        <dc:type
           rdf:resource="http://purl.org/dc/dcmitype/StillImage" />
      </cc:Work>
    </rdf:RDF>
  </metadata>
  <path
     style="fill:#000000;fill-opacity:1;fill-rule:nonzero;stroke:none"
     d="M 860,252.5 H 725 v -90 c 0,-49.94922 -40.05078,-90 -90,-90 H 365 c -49.94922,0 -90,40.05078 -90,90 v 90 H 140 c -49.949219,0 -90,40.05078 -90,90 v 495 c 0,49.94922 40.050781,90 90,90 h 720 c 49.94922,0 90,-40.05078 90,-90 v -495 c 0,-49.94922 -40.05078,-90 -90,-90 z m -495,-90 h 270 v 90 H 365 Z m 495,675 H 140 v -90 h 720 z m 0,-225 H 140 v -270 h 135 v 90 h 90 v -90 h 270 v 90 h 90 v -90 h 135 z m 0,0"
     id="path6" />
</svg>
