<?xml version="1.0" encoding="UTF-8" standalone="no"?>
<!-- Created with Inkscape (http://www.inkscape.org/) -->

<svg
   width="1000"
   height="1000"
   version="1.1"
   id="svg8"
   xmlns="http://www.w3.org/2000/svg"
   xmlns:svg="http://www.w3.org/2000/svg"
   xmlns:rdf="http://www.w3.org/1999/02/22-rdf-syntax-ns#"
   xmlns:cc="http://creativecommons.org/ns#"
   xmlns:dc="http://purl.org/dc/elements/1.1/">
  <defs
     id="defs5498" />
  <metadata
     id="metadata5594">
    <rdf:RDF>
      <cc:Work
         rdf:about="">
        <dc:format>image/svg+xml</dc:format>
        <dc:type
           rdf:resource="http://purl.org/dc/dcmitype/StillImage" />
      </cc:Work>
    </rdf:RDF>
  </metadata>
  <path
     style="fill:#000000;fill-opacity:1;fill-rule:nonzero;stroke:none"
     d="M 850,100 H 150 C 94.5,100 50,145 50,200 v 600 c 0,55 44.5,100 100,100 h 700 c 55,0 100,-45 100,-100 V 200 C 950,145 905,100 850,100 Z M 450,450 H 375 V 425 H 275 v 150 h 100 v -25 h 75 v 50 c 0,27.5 -22.5,50 -50,50 H 250 c -27.5,0 -50,-22.5 -50,-50 V 400 c 0,-27.5 22.5,-50 50,-50 h 150 c 27.5,0 50,22.5 50,50 z m 350,0 H 725 V 425 H 625 v 150 h 100 v -25 h 75 v 50 c 0,27.5 -22.5,50 -50,50 H 600 c -27.5,0 -50,-22.5 -50,-50 V 400 c 0,-27.5 22.5,-50 50,-50 h 150 c 27.5,0 50,22.5 50,50 z m 0,0"
     id="path6" />
</svg>
