<?xml version="1.0" encoding="UTF-8" standalone="no"?>
<!-- Created with Inkscape (http://www.inkscape.org/) -->

<svg
   width="1000"
   height="1000"
   version="1.1"
   id="svg10"
   xmlns="http://www.w3.org/2000/svg"
   xmlns:svg="http://www.w3.org/2000/svg"
   xmlns:rdf="http://www.w3.org/1999/02/22-rdf-syntax-ns#"
   xmlns:cc="http://creativecommons.org/ns#"
   xmlns:dc="http://purl.org/dc/elements/1.1/">
  <defs
     id="defs5498" />
  <metadata
     id="metadata5594">
    <rdf:RDF>
      <cc:Work
         rdf:about="">
        <dc:format>image/svg+xml</dc:format>
        <dc:type
           rdf:resource="http://purl.org/dc/dcmitype/StillImage" />
      </cc:Work>
    </rdf:RDF>
  </metadata>
  <path
     style="fill:#000000;fill-opacity:1;fill-rule:nonzero;stroke:none"
     d="m 292.39844,845.67969 h 415.20312 c 19.05469,0 34.59766,-15.52735 34.59766,-34.56641 V 470.51953 c 0,-19.125 -15.45313,-34.56641 -34.59766,-34.56641 h -173 v -39.13281 c 59.53906,-15.4414 103.79688,-69.48437 103.79688,-133.70703 0,-48.34375 -83.95313,-212.499999 -135.41407,-212.499999 -18.17578,0 -37.58593,13.863281 -37.58593,39.65625 0,15.441409 -23.88282,42.027339 -43.02735,63.347659 -29.85937,33.25 -60.76953,67.64453 -60.76953,109.49609 0,64.30859 44.17188,118.26563 103.79688,133.70703 v 39.13281 h -173 c -19.05469,0 -34.59766,15.52735 -34.59766,34.56641 v 340.59375 c 0,19.03906 15.54297,34.56641 34.59766,34.56641 z m 0,0"
     id="path6" />
  <path
     style="fill:#000000;fill-opacity:1;fill-rule:nonzero;stroke:none"
     d="M 811.39844,880.25 H 188.60156 C 169.54297,880.25 154,895.77734 154,914.81641 c 0,19.03906 15.54297,34.57031 34.60156,34.57031 H 811.39844 C 830.45703,949.38672 846,933.94531 846,914.81641 846,895.69141 830.45703,880.25 811.39844,880.25 Z m 0,0"
     id="path8" />
</svg>
