<?xml version="1.0" encoding="UTF-8" standalone="no"?>
<!-- Created with Inkscape (http://www.inkscape.org/) -->

<svg
   width="1000"
   height="1000"
   version="1.1"
   id="svg34"
   xmlns="http://www.w3.org/2000/svg"
   xmlns:svg="http://www.w3.org/2000/svg"
   xmlns:rdf="http://www.w3.org/1999/02/22-rdf-syntax-ns#"
   xmlns:cc="http://creativecommons.org/ns#"
   xmlns:dc="http://purl.org/dc/elements/1.1/">
  <defs
     id="defs5498" />
  <metadata
     id="metadata5594">
    <rdf:RDF>
      <cc:Work
         rdf:about="">
        <dc:format>image/svg+xml</dc:format>
        <dc:type
           rdf:resource="http://purl.org/dc/dcmitype/StillImage" />
      </cc:Work>
    </rdf:RDF>
  </metadata>
  <path
     style="fill:#000000;fill-opacity:1;fill-rule:nonzero;stroke:none"
     d="m 966.3161,677.20284 v 72.50391 h -0.89454 c 0,30.76953 -25.41015,56.00781 -56.70312,56.00781 l -818.05469,-0.0898 c -31.296874,0 -56.707031,-25.23828 -56.707031,-56.00391 h 0.265625 V 677.113 Z m 0,0"
     id="path6" />
  <path
     style="fill:#000000;fill-opacity:1;fill-rule:nonzero;stroke:none"
     d="m 950.80047,677.38253 c 0,24.16797 0,48.33594 0,72.50391 5.08203,-5.08203 10.25391,-10.25391 15.33594,-15.33985 -0.26563,0 -0.53516,0 -0.80078,0 -8.47266,0 -15.25,6.95704 -15.33594,15.33985 0,1.51562 -0.0898,3.03125 -0.17969,4.54687 -0.35547,4.81641 0.53516,-2.85156 -0.26562,1.875 -0.53516,2.94141 -1.42969,5.70703 -2.41016,8.47266 -1.60547,4.45703 1.25,-2.58594 -0.71094,1.69141 -0.625,1.33984 -1.33984,2.58984 -2.05078,3.83593 -0.71484,1.25 -1.51562,2.41016 -2.32031,3.65625 -1.07031,1.42969 -1.16016,1.51563 -0.17578,0.35938 -0.625,0.71094 -1.25,1.42578 -1.875,2.13672 -1.96094,2.14062 -4.10156,4.10547 -6.32813,5.97656 2.31641,-1.96094 -1.42968,0.89062 -1.60547,0.98047 -1.25,0.80469 -2.49609,1.51562 -3.74609,2.23047 -1.24609,0.71484 -2.58594,1.33593 -3.92187,1.96093 2.76171,-1.33593 -1.60547,0.53516 -1.78516,0.625 -1.42578,0.44532 -2.85156,0.89063 -4.27734,1.25 -0.53516,0.17579 -6.33204,1.16016 -3.39063,0.71094 -3.38672,0.44922 -6.77344,0.35938 -10.25391,0.35938 -11.41015,0 -22.73437,0 -34.14843,0 -49.48438,0 -98.87891,0 -148.36328,0 -69.36719,0 -138.82422,0 -208.19141,0 -70.61719,0 -141.23047,0 -211.84766,0 -53.14062,0 -106.1914,0 -159.33203,0 -14.08594,0 -28.26172,0 -42.35156,0 -2.941408,0 -5.882814,0 -8.824221,0 -1.875,0 -3.746093,-0.0899 -5.617187,-0.17969 -4.90625,-0.35547 2.851562,0.53516 -1.964844,-0.26563 -1.515625,-0.26953 -2.941406,-0.625 -4.367188,-0.98437 -1.425781,-0.35547 -2.851562,-0.89063 -4.28125,-1.33594 -4.457031,-1.51562 2.496094,1.25 -1.78125,-0.71484 -2.675781,-1.2461 -5.171874,-2.76172 -7.578124,-4.36719 -3.835938,-2.58594 2.140624,1.87109 -1.515626,-1.16016 -1.515624,-1.25 -2.855468,-2.58593 -4.191406,-3.92578 -0.980468,-1.07031 -1.960937,-2.14062 -2.851562,-3.21093 1.960937,2.32031 -0.894532,-1.33594 -1.070313,-1.51563 -0.804687,-1.16016 -1.515625,-2.40625 -2.230469,-3.74609 -0.269531,-0.44532 -2.675781,-5.61719 -1.605468,-2.85157 -1.160156,-2.67578 -1.871094,-5.53125 -2.585938,-8.38281 -0.08984,-0.26953 -0.800781,-5.08594 -0.445312,-1.78515 -0.265625,-2.05079 -0.265625,-4.01172 -0.355469,-6.0625 -5.082031,5.08203 -10.253906,10.2539 -15.335937,15.33984 0.08984,0 0.08984,0 0.175781,0 8.382812,0 15.335937,-6.95703 15.335937,-15.33984 0,-24.16797 0,-48.33594 0,-72.50391 -5.082031,5.08203 -10.253906,10.25391 -15.335937,15.33594 20.597656,0 41.105469,0 61.703125,0 52.070308,0 104.136718,0 156.207028,0 69.19141,0 138.37891,0 207.48047,0 71.86328,0 143.63672,0 215.50391,0 60.09375,0 120.1875,0 180.28125,0 33.88281,0 67.85156,0 101.73437,0 3.03125,0 6.0625,0 9.09375,0 8.38282,0 15.33594,-6.95313 15.33594,-15.33594 0,-8.38281 -6.95312,-15.33984 -15.33594,-15.33984 -20.59375,0 -41.10156,0 -61.69921,0 -52.07032,0 -104.14063,0 -156.21094,0 -69.1875,0 -138.37891,0 -207.47656,0 -71.86329,0 -143.64063,0 -215.50391,0 -60.09375,0 -120.1875,0 -180.28516,0 -33.8789,0 -67.851561,0 -101.730467,0 -3.03125,0 -6.0625,0 -9.097656,0 -8.378907,0 -15.332031,6.95703 -15.332031,15.33984 0,24.16797 0,48.33594 0,72.50391 5.082031,-5.08594 10.25,-10.25782 15.332031,-15.33985 -0.08594,0 -0.08594,0 -0.175781,0 -8.292969,0 -15.515626,6.95703 -15.335938,15.33985 0.445312,29.60546 18.546875,55.3789 45.917969,66.4375 9.003906,3.65625 18.722656,4.99609 28.351562,4.99609 10.078121,0 20.152341,0 30.226561,0 47.61329,0 95.3125,0 142.92578,0 68.74219,0 137.48829,0 206.23047,0 71.0625,0 142.1211,0 213.1836,0 54.65625,0 109.40234,0 164.05859,0 15.33594,0 30.67188,0 46.00781,0 13.3711,0 26.48047,0.17578 39.32032,-4.99609 27.28125,-11.0586 45.46875,-36.74219 45.91796,-66.4375 -5.08203,5.08203 -10.2539,10.2539 -15.33593,15.33984 0.26562,0 0.53515,0 0.80078,0 8.38281,0 15.33594,-6.95703 15.33594,-15.33984 0,-24.16797 0,-48.33594 0,-72.50391 0,-8.38281 -6.95313,-15.33984 -15.33594,-15.33984 -8.29297,-0.26954 -15.33594,6.77734 -15.33594,15.16015 z m 0,0"
     id="path8" />
  <path
     style="fill:#000000;fill-opacity:1;fill-rule:nonzero;stroke:none"
     d="M 442.67156,349.90988 H 931.18719 V 626.63644 H 442.67156 Z m 0,0"
     id="path10" />
  <path
     style="fill:#000000;fill-opacity:1;fill-rule:nonzero;stroke:none"
     d="m 931.09735,334.74972 c -35.04297,0 -70.08204,0 -105.1211,0 -70.17187,0 -140.33984,0 -210.60156,0 -52.87109,0 -105.74219,0 -158.61719,0 -4.72656,0 -9.44922,0 -14.17578,0 -8.38281,0 -15.33594,6.95312 -15.33594,15.33984 0,50.11719 0,100.23828 0,150.44532 0,42.09375 0,84.1875 0,126.28125 0,8.38281 6.95313,15.33984 15.33594,15.33984 35.03906,0 70.08203,0 105.12109,0 70.16797,0 140.33985,0 210.59766,0 52.875,0 105.74609,0 158.61719,0 4.72656,0 9.45312,0 14.17969,0 8.3789,0 15.33593,-6.95703 15.33593,-15.33984 0,-50.1211 0,-100.23829 0,-150.44922 0,-42.09375 0,-84.1875 0,-126.27735 0,-8.29687 -6.95703,-15.33984 -15.33593,-15.33984 -8.38282,0 -15.33594,6.95312 -15.33594,15.33984 0,50.11719 0,100.23828 0,150.44532 0,42.09375 0,84.1875 0,126.28125 5.08203,-5.08204 10.2539,-10.25391 15.33594,-15.33985 -35.04297,0 -70.08204,0 -105.1211,0 -70.17187,0 -140.33984,0 -210.60156,0 -52.87109,0 -105.74219,0 -158.61719,0 -4.72656,0 -9.44922,0 -14.17578,0 5.08203,5.08594 10.25391,10.25781 15.33594,15.33985 0,-50.1211 0,-100.23829 0,-150.44922 0,-42.09375 0,-84.1875 0,-126.27735 -5.08203,5.08203 -10.25391,10.25391 -15.33594,15.33594 35.03906,0 70.08203,0 105.12109,0 70.16797,0 140.33985,0 210.59766,0 52.875,0 105.74609,0 158.61719,0 4.72656,0 9.45312,0 14.17969,0 8.3789,0 15.33593,-6.95312 15.33593,-15.33594 0,-8.29687 -6.95703,-15.33984 -15.33593,-15.33984 z m 0,0"
     id="path12" />
  <path
     style="fill:#000000;fill-opacity:1;fill-rule:nonzero;stroke:none"
     d="m 962.03485,297.20285 c 0,-30.76563 -25.41016,-56.00391 -56.70704,-56.00391 l -437.96093,0.0859 c -31.29297,0 -56.70703,25.23828 -56.70703,56.00781 z m 0,0"
     id="path14" />
  <path
     style="fill:#000000;fill-opacity:1;fill-rule:nonzero;stroke:none"
     d="m 977.37078,297.47238 c -0.44531,-29.60938 -18.54687,-55.38282 -45.91797,-66.44141 -9.6289,-3.92578 -19.88281,-4.99609 -30.22656,-4.99609 -17.29687,0 -34.59375,0 -51.89062,0 -66.8711,0 -133.83203,0 -200.70313,0 -55.63672,0 -111.27344,0 -166.91015,0 -4.8125,0 -9.53907,0 -14.35547,0 -39.23047,0 -71.50782,32.28515 -72.03907,71.34765 -0.0898,8.38282 7.04297,15.33985 15.33204,15.33985 31.92187,0 63.83984,0 95.76171,0 68.38672,0 136.6836,0 205.07032,0 63.66015,0 127.23437,0 190.89453,0 19.88281,0 39.76562,0 59.55859,0 8.47266,0.0859 15.42578,-6.86719 15.42578,-15.25 0,-8.38282 -6.95312,-15.33985 -15.33593,-15.33985 -31.91797,0 -63.83985,0 -95.75782,0 -68.38672,0 -136.68359,0 -205.07031,0 -63.57422,0 -127.23437,0 -190.89453,0 -19.88281,0 -39.76563,0 -59.5625,0 5.08203,5.08203 10.25391,10.25391 15.33594,15.33985 0,-1.51953 0.0898,-3.03516 0.17968,-4.55078 0.35547,-4.81641 -0.53515,2.85546 0.26563,-1.8711 0.53516,-2.94531 1.42969,-5.70703 2.41016,-8.47265 1.60546,-4.46094 -1.25,2.49609 0.71093,-1.69532 0.625,-1.33593 1.33985,-2.58593 2.05078,-3.83593 0.71485,-1.2461 1.51563,-2.40625 2.32032,-3.65625 1.07031,-1.42579 1.15625,-1.51563 0.17578,-0.35547 0.625,-0.71485 1.25,-1.42578 1.875,-2.14063 1.96094,-2.14062 4.10156,-4.10156 6.32812,-5.97265 -2.3164,1.96093 1.42578,-0.89454 1.60547,-0.98438 1.25,-0.80078 2.4961,-1.51562 3.7461,-2.22656 1.24609,-0.71485 2.58593,-1.33985 3.92187,-1.96485 -2.76172,1.33985 1.60547,-0.53515 1.78516,-0.62109 1.42578,-0.44922 2.85156,-0.89453 4.27734,-1.25 0.53516,-0.17969 6.33203,-1.07031 3.39063,-0.80469 4.45703,-0.53515 9.09375,-0.35547 13.55078,-0.35547 19.34765,0 38.69531,0 58.04297,0 68.03125,0 136.15234,0 204.17968,0 52.875,0 105.83594,0 158.70703,0 3.21094,0 6.42188,0 9.71875,0 1.51563,0 3.1211,0.0898 4.63672,0.17969 4.90235,0.35547 -2.85156,-0.53515 1.96094,0.26563 3.39063,0.625 6.77734,1.69531 9.98828,2.85547 -2.85547,-1.07032 1.51563,0.80078 1.69141,0.89062 1.78515,0.89063 3.39062,1.875 5.08203,2.94531 0.17969,0.0859 4.01562,2.94141 1.60547,0.98047 1.51562,1.15625 2.9414,2.4961 4.28125,3.83203 1.07031,0.98438 1.96094,2.05469 2.9414,3.1211 3.1211,3.48047 -1.60546,-2.31641 1.16016,1.42968 1.96094,2.76172 3.56641,5.70704 5.08203,8.73829 -1.33984,-2.85157 0.53516,1.51562 0.625,1.78515 0.6211,1.8711 1.15625,3.7461 1.60547,5.70703 0.0859,0.26563 0.80078,5.08203 0.44531,1.78125 0.26563,2.05469 0.26563,4.01563 0.35547,6.06641 0.0899,8.38281 6.86328,15.33984 15.33594,15.33984 8.20312,0.17578 15.33594,-6.77734 15.24609,-15.16015 z m 0,0"
     id="path16" />
  <path
     style="fill:#000000;fill-opacity:1;fill-rule:nonzero;stroke:none"
     d="m 756.60906,237.988 v -0.17969 c 0,-24.07812 -19.70703,-43.69922 -43.78125,-43.69922 h -52.96093 c -24.07422,0 -43.51172,19.6211 -43.51172,43.69922"
     id="path18" />
  <path
     style="fill:#000000;fill-opacity:1;fill-rule:nonzero;stroke:none"
     d="m 771.85516,238.16378 c 0,-26.21875 -17.1211,-48.51172 -41.73047,-56.71875 -12.92578,-4.36719 -28.70703,-2.58594 -42.17188,-2.58594 -13.55078,0 -27.73046,-1.07031 -41.1914,1.51563 -26.92578,5.17578 -45.47266,31.03516 -45.91797,57.52344 -0.17969,8.38281 7.13281,15.33984 15.33594,15.33984 8.46875,0 15.24609,-6.95703 15.33593,-15.33984 0,-0.625 0.53516,-6.51172 0.0898,-3.39063 0.35547,-2.40625 1.0664,-4.8125 1.87109,-7.13281 0.625,-1.69531 0.71094,-1.78516 0.0899,-0.35547 0.62109,-1.33984 1.33593,-2.58594 2.05078,-3.83594 0.53515,-0.80468 0.98047,-1.60547 1.51562,-2.40625 2.4961,-3.74609 -1.875,2.05078 1.15625,-1.33984 0.625,-0.71484 1.33985,-1.42578 1.96485,-2.05078 0.17578,-0.17969 3.74218,-3.21094 1.24609,-1.25 1.87109,-1.42578 3.92187,-2.67578 6.0625,-3.83203 1.60547,-0.80469 1.69531,-0.80469 0.26953,-0.26953 1.33594,-0.53516 2.76172,-0.98047 4.10156,-1.42579 0.98047,-0.26953 1.8711,-0.53515 2.85157,-0.71484 4.63671,-1.07031 -2.94141,0.17969 1.87109,-0.26562 9.89844,-0.89454 20.15234,-0.0898 30.05078,-0.0898 10.07422,0 20.41797,-0.625 30.49219,0.26562 -1.60547,-0.26562 -1.51563,-0.17578 0.35547,0.17969 1.42578,0.26953 2.85547,0.71484 4.28125,1.16015 0.89062,0.26563 1.87109,0.625 2.76172,0.98047 -2.94141,-1.07031 1.25,0.80078 1.51562,0.89063 0.80469,0.44531 1.69531,0.98047 2.49609,1.42969 0.26954,0.17578 3.92579,2.9414 1.51563,0.98046 1.875,1.51563 3.48047,3.21094 5.08594,4.99219 -0.89453,-1.24609 -0.80469,-1.16015 0.17578,0.26953 0.80469,1.15625 1.51562,2.40625 2.32031,3.65625 0.44531,0.80078 0.89063,1.69141 1.33594,2.58594 -1.42578,-2.76562 0.44531,1.42578 0.53515,1.69531 0.26563,0.89063 0.53516,1.8711 0.80079,2.85157 0.0898,0.26953 0.89453,4.99609 0.44921,1.78515 0.17579,1.60547 0.26563,3.29688 0.26563,4.99219 0,8.38281 6.95312,15.33984 15.33594,15.33984 8.46875,-0.0898 15.42578,-7.04687 15.42578,-15.42968 z m 0,0"
     id="path20" />
  <path
     style="fill:#000000;fill-opacity:1;fill-rule:nonzero;stroke:none"
     d="M 313.38641,350.1755 H 110.90203 c -33.347654,0 -60.273436,27.37891 -60.273436,60.73438 V 626.81613 H 374.46063 v -215.9961 c 0,-33.35547 -27.72657,-60.64453 -61.07422,-60.64453 z M 152.18328,463.70284 c 0,13.73438 -11.14453,24.88282 -24.875,24.88282 -6.86719,0 -13.10937,-2.76563 -17.5664,-7.3125 -4.45704,-4.46094 -7.3125,-10.70313 -7.3125,-17.57032 v -47.08593 c 0,-13.73438 11.14843,-24.88282 24.8789,-24.88282 6.86328,0 13.10547,2.76563 17.5625,7.3125 4.54688,4.46094 7.3125,10.70313 7.3125,17.57032 z m 57.41797,0 c 0,13.73438 -11.14453,24.88282 -24.875,24.88282 -13.73047,0 -24.875,-11.14844 -24.875,-24.88282 v -47.08593 c 0,-13.73438 11.14453,-24.88282 24.875,-24.88282 13.73047,0 24.875,11.14844 24.875,24.88282 z m 57.42188,0 c 0,13.73438 -11.14453,24.88282 -24.875,24.88282 -6.86719,0 -13.10938,-2.76563 -17.56641,-7.3125 -4.45703,-4.46094 -7.3125,-10.70313 -7.3125,-17.57032 v -47.08593 c 0,-13.73438 11.14844,-24.88282 24.87891,-24.88282 6.86328,0 13.10547,2.76563 17.5625,7.3125 4.46093,4.46094 7.3125,10.70313 7.3125,17.57032 z m 57.50781,0 c 0,13.73438 -11.14453,24.88282 -24.875,24.88282 -6.86719,0 -13.10547,-2.76563 -17.56641,-7.3125 -4.45703,-4.46094 -7.30859,-10.70313 -7.30859,-17.57032 v -47.08593 c 0,-13.73438 11.14453,-24.88282 24.875,-24.88282 6.86719,0 13.10547,2.76563 17.56641,7.3125 4.54687,4.46094 7.30859,10.70313 7.30859,17.57032 z m 0,0"
     id="path22" />
  <path
     style="fill:#000000;fill-opacity:1;fill-rule:nonzero;stroke:none"
     d="m 309.10516,463.70284 c -0.17578,4.72657 0.80469,-2.67578 -0.17578,1.78516 -0.0899,0.44531 -1.78516,4.54688 -0.44532,1.69531 -0.17968,0.26563 -2.67578,4.01172 -0.71484,1.60547 -0.89062,1.07031 -1.96094,2.05078 -3.03125,3.03125 2.23047,-2.05078 -1.25,0.53516 -1.60547,0.71485 2.67578,-1.42969 -1.24609,0.35546 -1.69531,0.44531 -4.1875,1.16015 2.67578,0 -1.78125,0.17578 -1.96094,-0.0859 -2.23047,-0.0859 -0.89063,0 -1.07031,-0.17578 -2.14062,-0.53516 -3.12109,-0.89063 2.31641,0.71485 -1.96094,-1.25 -2.05078,-1.33593 2.05078,1.33593 -1.60547,-1.69532 -1.69531,-1.78516 1.69531,1.78516 -1.16016,-2.14062 -1.16016,-2.14062 1.16016,2.14062 -0.53125,-2.40625 -0.53125,-2.4961 0.44531,2.05078 0,-0.71484 0,-1.42578 0,-1.07031 0,-2.05469 0,-3.12109 0,-14.35938 0,-28.71875 0,-42.98828 0,-0.80079 0.26563,-3.56641 -0.17969,-0.89063 0.17969,-1.42578 0.71094,-2.85547 1.16016,-4.19141 -0.98047,2.94141 0.80078,-1.07031 1.06641,-1.42578 -1.60157,2.4961 0.89453,-0.89453 1.25,-1.25 3.03125,-3.03125 -2.23047,1.25 1.42578,-0.98047 3.65625,-2.23046 -2.4961,0.625 1.60547,-0.71484 0.89062,-0.26562 1.87109,-0.53516 2.85546,-0.71094 -1.60546,0.26563 -1.51953,0.26563 0.35547,0.17578 3.47657,-0.0898 6.41797,1.875 8.20313,4.72657 2.22656,3.48047 -0.26953,-1.69141 0.98047,2.23047 1.24609,4.01171 0.17578,-1.78516 0.35547,2.49609 0,0.53516 0,0.98047 0,1.51562 0,14.53907 0,29.07422 0,43.60938 -0.17969,0.80469 -0.17969,1.42969 -0.17969,2.14062 0,8.38282 6.95703,15.33985 15.33594,15.33985 8.38281,0 15.33593,-6.95703 15.33593,-15.33985 0,-13.55468 0,-27.19921 0,-40.7539 0,-9.45313 -0.80078,-18.10547 -5.52734,-26.66406 -8.64844,-15.96485 -27.72656,-22.29688 -44.75781,-18.73047 -14.80078,3.12109 -27.28516,17.125 -29.51172,31.92968 -0.98047,6.50782 -0.71485,13.01954 -0.71485,19.61719 0,8.5625 0,17.125 0,25.77344 0,7.67187 -0.26562,15.33984 2.4961,22.65234 7.57812,19.6211 27.46094,29.51953 47.79297,25.23828 18.00781,-3.83593 29.77734,-21.40234 30.3125,-38.97265 0.26953,-8.38281 -7.22266,-15.33985 -15.33594,-15.33985 -8.55859,-0.17578 -15.15625,6.86719 -15.42578,15.25 z m 0,0"
     id="path24" />
  <path
     style="fill:#000000;fill-opacity:1;fill-rule:nonzero;stroke:none"
     d="m 251.68719,463.70284 c -0.17969,4.72657 0.80078,-2.67578 -0.17969,1.78516 -0.0859,0.44531 -1.78125,4.54688 -0.44531,1.69531 -0.17578,0.26563 -2.67578,4.01172 -0.71094,1.60547 -0.89453,1.07031 -1.96484,2.05078 -3.03125,3.03125 2.22656,-2.05078 -1.25,0.53516 -1.60547,0.71485 2.67188,-1.42969 -1.25,0.35546 -1.69531,0.44531 -4.19141,1.16015 2.67578,0 -1.78125,0.17578 -1.96484,-0.0859 -2.23047,-0.0859 -0.89453,0 -1.07031,-0.17578 -2.14063,-0.53516 -3.12109,-0.89063 2.32031,0.71485 -1.96094,-1.25 -2.05079,-1.33593 2.05079,1.33593 -1.60156,-1.69532 -1.6914,-1.78516 1.6914,1.78516 -1.16016,-2.14062 -1.16016,-2.14062 1.16016,2.14062 -0.53515,-2.40625 -0.53515,-2.4961 0.44531,2.05078 0,-0.71484 0,-1.42578 0,-1.07031 0,-2.05469 0,-3.12109 0,-14.35938 0,-28.71875 0,-42.98828 0,-0.80079 0.26562,-3.56641 -0.17969,-0.89063 0.17969,-1.42578 0.71484,-2.85547 1.16015,-4.19141 -0.98046,2.94141 0.80469,-1.07031 1.07032,-1.42578 -1.60547,2.4961 0.89062,-0.89453 1.25,-1.25 3.03125,-3.03125 -2.23047,1.25 1.42578,-0.98047 3.65625,-2.23046 -2.4961,0.625 1.60547,-0.71484 0.89062,-0.26562 1.87109,-0.53516 2.85156,-0.71094 -1.60547,0.26563 -1.51563,0.26563 0.35547,0.17578 3.48047,-0.0898 6.42187,1.875 8.20312,4.72657 2.23047,3.48047 -0.26562,-1.69141 0.98047,2.23047 1.25,4.01171 0.17969,-1.78516 0.35938,2.49609 0,0.53516 0,0.98047 0,1.51562 0,14.53907 0,29.07422 0,43.60938 -0.17969,0.80469 -0.17969,1.42969 -0.17969,2.14062 0,8.38282 6.95312,15.33985 15.33594,15.33985 8.38281,0 15.33593,-6.95703 15.33593,-15.33985 0,-13.55468 0,-27.19921 0,-40.7539 0,-9.45313 -0.80468,-18.10547 -5.52734,-26.66406 -8.64844,-15.96485 -27.73047,-22.29688 -44.76172,-18.73047 -14.80078,3.12109 -27.28125,17.125 -29.51172,31.92968 -0.98047,6.50782 -0.71093,13.01954 -0.71093,19.61719 0,8.5625 0,17.125 0,25.77344 0,7.67187 -0.26954,15.33984 2.49609,22.65234 7.57812,19.6211 27.46094,29.51953 47.69922,25.23828 18.01172,-3.83593 29.6914,-21.40234 30.22656,-38.97265 0.26953,-8.38281 -7.22266,-15.33985 -15.33594,-15.33985 -8.46875,-0.17578 -14.98047,6.86719 -15.24609,15.25 z m 0,0"
     id="path26" />
  <path
     style="fill:#000000;fill-opacity:1;fill-rule:nonzero;stroke:none"
     d="m 194.26531,463.70284 c -0.17578,4.72657 0.80469,-2.67578 -0.17578,1.78516 -0.0898,0.44531 -1.78515,4.54688 -0.44531,1.69531 -0.17969,0.26563 -2.67578,4.01172 -0.71484,1.60547 -0.89063,1.07031 -1.96094,2.05078 -3.03125,3.03125 2.23047,-2.05078 -1.2461,0.53516 -1.60547,0.71485 2.67578,-1.42969 -1.2461,0.35546 -1.69141,0.44531 -4.1914,1.16015 2.67188,0 -1.78515,0.17578 -4.45704,0.17969 2.40625,0.71484 -1.8711,-0.17578 -0.44531,-0.0899 -4.54687,-1.78516 -1.69531,-0.44531 -0.26563,-0.17969 -4.01172,-2.67579 -1.60547,-0.71485 -1.07031,-0.89062 -2.05078,-1.96094 -3.03125,-3.03125 2.05078,2.22656 -0.53515,-1.25 -0.71484,-1.60547 1.42969,2.67578 -0.35547,-1.25 -0.44531,-1.69531 -1.15625,-4.19141 0,2.67578 -0.17579,-1.78516 0,-0.53515 0,-0.98046 0,-1.51562 0,-14.53516 0,-29.07031 0,-43.60938 0,-0.625 0,-1.24609 0,-1.87109 0,-0.53516 0,-1.07031 0.0898,-1.60547 -0.0898,3.03125 0.35547,-1.16015 0.53125,-1.69531 1.16015,-4.19141 -1.2461,2.14062 0.71484,-1.60547 2.05078,-3.74609 -1.78125,1.69531 0.98047,-1.42578 0.26953,-0.26953 3.65625,-3.03125 1.25,-1.25 0.80078,-0.53516 1.60547,-0.98047 2.49609,-1.42578 -1.51562,0.53515 -1.42578,0.53515 0.35547,-0.0898 0.44531,-0.17968 4.81641,-0.80078 1.69531,-0.53515 0.98047,-0.0898 2.05079,0 3.03125,0 -3.03125,-0.0898 1.16016,0.35547 1.69532,0.53515 4.1875,1.16016 -2.14063,-1.25 1.60156,0.71485 3.74609,2.05078 -1.69141,-1.78516 1.42969,0.98047 0.26562,0.26562 3.03125,3.65625 1.24609,1.25 0.17969,0.26562 2.23047,4.27734 1.07031,1.42578 0.26953,0.71094 1.25,6.0625 0.98047,3.12109 1.25,13.64453 0.0898,27.82422 0.0898,41.46875 -0.26954,2.32031 -0.26954,4.72656 -0.26954,7.13281 0,8.38282 6.95704,15.33985 15.33594,15.33985 8.38281,0 15.33594,-6.95703 15.33594,-15.33985 0,-13.55468 0,-27.19921 0,-40.7539 0,-9.00781 -0.89063,-17.125 -4.8125,-25.41797 -6.50781,-13.64453 -22.37891,-21.58203 -37.00391,-21.13672 -17.29687,0.53516 -30.40234,12.04297 -36.64453,27.46875 -2.67578,6.69141 -2.14062,14.53906 -2.14062,21.58203 0,14.89453 -1.51563,30.58985 0.71484,45.39453 2.94141,19.6211 21.57813,33.71094 41.01563,33.08594 21.7539,-0.625 38.07031,-18.99609 38.78515,-40.22266 0.26563,-8.38281 -7.22265,-15.33593 -15.33594,-15.33593 -8.47265,-0.0899 -15.07031,6.95312 -15.25,15.33593 z m 0,0"
     id="path28" />
  <path
     style="fill:#000000;fill-opacity:1;fill-rule:nonzero;stroke:none"
     d="m 136.7575,463.70284 c -0.17578,4.72657 0.80469,-2.67578 -0.17578,1.78516 -0.0898,0.44531 -1.78516,4.54688 -0.44922,1.69531 -0.17578,0.26563 -2.67187,4.01172 -0.71094,1.60547 -0.89062,1.07031 -1.96093,2.05078 -3.03125,3.03125 2.22657,-2.05078 -1.25,0.53516 -1.60547,0.71485 2.67579,-1.42969 -1.25,0.35546 -1.69531,0.44531 -4.1914,1.16015 2.67578,0 -1.78125,0.17578 -1.96094,-0.0859 -2.23047,-0.0859 -0.89453,0 -1.06641,-0.17578 -2.13672,-0.53516 -3.11719,-0.89063 2.31641,0.71485 -1.96484,-1.25 -2.05078,-1.33593 2.05078,1.33593 -1.60547,-1.69532 -1.69531,-1.78516 1.69531,1.78516 -1.16016,-2.14062 -1.16016,-2.14062 1.16016,2.14062 -0.53515,-2.40625 -0.53515,-2.4961 0.44531,2.05078 0,-0.71484 0,-1.42578 0,-1.07031 0,-2.05469 0,-3.12109 0,-14.35938 0,-28.71875 0,-42.98828 0,-0.80079 0.26953,-3.56641 -0.17578,-0.89063 0.17578,-1.42578 0.71093,-2.85547 1.15625,-4.19141 -0.98047,2.94141 0.80468,-1.07031 1.07031,-1.42578 -1.60547,2.4961 0.89062,-0.89453 1.25,-1.25 3.03125,-3.03125 -2.23047,1.25 1.42578,-0.98047 3.65625,-2.23046 -2.49609,0.625 1.60547,-0.71484 0.89062,-0.26562 1.87109,-0.53516 2.85156,-0.71094 -1.60547,0.26563 -1.51562,0.26563 0.35938,0.17578 3.47656,-0.0898 6.41796,1.875 8.19921,4.72657 2.23047,3.48047 -0.26562,-1.69141 0.98438,2.23047 1.24609,4.01171 0.17578,-1.78516 0.35547,2.49609 0,0.53516 0,0.98047 0,1.51562 0,14.53907 0,29.07422 0,43.60938 -0.17969,0.80469 -0.17969,1.42969 -0.17969,2.14062 0,8.38282 6.95703,15.33985 15.33594,15.33985 8.38281,0 15.33594,-6.95703 15.33594,-15.33985 0,-13.55468 0,-27.19921 0,-40.7539 0,-9.45313 -0.80078,-18.10547 -5.52735,-26.66406 -8.64843,-15.96485 -27.73047,-22.29688 -44.75781,-18.73047 -14.80078,3.12109 -27.285157,17.125 -29.515626,31.92968 -0.980468,6.50782 -0.710937,13.01954 -0.710937,19.61719 0,8.5625 0,17.125 0,25.77344 0,7.67187 -0.269531,15.33984 2.496093,22.65234 7.578126,19.6211 27.46094,29.51953 47.78906,25.23828 18.01172,-3.83593 29.78126,-21.40234 30.31641,-38.97265 0.26563,-8.38281 -7.22265,-15.33985 -15.33594,-15.33985 -8.64844,-0.17578 -15.15625,6.86719 -15.42578,15.25 z m 0,0"
     id="path30" />
  <path
     style="fill:#000000;fill-opacity:1;fill-rule:nonzero;stroke:none"
     d="m 313.38641,334.74972 c -54.7461,0 -109.48828,0 -164.23438,0 -25.5,0 -52.42578,-2.94531 -75.609373,9.89844 -23.539063,13.01953 -38.25,39.41797 -38.25,66.17187 0,5.88672 0,11.77344 0,17.65625 0,61.80469 0,123.60547 0,185.5 0,4.27735 0,8.5586 0,12.92969 0,8.38281 6.953125,15.33984 15.335937,15.33984 46.183594,0 92.281246,0 138.468756,0 58.93359,0 117.87109,0 176.89453,0 2.85156,0 5.70703,0 8.55859,0 8.38281,0 15.33594,-6.95703 15.33594,-15.33984 0,-54.22266 0,-108.35547 0,-162.57813 0,-17.39062 0,-34.78125 0,-52.17187 0,-42.26953 -34.32813,-76.87109 -76.5,-77.40625 -8.37891,-0.0898 -15.33594,7.04297 -15.33594,15.33984 0,8.46875 6.95703,15.25 15.33594,15.33594 1.51562,0 3.03125,0.0898 4.54687,0.17969 4.90625,0.26562 -2.85156,-0.53516 1.875,0.17969 2.94141,0.44531 5.79297,1.24609 8.5586,2.22656 0.17578,0.0898 4.63672,1.78515 1.78125,0.53515 1.33984,0.53516 2.67578,1.25 3.92578,1.875 1.24609,0.625 2.49609,1.42579 3.74219,2.14063 0.44531,0.26562 4.99218,3.56641 2.76562,1.78125 2.22656,1.78516 4.36719,3.83594 6.32813,5.88672 0.98046,1.07031 1.96484,2.14062 2.85546,3.21094 -1.96093,-2.32032 0.89063,1.33984 1.07032,1.51562 1.60547,2.41016 3.03125,4.90625 4.27734,7.58203 2.05078,4.19141 -0.98047,-2.67578 0.71484,1.69531 0.71485,1.8711 1.2461,3.74219 1.78125,5.61719 0.35938,1.42578 0.71485,2.85156 0.98438,4.3711 0.89062,4.72656 -0.17969,-2.94532 0.17578,1.87109 0.17969,1.51562 0.17969,3.12109 0.17969,4.63672 0,0.625 0,1.16015 0,1.78515 0,3.1211 0,6.33204 0,9.45313 0,29.69531 0,59.39453 0,89.08984 0,38.52735 0,77.14453 0,115.66797 5.08203,-5.08203 10.2539,-10.2539 15.33594,-15.33984 -46.1875,0 -92.28125,0 -138.46875,0 -58.9336,0 -117.8711,0 -176.894537,0 -2.855469,0 -5.707031,0 -8.5625,0 5.085937,5.08594 10.253906,10.25781 15.335937,15.33984 0,-54.22265 0,-108.35547 0,-162.57422 0,-13.11328 0,-26.30859 0,-39.41797 0,-6.6914 -0.265624,-13.46875 0.269532,-20.15625 -0.269532,3.21094 0.265625,-1.51562 0.355468,-1.875 0.269532,-1.42578 0.625,-2.85156 1.070313,-4.27734 0.355469,-1.42969 0.890625,-2.76562 1.335937,-4.19141 1.519532,-4.46093 -1.246093,2.58594 0.714844,-1.69531 1.160156,-2.58594 2.675782,-5.08594 4.191406,-7.58203 0.08984,-0.17578 2.851563,-4.01172 0.980469,-1.51562 1.160157,-1.51563 2.496094,-2.94141 3.746094,-4.28125 0.980469,-1.07032 2.050781,-2.05079 3.121094,-2.94141 0.175781,-0.17969 3.832031,-3.12109 1.335937,-1.25 2.316406,-1.69531 4.726563,-3.21094 7.222656,-4.63672 1.246094,-0.71484 2.585938,-1.33594 3.921876,-1.87109 -2.851563,1.33593 1.515624,-0.44922 1.695312,-0.53516 3.207031,-1.16016 6.597652,-1.875 9.984372,-2.41016 -3.21093,0.53516 1.69532,0 1.8711,-0.0898 0.80468,-0.0859 2.23047,-0.0859 3.03515,-0.0859 0.0859,0 0.26563,0 0.35547,0 0.89063,0 1.78125,0 2.67578,0 3.74219,0 7.48828,0 11.32032,0 60.27343,0 120.45703,0 180.73047,0 2.49609,0 4.99609,0 7.49218,0 8.37891,0 15.33594,-6.95703 15.33594,-15.33984 0.35547,-8.20703 -6.6875,-15.25 -15.07031,-15.25 z m 0,0"
     id="path32" />
</svg>
