<?xml version="1.0" encoding="UTF-8" standalone="no"?>
<!-- Created with Inkscape (http://www.inkscape.org/) -->

<svg
   width="1000"
   height="1000"
   version="1.1"
   id="svg8"
   xmlns="http://www.w3.org/2000/svg"
   xmlns:svg="http://www.w3.org/2000/svg"
   xmlns:rdf="http://www.w3.org/1999/02/22-rdf-syntax-ns#"
   xmlns:cc="http://creativecommons.org/ns#"
   xmlns:dc="http://purl.org/dc/elements/1.1/">
  <defs
     id="defs5498" />
  <metadata
     id="metadata5594">
    <rdf:RDF>
      <cc:Work
         rdf:about="">
        <dc:format>image/svg+xml</dc:format>
        <dc:type
           rdf:resource="http://purl.org/dc/dcmitype/StillImage" />
      </cc:Work>
    </rdf:RDF>
  </metadata>
  <path
     style="fill:#000000;fill-opacity:1;fill-rule:nonzero;stroke:none"
     d="m 413.60156,448.69922 c 2.25,-14.84766 7.19922,-27.89844 13.5,-39.14844 6.29688,-11.25 15.29688,-20.69922 26.54688,-27.90234 10.80078,-6.75 24.30078,-9.89844 40.95312,-10.34766 10.34766,0.44922 19.79688,2.25 28.34766,5.84766 9,4.05078 17.10156,9.45312 23.40234,16.20312 6.29688,6.75 11.25,14.84766 15.29688,23.84766 4.05078,9 5.85156,18.90234 6.30078,28.80078 H 648.5 c -0.89844,-21.14844 -4.94922,-40.5 -12.60156,-58.05078 -7.64844,-17.55078 -18,-32.84766 -31.5,-45.44922 -13.5,-12.60156 -29.69922,-22.5 -48.59766,-29.69922 -18.90234,-7.19922 -39.60156,-10.35156 -62.55078,-10.35156 -29.25,0 -54.89844,4.94922 -76.5,15.30078 -21.60156,10.35156 -39.60156,23.85156 -54,41.39844 -14.39844,17.55078 -25.19922,37.80078 -31.94922,61.20312 C 324.05078,443.75 320,468.05078 320,494.14844 v 12.15234 c 0,26.09766 3.60156,50.39844 10.35156,73.80078 6.75,23.39844 17.54688,43.64844 31.94922,60.75 14.39844,17.09766 32.39844,31.04688 54,40.94922 21.59766,9.89844 47.25,15.30078 76.5,15.30078 21.14844,0 40.94922,-3.60156 59.39844,-10.35156 18.44922,-6.75 34.65234,-16.19922 48.60156,-28.35156 C 614.75,646.25 626,632.30078 634.10156,616.10156 c 8.09766,-16.20312 13.04688,-33.30078 13.5,-51.75 h -80.55078 c -0.44922,9.44922 -2.69922,18 -6.75,26.09766 -4.05078,8.10156 -9.44922,14.85156 -16.19922,20.69922 -6.75,5.85156 -14.40234,10.35156 -23.40234,13.5 -8.55078,3.15234 -17.55078,4.05078 -27,4.5 C 477.5,628.69922 464,625.55078 453.64844,618.80078 c -11.25,-7.19922 -20.25,-16.65234 -26.54688,-27.90234 -6.30078,-11.25 -11.25,-24.75 -13.5,-39.59766 -2.25,-14.85156 -3.60156,-30.15234 -3.60156,-45 v -12.15234 c 0,-15.75 1.35156,-30.59766 3.60156,-45.44922 z M 500,50 C 251.60156,50 50,251.60156 50,500 50,748.39844 251.60156,950 500,950 748.39844,950 950,748.39844 950,500 950,251.60156 748.39844,50 500,50 Z m 0,810 C 301.55078,860 140,698.44922 140,500 140,301.55078 301.55078,140 500,140 c 198.44922,0 360,161.55078 360,360 0,198.44922 -161.55078,360 -360,360 z m 0,0"
     id="path6" />
</svg>
