<?xml version="1.0" encoding="UTF-8" standalone="no"?>
<!-- Created with Inkscape (http://www.inkscape.org/) -->

<svg
   width="1000"
   height="1000"
   version="1.1"
   id="svg8"
   xmlns="http://www.w3.org/2000/svg"
   xmlns:svg="http://www.w3.org/2000/svg"
   xmlns:rdf="http://www.w3.org/1999/02/22-rdf-syntax-ns#"
   xmlns:cc="http://creativecommons.org/ns#"
   xmlns:dc="http://purl.org/dc/elements/1.1/">
  <defs
     id="defs5498" />
  <metadata
     id="metadata5594">
    <rdf:RDF>
      <cc:Work
         rdf:about="">
        <dc:format>image/svg+xml</dc:format>
        <dc:type
           rdf:resource="http://purl.org/dc/dcmitype/StillImage" />
      </cc:Work>
    </rdf:RDF>
  </metadata>
  <path
     style="fill:#000000;fill-opacity:1;fill-rule:nonzero;stroke:none"
     d="m 500,408.73828 c -60.06641,0 -118.25781,9.39063 -172.69141,27.04297 v 116.42187 c 0,14.64454 -8.63672,27.78907 -21.02343,33.80079 -36.78907,18.40234 -70.20313,42.05859 -99.85938,69.47656 -6.75781,6.75781 -16.14453,10.51562 -26.28125,10.51562 -10.51172,0 -19.89844,-4.13281 -26.65234,-10.89062 L 60.386719,561.96484 C 53.628906,555.58203 49.5,546.19141 49.5,535.67969 49.5,525.16406 53.628906,515.77344 60.386719,509.01172 174.89063,400.47656 329.5625,333.62891 500,333.62891 c 170.4375,0 325.10937,66.84765 439.61328,175.38281 6.75781,6.76172 10.88672,16.15234 10.88672,26.66797 0,10.51172 -4.12891,19.90234 -10.88672,26.66406 l -93.10547,93.13672 c -6.7539,6.75781 -16.14062,10.89062 -26.65234,10.89062 -10.13672,0 -19.52344,-4.13281 -26.28125,-10.51562 -29.65625,-27.79297 -63.44531,-51.07422 -100.23438,-69.47656 -12.39062,-6.01172 -21.02343,-18.77735 -21.02343,-33.80079 V 436.15625 C 618.25781,418.12891 560.06641,408.73828 500,408.73828 Z m 0,0"
     id="path6" />
</svg>
