<?xml version="1.0" encoding="UTF-8" standalone="no"?>
<!-- Created with Inkscape (http://www.inkscape.org/) -->

<svg
   width="1000"
   height="1000"
   version="1.1"
   id="svg10"
   xmlns="http://www.w3.org/2000/svg"
   xmlns:svg="http://www.w3.org/2000/svg"
   xmlns:rdf="http://www.w3.org/1999/02/22-rdf-syntax-ns#"
   xmlns:cc="http://creativecommons.org/ns#"
   xmlns:dc="http://purl.org/dc/elements/1.1/">
  <defs
     id="defs5498" />
  <metadata
     id="metadata5594">
    <rdf:RDF>
      <cc:Work
         rdf:about="">
        <dc:format>image/svg+xml</dc:format>
        <dc:type
           rdf:resource="http://purl.org/dc/dcmitype/StillImage" />
      </cc:Work>
    </rdf:RDF>
  </metadata>
  <path
     style="fill:#000000;fill-opacity:1;fill-rule:nonzero;stroke:none"
     d="m 50.042969,50 v 134.99609 c 0,26.98047 17.988281,44.96875 44.96875,44.96875 H 274.97656 v 90.02735 c 0,26.98047 17.98828,44.96875 44.97266,44.96875 h 134.99609 l 0.0859,134.99609 h 90.02344 V 364.96094 h 134.99609 c 26.98438,0 44.96875,-17.98828 44.96875,-44.96875 v -90.02735 h 179.96875 c 26.98047,0 44.96875,-17.98828 44.96875,-44.96875 V 50 Z m 0,0"
     id="path6" />
  <path
     style="fill:#000000;fill-opacity:1;fill-rule:nonzero;stroke:none"
     d="m 693.5,634.95312 c -4.53906,0 -8.99609,0 -13.53516,0 V 589.98437 H 320.03516 v 314.96094 c 0,26.98047 17.98828,44.96875 44.96875,44.96875 L 634.99609,950 c 26.98047,0 44.96875,-17.98828 44.96875,-44.96875 v -26.98438 c 4.53907,0 8.9961,0 13.53516,0 67.49609,0 121.46094,-53.96093 121.46094,-121.46093 0,-67.4961 -53.96485,-121.63282 -121.46094,-121.63282 z m 0,198.03907 c -4.53906,0 -8.99609,0 -13.53516,0 l 0.0859,-152.98438 c 4.53906,0 8.99609,0 13.53516,0 40.51562,0 76.49218,35.97656 76.49218,76.49219 0,40.51562 -31.52343,76.49219 -76.57812,76.49219 z m 0,0"
     id="path8" />
</svg>
