<?xml version="1.0" encoding="UTF-8" standalone="no"?>
<!-- Created with Inkscape (http://www.inkscape.org/) -->

<svg
   width="1000"
   height="1000"
   version="1.1"
   id="svg8"
   xmlns="http://www.w3.org/2000/svg"
   xmlns:svg="http://www.w3.org/2000/svg"
   xmlns:rdf="http://www.w3.org/1999/02/22-rdf-syntax-ns#"
   xmlns:cc="http://creativecommons.org/ns#"
   xmlns:dc="http://purl.org/dc/elements/1.1/">
  <defs
     id="defs5498" />
  <metadata
     id="metadata5594">
    <rdf:RDF>
      <cc:Work
         rdf:about="">
        <dc:format>image/svg+xml</dc:format>
        <dc:type
           rdf:resource="http://purl.org/dc/dcmitype/StillImage" />
      </cc:Work>
    </rdf:RDF>
  </metadata>
  <path
     style="fill:#000000;fill-opacity:1;fill-rule:nonzero;stroke:none"
     d="M 775.625,389 C 750.125,259.625 636.5,162.5 500,162.5 c -55.5,0 -106.875,16.125 -150.375,43.875 l 54.75,54.75 c 28.5,-15 61.125,-23.625 95.625,-23.625 114,0 206.25,92.25 206.25,206.25 v 18.75 h 56.25 c 62.25,0 112.5,50.25 112.5,112.5 0,42.375 -24,79.125 -58.5,98.25 l 54.375,54.375 C 918.5,693.5 950,638 950,575 950,476 873.125,395.75 775.625,389 Z M 162.5,210.125 265.625,312.875 C 146,318.125 50,416.375 50,537.5 c 0,124.125 100.875,225 225,225 h 439.875 l 75,75 L 837.5,789.875 210.125,162.5 Z m 177.375,177.375 300,300 H 275 c -82.875,0 -150,-67.125 -150,-150 0,-82.875 67.125,-150 150,-150 z m 0,0"
     id="path6" />
</svg>
