<?xml version="1.0" encoding="UTF-8" standalone="no"?>
<!-- Created with Inkscape (http://www.inkscape.org/) -->

<svg
   width="1000"
   height="1000"
   version="1.1"
   id="svg7"
   xmlns="http://www.w3.org/2000/svg"
   xmlns:svg="http://www.w3.org/2000/svg"
   xmlns:rdf="http://www.w3.org/1999/02/22-rdf-syntax-ns#"
   xmlns:cc="http://creativecommons.org/ns#"
   xmlns:dc="http://purl.org/dc/elements/1.1/">
  <defs
     id="defs5498" />
  <metadata
     id="metadata5594">
    <rdf:RDF>
      <cc:Work
         rdf:about="">
        <dc:format>image/svg+xml</dc:format>
        <dc:type
           rdf:resource="http://purl.org/dc/dcmitype/StillImage" />
      </cc:Work>
    </rdf:RDF>
  </metadata>
  <g
     id="layer1">
    <g
       id="g476"
       transform="matrix(10,0,0,10,-8662.9956,-1151.9824)">
      <g
         id="g6"
         transform="matrix(1.8733273,0,0,1.8733273,871.29956,120.23827)">
        <path
           d="M 48,8.73 C 47.76,7.87 49.49,8.58 15.28,0.03 a 1,1 0 0 0 -1.19,0.65 l -2,6 A 1,1 0 0 0 12.74,8 l 1.38,0.36 -0.6,2.24 A 8.28,8.28 0 0 0 4,18.77 V 30 H 1 a 1,1 0 0 0 -1,1 v 16 a 1,1 0 0 0 1,1 h 4 a 5,5 0 0 0 5,-5 v -1 h 9 a 5,5 0 1 0 7,-7 C 26,23.28 25.9,24.78 26.25,24.87 a 3,3 0 0 0 3.67,-2.12 l 0.26,-1 c 9.72,2.61 8.5,3.07 9.47,-0.56 a 23.16,23.16 0 0 0 3.16,0.81 1,1 0 0 0 1,-0.75 l 1.56,-5.79 A 1,1 0 0 0 44.66,14.23 L 43.44,14 C 48.05,9.36 48.17,9.48 48,8.73 Z m -35,3.8 -0.92,3.4 a 1,1 0 0 0 0.71,1.23 l 5.8,1.55 -0.26,1 A 3,3 0 0 0 20,23.18 V 35 a 4.46,4.46 0 0 0 -1,1 H 10 V 35 A 5,5 0 0 0 6,30.1 V 18.77 a 6.27,6.27 0 0 1 7,-6.24 z M 8,43 A 3,3 0 0 1 5,46 H 2 V 32 h 3 a 3,3 0 0 1 3,3 z m 2,-3 v -2 h 8.1 a 5,5 0 0 0 0,2 z m 13,2 a 3,3 0 1 1 3,-3 3,3 0 0 1 -3,3 z m 1,-7.9 a 5,5 0 0 0 -2,0 V 23.76 l 2,0.54 z m 4,-11.84 a 1,1 0 0 1 -1.22,0.71 L 21,21.42 a 1,1 0 0 1 -0.71,-1.23 l 0.26,-1 7.73,2.07 z m 9.47,-0.57 -23.2,-6.21 1.79,-6.63 11.25,3 0.8,1.6 c 0.28,0.57 -0.08,0.32 10.69,3.26 z m 5.67,-5.69 -1,3.86 -1.93,-0.52 c 0.91,-3.39 0.53,-2.6 1.63,-3.7 z m -3.44,-1.12 -10,-2.73 -0.8,-1.6 C 28.62,9.98 29.34,10.32 14.3,6.31 L 15.67,2.19 45,9.54 Z"
           id="path2" />
        <path
           d="m 23,38 a 1,1 0 0 0 0,2 1,1 0 0 0 0,-2 z"
           id="path4" />
      </g>
    </g>
  </g>
</svg>
