<?xml version="1.0" encoding="UTF-8" standalone="no"?>
<!-- Created with Inkscape (http://www.inkscape.org/) -->

<svg
   width="1000"
   height="1000"
   version="1.1"
   id="svg10"
   xmlns="http://www.w3.org/2000/svg"
   xmlns:svg="http://www.w3.org/2000/svg"
   xmlns:rdf="http://www.w3.org/1999/02/22-rdf-syntax-ns#"
   xmlns:cc="http://creativecommons.org/ns#"
   xmlns:dc="http://purl.org/dc/elements/1.1/">
  <defs
     id="defs5498" />
  <metadata
     id="metadata5594">
    <rdf:RDF>
      <cc:Work
         rdf:about="">
        <dc:format>image/svg+xml</dc:format>
        <dc:type
           rdf:resource="http://purl.org/dc/dcmitype/StillImage" />
      </cc:Work>
    </rdf:RDF>
  </metadata>
  <path
     style="fill:#000000;fill-opacity:1;fill-rule:nonzero;stroke:none"
     d="m 646.33544,356.60604 -102.23047,45.76562 c -4.73828,2.08203 -6.82031,7.67188 -4.73828,12.31641 1.51562,3.50391 4.92968,5.49609 8.52734,5.49609 1.23438,0 2.55859,-0.28515 3.79297,-0.85547 l 102.23047,-45.76171 c 4.73828,-2.08594 6.82031,-7.67579 4.73828,-12.31641 -2.08594,-4.64453 -7.58203,-6.72656 -12.32031,-4.64453 z m 0,0"
     id="path6" />
  <path
     style="fill:#000000;fill-opacity:1;fill-rule:nonzero;stroke:none"
     d="M 940.71434,773.68026 H 795.27684 L 616.49169,594.98885 832.51512,498.15682 c 2.27344,-1.03906 4.07422,-2.83984 4.92579,-5.21094 0.85156,-2.27344 0.85156,-4.92578 -0.19141,-7.10547 L 715.1245,213.35213 c -2.08594,-4.73828 -7.67578,-6.82422 -12.32031,-4.64453 L 55.499504,498.72713 c -3.414062,1.51563 -5.589844,5.02344 -5.496094,8.8125 0.09375,3.78906 2.460938,7.10547 5.96875,8.42969 l 126.96093,48.32422 -81.67187,36.57031 c -2.273435,1.04297 -3.980466,2.84375 -4.925778,5.21094 -0.855469,2.27344 -0.761719,4.92578 0.1875,7.10547 l 61.113278,136.24609 c 1.03906,2.27344 2.83984,4.07422 5.21094,4.92578 1.03906,0.37891 2.17578,0.57031 3.3164,0.57031 1.32422,0 2.65235,-0.28515 3.78907,-0.85156 l 93.70312,-41.97265 11.46484,25.57812 c 1.51563,3.50781 4.92578,5.49609 8.52735,5.49609 1.23047,0 2.55859,-0.28515 3.78906,-0.85156 L 598.20653,602.94979 784.66747,789.41073 c 1.70312,1.80078 4.07422,2.74609 6.63281,2.74609 h 149.32031 c 5.11719,0 9.37891,-4.16797 9.37891,-9.37891 0,-4.92578 -4.16797,-9.09765 -9.28516,-9.09765 z m -769.8164,-40.35938 -53.4375,-119.1914 85.17968,-38.1836 7.29297,16.29688 46.14453,102.89453 z m 44.91015,-173.48047 c -0.47265,-1.13672 -1.23047,-2.17968 -2.08203,-3.03515 -0.85547,-0.85157 -1.89844,-1.51563 -3.1289,-1.89453 L 83.636223,506.59041 701.76512,229.4576 816.312,484.8951 288.38622,721.57088 Z m 0,0"
     id="path8" />
</svg>
