<?xml version="1.0" encoding="UTF-8" standalone="no"?>
<!-- Created with Inkscape (http://www.inkscape.org/) -->

<svg
   width="1000"
   height="1000"
   version="1.1"
   id="svg44"
   xmlns="http://www.w3.org/2000/svg"
   xmlns:svg="http://www.w3.org/2000/svg"
   xmlns:rdf="http://www.w3.org/1999/02/22-rdf-syntax-ns#"
   xmlns:cc="http://creativecommons.org/ns#"
   xmlns:dc="http://purl.org/dc/elements/1.1/">
  <defs
     id="defs5498" />
  <metadata
     id="metadata5594">
    <rdf:RDF>
      <cc:Work
         rdf:about="">
        <dc:format>image/svg+xml</dc:format>
        <dc:type
           rdf:resource="http://purl.org/dc/dcmitype/StillImage" />
      </cc:Work>
    </rdf:RDF>
  </metadata>
  <path
     style="fill:#000000;fill-opacity:1;fill-rule:nonzero;stroke:none"
     d="M 864.25781,267.85547 H 135.90625 c 0,-39.23438 31.71484,-70.46094 70.94531,-70.46094 H 793.3125 c 39.14844,0 70.94531,31.22656 70.94531,70.46094 z m 0,0"
     id="path6" />
  <path
     style="fill:#000000;fill-opacity:1;fill-rule:nonzero;stroke:none"
     d="m 864.25781,254.20312 c -21.66015,0 -43.32031,0 -64.98047,0 -52.88281,0 -105.76562,0 -158.64843,0 -65.88282,0 -131.76172,0 -197.64063,0 -60.73047,0 -121.37891,0 -182.10937,0 -37.35157,0 -74.625,0 -111.97657,0 -4.33203,0 -8.66406,0 -12.99609,0 4.66016,4.66016 9.39844,9.40235 14.05859,14.0625 0,-2.86328 0.16407,-5.64062 0.48829,-8.42187 -0.32422,2.94141 0.32812,-1.46875 0.32812,-1.71484 0.24609,-1.3086 0.57422,-2.61719 0.89844,-4.00782 0.65625,-2.61328 1.47265,-5.14843 2.37109,-7.68359 1.47266,-4.08594 -1.14453,2.37109 0.65235,-1.46875 0.73828,-1.55469 1.55468,-3.10547 2.37109,-4.66016 4.66016,-8.5 11.44531,-15.20312 18.80078,-19.94531 2.20703,-1.39062 4.49609,-2.61719 6.86719,-3.76172 0.24218,-0.0781 4.16797,-1.79687 1.46875,-0.65234 1.22656,-0.49219 2.45312,-0.89844 3.76172,-1.3086 2.53125,-0.8164 5.14843,-1.46875 7.68359,-2.04296 1.30469,-0.32813 2.61328,-0.48828 4.00391,-0.73438 -2.85938,0.48828 2.53515,-0.16406 3.02343,-0.16406 1.71875,-0.082 3.51563,-0.082 5.23047,-0.082 9.97266,0 19.94531,0 29.91797,0 49.61328,0 99.22656,0 148.75781,0 65.79688,0 131.51563,0 197.3125,0 53.94532,0 107.89063,0 161.83985,0 13.8125,0 27.54297,0 41.35547,0 2.04296,0 4.08984,0 6.21484,0 1.38672,0 2.77734,0.082 4.16797,0.082 1.38672,0.082 2.77734,0.24609 4.08594,0.32812 -3.02344,-0.32812 1.30859,0.24219 1.63281,0.32422 2.61719,0.49219 5.23437,1.14453 7.76562,1.96485 1.22657,0.40625 2.53516,0.8164 3.76172,1.30468 1.55078,0.65625 1.63281,0.65625 0.32422,0.082 0.82031,0.32813 1.55469,0.73829 2.37109,1.0625 2.3711,1.14454 4.57813,2.3711 6.86719,3.76172 1.14453,0.65235 2.20703,1.39063 3.26953,2.125 3.4336,2.3711 -2.04297,-1.71484 1.22657,0.89844 2.04296,1.63672 3.83984,3.43359 5.72265,5.23047 0.89844,0.90234 1.79688,1.88281 2.61328,2.86328 0.57422,0.65234 1.14453,1.30859 1.63672,1.96094 -0.90234,-1.14453 -0.82031,-1.0625 0.16016,0.24609 1.80078,2.45313 3.35156,5.06641 4.82422,7.6836 0.8164,1.55078 1.55468,3.10546 2.28906,4.73828 -1.14453,-2.53125 0.81641,2.28906 0.98047,2.78125 1.14453,3.43359 1.96094,6.94922 2.61719,10.46093 0.24218,1.71875 0.32421,1.80079 0.0781,0.32813 0.082,0.89844 0.16406,1.87891 0.24609,2.78125 0.16407,1.87891 0.16407,3.75781 0.2461,5.64062 0.082,7.6836 6.375,14.0586 14.05859,14.0586 7.60156,0 14.14063,-6.375 14.0586,-14.0586 -0.2461,-24.6875 -10.625,-48.71875 -29.67188,-64.66015 -15.60937,-12.99609 -35.22656,-20.1875 -55.57812,-20.1875 -8.41797,0 -16.83985,0 -25.25782,0 -47.73437,0 -95.46875,0 -143.20312,0 -65.63281,0 -131.1836,0 -196.82031,0 -55.41797,0 -110.83204,0 -166.33204,0 -15.12109,0 -30.32421,0 -45.44531,0 -20.43359,0 -40.21484,2.85937 -57.625,14.875 -23.05078,15.9414 -36.37109,42.01562 -36.61719,69.97265 -0.082,7.6836 6.45704,14.0586 14.0586,14.0586 21.66016,0 43.32031,0 64.98047,0 52.88281,0 105.76562,0 158.64843,0 65.87891,0 131.76172,0 197.64063,0 60.73047,0 121.37891,0 182.10937,0 37.35157,0 74.625,0 111.97657,0 4.33203,0 8.66406,0 12.99609,0 7.68359,0 14.05859,-6.375 14.05859,-14.0586 0.082,-7.6875 -6.29296,-14.0625 -13.97656,-14.0625 z m 0,0"
     id="path8" />
  <path
     style="fill:#000000;fill-opacity:1;fill-rule:nonzero;stroke:none"
     d="m 662.69531,169.84766 v 27.54687 h -48.30469 v -20.92578 c 0,-17.08594 -13.48828,-37.4375 -30.57031,-37.4375 H 415.11719 c -17.08203,0 -30.24219,20.35156 -30.24219,37.4375 v 20.92578 h -48.30859 v -27.54687 c 0,-39.15625 31.8789,-71.03516 71.03125,-71.03516 h 183.66015 c 39.23438,-0.07813 71.4375,31.87891 71.4375,71.03516 z m 0,0"
     id="path10" />
  <path
     style="fill:#000000;fill-opacity:1;fill-rule:nonzero;stroke:none"
     d="m 648.88281,169.84766 c 0,9.23828 0,18.47265 0,27.71093 4.66016,-4.66015 9.39844,-9.40234 14.0586,-14.05859 -16.10157,0 -32.1211,0 -48.22266,0 4.65625,4.65625 9.39844,9.39844 14.05859,14.05859 0,-17.08593 0.89844,-33.26953 -7.92968,-48.71875 -6.375,-11.11718 -17.82032,-21.2539 -30.89844,-23.13281 -3.42969,-0.49219 -6.53906,-0.65234 -9.88672,-0.65234 -25.58594,0 -51.08594,0 -76.67188,0 -27.21484,0 -54.51562,0 -81.73437,0 -2.125,0 -4.25,0 -6.375,0 -11.19922,0 -21.41406,5.39453 -29.01563,13.32422 -9.48437,9.89062 -14.55078,23.375 -15.28515,36.86328 -0.32813,6.29297 0,12.75 0,19.04687 0,1.0625 0,2.20703 0,3.26953 4.65625,-4.66015 9.39844,-9.40234 14.05859,-14.05859 -16.10156,0 -32.125,0 -48.22656,0 4.66016,4.65625 9.40234,9.39844 14.05859,14.05859 0,-5.88671 0,-11.85156 0,-17.73828 0,-2.9414 0,-5.88672 0,-8.82812 0,-0.81641 0,-1.63672 0,-2.53516 0,-1.39062 0.082,-2.77734 0.2461,-4.16797 0.082,-0.89844 0.16406,-1.8789 0.24609,-2.78125 -0.16406,1.47266 -0.16406,1.39063 0.082,-0.32422 0.40625,-2.69922 1.14453,-5.3125 1.87891,-7.92968 0.41015,-1.3086 0.8164,-2.53516 1.22656,-3.84375 0.082,-0.24219 1.71484,-4.25 0.57031,-1.55079 1.0625,-2.45312 2.28907,-4.74218 3.67969,-7.03125 0.65234,-1.14453 1.39063,-2.20703 2.125,-3.35156 0.24609,-0.40625 3.35156,-4.49609 1.71484,-2.44922 1.63672,-2.04687 3.4336,-3.92578 5.3125,-5.80468 0.90235,-0.89844 1.88282,-1.80078 2.86329,-2.69922 0.16406,-0.16406 3.51562,-2.85938 1.22656,-1.14453 2.04297,-1.63282 4.25,-3.02344 6.53906,-4.41407 1.14453,-0.65234 2.28906,-1.30468 3.42969,-1.8789 0.41015,-0.2461 5.15234,-2.45313 2.61719,-1.39063 4.98437,-2.04297 10.21875,-3.43359 15.53125,-4.33203 -2.94532,0.49219 1.46875,-0.082 1.71484,-0.16406 1.39062,-0.082 2.78125,-0.16016 4.16797,-0.16016 0.57422,0 1.14453,0 1.63672,0 2.125,0 4.16797,0 6.29297,0 10.70703,0 21.41406,0 32.12109,0 31.96094,0 63.91797,0 95.87891,0 12.33984,0 24.60156,0 36.94531,0 3.26953,0 6.61719,0 9.88672,0 0.65625,0 1.30859,0 2.04687,0 0.082,0 0.16016,0 0.24219,0 1.39062,0 2.78125,0.0781 4.25,0.16016 0.49219,0 5.96875,0.65625 3.1875,0.24609 8.09375,1.22657 14.22266,3.51563 19.53516,6.29297 1.55468,0.82031 3.10937,1.71875 4.57812,2.69922 0.73828,0.49219 1.47266,0.98047 2.20703,1.47266 0.16406,0.082 3.59766,2.69531 1.39063,0.98047 3.10547,2.45312 5.96484,5.23046 8.58203,8.17187 0.32812,0.32812 3.59765,4.41406 1.96094,2.28906 1.0625,1.39063 2.04296,2.86328 3.02343,4.33203 0.98047,1.47266 1.80078,3.02735 2.69922,4.57813 0.40625,0.8164 0.81641,1.55469 1.22656,2.37109 0.082,0.16406 1.79688,4.16797 0.73438,1.55469 1.55469,3.75781 2.61719,7.68359 3.43359,11.60547 0.16407,0.89844 0.32813,1.79687 0.48828,2.69922 -0.16015,-1.47266 -0.16015,-1.39063 0,0.32422 0.41016,2.37109 0.49219,4.66015 0.49219,7.03125 0.082,7.68359 6.375,14.05859 14.0586,14.05859 7.60156,0 14.14062,-6.375 14.05859,-14.05859 C 676.50781,122.76563 637.19531,85 590.35937,85 c -21.74218,0 -43.40234,0 -65.14453,0 -30.97656,0 -62.03515,0 -93.01562,0 -7.84766,0 -15.60938,0 -23.45703,0 -18.63672,0 -37.19141,5.558594 -51.98438,17.00391 -19.61719,15.12109 -31.0625,36.375 -33.67578,60.89453 -1.22656,11.36328 -0.32812,23.21484 -0.32812,34.66015 0,7.6836 6.375,14.0586 14.05859,14.0586 16.10156,0 32.125,0 48.22656,0 7.6836,0 14.0586,-6.375 14.0586,-14.0586 0,-6.13281 0,-12.34375 0,-18.47265 0,-0.82032 0,-1.71875 0,-2.53516 0,-0.89844 0.082,-1.71875 0.082,-2.61719 0.24218,-4.16797 -0.57422,2.69922 0.24218,-1.46875 0.2461,-1.30859 0.65625,-2.61718 1.0625,-3.92578 0.082,-0.16406 1.63672,-4.33203 0.49219,-1.71484 1.22656,-2.94531 2.94141,-5.64063 4.82422,-8.25781 -1.63672,2.20703 1.14063,-1.0625 1.30469,-1.22657 0.16406,-0.16406 3.43359,-2.9414 1.0625,-1.22656 0.98047,-0.73437 2.125,-1.38672 3.1875,-2.04297 3.43359,-1.96094 -2.44922,0.73828 1.22656,-0.48828 0.57422,-0.16406 4.33203,-0.65625 1.14453,-0.32812 0.41016,0 0.89844,0 1.3086,0 0.16406,0 0.41015,0 0.57031,0 2.61719,0 5.15234,0 7.76562,0 27.95313,0 55.99219,0 83.94532,0 23.78515,0 47.48828,0 71.27343,0 1.63282,0 3.26953,0 4.90235,0 0.90234,0 2.61718,0.16406 0.082,-0.16407 1.22656,0.16407 2.45312,0.57422 3.67969,0.98047 -2.78125,-0.89844 0.8164,0.49219 1.22656,0.73828 0.24609,0.16016 3.59375,2.53125 1.38672,0.81641 1.0664,0.81641 1.96484,1.79687 2.94531,2.77734 0.082,0.082 2.85937,3.4336 1.30859,1.3086 0.81641,1.14453 1.55078,2.28906 2.28516,3.43359 2.20703,3.67969 3.19141,6.21094 4.17187,11.93359 -0.49218,-2.77734 -0.082,1.14454 -0.082,1.96094 0,1.14453 0,2.3711 0,3.51563 0,5.64062 0,11.36328 0,17.0039 0,7.6836 6.375,14.0586 14.0586,14.0586 16.10156,0 32.12109,0 48.22265,0 7.6836,0 14.0586,-6.375 14.0586,-14.0586 0,-9.23828 0,-18.47265 0,-27.71093 0,-7.6836 -6.375,-14.0586 -14.0586,-14.0586 -7.51953,0 -13.89453,6.375 -13.89453,14.0586 z m 0,0"
     id="path12" />
  <path
     style="fill:#000000;fill-opacity:1;fill-rule:nonzero;stroke:none"
     d="m 322.50781,858.59766 h -2.28515 c -34.82032,-4.00391 -55.01172,-8.33594 -55.01172,-8.33594 -1.0625,-0.2461 -2.04297,-0.57422 -3.10547,-0.89844 v 51.49609 h 66.78125 l 20.43359,-39.23828 c -9.64453,-0.98047 -18.63672,-1.96093 -26.8125,-3.02343 z m 0,0"
     id="path14" />
  <path
     style="fill:#000000;fill-opacity:1;fill-rule:nonzero;stroke:none"
     d="m 322.50781,844.45703 c -12.66797,0 -25.74609,-3.10547 -38.57812,-5.14844 -6.04688,-0.98047 -12.17969,-1.80078 -18.14453,-3.43359 -8.82813,-2.45313 -17.82032,4.41406 -17.82032,13.57031 0,17.16406 0,34.32813 0,51.4961 0,7.68359 6.375,14.05859 14.0586,14.05859 22.3164,0 44.54687,0 66.86328,0 4.73828,0 9.88672,-2.61719 12.17578,-6.94922 6.78516,-13.07812 13.65234,-26.23828 20.43359,-39.31641 5.31641,-10.13671 -1.46875,-20.10937 -12.17578,-21.17187 -8.91015,-0.98047 -17.82031,-1.96094 -26.8125,-3.10547 -7.67969,-0.98047 -14.05859,7.11328 -14.05859,14.05859 0,8.42188 6.45703,13.16016 14.05859,14.0625 8.91016,1.14063 17.90235,2.125 26.89453,3.10547 -4.08984,-7.03125 -8.09375,-14.14062 -12.17968,-21.17187 -6.78516,13.07812 -13.65235,26.23828 -20.4336,39.3164 4.08594,-2.28906 8.08985,-4.66015 12.17578,-6.94531 -22.3125,0 -44.54297,0 -66.85937,0 4.66015,4.65625 9.40234,9.39844 14.05859,14.0586 0,-17.16797 0,-34.33204 0,-51.4961 -5.96484,4.49219 -11.85156,9.07031 -17.8164,13.56641 6.29296,1.71875 12.83203,2.61719 19.20703,3.59765 6.94922,1.14454 13.89453,2.125 20.84375,3.10547 7.92578,1.14453 16.10156,2.86328 24.10937,2.86328 7.6836,0 14.0586,-6.3789 14.0586,-14.0625 0.082,-7.60156 -6.375,-14.05859 -14.0586,-14.05859 z m 0,0"
     id="path16" />
  <path
     style="fill:#000000;fill-opacity:1;fill-rule:nonzero;stroke:none"
     d="m 727.1875,850.26172 c -11.19922,2.04297 -22.48047,3.92187 -33.59375,5.64062 -14.05859,2.125 -28.11719,4.00391 -41.93359,5.5586 l 20.59765,39.39843 h 66.94531 v -52.55859 c -7.11328,1.55078 -12.01562,1.96094 -12.01562,1.96094 z m 0,0"
     id="path18" />
  <path
     style="fill:#000000;fill-opacity:1;fill-rule:nonzero;stroke:none"
     d="m 723.26172,836.69141 c -23.78516,4.41406 -47.65235,8.01171 -71.6836,10.70703 -10.625,1.22656 -17.48828,11.03515 -12.17578,21.17187 6.86328,13.16016 13.73047,26.32031 20.59766,39.39844 2.28906,4.33203 7.35547,6.94922 12.17578,6.94922 22.23438,0 44.38281,0 66.61719,0 7.68359,0 14.05859,-6.375 14.05859,-14.0586 0,-17.49218 0,-35.0664 0,-52.55859 0,-9.64844 -8.91015,-15.36719 -17.82031,-13.57031 -2.69531,0.57031 -5.3125,1.0625 -8.00781,1.47265 3.59375,-0.57421 0.8164,-0.082 0,0 -7.6836,0.73438 -14.0586,5.88282 -14.0586,14.0586 0,7.10937 6.45703,14.79297 14.0586,14.05859 5.23047,-0.49219 10.3789,-1.39062 15.52734,-2.45312 -5.96484,-4.4961 -11.85156,-9.07032 -17.81641,-13.56641 0,17.49219 0,35.06641 0,52.55859 4.66016,-4.66015 9.39844,-9.40234 14.0586,-14.05859 -22.23438,0 -44.38281,0 -66.61719,0 4.08984,2.28906 8.09375,4.65625 12.17969,6.94531 -6.86328,-13.16015 -13.73047,-26.32031 -20.59766,-39.39843 -4.08594,7.03125 -8.08984,14.14062 -12.17969,21.17187 26.48438,-3.02344 52.88672,-6.86719 79.1211,-11.76953 7.51953,-1.39063 11.77344,-10.38281 9.80859,-17.33203 -2.04297,-7.76563 -9.72656,-11.11719 -17.24609,-9.72656 z m 0,0"
     id="path20" />
  <path
     style="fill:#000000;fill-opacity:1;fill-rule:nonzero;stroke:none"
     d="M 136.3125,317.14453 H 81.796875 c -9.5625,0 -17.902344,7.92969 -17.902344,17.49219 v 49.61719 c 0,9.5625 8.421875,17.41015 17.902344,17.41015 h 56.562495"
     id="path22" />
  <path
     style="fill:#000000;fill-opacity:1;fill-rule:nonzero;stroke:none"
     d="m 135.90625,303.41406 c -12.17969,0 -24.27734,0 -36.457031,0 -5.636719,0 -11.277344,0 -16.835938,0 -11.933593,0 -22.96875,6.04688 -28.851562,16.59375 C 50,326.70703 50,333.98437 50,341.33984 c 0,7.6836 0,15.44922 0,23.13282 0,6.21093 0,12.34375 0,18.55468 0,11.9336 5.722656,22.07032 15.777344,28.36328 10.625,6.6211 27.054687,4.25391 38.988286,4.25391 11.03125,0 22.0664,0 33.10156,0 7.68359,0 14.05859,-6.37891 14.05859,-14.0625 0,-7.68359 -6.375,-14.05859 -14.05859,-14.05859 -12.01563,0 -24.03125,0 -36.04688,0 -6.128904,0 -12.25781,0 -18.390622,0 -0.488282,0 -1.0625,0 -1.550782,0 -3.515625,0 1.308594,0.49218 -1.71875,-0.32813 2.535156,0.73828 -0.734375,-0.48828 -1.304687,-0.8164 2.695312,1.71875 -1.472657,-1.87891 0.488281,0.57421 -0.328125,-0.41015 -1.878906,-3.92578 -0.898438,-1.22656 -1.226562,-3.35156 -0.328124,2.20703 -0.328124,-1.47265 0,-12.75 0,-25.42188 0,-38.17188 0,-2.78125 0,-5.64062 0,-8.42187 0,-0.73438 0,-1.55079 0,-2.28516 0,-0.82031 0.492187,-3.43359 0,-0.82031 0.738281,-3.59375 -1.226563,1.80078 0.574218,-1.38672 -1.308594,2.28515 0.570313,-0.57422 1.0625,-1.0625 -1.964844,1.8789 0.898438,-0.41016 1.386719,-0.65625 -2.859375,1.47265 2.535156,-0.16406 -0.816406,0.24609 1.472656,-0.16406 3.105469,-0.082 4.578125,-0.082 16.999996,0 33.921876,0 50.921876,0 7.68359,0 14.05859,-6.375 14.05859,-14.05859 0.16407,-7.76563 -6.29297,-14.14063 -13.97656,-14.14063 z m 0,0"
     id="path24" />
  <path
     style="fill:#000000;fill-opacity:1;fill-rule:nonzero;stroke:none"
     d="m 862.94922,317.14453 h 55.41797 c 9.5625,0 17.08203,7.92969 17.08203,17.49219 v 49.61719 c 0,9.5625 -7.51953,17.41015 -17.08203,17.41015 h -54.35547"
     id="path26" />
  <path
     style="fill:#000000;fill-opacity:1;fill-rule:nonzero;stroke:none"
     d="m 863.44141,331.61328 c 12.09765,0 24.27343,0 36.37109,0 5.80469,0 11.60547,0 17.41016,0 0.41015,0 0.73437,0 1.14453,0 2.125,0 1.47265,0.16406 0.24609,-0.082 3.67578,0.73437 -1.80078,-1.22656 1.39063,0.49219 3.26953,1.71484 -1.47266,-1.63672 1.14062,0.89843 -1.87891,-1.88281 0.32813,0.65235 0.65625,1.3086 -1.55469,-2.86328 0.16406,2.44922 -0.16406,-0.90235 0.082,0.49219 0.082,1.0625 0.082,1.55469 0,13.24219 0,26.40235 0,39.64453 0,2.53516 0,5.14844 0,7.6836 0,0.57031 0,1.22656 0,1.79687 0,0.082 0,0.16406 0,0.2461 -0.082,1.71875 -0.082,1.80078 0.082,0.24609 -0.49219,1.55469 -0.49219,1.63281 0.082,0.24609 -0.24609,0.48828 -2.53515,3.4336 -0.65625,1.3086 -2.36719,2.77734 1.96485,-0.98438 -1.14453,0.98047 -3.10547,1.96093 2.20703,-0.49219 -1.38672,0.48828 0.81641,-0.2461 2.3711,-0.082 -0.24609,-0.082 -1.39063,0 -2.85938,0 -4.25,0 -16.67578,0 -33.42969,0 -50.10547,0 -7.68359,0 -14.05859,6.375 -14.05859,14.05859 0,7.68359 6.375,14.0625 14.05859,14.0625 11.93359,0 23.78516,0 35.71875,0 5.88672,0 11.6875,0 17.57422,0 11.85156,0 21.90625,-5.64063 28.28125,-15.53125 4.25,-6.62109 4.33203,-14.30469 4.33203,-21.82422 0,-7.60156 0,-15.20703 0,-22.89062 0,-6.375 0,-12.75 0,-19.20704 0,-11.85156 -5.06641,-21.00781 -14.55078,-27.95703 -10.13281,-7.4375 -27.46094,-4.90234 -39.39453,-4.90234 -10.78907,0 -21.66016,0 -32.44922,0 -7.6836,0 -14.0586,6.375 -14.0586,14.05859 -0.24609,7.84766 6.21094,14.30469 13.89454,14.30469 z m 0,0"
     id="path28" />
  <path
     style="fill:#000000;fill-opacity:1;fill-rule:nonzero;stroke:none"
     d="m 482.95703,664.38281 c 0,-7.19531 0,-14.38672 0,-21.5 0,-7.68359 -6.375,-14.05859 -14.05859,-14.05859 -7.6836,0 -14.0586,6.375 -14.0586,14.05859 0,7.19531 0,14.38672 0,21.5 0,7.6836 6.375,14.0586 14.0586,14.0586 7.68359,0.082 14.05859,-6.375 14.05859,-14.0586 z m 0,0"
     id="path30" />
  <path
     style="fill:#000000;fill-opacity:1;fill-rule:nonzero;stroke:none"
     d="m 544.50391,664.38281 c 0,-7.19531 0,-14.38672 0,-21.5 0,-7.68359 -6.375,-14.05859 -14.0586,-14.05859 -7.68359,0 -14.05859,6.375 -14.05859,14.05859 0,7.19531 0,14.38672 0,21.5 0,7.6836 6.375,14.0586 14.05859,14.0586 7.60156,0.082 14.0586,-6.375 14.0586,-14.0586 z m 0,0"
     id="path32" />
  <path
     style="fill:#000000;fill-opacity:1;fill-rule:nonzero;stroke:none"
     d="M 863.44141,317.47266 H 135.98828 c 0,0 0.48828,25.33984 2.04297,63.59375 4.41406,109.77734 17.49219,332.76953 52.55469,416.39062 0,0 10.54687,35.14844 73.15625,51.90625 1.0625,0.24219 2.125,0.57031 3.26953,0.81641 0,0 20.35156,3.92187 55.08984,8.2539 h 0.082 c 0.16407,0 0.32422,0.082 0.48828,0.082 8.17579,0.98047 17.16407,2.04297 26.89063,3.10547 71.68359,7.44141 182.51953,13.57032 302.26172,-0.0781 13.89453,-1.55469 27.875,-3.4336 41.93359,-5.5586 11.11328,-1.71875 22.3125,-3.59765 33.51172,-5.64062 0,0 4.57422,-0.41016 11.76953,-1.88281 0.73438,-0.16016 1.46875,-0.32422 2.20703,-0.48828 23.6211,-5.23047 69.80078,-21.17188 80.50782,-66.70313 0,0 39.5625,-142.96484 42.42187,-379.60547 0.082,-6.78515 0.16406,-13.5664 0.16406,-20.51562 -0.16406,-20.59766 -0.41015,-42.09766 -0.89843,-63.67578 z m -275.28907,420.3125 c 0,43.64843 -35.39062,79.125 -79.12109,79.125 h -18.14453 c -43.73047,0 -79.1211,-35.39454 -79.1211,-79.125 v -97.10938 c 0,-43.73047 35.39063,-79.125 79.1211,-79.125 h 18.14453 c 43.73047,0 79.12109,35.39453 79.12109,79.125 z m 0,0"
     id="path34" />
  <path
     style="fill:#000000;fill-opacity:1;fill-rule:nonzero;stroke:none"
     d="m 863.44141,303.41406 c -21.66016,0 -43.32032,0 -65.0625,0 -52.88282,0 -105.76563,0 -158.65235,0 -65.8789,0 -131.75781,0 -197.63672,0 -60.64843,0 -121.29687,0 -181.86328,0 -37.1914,0 -74.29687,0 -111.48828,0 -4.25,0 -8.5,0 -12.66797,0 -7.60156,0 -14.22265,6.375 -14.05859,14.0586 1.55078,81.33203 6.12891,162.74609 13.23828,243.75 4.08984,47.0039 9.23828,93.92187 16.92188,140.43359 3.1875,19.53516 6.94531,38.98828 11.76953,58.19922 2.04297,8.17578 4.25,16.18359 6.86718,24.19531 1.87891,5.88672 4.41016,11.52344 6.375,17.32813 3.10547,9.40234 9.23438,17.65625 15.77344,24.85156 14.79297,16.01953 35.14844,26.23828 55.5,33.26562 15.77344,5.39844 32.20313,7.44141 48.63281,9.73047 25.82813,3.67578 51.73828,6.6211 77.73047,8.90625 53.6211,4.66016 107.48438,6.46094 161.34766,5.23438 31.96094,-0.73828 63.91797,-2.61719 95.79687,-5.64063 16.75391,-1.63672 33.51172,-3.67969 50.1836,-5.96875 7.76562,-1.0625 15.44922,-2.20703 23.13281,-3.43359 3.92187,-0.65235 7.84766,-1.30469 11.85156,-1.96094 1.96094,-0.32812 3.92188,-0.65234 5.88281,-1.0625 0.82032,-0.16406 8.82813,-1.39062 4.25391,-0.98047 39.06641,-3.76172 81.81641,-23.13281 100.53516,-59.26172 6.94531,-13.48828 9.96875,-29.42578 13.32031,-44.22265 16.51172,-74.46485 25.75,-150.64844 31.46875,-226.58594 5.39453,-72.09766 6.94922,-144.4375 5.07031,-216.69531 -0.32812,-7.76563 -6.45703,-14.14063 -14.22265,-14.14063 -7.51954,0 -14.30469,6.375 -14.0586,14.0586 1.55078,62.12109 0.65235,124.32812 -3.02344,186.28906 -1.55468,26.89062 -3.76171,53.70312 -6.3789,80.51172 -1.22266,11.85547 -2.53125,23.70703 -3.92188,35.55859 -0.65234,5.3125 -1.30859,10.625 -1.96093,15.94141 -0.32813,2.53125 -0.65625,5.14843 -0.98047,7.68359 0.40625,-3.26953 -0.082,0.89844 -0.16407,1.22656 -0.24609,1.63282 -0.49218,3.26953 -0.65234,4.90235 -5.96875,42.66797 -12.58984,86.07422 -24.11328,127.67968 -5.14844,18.71875 -15.61328,31.79688 -31.38672,41.60547 -3.84375,2.3711 -7.84766,4.4961 -12.01562,6.45703 -0.98047,0.49219 -1.96094,0.90235 -3.02344,1.3086 3.26953,-1.46875 0,0 -0.57422,0.24609 -2.20703,0.89844 -4.49609,1.71485 -6.70313,2.53516 -7.92578,2.77734 -16.18359,4.73828 -24.4375,6.21094 -0.57031,0.082 -5.3125,0.8164 -1.0625,0.24609 -0.57031,0.082 -1.0625,0.16406 -1.63671,0.16406 -3.92188,0.40625 -7.84375,1.22656 -11.76954,1.96094 -8.5,1.55469 -17.08203,2.94141 -25.58203,4.25 -15.36718,2.37109 -30.73437,4.33203 -46.09765,5.96875 -32.04297,3.51172 -64.32813,5.55859 -96.53125,6.62109 -54.76563,1.71485 -109.69141,0.16016 -164.29297,-4.25 -23.86328,-1.96484 -48.95703,-4.57812 -71.76172,-7.60547 -16.26563,-2.20703 -32.94141,-4.0039 -48.71484,-8.66406 -3.1875,-0.98047 -6.375,-2.04297 -9.5625,-3.10547 -1.47266,-0.48828 -2.94532,-1.0625 -4.41407,-1.63281 0.16407,0.082 -4.49609,-1.88281 -2.20703,-0.90234 -5.3125,-2.28907 -10.54687,-5.06641 -15.53125,-8.00782 -2.04297,-1.22656 -4.0039,-2.53515 -5.88281,-3.84375 -0.90234,-0.65234 -1.80078,-1.30859 -2.69922,-1.96093 -2.94141,-2.125 2.28906,1.79687 -0.49219,-0.41016 -3.10547,-2.53125 -6.04687,-5.23047 -8.74218,-8.17187 -1.0625,-1.14454 -2.12891,-2.28907 -3.10938,-3.51563 -2.28516,-2.78125 1.80078,2.53516 -0.73437,-0.98047 -1.39063,-1.8789 -2.61719,-3.92578 -3.75782,-5.96875 -0.82031,-1.46875 -3.02734,-6.78515 -0.49218,-0.65234 -0.16407,-0.49219 -0.41016,-0.98047 -0.57032,-1.47266 -2.1289,-7.02734 -5.23437,-13.8125 -7.4414,-20.84375 -2.53125,-8.17187 -4.73828,-16.42969 -6.78125,-24.76562 -4.74219,-19.53907 -8.33985,-39.23828 -11.52735,-59.10157 -7.10937,-44.05859 -11.85156,-89.5039 -15.85546,-136.42578 -3.76172,-44.22265 -6.53907,-88.52343 -8.7461,-132.91015 -1.63281,-34.08594 -3.10547,-68.25391 -3.75781,-102.33985 -4.66016,4.66016 -9.40235,9.39844 -14.0586,14.0586 21.65626,0 43.31641,0 65.0586,0 52.88672,0 105.76953,0 158.65234,0 65.87891,0 131.75781,0 197.63672,0 60.64844,0 121.29688,0 181.86328,0 37.19141,0 74.30078,0 111.48828,0 4.25,0 8.5,0 12.67188,0 7.68359,0 14.05859,-6.375 14.05859,-14.0586 C 877.5,309.78906 871.125,303.41406 863.44141,303.41406 Z m 0,0"
     id="path36" />
  <path
     style="fill:#000000;fill-opacity:1;fill-rule:nonzero;stroke:none"
     d="m 574.01172,737.78516 c 0,2.77734 -0.16406,5.55859 -0.40625,8.33593 -0.41016,4.4961 0.48828,-2.69531 -0.2461,1.71875 -0.24609,1.3086 -0.49218,2.69532 -0.82031,4.00391 -0.57031,2.61719 -1.38672,5.23047 -2.20312,7.76562 -0.41016,1.22657 -0.90235,2.53516 -1.39063,3.76172 0.98047,-2.53515 -1.0625,2.20703 -1.30859,2.69532 -1.14453,2.37109 -2.45313,4.66015 -3.83985,6.86718 -0.65625,1.14453 -1.47265,2.20703 -2.20703,3.26953 -0.16406,0.16407 -2.69922,3.59766 -0.98047,1.3086 -3.51562,4.41406 -7.60156,8.41797 -12.01562,12.01562 2.20703,-1.79687 -1.14453,0.81641 -1.30859,0.98047 -1.0625,0.73438 -2.20704,1.47266 -3.26954,2.20703 -2.20703,1.39063 -4.49609,2.69922 -6.86718,3.84375 -1.14453,0.57032 -2.3711,1.14453 -3.59375,1.71485 2.69531,-1.22657 -1.39063,0.49218 -1.55469,0.57422 -2.94141,1.0625 -5.96875,1.8789 -8.99219,2.61328 -1.30859,0.32812 -2.69531,0.57422 -4.0039,0.8164 -4.41407,0.82032 2.77734,-0.24218 -1.71485,0.2461 -2.78125,0.32812 -5.55859,0.41015 -8.33984,0.41015 -2.69531,0 -5.39453,0 -8.08985,0 -3.1875,0 -6.29296,0 -9.48437,0 -1.63281,0 -3.1875,0 -4.82031,-0.082 -1.39063,-0.082 -2.78125,-0.16406 -4.16797,-0.32812 -1.71875,-0.16407 -1.80078,-0.2461 -0.32813,0 -0.89843,-0.16407 -1.79687,-0.32813 -2.69531,-0.48828 -2.61719,-0.49219 -5.23437,-1.14454 -7.84766,-1.96485 -1.30859,-0.40625 -2.53515,-0.8164 -3.84375,-1.22265 -0.16015,-0.082 -4.25,-1.71875 -1.55078,-0.57422 -5.23047,-2.20703 -10.13672,-5.14844 -14.79687,-8.5 -3.51172,-2.45313 2.04687,1.71484 -1.30469,-0.98047 -0.98047,-0.82031 -1.96484,-1.71875 -2.94531,-2.61719 -1.96094,-1.71484 -3.75781,-3.67969 -5.47656,-5.55859 -0.89844,-0.98047 -1.71485,-1.96094 -2.53125,-3.02344 1.79687,2.20703 -0.81641,-1.14453 -0.98047,-1.30859 -1.80078,-2.45313 -3.35157,-5.14844 -4.82422,-7.84766 -0.65235,-1.14453 -1.22656,-2.37109 -1.79688,-3.51563 -0.082,-0.16406 -1.80078,-4.16796 -0.73828,-1.46875 -0.98047,-2.45312 -1.79687,-4.98828 -2.61328,-7.60156 -0.73437,-2.61719 -1.30859,-5.23437 -1.79687,-7.92969 -0.82032,-4.41406 0.24218,2.77735 -0.2461,-1.71875 -0.24609,-1.8789 -0.32812,-3.67578 -0.41015,-5.55859 -1.0625,-25.17578 -0.082,-50.67969 -0.082,-75.9375 0,-9.39844 -0.32421,-18.80078 0.082,-28.19922 0.082,-1.39062 0.16406,-2.77734 0.32812,-4.16797 0.40625,-4.49609 -0.49219,2.69532 0.24609,-1.71875 0.40625,-2.69531 1.0625,-5.3125 1.79688,-7.92578 0.73437,-2.61719 1.63281,-5.07031 2.61719,-7.60547 -1.0625,2.69922 0.57031,-1.30468 0.73437,-1.46875 0.73438,-1.55468 1.55078,-3.10547 2.45313,-4.66015 1.30468,-2.28907 2.69531,-4.4961 4.16797,-6.6211 0.16406,-0.16406 2.69531,-3.59765 0.98046,-1.30859 0.81641,-1.0625 1.63282,-2.04297 2.53516,-3.02344 1.71484,-1.96094 3.59375,-3.76172 5.47266,-5.55859 0.98437,-0.89844 1.96484,-1.71485 2.94531,-2.61719 1.30859,-1.0625 1.38672,-1.14453 0.24609,-0.24219 0.73438,-0.49218 1.38672,-1.0625 2.125,-1.55468 4.25,-3.02344 8.90625,-5.5586 13.73047,-7.76563 -2.69922,1.22656 1.39063,-0.48828 1.55078,-0.57031 1.22657,-0.49219 2.53516,-0.90235 3.84375,-1.22656 3.02344,-0.89844 6.12891,-1.63672 9.15235,-2.20704 4.41406,-0.82031 -2.77735,0.24219 1.71875,-0.24609 1.39062,-0.16406 2.77734,-0.24609 4.16797,-0.32812 1.55468,-0.082 3.1875,-0.082 4.74218,-0.082 3.51172,0 6.94532,0 10.46094,0 2.37109,0 4.74219,0 7.10938,0 2.78125,0 5.55859,0.16407 8.33984,0.41016 4.49609,0.41016 -2.69922,-0.49219 1.71484,0.24609 1.79688,0.32422 3.51563,0.73438 5.3125,1.14454 2.61719,0.65234 5.14844,1.46875 7.6836,2.28906 0.16406,0.082 4.25,1.71484 1.55468,0.57031 1.22657,0.49219 2.36719,1.0625 3.59375,1.71875 2.3711,1.14063 4.66016,2.44922 6.86719,3.83984 1.14453,0.65235 2.20703,1.47266 3.26953,2.20704 0.73438,0.49218 1.39063,0.98046 2.125,1.55468 -1.14453,-0.90234 -1.0625,-0.82031 0.2461,0.24219 4.0039,3.35156 7.68359,7.11328 10.95312,11.19922 -1.80078,-2.20703 0.81641,1.14453 0.98047,1.30859 0.73438,1.0625 1.46875,2.20703 2.20703,3.26953 1.63281,2.61719 3.10547,5.3125 4.41406,8.09375 0.082,0.16407 1.79688,4.16797 0.73438,1.46875 0.49219,1.22657 0.98047,2.45313 1.39062,3.76172 0.89844,2.53516 1.55079,5.14844 2.20704,7.76563 0.32421,1.30859 0.57031,2.61719 0.8164,4.0039 0.81641,4.41407 -0.24609,-2.77734 0.2461,1.71875 0.32421,2.77735 0.40625,5.5586 0.40625,8.33594 0,9.15625 0,18.39063 0,27.54688 0.16406,23.13281 0.16406,46.26562 0.16406,69.48047 0,7.68359 6.375,14.05859 14.05859,14.05859 7.6836,0 14.0586,-6.375 14.0586,-14.05859 0,-24.92969 0,-49.86329 0,-74.875 0,-9.72657 0.49218,-19.53516 -0.32813,-29.26172 -1.96094,-24.52344 -13.48437,-47.82032 -32.28516,-63.75782 -17.73437,-15.04296 -39.64062,-22.48046 -62.77343,-22.48046 -6.70313,0 -13.48438,-0.16407 -20.1875,0.082 -12.9961,0.57031 -25.25782,4.0039 -37.02735,9.5625 -22.14843,10.38281 -38.49609,30.41015 -46.83593,53.05078 -4.82032,13.07812 -5.14844,26.89453 -5.14844,40.625 0,27.875 0,55.82812 0,83.70312 0,18.22657 4.0039,35.72266 13.40625,51.41407 12.5039,20.92578 33.51172,36.21093 56.96875,42.17968 12.26172,3.1875 24.84765,2.77735 37.35547,2.77735 15.77343,0 30.48437,-2.94141 44.78906,-9.64453 31.79687,-14.875 51.66016,-48.96094 51.98437,-83.53907 0.082,-7.68359 -6.45703,-14.05859 -14.05859,-14.05859 -7.60156,0.082 -13.89453,6.53906 -13.97656,14.22266 z m 0,0"
     id="path38" />
  <path
     style="fill:#000000;fill-opacity:1;fill-rule:nonzero;stroke:none"
     d="m 519.90234,743.42578 c 0,5.23047 -4.25,9.5625 -9.48047,9.5625 h -21.90625 c -2.61328,0 -4.98437,-1.30859 -6.70312,-3.02344 -1.71484,-1.71875 -2.77734,-4.0039 -2.77734,-6.70312 0,-5.23047 4.25,-9.48047 9.48046,-9.48047 h 21.90625 c 5.23047,0.082 9.48047,4.33203 9.48047,9.64453 z m 0,0"
     id="path40" />
  <path
     style="fill:#000000;fill-opacity:1;fill-rule:nonzero;stroke:none"
     d="m 505.84375,743.01562 c 0.16406,-2.125 1.30859,-3.67578 3.35156,-4.41406 1.79688,-0.65234 1.0625,-0.16406 -0.16406,-0.16406 -3.02344,0 -6.04688,0 -9.07031,0 -3.19141,0 -6.37891,0 -9.56641,0 -0.65234,0 -1.22656,0 -1.87891,0 3.02344,0 4.98438,2.78125 4.33204,5.80469 -0.41016,2.04297 -2.45313,3.1875 -4.41407,3.35156 0.65625,-0.082 1.3086,0 1.87891,0 3.1875,0 6.37891,0 9.56641,0 3.02343,0 6.04687,0 9.07031,0 0.49219,0 0.89844,0 1.39062,0 -2.53515,0 -4.33203,-2.04297 -4.49609,-4.57813 0.49219,7.6836 6.05078,14.0586 14.05859,14.0586 7.27344,0 14.63282,-6.45703 14.0586,-14.0586 -0.81641,-12.5039 -9.39844,-22.64062 -22.3125,-23.53906 -3.92578,-0.24609 -7.84766,-0.082 -11.76953,-0.082 -3.84375,0 -7.6836,0 -11.44532,0 -12.5039,0 -22.72265,10.05469 -23.53906,22.3125 -0.98047,14.0625 10.37891,23.87109 23.53906,24.93359 3.76172,0.32422 7.6836,0 11.44532,0 3.92187,0 7.84375,0.16407 11.76953,-0.082 12.91406,-0.89843 21.49609,-11.03515 22.3125,-23.54297 0.49218,-7.68359 -6.78516,-14.05859 -14.0586,-14.05859 -8.08984,0 -13.5664,6.375 -14.05859,14.05859 z m 0,0"
     id="path42" />
</svg>
