<?xml version="1.0" encoding="UTF-8" standalone="no"?>
<!-- Created with Inkscape (http://www.inkscape.org/) -->

<svg
   width="1000"
   height="1000"
   version="1.1"
   id="svg8"
   xmlns="http://www.w3.org/2000/svg"
   xmlns:svg="http://www.w3.org/2000/svg"
   xmlns:rdf="http://www.w3.org/1999/02/22-rdf-syntax-ns#"
   xmlns:cc="http://creativecommons.org/ns#"
   xmlns:dc="http://purl.org/dc/elements/1.1/">
  <defs
     id="defs5498" />
  <metadata
     id="metadata5594">
    <rdf:RDF>
      <cc:Work
         rdf:about="">
        <dc:format>image/svg+xml</dc:format>
        <dc:type
           rdf:resource="http://purl.org/dc/dcmitype/StillImage" />
      </cc:Work>
    </rdf:RDF>
  </metadata>
  <path
     style="fill:#000000;fill-opacity:1;fill-rule:nonzero;stroke:none"
     d="m 915.35156,465.35897 c 0,-16.96875 -12.30078,-31.39062 -28.90234,-34.11718 L 692.47656,398.88632 596.89844,271.39413 c -6.58985,-8.70312 -16.78125,-13.89062 -27.67188,-13.89062 0,0 -331.71875,0 -345.60156,0 -12.64844,-0.17579 -25.47656,7.12109 -31.53516,19.2539 l -69.22656,138.39453 c -2.46094,4.83594 -3.60156,10.19922 -3.60156,15.5625 v 34.64453 c 0,-19.08203 -15.55078,-34.64453 -34.613282,-34.64453 -19.0625,0 -34.613282,15.5625 -34.613282,34.64453 v 103.92579 c 0,19.08203 15.550782,34.64453 34.613282,34.64453 19.062502,0 34.613282,-15.5625 34.613282,-34.64453 v 34.64453 c -19.0625,0 -34.613282,15.5625 -34.613282,34.64062 0,19.08203 15.550782,34.64453 34.613282,34.64453 h 109.89844 c 14.40625,40.35938 52.62109,69.28516 97.77734,69.28516 45.15234,0 83.45703,-28.92578 97.77734,-69.28516 h 219.79688 c 14.40625,40.35938 52.62109,69.28516 97.77734,69.28516 45.15235,0 83.45703,-28.92578 97.77344,-69.28516 h 40.67578 c 19.0625,0 34.61328,-15.5625 34.61328,-34.64453 19.0625,0 34.61328,-15.5625 34.61328,-34.64062 V 499.9996 c 0,-19.07813 -15.55078,-34.64063 -34.61328,-34.64063 z M 465.38672,326.78866 h 86.53125 l 77.92187,103.92578 H 465.38672 Z m -220.85156,0 h 151.6289 V 430.71444 H 192.61719 Z m 106.82421,336.22656 c -6.23828,6.41797 -14.93359,10.19922 -24.42187,10.19922 -19.0625,0 -34.61328,-15.5625 -34.61328,-34.64453 0,-19.07812 15.55078,-34.64062 34.61328,-34.64062 19.0625,0 34.61328,15.5625 34.61328,34.64062 0,9.4961 -3.77734,18.20313 -10.19141,24.44531 z m 390.92969,10.19922 c -19.0625,0 -34.61328,-15.5625 -34.61328,-34.64453 0,-19.07812 15.55078,-34.64062 34.61328,-34.64062 19.0625,0 34.61328,15.5625 34.61328,34.64062 0,19.08203 -15.55078,34.64453 -34.61328,34.64453 z m 0,0"
     id="path6" />
</svg>
