<?xml version="1.0" encoding="UTF-8" standalone="no"?>
<!-- Created with Inkscape (http://www.inkscape.org/) -->

<svg
   width="1000"
   height="1000"
   version="1.1"
   id="svg8"
   xmlns="http://www.w3.org/2000/svg"
   xmlns:svg="http://www.w3.org/2000/svg"
   xmlns:rdf="http://www.w3.org/1999/02/22-rdf-syntax-ns#"
   xmlns:cc="http://creativecommons.org/ns#"
   xmlns:dc="http://purl.org/dc/elements/1.1/">
  <defs
     id="defs5498" />
  <metadata
     id="metadata5594">
    <rdf:RDF>
      <cc:Work
         rdf:about="">
        <dc:format>image/svg+xml</dc:format>
        <dc:type
           rdf:resource="http://purl.org/dc/dcmitype/StillImage" />
      </cc:Work>
    </rdf:RDF>
  </metadata>
  <path
     style="fill:#000000;fill-opacity:1;fill-rule:nonzero;stroke:none"
     d="m 365,95 -82.35156,90 H 140 c -49.5,0 -90,40.5 -90,90 v 540 c 0,49.5 40.5,90 90,90 h 720 c 49.5,0 90,-40.5 90,-90 V 275 c 0,-49.5 -40.5,-90 -90,-90 H 717.35156 L 635,95 Z M 500,770 C 375.80078,770 275,669.19922 275,545 275,420.80078 375.80078,320 500,320 624.19922,320 725,420.80078 725,545 725,669.19922 624.19922,770 500,770 Z M 500,725 556.25,601.25 680,545 556.25,488.75 500,365 443.75,488.75 320,545 443.75,601.25 Z m 0,0"
     id="path6" />
</svg>
