<?xml version="1.0" encoding="UTF-8" standalone="no"?>
<!-- Created with Inkscape (http://www.inkscape.org/) -->

<svg
   width="1000"
   height="1000"
   version="1.1"
   id="svg40"
   xmlns="http://www.w3.org/2000/svg"
   xmlns:svg="http://www.w3.org/2000/svg"
   xmlns:rdf="http://www.w3.org/1999/02/22-rdf-syntax-ns#"
   xmlns:cc="http://creativecommons.org/ns#"
   xmlns:dc="http://purl.org/dc/elements/1.1/">
  <defs
     id="defs5498" />
  <metadata
     id="metadata5594">
    <rdf:RDF>
      <cc:Work
         rdf:about="">
        <dc:format>image/svg+xml</dc:format>
        <dc:type
           rdf:resource="http://purl.org/dc/dcmitype/StillImage" />
      </cc:Work>
    </rdf:RDF>
  </metadata>
  <path
     style="fill:#000000;fill-opacity:1;fill-rule:nonzero;stroke:none"
     d="m 883.93772,665.4688 h 51.76562 v 140.68359 h -51.76562 z m 0,0"
     id="path6" />
  <path
     style="fill:#000000;fill-opacity:1;fill-rule:nonzero;stroke:none"
     d="m 870.46116,665.15239 c 0,46.17969 0,92.35938 0,138.6211 0,0.79297 0,1.66406 0,2.46093 0,7.45704 6.18359,13.64454 13.63281,13.64454 17.28516,0 34.56641,0 51.84766,0 7.45312,0 13.63671,-6.1875 13.63671,-13.64454 0,-46.18359 0,-92.36328 0,-138.625 0,-0.79296 0,-1.66406 0,-2.45703 0,-7.46093 -6.18359,-13.64843 -13.63671,-13.64843 -17.28125,0 -34.5625,0 -51.84766,0 -7.37109,-0.0781 -13.63281,6.1875 -13.63281,13.64843 0,7.45703 6.18359,13.64844 13.63281,13.64844 17.28516,0 34.56641,0 51.84766,0 -4.51563,-4.52344 -9.11719,-9.125 -13.63282,-13.64844 0,46.17969 0,92.35938 0,138.6211 0,0.79297 0,1.66406 0,2.46093 4.51563,-4.52343 9.11719,-9.1289 13.63282,-13.64843 -17.28125,0 -34.5625,0 -51.84766,0 4.51953,4.51953 9.11719,9.125 13.63672,13.64843 0,-46.18359 0,-92.36328 0,-138.625 0,-0.79296 0,-1.66406 0,-2.45703 0,-7.46093 -6.1836,-13.64843 -13.63672,-13.64843 -7.44922,0 -13.63281,6.1875 -13.63281,13.64843 z m 0,0"
     id="path8" />
  <path
     style="fill:#000000;fill-opacity:1;fill-rule:nonzero;stroke:none"
     d="m 754.71506,388.7813 c -0.71484,-0.63281 -1.42578,-1.26953 -2.14062,-1.90234 -15.61719,-14.20313 -32.26563,-26.98047 -50.26172,-38.32813 -11.65625,-7.37891 -23.78516,-14.04297 -36.23047,-20.07422 -42.49219,-20.47265 -89.50391,-32.92969 -139.13281,-35.625 -1.50391,-0.082 -3.01172,-0.16015 -4.4375,-0.23828 -2.69531,-0.082 -5.47266,-0.16016 -8.16797,-0.16016 -0.0781,0 -0.0781,0 -0.15625,0 -0.875,0 -1.82422,0 -2.77734,0 l -326.22657,0.16016 c -0.63281,0 -1.26562,0 -1.90234,0 -0.71484,0 -1.42578,0 -2.14063,0.0781 -8.8789,0.23828 -17.51953,1.34765 -25.76562,3.49218 -52.24219,13.25 -90.851565,60.46094 -90.851565,116.80078 V 867.4883 L 873.551,867.4102 V 659.99224 c 0,-107.35547 -45.58594,-204.00391 -118.83594,-271.21094 z m -135.16797,44.67187 c -16.80859,0 -30.36328,-13.64453 -30.36328,-30.39062 0,-16.82031 13.63672,-30.38672 30.36328,-30.38672 16.80469,0 30.36329,13.56641 30.36329,30.38672 0,16.82422 -13.5586,30.39062 -30.36329,30.39062 z m 153.40235,109.42188 c 16.5664,0 29.96484,13.41016 29.96484,29.99609 0,16.58203 -13.39844,29.99219 -29.96484,29.99219 -16.57031,0 -29.96875,-13.41016 -29.96875,-29.99219 0,-16.58593 13.39844,-29.99609 29.96875,-29.99609 z m -63.1836,-99.34375 c 16.64844,0 30.125,13.48828 30.125,30.07422 0,16.66406 -13.47656,30.15234 -30.125,30.15234 -16.57031,0 -30.04687,-13.48828 -30.04687,-30.15234 -0.082,-16.58594 13.39844,-30.07422 30.04687,-30.07422 z m 27.98438,362.70312 c -38.92578,0 -70.48047,-31.58203 -70.48047,-70.54296 0,-38.96094 31.55469,-70.53907 70.48047,-70.53907 38.92578,0 70.47656,31.57813 70.47656,70.53907 0,38.96093 -31.55078,70.54296 -70.47656,70.54296 z m 0,0"
     id="path10" />
  <path
     style="fill:#000000;fill-opacity:1;fill-rule:nonzero;stroke:none"
     d="m 737.75022,792.50396 c -2.69531,0 -5.39063,-0.15625 -8.08594,-0.47657 2.85156,0.32032 -1.42969,-0.3164 -1.66797,-0.3164 -1.26562,-0.23828 -2.61328,-0.55469 -3.88281,-0.8711 -2.53516,-0.63672 -4.99609,-1.42968 -7.45312,-2.30078 -3.96485,-1.42969 2.30078,1.10938 -1.50391,-0.63672 -1.58594,-0.71484 -3.09375,-1.50781 -4.59766,-2.30078 -2.22265,-1.1914 -4.36328,-2.61719 -6.5039,-4.04687 -3.40625,-2.37891 1.90234,1.66797 -1.26563,-0.95313 -1.03125,-0.79297 -1.90234,-1.66406 -2.85547,-2.53906 -1.90234,-1.66406 -3.64843,-3.57031 -5.3125,-5.47266 -0.87109,-0.95312 -1.66406,-1.90625 -2.45703,-2.9375 1.66406,2.0625 -1.34765,-1.98437 -1.58594,-2.3789 -1.42578,-2.14453 -2.69531,-4.36328 -3.88281,-6.66797 -0.55469,-1.10938 -1.10937,-2.30078 -1.66406,-3.48828 1.1875,2.53906 -0.47656,-1.35157 -0.55859,-1.58985 -0.8711,-2.45703 -1.58204,-4.99609 -2.21875,-7.53515 -0.31641,-1.26953 -0.55469,-2.6211 -0.79297,-3.89063 -0.23828,-1.66406 -0.31641,-1.74609 -0.0781,-0.3164 -0.0781,-0.8711 -0.16015,-1.82422 -0.23828,-2.69922 -0.23828,-2.69532 -0.23828,-5.47266 -0.16016,-8.17188 0,-1.34765 0.16016,-2.69531 0.23829,-4.04687 0.39843,-4.36328 -0.47266,2.62109 0.23828,-1.66407 0.39843,-2.62109 1.03125,-5.16015 1.82422,-7.69921 0.3164,-1.26954 0.79296,-2.45704 1.1875,-3.72657 0.32031,-0.79687 0.55859,-1.58984 0.875,-2.46093 -0.55469,1.26953 -0.47657,1.1914 0.15625,-0.31641 1.03125,-2.38281 2.30078,-4.60547 3.64843,-6.82422 0.63282,-1.11328 1.34766,-2.14453 2.0625,-3.25391 0.0781,-0.16015 2.61328,-3.57031 0.8711,-1.35156 3.40625,-4.36328 7.37109,-8.25 11.65234,-11.66406 -2.14062,1.74609 1.19141,-0.79297 1.34766,-0.87109 1.03125,-0.71485 2.14062,-1.42969 3.25,-2.0625 2.22265,-1.34766 4.51953,-2.53907 6.82031,-3.57032 3.80469,-1.82422 -2.46094,0.8711 1.50391,-0.63672 1.1914,-0.47656 2.45703,-0.87109 3.72656,-1.26953 2.93359,-0.94922 5.94531,-1.58593 8.95703,-2.14062 4.28125,-0.79297 -2.69531,0.23828 1.66797,-0.23828 1.34765,-0.16016 2.69531,-0.23828 4.04297,-0.23828 2.69531,-0.16016 5.46875,0 8.16406,0.16015 0.23828,0 4.59766,0.55469 1.66406,0.15625 1.34766,0.16016 2.61719,0.47656 3.88672,0.71485 3.01172,0.63671 5.94531,1.50781 8.79688,2.46093 0.16015,0.0781 4.125,1.66407 1.58593,0.55469 1.19141,0.47656 2.37891,1.10938 3.48828,1.66406 2.30079,1.11328 4.51954,2.46094 6.66016,3.8125 1.10938,0.71094 2.14063,1.42578 3.17188,2.14063 -2.21875,-1.58594 1.10937,0.87109 1.26953,1.03125 2.29687,1.90625 4.35937,4.04687 6.42187,6.1875 0.8711,0.95312 1.66406,1.90625 2.53516,2.85937 1.03125,1.26953 1.03125,1.34766 0.23828,0.23828 0.47656,0.71094 1.03125,1.34766 1.50781,2.0625 1.66406,2.46094 3.16797,5.07813 4.51563,7.69532 0.55468,1.11328 1.10937,2.30078 1.66797,3.49218 -1.11329,-2.3789 0.78906,2.30079 0.94921,2.77735 1.10938,3.33203 1.90235,6.74609 2.53907,10.23437 0.78906,4.28516 -0.23828,-2.69531 0.23437,1.66797 0.16016,1.82422 0.23828,3.64844 0.32031,5.39453 0.0781,3.17578 -0.082,6.34766 -0.47656,9.52344 0.31641,-2.85937 -0.3164,1.42578 -0.3164,1.66406 -0.32032,1.7461 -0.71485,3.41407 -1.19141,5.16016 -0.47656,1.66406 -1.03125,3.33203 -1.58594,4.99609 -0.3164,0.79688 -0.55469,1.58985 -0.87109,2.46094 0.55469,-1.26953 0.47656,-1.19141 -0.16016,0.31641 -1.26562,2.69922 -2.69531,5.3164 -4.27734,7.9375 -0.63672,1.10937 -1.42969,2.14062 -2.14063,3.17187 -0.95312,1.26953 -1.03125,1.35156 -0.16015,0.31641 -0.55469,0.63672 -1.03125,1.35156 -1.58594,1.98437 -1.90234,2.30078 -4.04297,4.36719 -6.18359,6.42969 -1.26954,1.1875 -2.53516,2.21875 -3.88282,3.33203 2.0586,-1.66797 -1.98437,1.34766 -2.3789,1.58594 -2.45703,1.66797 -5.15235,3.09375 -7.84766,4.44531 -0.16016,0.0781 -4.04687,1.74219 -1.42969,0.71094 -1.58593,0.63672 -3.25,1.19141 -4.91406,1.74609 -2.93359,0.95313 -5.94531,1.58985 -8.95703,2.14453 -1.66797,0.23829 -1.74609,0.31641 -0.32031,0.0781 -0.8711,0.0781 -1.82032,0.16016 -2.69532,0.23828 -1.90234,0.0781 -3.72265,0.0781 -5.54687,0.0781 -7.45313,0.082 -13.63672,6.1914 -13.63672,13.64843 0,7.37891 6.18359,13.72657 13.63672,13.64844 24.17969,-0.23828 47.48437,-10.55469 63.42187,-28.88281 16.88672,-19.51953 23.07032,-44.4336 19.42188,-69.7461 -3.41016,-23.64453 -18.78906,-44.51562 -38.52734,-57.21093 -20.53516,-13.09375 -47.17188,-15.94922 -70.16016,-8.48828 -19.02734,6.10937 -34.96484,19.04296 -45.66406,35.78515 -11.17969,17.53516 -14.19141,38.48438 -11.25782,58.71485 5.78516,40.15234 43.28516,69.42968 82.84375,69.82812 7.45313,0.0781 13.63672,-6.26953 13.63672,-13.64844 -0.082,-7.45703 -6.26562,-13.5664 -13.71484,-13.64843 z m 0,0"
     id="path12" />
  <path
     style="fill:#000000;fill-opacity:1;fill-rule:nonzero;stroke:none"
     d="m 709.76584,457.25786 c 0.31641,0 4.59766,0.39844 1.66407,0 1.66406,0.23828 3.32812,0.79297 4.99218,1.35156 -2.45703,-0.875 1.90235,1.03125 2.37891,1.34766 1.26953,0.87109 1.42969,0.95313 0.31641,0.0781 0.63672,0.55468 1.26953,1.11328 1.90234,1.66796 0.47656,0.39454 3.41016,4.125 1.90625,1.98438 0.94922,1.34766 1.74219,2.85547 2.45703,4.36328 -1.1914,-2.37891 0.55469,2.22266 0.63281,2.77734 0.31641,1.58594 0.31641,1.66407 0.0781,0.23829 0.082,0.87109 0.082,1.74609 0.082,2.69531 0,0.32031 -0.39844,4.60547 0,1.66797 -0.23828,1.66797 -0.79297,3.33203 -1.34766,5 0.8711,-2.46094 -1.03125,1.90234 -1.34765,2.3789 -0.875,1.26953 -0.95313,1.42969 -0.082,0.31641 -0.55469,0.63672 -1.10938,1.26953 -1.66407,1.90625 -0.39453,0.47656 -4.12109,3.41016 -1.98046,1.90234 -1.34766,0.95313 -2.85547,1.7461 -4.35938,2.46094 2.375,-1.19141 -2.22266,0.55469 -2.77734,0.63672 -1.58594,0.31641 -1.66407,0.31641 -0.23828,0.0781 -0.8711,0.0781 -1.74219,0.0781 -2.69532,0.0781 -0.3164,0 -4.51953,-0.39453 -1.66406,0 -1.66406,-0.23828 -3.32812,-0.79297 -4.99609,-1.34766 2.46093,0.8711 -1.82032,-1.03125 -2.375,-1.34765 -1.26953,-0.875 -1.42969,-0.95313 -0.32032,-0.082 -0.63281,-0.55469 -1.26562,-1.10938 -1.90234,-1.66407 -0.47266,-0.39843 -3.40625,-4.1289 -1.90234,-1.98437 -0.94922,-1.34766 -1.74219,-2.85547 -2.45703,-4.36328 1.1914,2.3789 -0.55469,-2.22266 -0.63282,-2.77735 -0.3164,-1.58984 -0.3164,-1.66797 -0.082,-0.23828 -0.0781,-0.875 -0.0781,-1.74609 -0.0781,-2.69922 0,-0.3164 0.39843,-4.52343 0,-1.66406 0.23828,-1.66797 0.79297,-3.33594 1.34765,-5 -0.87109,2.46094 1.03125,-1.82422 1.34766,-2.38281 0.87109,-1.26953 0.95312,-1.42578 0.082,-0.31641 0.55469,-0.63281 1.10938,-1.26953 1.66406,-1.90234 0.39453,-0.47656 4.1211,-3.41406 1.98047,-1.90625 1.34766,-0.95313 2.85547,-1.7461 4.35938,-2.46094 -2.37891,1.19141 2.22265,-0.47266 2.77734,-0.63281 1.58594,-0.31641 1.66406,-0.31641 0.23828,-0.0781 0.8711,-0.082 1.74219,-0.082 2.69531,-0.082 7.44922,-0.15625 13.63282,-6.10937 13.63282,-13.64844 0,-7.29687 -6.1836,-13.80468 -13.63282,-13.64453 -24.17968,0.55469 -43.20703,19.59766 -43.76171,43.79688 -0.55469,24.20312 20.375,43.32422 43.76171,43.80078 24.17969,0.55859 43.28516,-20.39063 43.75782,-43.80078 0.55859,-24.19922 -20.3711,-43.24219 -43.75782,-43.79688 -7.45312,-0.16015 -13.63671,6.34766 -13.63671,13.64453 -0.0781,7.53907 6.18359,13.49219 13.63671,13.64844 z m 0,0"
     id="path14" />
  <path
     style="fill:#000000;fill-opacity:1;fill-rule:nonzero;stroke:none"
     d="m 772.94944,556.52349 c 0.23828,0 4.59765,0.47656 1.74219,0 1.74609,0.23828 3.41015,0.79297 5.07421,1.42968 -2.3789,-0.79296 1.98047,1.1875 2.45704,1.50782 1.26953,0.94922 1.42968,0.94922 0.3164,0.15625 0.63672,0.55468 1.26953,1.11328 1.90625,1.74609 0.15625,0.16016 2.77344,3.33203 1.1875,1.11328 1.03125,1.34766 1.82422,2.9336 2.61719,4.44141 -1.10938,-2.22266 0.63281,2.30078 0.79297,2.85547 0.3164,1.66797 0.3164,1.74609 0.15625,0.32031 0.082,0.87109 0.16015,1.82422 0.16015,2.69531 0,0.23828 -0.47656,4.60156 0,1.7461 -0.23828,1.74609 -0.79296,3.41406 -1.42968,5.07812 0.79297,-2.37891 -1.1875,1.98438 -1.50391,2.46094 -0.95312,1.26953 -0.95312,1.42969 -0.16016,0.3164 -0.55468,0.63672 -1.10937,1.26954 -1.74218,1.90625 -0.16016,0.15625 -3.33203,2.77735 -1.10938,1.1875 -1.34765,1.03125 -2.93359,1.82813 -4.4414,2.6211 2.21875,-1.11328 -2.29688,0.63281 -2.85157,0.79297 -1.66797,0.3164 -1.74609,0.3164 -0.32031,0.15625 -0.87109,0.082 -1.82031,0.16015 -2.69531,0.16015 -0.23828,0 -4.59766,-0.47656 -1.74219,0 -1.74609,-0.23828 -3.41016,-0.79297 -5.07422,-1.42968 2.37891,0.79687 -1.98047,-1.1875 -2.45703,-1.50782 -1.26953,-0.94922 -1.42969,-0.94922 -0.31641,-0.15625 -0.63671,-0.55468 -1.26953,-1.11328 -1.90234,-1.74609 -0.16016,-0.16016 -2.77734,-3.33203 -1.19141,-1.10938 -1.03125,-1.35156 -1.82421,-2.9375 -2.61718,-4.44531 1.11328,2.22266 -0.63282,-2.30078 -0.79297,-2.85547 -0.31641,-1.58593 -0.31641,-1.74609 -0.15625,-0.3164 -0.0781,-0.875 -0.16016,-1.82813 -0.16016,-2.69922 0,-0.23828 0.47656,-4.60156 0,-1.7461 0.23828,-1.74609 0.79297,-3.41015 1.42969,-5.07812 -0.79297,2.37891 1.1875,-1.98438 1.50391,-2.46094 0.95312,-1.26953 0.95312,-1.42578 0.16015,-0.3164 0.55469,-0.63672 1.10938,-1.26954 1.74219,-1.90625 0.16016,-0.15625 3.33203,-2.77344 1.10937,-1.1875 1.34766,-1.03125 2.9336,-1.82422 4.44141,-2.6211 -2.21875,1.11328 2.29688,-0.63281 2.85547,-0.79297 1.66406,-0.3164 1.74219,-0.3164 0.31641,-0.15625 0.87109,-0.082 1.74218,-0.16015 2.69531,-0.16015 7.44922,-0.16016 13.63281,-6.10938 13.63281,-13.64844 0,-7.30078 -6.18359,-13.80469 -13.63281,-13.64844 -24.10156,0.5586 -43.04688,19.51953 -43.60547,43.64453 -0.55469,24.1211 20.29687,43.08594 43.60547,43.64063 24.09765,0.55469 43.04687,-20.3125 43.60156,-43.64063 0.55469,-24.125 -20.29687,-43.16797 -43.60156,-43.64453 -7.45313,-0.15625 -13.63672,6.34766 -13.63672,13.64844 -0.0781,7.61719 6.18359,13.48828 13.63672,13.64844 z m 0,0"
     id="path16" />
  <path
     style="fill:#000000;fill-opacity:1;fill-rule:nonzero;stroke:none"
     d="m 619.54709,419.80864 c -0.23828,0 -4.59765,-0.39843 -1.66406,0 -1.74609,-0.23828 -3.41015,-0.79687 -4.99609,-1.35156 2.45703,0.79297 -1.90235,-1.10937 -2.45703,-1.42578 -1.26953,-0.875 -1.42578,-0.95313 -0.31641,-0.082 -0.63672,-0.55469 -1.26953,-1.10938 -1.90234,-1.66406 -4.04297,-3.73047 -5.23438,-7.61719 -5.39063,-12.30079 0,-0.3164 0.39453,-4.60156 0,-1.66406 0.23438,-1.74609 0.78906,-3.41406 1.34766,-5 -0.79297,2.46094 1.10937,-1.90625 1.42578,-2.46094 0.87109,-1.26953 0.94922,-1.42578 0.0781,-0.3164 0.55469,-0.63672 1.10938,-1.26953 1.66407,-1.90625 3.72656,-4.04688 7.61328,-5.23438 12.28906,-5.31641 0.23828,0 4.59766,0.39844 1.66406,0 1.7461,0.23828 3.41016,0.79688 4.9961,1.35156 -2.45704,-0.79296 1.90234,1.10938 2.45703,1.42579 1.26953,0.875 1.42578,0.95312 0.3164,0.082 0.63672,0.55468 1.26953,1.10937 1.90235,1.66406 4.04297,3.73047 5.23437,7.61719 5.3125,12.30078 0,0.23828 -0.39453,4.60156 0,1.66406 -0.23828,1.7461 -0.79297,3.41407 -1.34766,5 0.79297,-2.46093 -1.10937,1.90625 -1.42578,2.46094 -0.875,1.26953 -0.95313,1.42578 -0.082,0.31641 -0.55469,0.63672 -1.10938,1.26953 -1.66406,1.90625 -3.64454,3.96484 -7.53125,5.23437 -12.20704,5.3164 -7.45312,0.15625 -13.63671,6.10938 -13.63671,13.64453 0,7.30079 6.18359,13.8086 13.63671,13.64844 24.33594,-0.55469 43.52344,-19.75781 44.07813,-44.11719 0.55469,-24.35937 -20.53516,-43.5625 -44.07813,-44.03906 -24.33984,-0.55469 -43.52343,20.47266 -44.07812,44.03906 -0.55469,24.35938 20.53125,43.5625 44.07812,44.11719 7.45313,0.16016 13.63672,-6.34765 13.63672,-13.64844 0.0781,-7.53515 -6.18359,-13.48828 -13.63672,-13.64453 z m 0,0"
     id="path18" />
  <path
     style="fill:#000000;fill-opacity:1;fill-rule:nonzero;stroke:none"
     d="m 764.30881,379.10161 c -44.07812,-40.23047 -96.5625,-69.90625 -154.03906,-86.25 -34.32422,-9.76172 -69.84375,-13.96875 -105.4375,-13.96875 -49.3125,0 -98.54297,0 -147.85156,0 -53.03906,0 -105.9961,0 -159.03125,0 -4.125,0 -8.32422,0 -12.44922,0 -22.27734,0 -43.60156,5.23828 -63.33985,15.39453 -42.890622,22.21875 -70.003903,67.76563 -71.351559,115.69141 -0.871094,30.54687 0,61.25391 0,91.80469 0,61.97265 0,123.86328 0,185.83203 0,51.5 0,102.91797 0,154.41406 0,8.41016 0,16.89844 0,25.3125 0,7.45703 6.183594,13.64453 13.636718,13.64453 18.707032,0 37.339841,0 56.046881,0 47.01172,0 94.10547,0 141.11718,0 61.99219,0 123.98829,0 185.90625,0 63.42188,0 126.92188,0 190.34375,0 51.44922,0 102.98047,0 154.4336,0 26.08203,0 52.16406,0 78.16797,0 0.94922,0 1.98047,0 2.93359,0 7.44922,0 13.63281,-6.1875 13.63281,-13.64453 0,-47.45312 0,-94.90234 0,-142.35156 0,-20.94922 0,-41.97656 0,-62.92188 0,-43.5625 -6.89453,-87.04687 -21.24609,-128.22656 -20.29297,-58.95703 -55.57422,-112.4375 -101.47266,-154.73047 -5.47265,-5.07812 -13.875,-5.39453 -19.34375,0 -5.07422,5.07813 -5.47265,14.28125 0,19.35938 36.78125,33.88281 64.92578,73.08203 85.37891,119.18359 19.42578,43.71875 29.49219,93.86719 29.49219,142.42969 0,48.32031 0,96.64453 0,145.04687 0,20.78907 0,41.57813 0,62.36719 4.51953,-4.52344 9.11718,-9.125 13.63672,-13.64844 -18.71094,0 -37.33985,0 -56.05079,0 -47.01171,0 -94.10156,0 -141.11328,0 -61.99609,0 -123.98828,0 -185.90625,0 -63.42187,0 -126.92187,0 -190.34375,0 -51.45312,0 -102.98437,0 -154.43359,0 -26.08203,0 -52.164065,0 -78.167972,0 -0.949219,0 -1.980469,0 -2.933593,0 4.519531,4.52344 9.117187,9.125 13.636718,13.64844 0,-30.15234 0,-60.38281 0,-90.53516 0,-62.05078 0,-124.10156 0,-186.15234 0,-51.17969 0,-102.27734 0,-153.45703 0,-9.04688 -0.160156,-18.17188 0,-27.21875 0.238282,-11.50391 1.664063,-19.51953 5.550782,-31.5 2.929687,-9.125 7.53125,-18.01172 14.03125,-27.53516 2.378905,-3.41015 4.597655,-6.1875 8.640625,-10.55078 3.88281,-4.20703 8.08594,-8.01562 12.52734,-11.66406 3.32813,-2.69922 -2.0625,1.50781 1.42578,-1.11328 1.03125,-0.79297 2.14063,-1.50781 3.25,-2.30078 2.14063,-1.50782 4.4375,-2.9336 6.66016,-4.28516 2.29688,-1.34766 4.59766,-2.61719 6.97656,-3.88672 1.1875,-0.63672 2.37891,-1.1914 3.56641,-1.74609 0.39453,-0.23828 5.07422,-2.22266 2.85547,-1.26953 13.95313,-5.71094 28.37891,-8.01563 43.36328,-8.01563 5.46875,0 10.94141,0 16.41016,0 23.46484,0 46.93359,0 70.39844,0 61.125,0 122.16796,0 183.28906,0 16.96484,0 33.93359,0 50.97656,0 40.51172,0 79.75391,6.82422 118.125,20.31641 43.75781,15.39062 84.42969,40.38672 118.91406,71.88672 5.47266,5 13.875,5.47656 19.34375,0 4.9961,-5.07813 5.39063,-14.35938 -0.15625,-19.35938 z m 0,0"
     id="path20" />
  <path
     style="fill:#000000;fill-opacity:1;fill-rule:nonzero;stroke:none"
     d="m 514.10569,278.88286 c -2.45703,0 -4.83594,0 -7.29297,0 0,9.125 0,18.25 0,27.375 2.45703,0 4.83594,0 7.29297,0 7.45312,0 13.63672,-6.1875 13.63672,-13.64453 0,-7.53906 -6.1836,-13.73047 -13.63672,-13.73047 -2.45703,0 -4.83594,0 -7.29297,0 -7.44922,0 -13.63672,6.19141 -13.63672,13.64844 0,7.46094 6.1875,13.64844 13.63672,13.64844 2.45703,0 4.83594,0 7.29297,0 7.45312,-0.0781 13.63672,-6.1875 13.63672,-13.64844 0,-7.37891 -6.1836,-13.72656 -13.63672,-13.64844 z m 0,0"
     id="path22" />
  <path
     style="fill:#000000;fill-opacity:1;fill-rule:nonzero;stroke:none"
     d="m 569.99631,125.74224 c 0,23.96484 -19.42187,43.48437 -43.36328,43.48437 v 70.77735 c -0.95312,-0.0781 -2.85547,-0.16016 -4.35937,-0.23829 -2.69532,-0.0781 -5.39063,-0.16015 -8.08594,-0.16015 -0.082,0 -0.082,-0.0781 -0.082,-0.0781 -0.8711,0 -1.74219,-0.0781 -2.69531,-0.0781 l -326.30469,0.0781 c -0.63281,0 -1.26953,0.0781 -1.90235,0.0781 -0.71484,0 -1.10937,0.082 -2.14062,0.082 v -70.54297 h -0.31641 c -23.9414,0 -43.36719,-19.67578 -43.36719,-43.64062 0,-11.98047 4.83594,-22.77344 12.6875,-30.62891 7.84766,-7.855469 18.70704,-12.695312 30.67969,-12.695312 h 345.88672 c 23.94141,0.07812 43.36328,19.519532 43.36328,43.562502 z m 0,0"
     id="path24" />
  <path
     style="fill:#000000;fill-opacity:1;fill-rule:nonzero;stroke:none"
     d="m 556.3635,125.3438 c 0,0.875 0,1.82813 -0.082,2.69922 -0.15625,4.28515 0.55469,-2.53906 -0.15625,1.58594 -0.39844,2.53906 -1.19141,5 -2.0625,7.46093 0.95312,-2.61718 -0.55469,1.10938 -0.71484,1.34766 -0.55469,1.11328 -1.26563,2.22266 -1.90235,3.25391 -0.15625,0.23828 -2.53515,3.49218 -0.79297,1.34765 -0.79297,0.95313 -1.66406,1.90625 -2.53515,2.77735 -0.8711,0.95312 -1.82422,1.74609 -2.77344,2.62109 -3.01563,2.69531 2.05859,-1.42969 -1.19141,0.94922 -2.05859,1.42969 -4.35937,2.62109 -6.66015,3.73047 2.53906,-1.19141 -1.26563,0.3164 -1.50391,0.47656 -1.26953,0.39844 -2.45703,0.71484 -3.72656,1.03125 -0.31641,0.0781 -4.44141,0.63672 -1.58594,0.31641 -1.34766,0.16015 -2.69531,0.16015 -4.04297,0.16015 -7.45312,0.0781 -13.63672,6.10938 -13.63672,13.64844 0,7.45703 6.1836,13.64844 13.63672,13.64844 0.0781,0 0.16016,0 0.23828,0 -4.51953,-4.52344 -9.11718,-9.125 -13.63672,-13.64844 0,23.72266 0,47.52734 0,71.25391 4.51954,-4.52344 9.11719,-9.125 13.63672,-13.64844 -14.1914,-0.71485 -28.46093,-0.31641 -42.65234,-0.31641 -25.60547,0 -51.21094,0 -76.73828,0 -60.09375,0 -120.10547,0 -180.19922,0 -15.37891,0 -30.83984,-0.3164 -46.21875,0.0781 4.51953,4.52343 9.11719,9.125 13.63672,13.64843 0,-23.64453 0,-47.29296 0,-71.01562 0,-7.46094 -6.1836,-13.64844 -13.63672,-13.64844 -0.95313,0 -1.98047,0 -2.93359,-0.0781 -4.28125,-0.16015 2.53515,0.55469 -1.58594,-0.16015 -2.53516,-0.39844 -4.99609,-1.19141 -7.45313,-2.0625 2.61719,0.95312 -1.10937,-0.55469 -1.34765,-0.71485 -1.10938,-0.55469 -2.21875,-1.26953 -3.25,-1.90234 -0.23828,-0.16016 -3.48828,-2.54297 -1.34766,-0.79688 -1.34765,-1.03125 -2.53515,-2.21875 -3.72656,-3.41015 -0.87109,-0.875 -1.66406,-1.82422 -2.53516,-2.77735 1.82422,2.14063 -0.63281,-1.10937 -0.79297,-1.34765 -0.71484,-1.03125 -1.26953,-2.14453 -1.90234,-3.25391 -0.16016,-0.23828 -1.74609,-4.04687 -0.71484,-1.35156 -0.94922,-2.37891 -1.58594,-4.91797 -2.0586,-7.45703 -0.79297,-4.125 0.15625,2.61718 -0.16015,-1.58594 -0.16016,-1.98438 -0.0781,-3.96875 0,-5.95313 0.79297,-14.91796 15.30078,-26.499996 30.28515,-26.499996 13.39844,0 26.71485,0 40.11328,0 59.45703,0 118.91797,0 178.375,0 41.85938,0 83.63672,0 125.4961,0 0.39453,0 0.79297,0 1.10937,0 1.03125,0 1.66406,0 2.69531,0.07813 1.66407,0.160156 1.7461,0.160156 0.31641,-0.07813 0.87109,0.15625 1.74609,0.316406 2.53906,0.476562 1.66407,0.316407 3.32813,0.871094 4.99219,1.425782 1.50781,0.554687 1.58594,0.554687 0.31641,0 0.79297,0.316406 1.50781,0.714844 2.30078,1.113281 5.39062,2.695311 9.11719,6.425781 11.65234,10.234371 0.95313,1.42969 1.7461,2.9375 2.46094,4.44532 0.63281,1.42578 0.71094,1.5039 0.15625,0.23437 0.31641,0.79688 0.55469,1.58985 0.87109,2.46094 0.55469,1.66797 0.875,3.33203 1.26953,5 0.23829,1.66406 0.31641,1.74609 0.0781,0.31641 0,1.1914 0,2.53906 0.082,3.88671 0.0781,7.46094 6.10156,13.64844 13.63281,13.64844 7.375,0 13.79688,-6.1875 13.63672,-13.64844 -0.3945,-25.945282 -17.75778,-48.636689 -42.88669,-55.304658 -6.58203,-1.746093 -13.24218,-1.746093 -19.98047,-1.746093 -18.07421,0 -36.07031,0 -54.14453,0 -61.36328,0 -122.72265,0 -184.08203,0 -24.97265,0 -49.86719,0 -74.83984,0 -13.95313,0 -29.49219,-1.507813 -43.04688,2.300781 -29.49219,8.332031 -45.90234,39.75391 -39.08594,68.875 5.86719,25.15625 30.12501,42.92969 55.4961,42.92969 -4.51953,-4.52344 -9.11719,-9.125 -13.63672,-13.64844 0,23.64453 0,47.28906 0,71.01562 0,7.30079 6.1836,13.88672 13.63672,13.64844 38.44922,-0.875 76.97656,-0.0781 115.34766,-0.0781 59.3789,0 118.75781,0 178.05859,0 17.44141,0 34.96094,-0.5586 52.40234,0.3164 7.45313,0.39453 13.63672,-6.50781 13.63672,-13.64843 0,-23.72657 0,-47.53125 0,-71.25391 0,-7.46094 -6.18359,-13.64844 -13.63672,-13.64844 -0.0781,0 -0.16015,0 -0.23828,0 0,9.125 0,18.25 0,27.375 31.39453,-0.47656 56.52344,-25.70703 57,-57.05078 0.0781,-7.46094 -6.33984,-13.64844 -13.63672,-13.64844 -7.53125,-0.16015 -13.55468,6.10938 -13.63281,13.56641 z m 0,0"
     id="path26" />
  <path
     style="fill:#000000;fill-opacity:1;fill-rule:nonzero;stroke:none"
     d="m 261.21116,867.72661 v 29.35938 c 0,11.66406 -9.51172,21.5039 -21.16797,21.5039 h -69.84375 c -11.65234,0 -21.32422,-9.76172 -21.32422,-21.5039 v -29.35938 z m 0,0"
     id="path28" />
  <path
     style="fill:#000000;fill-opacity:1;fill-rule:nonzero;stroke:none"
     d="m 247.49631,867.41021 c 0,5.55468 0,11.1875 0,16.74218 0,3.33203 0,6.58594 0,9.91797 0,0.875 0,1.7461 0,2.61719 0,0.16016 0,0.23828 0,0.39844 -0.0781,1.66797 -0.0781,1.74609 0.16016,0.3164 -0.16016,0.875 -0.39844,1.66797 -0.63672,2.53907 0.71484,-2.53907 -0.47266,0.875 -0.71094,1.35156 -1.82422,3.25 1.58594,-1.58985 -0.95312,1.1875 -2.53516,2.69922 1.98437,-1.10938 -1.1875,0.95312 -0.39844,0.23828 -3.88672,1.66797 -1.34766,0.71485 -0.39844,0.16015 -4.28125,0.71484 -1.50781,0.47656 -0.47656,0.0781 -0.94922,0.0781 -1.42578,0.0781 -0.39844,0 -0.8711,0 -1.26953,0 -4.99219,0 -9.98828,0 -15.0625,0 -14.90235,0 -29.73047,0 -44.63282,0 -3.41015,0 -6.73828,0.0781 -10.14843,-0.0781 2.77344,0.0781 -1.03125,-0.31641 -1.50391,-0.47656 2.53516,0.71484 -0.875,-0.47657 -1.34765,-0.71485 -3.25391,-1.82422 1.58203,1.58594 -1.19141,-0.95312 -2.69531,-2.53906 1.10937,1.98437 -0.94922,-1.1875 -0.23828,-0.39844 -1.66797,-3.89063 -0.71484,-1.35156 -0.16016,-0.39454 -0.71485,-4.28516 -0.47657,-1.50782 -0.0781,-0.87109 -0.0781,-1.82422 -0.0781,-2.69531 0,-9.44531 0,-18.80469 0,-28.25 -4.51953,4.52344 -9.11719,9.125 -13.63672,13.64844 37.33984,0 74.75781,0 112.09766,0 7.45312,0 13.63671,-6.1875 13.63671,-13.64844 0,-7.45703 -6.18359,-13.64844 -13.63671,-13.64844 -37.33985,0 -74.75782,0 -112.09766,0 -7.45313,0 -13.63672,6.19141 -13.63672,13.64844 0,12.30078 -1.02735,25.07422 0.875,37.21484 2.05859,13.25 14.74219,24.59766 27.66797,26.58204 4.67578,0.71484 9.11328,0.63671 13.79297,0.63671 14.74609,0 29.49219,0 44.23828,0 14.42578,0 28.85547,1.50391 40.82422,-8.57031 16.01562,-13.41015 12.05078,-37.29297 12.05078,-55.9414 0,-7.46094 -6.18359,-13.64844 -13.63281,-13.64844 -7.29688,-0.0781 -13.5586,6.1875 -13.5586,13.64844 z m 0,0"
     id="path30" />
  <path
     style="fill:#000000;fill-opacity:1;fill-rule:nonzero;stroke:none"
     d="m 789.28147,867.72661 v 29.35938 c 0,11.66406 -9.75391,21.5039 -21.48438,21.5039 h -69.84375 c -11.65625,0 -21.01171,-9.76172 -21.01171,-21.5039 v -29.35938 z m 0,0"
     id="path32" />
  <path
     style="fill:#000000;fill-opacity:1;fill-rule:nonzero;stroke:none"
     d="m 775.24631,867.41021 c 0,5.55468 0,11.1875 0,16.74218 0,3.33203 0,6.58594 0,9.91797 0,0.875 0,1.7461 0,2.61719 0,0.16016 0,0.23828 0,0.39844 -0.0781,1.66797 -0.0781,1.74609 0.16016,0.3164 -0.16016,0.875 -0.39844,1.66797 -0.63281,2.53907 0.71093,-2.53907 -0.47657,0.875 -0.71485,1.35156 -1.82422,3.25 1.58594,-1.58985 -0.95312,1.1875 -2.53516,2.69922 1.98437,-1.10938 -1.1875,0.95312 -0.39844,0.23828 -3.88672,1.66797 -1.34766,0.71485 -0.39844,0.16015 -4.28125,0.71484 -1.50781,0.47656 -0.47656,0.0781 -0.94922,0.0781 -1.42578,0.0781 -0.39844,0 -0.8711,0 -1.26953,0 -4.99219,0 -9.98828,0 -15.0625,0 -14.90235,0 -29.72657,0 -44.63282,0 -3.41015,0 -6.73828,0.0781 -10.14843,-0.0781 2.77734,0.0781 -1.03125,-0.31641 -1.50391,-0.47656 2.53516,0.71484 -0.875,-0.47657 -1.34766,-0.71485 -3.25,-1.82422 1.58594,1.58594 -1.1914,-0.95312 -2.69531,-2.53906 1.10937,1.98437 -0.94922,-1.1875 -0.23828,-0.39844 -1.66406,-3.89063 -0.71484,-1.35156 -0.16016,-0.39454 -0.71485,-4.28516 -0.47657,-1.50782 -0.0781,-0.87109 -0.0781,-1.82422 -0.0781,-2.69531 0,-9.44531 0,-18.80469 0,-28.25 -4.51953,4.52344 -9.11719,9.125 -13.63672,13.64844 37.33984,0 74.75781,0 112.09766,0 7.45312,0 13.63671,-6.1875 13.63671,-13.64844 0,-7.45703 -6.18359,-13.64844 -13.63671,-13.64844 -37.33985,0 -74.75782,0 -112.09766,0 -7.44922,0 -13.63672,6.19141 -13.63672,13.64844 0,12.30078 -1.02734,25.07422 0.875,37.21484 2.05859,13.25 14.74609,24.59766 27.66797,26.58204 4.67578,0.71484 9.11719,0.63671 13.79297,0.63671 14.74609,0 29.49219,0 44.23828,0 14.42578,0 28.85547,1.50391 40.82812,-8.57031 16.01172,-13.41015 12.04688,-37.29297 12.04688,-55.9414 0,-7.46094 -6.18359,-13.64844 -13.63281,-13.64844 -7.29297,-0.0781 -13.5586,6.1875 -13.5586,13.64844 z m 0,0"
     id="path34" />
  <path
     style="fill:#000000;fill-opacity:1;fill-rule:nonzero;stroke:none"
     d="M 803.86741,328.39849 H 666.00413 c 7.53125,2.93359 14.82421,7.69531 21.8789,12.05859 10.78125,6.82422 20.85156,14.28516 30.28516,23.09375 h 85.69922 c 9.91015,0 17.91406,-7.69922 17.91406,-17.61719 0,-9.83984 -8.00391,-17.53515 -17.91406,-17.53515 z m 0,0"
     id="path36" />
  <path
     style="fill:#000000;fill-opacity:1;fill-rule:nonzero;stroke:none"
     d="m 803.86741,314.35161 c -45.50782,0 -91.01172,0 -136.51563,0 -0.39844,0 -0.875,0 -1.26953,0 -13,0 -19.50391,19.36328 -6.89844,25.47266 13.24219,6.42578 25.76563,14.125 37.5,23.01172 5.3125,4.04687 11.25782,11.74218 17.91797,13.5664 1.90235,0.55469 3.72266,0.47657 5.62891,0.47657 12.28515,0 24.65234,0 36.9414,0 13.79297,0 27.58985,0 41.46094,0 4.83594,0 9.35547,0 14.11328,-1.19141 14.10938,-3.57031 24.17969,-18.32813 22.59375,-32.69141 -1.90234,-16.58203 -14.98437,-28.08593 -31.47265,-28.64453 -7.45313,-0.23828 -13.63672,6.42969 -13.63672,13.64844 0,7.61719 6.18359,13.41016 13.63672,13.64844 1.66406,0.0781 1.82422,0.0781 0.3164,-0.0781 0.47657,0.0781 3.96485,1.58594 1.50782,0.39453 1.34765,0.875 1.42578,0.875 0.3164,-0.0781 0.31641,0.23828 2.77344,3.17578 1.10938,0.87109 0.47656,0.71485 0.87109,1.42969 1.1875,2.14453 -1.42578,-2.77734 0.082,2.46094 -0.23828,-0.71484 0.082,0.875 0.082,1.82422 0,2.69922 0.082,-3.25391 -0.94922,2.14062 0.23828,-0.71485 -0.31641,0.71485 -0.79297,1.50782 -1.1875,2.14063 1.42578,-2.30078 -0.71485,0.55859 -1.10938,0.875 1.10938,-0.875 1.03125,-0.95313 -0.3164,-0.0781 2.29687,-1.35156 -0.95313,0.23438 -1.50782,0.39454 2.37891,-0.55469 -0.71484,-0.0781 -1.42578,-0.0781 -8.80078,0 -17.60156,0 -26.40234,0 -19.34375,0 -38.76563,0 -58.10938,0 3.25,1.34766 6.42188,2.69531 9.67188,3.96484 -16.57031,-14.91406 -34.88281,-27.53125 -54.9375,-37.29296 -2.30078,8.49218 -4.59766,16.98046 -6.89844,25.47265 45.50391,0 91.01172,0 136.51563,0 0.39843,0 0.87109,0 1.26953,0 7.45312,0 13.63672,-6.1914 13.63672,-13.64844 0,-7.3789 -6.1836,-13.57031 -13.63672,-13.57031 z m 0,0"
     id="path38" />
</svg>
