<?xml version="1.0" encoding="UTF-8" standalone="no"?>
<!-- Created with Inkscape (http://www.inkscape.org/) -->

<svg
   width="1000"
   height="1000"
   version="1.1"
   id="svg8"
   xmlns="http://www.w3.org/2000/svg"
   xmlns:svg="http://www.w3.org/2000/svg"
   xmlns:rdf="http://www.w3.org/1999/02/22-rdf-syntax-ns#"
   xmlns:cc="http://creativecommons.org/ns#"
   xmlns:dc="http://purl.org/dc/elements/1.1/">
  <defs
     id="defs5498" />
  <metadata
     id="metadata5594">
    <rdf:RDF>
      <cc:Work
         rdf:about="">
        <dc:format>image/svg+xml</dc:format>
        <dc:type
           rdf:resource="http://purl.org/dc/dcmitype/StillImage" />
      </cc:Work>
    </rdf:RDF>
  </metadata>
  <path
     style="fill:#000000;fill-opacity:1;fill-rule:nonzero;stroke:none;stroke-width:0.833333"
     d="M 799.99998,200 H 687.49999 v -75 c 0,-41.624349 -33.37565,-74.999997 -75,-74.999997 H 387.50001 c -41.62435,0 -75,33.375648 -75,74.999997 v 75 H 200.00002 c -41.62435,0 -75,33.37564 -75,74.99999 v 412.50002 c 0,41.62433 33.37565,75 75,75 h 599.99996 c 41.62435,0 75,-33.37567 75,-75 V 274.99999 c 0,-41.62435 -33.37565,-74.99999 -75,-74.99999 z M 387.50001,125 h 224.99998 v 75 H 387.50001 Z M 799.99998,687.50001 H 200.00002 v -74.99999 h 599.99996 z m 0,-187.49999 H 200.00002 V 274.99999 h 112.49999 v 75.00004 h 75 v -75.00004 h 224.99998 v 75.00004 h 75 v -75.00004 h 112.49999 z m 0,0"
     id="path6-3" />
</svg>
