<?xml version="1.0" encoding="UTF-8" standalone="no"?>
<svg
   width="100"
   height="100"
   version="1.1"
   viewBox="0 0 75.000002 75.000002"
   id="svg4"
   xmlns="http://www.w3.org/2000/svg"
   xmlns:svg="http://www.w3.org/2000/svg">
  <defs
     id="defs8" />
  <path
     id="path2"
     style="stroke-width:0.178959"
     d="M 90.066406 4 L 78.664062 15.402344 C 74.241809 11.91965 68.748603 10.056398 63.101562 10.144531 C 55.843162 10.208065 48.903988 13.141548 43.798828 18.302734 L 34.050781 27.626953 L 41.603516 35.207031 L 38.791016 37.996094 L 30.792969 29.939453 L 20.396484 40.585938 C 10.714445 50.128018 9.4309868 65.330353 17.242188 76.376953 L 4.0273438 90.267578 L 9.6738281 96 L 22.896484 82.683594 C 27.404631 86.2327 32.995301 88.126677 38.740234 88.027344 C 46.126048 87.946277 53.187666 84.925947 58.378906 79.625 L 68.076172 69.859375 L 68.917969 69.009766 L 61.474609 61.544922 L 64.65625 58.339844 L 71.777344 65.486328 L 81.072266 56.160156 C 90.450066 46.94197 91.693906 32.335353 84.189453 21.691406 L 95.972656 9.9042969 L 90.066406 4 z M 47.335938 40.958984 L 59.392578 53.058594 L 56.605469 55.8125 L 44.583984 43.732422 L 47.335938 40.958984 z M 30.800781 42.623047 L 57.035156 69.076172 L 54.814453 71.310547 L 54.814453 71.130859 L 52.730469 73.345703 C 49.230935 77.06733 44.409872 79.23588 39.324219 79.375 C 34.478365 79.572213 29.805456 77.616703 26.533203 74.03125 L 25.982422 73.443359 C 18.868782 65.995093 19.096249 54.15764 26.482422 47 L 30.800781 42.623047 z "
     transform="scale(0.75)" />
</svg>
