<?xml version="1.0" encoding="UTF-8" standalone="no"?>
<!-- Created with Inkscape (http://www.inkscape.org/) -->

<svg
   width="1000"
   height="1000"
   version="1.1"
   id="svg8"
   xmlns="http://www.w3.org/2000/svg"
   xmlns:svg="http://www.w3.org/2000/svg"
   xmlns:rdf="http://www.w3.org/1999/02/22-rdf-syntax-ns#"
   xmlns:cc="http://creativecommons.org/ns#"
   xmlns:dc="http://purl.org/dc/elements/1.1/">
  <defs
     id="defs5498" />
  <metadata
     id="metadata5594">
    <rdf:RDF>
      <cc:Work
         rdf:about="">
        <dc:format>image/svg+xml</dc:format>
        <dc:type
           rdf:resource="http://purl.org/dc/dcmitype/StillImage" />
      </cc:Work>
    </rdf:RDF>
  </metadata>
  <path
     style="fill:#000000;fill-opacity:1;fill-rule:nonzero;stroke:none"
     d="M 231,439.5 C 303,581 419,696.5 560.5,769 l 110,-110 c 13.5,-13.5 33.5,-18 51,-12 56,18.5 116.5,28.5 178.5,28.5 27.5,0 50,22.5 50,50 V 900 c 0,27.5 -22.5,50 -50,50 C 430.5,950 50,569.5 50,100 50,72.5 72.5,50 100,50 h 175 c 27.5,0 50,22.5 50,50 0,62.5 10,122.5 28.5,178.5 5.5,17.5 1.5,37 -12.5,51 z m 0,0"
     id="path6" />
</svg>
