<?xml version="1.0" encoding="UTF-8" standalone="no"?>
<!-- Created with Inkscape (http://www.inkscape.org/) -->

<svg
   width="1000"
   height="1000"
   version="1.1"
   id="svg28"
   xmlns="http://www.w3.org/2000/svg"
   xmlns:svg="http://www.w3.org/2000/svg"
   xmlns:rdf="http://www.w3.org/1999/02/22-rdf-syntax-ns#"
   xmlns:cc="http://creativecommons.org/ns#"
   xmlns:dc="http://purl.org/dc/elements/1.1/">
  <defs
     id="defs5498" />
  <metadata
     id="metadata5594">
    <rdf:RDF>
      <cc:Work
         rdf:about="">
        <dc:format>image/svg+xml</dc:format>
        <dc:type
           rdf:resource="http://purl.org/dc/dcmitype/StillImage" />
      </cc:Work>
    </rdf:RDF>
  </metadata>
  <path
     style="fill:#000000;fill-opacity:1;fill-rule:nonzero;stroke:none"
     d="M 749.85961,780.76562 H 525.12133 c -18.55078,0 -35.86328,-7.00781 -33.55468,-34.375 l 16.73437,-237.98437 -32.97656,-26.21094 9.07031,-24.15234 h 248.31641 c 12.69531,0 23.82812,7.2539 29.51562,20.9375 2.63672,6.26562 4.03906,13.76562 4.03906,22.66797 l 0.66016,11.21093 h -0.66016 l 2.0625,24.56641 4.78125,84.41016 6.84375,121.17578 c 0.49219,16.73437 0.082,36.68359 -30.09375,37.7539 z m 0,0"
     id="path6" />
  <path
     style="fill:#000000;fill-opacity:1;fill-rule:nonzero;stroke:none"
     d="m 749.85961,766.01172 c -48.64062,0 -97.19921,0 -145.83984,0 -24.23828,0 -48.47656,0 -72.71484,0 -1.89844,0 -3.875,0 -5.77344,0 -1.64844,0 -3.29688,-0.082 -4.86328,-0.16797 -0.66016,0 -4.45313,-0.49219 -0.66016,0.0859 -1.07031,-0.16797 -2.14453,-0.33203 -3.21484,-0.57813 -1.07031,-0.25 -2.0625,-0.49609 -3.05078,-0.82422 -0.66016,-0.16406 -1.32032,-0.41406 -1.97657,-0.66015 1.8125,0.82422 1.97657,0.90625 0.57422,0.24609 -0.90625,-0.41016 -1.73047,-0.98828 -2.63672,-1.48437 -2.88671,-1.8125 2.22657,2.0625 -0.24609,-0.2461 -0.74219,-0.66015 -1.40234,-1.40234 -2.0625,-2.22656 2.30859,2.72266 0.24609,0.16797 -0.16406,-0.57422 -1.81641,-3.13281 0.90625,2.80078 -0.41406,-0.74219 -0.41016,-1.15625 -0.66016,-2.30859 -0.98829,-3.54687 -0.90625,-4.03906 0.16407,2.88672 -0.24609,-1.56641 -0.16797,-2.05859 -0.082,-4.03906 0,-6.09765 0.082,-1.56641 0.24609,-3.21485 0.32813,-4.78125 3.79296,-54.24219 7.58593,-108.39844 11.46093,-162.64063 1.56641,-22.17578 3.13282,-44.34766 4.69922,-66.60547 0.082,-1.73047 0.2461,-3.46094 0.32813,-5.10937 0.49609,-6.67969 -3.79297,-10.14063 -8.32422,-13.6836 -9.64844,-7.58593 -19.21094,-15.25 -28.85547,-22.83593 1.23437,4.61718 2.47266,9.23437 3.625,13.84765 3.05078,-7.99609 6.01953,-16.07422 9.07031,-24.07031 -4.53515,3.46484 -9.15234,6.92578 -13.6875,10.46875 46.99219,0 93.90235,0 140.89844,0 28.52344,0 57.13281,0 85.65625,0 6.76172,0 13.51953,0 20.28125,0 0.49609,0 0.90625,0 1.40234,0 0.4961,0 0.98828,0 1.48438,0 4.20312,0.082 -2.55469,-0.65625 1.48437,0.16797 0.57422,0.082 5.44141,1.73047 2.80078,0.57422 1.23829,0.49609 2.3086,1.23828 3.46485,1.89843 3.46094,2.0586 -1.73047,-1.73437 1.3164,0.98829 1.07422,0.90625 1.98047,1.97656 2.88672,2.96875 -1.73047,-1.89844 1.07422,1.73046 1.15625,1.8125 2.63672,4.20312 4.28516,10.30468 4.69922,15.41406 0.49219,5.52344 0.49219,11.21094 0.82422,16.8164 4.69922,-4.69921 9.48047,-9.48046 14.17969,-14.17968 -0.2461,0 -0.4961,0 -0.66016,0 -7.2539,0 -14.83984,6.51172 -14.17969,14.17968 3.46094,40.88672 5.35938,81.9375 7.66797,122.98829 1.64844,28.76953 3.29688,57.45703 4.94532,86.22656 0.41015,6.83984 0.74218,13.76562 1.15234,20.60937 0.25,3.78907 0.16797,7.66407 -0.082,11.45703 -0.082,0.90625 -0.49219,4.20313 0.082,0 -0.16406,0.90625 -0.32813,1.8125 -0.49219,2.71875 -0.25,1.23829 -2.47265,6.59375 -0.66015,2.63672 -0.41407,0.82813 -0.82422,1.56641 -1.32032,2.39063 -1.64843,2.72265 2.14453,-2.39063 0,0 -0.66015,0.74219 -1.3164,1.32031 -2.05859,1.98047 2.80078,-2.39063 0.24609,-0.41407 -0.49609,0 -0.57813,0.32812 -3.79297,1.5664 -0.66016,0.41015 -1.15234,0.41407 -2.39063,0.74219 -3.625,1.07422 -0.16797,0.082 -4.45313,0.74219 -1.73438,0.41016 -1.5664,0.16797 -3.21484,0.25 -4.78125,0.25 -7.75,0.32812 -14.17968,6.17969 -14.17968,14.17578 0,7.50391 6.42968,14.50781 14.17968,14.17969 12.36719,-0.4961 25.47657,-3.46094 34.05079,-13.1875 7.2539,-8.16407 9.64453,-18.38282 10.22265,-29.01953 0.41016,-8.24219 -0.41406,-16.64844 -0.90625,-24.89454 -1.73437,-30.25 -3.46484,-60.5039 -5.19531,-90.75781 -2.30859,-41.21484 -4.20313,-82.43359 -7.75,-123.5664 0,0 0,0 0,-0.082 -4.69922,4.69922 -9.48047,9.48047 -14.17969,14.17969 0.2461,0 0.4961,0 0.66016,0 7.41797,0 14.67578,-6.42969 14.17969,-14.17969 -0.4961,-9.14843 -0.66016,-18.30078 -2.22657,-27.36718 -2.39062,-14.34375 -10.71875,-27.20313 -22.7539,-35.19922 -8.98438,-5.9336 -19.45703,-6.51172 -29.76172,-6.51172 -23.25,0 -46.5,0 -69.7461,0 -55.65234,0 -111.30078,0 -166.94921,0 -1.8125,0 -3.54297,0 -5.35938,0 -6.75781,0 -11.45703,4.44922 -13.68359,10.46875 -3.05078,7.99609 -6.01953,16.07422 -9.07032,24.07031 -1.5664,4.20313 0.082,10.96485 3.62891,13.84766 10.96484,8.73828 22.01172,17.47656 32.97656,26.13281 -1.40234,-3.37891 -2.80468,-6.67969 -4.12109,-10.05859 -3.38281,47.48047 -6.67969,95.04687 -10.05859,142.52734 -1.89844,26.95703 -3.79297,53.91016 -5.6875,80.86719 -0.33204,4.78125 -0.66016,9.64453 -0.99219,14.42578 -0.82422,12.19922 1.64844,23.82031 9.23437,33.46484 6.42969,8.16407 16.82032,12.61328 26.875,13.9336 17.5625,2.39062 35.94532,0.98828 53.58985,0.98828 31.98828,0 63.97656,0 96.04687,0 28.9375,0 57.875,0 86.73047,0 7.75,0 14.17969,-6.42969 14.17969,-14.17969 0.24609,-7.74609 -6.1836,-14.25781 -13.9336,-14.25781 z m 0,0"
     id="path8" />
  <path
     style="fill:#000000;fill-opacity:1;fill-rule:nonzero;stroke:none"
     d="m 875.50415,527.28516 c 0,-29.01563 -23.4961,-52.75782 -52.51563,-52.75782 h -61.17578 l 0.33203,4.3711 c 2.63672,6.26172 4.03906,13.84765 4.03906,22.66797 l 0.66016,11.29296 h 47.57031 c 18.55078,0 23.82422,5.85157 23.82422,24.31641 l 8.57422,135.68359 c 0,18.55079 -5.35938,23.74219 -23.82422,23.74219 H 781.8479 l -13.60157,-159.25781 4.78125,84.41016 8.73828,114.91015 h 51.52735 c 29.01953,0 52.51562,-23.49219 52.51562,-52.50781 z m -109.32032,-14.42579 2.0625,24.56641 -1.40234,-24.56641 z m 0,0"
     id="path10" />
  <path
     style="fill:#000000;fill-opacity:1;fill-rule:nonzero;stroke:none"
     d="m 642.6018,377.75391 c 0,0.32812 0,0.74218 0,1.07031 -0.57812,10.55078 -9.3164,19.28906 -20.03515,19.28906 h -7.9961 c -10.80078,0 -19.70312,-8.49219 -20.03515,-19.28906 0,-0.2461 0,-0.4961 0,-0.74219"
     id="path12" />
  <path
     style="fill:#000000;fill-opacity:1;fill-rule:nonzero;stroke:none"
     d="m 628.42211,377.75391 c -0.082,3.54296 0.74219,-2.72266 -0.16406,1.3164 -0.82422,3.79297 1.23438,-1.89453 -0.57812,1.48438 -1.8125,3.3789 1.64843,-1.48438 -0.90625,1.32031 -2.5586,2.80078 1.97656,-1.07422 -1.23828,1.07031 -3.21485,2.0625 2.22656,-0.49609 -1.40235,0.66016 -3.70703,1.23437 2.39063,0.082 -1.5664,0.24609 -1.31641,0.082 -2.71875,0 -4.03907,0 -1.32031,0 -2.63672,0 -4.03906,0 -4.20312,0 2.30859,0.74219 -1.64844,-0.24609 -3.79297,-0.90625 1.89453,1.15234 -1.48437,-0.66016 -3.37891,-1.8125 1.48437,1.64844 -1.23828,-0.98828 -2.71875,-2.63672 1.07422,1.97656 -0.90625,-1.32031 -1.97657,-3.29688 0.57812,2.22656 -0.49219,-1.56641 -1.07422,-3.875 0,1.40235 -0.082,-0.98828 -0.25,-7.75 -6.26953,-14.17969 -14.1836,-14.17969 -7.58203,0 -14.42578,6.42969 -14.17968,14.17969 0.33203,11.375 5.52343,21.18359 14.59375,27.94531 7.00781,5.19141 15.25,6.26563 23.66015,6.26563 8.41016,0 16.57032,-1.07422 23.4961,-6.34766 9.15234,-6.92578 14.42968,-16.73437 14.75781,-28.27734 0.24609,-7.7461 -6.59375,-14.17578 -14.17969,-14.17578 -7.91406,0 -14.01562,6.51172 -14.17969,14.26172 z m 0,0"
     id="path14" />
  <path
     style="fill:#000000;fill-opacity:1;fill-rule:nonzero;stroke:none"
     d="m 756.94946,321.36719 c 0,30.41797 -24.73047,57.45703 -55.15235,57.45703 H 535.34399 c -30.42188,0 -55.15625,-27.03906 -55.15625,-57.45703"
     id="path16" />
  <path
     style="fill:#000000;fill-opacity:1;fill-rule:nonzero;stroke:none"
     d="m 742.76977,321.36719 c 0,1.40234 -0.082,2.80468 -0.16406,4.28906 -0.2461,4.53125 0.49609,-2.64063 -0.16406,1.8125 -0.41407,2.71875 -1.23829,5.44141 -2.0625,8.07812 -0.082,0.16407 -1.64844,4.36719 -0.57813,1.73047 -0.57422,1.23828 -1.15234,2.47266 -1.8125,3.71094 -1.48437,2.88281 -3.21484,5.52344 -5.11328,8.07813 1.65234,-2.22657 -1.15234,1.23437 -1.23438,1.3164 -0.90625,0.99219 -1.89843,1.98047 -2.80468,2.96875 -0.98828,0.98828 -1.97657,1.8125 -3.05078,2.72266 -3.29688,2.80078 2.14453,-1.48438 -1.48438,1.07031 -5.85156,4.12109 -7.74609,4.78125 -13.84766,6.42969 -1.32031,0.32812 -2.72265,0.57812 -4.03906,0.82422 2.96485,-0.4961 -1.5664,0.082 -1.8164,0.082 -1.07032,0.082 -2.14063,0.082 -3.21485,0.082 -1.8125,0 -3.625,0 -5.4414,0 -7.25391,0 -14.50782,0 -21.84766,0 -24.07422,0 -48.14453,0 -72.21875,0 -18.63281,0 -37.26563,0 -55.89844,0 -3.46094,0 -6.92578,0 -10.46875,0 -0.57812,0 -1.15625,0 -1.8125,0 -0.91015,0 -1.89844,-0.082 -2.80469,-0.16406 -4.45312,-0.32813 2.63672,0.49609 -1.73046,-0.2461 -5.85547,-1.07422 -8.2461,-2.22656 -11.95313,-4.125 -7.00781,-3.70703 -12.20312,-8.98437 -16.24219,-15.41406 -1.23828,-1.97656 -2.22656,-3.95703 -3.21484,-6.01562 -0.66016,-1.56641 -0.74219,-1.64844 -0.16797,-0.41407 -0.49219,-1.3164 -0.90625,-2.63672 -1.31641,-3.95703 -0.74218,-2.22265 -1.15625,-4.44922 -1.64843,-6.75781 -0.82422,-4.45313 0.16406,2.71875 -0.16797,-1.8125 -0.16406,-1.40234 -0.16406,-2.80469 -0.16406,-4.28906 -0.082,-7.7461 -6.42969,-14.17578 -14.17969,-14.17578 -7.66797,0 -14.34375,6.42968 -14.17969,14.17578 0.32813,26.3789 14.92188,51.35547 38.25391,63.88672 15.0039,7.99609 30.66797,7.83203 46.99218,7.83203 24.40235,0 48.80469,0 73.21094,0 22.17578,0 44.35156,0 66.44922,0 16.07422,0 31.16406,-1.23828 45.42578,-9.8125 21.4336,-12.85938 34.46094,-37.09375 34.70703,-61.82422 0.082,-7.7461 -6.51172,-14.17578 -14.17968,-14.17578 -7.66797,-0.082 -13.9336,6.34765 -14.01563,14.09375 z m 0,0"
     id="path18" />
  <path
     style="fill:#000000;fill-opacity:1;fill-rule:nonzero;stroke:none"
     d="m 467.07836,833.52344 c -45.42578,0 -82.11328,-36.76563 -82.11328,-82.1875 V 503.62891 H 155.03149 L 137.2229,885.28906 c 0,27.36719 21.51953,50.78125 48.14843,50.78125 h 580.64844 c 26.54688,0 48.14453,-23.32812 48.14453,-50.78125 h 0.25 V 833.52344 Z M 128.40258,64.179688 157.58618,453.92187 h 227.3789 v -72.46093 c 0,-33.79688 27.28907,-61.49219 61.09375,-61.49219 H 802.04711 L 831.89086,64.179688 Z M 294.69165,336.53516 c 0,14.26171 -11.625,25.88281 -25.88672,25.88281 -7.17188,0 -13.60547,-2.88281 -18.30469,-7.58203 -4.69922,-4.69922 -7.58203,-11.12891 -7.58203,-18.30078 V 163.26172 c 0,-14.26172 11.62109,-25.88281 25.88672,-25.88281 7.17187,0 13.60156,2.88671 18.30078,7.58203 4.69922,4.69922 7.58594,11.1289 7.58594,18.30078 z m 0,0"
     id="path20" />
  <path
     style="fill:#000000;fill-opacity:1;fill-rule:nonzero;stroke:none"
     d="m 467.07836,819.34375 c -2.80078,0 -5.6875,-0.16406 -8.48828,-0.41016 -4.53515,-0.41406 2.71875,0.49219 -1.73437,-0.25 -1.39844,-0.24609 -2.71875,-0.49218 -4.03906,-0.82422 -2.63672,-0.57421 -5.27735,-1.3164 -7.91407,-2.22656 -1.32031,-0.41015 -2.55468,-0.90625 -3.79297,-1.39844 -1.5664,-0.66015 -1.64843,-0.66015 -0.32812,-0.16406 -0.82422,-0.33203 -1.64844,-0.74219 -2.47266,-1.15625 -4.78515,-2.30859 -9.3164,-5.1914 -13.60547,-8.40625 2.3086,1.73047 -1.07031,-0.99219 -1.23437,-1.15625 -0.99219,-0.82422 -1.98047,-1.73047 -2.96875,-2.71875 -2.22656,-2.14453 -4.37109,-4.45312 -6.34766,-6.76172 -2.80468,-3.29687 1.56641,2.14453 -1.07422,-1.3164 -0.82421,-1.07422 -1.5664,-2.14453 -2.30859,-3.29688 -1.48437,-2.22656 -2.80078,-4.53515 -4.03906,-6.92578 -0.66016,-1.15234 -1.23438,-2.39062 -1.8125,-3.62891 -1.89844,-3.95312 0.90625,2.5586 -0.66016,-1.5664 -1.15234,-2.96485 -2.0625,-6.01563 -2.88672,-9.06641 -0.74218,-2.63672 -1.23437,-5.35547 -1.64843,-8.07812 0.49609,2.96875 -0.16407,-1.56641 -0.16407,-1.8125 -0.16406,-1.40235 -0.16406,-2.80469 -0.24609,-4.20313 -0.082,-1.15625 -0.082,-2.30859 -0.082,-3.54687 0,-17.96875 0,-35.94141 0,-53.82813 0,-59.35156 0,-118.70312 0,-178.05469 0,-5.02734 0,-10.05468 0,-15.08593 0,-7.7461 -6.4336,-14.17578 -14.1836,-14.17578 -48.39062,0 -96.70312,0 -145.09765,0 -28.27735,0 -56.5586,0 -84.83594,0 -7.99609,0 -13.84766,6.51171 -14.17969,14.17578 -1.73047,36.51953 -3.3789,73.03515 -5.10937,109.63672 -3.05078,64.46093 -6.01953,128.92578 -9.07031,193.38671 -0.98831,21.51563 -1.9805,43.11329 -3.05081,64.62891 -0.2461,4.36719 -0.41016,8.82031 -0.57813,13.1875 -0.82422,18.46484 8.08203,37.50781 21.60156,49.70703 C 156.26977,944.47656 171.10962,950 186.60962,950 c 3.46093,0 6.92187,0 10.46875,0 16.32421,0 32.64843,0 48.97265,0 57.29688,0 114.59375,0 171.89453,0 65.70703,0 131.41406,0 197.1211,0 44.84765,0 89.61328,0 134.46484,0 5.44141,0 10.88281,0 16.32422,0 35.28515,0 62.24219,-30.66406 62.65625,-64.95703 -4.69922,4.69922 -9.48047,9.48047 -14.17969,14.17969 0.082,0 0.16406,0 0.24609,0 7.75,0 14.17969,-6.42969 14.17969,-14.17969 0,-17.22656 0,-34.53906 0,-51.76953 0,-7.7461 -6.42969,-14.17578 -14.17969,-14.17578 -38.91406,0 -77.91015,0 -116.82031,0 -62.24609,0 -124.49219,0 -186.8164,0 -14.67579,0.24609 -29.26954,0.24609 -43.86329,0.24609 -7.75,0 -14.17968,6.42969 -14.17968,14.17969 0,7.74609 6.42968,14.17578 14.17968,14.17578 38.91407,0 77.91016,0 116.82422,0 62.2461,0 124.48828,0 186.81641,0 14.59375,0 29.10156,0 43.69531,0 -4.69922,-4.69531 -9.48047,-9.47656 -14.17969,-14.17578 0,17.22656 0,34.53906 0,51.76562 4.69922,-4.69922 9.48047,-9.47656 14.17969,-14.17578 -0.082,0 -0.16406,0 -0.25,0 -7.83203,0 -14.09765,6.42969 -14.17969,14.17578 0,1.40235 -0.082,2.88672 -0.16406,4.28906 -0.32812,4.53125 0.4961,-2.64062 -0.24609,1.8125 -0.4961,2.71875 -1.32031,5.35938 -2.22656,7.9961 -1.48438,4.12109 1.15234,-2.3086 -0.74219,1.64844 -0.57813,1.23437 -1.23828,2.39062 -1.89453,3.625 -0.66016,1.15625 -1.40235,2.30859 -2.22657,3.38281 -0.99218,1.3164 -1.07421,1.48437 -0.25,0.32812 -0.57421,0.66016 -1.15234,1.40235 -1.73046,2.0625 -0.90625,0.98828 -1.89454,1.89453 -2.80079,2.88282 -0.16796,0.16406 -3.46484,2.96875 -1.23828,1.23828 -2.14453,1.64843 -4.37109,2.96875 -6.76172,4.20312 -0.24609,0.16406 -4.20312,1.8125 -1.48437,0.74219 -1.23438,0.49609 -2.55469,0.90625 -3.78906,1.23828 -1.32032,0.41016 -2.64063,0.65625 -3.95703,0.90625 -1.73438,0.24609 -1.81641,0.32813 -0.25,0.082 -0.90625,0.082 -1.8125,0.16406 -2.71875,0.16406 -2.3086,0.082 -4.53516,0 -6.84375,0 -13.60157,0 -27.28907,0 -40.89063,0 -54.41406,0 -108.91016,0 -163.32031,0 -66.20313,0 -132.48828,0 -198.6875,0 -48.72656,0 -97.44922,0 -146.17188,0 -8.66015,0 -17.23437,0 -25.89062,0 -0.98828,0 -1.97656,0 -3.04688,-0.082 -4.37109,-0.16406 2.63672,0.57813 -1.65234,-0.16406 -1.31641,-0.25 -2.63672,-0.57812 -3.95703,-0.90625 -1.31641,-0.33203 -2.55469,-0.82812 -3.79297,-1.23828 2.55859,0.90625 -2.14062,-1.07031 -2.63672,-1.40234 -8.24219,-4.36719 -14.09765,-12.03516 -16.90234,-19.94922 -0.90625,-2.63672 -1.48047,-5.35547 -1.97656,-8.07813 0.49609,2.88672 -0.082,-1.64844 -0.082,-1.8125 0,-0.49609 -0.082,-2.39062 -0.082,-2.88672 0,-0.24609 0,-0.49218 0,-0.65625 0.082,-1.48437 0.16406,-2.96875 0.24609,-4.53515 2.22656,-47.31641 4.45312,-94.55078 6.59766,-141.86719 2.88281,-61.98828 5.76953,-124.0625 8.73828,-186.05078 0.74218,-16.15625 1.48437,-32.3125 2.22656,-48.46875 -4.69922,4.69922 -9.48438,9.48047 -14.18359,14.17578 48.39453,0 96.70702,0 145.10155,0 28.27735,0 56.55469,0 84.83594,0 -4.69922,-4.69531 -9.48437,-9.47656 -14.18359,-14.17578 0,46.98437 0,94.05469 0,141.04297 0,28.4375 0,56.875 0,85.39843 0,6.59375 0,13.27344 0,19.86719 0,17.80469 4.45312,35.03125 13.35937,50.44922 16.98047,29.26172 49.30078,47.06641 82.9375,47.39844 7.75,0.082 14.17969,-6.51172 14.17969,-14.17969 -0.082,-8.07812 -6.59766,-14.42578 -14.34766,-14.42578 z m 0,0"
     id="path22" />
  <path
     style="fill:#000000;fill-opacity:1;fill-rule:nonzero;stroke:none"
     d="m 280.42993,336.53516 c -0.082,4.45312 0.74218,-2.47266 -0.082,1.8125 -0.0859,0.25 -1.40235,4.37109 -0.25,1.73437 -0.49219,1.23438 -1.23438,2.39063 -1.89454,3.54297 1.40235,-2.30859 -0.82421,0.90625 -1.15625,1.23828 -2.96875,3.12891 -5.52343,3.54297 -9.89062,3.37891 2.14062,0.082 -2.47656,-0.66016 -2.47656,-0.66016 1.89843,0.57813 -2.22266,-1.15234 -2.22266,-1.15234 -1.48437,-0.91016 -2.55859,-2.0625 -3.46484,-3.46485 -1.8125,-2.71875 -1.89453,-4.03906 -1.89453,-6.59375 0,-6.92578 0,-13.84765 0,-20.85547 0,-30.99609 0,-61.98828 0,-92.90234 0,-19.78125 0,-39.48437 0,-59.26953 0,-0.32812 0.16406,-2.88281 -0.16407,-0.41016 0.16407,-1.32031 0.57422,-2.64062 0.98828,-3.95703 -0.82421,2.63672 0.57813,-1.15625 0.74219,-1.48437 1.97656,-3.54297 -1.73047,1.64844 0.90625,-1.40235 0.82422,-0.98828 1.89453,-1.89453 2.88672,-2.71875 -2.14453,1.8125 1.31641,-0.57812 1.56641,-0.66015 3.54297,-1.97656 -2.3086,0.66015 1.64843,-0.4961 0.90625,-0.24609 1.8125,-0.41015 2.71875,-0.57421 -1.48437,0.24609 -1.3164,0.32812 0.41407,0.16406 6.42968,-0.16406 11.70703,5.60547 11.70703,11.87109 0,6.75781 0,13.51953 0,20.19531 0,50.94141 0,101.88672 0,152.82813 -0.082,-0.16406 -0.082,-0.16406 -0.082,-0.16406 0,7.75 6.42968,14.17968 14.17968,14.17968 7.75,0 14.17969,-6.42968 14.17969,-14.17968 0,-50.53125 0,-100.98047 0,-151.51172 0,-7.17188 0,-14.25781 0,-21.42969 0,-11.70703 -5.03125,-23.24609 -14.01562,-30.75 -13.02735,-10.87891 -30.09375,-12.19922 -45.09766,-4.86328 -15.33203,7.50391 -21.02344,23.98828 -21.02344,39.89844 0,10.38671 0,20.6914 0,31.07812 0,31.98438 0,63.96484 0,95.94922 0,11.46094 0,22.83594 0,34.29297 0,2.30859 0,4.69922 0,7.00781 0,11.70313 5.03125,23.24609 14.01563,30.74609 13.02734,10.88282 30.09375,12.19922 45.09765,4.86329 13.19141,-6.42969 20.60938,-21.10157 21.02344,-35.28125 0.2461,-7.7461 -6.59765,-14.17579 -14.17969,-14.17579 -7.83203,0 -13.93359,6.51172 -14.17968,14.17579 z m 0,0"
     id="path24" />
  <path
     style="fill:#000000;fill-opacity:1;fill-rule:nonzero;stroke:none"
     d="m 114.2229,64.179688 c 2.71875,35.855472 5.35937,71.796872 8.07812,107.656252 4.86719,64.625 9.73047,129.2539 14.51172,193.88281 2.22656,29.34375 4.36719,58.77344 6.59375,88.11719 0.57813,7.75 6.01953,14.17968 14.17969,14.17968 48.5625,0 97.20312,0 145.76172,0 27.20703,0 54.41406,0 81.61718,0 7.75,0 14.17969,-6.42968 14.17969,-14.17968 0,-23.82032 0,-47.5625 0,-71.38672 0,-2.22266 0.0859,-4.53125 0.25,-6.75781 0.32813,-4.53516 -0.49609,2.71875 0.24609,-1.73047 0.2461,-1.32032 0.57813,-2.72266 0.90625,-4.03907 0.33204,-1.32031 0.74219,-2.63671 1.15625,-3.95703 0.16407,-0.49609 2.14454,-5.35937 0.98829,-2.88672 1.07031,-2.47265 2.39062,-4.78125 3.79296,-7.08984 0.66016,-1.15234 1.48438,-2.22266 2.22657,-3.29687 2.47265,-3.54297 -1.73047,1.98046 1.07031,-1.31641 1.73047,-2.0625 3.62891,-3.875 5.52344,-5.6875 0.98828,-0.91016 1.98047,-1.73438 3.05078,-2.55859 -2.0625,1.73437 2.14453,-1.31641 2.55469,-1.64844 2.22656,-1.48047 4.61718,-2.71875 7.00781,-3.78906 -2.63672,1.23437 1.32031,-0.4961 1.5664,-0.57813 1.23829,-0.49609 2.5586,-0.82422 3.875,-1.23828 1.32032,-0.41016 2.64063,-0.65625 3.95704,-0.98828 0.25,-0.082 4.69921,-0.74219 1.64843,-0.41016 2.3086,-0.33203 4.69922,-0.41406 7.00782,-0.41406 0.91015,0 1.8164,0 2.72265,0 46.16797,0 92.33594,0 138.58594,0 60.43359,0 120.78125,0 181.21094,0 11.21093,0 22.42578,0 33.55468,0 8.41016,0 13.27344,-6.51172 14.17969,-14.17969 5.35938,-45.83203 10.71875,-91.66406 16.07813,-137.41406 4.61718,-39.40234 9.23047,-78.88672 13.76562,-118.289062 C 846.9768,56.429688 838.89868,50 831.89086,50 c -22.67187,0 -45.34375,0 -68.01562,0 -54.74219,0 -109.40234,0 -164.14453,0 -66.69531,0 -133.39453,0 -200.17188,0 -58.69922,0 -117.39843,0 -176.09765,0 -30.67188,0 -61.33985,0 -92.08985,0 -0.98828,0 -2.0625,0 -3.05078,0 -7.66797,0 -14.09765,6.429688 -14.09765,14.179688 0,7.746093 6.42968,14.175781 14.17968,14.175781 22.67188,0 45.34375,0 68.01563,0 54.74219,0 109.40234,0 164.14453,0 66.69531,0 133.39453,0 200.17187,0 58.69922,0 117.39844,0 176.10157,0 30.66797,0 61.33593,0 92.08593,0 0.99219,0 2.0625,0 3.05079,0 -4.69922,-4.699219 -9.48047,-9.476563 -14.17969,-14.175781 -5.35938,45.832032 -10.71875,91.664062 -16.07422,137.414062 -4.61719,39.40234 -9.23438,78.88672 -13.76953,118.28906 4.69922,-4.69531 9.48047,-9.47656 14.17969,-14.17578 -38.33594,0 -76.58985,0 -114.92579,0 -62.98828,0 -126.05468,0 -189.04296,0 -16.48829,0 -32.89454,0 -49.38282,0 -13.27343,0 -25.72265,2.71875 -37.59375,8.65625 -23.41406,11.78516 -37.51172,35.9375 -40.14843,61.41016 -1.32032,13.10547 -0.25,26.70703 -0.25,39.89843 0,12.77735 0,25.47266 0,38.25 4.69921,-4.69921 9.48046,-9.48046 14.17968,-14.17968 -48.55859,0 -97.19922,0 -145.75781,0 -27.20703,0 -54.41406,0 -81.62109,0 4.69922,4.69922 9.48437,9.48047 14.18359,14.17968 -2.72265,-35.9414 -5.35937,-71.80078 -8.08203,-107.66015 -4.86328,-64.625 -9.72656,-129.25391 -14.50781,-193.87891 -2.22656,-29.34765 -4.3711,-58.777341 -6.59766,-88.121091 -0.57422,-7.75 -6.01562,-14.179688 -14.17969,-14.179688 C 121.06665,50 113.64477,56.429688 114.2229,64.179688 Z m 0,0"
     id="path26" />
</svg>
