<?xml version="1.0" encoding="UTF-8" standalone="no"?>
<!-- Created with Inkscape (http://www.inkscape.org/) -->

<svg
   width="1000"
   height="1000"
   version="1.1"
   id="svg8"
   xmlns="http://www.w3.org/2000/svg"
   xmlns:svg="http://www.w3.org/2000/svg"
   xmlns:rdf="http://www.w3.org/1999/02/22-rdf-syntax-ns#"
   xmlns:cc="http://creativecommons.org/ns#"
   xmlns:dc="http://purl.org/dc/elements/1.1/">
  <defs
     id="defs5498" />
  <metadata
     id="metadata5594">
    <rdf:RDF>
      <cc:Work
         rdf:about="">
        <dc:format>image/svg+xml</dc:format>
        <dc:type
           rdf:resource="http://purl.org/dc/dcmitype/StillImage" />
      </cc:Work>
    </rdf:RDF>
  </metadata>
  <path
     style="fill:#000000;fill-opacity:1;fill-rule:nonzero;stroke:none"
     d="m 500,300 c -110.5,0 -200,89.5 -200,200 0,110.5 89.5,200 200,200 110.5,0 200,-89.5 200,-200 C 700,389.5 610.5,300 500,300 Z M 150,650 H 50 v 200 c 0,55 45,100 100,100 H 350 V 850 H 150 Z m 0,-500 H 350 V 50 H 150 C 95,50 50,95 50,150 V 350 H 150 Z M 850,50 H 650 V 150 H 850 V 350 H 950 V 150 C 950,95 905,50 850,50 Z m 0,800 H 650 v 100 h 200 c 55,0 100,-45 100,-100 V 650 H 850 Z m 0,0"
     id="path6" />
</svg>
