<?xml version="1.0" encoding="UTF-8" standalone="no"?>
<!-- Created with Inkscape (http://www.inkscape.org/) -->

<svg
   width="1000"
   height="1000"
   version="1.1"
   id="svg8"
   xmlns="http://www.w3.org/2000/svg"
   xmlns:svg="http://www.w3.org/2000/svg"
   xmlns:rdf="http://www.w3.org/1999/02/22-rdf-syntax-ns#"
   xmlns:cc="http://creativecommons.org/ns#"
   xmlns:dc="http://purl.org/dc/elements/1.1/">
  <defs
     id="defs5498" />
  <metadata
     id="metadata5594">
    <rdf:RDF>
      <cc:Work
         rdf:about="">
        <dc:format>image/svg+xml</dc:format>
        <dc:type
           rdf:resource="http://purl.org/dc/dcmitype/StillImage" />
      </cc:Work>
    </rdf:RDF>
  </metadata>
  <path
     style="fill:#000000;fill-opacity:1;fill-rule:nonzero;stroke:none"
     d="M 942.35943,746.63275 H 807.96881 L 665.5899,604.31635 845.25397,523.74213 c 9.03515,-4.09375 16.16796,-11.60547 19.6875,-20.83594 3.51953,-9.32031 3.23437,-19.59766 -0.85547,-28.63281 L 741.48834,200.67572 C 733.0235,181.74603 710.76959,173.28119 691.93756,181.83978 L 42.242245,473.0351 c -13.789063,6.18359 -22.539063,20.16796 -22.160157,35.29296 0.476563,15.12891 9.988281,28.53907 24.160157,33.96485 l 64.007815,24.35156 -19.972659,8.94141 c -9.035156,4.09375 -16.167969,11.60547 -19.6875,20.83593 -3.519532,9.32032 -3.234375,19.59766 0.855468,28.63282 L 130.78912,761.8515 c 4.08984,9.03906 11.60547,16.17188 20.83203,19.69531 4.27735,1.61719 8.84375,2.47266 13.3125,2.47266 5.23047,0 10.46485,-1.14453 15.3125,-3.23437 l 68.38672,-30.63282 c 6.27735,13.89063 19.875,22.16407 34.23828,22.16407 5.13672,0 10.36719,-1.04688 15.3125,-3.32813 L 592.54693,637.04291 766.0274,810.55853 c 7.03907,7.04297 16.55078,10.94141 26.53516,10.94141 h 149.89453 c 20.63672,0 37.47266,-16.83984 37.47266,-37.48047 -0.0977,-20.64453 -16.92969,-37.38672 -37.57032,-37.38672 z M 513.89068,425.8515 c -8.46484,-18.92969 0,-41.09765 18.83204,-49.5625 l 102.625,-45.94922 c 18.92578,-8.46484 40.99218,0 49.55078,18.83594 8.46484,18.92969 0,41.09766 -18.83203,49.5625 l -102.6211,45.94922 c -4.94531,2.1875 -10.17969,3.23437 -15.3125,3.23437 -14.36328,0.0937 -27.96484,-8.17968 -34.24219,-22.07031 z m 0,0"
     id="path6" />
</svg>
