<?xml version="1.0" encoding="UTF-8" standalone="no"?>
<!-- Created with Inkscape (http://www.inkscape.org/) -->

<svg
   width="1000"
   height="1000"
   version="1.1"
   id="svg8"
   xmlns="http://www.w3.org/2000/svg"
   xmlns:svg="http://www.w3.org/2000/svg"
   xmlns:rdf="http://www.w3.org/1999/02/22-rdf-syntax-ns#"
   xmlns:cc="http://creativecommons.org/ns#"
   xmlns:dc="http://purl.org/dc/elements/1.1/">
  <defs
     id="defs5498" />
  <metadata
     id="metadata5594">
    <rdf:RDF>
      <cc:Work
         rdf:about="">
        <dc:format>image/svg+xml</dc:format>
        <dc:type
           rdf:resource="http://purl.org/dc/dcmitype/StillImage" />
      </cc:Work>
    </rdf:RDF>
  </metadata>
  <path
     style="fill:#000000;fill-opacity:1;fill-rule:nonzero;stroke:none"
     d="M 860,252.5 H 761.89844 C 766.85156,238.55078 770,223.25 770,207.5 c 0,-74.69922 -60.30078,-135 -135,-135 -47.25,0 -88.19922,24.300781 -112.5,60.75 L 500,163.39844 477.5,132.80078 C 453.19922,96.800781 412.25,72.5 365,72.5 c -74.69922,0 -135,60.30078 -135,135 0,15.75 3.14844,31.05078 8.10156,45 H 140 c -49.949219,0 -89.550781,40.05078 -89.550781,90 L 50,837.5 c 0,49.94922 40.050781,90 90,90 h 720 c 49.94922,0 90,-40.05078 90,-90 v -495 c 0,-49.94922 -40.05078,-90 -90,-90 z m -225,-90 c 24.75,0 45,20.25 45,45 0,24.75 -20.25,45 -45,45 -24.75,0 -45,-20.25 -45,-45 0,-24.75 20.25,-45 45,-45 z m -270,0 c 24.75,0 45,20.25 45,45 0,24.75 -20.25,45 -45,45 -24.75,0 -45,-20.25 -45,-45 0,-24.75 20.25,-45 45,-45 z m 495,675 H 140 v -90 h 720 z m 0,-225 H 140 v -270 H 368.60156 L 275,469.85156 347.89844,522.5 455,376.69922 500,315.5 545,376.69922 652.10156,522.5 725,469.85156 631.39844,342.5 H 860 Z m 0,0"
     id="path6" />
</svg>
