<?xml version="1.0" encoding="UTF-8" standalone="no"?>
<!-- Created with Inkscape (http://www.inkscape.org/) -->

<svg
   width="1000"
   height="1000"
   version="1.1"
   id="svg24"
   xmlns="http://www.w3.org/2000/svg"
   xmlns:svg="http://www.w3.org/2000/svg"
   xmlns:rdf="http://www.w3.org/1999/02/22-rdf-syntax-ns#"
   xmlns:cc="http://creativecommons.org/ns#"
   xmlns:dc="http://purl.org/dc/elements/1.1/">
  <defs
     id="defs5498" />
  <metadata
     id="metadata5594">
    <rdf:RDF>
      <cc:Work
         rdf:about="">
        <dc:format>image/svg+xml</dc:format>
        <dc:type
           rdf:resource="http://purl.org/dc/dcmitype/StillImage" />
      </cc:Work>
    </rdf:RDF>
  </metadata>
  <path
     style="fill:#000000;fill-opacity:1;fill-rule:nonzero;stroke:none"
     d="M 895.70717,192.47356 880.75014,151.52434 C 873.7892,131.5634 853.8478,119.60246 833.82826,120.55168 l -560.6875,34.92969 22.94922,81.90234 97.79688,73.89844 3.00781,33.97656 551.66797,-52.91015 v -33.97657 z m 0,0"
     id="path6" />
  <path
     style="fill:#000000;fill-opacity:1;fill-rule:nonzero;stroke:none"
     d="m 397.84389,421.13762 c 0,0 -8.94141,22.96875 -16.93359,26.92969 l 545.73437,-63.91797 22.94531,-19.96094 v -59.87891 l -552.69531,51.96094 z m 0,0"
     id="path8" />
  <path
     style="fill:#000000;fill-opacity:1;fill-rule:nonzero;stroke:none"
     d="m 522.54701,490.99699 c 11,8.94922 24.92579,11.96094 38.92969,11.01172 l 178.58985,-19.96094 c 14.95312,-1.98046 27.92968,-8.94921 36.87109,-20.98828 l 38.92969,-50.92968 -342.21875,42.92968 z m 0,0"
     id="path10" />
  <path
     style="fill:#000000;fill-opacity:1;fill-rule:nonzero;stroke:none"
     d="m 142.50405,184.47356 c -18.98828,1.02734 -33.94532,16.94921 -32.91407,35.95703 l 9.96875,203.71875 c 1.02735,19.00781 16.9336,33.97656 35.92188,32.94922 l 194.57031,-9.98047 c 18.99219,-1.03125 33.94531,-16.94922 32.91797,-35.96094 l -1.97656,-50.92578 -3.00782,-42.92969 -45.89453,-33.98047 3.95703,77.85938 c 1.02735,19.00781 -13.92578,34.92968 -32.91796,35.95703 l -102.78125,6.97265 c -18.99219,1.02735 -34.89453,-14.01953 -35.92578,-32.94921 l -4.98438,-110.8086 c -1.02734,-19.01172 14.00391,-34.92968 32.91797,-35.96093 l 82.76562,-3.96094 -12.97656,-43.95703 z m 0,0"
     id="path12" />
  <path
     style="fill:#000000;fill-opacity:1;fill-rule:nonzero;stroke:none"
     d="m 53.726702,211.40324 c 13.925782,38.96875 27.929688,80.86719 27.929688,80.86719 l 7.992188,61.94141 14.957032,14.96875 -9.972658,-150.8086 c -1.027343,-11.96093 3.007813,-24.94922 10.999998,-33.98047 1.02735,-1.02734 1.97657,-3.00781 3.95703,-3.95703 9.96875,-6.97265 14.00391,-8 21.91797,-8.95312 7.99219,-1.02735 143.69141,-9.97656 143.69141,-9.97656 l -1.02735,-4.99219 -199.558589,12.98828 c 0,0 -34.894531,2.93359 -20.886719,41.90234 z m 0,0"
     id="path14" />
  <path
     style="fill:#000000;fill-opacity:1;fill-rule:nonzero;stroke:none"
     d="m 719.0978,498.04777 -125.73438,14.01954 v 65.89843 H 719.0978 Z m 0,0"
     id="path16" />
  <path
     style="fill:#000000;fill-opacity:1;fill-rule:nonzero;stroke:none"
     d="M 718.14858,592.85637 H 595.42201 c -6.96093,0 -12.97656,6.01953 -12.97656,12.98828 v 3.01172 c 0,6.96875 6.01563,12.98828 12.97656,12.98828 H 719.0978 c 6.96093,0 12.97656,-6.01953 12.97656,-12.98828 v -3.01172 c 0,-6.96875 -6.01563,-12.98828 -13.92578,-12.98828 z m 0,0"
     id="path18" />
  <path
     style="fill:#000000;fill-opacity:1;fill-rule:nonzero;stroke:none"
     d="m 123.51577,669.76652 v 70.88672 c 0,16 16.93359,26.92969 30.9375,19.96094 l 40.90624,-19.01172 313.26172,-46.96875 52.85547,-73.89844 v -36.91015 l -420,64.94922 c -9.96875,1.03125 -17.96093,9.98047 -17.96093,20.99218 z m 0,0"
     id="path20" />
  <path
     style="fill:#000000;fill-opacity:1;fill-rule:nonzero;stroke:none"
     d="m 588.46108,774.63371 c -87.75391,88.86719 -255.42188,51.95703 -372.13282,0 0,0 -8.9414,-6.01953 -20.96875,-11.01172 v -11.00781 l -36.87109,16.94922 c -3.95703,1.98047 -8.9414,3.01172 -12.97656,3.01172 -17.96094,0 -31.88672,-14.01953 -31.88672,-31.92188 v -70.88672 c 0,-16 10.99609,-28.99218 26.90234,-30.97265 l 54.83203,-8 v -12.98828 l -126.679682,0.0781 V 762.67277 L 100.56655,879.5009 h 94.79296 v -64.94922 c 57.84375,24 186.58204,68.91016 290.31641,51.96094 114.73047,-17.98047 191.5625,-93.85938 204.53906,-231.67578 h -39.8789 c -6.01563,47.91797 -23.02735,100.82812 -61.875,139.79687 z m 0,0"
     id="path22" />
</svg>
