<?xml version="1.0" encoding="UTF-8" standalone="no"?>
<!-- Created with Inkscape (http://www.inkscape.org/) -->

<svg
   width="1000"
   height="1000"
   version="1.1"
   id="svg8"
   xmlns="http://www.w3.org/2000/svg"
   xmlns:svg="http://www.w3.org/2000/svg"
   xmlns:rdf="http://www.w3.org/1999/02/22-rdf-syntax-ns#"
   xmlns:cc="http://creativecommons.org/ns#"
   xmlns:dc="http://purl.org/dc/elements/1.1/">
  <defs
     id="defs5498" />
  <metadata
     id="metadata5594">
    <rdf:RDF>
      <cc:Work
         rdf:about="">
        <dc:format>image/svg+xml</dc:format>
        <dc:type
           rdf:resource="http://purl.org/dc/dcmitype/StillImage" />
      </cc:Work>
    </rdf:RDF>
  </metadata>
  <path
     style="fill:#000000;fill-opacity:1;fill-rule:nonzero;stroke:none;stroke-width:0.833333"
     d="m 799.99998,200.00004 h -81.75129 c 4.1276,-11.62435 6.7513,-24.375 6.7513,-37.5 0,-62.24935 -50.25065,-112.499995 -112.5,-112.499995 -39.37499,0 -73.49934,20.250649 -93.74999,50.624995 L 500,125.74874 481.25,100.25069 C 460.99935,70.250694 426.875,50.000045 387.50001,50.000045 c -62.24935,0 -112.5,50.250645 -112.5,112.499995 0,13.125 2.6237,25.87565 6.7513,37.5 h -81.75129 c -41.62435,0 -74.62565,33.37564 -74.62565,74.99999 l -0.37435,412.49998 c 0,41.62435 33.37565,75 75,75 h 599.99996 c 41.62435,0 75,-33.37565 75,-75 V 275.00003 c 0,-41.62435 -33.37565,-74.99999 -75,-74.99999 z m -187.49999,-75 c 20.625,0 37.5,16.875 37.5,37.5 0,20.625 -16.875,37.5 -37.5,37.5 -20.62499,0 -37.49999,-16.875 -37.49999,-37.5 0,-20.625 16.875,-37.5 37.49999,-37.5 z m -224.99998,0 c 20.62499,0 37.49999,16.875 37.49999,37.5 0,20.625 -16.875,37.5 -37.49999,37.5 -20.625,0 -37.5,-16.875 -37.5,-37.5 0,-20.625 16.875,-37.5 37.5,-37.5 z M 799.99998,687.50001 H 200.00002 v -74.99999 h 599.99996 z m 0,-187.49999 H 200.00002 V 275.00003 h 190.50129 l -78.0013,106.1263 60.7487,43.8737 L 462.5,303.49938 500,252.50003 l 37.5,50.99935 89.25129,121.50065 60.7487,-43.8737 -78.0013,-106.1263 h 190.50129 z m 0,0"
     id="path6" />
</svg>
