<?xml version="1.0" encoding="UTF-8" standalone="no"?>
<!-- Created with Inkscape (http://www.inkscape.org/) -->

<svg
   width="1000"
   height="1000"
   version="1.1"
   id="svg8"
   xmlns="http://www.w3.org/2000/svg"
   xmlns:svg="http://www.w3.org/2000/svg"
   xmlns:rdf="http://www.w3.org/1999/02/22-rdf-syntax-ns#"
   xmlns:cc="http://creativecommons.org/ns#"
   xmlns:dc="http://purl.org/dc/elements/1.1/">
  <defs
     id="defs5498" />
  <metadata
     id="metadata5594">
    <rdf:RDF>
      <cc:Work
         rdf:about="">
        <dc:format>image/svg+xml</dc:format>
        <dc:type
           rdf:resource="http://purl.org/dc/dcmitype/StillImage" />
      </cc:Work>
    </rdf:RDF>
  </metadata>
  <path
     style="fill:#000000;fill-opacity:1;fill-rule:nonzero;stroke:none"
     d="M 949.06249,258.06595 897.08202,193.0347 882.10936,153.06595 c -8.0039,-21.01563 -29,-34.97266 -51.98046,-34.01954 L 275.71874,153.06595 78.89843,167.10501 c -1.03125,0 -16.007813,1.98047 -24.007813,14.03515 -6.023437,8.96094 -6.023437,21.01563 -1.03125,34.97266 12.992187,36.00391 25.988281,75.02344 26.941406,80.01953 l 6.972657,60.98438 c 1.980468,1.03125 1.980468,3.01172 3.007812,3.01172 l 25.992188,21.96875 1.98047,42.98437 c 1.02734,11.02344 4.99219,19.98438 12.99219,26.96094 6.97265,6.98047 16.95703,9.99219 25.99218,9.99219 1.02735,0 1.02735,0 1.98047,0 l 220.75,-8.96094 h 1.02734 c 0,0 0,0 1.03125,0 l 74.95703,-8.96094 61.96094,49.96094 c 9.98438,8.01172 22.98047,11.97656 35.97266,11.97656 1.98437,0 3.96484,0 6.02344,0 l 25.98828,-3.01562 v 77.0039 l -25.98828,-3.96484 h -1.03125 c 0,0 0,0 -1.02735,0 L 202.74218,631.0347 v -16.01954 c 0,-3.01562 -1.98047,-4.99609 -4.99219,-4.99609 H 73.906242 c -3.011719,0 -4.992188,1.98047 -4.992188,4.99609 V 759.03079 L 100.84374,877.0347 c 1.03125,1.98046 3.01172,3.96484 4.99219,3.96484 h 93.89453 c 3.01172,0 4.99219,-1.98438 4.99219,-4.99609 v -57.01954 c 65.92578,26.96485 184.77734,65.02735 282.71484,49.01172 113.85937,-18.0039 184.77344,-103.96875 199.83203,-241.00781 h 29 c 9.98047,0 19.01563,-8.00781 19.01563,-19.03125 v -3.01562 c 0,-8.00782 -4.99219,-14.98829 -12.9961,-18 v -97.86329 l 16.00781,-1.98046 c 16.00391,-1.98438 30.98047,-9.99219 39.9336,-23 l 44.92578,-62.01563 98.88672,-11.97656 c 1.03125,0 1.98047,-1.02735 3.01172,-1.02735 l 21.94531,-19.98828 c 1.03125,-1.02734 1.98437,-1.98047 1.98437,-3.96484 V 260.12845 c 1.02735,-0.082 1.02735,-1.03125 0.0781,-2.0625 z M 831.16015,130.06985 c 17.98437,-1.03125 34.9414,9.99219 41.99218,26.96094 l 14.97657,39.96875 c 0,1.03125 0,1.03125 1.03125,1.03125 l 50.94921,64 v 27.99609 l -536.42578,50.99219 -3.01172,-27.99609 c 0,-1.03125 -1.02734,-3.01172 -1.98046,-3.96485 L 302.66015,237.05032 282.6914,164.08938 Z M 344.65233,364.09329 c 0,8.01172 -1.98047,14.99219 -6.97265,21.01562 -4.99219,6.02735 -11.96485,8.96485 -19.96485,8.96485 l -112.91406,6.02734 c -16.00391,1.02735 -29.94922,-11.97656 -29.94922,-27.99609 l -4.99218,-108.01172 c 0,-8.01172 1.98046,-14.98828 6.97265,-21.01562 4.99219,-6.02735 11.96484,-8.96094 19.96875,-8.96094 l 92.94141,-6.02735 3.96093,14.03516 c 0,1.03125 1.03125,1.98438 1.98438,3.01563 l 45.95312,34.97265 z m -244.757807,-9.99219 -6.972656,-59 v -1.03125 c 0,0 -14.023437,-42.03125 -26.941406,-80.01953 -3.960938,-11.02344 -3.960938,-19.98437 0,-26.01172 4.992187,-8.00781 16.007812,-8.96094 16.007812,-8.96094 l 191.828127,-13.0039 3.01171,8.96094 -127.88671,8.00781 c -21.94922,1.03125 -38.98438,19.98437 -37.95313,41 l 6.97266,144.01953 z m 280.730467,88.98047 -219.79687,9.99219 c -8.00391,0 -14.97657,-1.98047 -21,-6.97656 -6.01953,-4.9961 -8.95313,-11.97657 -8.95313,-19.98438 l -9.98437,-201.98828 c -1.02735,-16.01953 11.96484,-29.97656 27.97265,-29.97656 l 129.86719,-8.01172 8.95312,32.99219 -90.88281,6.02734 c -11.01562,1.03125 -19.96875,4.99609 -26.9414,13.00391 -6.97266,8.01172 -11.01172,18.0039 -9.98438,29.02734 l 4.99219,108.01172 c 1.03125,11.02344 4.99219,19.98437 12.99609,26.96094 6.97266,6.98046 16.95703,9.99218 26.9375,9.99218 1.03125,0 1.03125,0 1.98438,0 l 112.91015,-4.99609 c 11.01172,-1.03125 19.96485,-4.99609 26.9375,-13.00391 6.97266,-8.01172 11.01563,-18.0039 9.98438,-27.99609 l -3.01172,-75.97266 37.95703,27.9961 3.00781,31.00781 1.98047,73.98828 c -5.94141,6.90234 -11.96094,17.84375 -15.92578,19.90625 z m 214.73047,183.90625 h 4.99219 l -33.99219,50.99219 -44.92969,8.01172 44.92969,-62.96875 c 1.02734,-1.03125 1.02734,-1.98047 1.02734,-3.01172 v -29.98047 l 16.00781,1.98437 c -3.96093,3.01172 -6.97265,8.96094 -6.97265,14.03516 v 3.01563 c 0,8.96093 8,17.92187 18.9375,17.92187 z m -390.55469,117.05469 305.69141,-47.02735 59.90234,-9.99218 c 1.03125,0 3.01172,-1.03125 3.96094,-1.98438 l 38.98437,-57.97265 h 24.96094 c -9.98437,65.03125 -29.95312,113.01171 -57.92187,141.0039 -96.90625,98.01953 -281.6836,31.96094 -357.66797,-1.03125 -1.98047,-1.03125 -8.95313,-4.99609 -17.98828,-9.99219 z m 351.64844,-127.04688 -49.91797,70.02735 -307.67188,47.02734 h -1.03125 l -40.96484,19.03125 c -1.98047,1.03125 -4.98828,1.98438 -6.97265,1.98438 -8.95313,0 -16.95313,-6.98047 -16.95313,-16.97266 v -70.02344 c 0,-8.01172 6.01953,-14.99219 14.02344,-16.01953 l 409.5664,-62.96875 z M 486.48436,856.9722 c -103.8789,16.96875 -233.74609,-29.98047 -284.6914,-50.9961 -1.98047,-1.02734 -3.01172,0 -4.99219,0 -1.03125,1.03125 -1.98047,3.01563 -1.98047,3.96875 v 59.95313 L 109.8789,869.9761 78.89843,757.99954 V 621.04251 h 114.89062 v 13.0039 l -48.96875,6.98047 c -12.99218,1.98047 -22.97656,13.00391 -22.97656,26.96094 v 70.02734 c 0,14.98829 11.96485,26.96094 26.9375,26.96094 3.96484,0 8.00391,-1.03125 11.01563,-1.98047 l 32.96093,-14.98828 v 13.00391 c 0,1.98437 1.03125,3.96484 3.01172,4.99609 11.01563,4.9961 19.96875,11.02344 19.96875,11.02344 0,0 0,0 1.02734,0 46.98829,21.01562 134.85938,52.97656 219.80079,52.97656 54.91015,0 108.87109,-14.03906 148.88281,-54.95703 29.95312,-29.97656 50.94922,-80.01953 60.93359,-149.01172 h 29 C 662.30858,757.99954 595.35546,839.99954 486.48436,856.9722 Z M 725.22265,608.0347 c 0,3.96484 -3.96485,8.00781 -8.00391,8.00781 H 595.35546 c -3.96094,0 -8.00391,-3.96485 -8.00391,-8.00781 v -3.01172 c 0,-3.96875 3.96094,-8.01172 8.00391,-8.01172 h 121.86328 c 3.96094,0 8.00391,3.96484 8.00391,8.01172 z m -12.9961,-21.01563 H 598.36718 V 503.0347 l 113.85937,-11.97266 z m 58.95313,-128.94922 c -8.00391,9.99219 -19.96875,16.97266 -32.96485,19.03516 l -176.85156,19.03125 c -11.96484,1.03125 -24.96094,-1.98047 -34.94531,-9.99219 L 472.46093,443.1597 810.08202,404.14407 Z m 148.88281,-77.0039 -524.46094,60.98437 c 4.99219,-6.97656 8.00391,-16.01953 8.95313,-18 0,-1.03125 0,-1.03125 0,-1.98437 l -1.03125,-70.02344 535.47656,-52.02344 v 62.96484 z m 0,0"
     id="path6" />
</svg>
