<?xml version="1.0" encoding="UTF-8" standalone="no"?>
<!-- Created with Inkscape (http://www.inkscape.org/) -->

<svg
   width="1000"
   height="1000"
   version="1.1"
   id="svg16"
   xmlns="http://www.w3.org/2000/svg"
   xmlns:svg="http://www.w3.org/2000/svg"
   xmlns:rdf="http://www.w3.org/1999/02/22-rdf-syntax-ns#"
   xmlns:cc="http://creativecommons.org/ns#"
   xmlns:dc="http://purl.org/dc/elements/1.1/">
  <defs
     id="defs5498" />
  <metadata
     id="metadata5594">
    <rdf:RDF>
      <cc:Work
         rdf:about="">
        <dc:format>image/svg+xml</dc:format>
        <dc:type
           rdf:resource="http://purl.org/dc/dcmitype/StillImage" />
      </cc:Work>
    </rdf:RDF>
  </metadata>
  <path
     style="fill:#000000;fill-opacity:1;fill-rule:nonzero;stroke:none"
     d="M 941.77344,343.5 H 58.226562 c -5.042968,0 -9.25,4.11328 -9.25,9.25391 v 294.49218 c 0,5.04688 4.113282,9.25391 9.25,9.25391 H 941.77344 c 5.04297,0 9.25,-4.11328 9.25,-9.25391 l -0.0937,-294.58593 c 0,-5.04688 -4.11328,-9.16016 -9.15625,-9.16016 z m -9.25,294.58984 H 67.382812 V 361.91016 H 932.52344 Z m 0,0"
     id="path6" />
  <path
     style="fill:#000000;fill-opacity:1;fill-rule:nonzero;stroke:none"
     d="m 205.48437,546.03125 c 25.32032,0 46.06641,-20.65625 46.06641,-46.07813 0,-25.32812 -20.65234,-46.07421 -46.06641,-46.07421 -25.41406,0 -46.06249,20.65234 -46.06249,46.07421 0,25.42188 20.64843,46.07813 46.06249,46.07813 z m 0,-73.64844 c 15.23047,0 27.56641,12.42969 27.56641,27.66406 0,15.23438 -12.42969,27.57032 -27.56641,27.57032 -15.13671,0 -27.5625,-12.42969 -27.5625,-27.57032 -0.0937,-15.23437 12.33204,-27.66406 27.5625,-27.66406 z m 0,0"
     id="path8" />
  <path
     style="fill:#000000;fill-opacity:1;fill-rule:nonzero;stroke:none"
     d="m 389.55859,546.03125 c 25.32032,0 46.0625,-20.65625 46.0625,-46.07813 0,-25.32812 -20.64843,-46.07421 -46.0625,-46.07421 -25.41797,0 -46.0664,20.65234 -46.0664,46.07421 0,25.42188 20.64843,46.07813 46.0664,46.07813 z m 0,-73.64844 c 15.23047,0 27.5625,12.42969 27.5625,27.66406 0,15.23438 -12.42578,27.57032 -27.5625,27.57032 -15.13672,0 -27.5664,-12.42969 -27.5664,-27.57032 -0.0937,-15.23437 12.33593,-27.66406 27.5664,-27.66406 z m 0,0"
     id="path10" />
  <path
     style="fill:#000000;fill-opacity:1;fill-rule:nonzero;stroke:none"
     d="m 573.62891,546.03125 c 25.41406,0 46.0664,-20.65625 46.0664,-46.07813 0,-25.32812 -20.65234,-46.07421 -46.0664,-46.07421 -25.41407,0 -46.06641,20.65234 -46.06641,46.07421 0,25.42188 20.65234,46.07813 46.06641,46.07813 z m 0,-73.64844 c 15.23046,0 27.5625,12.42969 27.5625,27.66406 0,15.23438 -12.42579,27.57032 -27.5625,27.57032 -15.13672,0 -27.5625,-12.42969 -27.5625,-27.57032 -0.0937,-15.23437 12.33203,-27.66406 27.5625,-27.66406 z m 0,0"
     id="path12" />
  <path
     style="fill:#000000;fill-opacity:1;fill-rule:nonzero;stroke:none"
     d="m 720.88672,546.03125 h 110.4414 c 5.04688,0 9.25,-4.11328 9.25,-9.25391 0,-5.04687 -4.10937,-9.2539 -9.25,-9.2539 l -110.4414,0.0937 c -5.04688,0 -9.25,4.11328 -9.25,9.2539 0,5.04688 4.10937,9.16016 9.25,9.16016 z m 0,0"
     id="path14" />
</svg>
