<?xml version="1.0" encoding="UTF-8" standalone="no"?>
<!-- Created with Inkscape (http://www.inkscape.org/) -->

<svg
   width="1000"
   height="1000"
   version="1.1"
   id="svg14"
   xmlns="http://www.w3.org/2000/svg"
   xmlns:svg="http://www.w3.org/2000/svg"
   xmlns:rdf="http://www.w3.org/1999/02/22-rdf-syntax-ns#"
   xmlns:cc="http://creativecommons.org/ns#"
   xmlns:dc="http://purl.org/dc/elements/1.1/">
  <defs
     id="defs5498" />
  <metadata
     id="metadata5594">
    <rdf:RDF>
      <cc:Work
         rdf:about="">
        <dc:format>image/svg+xml</dc:format>
        <dc:type
           rdf:resource="http://purl.org/dc/dcmitype/StillImage" />
      </cc:Work>
    </rdf:RDF>
  </metadata>
  <path
     style="fill:#000000;fill-opacity:1;fill-rule:nonzero;stroke:none"
     d="m 374.43359,500 c 0,-9.91016 8.03125,-17.94531 17.9375,-17.94531 9.91016,0 17.94141,8.03515 17.94141,17.94531 0,9.91016 -8.03125,17.94531 -17.94141,17.94531 -9.90625,0 -17.9375,-8.03515 -17.9375,-17.94531"
     id="path6" />
  <path
     style="fill:#000000;fill-opacity:1;fill-rule:nonzero;stroke:none"
     d="m 553.8125,500 c 0,-9.91016 8.03125,-17.94531 17.9375,-17.94531 9.91016,0 17.9375,8.03515 17.9375,17.94531 0,9.91016 -8.02734,17.94531 -17.9375,17.94531 -9.90625,0 -17.9375,-8.03515 -17.9375,-17.94531"
     id="path8" />
  <path
     style="fill:#000000;fill-opacity:1;fill-rule:nonzero;stroke:none"
     d="m 195.05469,500 c 0,-9.91016 8.03125,-17.94531 17.9414,-17.94531 9.90625,0 17.9375,8.03515 17.9375,17.94531 0,9.91016 -8.03125,17.94531 -17.9375,17.94531 -9.91015,0 -17.9414,-8.03515 -17.9414,-17.94531"
     id="path10" />
  <path
     style="fill:#000000;fill-opacity:1;fill-rule:nonzero;stroke:none"
     d="M 930.50781,338.5 H 69.492188 c -9.925782,0 -17.9375,8.01562 -17.9375,17.94531 v 287.10938 c 0,9.92968 8.011718,17.94531 17.9375,17.94531 H 930.50781 c 9.92578,0 17.9375,-8.01563 17.9375,-17.94531 V 356.44531 c 0,-9.92969 -8.01172,-17.94531 -17.9375,-17.94531 z M 212.99609,553.83203 c -29.6875,0 -53.8164,-24.13672 -53.8164,-53.83203 0,-29.69531 24.1289,-53.83203 53.8164,-53.83203 29.6836,0 53.8125,24.13672 53.8125,53.83203 0,29.69531 -24.1289,53.83203 -53.8125,53.83203 z m 179.375,0 c -29.68359,0 -53.8125,-24.13672 -53.8125,-53.83203 0,-29.69531 24.12891,-53.83203 53.8125,-53.83203 29.6875,0 53.81641,24.13672 53.81641,53.83203 0,29.69531 -24.12891,53.83203 -53.81641,53.83203 z m 179.37891,0 c -29.68359,0 -53.8125,-24.13672 -53.8125,-53.83203 0,-29.69531 24.12891,-53.83203 53.8125,-53.83203 29.68359,0 53.81641,24.13672 53.81641,53.83203 0,29.69531 -24.13282,53.83203 -53.81641,53.83203 z m 251.13281,0 h -107.6289 c -9.92579,0 -17.9375,-8.01562 -17.9375,-17.94141 0,-9.92968 8.01171,-17.94531 17.9375,-17.94531 h 107.6289 c 9.92188,0 17.9375,8.01563 17.9375,17.94531 0,9.92579 -8.01562,17.94141 -17.9375,17.94141 z m 0,0"
     id="path12" />
</svg>
