<?xml version="1.0" encoding="UTF-8" standalone="no"?>
<svg
   width="100"
   height="100"
   version="1.1"
   viewBox="0 0 75.000002 75.000002"
   id="svg4"
   xmlns="http://www.w3.org/2000/svg"
   xmlns:svg="http://www.w3.org/2000/svg">
  <defs
     id="defs8" />
  <path
     d="m 66.14209,13.26792 c 5.62834,7.98296 4.69498,18.93833 -2.33837,25.85197 l -6.97001,6.9951 -28.29609,-28.39408 7.31132,-6.99456 c 3.82887,-3.87089 9.03309,-6.0698 14.47689,-6.11745 4.23528,-0.0661 8.35622,1.33067 11.67291,3.94269 l 8.55178,-8.55177 4.42923,4.42869 z m -26.68838,31.59118 6.24227,-6.16576 3.81316,4.01664 -6.40266,6.44883 5.58272,5.59842 -0.63229,0.63702 -7.272,7.32434 c -3.89343,3.97571 -9.18986,6.24119 -14.72922,6.30199 -4.3087,0.0745 -8.50252,-1.34635 -11.88363,-4.00818 L 4.25554,75.00018 0.02025,70.70101 9.931,60.28278 C 4.0726,51.99783 5.03562,40.5955 12.29715,33.43894 l 7.79733,-7.9839 5.99839,6.04148 6.08657,-6.03356 4.24307,4.30763 -5.98483,6.02832 z m 0.32243,9.94739 -19.67519,-19.83894 -3.23911,3.28206 c -5.53963,5.36823 -5.71063,14.24603 -0.3754,19.83223 l 0.41419,0.44198 c 2.45419,2.68909 5.95758,4.15503 9.59197,4.00712 3.81424,-0.10434 7.43132,-1.73076 10.05597,-4.52198 l 1.56245,-1.6615 v 0.13579 z"
     fill-rule="evenodd"
     id="path2"
     style="stroke-width:0.134219" />
</svg>
