<?xml version="1.0" encoding="UTF-8" standalone="no"?>
<!-- Created with Inkscape (http://www.inkscape.org/) -->

<svg
   width="1000"
   height="1000"
   version="1.1"
   id="svg8"
   xmlns="http://www.w3.org/2000/svg"
   xmlns:svg="http://www.w3.org/2000/svg"
   xmlns:rdf="http://www.w3.org/1999/02/22-rdf-syntax-ns#"
   xmlns:cc="http://creativecommons.org/ns#"
   xmlns:dc="http://purl.org/dc/elements/1.1/">
  <defs
     id="defs5498" />
  <metadata
     id="metadata5594">
    <rdf:RDF>
      <cc:Work
         rdf:about="">
        <dc:format>image/svg+xml</dc:format>
        <dc:type
           rdf:resource="http://purl.org/dc/dcmitype/StillImage" />
      </cc:Work>
    </rdf:RDF>
  </metadata>
  <path
     style="fill:#000000;fill-opacity:1;fill-rule:nonzero;stroke:none"
     d="M 900,550 H 100 c -27.5,0 -50,22.5 -50,50 v 300 c 0,27.5 22.5,50 50,50 h 800 c 27.5,0 50,-22.5 50,-50 V 600 c 0,-27.5 -22.5,-50 -50,-50 z M 250,850 c -55,0 -100,-45 -100,-100 0,-55 45,-100 100,-100 55,0 100,45 100,100 0,55 -45,100 -100,100 z M 900,50 H 100 C 72.5,50 50,72.5 50,100 v 300 c 0,27.5 22.5,50 50,50 h 800 c 27.5,0 50,-22.5 50,-50 V 100 C 950,72.5 927.5,50 900,50 Z M 250,350 c -55,0 -100,-45 -100,-100 0,-55 45,-100 100,-100 55,0 100,45 100,100 0,55 -45,100 -100,100 z m 0,0"
     id="path6" />
</svg>
