<?xml version="1.0" encoding="UTF-8" standalone="no"?>
<!-- Created with Inkscape (http://www.inkscape.org/) -->

<svg
   width="1000"
   height="1000"
   version="1.1"
   id="svg8"
   xmlns="http://www.w3.org/2000/svg"
   xmlns:svg="http://www.w3.org/2000/svg"
   xmlns:rdf="http://www.w3.org/1999/02/22-rdf-syntax-ns#"
   xmlns:cc="http://creativecommons.org/ns#"
   xmlns:dc="http://purl.org/dc/elements/1.1/">
  <defs
     id="defs5498" />
  <metadata
     id="metadata5594">
    <rdf:RDF>
      <cc:Work
         rdf:about="">
        <dc:format>image/svg+xml</dc:format>
        <dc:type
           rdf:resource="http://purl.org/dc/dcmitype/StillImage" />
      </cc:Work>
    </rdf:RDF>
  </metadata>
  <path
     style="fill:#000000;fill-opacity:1;fill-rule:nonzero;stroke:none"
     d="M 455,188.60156 V 50 C 230,72.5 50,266.44922 50,500 50,733.55078 230,927.5 455,950 V 811.39844 C 320,789.80078 185,658.39844 185,500 185,341.60156 320,210.19922 455,188.60156 Z M 813.64844,455 H 950 C 928.85156,230 770,71.148438 545,50 V 188.60156 C 680,207.94922 794.30078,320 813.64844,455 Z M 545,811.39844 V 950 C 770,928.85156 928.85156,770 950,545 H 813.64844 C 794.30078,680 680,792.05078 545,811.39844 Z m 0,0"
     id="path6" />
</svg>
