<?xml version="1.0" encoding="UTF-8" standalone="no"?>
<!-- Created with Inkscape (http://www.inkscape.org/) -->

<svg
   width="1000"
   height="1000"
   version="1.1"
   id="svg8"
   xmlns="http://www.w3.org/2000/svg"
   xmlns:svg="http://www.w3.org/2000/svg"
   xmlns:rdf="http://www.w3.org/1999/02/22-rdf-syntax-ns#"
   xmlns:cc="http://creativecommons.org/ns#"
   xmlns:dc="http://purl.org/dc/elements/1.1/">
  <defs
     id="defs5498" />
  <metadata
     id="metadata5594">
    <rdf:RDF>
      <cc:Work
         rdf:about="">
        <dc:format>image/svg+xml</dc:format>
        <dc:type
           rdf:resource="http://purl.org/dc/dcmitype/StillImage" />
      </cc:Work>
    </rdf:RDF>
  </metadata>
  <path
     style="fill:#000000;fill-opacity:1;fill-rule:nonzero;stroke:none"
     d="M 842.85547,478.59375 H 778.57031 V 307.35547 c 0,-47.08985 -38.57031,-85.61719 -85.71484,-85.61719 H 521.42969 v -64.21484 c 0,-59.078128 -48,-107.02344 -107.14453,-107.02344 -59.14063,0 -107.14063,47.945312 -107.14063,107.02344 v 64.21484 H 135.71484 c -47.144528,0 -85.285152,38.52734 -85.285152,85.61719 V 470.03516 H 114.28516 C 178.14453,470.03516 230,521.83203 230,585.61719 230,649.40625 178.14453,701.20312 114.28516,701.20312 H 50 V 863.88281 C 50,910.97266 88.570312,949.5 135.71484,949.5 h 162.85547 v -64.21484 c 0,-63.78516 51.85938,-115.58594 115.71485,-115.58594 C 478.14453,769.69922 530,821.5 530,885.28516 V 949.5 h 162.85547 c 47.14453,0 85.71484,-38.52734 85.71484,-85.61719 V 692.64453 h 64.28516 C 902,692.64453 950,644.69531 950,585.61719 950,526.54297 902,478.59375 842.85547,478.59375 Z m 0,0"
     id="path6" />
</svg>
