<?xml version="1.0" encoding="UTF-8" standalone="no"?>
<!-- Created with Inkscape (http://www.inkscape.org/) -->

<svg
   width="1000"
   height="1000"
   version="1.1"
   id="svg18"
   xmlns="http://www.w3.org/2000/svg"
   xmlns:svg="http://www.w3.org/2000/svg"
   xmlns:rdf="http://www.w3.org/1999/02/22-rdf-syntax-ns#"
   xmlns:cc="http://creativecommons.org/ns#"
   xmlns:dc="http://purl.org/dc/elements/1.1/">
  <defs
     id="defs5498" />
  <metadata
     id="metadata5594">
    <rdf:RDF>
      <cc:Work
         rdf:about="">
        <dc:format>image/svg+xml</dc:format>
        <dc:type
           rdf:resource="http://purl.org/dc/dcmitype/StillImage" />
      </cc:Work>
    </rdf:RDF>
  </metadata>
  <path
     style="fill:#000000;fill-opacity:1;fill-rule:nonzero;stroke:none"
     d="M 331.32031,63.445311 V 340.34766 h 337.4375 V 63.445311 Z m 72.2461,209.683599 c 0,10.92187 -8.83985,19.75781 -19.76954,19.75781 -5.46484,0 -10.44531,-2.25 -13.98046,-5.78125 -3.61719,-3.61328 -5.78907,-8.51563 -5.78907,-13.97656 V 142.55078 c 0,-10.92188 8.83985,-19.75781 19.76953,-19.75781 5.46485,0 10.44922,2.25 13.98438,5.78515 3.61719,3.61328 5.78516,8.51172 5.78516,13.97266 z m 0,0"
     id="path6" />
  <path
     style="fill:#000000;fill-opacity:1;fill-rule:nonzero;stroke:none"
     d="m 389.74609,273.12891 c -0.16406,4.17968 0.72266,-2.40625 -0.24218,1.60937 -0.88282,3.69141 1.20312,-1.84766 -0.5625,1.44531 -1.76954,3.29297 1.60546,-1.52734 -0.96485,1.20313 -2.57031,2.73047 1.92969,-1.04297 -1.20703,0.96484 -3.13281,2.00781 2.17188,-0.5625 -1.44531,0.5625 -3.69531,1.125 2.33203,0.0781 -1.60547,0.23828 -2.17188,0.082 -2.65234,-0.32031 -4.17969,-1.76562 -1.60937,-1.52735 -1.76953,-2.08594 -1.76953,-4.41797 0,-0.96094 0,-1.84766 0,-2.80859 0,-10.84375 0,-21.6836 0,-32.60547 0,-28.91016 0,-57.90235 0,-86.8125 0,-2.65235 0,-5.21875 0,-7.8711 0,-0.5625 0,-1.04297 0.082,-1.60547 -0.082,2.8086 0.40235,-0.96484 0.5625,-1.44531 -0.80469,2.57031 0.64063,-0.80469 0.88281,-1.28516 -1.44531,2.25 0.80469,-0.64453 1.20704,-0.96484 -1.92969,1.84766 0.96484,-0.48047 1.36718,-0.64062 -2.41406,1.28515 1.125,-0.16016 1.60547,-0.32032 -3.13281,0.72266 3.13281,0.5586 1.36719,0.16016 3.13281,0.64062 -0.32422,-0.5625 2.32812,0.96094 -1.52734,-0.88282 1.76954,1.76953 1.76954,1.76953 -1.28516,-1.36719 0.88281,2.24609 0.16015,0.48047 1.125,3.05078 0.40235,-0.72266 0.48047,2.57031 0,0.5625 0,1.04297 0,1.60547 0,3.69531 0,7.30859 0,11.00391 0,29.71093 0,59.50781 0,89.21875 0.16406,9.55859 0.16406,19.19531 0.16406,28.75 0,7.55078 6.26563,13.8164 13.82032,13.8164 7.55468,0 13.82421,-6.26562 13.82421,-13.8164 0,-22.08204 0,-44.16797 0,-66.25391 0,-15.01563 0,-29.95312 0,-44.96875 0,-7.39062 0.64063,-15.10156 -0.24218,-22.48828 -2.17188,-17.50781 -16.71485,-31 -34.71485,-30.35547 -14.94922,0.48047 -27.96875,11.48437 -31.42187,25.9375 -1.92969,8.03125 -0.88672,17.34766 -0.88672,25.53906 0,30.11719 0,60.23047 0,90.34766 0,8.35156 -0.72266,17.18359 0.24219,25.45703 2.41015,19.67578 20.08984,33.08594 39.77734,29.71484 15.99219,-2.73047 26.76172,-17.26953 27.24609,-32.92968 0.23829,-7.54688 -6.51171,-13.8125 -13.82421,-13.8125 -7.71485,-0.0781 -13.58204,6.26562 -13.82032,13.8125 z m 0,0"
     id="path8" />
  <path
     style="fill:#000000;fill-opacity:1;fill-rule:nonzero;stroke:none"
     d="m 317.5,63.445311 c 0,42.886719 0,85.691409 0,128.574219 0,48.82813 0,97.65625 0,146.48047 0,0.64453 0,1.20703 0,1.84766 0,7.55078 6.26953,13.8125 13.82031,13.8125 38.09375,0 76.1836,0 114.19531,0 60.59375,0 121.1836,0 181.77735,0 13.82031,0 27.5625,0 41.38672,0 7.55078,0 13.82031,-6.26172 13.82031,-13.8125 0,-42.88282 0,-85.6875 0,-128.57032 0,-48.82812 0,-97.65625 0,-146.484372 0,-0.640625 0,-1.203125 0,-1.847657 0,-7.546874 -6.26953,-13.8125 -13.82031,-13.8125 -38.09375,0 -76.1836,0 -114.19532,0 -60.59375,0 -121.18359,0 -181.77734,0 -13.82031,0 -27.5625,0 -41.38672,0 -7.55078,0 -13.82031,6.265626 -13.82031,13.8125 0,7.550782 6.26953,13.816407 13.82031,13.816407 38.09375,0 76.1836,0 114.19531,0 60.59375,0 121.1836,0 181.77735,0 13.82031,0 27.5625,0 41.38672,0 -4.58203,-4.578125 -9.24219,-9.238281 -13.82422,-13.816407 0,42.886719 0,85.691409 0,128.574219 0,48.82813 0,97.65625 0,146.48047 0,0.64453 0,1.20703 0,1.84766 4.58203,-4.57813 9.24219,-9.23438 13.82422,-13.8125 -38.09375,0 -76.1836,0 -114.19532,0 -60.59375,0 -121.18359,0 -181.77734,0 -13.82031,0 -27.5625,0 -41.38672,0 4.58203,4.57812 9.24219,9.23437 13.82422,13.8125 0,-42.88282 0,-85.6875 0,-128.57032 0,-48.82812 0,-97.65625 0,-146.484372 0,-0.640625 0,-1.203125 0,-1.847657 0,-7.546874 -6.26953,-13.8125 -13.82422,-13.8125 -7.55078,0 -13.82031,6.265626 -13.82031,13.8125 z m 0,0"
     id="path10" />
  <path
     style="fill:#000000;fill-opacity:1;fill-rule:nonzero;stroke:none"
     d="m 331.32031,381.86719 v 526.01562 h 29.65625 v 28.67188 h 16.79297 v -28.67188 h 243.41406 v 28.67188 h 15.83203 v -28.67188 h 31.66407 l 0.0781,-526.01562 z m 73.29297,223.49609 c 0,10.92188 -8.83984,19.75781 -19.76953,19.75781 -5.46484,0 -10.44922,-2.25 -13.98438,-5.78515 -3.53515,-3.53125 -5.78515,-8.51172 -5.78515,-13.97266 l -0.082,-170.08984 c 0,-10.92188 8.83984,-19.75782 19.76953,-19.75782 5.46484,0 10.44922,2.25 13.98437,5.78125 3.61329,3.61719 5.78516,8.51563 5.78516,13.97657 z m 0,0"
     id="path12" />
  <path
     style="fill:#000000;fill-opacity:1;fill-rule:nonzero;stroke:none"
     d="m 317.5,381.86719 c 0,27.54687 0,55.01172 0,82.55468 0,60.47266 0,120.94532 0,181.41797 0,60.3086 0,120.6211 0,180.9336 0,27.0625 0,54.04687 0,81.10937 0,7.55078 6.26953,13.8125 13.82031,13.8125 9.88672,0 19.76953,0 29.65625,0 -4.58203,-4.57812 -9.24219,-9.23437 -13.82422,-13.8125 0,9.5586 0,19.11328 0,28.67188 0,7.54687 6.26953,13.8125 13.82422,13.8125 5.625,0 11.25,0 16.79297,0 7.55469,0 13.82422,-6.26563 13.82422,-13.8125 0,-9.5586 0,-19.11328 0,-28.67188 -4.58203,4.57813 -9.24219,9.23438 -13.82422,13.8125 45.64453,0 91.37109,0 137.01563,0 35.4414,0 70.96093,0 106.39843,0 -4.57812,-4.57812 -9.24218,-9.23437 -13.82031,-13.8125 0,9.5586 0,19.11328 0,28.67188 0,7.54687 6.26563,13.8125 13.82031,13.8125 5.30469,0 10.52735,0 15.83203,0 7.55469,0 13.82032,-6.26563 13.82032,-13.8125 0,-9.5586 0,-19.11328 0,-28.67188 -4.57813,4.57813 -9.23828,9.23438 -13.82032,13.8125 10.52735,0 21.13672,0 31.66407,0 7.55078,0 13.82031,-6.26172 13.82031,-13.8125 0,-27.54687 0,-55.01172 0,-82.55469 0,-60.47265 0,-120.94531 0,-181.41796 0,-60.3086 0,-120.6211 0,-180.9336 0,-27.0625 0,-54.04687 0,-81.10937 0,-7.54688 -6.26953,-13.8125 -13.82031,-13.8125 -38.09375,0 -76.1836,0 -114.19532,0 -60.59375,0 -121.18359,0 -181.77734,0 -13.82031,0 -27.5625,0 -41.38672,0 -7.55078,0 -13.82031,6.26562 -13.82031,13.8125 0,7.55078 6.26953,13.8125 13.82031,13.8125 38.09375,0 76.1836,0 114.19531,0 60.59375,0 121.1836,0 181.77735,0 13.82031,0 27.5625,0 41.38672,0 -4.58203,-4.57813 -9.24219,-9.23438 -13.82422,-13.8125 0,27.54687 0,55.01172 0,82.55468 0,60.47266 0,120.94532 0,181.41797 0,60.3086 0,120.6211 0,180.9336 0,27.0625 0,54.04687 0,81.10937 4.58203,-4.57812 9.24219,-9.23437 13.82422,-13.8125 -10.52735,0 -21.13672,0 -31.66407,0 -7.55468,0 -13.82031,6.26563 -13.82031,13.8125 0,9.5586 0,19.11328 0,28.67188 4.57813,-4.57813 9.23828,-9.23828 13.82031,-13.81641 -5.30468,0 -10.52734,0 -15.83203,0 4.58203,4.57813 9.24219,9.23828 13.82422,13.81641 0,-9.5586 0,-19.11328 0,-28.67188 0,-7.54687 -6.26953,-13.8125 -13.82422,-13.8125 -45.64453,0 -91.37109,0 -137.01562,0 -35.4375,0 -70.95703,0 -106.39844,0 -7.55078,0 -13.82031,6.26563 -13.82031,13.8125 0,9.5586 0,19.11328 0,28.67188 4.57812,-4.57813 9.24219,-9.23828 13.82031,-13.81641 -5.625,0 -11.25,0 -16.79297,0 4.57813,4.57813 9.24219,9.23828 13.82031,13.81641 0,-9.5586 0,-19.11328 0,-28.67188 0,-7.54687 -6.26953,-13.8125 -13.82031,-13.8125 -9.88672,0 -19.76953,0 -29.65625,0 4.58203,4.57813 9.24219,9.23438 13.82422,13.8125 0,-27.54687 0,-55.01172 0,-82.55469 0,-60.47265 0,-120.94531 0,-181.41796 0,-60.3086 0,-120.6211 0,-180.9336 0,-27.0625 0,-54.04687 0,-81.10937 0,-7.54688 -6.26953,-13.8125 -13.82422,-13.8125 -7.55078,0 -13.82031,6.26562 -13.82031,13.8125 z m 0,0"
     id="path14" />
  <path
     style="fill:#000000;fill-opacity:1;fill-rule:nonzero;stroke:none"
     d="m 390.70703,605.36328 c -0.16016,4.17578 0.72656,-2.41016 -0.23828,1.60547 -0.88672,3.69531 1.20312,-1.84766 -0.5625,1.44531 -1.76953,3.29297 1.60547,-1.52344 -0.96484,1.20703 -2.57032,2.73047 1.92968,-1.04687 -1.20704,0.96094 -3.13281,2.00781 2.17188,-0.55859 -1.44531,0.5625 -3.69531,1.125 2.33203,0.082 -1.60547,0.24219 -2.17187,0.082 -2.65234,-0.32031 -4.17968,-1.76563 -1.60938,-1.44531 -1.76954,-2.08984 -1.76954,-4.41797 0,-0.72265 0,-1.44531 0,-2.16796 0,-8.91407 0,-17.91016 0,-26.82422 0,-31.07813 0,-62.15625 0,-93.23438 0,-12.20703 0,-24.41406 0,-36.62109 0,-3.13281 0,-6.26563 0,-9.31641 0,-0.5625 0,-1.04297 0,-1.60547 0,-4.01562 -0.64062,2.00782 0.24219,-1.6875 0.88281,-3.69531 -1.20703,1.84766 0.5625,-1.44531 0.88281,-1.36719 0.88281,-1.44531 0.0781,-0.24219 0.5625,-0.64062 1.12891,-1.20312 1.76953,-1.76562 -1.92968,1.84765 0.96485,-0.48047 1.36719,-0.64063 -2.41016,1.28125 1.125,-0.16406 1.60547,-0.32422 -2.8125,0.64454 1.52734,0.16016 1.92969,0.16016 -2.00782,-0.0781 2.16797,1.04688 0.48047,0.24219 2.89453,1.36719 3.85937,3.13281 3.85937,5.70312 0,1.84766 0,3.69141 0,5.53907 0,10.51953 0,21.12109 0,31.64062 0.0781,44.17188 0.0781,88.42188 0.0781,132.75 0,7.55078 6.26953,13.8125 13.82422,13.8125 7.55469,0 13.82031,-6.26172 13.82031,-13.8125 0,-49.39062 0,-98.77734 0,-148.16797 0,-7.14844 0,-14.29297 0,-21.4414 0,-12.28907 -6.26562,-22.48438 -16.23047,-29.23047 -13.01953,-8.83594 -31.74219,-5.14063 -42.03125,5.9414 -8.59765,9.15625 -9,20.31641 -9,31.88282 0,11.72265 0,23.36718 0,35.09375 0,31.23828 0,62.39843 0,93.63671 0,9.64063 0,19.19532 0,28.83204 0,3.53515 0,6.90625 0.72266,10.35937 3.29687,16.14063 19.04687,28.26953 35.60156,26.58203 17.59766,-1.76562 30.375,-15.82031 30.9375,-33.40625 0.24219,-7.55078 -6.50781,-13.8125 -13.82031,-13.8125 -7.71485,-0.16406 -13.58203,6.1836 -13.82422,13.73047 z m 0,0"
     id="path16" />
</svg>
