<?xml version="1.0" encoding="UTF-8" standalone="no"?>
<!-- Created with Inkscape (http://www.inkscape.org/) -->

<svg
   width="1000"
   height="1000"
   version="1.1"
   id="svg10"
   xmlns="http://www.w3.org/2000/svg"
   xmlns:svg="http://www.w3.org/2000/svg"
   xmlns:rdf="http://www.w3.org/1999/02/22-rdf-syntax-ns#"
   xmlns:cc="http://creativecommons.org/ns#"
   xmlns:dc="http://purl.org/dc/elements/1.1/">
  <defs
     id="defs5498" />
  <metadata
     id="metadata5594">
    <rdf:RDF>
      <cc:Work
         rdf:about="">
        <dc:format>image/svg+xml</dc:format>
        <dc:type
           rdf:resource="http://purl.org/dc/dcmitype/StillImage" />
      </cc:Work>
    </rdf:RDF>
  </metadata>
  <path
     style="fill:#000000;fill-opacity:1;fill-rule:nonzero;stroke:none"
     d="M 347.89844,949.37929 H 652.10156 L 719.67578,577.98475 H 753.5 V 544.19569 H 516.875 V 432.6371 C 660.44922,521.66835 770.41016,403.05116 664.73047,257.27382 774.55078,105.79335 651.60156,-17.101184 499.96484,92.676159 348.39844,-17.101184 225.37891,105.79335 335.19922,257.27382 229.51562,403.05116 339.48047,521.66835 483.05078,432.6371 V 544.266 l -202.72656,-0.0703 H 246.5 v 33.78906 h 33.82422 z m 67.57812,-692.10547 c 0,-46.6211 37.82031,-84.40235 84.48828,-84.40235 46.66797,0 84.48828,37.78125 84.48828,84.40235 0,46.62109 -37.82031,84.40234 -84.48828,84.40234 -46.66797,0 -84.48828,-37.78125 -84.48828,-84.40234 z m 0,0"
     id="path6" />
  <path
     style="fill:#000000;fill-opacity:1;fill-rule:nonzero;stroke:none"
     d="m 449.30078,257.27382 c 0,-27.97266 22.69922,-50.64844 50.69922,-50.64844 28,0 50.69922,22.67578 50.69922,50.64844 0,27.97265 -22.69922,50.64843 -50.69922,50.64843 -28,0 -50.69922,-22.67578 -50.69922,-50.64843"
     id="path8" />
</svg>
