<?xml version="1.0" encoding="UTF-8" standalone="no"?>
<!-- Created with Inkscape (http://www.inkscape.org/) -->

<svg
   width="1000"
   height="1000"
   version="1.1"
   id="svg8"
   xmlns="http://www.w3.org/2000/svg"
   xmlns:svg="http://www.w3.org/2000/svg"
   xmlns:rdf="http://www.w3.org/1999/02/22-rdf-syntax-ns#"
   xmlns:cc="http://creativecommons.org/ns#"
   xmlns:dc="http://purl.org/dc/elements/1.1/">
  <defs
     id="defs5498" />
  <metadata
     id="metadata5594">
    <rdf:RDF>
      <cc:Work
         rdf:about="">
        <dc:format>image/svg+xml</dc:format>
        <dc:type
           rdf:resource="http://purl.org/dc/dcmitype/StillImage" />
      </cc:Work>
    </rdf:RDF>
  </metadata>
  <path
     style="fill:#000000;fill-opacity:1;fill-rule:nonzero;stroke:none"
     d="m 140,590 c 0,198 162,360 360,360 198,0 360,-162 360,-360 H 770 C 770,738.5 648.5,860 500,860 351.5,860 230,738.5 230,590 230,441.5 351.5,320 500,320 V 500 L 725,275 500,50 V 230 C 302,230 140,392 140,590 Z m 301.5,40.5 9,-99 h 108 V 563 H 482 l -4.5,40.5 c 0,0 4.5,0 4.5,-4.5 0,-4.5 4.5,0 4.5,-4.5 0,-4.5 4.5,0 9,0 h 9 c 9,0 18,0 22.5,4.5 4.5,4.5 13.5,9 18,13.5 4.5,4.5 9,13.5 13.5,22.5 4.5,9 4.5,18 4.5,27 0,9 0,18 -4.5,22.5 C 554,689 554,698 545,707 c -9,9 -13.5,9 -22.5,13.5 -9,4.5 -18,4.5 -27,4.5 -9,0 -18,0 -22.5,-4.5 -4.5,-4.5 -13.5,-4.5 -22.5,-9 -9,-4.5 -9,-9 -13.5,-18 -4.5,-9 -4.5,-13.5 -4.5,-22.5 h 36 c 0,9 4.5,13.5 9,18 4.5,4.5 9,4.5 18,4.5 4.5,0 9,0 13.5,-4.5 l 9,-9 c 0,0 4.5,-9 4.5,-13.5 v -27 l -4.5,-9 -9,-9 c 0,0 -9,-4.5 -13.5,-4.5 h -9 c 0,0 -4.5,0 -9,4.5 -4.5,4.5 -4.5,0 -4.5,4.5 0,4.5 -4.5,4.5 -4.5,4.5 z m 0,0"
     id="path6" />
</svg>
