<?xml version="1.0" encoding="UTF-8" standalone="no"?>
<!-- Created with Inkscape (http://www.inkscape.org/) -->

<svg
   width="1000"
   height="1000"
   version="1.1"
   id="svg10"
   xmlns="http://www.w3.org/2000/svg"
   xmlns:svg="http://www.w3.org/2000/svg"
   xmlns:rdf="http://www.w3.org/1999/02/22-rdf-syntax-ns#"
   xmlns:cc="http://creativecommons.org/ns#"
   xmlns:dc="http://purl.org/dc/elements/1.1/">
  <defs
     id="defs5498" />
  <metadata
     id="metadata5594">
    <rdf:RDF>
      <cc:Work
         rdf:about="">
        <dc:format>image/svg+xml</dc:format>
        <dc:type
           rdf:resource="http://purl.org/dc/dcmitype/StillImage" />
      </cc:Work>
    </rdf:RDF>
  </metadata>
  <path
     style="fill:#000000;fill-opacity:1;fill-rule:nonzero;stroke:none"
     d="m 616.96484,895.94922 c 13.53516,-13.53125 17.98828,-31.51953 17.98828,-49.50781 0,-26.98438 -8.99609,-53.96485 -31.52343,-72.03907 -4.53907,13.53516 -4.53907,26.98438 -8.99219,35.97657 0,4.53906 -4.53906,8.99218 -4.53906,13.53515 -4.54297,4.53906 -8.9961,4.53906 -13.53516,0 0,0 -4.53906,-4.54297 -4.53906,-8.99609 0,-13.53125 0,-26.98047 0,-40.51563 -4.53906,-26.98047 -35.97656,-44.96875 -40.51563,-76.49218 -4.53906,-22.52735 8.99219,-44.96875 8.99219,-62.95704 -31.51953,0 -58.50391,22.52735 -76.49219,44.96875 -8.99218,8.9961 -17.98828,22.52735 -22.52734,31.52344 -13.53516,22.52735 -17.98828,44.96875 -13.53516,67.4961 0,4.54296 4.54297,8.99609 0,17.98828 0,4.53906 -4.53906,8.99609 -13.53125,8.99609 -4.53906,0 -8.99609,-4.53906 -13.53515,-13.53516 -4.53907,-8.99218 -8.99219,-17.98828 -17.98828,-22.52734 0,0 0,-4.53906 -4.53907,0 0,0 -4.53906,0 -4.53906,4.53906 -4.53906,17.98828 -8.99609,35.97657 -8.99609,53.96485 0,4.53906 0,8.99218 0,13.53515 0,0 0,0 0,4.53907 0,4.53906 0,8.99218 0,17.98828 v 4.53906 c 0,4.53906 0,4.53906 0,8.99219 0,4.54297 4.54297,4.54297 4.54297,8.99609 l 4.53906,4.53906 c 26.98047,31.52344 72.03515,58.50391 126,58.50391 49.76953,0 94.82422,-22.52734 117.26562,-54.05078 z M 563,918.47656 C 554.00781,936.46484 527.02344,950 500.04297,950 c -31.52344,0 -53.96485,-13.53516 -67.5,-35.97656 v -4.53907 c 0,0 0,-4.53906 -4.53906,-4.53906 v -4.53906 c 0,-4.54297 0,-4.54297 0,-8.99609 0,-4.53907 0,-4.53907 0,-8.99219 0,-8.9961 4.53906,-22.52735 4.53906,-31.52344 4.54297,4.53906 8.99609,8.99609 8.99609,13.53516 0,4.53906 4.53906,4.53906 8.99219,4.53906 4.54297,0 4.54297,-4.53906 4.54297,-4.53906 0,-4.53907 0,-4.53907 0,-8.9961 -4.54297,-13.53125 0,-26.98047 4.53906,-35.97656 4.53906,-4.53906 8.99219,-13.53125 13.53125,-17.98828 13.53516,-13.53125 26.98438,-22.52734 44.97266,-26.98047 0,13.53516 -4.53907,22.52734 -4.53907,35.97656 0,13.44922 17.98829,26.98047 22.52735,40.51563 0,8.99219 0,13.53515 0,22.52734 v 4.53906 c 0,0 4.53906,0 8.99219,0 0,0 4.53906,-4.53906 4.53906,-8.99218 0,-8.9961 4.54297,-13.53516 4.54297,-22.52735 13.53125,8.99219 17.98437,26.98047 17.98437,40.51563 4.28516,13.44531 -0.16797,22.4414 -9.16406,31.43359 z m 0,0"
     id="path6" />
  <path
     style="fill:#000000;fill-opacity:1;fill-rule:nonzero;stroke:none"
     d="M 680.00781,189.53516 V 50 H 319.99219 V 184.99609 L 50,545.01172 h 900 z m 0,0"
     id="path8" />
</svg>
