<?xml version="1.0" encoding="UTF-8" standalone="no"?>
<!-- Created with Inkscape (http://www.inkscape.org/) -->

<svg
   width="1000"
   height="1000"
   version="1.1"
   id="svg8"
   xmlns="http://www.w3.org/2000/svg"
   xmlns:svg="http://www.w3.org/2000/svg"
   xmlns:rdf="http://www.w3.org/1999/02/22-rdf-syntax-ns#"
   xmlns:cc="http://creativecommons.org/ns#"
   xmlns:dc="http://purl.org/dc/elements/1.1/">
  <defs
     id="defs5498" />
  <metadata
     id="metadata5594">
    <rdf:RDF>
      <cc:Work
         rdf:about="">
        <dc:format>image/svg+xml</dc:format>
        <dc:type
           rdf:resource="http://purl.org/dc/dcmitype/StillImage" />
      </cc:Work>
    </rdf:RDF>
  </metadata>
  <path
     style="fill:#000000;fill-opacity:1;fill-rule:nonzero;stroke:none"
     d="m 385.35509,917.34149 c 5.64844,1.74609 11.71094,0.92187 16.64453,-2.05469 5.03516,-3.08203 8.42578,-8.21484 9.35156,-13.96875 3.49219,-21.56641 22.70703,-45.80078 45.3125,-69.83203 14.28516,24.03125 37.30078,62.54297 56.82422,93.25 3.69922,5.85156 10.17188,9.44531 17.05859,9.44531 0.30469,0 0.61329,0 0.92188,0 15.72266,-0.71875 20.75781,-0.92187 98.74609,-210.9375 4.52344,6.0586 9.76172,12.11719 15.72266,18.48438 35.75781,38.10156 105.21875,86.77734 123.82031,86.77734 5.33985,0 11.09375,-2.25781 14.79297,-6.05859 139.64453,-139.5625 134.09375,-318.66797 -14.69141,-467.3711 -5.85937,-5.85547 -14.69531,-13.86328 -25.48437,-23.51953 -54.25391,-48.67578 -181.05078,-162.25781 -136.55859,-231.0664 0,0 0.10156,-0.10157 0.10156,-0.10157 7.70703,-7.703121 7.91406,-20.02734 0.61719,-28.035152 -7.39844,-8.011719 -19.73047,-8.730469 -27.94922,-1.746094 0,0 -0.10157,0.101562 -0.20703,0.101562 -0.41016,0.308594 -0.71875,0.617188 -1.12891,1.027344 0,0 0,0 -0.10156,0 C 554.79259,93.196958 355.76134,280.7243 412.37853,600.21258 370.24962,543.41961 304.99962,447.9118 246.22618,358.15789 c -3.39062,-5.13671 -8.83984,-8.42187 -14.90234,-9.03906 -6.16406,-0.61719 -12.125,1.53906 -16.4375,5.85547 -142.210939,142.64453 -133.066408,308.60156 25.78906,467.26953 43.875,43.7461 85.08203,76.50781 144.67969,95.09766 z m 0,0"
     id="path6" />
</svg>
