<?xml version="1.0" encoding="UTF-8" standalone="no"?>
<!-- Created with Inkscape (http://www.inkscape.org/) -->

<svg
   width="1000"
   height="1000"
   version="1.1"
   id="svg8"
   xmlns="http://www.w3.org/2000/svg"
   xmlns:svg="http://www.w3.org/2000/svg"
   xmlns:rdf="http://www.w3.org/1999/02/22-rdf-syntax-ns#"
   xmlns:cc="http://creativecommons.org/ns#"
   xmlns:dc="http://purl.org/dc/elements/1.1/">
  <defs
     id="defs5498" />
  <metadata
     id="metadata5594">
    <rdf:RDF>
      <cc:Work
         rdf:about="">
        <dc:format>image/svg+xml</dc:format>
        <dc:type
           rdf:resource="http://purl.org/dc/dcmitype/StillImage" />
      </cc:Work>
    </rdf:RDF>
  </metadata>
  <path
     style="fill:#000000;fill-opacity:1;fill-rule:nonzero;stroke:none"
     d="m 365,488.75 c -31.05078,0 -56.25,25.19922 -56.25,56.25 0,31.05078 25.19922,56.25 56.25,56.25 31.05078,0 56.25,-25.19922 56.25,-56.25 0,-31.05078 -25.19922,-56.25 -56.25,-56.25 z m 270,0 c -31.05078,0 -56.25,25.19922 -56.25,56.25 0,31.05078 25.19922,56.25 56.25,56.25 31.05078,0 56.25,-25.19922 56.25,-56.25 0,-31.05078 -25.19922,-56.25 -56.25,-56.25 z M 500,50 C 251.60156,50 50,251.60156 50,500 50,748.39844 251.60156,950 500,950 748.39844,950 950,748.39844 950,500 950,251.60156 748.39844,50 500,50 Z m 0,810 C 301.55078,860 140,698.44922 140,500 c 0,-13.05078 0.89844,-26.10156 2.25,-38.69922 106.19922,-47.25 190.35156,-134.10156 234.44922,-241.65234 C 458.14844,334.85156 592.25,410 743.89844,410 779,410 812.75,405.94922 845.14844,398.30078 854.60156,430.25 860,464.44922 860,500 860,698.44922 698.44922,860 500,860 Z m 0,0"
     id="path6" />
</svg>
