<?xml version="1.0" encoding="UTF-8" standalone="no"?>
<!-- Created with Inkscape (http://www.inkscape.org/) -->

<svg
   width="1000"
   height="1000"
   version="1.1"
   id="svg8"
   xmlns="http://www.w3.org/2000/svg"
   xmlns:svg="http://www.w3.org/2000/svg"
   xmlns:rdf="http://www.w3.org/1999/02/22-rdf-syntax-ns#"
   xmlns:cc="http://creativecommons.org/ns#"
   xmlns:dc="http://purl.org/dc/elements/1.1/">
  <defs
     id="defs5498" />
  <metadata
     id="metadata5594">
    <rdf:RDF>
      <cc:Work
         rdf:about="">
        <dc:format>image/svg+xml</dc:format>
        <dc:type
           rdf:resource="http://purl.org/dc/dcmitype/StillImage" />
      </cc:Work>
    </rdf:RDF>
  </metadata>
  <path
     style="fill:#000000;fill-opacity:1;fill-rule:nonzero;stroke:none"
     d="m 761.67578,161.14844 c -3.60156,0 -7.19922,-0.89844 -10.35156,-2.69922 C 664.92578,113.89844 590.22656,95 500.67578,95 c -89.10156,0 -173.69922,21.14844 -250.65234,63.44922 -10.79688,5.85156 -24.29688,1.80078 -30.59766,-9 -5.85156,-10.80078 -1.80078,-24.75 9,-30.59766 C 312.125,73.398438 403.92578,50 500.67578,50 c 95.84766,0 179.55078,21.148438 271.34766,68.39844 11.25,5.85156 15.30078,19.35156 9.45312,30.15234 -4.05078,8.09766 -11.70312,12.59766 -19.80078,12.59766 z m -643.94922,236.25 c -4.5,0 -9,-1.34766 -13.05078,-4.04688 -10.351561,-7.20312 -12.601561,-21.15234 -5.402342,-31.5 44.550782,-63 101.250002,-112.5 168.750002,-147.15234 141.30078,-72.89844 322.20312,-73.34766 463.95312,-0.44922 67.5,34.64844 124.19922,83.69922 168.75,146.25 7.19922,9.89844 4.94922,24.30078 -5.40234,31.5 -10.34766,7.19922 -24.30078,4.94922 -31.5,-5.39844 -40.5,-56.70312 -91.80078,-101.25 -152.55078,-132.30078 -129.14844,-66.15234 -294.29688,-66.15234 -423,0.44922 -61.19922,31.5 -112.5,76.5 -153,133.19922 -3.59766,6.30078 -10.34766,9.44922 -17.54688,9.44922 z m 281.25,543.15234 c -5.85156,0 -11.70312,-2.25 -15.75,-6.75 C 344.07422,894.64844 322.92578,869.44922 292.77344,815 c -31.04688,-55.35156 -47.25,-122.85156 -47.25,-195.30078 0,-133.64844 114.30078,-242.55078 254.70312,-242.55078 140.39844,0 254.69922,108.90234 254.69922,242.55078 0,12.60156 -9.90234,22.5 -22.5,22.5 -12.60156,0 -22.5,-9.89844 -22.5,-22.5 0,-108.89844 -94.05078,-197.55078 -209.69922,-197.55078 -115.65234,0 -209.70312,88.65234 -209.70312,197.55078 0,64.80078 14.40234,124.65234 41.85156,173.25 28.80078,51.75 48.60156,73.80078 83.25,108.90234 8.55078,9 8.55078,22.94922 0,31.94922 -4.94922,4.5 -10.80078,6.75 -16.64844,6.75 z m 322.64844,-83.25 c -53.55078,0 -100.80078,-13.5 -139.5,-40.05078 C 515.07422,771.80078 475.02344,698 475.02344,619.69922 c 0,-12.59766 9.90234,-22.5 22.5,-22.5 12.60156,0 22.5,9.90234 22.5,22.5 0,63.44922 32.40234,123.30078 87.30078,160.19922 31.94922,21.60156 69.30078,31.95312 114.30078,31.95312 10.80078,0 28.80078,-1.35156 46.80078,-4.5 12.14844,-2.25 23.84766,5.84766 26.09766,18.44922 2.25,12.14844 -5.84766,23.84766 -18.44922,26.09766 -25.64844,4.95312 -48.14844,5.40234 -54.44922,5.40234 z M 631.17578,950 c -1.80078,0 -4.05078,-0.44922 -5.85156,-0.89844 -71.55078,-19.80078 -118.34766,-46.35156 -167.39844,-94.5 -63,-62.55078 -97.65234,-145.80078 -97.65234,-234.90234 0,-72.89844 62.10156,-132.30078 138.60156,-132.30078 76.5,0 138.60156,59.40234 138.60156,132.30078 0,48.15234 41.84766,87.30078 93.59766,87.30078 51.75,0 93.60156,-39.14844 93.60156,-87.30078 0,-169.64844 -146.25,-307.34766 -326.25,-307.34766 -127.80078,0 -244.80078,71.09766 -297.44922,181.34766 -17.55078,36.44922 -26.55078,79.19922 -26.55078,126 0,35.10156 3.14844,90.44922 30.14844,162.44922 4.5,11.70312 -1.34766,24.75 -13.05078,28.80078 -11.69922,4.5 -24.75,-1.80078 -28.79688,-13.05078 C 140.67578,738.94922 129.875,680.44922 129.875,619.69922 c 0,-54 10.35156,-103.05078 30.60156,-145.80078 59.84766,-125.54688 192.59766,-207 337.94922,-207 204.75,0 371.25,157.95312 371.25,352.35156 0,72.89844 -62.10156,132.30078 -138.60156,132.30078 -76.5,0 -138.59766,-59.40234 -138.59766,-132.30078 0,-48.14844 -41.85156,-87.30078 -93.60156,-87.30078 -51.75,0 -93.60156,39.15234 -93.60156,87.30078 0,76.94922 29.70312,148.94922 84.15234,202.94922 42.75,42.30078 83.69922,65.69922 147.14844,83.25 12.15234,3.15234 18.90234,15.75 15.75,27.44922 C 650.07422,943.25 640.625,950 631.17578,950 Z m 0,0"
     id="path6" />
</svg>
