<?xml version="1.0" encoding="UTF-8" standalone="no"?>
<!-- Created with Inkscape (http://www.inkscape.org/) -->

<svg
   width="1000"
   height="1000"
   version="1.1"
   id="svg8"
   xmlns="http://www.w3.org/2000/svg"
   xmlns:svg="http://www.w3.org/2000/svg"
   xmlns:rdf="http://www.w3.org/1999/02/22-rdf-syntax-ns#"
   xmlns:cc="http://creativecommons.org/ns#"
   xmlns:dc="http://purl.org/dc/elements/1.1/">
  <defs
     id="defs5498" />
  <metadata
     id="metadata5594">
    <rdf:RDF>
      <cc:Work
         rdf:about="">
        <dc:format>image/svg+xml</dc:format>
        <dc:type
           rdf:resource="http://purl.org/dc/dcmitype/StillImage" />
      </cc:Work>
    </rdf:RDF>
  </metadata>
  <path
     style="fill:#000000;fill-opacity:1;fill-rule:nonzero;stroke:none"
     d="M 860,140 H 140 c -49.949219,0 -89.550781,40.05078 -89.550781,90 L 50,770 c 0,49.94922 40.050781,90 90,90 h 720 c 49.94922,0 90,-40.05078 90,-90 V 230 c 0,-49.94922 -40.05078,-90 -90,-90 z M 342.5,635 h -54 L 173.75,477.5 V 635 H 117.5 V 365 h 56.25 l 112.5,157.5 V 365 h 56.25 z m 225,-213.30078 H 455 v 50.40234 h 112.5 v 56.69922 H 455 V 578.75 H 567.5 V 635 h -180 V 365 h 180 z M 882.5,590 c 0,24.75 -20.25,45 -45,45 h -180 c -24.75,0 -45,-20.25 -45,-45 V 365 h 56.25 v 202.94922 h 50.85156 V 409.55078 h 56.25 V 567.5 H 826.25 V 365 h 56.25 z m 0,0"
     id="path6" />
</svg>
