<?xml version="1.0" encoding="UTF-8" standalone="no"?>
<!-- Created with Inkscape (http://www.inkscape.org/) -->

<svg
   width="1000"
   height="1000"
   version="1.1"
   id="svg20"
   xmlns="http://www.w3.org/2000/svg"
   xmlns:svg="http://www.w3.org/2000/svg"
   xmlns:rdf="http://www.w3.org/1999/02/22-rdf-syntax-ns#"
   xmlns:cc="http://creativecommons.org/ns#"
   xmlns:dc="http://purl.org/dc/elements/1.1/">
  <defs
     id="defs5498" />
  <metadata
     id="metadata5594">
    <rdf:RDF>
      <cc:Work
         rdf:about="">
        <dc:format>image/svg+xml</dc:format>
        <dc:type
           rdf:resource="http://purl.org/dc/dcmitype/StillImage" />
      </cc:Work>
    </rdf:RDF>
  </metadata>
  <path
     style="fill:#000000;fill-opacity:1;fill-rule:nonzero;stroke:none"
     d="M 878.49609,259.97656 H 554.89844 c -12.99219,0 -24.00391,11.00391 -24.00391,23.98438 v 142.70703 c 0,12.98047 11.01172,23.98047 24.00391,23.98047 h 323.59765 c 12.99219,0 24.00391,-11 24.00391,-23.98047 V 283.88281 c 0,-12.98047 -11.01172,-23.90625 -24.00391,-23.90625 z m 0,0"
     id="path6" />
  <path
     style="fill:#000000;fill-opacity:1;fill-rule:nonzero;stroke:none"
     d="M 445.10156,758.9375 H 121.50391 C 108.51172,758.9375 97.5,769.94141 97.5,782.92187 v 142.70704 c 0,12.98046 11.01172,23.98046 24.00391,23.98046 h 323.59765 c 12.99219,0 24.00391,-11 24.00391,-23.98046 l -0.0781,-142.78516 c 1.02735,-12.98047 -9.98047,-23.90625 -23.92578,-23.90625 z m 0,0"
     id="path8" />
  <path
     style="fill:#000000;fill-opacity:1;fill-rule:nonzero;stroke:none"
     d="M 878.49609,758.9375 H 554.89844 c -12.99219,0 -24.00391,11.00391 -24.00391,23.98437 v 142.70704 c 0,12.98046 11.01172,23.98046 24.00391,23.98046 h 323.59765 c 12.99219,0 24.00391,-11 24.00391,-23.98046 V 782.84375 c 0,-12.98047 -11.01172,-23.90625 -24.00391,-23.90625 z m 0,0"
     id="path10" />
  <path
     style="fill:#000000;fill-opacity:1;fill-rule:nonzero;stroke:none"
     d="m 314.23828,533.36328 v 142.70703 c 0,12.98047 11.00781,23.98047 24,23.98047 h 323.60156 c 12.99219,0 24.00391,-11 24.00391,-23.98047 l -0.082,-142.70703 c 0,-12.98047 -11.00781,-23.98437 -24,-23.98437 H 338.16016 c -12.91407,0.0781 -23.92188,11.0039 -23.92188,23.98437 z m 0,0"
     id="path12" />
  <path
     style="fill:#000000;fill-opacity:1;fill-rule:nonzero;stroke:none"
     d="m 121.50391,700.05078 h 111.85156 c 12.99219,0 24.0039,-11 24.0039,-23.98047 l -0.0781,-142.70703 c 0,-12.98047 -11.01172,-23.98437 -24.00391,-23.98437 l -111.77343,0.0781 C 108.51172,509.45703 97.5,520.46094 97.5,533.44141 v 142.70703 c 0,12.90234 11.01172,23.90234 24.00391,23.90234 z m 0,0"
     id="path14" />
  <path
     style="fill:#000000;fill-opacity:1;fill-rule:nonzero;stroke:none"
     d="M 878.49609,509.45703 H 765.61328 c -12.99219,0 -24.00391,11.00391 -24.00391,23.98438 v 142.70703 c 0,12.98047 11.01172,23.98047 24.00391,23.98047 h 111.85547 c 12.99219,0 24,-11 24,-23.98047 V 533.36328 C 902.5,520.38281 891.48828,509.45703 878.49609,509.45703 Z m 0,0"
     id="path16" />
  <path
     style="fill:#000000;fill-opacity:1;fill-rule:nonzero;stroke:none"
     d="m 278.27344,473.52344 c 196.77343,1.98047 219.74609,-113.73828 183.78125,-201.59375 -22.97266,-56.91016 -3.00782,-95.77344 -3.00782,-95.77344 -50.9375,-1.97656 -90.86328,63.875 -90.86328,63.875 43.96485,-101.78515 -74.9375,-189.640623 -74.9375,-189.640623 0,0 11.00782,46.933594 -31.92578,94.820313 -63.92969,70.83984 -76.91797,108.75 -76.91797,108.75 -11.01172,-38.94141 25.98047,-89.83203 25.98047,-89.83203 0,0 -133.874998,42.89843 -108.92187,176.66015 25.03125,133.6836 176.8125,132.73438 176.8125,132.73438 z m -66.9375,-136.69141 c 9.98047,-24.93359 1.02734,-41.94922 1.02734,-41.94922 21.94531,-1.02734 39.92578,27.94141 39.92578,27.94141 -19.01172,-44.87891 32.95313,-83.82031 32.95313,-83.82031 0,0 -3.00782,20.97265 14.97265,41.94921 27.96485,31.89844 33.98438,47.88672 33.98438,47.88672 4.99219,-16.9414 -11.96094,-39.89453 -11.96094,-39.89453 0,0 58.9375,18.9961 47.92578,77.80469 -11.01172,58.88672 -77.87109,58.88672 -77.87109,58.88672 -86.89844,0.95312 -96.88281,-49.94141 -80.95703,-88.80469 z m 0,0"
     id="path18" />
</svg>
