<?xml version="1.0" encoding="UTF-8" standalone="no"?>
<!-- Created with Inkscape (http://www.inkscape.org/) -->

<svg
   width="1000"
   height="1000"
   version="1.1"
   id="svg10"
   xmlns="http://www.w3.org/2000/svg"
   xmlns:svg="http://www.w3.org/2000/svg"
   xmlns:rdf="http://www.w3.org/1999/02/22-rdf-syntax-ns#"
   xmlns:cc="http://creativecommons.org/ns#"
   xmlns:dc="http://purl.org/dc/elements/1.1/">
  <defs
     id="defs5498" />
  <metadata
     id="metadata5594">
    <rdf:RDF>
      <cc:Work
         rdf:about="">
        <dc:format>image/svg+xml</dc:format>
        <dc:type
           rdf:resource="http://purl.org/dc/dcmitype/StillImage" />
      </cc:Work>
    </rdf:RDF>
  </metadata>
  <path
     style="fill:#000000;fill-opacity:1;fill-rule:nonzero;stroke:none"
     d="M 811.39844,188.88672 H 603.80078 V 154.32031 C 603.80078,97.113281 557.25781,50.613281 500,50.613281 c -57.25781,0 -103.80078,46.5 -103.80078,103.707029 v 34.56641 H 188.60156 c -19.05859,0 -34.60156,15.53125 -34.60156,34.5664 0,19.03907 15.54297,34.57032 34.60156,34.57032 h 69.19922 V 880.25 h -34.60156 c -19.05469,0 -34.59766,15.52734 -34.59766,34.56641 0,19.03906 15.45313,34.57031 34.59766,34.57031 h 553.60156 c 19.05469,0 34.59766,-15.44141 34.59766,-34.57031 0,-19.125 -15.45313,-34.56641 -34.59766,-34.56641 H 742.19922 V 258.02344 h 69.19922 c 19.05859,0 34.60156,-15.44141 34.60156,-34.57032 0,-19.125 -15.54297,-34.5664 -34.60156,-34.5664 z m -346,-34.56641 c 0,-19.03906 15.54687,-34.57031 34.60156,-34.57031 19.05469,0 34.60156,15.53125 34.60156,34.57031 v 34.56641 H 465.39844 Z M 500,845.67969 c -76.3125,0 -138.39844,-62.02735 -138.39844,-138.26953 0,-45.53516 36.17969,-73.69922 65.16016,-96.33594 18.08984,-14.125 38.63672,-30.09375 38.63672,-41.9375 0,-41.41016 27.40234,-52.37891 43.55859,-52.37891 56.02734,0 129.44141,139.67578 129.44141,190.65235 0,76.24218 -62.08594,138.26953 -138.39844,138.26953 z m 0,0"
     id="path6" />
  <path
     style="fill:#000000;fill-opacity:1;fill-rule:nonzero;stroke:none"
     d="m 469.44141,665.47266 c -18.09375,14.125 -38.64063,30.09375 -38.64063,41.9375 0,38.16406 31,69.13671 69.19922,69.13671 38.19922,0 69.19922,-30.97265 69.19922,-69.13671 0,-20.96875 -24.58985,-66.94532 -45.75391,-96.86329 -12.99609,22.89844 -35.03906,40.09766 -54.0039,54.92579 z m 0,0"
     id="path8" />
</svg>
