<?xml version="1.0" encoding="UTF-8" standalone="no"?>
<!-- Created with Inkscape (http://www.inkscape.org/) -->

<svg
   width="1000"
   height="1000"
   version="1.1"
   id="svg34"
   xmlns="http://www.w3.org/2000/svg"
   xmlns:svg="http://www.w3.org/2000/svg"
   xmlns:rdf="http://www.w3.org/1999/02/22-rdf-syntax-ns#"
   xmlns:cc="http://creativecommons.org/ns#"
   xmlns:dc="http://purl.org/dc/elements/1.1/">
  <defs
     id="defs5498" />
  <metadata
     id="metadata5594">
    <rdf:RDF>
      <cc:Work
         rdf:about="">
        <dc:format>image/svg+xml</dc:format>
        <dc:type
           rdf:resource="http://purl.org/dc/dcmitype/StillImage" />
      </cc:Work>
    </rdf:RDF>
  </metadata>
  <path
     style="fill:#000000;fill-opacity:1;fill-rule:nonzero;stroke:none"
     d="m 541.21478,388.46811 c 0,4.38672 -0.64843,8.61328 -1.94922,12.59375 -1.70703,5.44531 -4.47265,10.39844 -8.13281,14.625 -7.72265,9.10156 -19.26562,14.86719 -32.11328,14.86719 -12.60156,0 -23.82031,-5.52344 -31.54687,-14.21875 -4.22657,-4.71094 -7.31641,-10.48047 -9.02344,-16.73438 -0.97656,-3.57422 -1.46094,-7.3125 -1.46094,-11.13281 0,-19.41797 13.16797,-35.74609 31.05469,-40.62109 3.49609,-0.97657 7.23828,-1.46485 11.05859,-1.46485 1.78906,0 3.57813,0.082 5.36719,0.32422 20.73047,2.68359 36.74609,20.3125 36.74609,41.76172 z m 0,0"
     id="path6" />
  <path
     style="fill:#000000;fill-opacity:1;fill-rule:nonzero;stroke:none"
     d="m 527.23041,388.46811 c -0.24219,9.42578 -4.0625,16.49609 -11.21875,22.58594 1.05859,-0.89063 -2.76563,1.70703 -3.33203,2.03125 -2.6836,1.54687 -2.03516,1.21875 -4.96094,2.11328 -4.55078,1.46484 -7.72266,1.625 -13.41406,1.05859 1.13672,0.0781 0.8125,0 -0.97657,-0.32812 -1.05468,-0.24219 -2.03125,-0.48438 -3.00781,-0.8125 -2.92578,-0.8125 -2.4375,-0.8125 -5.12109,-2.27344 -3.41406,-1.86719 -6.58594,-4.71094 -8.45703,-7.3125 -3.00782,-4.14453 -3.98438,-6.90625 -5.1211,-11.45703 -1.21875,-4.79297 -0.48828,-9.09766 0.082,-11.78125 1.13672,-4.95313 1.30079,-4.95313 3.90235,-9.26172 0.48828,-0.73047 0.97656,-1.54297 1.54297,-2.27344 -1.54297,2.19531 1.14062,-1.21875 1.21875,-1.30078 0.65234,-0.64844 1.22265,-1.30078 1.95312,-1.86719 0.082,-0.082 3.4961,-2.84375 1.30078,-1.21875 6.33985,-4.71484 14.47266,-7.07031 21.8711,-5.76953 1.78906,0.32422 3.57812,0.8125 5.28515,1.38281 1.54297,0.56641 1.70703,0.64844 0.40625,0.0781 1.21875,0.48828 2.4375,1.14062 3.57422,1.78906 0.73438,0.40625 1.54688,0.89453 2.27735,1.38281 0.16406,0.0781 3.57812,2.76172 1.38281,0.97266 1.70703,1.38281 3.2539,3.00781 4.71484,4.63281 1.0586,1.21875 1.14063,1.37891 0.2461,0.32422 0.48828,0.73047 0.97265,1.46094 1.46093,2.19531 0.48828,0.73047 0.89453,1.54297 1.30078,2.27344 0.082,0.16406 1.8711,4.14453 0.8125,1.54297 0.81641,2.11328 1.38282,4.30469 1.8711,6.5 0.32422,1.70703 0.32422,1.78906 0.082,0.40625 0.32422,1.54297 0.32422,3.00781 0.32422,4.38672 0.16406,7.63672 6.26172,13.97656 13.98437,13.97656 7.5625,0 14.14844,-6.33984 13.98438,-13.97656 -0.40625,-26.8125 -19.91797,-51.34766 -47.07422,-55.24609 -29.42969,-4.22657 -58.53516,14.625 -64.14844,44.4414 -3.08594,16.57422 1.14063,32.98438 11.54688,46.14844 9.67578,12.26953 23.49609,18.52344 38.61718,20.47266 15.1211,2.03125 30,-4.22266 41.54688,-13.40235 12.60156,-10.07812 19.10547,-26.65234 19.42969,-42.41406 0.16406,-7.63672 -6.50391,-13.97266 -13.98438,-13.97266 -7.64062,0 -13.73828,6.33594 -13.90234,13.97266 z m 0,0"
     id="path8" />
  <path
     style="fill:#000000;fill-opacity:1;fill-rule:nonzero;stroke:none"
     d="m 499.99603,49.667327 c -94.0664,0.242187 -185.44922,40.21875 -248.78515,109.847663 -63.82032,70.11328 -95.85547,165.98828 -85.9336,260.39843 5.03907,48.01563 19.91797,94.48828 44.39063,136.25 23.82031,40.78516 56.42187,75.48047 94.47265,103.26563 80.16407,58.5 185.77344,76.69922 281.46485,52 90.57031,-23.48047 169.1875,-86.44922 212.60547,-169.16016 44.55078,-84.98437 50.8125,-188.32812 15.6914,-277.70312 C 796.74603,221.01889 771.13666,181.44858 738.12885,148.30014 705.039,115.06967 665.19916,89.804046 621.7851,72.577483 583.16791,57.139983 541.29681,49.749358 499.99603,49.667327 c -11.46484,0 -21.05859,9.585937 -21.05859,21.042969 0,11.457031 9.59375,20.960937 21.05859,21.042968 11.625,0 23.25,0.648438 34.87891,1.867188 1.625,0.164062 10.8125,1.382812 3.98437,0.488281 2.67969,0.40625 5.44532,0.8125 8.12891,1.21875 5.85156,0.976563 11.625,2.113281 17.39844,3.414063 10.97656,2.437504 21.78906,5.523434 32.35937,9.179684 5.03907,1.70703 10.07813,3.57422 15.03907,5.60547 1.21875,0.48828 2.4375,0.97656 3.66015,1.54297 -5.6914,-2.35547 -1.30078,-0.56641 -0.16406,0 2.84375,1.21875 5.69141,2.51953 8.45703,3.82031 19.91797,9.34375 38.69922,20.80078 56.25781,34.04297 3.74219,2.84375 -3.82031,-3.00781 -0.082,-0.082 1.0586,0.8125 2.03516,1.625 3.08985,2.4375 2.03515,1.625 4.0664,3.33203 6.09765,5.03907 4.3086,3.65625 8.53906,7.47265 12.6836,11.375 7.96875,7.47265 15.44921,15.43359 22.60156,23.64062 3.41406,3.98047 6.75,8.04297 10,12.1875 -4.0625,-5.19922 1.30078,1.78906 2.27734,3.08594 1.78906,2.4375 3.57813,4.95703 5.28516,7.47656 6.26172,9.01953 11.95312,18.36328 17.23437,28.03125 2.52344,4.62891 4.96094,9.34375 7.23828,14.13672 1.13672,2.35547 2.27735,4.79297 3.33204,7.23047 0.57031,1.21875 1.05859,2.4375 1.625,3.65625 0.32812,0.8125 0.73437,1.625 1.05859,2.4375 -1.21875,-3.00782 -1.46484,-3.41407 -0.57031,-1.30078 4.23047,10.32031 7.88672,20.88281 11.05859,31.52343 3.17188,10.8086 5.69141,21.85547 7.64063,32.98828 0.48828,2.67969 0.89453,5.36329 1.30078,8.125 0.16406,1.30079 0.89453,6.17579 0,-0.16406 0.16406,1.38281 0.32812,2.76172 0.48828,4.0625 0.73437,5.9336 1.21875,11.94531 1.625,17.95703 0.73437,11.78125 0.73437,23.5625 0.24609,35.26172 -0.24609,5.60547 -0.73047,11.21094 -1.30078,16.81641 -0.24609,2.76172 -0.65234,5.52734 -0.97656,8.37109 0.8125,-6.25781 0.16406,-1.30078 0,-0.082 -0.24219,1.86719 -0.57031,3.65625 -0.89453,5.52344 -3.65625,22.50781 -9.91797,44.52344 -18.375,65.64844 -0.48438,1.21875 -1.05469,2.51953 -1.54297,3.73828 2.35937,-5.60547 0.48828,-1.21875 0,-0.082 -1.0586,2.4375 -2.19531,4.875 -3.33203,7.3125 -2.44141,5.28125 -5.125,10.48046 -7.80469,15.59765 -5.28516,9.83203 -11.05859,19.33985 -17.32031,28.51953 -3.00782,4.38672 -6.09766,8.69141 -9.34766,12.91797 -2.84766,3.82031 2.92578,-3.73828 0,-0.082 -0.8125,1.05859 -1.625,2.11328 -2.51953,3.08984 -1.95313,2.4375 -3.90234,4.79297 -5.9375,7.14844 -7.15234,8.44922 -14.87891,16.41016 -22.84375,24.05078 -3.82422,3.65625 -7.80469,7.23047 -11.87109,10.64063 -2.03125,1.70703 -4.06641,3.41406 -6.09766,5.12109 -1.05859,0.8125 -2.03125,1.70313 -3.08984,2.51563 -0.73047,0.57031 -1.38282,1.14062 -2.11329,1.625 2.51954,-1.94922 2.84375,-2.19141 1.05469,-0.89063 -8.85937,6.74219 -18.04687,12.91797 -27.55859,18.6875 -9.51172,5.76563 -19.4336,11.04688 -29.51172,15.76172 -2.44141,1.13672 -4.87891,2.27344 -7.32031,3.32813 -1.13672,0.48828 -5.52735,2.35937 0.082,0 -1.21875,0.48828 -2.51953,1.05859 -3.73828,1.54687 -5.44922,2.19141 -10.97657,4.22266 -16.50391,6.09375 -10.8125,3.65234 -21.78906,6.66016 -32.92969,9.09766 -5.36328,1.21875 -10.8125,2.19531 -16.25781,3.08593 -2.76562,0.48829 -5.53125,0.89454 -8.21094,1.21875 6.25782,-0.89062 1.30078,-0.16015 0.0781,0 -1.86719,0.2461 -3.73828,0.40625 -5.52735,0.65235 -13.98437,1.46094 -28.04687,1.94922 -42.03125,1.46094 -6.26171,-0.16016 -12.52343,-0.56641 -18.86328,-1.13672 -2.76562,-0.24219 -5.44922,-0.48828 -8.1289,-0.8125 -1.38282,-0.16407 -2.76563,-0.32422 -4.14844,-0.48828 6.58594,0.8125 0,0 -1.30078,-0.24219 -22.51953,-3.41406 -44.71485,-9.34375 -66.01563,-17.55078 -2.51953,-0.97266 -5.04297,-1.94922 -7.48047,-3.00391 6.09766,2.51563 -2.19531,-0.97656 -3.66015,-1.625 -5.28125,-2.35937 -10.48828,-4.95703 -15.69141,-7.64062 -9.91797,-5.11719 -19.42969,-10.80469 -28.69922,-16.98047 -4.46875,-2.92188 -8.77734,-6.01172 -13.08984,-9.17969 -1.05469,-0.8125 -2.11328,-1.625 -3.16797,-2.35547 -3.82422,-2.84375 3.73828,2.92578 0.082,0 -2.4414,-1.94922 -4.8789,-3.90234 -7.23828,-5.85156 -8.53516,-7.06641 -16.58594,-14.625 -24.30859,-22.50391 -7.72266,-7.88281 -14.96094,-16.25 -21.8711,-24.94531 -2.92578,-3.73438 2.92579,3.82031 0,0.082 -0.8125,-1.05469 -1.625,-2.11328 -2.35546,-3.16797 -1.62891,-2.11328 -3.17188,-4.30469 -4.63672,-6.5 -3.33203,-4.71094 -6.50391,-9.58594 -9.51172,-14.46094 -5.9336,-9.42578 -11.21875,-19.25781 -16.09766,-29.25 -1.13672,-2.4375 -2.27734,-4.875 -3.41406,-7.3125 -0.65234,-1.46093 -4.22656,-9.75 -1.625,-3.65625 -2.27734,-5.36328 -4.30859,-10.88671 -6.26172,-16.41015 -3.82031,-10.72656 -6.91016,-21.61328 -9.59375,-32.66406 -1.30078,-5.35938 -2.35547,-10.72266 -3.33203,-16.16797 -0.48828,-2.76172 -0.89453,-5.44141 -1.38281,-8.20313 -0.2461,-1.38281 -0.40625,-2.76562 -0.57032,-4.14453 0.89454,6.58203 0,0 -0.16015,-1.30078 -2.76563,-23.23828 -2.76563,-46.79688 -0.32813,-70.11719 0.2461,-2.76172 0.65235,-5.4414 0.97657,-8.20703 -0.89454,6.82813 0.40625,-2.27344 0.65234,-3.89844 0.97266,-5.85156 2.11328,-11.61718 3.33203,-17.38672 2.4375,-10.96875 5.44531,-21.77343 9.02344,-32.41796 1.70703,-5.03907 3.57812,-10.07422 5.53125,-15.03125 0.48437,-1.21875 0.97265,-2.4375 1.46094,-3.73829 1.78906,-4.38671 -1.94922,4.46875 -0.082,0.082 1.22266,-2.84375 2.52344,-5.6875 3.82422,-8.44922 4.63282,-9.99219 9.83594,-19.66016 15.52735,-29.08594 5.60937,-9.42578 11.78906,-18.44531 18.375,-27.21875 0.73047,-0.97656 3.57422,-4.71094 -0.082,0.082 0.8125,-1.05859 1.625,-2.03125 2.4375,-3.08984 1.6289,-2.03125 3.33593,-4.0586 4.96093,-6.08985 3.66016,-4.39062 7.39844,-8.61328 11.30078,-12.75781 7.48047,-7.96094 15.36719,-15.51953 23.57813,-22.66797 3.98437,-3.41406 7.96484,-6.74218 12.11328,-9.99218 3.66016,-2.92579 -3.82031,2.92187 -0.082,0.0781 1.05859,-0.8125 2.11328,-1.54297 3.17187,-2.35547 2.4375,-1.78516 4.95703,-3.57422 7.48047,-5.35938 9.02344,-6.25781 18.3711,-12.02734 27.96485,-17.30859 4.63671,-2.59766 9.35156,-4.95312 14.0664,-7.3125 2.35938,-1.13672 4.79688,-2.27344 7.15625,-3.41016 1.21875,-0.57031 2.4375,-1.05859 3.65625,-1.625 1.21875,-0.57031 7.07422,-3.00781 1.0586,-0.48828 20.73046,-8.61328 42.35937,-14.94922 64.39062,-18.929684 2.27734,-0.40625 4.47266,-0.8125 6.74609,-1.136719 1.46485,-0.246094 9.35157,-1.382813 2.52344,-0.40625 4.55078,-0.652344 9.10547,-1.058594 13.73828,-1.546875 9.26953,-0.8125 18.61719,-1.21875 27.96875,-1.21875 11.46485,0 21.05469,-9.503906 21.05469,-21.042969 -0.48437,-11.699219 -10,-21.285156 -21.46094,-21.285156 z m 0,0"
     id="path10" />
  <path
     style="fill:#000000;fill-opacity:1;fill-rule:nonzero;stroke:none"
     d="m 745.44525,396.67514 c -23.49609,116.58984 -84.14844,90.83594 -96.83203,80.92188 -12.67969,-9.91016 -28.37109,-35.82813 -38.45312,-45.66016 -6.83204,-6.66406 -16.17969,-13.48828 -22.6836,-16.82031 0.082,-0.16016 0.082,-0.24219 0.16016,-0.40625 2.68359,-8.60938 4.14844,-17.8711 4.14844,-27.37891 0,-45.66016 -33.41407,-83.44141 -77.15625,-90.26562 22.92968,-21.44922 133.74218,-118.94532 201.79296,-70.52344 0,0.082 52.51954,53.54297 29.02344,170.13281 z m 0,0"
     id="path12" />
  <path
     style="fill:#000000;fill-opacity:1;fill-rule:nonzero;stroke:none"
     d="m 526.49994,656.74936 c 0,0 -72.76563,18.11719 -161.38281,-61.26172 -88.6211,-79.37891 -35.69141,-118.53906 -20.65235,-124.47266 14.96094,-5.84765 45.36719,-6.2539 58.86328,-9.99218 10.8125,-2.92578 23.57813,-8.69141 28.69922,-12.91797 16.7461,18.76953 41.13672,30.55078 68.21094,30.55078 26.99219,0 51.30078,-11.70313 68.05078,-30.30859 7.31641,33.23046 33.57813,174.84765 -41.78906,208.40234 z m 0,0"
     id="path14" />
  <path
     style="fill:#000000;fill-opacity:1;fill-rule:nonzero;stroke:none"
     d="m 479.58978,257.74155 c -2.68359,13.73047 -0.40625,36.5625 2.76172,39.32422 0.32813,0.24218 -0.8125,0.082 -2.27344,1.13671 -1.30078,0.32422 -2.60156,0.65235 -3.90234,0.97657 -38.86328,10.5625 -67.40234,46.0664 -67.40234,88.23437 0,7.71875 0.97656,15.19141 2.76562,22.26172 -41.78906,-10.96875 -164.79687,-49.96875 -162.03515,-127.55859 0,0 15.77343,-73.28516 126.10156,-117.8086 110.32422,-44.52344 122.19531,20.23047 120.89453,36.23438 -1.30078,16.00781 -14.30859,43.38672 -16.91016,57.19922 z m 0,0"
     id="path16" />
  <path
     style="fill:#000000;fill-opacity:1;fill-rule:nonzero;stroke:none"
     d="M 531.37885,699.6478 V 828.5853 H 467.31244 V 699.6478 c 10.97656,1.05468 21.13672,1.625 32.11328,1.625 10.97656,0 20.97656,-0.48828 31.95313,-1.625 z m 0,0"
     id="path18" />
  <path
     style="fill:#000000;fill-opacity:1;fill-rule:nonzero;stroke:none"
     d="m 521.21478,699.6478 c 0,42.98047 0,85.96093 0,128.9375 3.4961,-3.49219 6.99219,-6.98438 10.48828,-10.48047 -21.46484,0 -42.92578,0 -64.39062,0 3.49609,3.49609 6.99219,6.98828 10.48828,10.48047 0,-42.97657 0,-85.95703 0,-129.01953 -3.49609,3.49218 -6.99219,6.98828 -10.48828,10.48046 21.46484,2.11329 42.92578,2.11329 64.39062,0 5.69141,-0.5664 10.48829,-4.38671 10.48829,-10.48046 0,-5.28125 -4.79688,-11.05079 -10.48829,-10.48047 -21.46484,2.03125 -42.92578,2.03125 -64.39062,0 -5.69141,-0.57032 -10.48828,5.19922 -10.48828,10.48047 0,42.98046 0,85.96093 0,129.01953 0,5.6875 4.79687,10.48437 10.48828,10.48437 21.46484,0 42.92578,0 64.39062,0 5.69141,0 10.48829,-4.79687 10.48829,-10.48437 0,-42.97657 0,-85.95703 0,-128.9375 0.082,-13.48828 -20.97657,-13.48828 -20.97657,0 z m 0,0"
     id="path20" />
  <path
     style="fill:#000000;fill-opacity:1;fill-rule:nonzero;stroke:none"
     d="m 644.14447,835.81967 c 0,-14.54687 -11.87109,-25.51172 -26.42578,-25.51172 H 531.7851 v 18.44141 h -64.39063 v -18.44141 l -85.125,-0.082 c -14.63281,0 -26.42187,10.96875 -26.42187,25.51172 l -23.98438,77.67188 c 0,14.625 11.78906,26.16015 26.42188,26.16015 h 283.41796 c 14.55469,0 26.42579,-11.61719 26.42579,-26.16015 z M 439.914,902.84702 c -13.2539,0 -23.98437,-10.72266 -23.98437,-24.05079 0,-13.24218 10.73047,-23.96484 23.98437,-23.96484 13.25,0 23.98438,10.72266 23.98438,23.96484 0.082,13.32813 -10.73438,24.05079 -23.98438,24.05079 z m 60.08203,0 c -13.2539,0 -23.98437,-10.72266 -23.98437,-24.05079 0,-13.24218 10.73047,-23.96484 23.98437,-23.96484 13.25,0 23.98438,10.72266 23.98438,23.96484 0.082,13.32813 -10.73438,24.05079 -23.98438,24.05079 z m 60.08203,0 c -13.2539,0 -23.98437,-10.72266 -23.98437,-24.05079 0,-13.24218 10.73047,-23.96484 23.98437,-23.96484 13.25,0 23.98438,10.72266 23.98438,23.96484 0,13.32813 -10.73438,24.05079 -23.98438,24.05079 z m 0,0"
     id="path22" />
  <path
     style="fill:#000000;fill-opacity:1;fill-rule:nonzero;stroke:none"
     d="m 560.07806,892.36655 c -7.5625,-0.24219 -13.33593,-5.92969 -13.49609,-13.48828 -0.24609,-7.55469 6.25781,-13.32422 13.49609,-13.48438 7.5586,-0.24609 13.33204,6.25391 13.4961,13.48438 0.24219,7.47656 -6.26172,13.24609 -13.4961,13.48828 -13.49609,0.40625 -13.57812,21.36718 0,21.04297 19.1875,-0.57032 33.98438,-15.35547 34.55079,-34.53125 0.57031,-19.17188 -16.17579,-33.96094 -34.55079,-34.52735 -19.1875,-0.57031 -33.98437,16.16797 -34.55468,34.52735 -0.57032,19.17578 16.17968,33.96093 34.55468,34.53125 13.57813,0.32421 13.4961,-20.71875 0,-21.04297 z m 0,0"
     id="path24" />
  <path
     style="fill:#000000;fill-opacity:1;fill-rule:nonzero;stroke:none"
     d="m 499.99603,892.36655 c -7.5625,-0.24219 -13.33593,-5.92969 -13.49609,-13.48828 -0.24609,-7.55469 6.25781,-13.32422 13.49609,-13.48438 7.5586,-0.24609 13.33203,6.25391 13.4961,13.48438 0.24218,7.47656 -6.26172,13.24609 -13.4961,13.48828 -13.49609,0.40625 -13.57812,21.36718 0,21.04297 19.1875,-0.57032 33.98438,-15.35547 34.55078,-34.53125 0.57032,-19.17188 -16.17578,-33.96094 -34.55078,-34.52735 -19.1875,-0.57031 -33.98437,16.16797 -34.55468,34.52735 -0.57032,19.17578 16.17968,33.96093 34.55468,34.53125 13.57813,0.32421 13.4961,-20.71875 0,-21.04297 z m 0,0"
     id="path26" />
  <path
     style="fill:#000000;fill-opacity:1;fill-rule:nonzero;stroke:none"
     d="m 439.914,892.36655 c -7.5625,-0.24219 -13.33594,-5.92969 -13.49609,-13.48828 -0.2461,-7.55469 6.25781,-13.32422 13.49609,-13.48438 7.5586,-0.24609 13.33203,6.25391 13.4961,13.48438 0.24218,7.47656 -6.26172,13.24609 -13.4961,13.48828 -13.49609,0.40625 -13.57812,21.36718 0,21.04297 19.1875,-0.57032 33.98438,-15.35547 34.55078,-34.53125 0.57032,-19.17188 -16.17578,-33.96094 -34.55078,-34.52735 -19.1875,-0.57031 -33.98437,16.16797 -34.55469,34.52735 -0.57031,19.17578 16.17969,33.96093 34.55469,34.53125 13.57813,0.32421 13.57813,-20.71875 0,-21.04297 z m 0,0"
     id="path28" />
  <path
     style="fill:#000000;fill-opacity:1;fill-rule:nonzero;stroke:none"
     d="m 654.63275,835.81967 c -0.57031,-20.3125 -16.83203,-36.07422 -37.15625,-36.07422 -8.21094,0 -16.5039,0 -24.71484,0 -20.32813,0 -40.65235,0 -60.97656,0 -5.69141,0 -10.48829,4.79297 -10.48829,10.48047 0,6.17578 0,12.26563 0,18.44141 3.4961,-3.49219 6.99219,-6.98828 10.48829,-10.48047 -21.46485,0 -42.92969,0 -64.39063,0 3.49609,3.49219 6.99219,6.98828 10.48828,10.48047 0,-6.17578 0,-12.26563 0,-18.44141 0,-5.6875 -4.79687,-10.48047 -10.48828,-10.48047 -24.87891,0 -49.75781,0 -74.63672,0 -3.41406,0 -6.82812,0 -10.32422,0 -11.95312,0 -22.84765,5.44141 -30.08203,14.86719 -3.82031,5.03906 -5.85547,10.88672 -6.66797,17.0625 -0.082,0.64844 -0.97656,4.79297 0.082,1.37891 0,0.082 -0.082,0.16406 -0.082,0.24609 -0.16015,0.48828 -0.32422,1.05469 -0.48828,1.54297 -1.46094,4.875 -3.00781,9.66797 -4.46875,14.54297 -4.63672,15.03125 -9.26953,30.0625 -13.90234,45.09375 -1.46485,4.875 -3.01172,9.66797 -4.47266,14.54297 -2.4414,7.8789 0.40625,17.0625 4.55078,23.88672 7.39844,12.26953 20.73438,17.38671 34.47266,17.38671 6.99219,0 13.90234,0 20.89453,0 59.83984,0 119.59375,0 179.43359,0 23.25391,0 46.42188,0 69.67579,0 3.98437,0 7.88671,0.082 11.87109,0 19.91797,-0.48828 40.8125,-21.125 34.39062,-41.92578 -7.72656,-25.10547 -15.53125,-50.1289 -23.2539,-75.23437 -3.98438,-12.91797 -24.3086,-7.39453 -20.24219,5.60547 7.31641,23.64453 14.63281,47.36718 21.94922,71.01172 0.57031,1.70703 1.05859,3.49218 1.625,5.19921 0.16406,0.40625 0.24609,0.8125 0.41016,1.21875 0,0.082 0.0781,0.16407 0.0781,0.2461 -0.89453,-2.76563 -0.64844,0.16015 -0.89453,1.21875 -1.70703,7.0664 -8.37109,11.69922 -15.44531,11.69922 -4.14844,0 -8.29297,0 -12.51953,0 -56.75,0 -113.41797,0 -170.16407,0 -26.58593,0 -53.09375,0 -79.67578,0 -6.34375,0 -12.68359,0 -19.10937,0 -2.11328,0 -4.14453,-0.082 -6.01563,-0.48828 -3.82031,-0.89454 -7.15234,-3.33204 -9.26562,-6.5 -1.30078,-1.94922 -1.8711,-3.65625 -2.44141,-6.01172 -0.73047,-3.08985 -0.73047,0.73047 -0.48828,-0.2461 7.5625,-24.37109 15.125,-48.74609 22.60156,-73.20312 1.38281,-4.46875 1.30078,-9.66797 3.00781,-13.16016 2.92969,-6.01562 8.69922,-8.77734 15.28516,-8.77734 11.62891,0 23.25391,0 34.79688,0 16.50781,0 33.01171,0 49.43359,0 -3.49609,-3.49219 -6.99219,-6.98438 -10.48828,-10.48047 0,6.17578 0,12.26953 0,18.44531 0,5.6875 4.79687,10.48047 10.48828,10.48047 21.46484,0 42.92578,0 64.39062,0 5.69141,0 10.48829,-4.79297 10.48829,-10.48047 0,-6.17578 0,-12.26953 0,-18.44531 -3.4961,3.49609 -6.99219,6.98828 -10.48829,10.48047 18.45704,0 36.82813,0 55.28516,0 9.26953,0 18.53516,0 27.80469,0 10,0 18.45703,4.38672 18.69922,15.03125 0.48828,13.32422 21.46484,13.32422 21.14062,-0.16016 z m 0,0"
     id="path30" />
  <path
     style="fill:#000000;fill-opacity:1;fill-rule:nonzero;stroke:none"
     d="m 576.58197,388.46811 c -0.16406,14.05859 -3.66016,26.89453 -10.32422,38.67578 -3.17187,5.60547 -6.09765,9.42188 -10.32812,13.97266 -4.46875,4.875 -8.69922,8.37109 -13.08985,11.29297 -20.48828,13.89453 -44.71484,16.90234 -68.1289,9.58984 -10.32422,-3.25 -21.0586,-9.91406 -28.94532,-17.38672 -9.10546,-8.61328 -15.93359,-19.33984 -19.83593,-30.79297 -2.19532,-6.33984 -3.57813,-12.91797 -4.06641,-19.58203 -0.24219,-3.41406 -0.24219,-6.74219 -0.082,-10.15625 0.082,-1.46094 0.16406,-2.92578 0.32812,-4.30469 0.082,-0.97656 0.16016,-1.87109 0.32422,-2.84375 -0.16406,1.37891 -0.082,1.21875 0.16407,-0.48828 0.89453,-5.52344 2.51953,-10.96875 4.38671,-16.25 0,-0.082 1.78907,-4.30469 0.65235,-1.78906 0.57031,-1.29688 1.13672,-2.51563 1.78906,-3.73438 1.38281,-2.84375 3.00781,-5.60546 4.71484,-8.37109 0.97657,-1.54297 2.03125,-3.00391 3.08985,-4.54687 0.97656,-1.30079 1.05859,-1.46485 0.32422,-0.40625 0.8125,-1.0586 1.70703,-2.11329 2.60156,-3.17188 3.00781,-3.41016 6.26172,-6.57812 9.67578,-9.58594 2.19531,-1.86718 5.20313,-4.0625 9.35156,-6.58203 1.94922,-1.21875 3.98047,-2.27344 6.01563,-3.32812 0.8125,-0.40625 1.625,-0.8125 2.51953,-1.21875 4.06641,-1.95313 -2.4375,0.89062 1.70703,-0.73438 19.1875,-7.71875 38.61719,-7.39062 57.39844,-0.73047 0.8125,0.32422 1.70703,0.65235 2.51953,0.97657 -1.30078,-0.57032 -1.13672,-0.48829 0.32812,0.16015 2.03125,0.89453 3.98047,1.95313 6.01563,3.00781 3.90234,2.11329 7.64062,4.55079 11.13672,7.14844 -1.05469,-0.8125 -0.97656,-0.73047 0.32422,0.2461 1.05859,0.8125 2.03515,1.70703 3.01172,2.59765 1.625,1.46485 3.25,3.00781 4.79687,4.55078 1.54297,1.54297 3.00781,3.25 4.38672,4.875 0.57031,0.64844 1.14062,1.38282 1.71094,2.03125 -1.78907,-2.19531 0.89062,1.30078 0.97265,1.38282 5.36719,7.47265 8.21094,13.5664 10.48828,20.47265 1.46485,4.30469 2.51954,8.77344 3.25391,13.24219 0.24219,1.70703 0.32422,1.78906 0.082,0.40625 0.16016,1.38281 0.32422,2.76562 0.40625,4.14453 0.24219,2.51953 0.32422,4.875 0.32422,7.23047 0.082,7.63672 6.33984,13.97656 13.98438,13.97656 7.55859,0 14.0625,-6.33984 13.98437,-13.97656 -0.40625,-49.88672 -36.50781,-94.57031 -86.01953,-103.58984 -54.96094,-9.99219 -109.67578,25.26953 -122.27734,79.86718 -6.7461,29.08594 -0.57032,60.69141 16.99218,84.82032 16.42188,22.75 41.38282,38.67578 69.26953,42.89843 27.88672,4.14453 56.75,-2.35547 79.35157,-19.41797 24.79687,-18.76562 39.59375,-46.22656 42.4375,-77.10156 0.24609,-2.51953 0.24609,-5.03906 0.32422,-7.55859 0.082,-7.63672 -6.42188,-13.97266 -13.98047,-13.97266 -7.72657,0.082 -13.98438,6.41797 -14.06641,14.05469 z m 0,0"
     id="path32" />
</svg>
