<?xml version="1.0" encoding="UTF-8" standalone="no"?>
<!-- Created with Inkscape (http://www.inkscape.org/) -->

<svg
   width="1000"
   height="1000"
   version="1.1"
   id="svg10"
   xmlns="http://www.w3.org/2000/svg"
   xmlns:svg="http://www.w3.org/2000/svg"
   xmlns:rdf="http://www.w3.org/1999/02/22-rdf-syntax-ns#"
   xmlns:cc="http://creativecommons.org/ns#"
   xmlns:dc="http://purl.org/dc/elements/1.1/">
  <defs
     id="defs5498" />
  <metadata
     id="metadata5594">
    <rdf:RDF>
      <cc:Work
         rdf:about="">
        <dc:format>image/svg+xml</dc:format>
        <dc:type
           rdf:resource="http://purl.org/dc/dcmitype/StillImage" />
      </cc:Work>
    </rdf:RDF>
  </metadata>
  <path
     style="fill:#000000;fill-opacity:1;fill-rule:nonzero;stroke:none"
     d="m 751.96094,410.01562 c -13.53516,-31.51953 -62.95703,-35.97265 -76.49219,-4.53906 L 661.93359,437 c -4.53906,8.99219 -13.53125,17.98828 -26.98047,22.52734 l -62.95703,17.98828 C 567.45312,459.52734 554.00781,445.99219 540.47266,437 l 62.95703,-90.02734 c 31.52343,-44.96875 0,-99.01954 -58.50391,-112.46485 -40.51562,-8.99609 -99.01953,-8.99609 -134.99609,13.53125 -31.51953,13.53516 -35.97266,58.50391 -4.53907,76.49219 l 31.52344,13.53516 c 8.99219,4.53906 17.98828,13.53125 22.52735,26.98046 l 17.98828,62.95704 c -17.98828,4.54296 -31.52344,17.98828 -40.51563,31.52343 l -90.02734,-58.5039 c -44.96875,-31.52344 -99.01953,0 -112.46875,58.5039 -8.99219,40.51563 -8.99219,99.01953 13.53515,134.9961 13.53516,31.51953 62.95704,35.97656 76.49219,4.53906 l 13.53516,-31.52344 c 4.53906,-13.53125 13.53125,-22.52734 26.98047,-26.98047 l 62.95703,-17.98828 c 4.54297,17.98828 17.98828,31.52344 31.52344,40.51563 l -58.50391,90.02734 c -31.52344,44.96875 0,99.01953 58.50391,112.46875 40.51562,8.99219 99.01953,8.99219 134.99609,-13.53516 31.51953,-13.53515 35.97656,-62.95703 4.53906,-76.49218 l -31.52344,-13.53516 c -8.99218,-4.53906 -17.98437,-13.53125 -22.52734,-26.98047 L 526.9375,572.08203 c 17.98828,-4.54297 31.52344,-17.98828 40.51562,-31.52344 l 90.02735,62.95703 c 44.96875,31.52344 99.01953,0 112.46875,-58.5039 4.53906,-40.51563 0,-99.01953 -17.98828,-134.9961 z m 0,0"
     id="path6" />
  <path
     style="fill:#000000;fill-opacity:1;fill-rule:nonzero;stroke:none"
     d="M 50,50 V 950 H 950 V 50 Z m 449.95703,809.97266 c -197.95312,0 -360.01562,-161.97657 -360.01562,-360.01563 0,-197.95312 161.97656,-360.01562 360.01562,-360.01562 198.03906,0 360.01563,161.97656 360.01563,360.01562 0,198.03906 -161.97657,360.01563 -360.01563,360.01563 z m 0,0"
     id="path8" />
</svg>
