<?xml version="1.0" encoding="UTF-8" standalone="no"?>
<!-- Created with Inkscape (http://www.inkscape.org/) -->

<svg
   width="1000"
   height="1000"
   version="1.1"
   id="svg10"
   xmlns="http://www.w3.org/2000/svg"
   xmlns:svg="http://www.w3.org/2000/svg"
   xmlns:rdf="http://www.w3.org/1999/02/22-rdf-syntax-ns#"
   xmlns:cc="http://creativecommons.org/ns#"
   xmlns:dc="http://purl.org/dc/elements/1.1/">
  <defs
     id="defs5498" />
  <metadata
     id="metadata5594">
    <rdf:RDF>
      <cc:Work
         rdf:about="">
        <dc:format>image/svg+xml</dc:format>
        <dc:type
           rdf:resource="http://purl.org/dc/dcmitype/StillImage" />
      </cc:Work>
    </rdf:RDF>
  </metadata>
  <path
     style="fill:#000000;fill-opacity:1;fill-rule:nonzero;stroke:none"
     d="m 720.55859,445.99609 c 8.99219,-35.97656 4.53907,-81.02734 -8.99609,-112.46484 -13.53125,-26.98047 -49.50781,-26.98047 -62.95313,-4.53906 l -13.53515,26.98047 c -4.53906,8.99609 -13.53125,17.98828 -22.52735,17.98828 l -53.96093,13.53515 c -4.53907,-13.53515 -13.53125,-26.98047 -26.98047,-35.97656 l 49.50781,-76.48828 c 26.98047,-40.51172 0,-81.02734 -49.50781,-94.47266 -26.98047,0 -76.48828,4.53907 -108.00781,17.98438 -26.98047,13.53515 -26.98047,49.50781 -4.53907,62.95703 l 26.98047,13.53125 c 8.99219,4.53906 17.98828,13.53516 17.98828,22.52734 l 13.53125,49.50782 c -13.53125,4.53906 -26.98047,13.53125 -35.97265,26.98046 l -67.4961,-49.50781 c -40.51562,-26.98047 -81.02734,0 -94.47656,49.50781 -8.99219,31.51954 -4.53906,81.02735 8.99609,112.46094 13.53125,26.98438 49.50782,26.98438 62.95313,4.54297 l 13.53516,-26.98047 c 4.53906,-8.99609 13.53125,-17.98828 22.52734,-17.98828 l 49.50391,-13.53516 c 4.54296,13.53516 13.53515,26.98047 26.98437,35.97657 l -49.50781,76.48828 c -26.98047,40.51172 0,81.02734 49.50781,94.47265 35.97266,8.9961 81.02734,4.54297 112.46094,-8.99218 26.98047,-13.53125 26.98047,-49.50782 4.53906,-62.95313 l -26.98047,-22.52734 c -8.99219,-4.53906 -17.98828,-13.53516 -17.98828,-22.52735 l -13.53125,-49.50781 c 13.53125,-4.53906 26.98047,-13.53515 35.97266,-26.98047 l 76.48828,49.50782 c 31.43359,26.98046 76.48828,0 85.48437,-49.50782 z m 0,0"
     id="path6" />
  <path
     style="fill:#000000;fill-opacity:1;fill-rule:nonzero;stroke:none"
     d="m 860,410.01953 c 0,-197.94141 -161.96875,-360 -360,-360 -198.03125,0 -360,161.97266 -360,360 0,184.5 139.52734,332.93359 314.94531,355.46094 v 94.47656 c -49.50781,0 -90.01953,40.51563 -90.01953,90.02344 h 270.14844 c 0,-49.50781 -40.51172,-90.02344 -90.01953,-90.02344 V 765.48047 C 720.55859,742.95312 860,594.51953 860,410.01953 Z M 500.08594,680 C 351.5625,680 230.10547,558.54297 230.10547,410.01953 230.10547,261.5 351.5625,140.04297 500.08594,140.04297 648.60937,140.04297 770.0625,261.5 770.0625,410.01953 770.0625,558.54297 648.52344,680 500.08594,680 Z m 0,0"
     id="path8" />
</svg>
