<?xml version="1.0" encoding="UTF-8" standalone="no"?>
<!-- Created with Inkscape (http://www.inkscape.org/) -->

<svg
   width="1000"
   height="1000"
   version="1.1"
   id="svg8"
   xmlns="http://www.w3.org/2000/svg"
   xmlns:svg="http://www.w3.org/2000/svg"
   xmlns:rdf="http://www.w3.org/1999/02/22-rdf-syntax-ns#"
   xmlns:cc="http://creativecommons.org/ns#"
   xmlns:dc="http://purl.org/dc/elements/1.1/">
  <defs
     id="defs5498" />
  <metadata
     id="metadata5594">
    <rdf:RDF>
      <cc:Work
         rdf:about="">
        <dc:format>image/svg+xml</dc:format>
        <dc:type
           rdf:resource="http://purl.org/dc/dcmitype/StillImage" />
      </cc:Work>
    </rdf:RDF>
  </metadata>
  <path
     style="fill:#000000;fill-opacity:1;fill-rule:nonzero;stroke:none"
     d="M 860,841.55078 V 320 L 590,50 H 230 c -49.5,0 -89.55078,40.5 -89.55078,90 L 140,860 c 0,49.5 40.05078,90 89.55078,90 H 770 c 20.25,0 38.25,-6.75 53.55078,-18 L 624.19922,732.64844 C 588.19922,756.05078 545.89844,770 500,770 375.80078,770 275,669.19922 275,545 275,420.80078 375.80078,320 500,320 c 124.19922,0 225,100.80078 225,225 0,45.89844 -13.94922,88.19922 -37.35156,123.75 z M 365,545 c 0,74.69922 60.30078,135 135,135 74.69922,0 135,-60.30078 135,-135 0,-74.69922 -60.30078,-135 -135,-135 -74.69922,0 -135,60.30078 -135,135 z m 0,0"
     id="path6" />
</svg>
