<?xml version="1.0" encoding="UTF-8" standalone="no"?>
<!-- Created with Inkscape (http://www.inkscape.org/) -->

<svg
   width="1000"
   height="1000"
   version="1.1"
   id="svg10"
   xmlns="http://www.w3.org/2000/svg"
   xmlns:svg="http://www.w3.org/2000/svg"
   xmlns:rdf="http://www.w3.org/1999/02/22-rdf-syntax-ns#"
   xmlns:cc="http://creativecommons.org/ns#"
   xmlns:dc="http://purl.org/dc/elements/1.1/">
  <defs
     id="defs5498" />
  <metadata
     id="metadata5594">
    <rdf:RDF>
      <cc:Work
         rdf:about="">
        <dc:format>image/svg+xml</dc:format>
        <dc:type
           rdf:resource="http://purl.org/dc/dcmitype/StillImage" />
      </cc:Work>
    </rdf:RDF>
  </metadata>
  <path
     style="fill:#000000;fill-opacity:1;fill-rule:nonzero;stroke:none"
     d="M 499.99999,50 C 252.51171,50 49.999986,252.51172 49.999986,500 c 0,247.48828 202.511724,450 450.000004,450 247.48828,0 450,-202.51172 450,-450 0.0859,-247.48828 -202.42578,-450 -450,-450 z m 0,801.05469 C 306.48046,851.05469 148.9453,693.51953 148.9453,500 c 0,-193.51953 157.53516,-351.05469 351.05469,-351.05469 193.51953,0 351.05469,157.53516 351.05469,351.05469 0,193.51953 -157.53516,351.05469 -351.05469,351.05469 z m 0,0"
     id="path6" />
  <path
     style="fill:#000000;fill-opacity:1;fill-rule:nonzero;stroke:none"
     d="m 752.02733,410.05078 c -13.53515,-31.52344 -62.96484,-35.98047 -76.5,-4.53906 l -13.53515,31.52344 c -4.53907,8.99609 -13.53516,17.99218 -26.98438,22.53125 l -62.96484,17.98828 c -4.53906,-17.98828 -17.98828,-31.52344 -31.52344,-40.51953 l 62.96484,-90.03125 c 31.52344,-44.97657 0,-99.03125 -58.51171,-112.48047 -40.51954,-8.9961 -99.02735,-8.9961 -135.00782,13.53515 -31.52343,13.53516 -35.98047,58.50782 -4.53906,76.5 l 31.52344,13.53516 c 8.99609,4.53906 17.99219,13.53516 22.53125,26.98437 l 17.98828,62.96485 c -17.98828,4.53906 -31.52344,17.98828 -40.51953,31.52344 l -90.03516,-58.50782 c -44.97265,-31.52734 -99.02734,0 -112.47656,58.50782 -8.99609,40.51953 -8.99609,99.02734 13.53516,135.00781 13.53515,31.52344 62.96484,35.98047 76.5,4.53906 l 13.53515,-31.52344 c 4.53906,-13.53515 13.53516,-22.53125 26.98438,-26.98437 l 62.96484,-17.98828 c 4.53906,17.98828 17.98828,31.52343 31.52344,40.51953 l -58.50781,90.03125 c -31.52735,44.97656 0,99.03125 58.50781,112.48047 40.51953,8.99609 99.02734,8.99609 135.00781,-13.53516 31.52344,-13.53516 35.98047,-62.96484 4.53906,-76.5 L 567.5039,662.07812 c -8.9961,-4.53906 -17.98829,-13.53515 -22.53125,-26.98437 l -17.98829,-62.96484 c 17.98829,-4.53907 31.52344,-17.98829 40.51954,-31.52344 l 90.03515,62.96484 c 44.97266,31.52344 99.02735,0 112.47656,-58.51172 4.54297,-40.51953 4.54297,-99.02734 -17.98828,-135.00781 z m 0,0"
     id="path8" />
</svg>
