<?xml version="1.0" encoding="UTF-8" standalone="no"?>
<!-- Created with Inkscape (http://www.inkscape.org/) -->

<svg
   width="1000"
   height="1000"
   version="1.1"
   id="svg22"
   xmlns="http://www.w3.org/2000/svg"
   xmlns:svg="http://www.w3.org/2000/svg"
   xmlns:rdf="http://www.w3.org/1999/02/22-rdf-syntax-ns#"
   xmlns:cc="http://creativecommons.org/ns#"
   xmlns:dc="http://purl.org/dc/elements/1.1/">
  <defs
     id="defs5498" />
  <metadata
     id="metadata5594">
    <rdf:RDF>
      <cc:Work
         rdf:about="">
        <dc:format>image/svg+xml</dc:format>
        <dc:type
           rdf:resource="http://purl.org/dc/dcmitype/StillImage" />
      </cc:Work>
    </rdf:RDF>
  </metadata>
  <path
     style="fill:#000000;fill-opacity:1;fill-rule:nonzero;stroke:none"
     d="M 873.50781,256.88281 H 553.86719 c -16,0 -28.99219,12.98047 -28.99219,28.96875 v 140.72656 c 0,15.98829 12.99219,28.96875 28.99219,28.96875 h 319.64062 c 16,0 28.99219,-12.98046 28.99219,-28.96875 V 286.80078 c 0,-15.98828 -12.99219,-29.91797 -28.99219,-29.91797 z m 19.01172,170.64453 c 0,9.97266 -8,18.9961 -19.01172,18.9961 H 553.86719 c -9.98047,0 -19.01172,-7.99219 -19.01172,-18.9961 l 0.0781,-140.72656 c 0,-9.97266 8,-18.99609 19.01172,-18.99609 h 319.64063 c 9.98047,0 19.01172,7.99218 19.01172,18.99609 z m 0,0"
     id="path6" />
  <path
     style="fill:#000000;fill-opacity:1;fill-rule:nonzero;stroke:none"
     d="m 446.05469,750.85547 h -319.5625 c -16,0 -28.99219,12.98047 -28.99219,28.96875 v 140.73047 c 0,15.98828 12.99219,28.96875 28.99219,28.96875 h 319.64062 c 16,0 28.99219,-12.98047 28.99219,-28.96875 l -0.0781,-140.8086 c 0,-15.91015 -12.99218,-28.89062 -28.99218,-28.89062 z m 19.01172,169.61719 c 0,9.97265 -8,18.99609 -19.01172,18.99609 h -319.5625 c -9.98047,0 -19.01172,-7.99219 -19.01172,-18.99609 V 779.74609 c 0,-9.97265 8,-18.99609 19.01172,-18.99609 h 319.64062 c 9.98047,0 19.01172,7.99219 19.01172,18.99609 z m 0,0"
     id="path8" />
  <path
     style="fill:#000000;fill-opacity:1;fill-rule:nonzero;stroke:none"
     d="M 873.50781,750.85547 H 553.86719 c -16,0 -28.99219,12.98047 -28.99219,28.96875 v 140.73047 c 0,15.98828 12.99219,28.96875 28.99219,28.96875 h 319.64062 c 16,0 28.99219,-12.98047 28.99219,-28.96875 v -140.8086 c 0,-15.91015 -12.99219,-28.89062 -28.99219,-28.89062 z m 19.01172,169.61719 c 0,9.97265 -8,18.99609 -19.01172,18.99609 H 553.86719 c -9.98047,0 -19.01172,-7.99219 -19.01172,-18.99609 l 0.0781,-140.72657 c 0,-9.97265 8,-18.99609 19.01172,-18.99609 h 319.64063 c 9.98047,0 19.01172,7.99219 19.01172,18.99609 z m 0,0"
     id="path10" />
  <path
     style="fill:#000000;fill-opacity:1;fill-rule:nonzero;stroke:none"
     d="M 311.22656,533.27344 V 674 c 0,15.98828 12.99219,28.96875 28.99219,28.96875 h 319.64062 c 16,0 28.99219,-12.98047 28.99219,-28.96875 l -0.0781,-140.72656 c 0,-15.98828 -12.99219,-28.96875 -28.99219,-28.96875 h -319.5625 c -16,0 -28.99219,12.98047 -28.99219,28.96875 z m 367.56641,0 V 674 c 0,9.97266 -8,18.99609 -19.01172,18.99609 l -319.5625,-0.0781 c -9.98047,0 -19.01172,-7.99219 -19.01172,-18.9961 V 533.27344 c 0,-9.97266 8,-18.9961 19.01172,-18.9961 h 319.64062 c 9.90235,0.0781 18.9336,7.99219 18.9336,18.9961 z m 0,0"
     id="path12" />
  <path
     style="fill:#000000;fill-opacity:1;fill-rule:nonzero;stroke:none"
     d="m 126.49219,702.89062 h 110.82422 c 16.0039,0 28.99609,-12.98046 28.99609,-28.96875 V 533.27344 c 0,-15.98828 -12.99219,-28.96875 -28.99609,-28.96875 H 126.49219 c -16,0 -28.99219,12.98047 -28.99219,28.96875 V 674 c 0,15.98828 12.99219,28.89062 28.99219,28.89062 z M 107.48047,533.27344 c 0,-9.97266 8,-18.9961 19.01172,-18.9961 l 110.82422,0.0781 c 9.98046,0 19.01171,7.99609 19.01171,18.99609 V 674.082 c 0,9.97266 -8,18.99609 -19.01171,18.99609 l -110.82422,-0.16012 c -9.98047,0 -19.01172,-7.99219 -19.01172,-18.9961 z m 0,0"
     id="path14" />
  <path
     style="fill:#000000;fill-opacity:1;fill-rule:nonzero;stroke:none"
     d="M 873.50781,504.30469 H 762.68359 c -16.0039,0 -28.99609,12.98047 -28.99609,28.96875 V 674 c 0,15.98828 12.99219,28.96875 28.99609,28.96875 h 110.82422 c 16,0 28.99219,-12.98047 28.99219,-28.96875 V 533.27344 c 0,-15.98828 -12.99219,-28.96875 -28.99219,-28.96875 z M 892.51953,674 c 0,9.97266 -8,18.99609 -19.01172,18.99609 H 762.68359 c -9.98047,0 -19.01172,-7.99218 -19.01172,-18.99609 V 533.27344 c 0,-9.97266 8,-18.9961 19.01172,-18.9961 h 110.82422 c 9.98047,0 19.01172,7.99219 19.01172,18.9961 z m 0,0"
     id="path16" />
  <path
     style="fill:#000000;fill-opacity:1;fill-rule:nonzero;stroke:none"
     d="m 281.28125,479.37109 h 3.96094 c 85.87109,0 146.78906,-22.95312 176.8125,-67.83203 24.95312,-36.88281 26.93359,-87.77734 6.01953,-139.69922 -21.94141,-52.87109 -3.00781,-89.83593 -3.00781,-89.83593 1.02734,-1.97657 1.02734,-3.95703 0,-4.98438 -1.03125,-1.98047 -3.01172,-3.00781 -3.96094,-3.00781 -31.92578,-1.03125 -59.89063,22.95312 -76.92188,41.94922 14.97266,-90.86328 -83.96875,-163.683597 -84.91797,-164.710941 -1.98046,-1.03125 -3.96093,-1.03125 -6.01953,0 -3.01172,1.976562 -3.96093,3.957031 -3.01172,6.015625 0,0 8.95313,44.878906 -29.94531,88.804686 -38.97265,43.92969 -58.9375,73.84766 -68.91797,91.81641 1.98047,-31.89844 26.9336,-65.85547 26.9336,-66.88281 1.03125,-1.98047 1.03125,-3.95703 0,-6.01563 -1.02735,-1.98047 -3.96094,-3.00781 -6.01953,-1.98047 -1.03125,0 -136.808598,44.87891 -110.82422,180.6211 25.03125,133.76562 172.85156,135.74218 179.82031,135.74218 z m -79.92969,-300.375 c -11.00781,17.96875 -25.98047,51.92188 -17.98047,78.83594 1.03125,1.97656 3.01172,3.95703 4.99219,3.95703 1.98047,0 3.96094,-1.03125 4.98828,-3.00781 0,0 14.02344,-36.88281 74.94141,-105.74609 29.9414,-33.95313 33.98047,-66.878911 33.98047,-84.847661 26.93359,22.953125 96.88281,93.792971 62.89843,172.625001 -1.02734,3.00781 0,6.01562 1.98047,6.96484 1.98047,1.03125 4.99219,0 6.97266,-1.97656 0,-1.03125 33.98437,-55.87891 76.91797,-60.86719 -4.98828,14.00782 -11.96094,46.9375 6.02344,90.78516 19.96093,47.88672 17.98046,95.76953 -4.99219,129.72656 -27.96485,40.92188 -85.8711,62.84375 -167.78125,62.84375 h -3.96094 c -6.01953,0 -145.83594,-1.02734 -168.8125,-126.71875 -19.011718,-100.67578 56.87891,-146.58594 89.83203,-162.57422 z m 0,0"
     id="path18" />
  <path
     style="fill:#000000;fill-opacity:1;fill-rule:nonzero;stroke:none"
     d="m 293.24609,431.48437 h 1.98047 c 3.00781,0 70.89844,-1.02734 81.91016,-62.84375 11.96094,-61.89453 -44.91797,-87.77734 -44.91797,-87.77734 -1.98047,-1.02734 -3.96094,0 -6.01953,1.02734 -2.0586,1.03125 -1.98047,3.96094 -1.03125,6.01563 1.98047,3.96094 4.99219,14.01172 6.01953,22.95312 -4.98828,-7.99218 -12.98828,-17.96484 -24.95313,-31.89453 -16,-17.96875 -12.98828,-35.93359 -12.98828,-36.88672 0,-1.97656 0,-3.95703 -1.98047,-6.01171 -1.98046,-1.03125 -3.96093,-1.03125 -6.02343,0 -2.0586,1.02734 -39.92578,29.91796 -39.92578,66.8789 -8,-6.96484 -17.98047,-14.00781 -28.99219,-14.00781 h -1.02734 c -1.98047,0 -3.01172,1.02734 -3.96094,3.00781 -0.95313,1.97656 -1.03125,3.00781 0,4.98438 0,1.03125 6.96875,14.96093 -1.98047,36.88672 -9.98438,23.98046 -8.95313,46.93359 3.00781,64.90234 9.98047,15.82812 31.92578,32.76562 80.88281,32.76562 z m -72.88281,-90.78515 c 6.97266,-15.98828 6.02344,-28.96875 3.96094,-36.88281 14.97265,4.98828 26.93359,23.98437 27.96484,24.93359 1.03125,1.97656 3.01172,3.00781 3.96094,3.00781 3.01172,0 4.99219,-1.98047 4.99219,-4.98828 0,-1.02734 0,-1.97656 -1.03125,-3.00781 -11.96094,-28.96875 9.98047,-55.87891 22.97265,-67.83203 1.03125,8.94531 4.99219,20.97656 14.97266,32.92968 26.93359,29.91797 32.95312,45.90625 32.95312,45.90625 1.03125,1.97657 3.01172,3.95704 4.99219,3.00782 1.98047,0 3.96094,-1.98047 4.98828,-3.95703 3.01172,-9.97266 1.03125,-23.98438 -1.98047,-33.95704 13.94532,9.97266 34.9375,32.92579 27.96485,69.89063 -9.98047,52.87109 -69.94922,53.89844 -71.92969,53.89844 h -1.98047 c -34.93359,0 -59.88672,-8.94141 -71.92578,-26.91016 -8.875,-16.14453 -9.90234,-36.08984 -0.875,-56.03906 z m 0,0"
     id="path20" />
</svg>
