<?xml version="1.0" encoding="UTF-8" standalone="no"?>
<!-- Created with Inkscape (http://www.inkscape.org/) -->

<svg
   width="1000"
   height="1000"
   version="1.1"
   id="svg16"
   xmlns="http://www.w3.org/2000/svg"
   xmlns:svg="http://www.w3.org/2000/svg"
   xmlns:rdf="http://www.w3.org/1999/02/22-rdf-syntax-ns#"
   xmlns:cc="http://creativecommons.org/ns#"
   xmlns:dc="http://purl.org/dc/elements/1.1/">
  <defs
     id="defs5498" />
  <metadata
     id="metadata5594">
    <rdf:RDF>
      <cc:Work
         rdf:about="">
        <dc:format>image/svg+xml</dc:format>
        <dc:type
           rdf:resource="http://purl.org/dc/dcmitype/StillImage" />
      </cc:Work>
    </rdf:RDF>
  </metadata>
  <path
     style="fill:#000000;fill-opacity:1;fill-rule:nonzero;stroke:none"
     d="M 294.59766,63.878906 V 908.76953 h 22.21093 v 27.26953 h 22.21485 v -27.26953 h 320.88672 v 27.26953 h 21.23046 v -27.26953 h 24.26172 V 63.878906 Z m 23.4414,82.457034 c 0,-14.16407 11.47656,-25.62891 25.65625,-25.62891 7.12891,0 13.52344,2.86719 18.19531,7.53516 4.67188,4.66797 7.53907,11.05468 7.53907,18.17578 v 200.53906 c 0,14.16406 -11.47266,25.62891 -25.65235,25.62891 -7.13281,0 -13.52343,-2.86719 -18.19531,-7.53125 C 320.91016,360.38672 318.03906,354 318.03906,346.875 Z m 25.65625,300.10937 c -15.16406,0 -27.3789,-12.28125 -27.3789,-27.34765 0,-15.14844 12.29687,-27.35157 27.3789,-27.35157 15.16406,0 27.375,12.28516 27.375,27.35157 0.082,15.0664 -12.21094,27.34765 -27.375,27.34765 z m 0,0"
     id="path6" />
  <path
     style="fill:#000000;fill-opacity:1;fill-rule:nonzero;stroke:none"
     d="m 343.69531,432.36328 c -7.46094,-0.16406 -13.11328,-5.8125 -13.27734,-13.26562 0,-0.32813 0.57031,-4.66797 0.082,-1.80079 0.24219,-1.3125 0.65234,-2.62109 1.14453,-3.92968 -0.90234,2.61718 0.73828,-1.14844 0.90234,-1.39453 0.90235,-1.39063 0.98438,-1.47266 0.082,-0.32813 0.57422,-0.65234 1.14844,-1.30859 1.80469,-1.96484 0.2461,-0.2461 3.44141,-2.78516 1.22656,-1.14453 1.06641,-0.73829 2.29688,-1.39454 3.44532,-1.96485 -2.46094,1.3086 1.30859,-0.32812 1.63672,-0.41015 1.64062,-0.32813 1.80468,-0.41016 0.32812,-0.2461 0.90234,-0.082 1.88672,-0.16406 2.78906,-0.16406 0.32813,0 4.67188,0.57422 1.80078,0.082 1.3125,0.24609 2.625,0.65625 3.9375,1.14453 -2.625,-0.89844 1.14454,0.73828 1.39063,0.90235 1.3125,0.90234 1.47656,0.98437 0.32812,0.082 0.65625,0.57422 1.3125,1.14453 1.96875,1.80078 0.2461,0.24609 2.78516,3.4414 1.14844,1.23047 0.73438,1.0625 1.39063,2.29297 1.96485,3.4375 -1.3125,-2.45703 0.32812,1.30859 0.41015,1.63672 0.32813,1.64062 0.41016,1.80078 0.2461,0.32812 0.082,0.90234 0.16406,1.88281 0.16406,2.78516 0,0.32812 -0.57422,4.66797 -0.082,1.80078 -0.2461,1.30859 -0.65625,2.62109 -1.06641,3.92969 0.90235,-2.6211 -0.73828,1.14843 -0.90234,1.39453 -0.89844,1.30859 -0.98047,1.47265 -0.082,0.32422 -0.57422,0.65625 -1.14453,1.3125 -1.80078,1.96875 -0.2461,0.24218 -3.44532,2.78125 -1.23047,1.14453 -1.06641,0.73828 -2.29688,1.39062 -3.44141,1.96484 2.45703,-1.30859 -1.3125,0.32813 -1.64062,0.41016 -1.64063,0.32812 -1.80469,0.41015 -0.32813,0.24609 -1.06641,-0.082 -1.96484,0 -2.94922,0 -7.70703,0.16406 -14.09765,6.30469 -14.09765,14.08203 0,7.53516 6.39062,14.33203 14.09765,14.08594 23.03125,-0.57416 40.98047,-18.50775 41.55469,-41.51557 0.57422,-23.01171 -19.42578,-40.9414 -41.55469,-41.51562 -23.03125,-0.57422 -40.98437,19.40625 -41.55859,41.51562 -0.57031,23.00782 19.42578,40.94141 41.55859,41.51563 7.70313,0.16406 14.09766,-6.55078 14.09766,-14.08594 0.082,-7.85937 -6.39453,-13.91797 -14.09766,-14.08203 z m 0,0"
     id="path8" />
  <path
     style="fill:#000000;fill-opacity:1;fill-rule:nonzero;stroke:none"
     d="m 332.13672,146.33594 c 0.082,-4.42188 -0.73828,2.45703 0.082,-1.71875 0.082,-0.2461 1.39453,-4.33985 0.24609,-1.71875 0.49219,-1.22657 1.23047,-2.375 1.88672,-3.4375 -1.39453,2.28906 0.82031,-0.90235 1.14453,-1.23047 2.95313,-3.10938 5.49219,-3.4375 9.83594,-3.35547 -2.12891,-0.082 2.46094,0.65234 2.46094,0.65234 -1.88672,-0.57031 2.21094,1.14844 2.21094,1.14844 1.47656,0.89844 2.54296,2.04688 3.44531,3.4375 1.80078,2.70313 1.80078,4.01172 1.80078,6.46875 0,6.0625 0,12.1211 0,18.26172 0,29.47656 0,58.875 0,88.35547 0,27.51172 0,55.02734 0,82.45703 0,3.03125 0,6.14062 0,9.17187 0,0.65625 0,1.22657 0,1.88282 0,1.39062 -0.41016,3.76562 -0.89844,4.91406 -0.082,0.24609 -2.46094,3.76562 -0.65625,1.55469 -0.82031,1.0664 -1.80469,1.96484 -2.70703,2.86718 -2.86719,2.78125 1.96875,-1.23046 -1.39062,0.89844 -0.32813,0.16406 -4.10157,1.71875 -1.47657,0.73828 -1.3125,0.49219 -2.625,0.73828 -3.93359,0.98047 2.94922,-0.57031 -1.88672,-0.24219 -2.05078,-0.24219 2.13281,0.082 -2.45703,-0.65625 -2.45703,-0.65625 0.89843,0.57422 0.65234,0.41016 -0.90235,-0.41015 -0.90234,-0.49219 -1.80468,-0.98047 -2.625,-1.55469 1.72266,1.14453 -1.71875,-1.88281 -1.63672,-1.80078 1.39063,1.47266 -1.3125,-2.12891 -1.23046,-2.12891 -0.90235,-1.55859 -1.06641,-3.19531 -1.06641,-4.91406 0,-0.32812 0,-0.73828 0,-1.06641 0,-53.05859 0,-106.12109 0,-159.18359 -0.082,-13.51172 -0.082,-26.9414 -0.082,-40.37109 0,-7.69532 -6.39063,-14.08203 -14.09766,-14.08203 -7.70312,0 -14.09765,6.38671 -14.09765,14.08203 0,49.70703 0,99.41015 0,149.11328 0,17.6875 -0.49219,35.375 0.082,53.0625 0.57421,17.19531 12.45703,30.87109 28.19531,36.4414 14.01562,4.99219 30.65625,-0.41015 40.65625,-10.89453 9.09766,-9.57812 10.73438,-21.53515 10.73438,-33.98047 0,-56.2539 0,-112.51171 0,-168.76562 0,-8.84375 0.24609,-17.76953 -0.082,-26.61328 -0.65238,-21.94531 -20.65238,-39.79688 -42.5391,-37.99609 -20.89844,1.72265 -36.47266,18.83593 -37.04687,39.63281 -0.2461,7.69922 6.55859,14.08594 14.09765,14.08594 7.86719,0.082 13.9336,-6.38672 14.09766,-14.08594 z m 0,0"
     id="path10" />
  <path
     style="fill:#000000;fill-opacity:1;fill-rule:nonzero;stroke:none"
     d="m 280.5,63.878906 c 0,19.160156 0,38.242184 0,57.402344 0,48.3125 0,96.54297 0,144.85547 0,63.87109 0,127.65625 0,191.52734 0,65.75391 0,131.58985 0,197.34375 0,54.12891 0,108.17188 0,162.29688 0,28.82422 0,57.64843 0,86.47265 0,1.71875 0,3.35547 0,5.07422 0,7.69922 6.39453,14.08594 14.09766,14.08594 7.375,0 14.83593,0 22.21093,0 -4.67187,-4.66797 -9.42578,-9.41797 -14.09765,-14.08594 0,9.08985 0,18.17969 0,27.26953 0,7.69532 6.39453,14.08594 14.09765,14.08594 7.37891,0 14.83594,0 22.21485,0 7.70312,0 14.09765,-6.39062 14.09765,-14.08594 0,-9.08984 0,-18.17968 0,-27.26953 -4.67187,4.66797 -9.42578,9.41797 -14.09765,14.08594 40.65234,0 81.30859,0 121.96093,0 58.85157,0 117.70313,0 176.55079,0 7.46093,0 14.91796,0 22.375,0 -4.67188,-4.66797 -9.42579,-9.41797 -14.09766,-14.08594 0,9.08985 0,18.17969 0,27.26953 0,7.69532 6.39453,14.08594 14.09766,14.08594 7.05078,0 14.10156,0 21.23046,0 7.70313,0 14.09766,-6.39062 14.09766,-14.08594 0,-9.08984 0,-18.17968 0,-27.26953 -4.67187,4.66797 -9.42578,9.41797 -14.09766,14.08594 8.11329,0 16.14844,0 24.17969,0 7.70313,0 14.09766,-6.38672 14.09766,-14.08594 0,-19.16015 0,-38.23828 0,-57.39844 0,-48.3125 0,-96.54296 0,-144.85546 0,-63.8711 0,-127.66016 0,-191.53125 0,-65.75391 0,-131.58985 0,-197.34375 0,-54.125 0,-108.16797 0,-162.29688 0,-28.82422 0,-57.64453 0,-86.468749 0,-1.722656 0,-3.359375 0,-5.078125 0,-7.695312 -6.39453,-14.085937 -14.09766,-14.085937 -34.42578,0 -68.85156,0 -103.1914,0 -64.83594,0 -129.58594,0 -194.42188,0 -37.53906,0 -75.16016,0 -112.69922,0 -0.16406,0 -0.24609,0 -0.41015,0 -7.70313,0 -14.09766,6.390625 -14.09766,14.085937 0,7.699219 6.39453,14.085938 14.09766,14.085938 34.42578,0 68.85156,0 103.1914,0 64.83594,0 129.58594,0 194.42188,0 37.53906,0 75.16015,0 112.69922,0 0.16406,0 0.24609,0 0.41015,0 -4.67187,-4.667969 -9.42578,-9.417969 -14.09765,-14.085938 0,19.160156 0,38.242184 0,57.402344 0,48.3125 0,96.54297 0,144.85547 0,63.87109 0,127.65625 0,191.52734 0,65.75391 0,131.58985 0,197.34375 0,54.12891 0,108.17188 0,162.29688 0,28.82422 0,57.64843 0,86.47265 0,1.71875 0,3.35547 0,5.07422 4.67187,-4.66406 9.42578,-9.41406 14.09765,-14.08203 -8.11328,0 -16.14844,0 -24.26172,0 -7.70312,0 -14.09765,6.38672 -14.09765,14.08203 0,9.08985 0,18.17969 0,27.26953 4.67187,-4.66797 9.42578,-9.41797 14.09765,-14.08593 -7.04687,0 -14.09765,0 -21.22656,0 4.67188,4.66796 9.42578,9.41796 14.09766,14.08593 0,-9.08984 0,-18.17968 0,-27.26953 0,-7.69531 -6.39453,-14.08203 -14.09766,-14.08203 -40.65625,0 -81.30859,0 -121.96484,0 -58.85157,0 -117.69922,0 -176.55078,0 -7.45704,0 -14.91797,0 -22.375,0 -7.70704,0 -14.09766,6.38672 -14.09766,14.08203 0,9.08985 0,18.17969 0,27.26953 4.67187,-4.66797 9.42578,-9.41797 14.09766,-14.08593 -7.37891,0 -14.83594,0 -22.21485,0 4.67188,4.66796 9.42578,9.41796 14.09766,14.08593 0,-9.08984 0,-18.17968 0,-27.26953 0,-7.69531 -6.39063,-14.08203 -14.09766,-14.08203 -7.375,0 -14.83203,0 -22.21094,0 4.67188,4.66797 9.42579,9.41797 14.09766,14.08203 0,-19.16015 0,-38.23828 0,-57.39844 0,-48.3125 0,-96.54296 0,-144.85546 0,-63.8711 0,-127.66016 0,-191.53125 0,-65.75391 0,-131.58985 0,-197.34375 0,-54.125 0,-108.16797 0,-162.29688 0,-28.82422 0,-57.64453 0,-86.468749 0,-1.722656 0,-3.359375 0,-5.078125 0,-7.695312 -6.39453,-14.085937 -14.09766,-14.085937 -7.62109,0 -14.01562,6.390625 -14.01562,14.085937 z m 0,0"
     id="path12" />
  <path
     style="fill:#000000;fill-opacity:1;fill-rule:nonzero;stroke:none"
     d="m 705.40234,894.6875 c -34.42578,0 -68.85156,0 -103.1914,0 -64.83594,0 -129.58594,0 -194.42188,0 -37.53906,0 -75.16015,0 -112.69922,0 -0.16406,0 -0.24609,0 -0.41015,0 -7.70313,0 -14.09766,6.38672 -14.09766,14.08203 0,7.69922 6.39453,14.08594 14.09766,14.08594 34.42578,0 68.85156,0 103.1914,0 64.83594,0 129.58594,0 194.42188,0 37.53906,0 75.16015,0 112.69922,0 0.16406,0 0.24609,0 0.41015,0 7.70313,0 14.09766,-6.38672 14.09766,-14.08594 0,-7.69531 -6.39453,-14.08203 -14.09766,-14.08203 z m 0,0"
     id="path14" />
</svg>
