<?xml version="1.0" encoding="UTF-8" standalone="no"?>
<!-- Created with Inkscape (http://www.inkscape.org/) -->

<svg
   width="1000"
   height="1000"
   version="1.1"
   id="svg14"
   xmlns="http://www.w3.org/2000/svg"
   xmlns:svg="http://www.w3.org/2000/svg"
   xmlns:rdf="http://www.w3.org/1999/02/22-rdf-syntax-ns#"
   xmlns:cc="http://creativecommons.org/ns#"
   xmlns:dc="http://purl.org/dc/elements/1.1/">
  <defs
     id="defs5498" />
  <metadata
     id="metadata5594">
    <rdf:RDF>
      <cc:Work
         rdf:about="">
        <dc:format>image/svg+xml</dc:format>
        <dc:type
           rdf:resource="http://purl.org/dc/dcmitype/StillImage" />
      </cc:Work>
    </rdf:RDF>
  </metadata>
  <path
     style="fill:#000000;fill-opacity:1;fill-rule:nonzero;stroke:none"
     d="m 576.08676,500.01163 c 16.39062,-42.41016 26.39062,-98.29688 26.39062,-159.88281 0,-132.03516 -45.88281,-239.12891 -102.45703,-239.12891 -56.57422,0 -102.45703,107.09375 -102.45703,239.12891 0,61.58593 10.0625,117.47265 26.39062,159.88281 21.76954,-14.6836 47.90625,-23.23047 76.06641,-23.23047 28.16016,0 54.29688,8.60937 76.06641,23.23047 z m 0,0"
     id="path6" />
  <path
     style="fill:#000000;fill-opacity:1;fill-rule:nonzero;stroke:none"
     d="m 363.39144,613.4335 c 0,-3.16406 0.69532,-6.13672 0.94922,-9.23828 -44.99609,6.96094 -98.66015,26.26563 -152.19531,57.08985 C 97.789886,727.30069 27.989105,820.59757 56.274262,869.65225 84.563324,918.64444 200.18441,904.84366 314.59848,838.82803 368.07504,807.94132 411.5516,771.10147 440.09066,735.59366 394.84457,713.37882 363.39144,667.23428 363.39144,613.4335 Z m 0,0"
     id="path8" />
  <path
     style="fill:#000000;fill-opacity:1;fill-rule:nonzero;stroke:none"
     d="m 787.89535,661.28507 c -53.47266,-30.88672 -107.19922,-50.19141 -152.19531,-57.08985 0.1914,3.10156 0.94922,6.07422 0.94922,9.23828 0,53.80078 -31.51563,99.94532 -76.76172,122.22266 28.53906,35.44531 72.01562,72.28516 125.48828,103.17187 114.35547,66.07813 229.97266,79.81641 258.32422,30.82422 C 972.0516,820.66397 902.25082,727.3671 787.89535,661.28507 Z m 0,0"
     id="path10" />
  <path
     style="fill:#000000;fill-opacity:1;fill-rule:nonzero;stroke:none"
     d="m 397.56332,613.4335 c 0,-56.60937 45.88672,-102.5039 102.48828,-102.5039 56.60156,0 102.48828,45.89453 102.48828,102.5039 0,56.61328 -45.88672,102.50782 -102.48828,102.50782 -56.60156,0 -102.48828,-45.89454 -102.48828,-102.50782"
     id="path12" />
</svg>
