<?xml version="1.0" encoding="UTF-8" standalone="no"?>
<!-- Created with Inkscape (http://www.inkscape.org/) -->

<svg
   width="1000"
   height="1000"
   version="1.1"
   id="svg8"
   xmlns="http://www.w3.org/2000/svg"
   xmlns:svg="http://www.w3.org/2000/svg"
   xmlns:rdf="http://www.w3.org/1999/02/22-rdf-syntax-ns#"
   xmlns:cc="http://creativecommons.org/ns#"
   xmlns:dc="http://purl.org/dc/elements/1.1/">
  <defs
     id="defs5498" />
  <metadata
     id="metadata5594">
    <rdf:RDF>
      <cc:Work
         rdf:about="">
        <dc:format>image/svg+xml</dc:format>
        <dc:type
           rdf:resource="http://purl.org/dc/dcmitype/StillImage" />
      </cc:Work>
    </rdf:RDF>
  </metadata>
  <path
     style="fill:#000000;fill-opacity:1;fill-rule:nonzero;stroke:none"
     d="m 207.5,432.5 h 90 v 45 h -90 z M 860,140 H 140 c -49.949219,0 -89.550781,40.05078 -89.550781,90 L 50,770 c 0,49.94922 40.050781,90 90,90 h 720 c 49.94922,0 90,-40.05078 90,-90 V 230 c 0,-49.94922 -40.05078,-90 -90,-90 z M 365,477.5 c 0,38.25 -29.25,67.5 -67.5,67.5 h -90 v 90 H 140 V 365 h 157.5 c 38.25,0 67.5,29.25 67.5,67.5 z M 522.5,635 H 455 V 365 h 67.5 z M 860,635 H 806 L 691.25,477.5 V 635 H 635 V 365 h 56.25 l 112.5,157.5 V 365 H 860 Z m 0,0"
     id="path6" />
</svg>
