<?xml version="1.0" encoding="UTF-8" standalone="no"?>
<!-- Created with Inkscape (http://www.inkscape.org/) -->

<svg
   width="1000"
   height="1000"
   version="1.1"
   id="svg8"
   xmlns="http://www.w3.org/2000/svg"
   xmlns:svg="http://www.w3.org/2000/svg"
   xmlns:rdf="http://www.w3.org/1999/02/22-rdf-syntax-ns#"
   xmlns:cc="http://creativecommons.org/ns#"
   xmlns:dc="http://purl.org/dc/elements/1.1/">
  <defs
     id="defs5498" />
  <metadata
     id="metadata5594">
    <rdf:RDF>
      <cc:Work
         rdf:about="">
        <dc:format>image/svg+xml</dc:format>
        <dc:type
           rdf:resource="http://purl.org/dc/dcmitype/StillImage" />
      </cc:Work>
    </rdf:RDF>
  </metadata>
  <path
     style="fill:#000000;fill-opacity:1;fill-rule:nonzero;stroke:none"
     d="m 410.20703,152.91406 c 71.01172,0 135.33203,28.81641 182.16016,75.12891 L 461.66406,358.74609 h 308.7461 V 50 L 664.92187,155.48828 C 599.57031,90.136719 509.51953,50 410.20703,50 228.55859,50 79.332031,184.30469 54.117188,358.74609 H 158.0625 C 181.73047,241.42187 285.67578,152.91406 410.20703,152.91406 Z m 290.22266,470.32813 c 33.96093,-46.3125 57.63281,-101.3711 65.86718,-161.57813 H 662.35156 c -23.67187,117.32422 -127.61719,205.83203 -252.14453,205.83203 -71.01172,0 -135.33594,-28.8164 -182.16406,-75.1289 L 358.74609,461.66406 H 50 v 308.7461 L 155.48828,664.92187 c 65.35156,65.35157 155.40234,105.48829 254.71875,105.48829 79.75781,0 153.34375,-26.24219 213.03516,-69.98047 L 873.32812,950 950,873.32812 Z m 0,0"
     id="path6" />
</svg>
