<?xml version="1.0" encoding="UTF-8" standalone="no"?>
<!-- Created with Inkscape (http://www.inkscape.org/) -->

<svg
   width="1000"
   height="1000"
   version="1.1"
   id="svg10"
   xmlns="http://www.w3.org/2000/svg"
   xmlns:svg="http://www.w3.org/2000/svg"
   xmlns:rdf="http://www.w3.org/1999/02/22-rdf-syntax-ns#"
   xmlns:cc="http://creativecommons.org/ns#"
   xmlns:dc="http://purl.org/dc/elements/1.1/">
  <defs
     id="defs5498" />
  <metadata
     id="metadata5594">
    <rdf:RDF>
      <cc:Work
         rdf:about="">
        <dc:format>image/svg+xml</dc:format>
        <dc:type
           rdf:resource="http://purl.org/dc/dcmitype/StillImage" />
      </cc:Work>
    </rdf:RDF>
  </metadata>
  <path
     style="fill:#000000;fill-opacity:1;fill-rule:nonzero;stroke:none"
     d="m 657.52344,787.9375 c 17.98828,-17.98828 22.52734,-40.51563 22.52734,-67.5 0,-35.97266 -8.99219,-72.03516 -44.96875,-90.02344 -4.53906,17.98828 -8.99609,31.51953 -13.53516,49.50781 0,4.54297 -4.53906,13.53516 -8.99218,17.98829 -4.54297,4.53906 -13.53516,4.53906 -17.98828,0 -4.53907,-4.53907 -4.53907,-4.53907 -4.53907,-8.99219 -4.54297,-17.98828 4.53907,-35.97656 0,-53.96485 -8.99609,-35.97656 -49.51172,-58.5039 -53.96484,-94.48046 -4.53906,-26.98047 13.53125,-53.96485 13.53125,-81.03125 -40.51563,0 -76.49219,26.98046 -103.47266,58.5039 -13.53515,13.53516 -22.52734,26.98047 -31.52343,40.51563 -17.98438,26.98047 -22.52735,58.5039 -13.53125,90.02734 0,8.99219 4.53906,13.53125 0,22.52734 0,8.99219 -8.9961,13.53125 -17.98829,13.53125 -8.99609,0 -13.53515,-8.99218 -17.98828,-13.53125 -8.99609,-8.99609 -13.53515,-22.52734 -22.52734,-31.52343 l -4.53906,-4.53907 c -4.54297,0 -4.54297,4.53907 -4.54297,4.53907 -8.99219,13.53515 -13.53125,40.51562 -13.53125,62.95703 0,4.54297 0,8.99609 0,17.98828 v 4.54297 c 0,8.99219 0,13.53125 4.53906,22.52734 v 4.53906 c 0,4.53907 0,8.99219 4.53906,8.99219 0,4.54297 4.53907,8.9961 4.53907,8.9961 0,4.53906 4.54296,4.53906 4.54296,8.99218 C 369.62891,824 428.13281,855.51953 500.08594,855.51953 567.49609,859.97656 626,832.99219 657.52344,787.9375 Z m -67.4961,31.51953 C 572.03906,841.98828 540.51562,859.97656 500,859.97656 c -40.51563,0 -76.49219,-17.98828 -90.02734,-44.97265 0,0 0,-4.53907 -4.53907,-4.53907 l -4.53906,-4.53906 v -4.53906 c 0,0 0,0 0,-4.54297 0,-4.53906 0,-8.99219 0,-13.53125 0,-4.53906 0,-4.53906 0,-8.99609 0,-13.53125 4.53906,-26.98047 8.99219,-40.51563 0,0 0,-4.53906 4.54297,-4.53906 0,0 0,0 4.53906,0 4.53906,4.53906 8.99219,8.99219 13.53125,17.98828 4.54297,4.53906 4.54297,8.99219 8.99609,8.99219 4.53907,0 8.99219,-4.53907 8.99219,-8.99219 0,-4.53906 0,-8.99609 0,-13.53516 -4.53906,-17.98828 0,-35.97656 8.99609,-49.50781 4.53907,-8.99609 13.53516,-17.98828 17.98829,-22.52734 13.53125,-17.98828 35.97656,-31.52344 58.5039,-31.52344 0,13.53516 -8.99609,31.52344 -8.99609,44.96875 4.54297,17.98828 26.98437,35.97656 31.52344,53.96484 0,8.9961 0,17.98828 0,31.52344 v 4.53906 c 4.53906,4.53907 8.99218,0 8.99218,0 4.54297,-4.53906 4.54297,-4.53906 4.54297,-8.99609 4.53906,-8.99219 4.53906,-17.98438 8.99219,-26.98047 17.98828,8.99609 22.52734,31.52344 22.52734,49.51172 0,18.32812 -4.53906,31.77734 -13.53125,40.76953 z m 0,0"
     id="path6" />
  <path
     style="fill:#000000;fill-opacity:1;fill-rule:nonzero;stroke:none"
     d="M 904.98828,50 H 50.042969 v 134.99609 h 44.96875 V 950 H 904.98828 V 184.99609 h 44.96875 V 50 Z M 815.04687,859.97656 H 185.03906 V 634.95312 c 0,-175.51171 139.53516,-314.96093 314.96094,-314.96093 175.42578,0 315.04687,139.53515 315.04687,314.96093 z m 0,0"
     id="path8" />
</svg>
