<?xml version="1.0" encoding="UTF-8" standalone="no"?>
<!-- Created with Inkscape (http://www.inkscape.org/) -->

<svg
   width="1000"
   height="1000"
   version="1.1"
   id="svg8"
   xmlns="http://www.w3.org/2000/svg"
   xmlns:svg="http://www.w3.org/2000/svg"
   xmlns:rdf="http://www.w3.org/1999/02/22-rdf-syntax-ns#"
   xmlns:cc="http://creativecommons.org/ns#"
   xmlns:dc="http://purl.org/dc/elements/1.1/">
  <defs
     id="defs5498" />
  <metadata
     id="metadata5594">
    <rdf:RDF>
      <cc:Work
         rdf:about="">
        <dc:format>image/svg+xml</dc:format>
        <dc:type
           rdf:resource="http://purl.org/dc/dcmitype/StillImage" />
      </cc:Work>
    </rdf:RDF>
  </metadata>
  <path
     style="fill:#000000;fill-opacity:1;fill-rule:nonzero;stroke:none"
     d="M 50,550 H 150 V 450 H 50 Z m 0,200 H 150 V 650 H 50 Z M 150,950 V 850 H 50 c 0,55 44.5,100 100,100 z M 50,350 H 150 V 250 H 50 Z M 650,950 H 750 V 850 H 650 Z M 850,50 H 350 C 294.5,50 250,95 250,150 v 500 c 0,55 44.5,100 100,100 h 500 c 55,0 100,-45 100,-100 V 150 C 950,95 905,50 850,50 Z m 0,600 H 350 V 150 H 850 Z M 450,950 H 550 V 850 H 450 Z m -200,0 H 350 V 850 H 250 Z m 0,0"
     id="path6" />
</svg>
