<?xml version="1.0" encoding="UTF-8" standalone="no"?>
<!-- Created with Inkscape (http://www.inkscape.org/) -->

<svg
   width="1000"
   height="1000"
   version="1.1"
   id="svg8"
   xmlns="http://www.w3.org/2000/svg"
   xmlns:svg="http://www.w3.org/2000/svg"
   xmlns:rdf="http://www.w3.org/1999/02/22-rdf-syntax-ns#"
   xmlns:cc="http://creativecommons.org/ns#"
   xmlns:dc="http://purl.org/dc/elements/1.1/">
  <defs
     id="defs5498" />
  <metadata
     id="metadata5594">
    <rdf:RDF>
      <cc:Work
         rdf:about="">
        <dc:format>image/svg+xml</dc:format>
        <dc:type
           rdf:resource="http://purl.org/dc/dcmitype/StillImage" />
      </cc:Work>
    </rdf:RDF>
  </metadata>
  <path
     style="fill:#000000;fill-opacity:1;fill-rule:nonzero;stroke:none"
     d="m 500,336.36328 c -90.41016,0 -163.63672,73.22656 -163.63672,163.63672 0,90.41016 73.22656,163.63672 163.63672,163.63672 90.41016,0 163.63672,-73.22656 163.63672,-163.63672 0,-90.41016 -73.22656,-163.63672 -163.63672,-163.63672 z M 865.72656,459.08984 C 846.91016,288.5 711.5,153.08984 540.91016,134.27344 V 50 h -81.82032 v 84.27344 C 288.5,153.08984 153.08984,288.5 134.27344,459.08984 H 50 v 81.82032 h 84.27344 c 18.8164,170.58984 154.22656,306 324.8164,324.8164 V 950 h 81.82032 V 865.72656 C 711.5,846.91016 846.91016,711.5 865.72656,540.91016 H 950 V 459.08984 Z M 500,786.36328 C 341.68359,786.36328 213.63672,658.31641 213.63672,500 213.63672,341.68359 341.68359,213.63672 500,213.63672 c 158.31641,0 286.36328,128.04687 286.36328,286.36328 0,158.31641 -128.04687,286.36328 -286.36328,286.36328 z m 0,0"
     id="path6" />
</svg>
