<?xml version="1.0" encoding="UTF-8" standalone="no"?>
<!-- Created with Inkscape (http://www.inkscape.org/) -->

<svg
   width="1000"
   height="1000"
   version="1.1"
   id="svg8"
   xmlns="http://www.w3.org/2000/svg"
   xmlns:svg="http://www.w3.org/2000/svg"
   xmlns:rdf="http://www.w3.org/1999/02/22-rdf-syntax-ns#"
   xmlns:cc="http://creativecommons.org/ns#"
   xmlns:dc="http://purl.org/dc/elements/1.1/">
  <defs
     id="defs5498" />
  <metadata
     id="metadata5594">
    <rdf:RDF>
      <cc:Work
         rdf:about="">
        <dc:format>image/svg+xml</dc:format>
        <dc:type
           rdf:resource="http://purl.org/dc/dcmitype/StillImage" />
      </cc:Work>
    </rdf:RDF>
  </metadata>
  <path
     style="fill:#000000;fill-opacity:1;fill-rule:nonzero;stroke:none"
     d="M 865.72656,459.08984 C 846.91016,288.5 711.5,153.08984 540.91016,134.27344 V 50 h -81.82032 v 84.27344 c -46.22656,4.91015 -89.58984,18.8164 -129.27343,39.67969 l 61.36718,61.36328 C 424.72656,221.41016 461.54687,213.63672 500,213.63672 c 158.31641,0 286.36328,128.04687 286.36328,286.36328 0,38.45312 -7.77344,75.27344 -21.27344,108.41016 l 61.36328,61.36328 C 846.91016,630.5 860.81641,587.13672 866.13672,540.91016 H 950 v -81.82032 z m -733.91015,-275.3164 83.45703,83.45312 c -43.77344,53.58985 -73.22657,119.45703 -81,191.86328 H 50 v 81.82032 h 84.27344 c 18.8164,170.58984 154.22656,306 324.8164,324.8164 V 950 h 81.82032 v -84.27344 c 72.40625,-8.17969 138.27343,-37.22656 191.86328,-81 l 83.45312,83.45703 51.95703,-51.95703 L 183.77344,131.81641 Z M 674.68359,726.63672 C 626.41016,763.86328 565.86328,786.36328 500,786.36328 341.68359,786.36328 213.63672,658.31641 213.63672,500 c 0,-65.86328 22.5,-126.41016 59.72656,-174.68359 z m 0,0"
     id="path6" />
</svg>
