<?xml version="1.0" encoding="UTF-8" standalone="no"?>
<!-- Created with Inkscape (http://www.inkscape.org/) -->

<svg
   width="1000"
   height="1000"
   version="1.1"
   id="svg8"
   xmlns="http://www.w3.org/2000/svg"
   xmlns:svg="http://www.w3.org/2000/svg"
   xmlns:rdf="http://www.w3.org/1999/02/22-rdf-syntax-ns#"
   xmlns:cc="http://creativecommons.org/ns#"
   xmlns:dc="http://purl.org/dc/elements/1.1/">
  <defs
     id="defs5498" />
  <metadata
     id="metadata5594">
    <rdf:RDF>
      <cc:Work
         rdf:about="">
        <dc:format>image/svg+xml</dc:format>
        <dc:type
           rdf:resource="http://purl.org/dc/dcmitype/StillImage" />
      </cc:Work>
    </rdf:RDF>
  </metadata>
  <path
     style="fill:#000000;fill-opacity:1;fill-rule:nonzero;stroke:none"
     d="M 564.21484,114.5 C 351.44922,114.5 178.92969,287.11719 178.92969,500 H 50.5 l 166.52734,166.62109 3,5.9961 L 392.97656,500 H 264.54687 c 0,-165.76563 133.9961,-299.83203 299.66797,-299.83203 165.67188,0 299.66797,134.0664 299.66797,299.83203 0,165.76562 -133.99609,299.83203 -299.66797,299.83203 -82.62109,0 -157.53906,-33.83594 -211.48047,-88.23437 l -60.78906,60.82421 C 361.72656,842.23828 457.61719,885.5 564.21484,885.5 776.97656,885.5 949.5,712.88281 949.5,500 949.5,287.11719 776.97656,114.5 564.21484,114.5 Z M 521.40625,328.66797 V 542.83203 L 704.62891,651.62891 735.45312,599.80078 585.61719,510.70703 V 328.66797 Z m 0,0"
     id="path6" />
</svg>
