<?xml version="1.0" encoding="UTF-8" standalone="no"?>
<!-- Created with Inkscape (http://www.inkscape.org/) -->

<svg
   width="1000"
   height="1000"
   version="1.1"
   id="svg24"
   xmlns="http://www.w3.org/2000/svg"
   xmlns:svg="http://www.w3.org/2000/svg"
   xmlns:rdf="http://www.w3.org/1999/02/22-rdf-syntax-ns#"
   xmlns:cc="http://creativecommons.org/ns#"
   xmlns:dc="http://purl.org/dc/elements/1.1/">
  <defs
     id="defs5498" />
  <metadata
     id="metadata5594">
    <rdf:RDF>
      <cc:Work
         rdf:about="">
        <dc:format>image/svg+xml</dc:format>
        <dc:type
           rdf:resource="http://purl.org/dc/dcmitype/StillImage" />
      </cc:Work>
    </rdf:RDF>
  </metadata>
  <path
     style="fill:#000000;fill-opacity:1;fill-rule:nonzero;stroke:none"
     d="m 674.38271,404.25801 c 0,4.32422 -3.50781,7.82813 -7.83203,7.82813 H 332.63662 c -4.32422,0 -7.83203,-3.50391 -7.83203,-7.82813 v -27.47656 c 0,-4.32031 3.50781,-7.82422 7.83203,-7.82422 h 333.91406 c 4.32422,0 7.83203,3.50391 7.83203,7.82422 z m 0,0"
     id="path6" />
  <path
     style="fill:#000000;fill-opacity:1;fill-rule:nonzero;stroke:none"
     d="m 674.38271,537.73067 c 0,4.32031 -3.50781,7.82422 -7.83203,7.82422 H 332.63662 c -4.32422,0 -7.83203,-3.50391 -7.83203,-7.82422 v -27.47656 c 0,-4.32422 3.50781,-7.82813 7.83203,-7.82813 h 333.91406 c 4.32422,0 7.83203,3.50391 7.83203,7.82813 z m 0,0"
     id="path8" />
  <path
     style="fill:#000000;fill-opacity:1;fill-rule:nonzero;stroke:none"
     d="m 674.38271,669.24239 c 0,4.32031 -3.50781,7.82812 -7.83203,7.82812 H 332.63662 c -4.32422,0 -7.83203,-3.50781 -7.83203,-7.82812 v -27.47657 c 0,-4.32031 3.50781,-7.82812 7.83203,-7.82812 h 333.91406 c 4.32422,0 7.83203,3.50781 7.83203,7.82812 z m 0,0"
     id="path10" />
  <path
     style="fill:#000000;fill-opacity:1;fill-rule:nonzero;stroke:none"
     d="m 807.3124,265.41036 c -11.75,-121.56641 -72.625,-149.04297 -72.625,-149.04297 -0.97656,-0.48828 -1.95703,-1.0625 -2.9375,-1.55078 C 635.46084,65.328325 489.3124,64.347856 489.3124,64.347856 c -121.66797,0 -229.62891,51.937504 -229.62891,51.937504 -0.32421,0.24218 -0.65234,0.57031 -0.97656,0.8164 -61.85547,52.26172 -67.73047,159.96485 -67.73047,159.96485 -31.41797,280.47656 0,461.39843 0,461.39843 17.625,119.60547 76.54297,182.38672 76.54297,182.38672 219.83594,33.34766 467.16797,0 467.16797,0 62.83594,-70.60547 72.625,-184.34375 72.625,-184.34375 27.5,-115.61328 11.83203,-349.45312 0,-471.09765 z M 565.9374,160.88301 c 0,-14.67578 11.91406,-26.57812 26.60156,-26.57812 7.34375,0 13.95313,2.93359 18.76563,7.74609 4.8164,4.80859 7.7539,11.41406 7.7539,18.75 v 26.58203 c 0,14.67578 -11.91406,26.57813 -26.60156,26.57813 -7.34375,0 -13.95312,-2.9336 -18.76953,-7.7461 -4.8125,-4.80859 -7.75,-11.41406 -7.75,-18.75 z m -92.94531,0 c 0,-14.67578 11.91406,-26.57812 26.60156,-26.57812 7.34375,0 13.95312,2.93359 18.76953,7.74609 4.8125,4.80859 7.75,11.41406 7.75,18.75 v 26.58203 c 0,14.67578 -11.91406,26.57813 -26.60156,26.57813 -7.34375,0 -13.95313,-2.9336 -18.76953,-7.7461 -4.8125,-4.80859 -7.75,-11.41406 -7.75,-18.75 z m -93.02735,0 c 0,-14.67578 11.91407,-26.57812 26.60157,-26.57812 7.34375,0 13.95703,2.93359 18.76953,7.74609 4.8164,4.80859 7.7539,11.41406 7.7539,18.75 v 26.58203 c 0,14.67578 -11.91406,26.57813 -26.60547,26.57813 -7.34375,0 -13.95312,-2.9336 -18.76562,-7.7461 -4.81641,-4.80859 -7.75391,-11.41406 -7.75391,-18.75 z m 356.6836,620.30469 h -472.5586 c 0,0 -0.32421,-511.375 0,-511.62109 h 472.63672 z m 0,0"
     id="path12" />
  <path
     style="fill:#000000;fill-opacity:1;fill-rule:nonzero;stroke:none"
     d="m 736.64834,767.16426 c -30.76563,0 -61.53125,0 -92.29297,0 -63.64844,0 -127.30078,0 -190.94922,0 -53.53125,0 -107.05859,0 -160.58984,0 -9.54688,0 -19.17969,0 -28.72657,0 4.65235,4.64453 9.38672,9.375 14.03516,14.02344 0,-28.86328 0,-57.72656 -0.0781,-86.58984 0,-62.20704 -0.082,-124.41797 -0.082,-186.62891 0,-59.03125 0,-118.05859 0,-177.08984 0,-14.83985 0,-29.59766 0.082,-44.4336 0,-4.07812 0,-8.23437 0,-12.3125 0,-1.05859 0,-2.12109 0,-3.26172 0,-2.44531 0.8125,-0.97656 -0.49219,2.44532 -4.48828,3.42578 -9.0586,6.85156 -13.54688,10.35546 30.76563,0 61.53125,0 92.29297,0 63.64844,0 127.30078,0 190.94922,0 53.53125,0 107.0625,0 160.58984,0 9.62891,0 19.17969,0 28.72657,0 -4.65235,-4.64843 -9.38672,-9.375 -14.03516,-14.02343 0,28.86328 0,57.72656 0,86.58984 0,62.20703 0,124.5 0,186.70703 0,59.03125 0,118.0625 0,177.08985 0,20.38671 0,40.76953 0,61.15234 0,7.66406 6.36328,14.02344 14.03516,14.02344 7.66796,0 14.03515,-6.35938 14.03515,-14.02344 0,-28.86328 0,-57.72656 0,-86.58984 0,-62.20704 0,-124.5 0,-186.71094 0,-59.02735 0,-118.0586 0,-177.08985 0,-20.38281 0,-40.76562 0,-61.14843 0,-7.66407 -6.36719,-14.02344 -14.03515,-14.02344 -30.76563,0 -61.52735,0 -92.29297,0 -63.64844,0 -127.29688,0 -190.94922,0 -53.53125,0 -107.0586,0 -160.58985,0 -9.54687,0 -19.17578,0 -28.72656,0 -6.6914,0 -11.33984,4.40234 -13.54297,10.35547 -1.0625,2.6875 -0.57421,6.92969 -0.57421,9.78125 0,5.78906 0,11.66015 -0.0781,17.44922 0,20.79297 0,41.58203 -0.082,62.375 0,62.125 0,124.33593 0,186.46484 0,59.10938 0.082,118.22266 0.082,177.41406 0,20.62891 0,41.17578 0,61.80469 0,7.66406 6.36328,14.02344 14.03516,14.02344 30.76171,0 61.52734,0 92.28906,0 63.65234,0 127.30078,0 190.94922,0 53.53125,0 107.0625,0 160.59375,0 9.6289,0 19.17578,0 28.72265,0 7.67188,0 14.03516,-6.35938 14.03516,-14.02344 0.32812,-7.74609 -6.12109,-14.10547 -13.78906,-14.10547 z m 0,0"
     id="path14" />
  <path
     style="fill:#000000;fill-opacity:1;fill-rule:nonzero;stroke:none"
     d="m 393.9999,160.88301 c 0,-0.89453 0.082,-1.875 0.16406,-2.77343 -0.24609,2.85546 0.48828,-1.30469 0.65235,-1.62891 0.57031,-1.55078 0.57031,-1.71094 0.082,-0.32422 0.57031,-1.22656 1.30468,-2.28516 2.03906,-3.42578 -1.71094,2.60937 3.91797,-3.26172 1.46875,-1.46875 1.0625,-0.81641 2.20312,-1.38672 3.42969,-2.03906 -2.44922,1.30468 1.30468,-0.40625 1.63281,-0.48829 1.62891,-0.32421 1.79297,-0.40625 0.32422,-0.24609 1.46875,-0.16016 2.9375,-0.16016 4.32422,-0.0781 -2.28516,-0.082 2.12109,0.48828 2.28515,0.57031 3.91797,1.0586 -1.38672,-0.98047 2.1211,0.89453 2.77734,1.46876 1.79687,0.98047 3.91797,3.26172 -1.55079,-1.62891 1.14453,1.79297 1.22265,1.875 2.04297,3.42579 -0.40625,-1.71093 0.89844,2.12109 0.24609,0.97657 0.49219,1.95703 0.65234,2.9336 -0.32422,-1.62891 -0.082,0 -0.082,0.89843 0,0.73438 0,1.38672 0,2.1211 0,3.01562 0,6.11328 0,9.1289 0,5.05469 0,10.19141 0,15.25 0,6.11328 -3.67187,10.4336 -9.38281,12.06641 -1.63281,0.32422 -1.79297,0.40625 -0.32422,0.24219 -1.46875,0.16406 -2.94141,0.16406 -4.32812,0.082 2.28515,0.082 -2.1211,-0.48828 -2.28516,-0.57031 -3.91406,-1.0586 1.39062,0.98046 -2.12109,-0.89844 -2.77344,-1.46485 -1.79297,-0.97656 -3.91407,-3.25781 1.54688,1.6289 -1.14453,-1.79688 -1.22656,-1.87891 -2.03906,-3.42188 0.41016,1.71484 -0.89844,-2.11719 -0.32422,-0.98047 -0.48828,-1.95703 -0.65234,-2.9375 0.32812,1.63281 0.082,0 0.082,-0.89453 0,-0.73437 0,-1.38672 0,-2.12109 0,-3.01563 0,-6.11328 0,-9.13281 -0.082,-4.97262 -0.082,-10.10934 -0.082,-15.16403 0,-7.66406 -6.36328,-14.02344 -14.03516,-14.02344 -7.66797,0 -14.03515,6.35938 -14.03515,14.02344 0,15.16407 -1.875,31.14453 4.65234,45.33203 6.36328,13.94141 22.60156,22.17969 37.45313,21.76953 14.36328,-0.40625 27.82812,-8.96875 34.51953,-21.60546 7.09765,-13.3711 4.73047,-30.82032 4.73047,-45.41407 0,-15.0039 -8.56641,-29.10547 -21.86719,-36.03906 -13.13672,-6.92969 -30.19141,-5.94922 -42.1875,2.9375 -10.77344,7.98828 -16.89063,19.64844 -17.21875,33.10156 -0.16406,7.66407 6.52734,14.02344 14.03515,14.02344 7.75391,-0.082 13.79297,-6.4414 13.95313,-14.10547 z m 0,0"
     id="path16" />
  <path
     style="fill:#000000;fill-opacity:1;fill-rule:nonzero;stroke:none"
     d="m 487.02724,160.88301 c 0,-0.89453 0.082,-1.875 0.16407,-2.77343 -0.2461,2.85546 0.48828,-1.30469 0.65234,-1.62891 0.57031,-1.55078 0.57031,-1.71094 0.082,-0.32422 0.57031,-1.22656 1.30469,-2.28516 2.03906,-3.42578 -1.71484,2.60937 3.91797,-3.26172 1.46875,-1.46875 1.0625,-0.81641 2.20313,-1.38672 3.42578,-2.03906 -2.44531,1.30468 1.3086,-0.40625 1.63282,-0.48829 1.63281,-0.32421 1.79687,-0.40625 0.32812,-0.24609 1.46875,-0.16016 2.9375,-0.16016 4.32422,-0.0781 -2.28516,-0.082 2.12109,0.48828 2.28516,0.57031 3.91797,1.0586 -1.38672,-0.98047 2.12109,0.89453 2.77344,1.46876 1.79688,0.98047 3.91797,3.26172 -1.55078,-1.62891 1.14062,1.79297 1.22266,1.875 2.03906,3.42579 -0.40625,-1.71093 0.89843,2.12109 0.2461,0.97657 0.48828,1.95703 0.65235,2.9336 -0.32813,-1.62891 -0.082,0 -0.082,0.89843 0,0.73438 0,1.38672 0,2.1211 0,3.01562 0,6.11328 0,9.1289 0,5.05469 0,10.19141 0,15.25 0,6.11328 -3.67188,10.4336 -9.38282,12.06641 -1.63281,0.32422 -1.79687,0.40625 -0.32812,0.24219 -1.46875,0.16406 -2.9375,0.16406 -4.32422,0.082 2.28516,0.082 -2.12109,-0.48828 -2.28516,-0.57031 -3.91797,-1.0586 1.38672,0.98046 -2.12109,-0.89844 -2.77344,-1.46485 -1.79688,-0.97656 -3.91797,-3.25781 1.55078,1.6289 -1.14062,-1.79688 -1.22266,-1.87891 -2.03906,-3.42188 0.32422,1.71484 -0.89843,-2.11719 -0.32422,-0.98047 -0.48828,-1.95703 -0.65235,-2.9375 0.32813,1.63281 0.082,0 0.082,-0.89453 0,-0.73437 0,-1.38672 0,-2.12109 0,-3.01563 0,-6.11328 0,-9.13281 -0.082,-4.97266 -0.082,-10.10938 -0.082,-15.16407 0,-7.66406 -6.36328,-14.02343 -14.03515,-14.02343 -7.67188,0 -14.03516,6.35937 -14.03516,14.02343 0,15.16407 -1.87891,31.14453 4.65234,45.33203 6.36329,13.94141 22.60157,22.17969 37.45313,21.76953 14.36328,-0.40625 27.82812,-8.96875 34.51953,-21.60546 7.09766,-13.3711 4.73047,-30.82032 4.73047,-45.41407 0,-15.0039 -8.56641,-29.10546 -21.86719,-36.03905 -13.14062,-6.92969 -30.19531,-5.94922 -42.1914,2.9375 -10.76954,7.98828 -16.89063,19.64843 -17.21485,33.10155 -0.16406,7.66407 6.52735,14.02344 14.03516,14.02344 7.75,-0.082 13.78906,-6.4414 13.95312,-14.10547 z m 0,0"
     id="path18" />
  <path
     style="fill:#000000;fill-opacity:1;fill-rule:nonzero;stroke:none"
     d="m 580.05459,160.88301 c 0,-0.89453 0.0781,-1.875 0.16015,-2.77343 -0.24218,2.85546 0.49219,-1.30469 0.65235,-1.62891 0.57422,-1.55078 0.57422,-1.71094 0.082,-0.32422 0.57422,-1.22656 1.30859,-2.28516 2.04297,-3.42578 -1.71485,2.60937 3.91406,-3.26172 1.46875,-1.46875 1.05859,-0.81641 2.20312,-1.38672 3.42578,-2.03906 -2.44922,1.30468 1.30469,-0.40625 1.63281,-0.48829 1.63281,-0.32421 1.79297,-0.40625 0.32422,-0.24609 1.46875,-0.16016 2.9375,-0.16016 4.32812,-0.0781 -2.28515,-0.082 2.1211,0.48828 2.28125,0.57031 3.91797,1.0586 -1.38671,-0.98047 2.125,0.89453 2.77344,1.46876 1.79297,0.98047 3.91407,3.26172 -1.55078,-1.62891 1.14453,1.79297 1.22656,1.875 2.03906,3.42579 -0.41016,-1.71093 0.89453,2.12109 0.24609,0.97657 0.49219,1.95703 0.65625,2.9336 -0.32812,-1.62891 -0.082,0 -0.082,0.89843 0,0.73438 0,1.38672 0,2.1211 0,3.01562 0,6.11328 0,9.1289 0,5.05469 0,10.19141 0,15.25 0,6.11328 -3.67188,10.4336 -9.38672,12.06641 -1.62891,0.32422 -1.79297,0.40625 -0.32422,0.24219 -1.46875,0.16406 -2.9375,0.16406 -4.40625,0.082 2.28516,0.082 -2.12109,-0.48828 -2.28515,-0.57031 -3.91797,-1.0586 1.38671,0.98046 -2.1211,-0.89844 -2.77734,-1.46485 -1.79687,-0.97656 -3.91797,-3.25781 1.55078,1.6289 -1.14062,-1.79688 -1.22265,-1.87891 -2.04297,-3.42188 0.40625,1.71484 -0.89844,-2.11719 -0.24609,-0.98047 -0.49219,-1.95703 -0.65234,-2.9375 0.32421,1.63281 0.082,0 0.082,-0.89453 0,-0.73437 0,-1.38672 0,-2.12109 0,-3.01563 0,-6.11328 0,-9.13281 0,-4.97266 0,-10.10938 0,-15.16407 0,-7.66406 -6.36719,-14.02343 -14.03516,-14.02343 -7.67187,0 -14.03906,6.35937 -14.03906,14.02343 0,15.16407 -1.875,31.14453 4.65234,45.33203 6.36719,13.94141 22.60547,22.17969 37.45703,21.76953 14.35938,-0.40625 27.82422,-8.96875 34.51563,-21.60546 7.10156,-13.3711 4.73437,-30.82032 4.73437,-45.41407 0,-15.0039 -8.57031,-29.10546 -21.87109,-36.03905 -13.13672,-6.92969 -30.19141,-5.94922 -42.1875,2.9375 -10.76953,7.98828 -16.89063,19.64843 -17.21875,33.10155 -0.16016,7.66407 6.53125,14.02344 14.03516,14.02344 7.67187,-0.082 13.71093,-6.4414 13.95703,-14.10547 z m 0,0"
     id="path20" />
  <path
     style="fill:#000000;fill-opacity:1;fill-rule:nonzero;stroke:none"
     d="M 821.42959,265.41036 C 817.10537,221.95332 806.57802,176.94551 780.79287,140.82442 770.75771,126.88301 757.86318,112.04708 742.19521,104.30098 701.23037,84.078325 658.30849,71.117388 613.34756,62.879106 c -36.23047,-6.601562 -73.11719,-10.679687 -110,-12.226562 -38.67969,-1.632813 -77.60157,2.769531 -115.46485,10.191406 -40.39453,7.90625 -80.21484,19.972656 -118.16015,35.792969 -4.81641,2.035156 -9.62891,4.074221 -14.44532,6.195311 -4.40625,1.95703 -7.75,5.30078 -11.33984,8.5625 -16.24219,15.08203 -28.80859,34.16016 -38.27344,54.05469 -15.25781,31.96094 -23.82812,66.69531 -27.82422,101.7539 -10.85547,96.04688 -16.24218,192.90625 -14.52734,289.60547 1.0625,58.6211 4.40625,117.48828 12.64844,175.6211 9.05859,63.59765 29.3789,127.02734 67.07812,179.78125 4.48828,6.27734 9.13672,12.47265 14.27735,18.17968 2.20703,2.44922 5.14453,3.75 8.32422,4.24219 8.32421,1.22266 16.73046,2.36328 25.05468,3.50391 14.85156,1.95703 29.78125,3.58984 44.71485,4.97265 57.69531,5.46485 115.71093,7.09375 173.64843,6.44141 73.28125,-0.8125 146.72266,-5.05469 219.50782,-13.85937 1.96093,-0.2461 3.83593,-0.48829 5.79687,-0.73438 2.85547,-0.40625 5.05859,-0.48828 7.58594,-1.95703 6.12109,-3.58594 11.01953,-11.90234 15.17969,-17.36719 14.93359,-19.48437 26.03125,-41.33594 35.49609,-63.92187 13.54687,-32.28516 22.44141,-66.77344 27.25391,-101.42578 0.57421,-4.23829 1.14453,-8.48047 1.63281,-12.80079 0.32812,-3.26171 -0.73438,4.07813 0.082,0.73438 1.0625,-4.48438 1.95703,-8.96875 2.85547,-13.45313 3.91797,-20.38281 6.36719,-41.09375 8.24219,-61.80078 4.16406,-47.1289 4.73437,-94.66015 4.08203,-141.94922 -1.46875,-85.20312 -7.10157,-170.5664 -15.34375,-255.60546 -0.73438,-7.58594 -5.875,-14.02344 -14.03516,-14.02344 -7.09766,0 -14.76953,6.4375 -14.03516,14.02344 8.8125,90.90625 14.6875,182.38671 15.26172,273.78515 0.32422,46.39453 -0.8164,93.03125 -5.71484,139.17969 -0.48828,4.89062 -1.14063,9.69922 -1.71094,14.59375 -0.49219,3.99609 0.40625,-2.9375 -0.16406,0.97656 -0.16406,1.14063 -0.32813,2.36719 -0.49219,3.50781 -0.40625,2.69141 -0.8125,5.29688 -1.22265,7.98829 -1.46875,8.88671 -3.10157,17.69531 -5.14063,26.5 -0.73437,3.01562 -0.89844,6.19531 -1.22266,9.21093 -0.082,0.81641 -0.24609,1.71485 -0.32812,2.52735 -0.48828,3.91406 0.48828,-3.50391 0,-0.16016 -0.40625,2.76953 -0.81641,5.625 -1.30469,8.39844 -4.08203,25.4375 -10.52734,50.54687 -19.09375,74.84375 -10.28515,29.02734 -26.68359,60.82422 -47.33203,84.22656 2.04297,-1.22266 4.16406,-2.44531 6.20313,-3.58984 7.7539,-1.0586 2.03906,-0.24219 0.24609,-0.082 -3.18359,0.41015 -6.44922,0.8164 -9.62891,1.14453 -11.91406,1.38281 -23.82812,2.60937 -35.74218,3.75 -41.04688,3.91406 -82.25391,6.52343 -123.54688,8.07031 -96.85937,3.58984 -195.59766,1.46875 -290.99219,-12.88281 2.04297,1.22265 4.16407,2.44531 6.20313,3.58984 -0.89844,-0.98047 -1.71484,-1.95703 -2.52734,-2.9375 -0.98047,-1.14062 -1.87891,-2.28125 -2.85938,-3.50391 -0.81641,-0.98046 -3.17969,-4.07812 0.16406,0.16407 -0.8164,-1.0625 -1.55078,-2.03907 -2.36718,-3.10157 -8.32032,-11.08593 -15.66797,-22.99218 -22.35938,-35.14062 -4.64844,-8.47656 -8.97266,-17.20313 -12.89063,-26.00781 -1.0625,-2.36328 -2.03906,-4.73047 -3.10156,-7.09375 1.14063,2.6914 -0.57031,-1.30469 -0.65234,-1.54688 -0.48828,-1.22656 -0.98047,-2.52734 -1.55078,-3.7539 -2.28516,-5.70704 -4.40625,-11.41407 -6.36328,-17.20313 -8.65235,-24.86719 -13.95704,-50.30469 -18.44532,-76.23047 -0.48828,-2.6914 -0.89453,-5.38281 -1.22265,-8.07422 -0.16407,-1.38672 -0.40625,-2.76953 -0.57032,-4.07422 -0.082,-0.8164 -0.24609,-1.55078 -0.32812,-2.36718 -0.32422,-2.11719 0.57422,4.16015 0.24609,2.03906 -0.082,-0.57031 -0.16406,-1.22266 -0.24609,-1.79297 -0.57031,-4.40234 -1.14063,-8.72266 -1.63281,-13.12891 -3.34375,-28.37109 -5.54688,-56.91015 -7.09766,-85.36328 -5.54687,-102.48828 -2.28516,-205.46484 7.42578,-307.625 1.46875,-15.16406 3.01953,-30.32812 4.57031,-45.49609 0.2461,-2.36328 0.57032,-4.72656 0.81641,-7.01172 0.32422,-2.6875 -0.49219,3.75 -0.16406,0.98047 0.082,-0.73438 0.24609,-1.46875 0.32812,-2.20313 0.24219,-1.79296 0.57032,-3.66796 0.8125,-5.46093 1.22657,-7.7461 2.85938,-15.49219 4.65235,-23.15625 2.12109,-9.13282 4.73437,-18.1836 7.67187,-27.07032 1.55078,-4.5625 3.1836,-9.1289 4.97656,-13.69531 0.48829,-1.14062 0.89844,-2.28515 1.38672,-3.42578 1.55078,-3.83203 -1.14062,2.60938 0.49219,-1.22266 1.14063,-2.6914 2.36328,-5.38281 3.67188,-7.98828 9.78906,-20.54687 19.82812,-35.30468 36.23047,-49.89843 1.875,-1.63282 3.01953,-1.71485 0.24609,-0.41016 0.24219,-0.082 0.48828,-0.24219 0.65234,-0.32422 1.14063,-0.48828 2.28516,-1.0625 3.42578,-1.55078 1.79688,-0.81641 3.58985,-1.54688 5.38672,-2.36328 0.57032,-0.2461 1.14063,-0.48828 1.63282,-0.73438 2.36328,-0.97656 -3.42969,1.46875 -0.98047,0.40625 1.55078,-0.65234 3.18359,-1.30468 4.73437,-1.95703 16.64453,-6.76562 33.61719,-12.71875 50.75391,-18.01562 51.08203,-15.820315 103.47265,-25.92969 156.75781,-25.519534 22.84766,0.160156 45.85937,2.117188 68.54687,4.644532 4.89454,0.570312 9.70704,1.144531 14.60547,1.792968 0.40625,0.08203 4.57032,0.652344 1.30469,0.164063 1.30469,0.164062 2.53125,0.328125 3.83594,0.570312 3.01953,0.410157 6.12109,0.898438 9.14062,1.386719 11.42188,1.710938 22.76563,3.832031 34.10938,6.117188 23.82812,4.890624 47.32812,11.167972 70.17578,19.402342 13.62891,4.89453 24.80859,9.53906 38.26953,16.96094 2.125,1.22265 4.24609,2.60937 6.20313,3.99219 0.65234,0.49218 1.38671,0.98046 2.03906,1.46875 -4.48828,-3.42188 -1.30469,-0.97657 -0.24219,-0.16407 1.79297,1.46875 3.58984,3.10157 5.30469,4.73047 4.16015,3.91406 7.99609,8.15235 11.58594,12.63672 0.57031,0.73438 2.36718,3.01953 -0.2461,-0.32422 0.49219,0.65235 0.98047,1.30469 1.46875,1.95703 0.98047,1.38672 1.96094,2.76954 2.9375,4.15625 2.28516,3.26172 4.40625,6.6875 6.44922,10.19141 2.03906,3.50781 3.99609,7.17578 5.79297,10.84375 0.98047,1.95703 1.875,3.99609 2.85547,5.95312 0.48828,1.0586 0.89844,2.1211 1.38672,3.09766 0.65234,1.46875 0.57031,1.38672 -0.082,-0.16406 0.32812,0.73437 0.57031,1.46875 0.89843,2.20312 4.08203,10.19141 7.34375,20.71094 10.03516,31.39063 3.75391,15 6.12109,29.43359 7.50781,44.02734 0.73438,7.58203 5.79688,14.02344 14.03516,14.02344 7.18359,0.32812 14.93359,-6.11328 14.19922,-13.77734 z m 0,0"
     id="path22" />
</svg>
