<?xml version="1.0" encoding="UTF-8" standalone="no"?>
<!-- Created with Inkscape (http://www.inkscape.org/) -->

<svg
   width="1000"
   height="1000"
   version="1.1"
   id="svg8"
   xmlns="http://www.w3.org/2000/svg"
   xmlns:svg="http://www.w3.org/2000/svg"
   xmlns:rdf="http://www.w3.org/1999/02/22-rdf-syntax-ns#"
   xmlns:cc="http://creativecommons.org/ns#"
   xmlns:dc="http://purl.org/dc/elements/1.1/">
  <defs
     id="defs5498" />
  <metadata
     id="metadata5594">
    <rdf:RDF>
      <cc:Work
         rdf:about="">
        <dc:format>image/svg+xml</dc:format>
        <dc:type
           rdf:resource="http://purl.org/dc/dcmitype/StillImage" />
      </cc:Work>
    </rdf:RDF>
  </metadata>
  <path
     style="fill:#000000;fill-opacity:1;fill-rule:nonzero;stroke:none"
     d="M 616.55078,320 500,436.55078 383.44922,320 320,383.44922 436.55078,500 320,616.55078 383.44922,680 500,563.44922 616.55078,680 680,616.55078 563.44922,500 680,383.44922 Z M 500,50 C 251.14844,50 50,251.14844 50,500 50,748.85156 251.14844,950 500,950 748.85156,950 950,748.85156 950,500 950,251.14844 748.85156,50 500,50 Z m 0,810 C 301.55078,860 140,698.44922 140,500 140,301.55078 301.55078,140 500,140 c 198.44922,0 360,161.55078 360,360 0,198.44922 -161.55078,360 -360,360 z m 0,0"
     id="path6" />
</svg>
