<?xml version="1.0" encoding="UTF-8" standalone="no"?>
<!-- Created with Inkscape (http://www.inkscape.org/) -->

<svg
   width="1000"
   height="1000"
   version="1.1"
   id="svg10"
   xmlns="http://www.w3.org/2000/svg"
   xmlns:svg="http://www.w3.org/2000/svg"
   xmlns:rdf="http://www.w3.org/1999/02/22-rdf-syntax-ns#"
   xmlns:cc="http://creativecommons.org/ns#"
   xmlns:dc="http://purl.org/dc/elements/1.1/">
  <defs
     id="defs5498" />
  <metadata
     id="metadata5594">
    <rdf:RDF>
      <cc:Work
         rdf:about="">
        <dc:format>image/svg+xml</dc:format>
        <dc:type
           rdf:resource="http://purl.org/dc/dcmitype/StillImage" />
      </cc:Work>
    </rdf:RDF>
  </metadata>
  <path
     style="fill:#000000;fill-opacity:1;fill-rule:nonzero;stroke:none"
     d="m 635.24993,761.20314 c 0,-13.54687 -4.54688,-27.00781 -22.5625,-36.00781 0,4.54297 -4.54688,13.54688 -4.54688,18.00391 0,4.54297 0,4.54297 -4.54687,9.0039 -4.54688,0 -9.00781,4.54297 -9.00781,0 v -4.54687 c 0,-9 0,-13.54688 0,-22.54688 -4.54688,-13.54687 -22.5625,-22.55078 -27.02344,-40.55468 0,-9.00391 9.00781,-22.55078 4.54687,-31.55469 -22.5664,0 -36.03515,13.54687 -49.58984,22.55078 -4.54687,4.54297 -13.55469,9.00391 -18.01562,18.00391 -9.00782,9.0039 -9.00782,22.55078 -9.00782,36.01172 0,4.54296 0,4.54296 0,9.0039 0,4.54297 -4.54687,4.54297 -9.00781,4.54297 -4.54687,0 -9.00781,-4.54297 -9.00781,-4.54297 -4.54688,-4.54687 -9.00781,-9.0039 -13.55469,-13.54687 0,0 0,0 -4.54687,0 0,0 0,0 -4.54688,0 -4.54687,9 -4.54687,18.0039 -9.00781,27.00781 v 4.54297 c 0,4.54297 0,4.54297 0,9.0039 v 4.54297 c 0,0 0,4.54297 4.54687,4.54297 0,0 0,0 4.54688,4.54688 13.55469,18.0039 45.03906,31.55078 81.15625,31.55078 31.57422,0 63.05859,-13.54688 76.61328,-27.00781 18.10156,-4.54297 22.5625,-13.54688 22.5625,-22.55079 z m -45.03906,36.09766 c -9.00782,9.00391 -22.5625,18.00391 -45.04297,18.00391 -18.01563,0 -36.03125,-9 -45.03906,-18.00391 0,0 0,0 0,-4.54297 0,0 0,0 0,-4.54687 v -9.08594 c 0,-4.54688 0,-9.00391 4.54687,-13.54688 4.54688,0 4.54688,4.54297 4.54688,9 l 4.54687,4.54688 c 0,0 4.54688,0 4.54688,-4.54688 0,-4.54296 0,-4.54296 0,-4.54296 0,-4.54297 0,-13.54688 4.54687,-18.00391 4.54688,-4.54688 4.54688,-4.54688 9.00781,-9.00391 9.00782,-4.54297 18.01563,-13.54687 27.02344,-13.54687 0,4.54297 -4.54687,13.54687 -4.54687,18.0039 0,9.00391 13.55468,13.54688 13.55468,22.55079 0,4.54296 0,9.0039 0,13.54687 h 4.55078 c 0,0 0,-4.54297 4.54688,-4.54297 0,-4.54297 4.54687,-9.0039 4.54687,-9.0039 9.00782,4.54296 13.55469,13.54687 13.55469,22.55078 -0.34375,-4.375 -0.34375,4.71484 -4.89062,4.71484 z m 0,0"
     id="path6" />
  <path
     style="fill:#000000;fill-opacity:1;fill-rule:nonzero;stroke:none"
     d="M 725.4179,94.58205 H 590.21087 V 49.570331 H 500.0429 V 94.58205 H 364.83587 c -49.58985,0 -90.16797,40.55469 -90.16797,90.11328 h 45.03906 V 545.05471 H 184.49993 l 0.0859,90.02734 H 319.7929 v 315.26172 h 90.16797 v -45.01172 h 270.41797 v 45.01172 l 90.08203,0.0859 V 184.69533 h 45.03906 C 815.58587,135.13674 775.00774,94.58205 725.4179,94.58205 Z M 680.37884,815.30471 H 409.96087 V 635.08205 h 270.41797 z m 0,0"
     id="path8" />
</svg>
