<?xml version="1.0" encoding="UTF-8" standalone="no"?>
<!-- Created with Inkscape (http://www.inkscape.org/) -->

<svg
   width="1000"
   height="1000"
   version="1.1"
   id="svg8"
   xmlns="http://www.w3.org/2000/svg"
   xmlns:svg="http://www.w3.org/2000/svg"
   xmlns:rdf="http://www.w3.org/1999/02/22-rdf-syntax-ns#"
   xmlns:cc="http://creativecommons.org/ns#"
   xmlns:dc="http://purl.org/dc/elements/1.1/">
  <defs
     id="defs5498" />
  <metadata
     id="metadata5594">
    <rdf:RDF>
      <cc:Work
         rdf:about="">
        <dc:format>image/svg+xml</dc:format>
        <dc:type
           rdf:resource="http://purl.org/dc/dcmitype/StillImage" />
      </cc:Work>
    </rdf:RDF>
  </metadata>
  <path
     style="fill:#000000;fill-opacity:1;fill-rule:nonzero;stroke:none"
     d="m 714.16797,859.17187 c -12.42188,0 -23.98828,-2.57031 -32.55469,-6.42187 C 651.20312,836.91016 629.78516,815.07812 608.36719,750.86328 586.52344,684.08203 545.40234,652.82812 505.99609,622.43359 472.16016,596.32031 437.03516,569.35156 406.625,514.12891 383.92187,473.03125 371.5,428.07812 371.5,388.26562 c 0,-119.86328 94.23437,-214.04687 214.16797,-214.04687 119.93359,0 214.16406,94.18359 214.16406,214.04687 H 885.5 C 885.5,220.02734 754,88.601563 585.66797,88.601563 c -168.33594,0 -299.83594,131.425777 -299.83594,299.664057 0,53.94141 16.27734,113.44532 45.83203,166.95704 38.98047,70.63671 84.8125,106.16796 122.07422,134.85156 34.69531,26.54297 59.53906,45.80469 73.24609,87.75781 25.69922,77.91406 58.6836,121.58203 116.9375,151.97656 21.84375,9.84375 45.82813,14.98047 70.2461,14.98047 94.66015,0 171.33203,-76.6289 171.33203,-171.23437 h -85.66797 c 0,47.08984 -38.54687,85.61718 -85.66406,85.61718 z M 313.24609,116 252.42187,55.210939 C 167.18359,140.39844 114.5,258.125 114.5,388.26562 c 0,130.14063 52.68359,247.86719 137.92187,333.0586 l 60.39454,-60.35938 C 243.42969,591.18359 200.16797,494.86328 200.16797,388.26562 200.16797,281.67187 243.42969,185.35156 313.24609,116 Z m 165.33594,272.26562 c 0,59.07813 47.97656,107.02344 107.08594,107.02344 59.10937,0 107.08203,-47.94531 107.08203,-107.02344 0,-59.07421 -47.97266,-107.02343 -107.08203,-107.02343 -59.10938,0 -107.08594,47.94922 -107.08594,107.02343 z m 0,0"
     id="path6" />
</svg>
