<?xml version="1.0" encoding="UTF-8" standalone="no"?>
<!-- Created with Inkscape (http://www.inkscape.org/) -->

<svg
   width="1000"
   height="1000"
   version="1.1"
   id="svg8"
   xmlns="http://www.w3.org/2000/svg"
   xmlns:svg="http://www.w3.org/2000/svg"
   xmlns:rdf="http://www.w3.org/1999/02/22-rdf-syntax-ns#"
   xmlns:cc="http://creativecommons.org/ns#"
   xmlns:dc="http://purl.org/dc/elements/1.1/">
  <defs
     id="defs5498" />
  <metadata
     id="metadata5594">
    <rdf:RDF>
      <cc:Work
         rdf:about="">
        <dc:format>image/svg+xml</dc:format>
        <dc:type
           rdf:resource="http://purl.org/dc/dcmitype/StillImage" />
      </cc:Work>
    </rdf:RDF>
  </metadata>
  <path
     style="fill:#000000;fill-opacity:1;fill-rule:nonzero;stroke:none"
     d="m 455,770 h 90 V 680 H 455 Z M 500,50 C 251.60156,50 50,251.60156 50,500 50,748.39844 251.60156,950 500,950 748.39844,950 950,748.39844 950,500 950,251.60156 748.39844,50 500,50 Z m 0,810 C 301.55078,860 140,698.44922 140,500 140,301.55078 301.55078,140 500,140 c 198.44922,0 360,161.55078 360,360 0,198.44922 -161.55078,360 -360,360 z m 0,-630 c -99.44922,0 -180,80.55078 -180,180 h 90 c 0,-49.5 40.5,-90 90,-90 49.5,0 90,40.5 90,90 0,90 -135,78.75 -135,225 h 90 C 545,533.75 680,522.5 680,410 680,310.55078 599.44922,230 500,230 Z m 0,0"
     id="path6" />
</svg>
