<?xml version="1.0" encoding="UTF-8" standalone="no"?>
<!-- Created with Inkscape (http://www.inkscape.org/) -->

<svg
   width="1000"
   height="1000"
   version="1.1"
   id="svg34"
   xmlns="http://www.w3.org/2000/svg"
   xmlns:svg="http://www.w3.org/2000/svg"
   xmlns:rdf="http://www.w3.org/1999/02/22-rdf-syntax-ns#"
   xmlns:cc="http://creativecommons.org/ns#"
   xmlns:dc="http://purl.org/dc/elements/1.1/">
  <defs
     id="defs5498" />
  <metadata
     id="metadata5594">
    <rdf:RDF>
      <cc:Work
         rdf:about="">
        <dc:format>image/svg+xml</dc:format>
        <dc:type
           rdf:resource="http://purl.org/dc/dcmitype/StillImage" />
      </cc:Work>
    </rdf:RDF>
  </metadata>
  <path
     style="fill:#000000;fill-opacity:1;fill-rule:nonzero;stroke:none"
     d="M 613.44141,64.862859 H 389.28125 c -23.82422,0 -44.51953,18.039063 -44.51953,41.839841 v 545.30079 h 310.64062 l -0.082,-545.21876 c 0,-23.882808 -17.97265,-41.921871 -41.8789,-41.921871 z M 549.79297,614.12067 c -3.70703,3.70313 -8.82031,6.01172 -14.50781,6.01172 h -70.57032 c -11.375,0 -20.52734,-9.22656 -20.52734,-20.50781 0,-5.68359 2.30859,-10.78906 6.01953,-14.49609 3.70703,-3.70704 8.82031,-6.01172 14.50781,-6.01172 h 70.57032 c 11.375,0 20.52734,9.22265 20.52734,20.50781 0,5.68359 -2.30859,10.78906 -6.01953,14.49609 z m 54.57812,-68.52343 H 397.27734 V 117.65583 h 207.09375 z m 0,0"
     id="path6" />
  <path
     style="fill:#000000;fill-opacity:1;fill-rule:nonzero;stroke:none"
     d="m 604.37109,531.34724 c -49.8789,0 -99.83593,0 -149.71484,0 -19.125,0 -38.25391,0 -57.29688,0 4.69922,4.69531 9.48047,9.47265 14.17969,14.16796 0,-33.6875 0,-67.45312 0,-101.13671 0,-65.14844 0,-130.375 0,-195.52344 0,-42.66016 0,-85.24219 0,-127.90235 0,-1.15625 0,-2.22656 0,-3.3789 -4.69922,4.69531 -9.48047,9.47265 -14.17969,14.16797 49.87891,0 99.83594,0 149.71485,0 19.125,0 38.2539,0 57.29687,0 -4.69922,-4.69532 -9.48047,-9.47266 -14.17968,-14.16797 0,33.6875 0,67.45312 0,101.13672 0,65.14843 0,130.375 0,195.52343 0,42.66016 0,85.24219 0,127.90235 0,1.15234 0,2.22656 0,3.3789 0,7.74219 6.42968,14.16407 14.17968,14.16407 7.75,0 14.17969,-6.42188 14.17969,-14.16407 0,-33.6875 0,-67.45312 0,-101.13671 0,-65.14844 0,-130.375 0,-195.52344 0,-42.66016 0,-85.24219 0,-127.90235 0,-1.15625 0,-2.22656 0,-3.3789 0,-7.74219 -6.42969,-14.16407 -14.17969,-14.16407 -49.8789,0 -99.83593,0 -149.71484,0 -19.125,0 -38.25391,0 -57.29688,0 -7.75,0 -14.17968,6.42188 -14.17968,14.16407 0,33.6875 0,67.45312 0,101.13672 0,65.14843 0,130.375 0,195.52343 0,42.66016 0,85.24219 0,127.90235 0,1.15234 0,2.22656 0,3.3789 0,7.74219 6.42968,14.16407 14.17968,14.16407 49.87891,0 99.83594,0 149.71485,0 19.125,0 38.2539,0 57.29687,0 7.75,0 14.17969,-6.42188 14.17969,-14.16407 0,-7.66015 -6.42969,-14.16796 -14.17969,-14.16796 z m 0,0"
     id="path8" />
  <path
     style="fill:#000000;fill-opacity:1;fill-rule:nonzero;stroke:none"
     d="m 539.73828,604.06989 c -1.23828,1.15625 -2.14453,1.40235 -3.79297,1.89453 1.89453,-0.49218 -0.25,0 -0.98828,0 -1.56641,0 -3.13281,0 -4.61719,0 -6.59765,0 -13.27343,0 -19.87109,0 -14.26172,0 -28.52344,0 -42.70313,0 -0.98828,0 -1.98046,0 -2.96875,0 -1.73046,0 -1.89453,-0.16406 -0.41015,0.082 -0.33203,-0.082 -4.28906,-1.48046 -1.64844,-0.32812 -0.33203,-0.16406 -3.62891,-2.46875 -1.48437,-0.74219 -0.66016,-0.57422 -1.32032,-1.23437 -1.89844,-1.89453 0.82422,1.15625 0.82422,1.07422 -0.082,-0.32812 -2.0625,-3.29297 0.49609,2.22265 -0.66016,-1.48047 -1.15234,-3.78907 -0.082,2.38672 -0.24609,-1.64844 -0.16406,-3.95313 -0.57813,1.5625 0.32812,-2.14063 -0.57422,2.14063 0.82422,-1.5664 0.99219,-1.89453 -1.15625,1.97657 1.31641,-1.32031 1.56641,-1.48437 -1.73438,1.64844 1.8125,-0.82422 1.97656,-0.90625 -2.3086,1.15625 2.64062,-0.2461 -0.082,0.082 0.57812,-0.082 1.15625,-0.082 1.73047,-0.082 11.87109,0 23.74609,0 35.61718,0 10.63282,0 21.1875,0 31.82032,0 0.90625,0 1.8125,0 2.64062,0 0.57422,0 1.15234,0 1.73047,0.082 -1.48438,-0.24609 -1.40234,-0.16406 0.24609,0.16797 3.79297,0.90625 -1.89453,-1.15625 1.48438,0.65625 1.40234,0.90625 1.48437,0.90625 0.32812,0.082 0.25,0.25 2.88672,3.29687 1.23828,1.07031 0.4961,0.74219 0.90625,1.48438 1.32032,2.3086 -1.32032,-2.39063 0.24609,1.23437 0.32812,1.64453 -0.16406,-1.48047 -0.16406,-1.39844 -0.082,0.33203 0.16406,3.95312 0.57813,-1.56641 -0.32812,2.14062 0.65625,-1.07031 0.49218,-0.90625 -0.25,0.66016 -1.64844,3.375 1.32031,-0.98828 -1.23438,1.72656 -5.27734,5.6836 -5.60937,14.4961 0,20.09766 5.35547,5.35156 14.83984,5.68359 20.11328,0 11.04688,-11.85938 13.52344,-29.32031 4.69922,-43.23828 -6.42969,-10.21485 -17.97266,-16.0625 -30.00781,-16.0625 -12.69531,0 -25.39063,0 -38.17188,0 -11.04687,0 -22.17578,-0.32813 -33.30468,0.0859 -17.5586,0.65625 -31.16407,14.65625 -32.97657,31.625 -1.73046,15.73047 8.41016,30.14454 22.75391,35.66016 6.76172,2.55469 14.09766,2.14063 21.1875,2.14063 9.80859,0 19.62109,0 29.42969,0 8.74218,0 17.48047,0 26.21875,0 11.29297,0 21.43359,-2.14063 30.08984,-10.21094 5.6875,-5.26953 5.35938,-14.74219 0,-20.09766 -5.52344,-5.59765 -14.34375,-5.26953 -20.03125,0 z m 0,0"
     id="path10" />
  <path
     style="fill:#000000;fill-opacity:1;fill-rule:nonzero;stroke:none"
     d="m 613.44141,50.698797 c -48.72657,0 -97.36719,0 -146.08985,0 -24.07031,0 -48.22656,0 -72.30078,0 -12.03516,0 -23.32812,1.648437 -34.37891,7.082031 C 342.28906,66.925359 330.5,86.773016 330.5,107.11677 c 0,30.88281 0,61.85156 0,92.73437 0,62.67578 0,125.4336 0,188.10938 0,61.27343 0,122.63281 0,183.91015 0,26.6836 0,53.44922 0,80.13282 0,7.74218 6.42969,14.16796 14.17969,14.16796 41.8789,0 83.67968,0 125.55859,0 56.96875,0 114.01563,0 170.98438,0 4.69921,0 9.39843,0 14.09765,0 7.75,0 14.17969,-6.42578 14.17969,-14.16796 0,-27.91797 0,-55.92188 0,-83.83985 0,-61.76953 0,-123.45703 0,-185.22656 0,-62.34766 0,-124.60938 0,-186.95703 0,-29.73047 0,-59.37891 0,-89.11328 0,-31.378911 -24.89844,-55.67188 -56.05859,-56.167973 -7.75,-0.08203 -14.1836,6.507812 -14.1836,14.164062 0,7.824219 6.4336,14.085938 14.1836,14.167969 1.39843,0 2.80078,0.08203 4.20312,0.164062 -2.96875,-0.246093 1.32031,0.246094 1.64844,0.328126 1.32031,0.25 2.55469,0.660156 3.875,1.074218 0.32812,0.08203 4.28515,1.726563 1.48437,0.492188 2.39063,1.070312 4.53516,2.386718 6.67578,3.871094 -2.47265,-1.730469 0.74219,0.742187 1.07422,0.988281 1.23438,1.152343 2.39063,2.386719 3.46094,3.707031 -1.97656,-2.308594 0.57813,0.988281 0.74219,1.234375 0.74219,1.070313 1.32031,2.222656 1.89844,3.375 1.89453,3.707031 -0.82813,-2.550781 0.57421,1.402344 0.4961,1.234375 0.82422,2.550781 1.15625,3.789062 0.32813,1.316411 0.57422,2.632811 0.82422,3.953121 -0.49609,-2.96484 0,1.48047 0,1.73047 0,0.49219 0,0.98828 0,1.48047 0,2.47266 0,4.94141 0,7.41406 0,15.23438 0,30.47266 0,45.70704 0,57.16015 0,114.3164 0,171.47265 0,65.0625 0,130.04688 0,195.10938 0,39.69922 0,79.47656 0,119.17578 0,2.05859 0,4.19922 0,6.25781 4.69922,-4.69531 9.48047,-9.47265 14.17969,-14.16406 -41.88281,0 -83.67969,0 -125.55859,0 -56.96875,0 -114.01563,0 -170.98438,0 -4.69922,0 -9.39843,0 -14.09765,0 4.69922,4.69141 9.48047,9.46875 14.17968,14.16406 0,-27.91797 0,-55.92187 0,-83.83984 0,-61.76953 0,-123.45703 0,-185.22656 0,-62.34766 0,-124.60938 0,-186.95704 0,-29.73046 0,-59.38281 0,-89.11328 0,0 0,-0.082 0,-0.082 0,-1.23437 0,-1.5664 0.082,-2.80078 0.2461,-4.445311 -0.57812,2.55469 0.2461,-1.73047 0.25,-1.3164 0.66015,-2.63281 1.07422,-3.953122 0.082,-0.246094 1.73047,-4.199219 0.57812,-1.5625 0.57422,-1.238282 1.23438,-2.390626 1.89453,-3.460938 0.2461,-0.492188 3.37891,-4.527344 1.64844,-2.46875 1.64844,-2.058594 3.62891,-3.871094 5.6875,-5.519531 -2.14062,1.8125 1.23828,-0.742188 1.48438,-0.90625 1.15625,-0.742188 2.30859,-1.398438 3.54687,-1.976563 0.16406,-0.08203 4.20313,-1.8125 1.56641,-0.742187 1.3164,-0.492188 2.63672,-0.90625 3.875,-1.234375 1.3164,-0.410156 2.71875,-0.660156 4.03906,-0.90625 1.73047,-0.246094 1.8125,-0.328125 0.41016,-0.08203 0.90625,-0.08203 1.89843,-0.164062 2.80468,-0.164062 4.86328,-0.246094 9.8086,0 14.67578,0 27.28516,0 54.49219,0 81.78125,0 43.11719,0 86.15235,0 129.26954,0 7.74609,0 14.17968,-6.425781 14.17968,-14.167969 0.082,-7.738281 -6.43359,-14.164062 -14.17968,-14.164062 z m 0,0"
     id="path12" />
  <path
     style="fill:#000000;fill-opacity:1;fill-rule:nonzero;stroke:none"
     d="m 345.58594,712.86677 9.89453,149.40234 c 0,10.95313 9.72656,20.91797 20.6914,20.91797 h 249.46875 c 10.96485,0 18.87891,-10.04688 18.87891,-20.91797 l 9.89453,-149.40234 z m 175.02343,120.74218 c 0,11.36329 -9.23046,20.50391 -20.52734,20.50391 -5.6875,0 -10.80078,-2.30469 -14.50781,-6.01172 -3.71094,-3.70312 -6.01953,-8.8125 -6.01953,-14.49219 v -70.5 c 0,-11.36718 9.23437,-20.50781 20.52734,-20.50781 5.6875,0 10.80078,2.30469 14.51172,6.01172 3.70703,3.70703 6.01562,8.8125 6.01562,14.49609 z m 0,0"
     id="path14" />
  <path
     style="fill:#000000;fill-opacity:1;fill-rule:nonzero;stroke:none"
     d="m 331.40625,712.86677 c 3.21484,48.42968 6.42969,96.85547 9.64453,145.28515 0.25,3.53907 0.33203,7.2461 0.99219,10.70703 3.05078,16.22266 17.0625,26.60157 32.8125,28.4961 4.36719,0.49219 9.0664,0.082 13.4375,0.082 25.71875,0 51.44141,0 77.16406,0 52.67969,0 105.44141,0 158.12109,0 20.61329,0 33.88672,-15.32031 35.20313,-35.16797 0.41406,-6.67187 0.91016,-13.34375 1.32031,-20.01562 2.0625,-31.12891 4.1211,-62.17969 6.1836,-93.3125 0.82421,-12.02344 1.5664,-24.04688 2.39062,-36.07422 0.49609,-7.74219 -6.84375,-14.16407 -14.17969,-14.16407 -41.8789,0 -83.76172,0 -125.72265,0 -56.64063,0 -113.27735,0 -169.91406,0 -4.36719,0 -8.82032,0 -13.19141,0 -7.83203,0 -14.26172,6.42188 -14.26172,14.16407 0,7.74218 6.42969,14.16797 14.17969,14.16797 41.88281,0 83.76172,0 125.72265,0 56.64063,0 113.27735,0 169.91407,0 4.37109,0 8.82031,0 13.1914,0 -4.69922,-4.69532 -9.48047,-9.47266 -14.17969,-14.16797 -3.21484,48.42968 -6.42968,96.85547 -9.64843,145.28515 -0.082,1.07032 -0.16407,2.14063 -0.2461,3.21094 0,0.24609 0,0.49219 -0.082,0.74219 -0.24609,3.78515 0.57813,-1.56641 -0.16406,1.97656 -0.82422,3.87109 1.23437,-1.8125 -0.57813,1.72656 -0.16406,0.33203 -2.63671,3.54297 -0.90625,1.48438 -2.47265,2.88281 1.89454,-0.90625 -1.23828,1.15234 -3.13281,2.0586 2.14453,-0.41015 -1.48437,0.57813 2.30859,-0.66016 -0.16406,0 -0.98828,0 -5.85157,0 -11.70703,0 -17.5586,0 -27.61718,0 -55.23828,0 -82.85547,0 -49.38281,0 -98.68359,0 -148.06249,0 -0.0859,0 -0.25,0 -0.33204,0 -0.49609,0 -0.90625,0 -1.40234,-0.082 3.13281,0.082 -2.14062,-0.98829 0.41406,0.082 -0.082,-0.082 -3.875,-2.39063 -1.8125,-0.82422 -0.0859,-0.082 -3.13281,-3.29688 -1.65234,-1.23438 -0.082,-0.0859 -2.30859,-4.03906 -1.23438,-1.5664 -0.33203,-0.90625 -0.57812,-1.8125 -0.82421,-2.71875 0.082,1.48437 0.082,1.32031 0,-0.41016 -0.082,-1.73047 -0.25,-3.54297 -0.33204,-5.27344 -0.74218,-11.44531 -1.48437,-22.89453 -2.30859,-34.34375 -2.05859,-30.80078 -4.12109,-61.6875 -6.09766,-92.57031 -0.41406,-5.76562 -0.74218,-11.53125 -1.15625,-17.29687 -0.49221,-7.74216 -6.10159,-14.16404 -14.17971,-14.16404 -7.25391,0.082 -14.67579,6.50391 -14.09766,14.2461 z m 0,0"
     id="path16" />
  <path
     style="fill:#000000;fill-opacity:1;fill-rule:nonzero;stroke:none"
     d="m 506.34766,833.60895 c -0.16407,4.28125 0.74218,-2.39062 -0.2461,1.64454 -0.90625,3.78906 1.15235,-1.89454 -0.66015,1.48437 -1.8125,3.375 1.64843,-1.48437 -0.98829,1.31641 -2.64062,2.80078 1.97657,-1.07032 -1.32031,0.98828 -3.29687,2.05859 2.22656,-0.49219 -1.48437,0.66015 -3.79297,1.15235 2.39062,0.082 -1.64844,0.2461 -3.95703,0.16406 1.56641,0.57812 -2.14453,-0.32813 2.47265,0.65625 -3.21485,-2.14453 -1.31641,-0.49609 -0.16797,-0.082 -2.88672,-3.375 -1.5664,-1.48047 -0.16797,-0.16797 -1.73438,-4.03516 -0.99219,-1.89453 -0.90625,-2.71875 -0.32813,0.82422 -0.32813,-2.30859 0,-1.39844 0,-2.79688 0,-4.19922 0,-14.74219 0,-29.40235 0,-44.14453 0,-6.17579 0,-12.35547 0,-18.53125 0,-1.15235 0,-2.22266 0,-3.375 0,-0.4961 0,-0.90625 0.082,-1.48438 -0.082,2.80078 0.41407,-1.07031 0.57813,-1.5625 -0.82422,2.63281 0.66016,-0.98828 0.90625,-1.32031 -1.73047,2.71875 3.05078,-2.30469 0.49609,-0.49219 0.32813,-0.24609 3.95703,-1.97656 1.31641,-0.90625 0.41406,-0.16406 4.45312,-0.90625 1.56641,-0.57812 0.25,0 4.61718,0.41406 2.14453,-0.082 3.71093,0.66016 -1.23828,-1.07031 2.0625,0.66016 1.48047,0.74219 2.05859,1.5625 2.96484,2.96484 1.89844,3.21094 -0.32812,-1.5664 0.66016,2.0586 -0.41016,-1.56641 0,-0.57813 0,0.82422 0,3.87109 0,7.66015 0,11.53125 -0.082,19.51562 -0.082,39.20312 -0.082,58.80468 0,7.73829 6.42968,14.16407 14.17968,14.16407 7.75,0 14.17969,-6.42578 14.17969,-14.16407 0,-23.30859 0,-46.69921 0,-70.00781 0,-13.09375 -7.17187,-25.36719 -18.96094,-31.3789 -13.93359,-7.08204 -32.07031,-3.95313 -42.1289,8.32031 -10.22266,12.43359 -8.40625,27.67187 -8.40625,42.66015 0,16.63672 0,33.27344 0,49.91016 0,18.28516 13.76562,32.94531 31.73828,35.00391 20.44531,2.30468 37.09765,-14.74219 37.83984,-34.50782 0.25,-7.74218 -6.67578,-14.16796 -14.17969,-14.16796 -7.99609,0 -14.01562,6.42578 -14.26171,14.16796 z m 0,0"
     id="path18" />
  <path
     style="fill:#000000;fill-opacity:1;fill-rule:nonzero;stroke:none"
     d="m 395.95703,903.2027 c 0,-6.92187 -5.60547,-12.51953 -12.53125,-12.51953 h -0.32812 c -6.92579,0 -12.53125,5.59766 -12.53125,12.51953 v 19.60157 c 0,6.91797 5.60546,12.51562 12.53125,12.51562 h 0.32812 c 6.92578,0 12.53125,-5.59765 12.53125,-12.51562 z m 0,0"
     id="path20" />
  <path
     style="fill:#000000;fill-opacity:1;fill-rule:nonzero;stroke:none"
     d="m 410.46875,902.87067 c -0.66016,-12.35156 -8.07813,-22.5664 -20.28125,-25.9414 -11.70703,-3.21485 -23.49609,2.63281 -29.84375,12.43359 -5.85156,8.89453 -3.62891,22.98047 -3.62891,33.10938 0,12.27343 8.57422,22.73046 20.28125,25.94531 11.70703,3.21094 23.4961,-2.63672 29.84375,-12.4375 5.85547,-8.89453 3.62891,-22.97656 3.62891,-33.10938 0,-7.74218 -6.42969,-14.16406 -14.17969,-14.16406 -7.75,0 -14.17969,6.42188 -14.17969,14.16406 0,6.01172 0,12.02344 0,18.03907 0,0.57421 -0.16406,2.88281 0.2461,0.49218 -0.41016,2.63672 0,0.32813 0.74219,-0.57422 -1.64844,1.97657 -0.16407,0.2461 0.90625,-0.16796 -3.37891,1.32031 0.57812,0.16796 -0.49219,0.16796 2.88281,0 -1.65235,-1.07421 0.82422,0.2461 2.30859,1.23437 -0.82422,-1.56641 0.57422,0.57422 1.48437,2.22656 0.082,-1.8125 0.25,0.82422 -0.33204,-6.01172 0,-12.02344 0,-18.03516 0,-0.57813 0.16406,-2.88281 -0.25,-0.49609 0.41406,-2.63282 0,-0.32813 -0.74219,0.57812 1.64844,-1.97656 0.16797,-0.24609 -0.90625,0.16406 3.38281,-1.3164 -0.57422,-0.16406 0.49609,-0.16406 -2.88672,0 1.64844,1.07031 -0.82422,-0.24609 -2.30859,-1.23828 0.82422,1.5625 -0.57812,-0.57813 -1.48438,-2.22265 -0.082,1.8125 -0.2461,-0.82422 0.41016,7.74219 6.1836,14.16797 14.17969,14.16797 7.41797,0 14.58985,-6.42578 14.17969,-14.16797 z m 0,0"
     id="path22" />
  <path
     style="fill:#000000;fill-opacity:1;fill-rule:nonzero;stroke:none"
     d="m 630.42187,922.71833 c 0,6.91797 -5.60546,12.51953 -12.53125,12.51953 h -0.32812 c -6.92578,0 -12.53125,-5.60156 -12.53125,-12.51953 v -19.60156 c 0,-6.91797 5.60547,-12.51563 12.53125,-12.51563 h 0.32812 c 6.92579,0 12.53125,5.59766 12.53125,12.51563 z m 0,0"
     id="path24" />
  <path
     style="fill:#000000;fill-opacity:1;fill-rule:nonzero;stroke:none"
     d="m 616.57422,922.47224 c 0.16406,-2.96485 -1.15625,1.8125 0.24609,-0.82422 1.23438,-2.30469 -1.5664,0.82422 0.57813,-0.57422 2.22265,-1.48438 -1.81641,-0.082 0.82422,-0.2461 -1.32032,0.082 3.29687,0.90235 -0.4961,-0.16796 0.90625,0.25 2.96875,2.14453 0.90625,0.16796 0.66016,0.65625 1.48438,3.375 0.74219,0.57422 0.57812,2.14063 0.24609,0.32813 0.24609,-0.49218 0,-6.01563 0,-12.02735 0,-18.03907 0,2.88282 1.07422,-1.64453 -0.24609,0.82422 -1.23438,2.30469 1.56641,-0.82422 -0.57813,0.57813 -2.22265,1.48047 1.81641,0.082 -0.82421,0.24609 1.32031,-0.082 -3.29688,-0.90625 0.49609,0.16406 -0.90625,-0.24609 -2.96875,-2.14062 -0.90625,-0.16406 -0.66016,-0.66016 -1.48438,-3.37891 -0.74219,-0.57812 -0.57812,-2.14063 -0.24609,-0.32813 -0.24609,0.49609 0,5.92969 0,12.02344 0,18.03516 0,7.74218 6.42969,14.16796 14.17969,14.16796 7.75,0 14.17968,-6.42578 14.17968,-14.16796 0,-10.95313 1.56641,-22.97657 -3.6289,-33.10938 -5.6875,-11.03516 -18.55078,-14.24609 -29.84375,-12.43359 -12.28516,1.97656 -19.70313,14.57812 -20.28125,25.9414 -0.57813,10.625 -1.31641,23.47266 3.6289,33.10938 5.6875,11.03515 18.54688,14.24609 29.84375,12.4375 12.28516,-1.97656 19.70313,-14.57813 20.28125,-25.94531 0.41016,-7.74219 -6.76172,-14.16407 -14.17968,-14.16407 -8.08204,-0.082 -13.76954,6.42188 -14.17969,14.16407 z m 0,0"
     id="path26" />
  <path
     style="fill:#000000;fill-opacity:1;fill-rule:nonzero;stroke:none"
     d="m 440.14844,170.69489 c 0,41.01563 0,82.03125 0,123.04688 0,58.80468 0,117.60937 0,176.41406 0,7 0,14 0,21 0,13.75391 21.35156,13.75391 21.35156,0 0,-41.01563 0,-82.02734 0,-123.04297 0,-58.80469 0,-117.60937 0,-176.41406 0,-7 0,-14 0,-21.00391 -0.082,-13.7539 -21.35156,-13.7539 -21.35156,0 z m 0,0"
     id="path28" />
  <path
     style="fill:#000000;fill-opacity:1;fill-rule:nonzero;stroke:none"
     d="m 542.62109,170.69489 c 0,41.01563 0,82.03125 0,123.04688 0,58.80468 0,117.60937 0,176.41406 0,7 0,14 0,21 0,13.75391 21.35547,13.75391 21.35547,0 0,-41.01563 0,-82.02734 0,-123.04297 0,-58.80469 0,-117.60937 0,-176.41406 0,-7 0,-14 0,-21.00391 0,-13.7539 -21.35547,-13.7539 -21.35547,0 z m 0,0"
     id="path30" />
  <path
     style="fill:#000000;fill-opacity:1;fill-rule:nonzero;stroke:none"
     d="m 491.92187,171.68317 c 0,41.01563 0,82.03125 0,123.04688 0,58.80469 0,117.60937 0,176.41406 0,7 0,14 0,21 0,13.75391 21.35157,13.75391 21.35157,0 0,-41.01562 0,-82.02734 0,-123.04297 0,-58.80469 0,-117.60937 0,-176.41406 0,-7 0,-14 0,-21.00391 -0.082,-13.7539 -21.35157,-13.7539 -21.35157,0 z m 0,0"
     id="path32" />
</svg>
