<?xml version="1.0" encoding="UTF-8" standalone="no"?>
<!-- Created with Inkscape (http://www.inkscape.org/) -->

<svg
   width="1000"
   height="1000"
   version="1.1"
   id="svg8"
   xmlns="http://www.w3.org/2000/svg"
   xmlns:svg="http://www.w3.org/2000/svg"
   xmlns:rdf="http://www.w3.org/1999/02/22-rdf-syntax-ns#"
   xmlns:cc="http://creativecommons.org/ns#"
   xmlns:dc="http://purl.org/dc/elements/1.1/">
  <defs
     id="defs5498" />
  <metadata
     id="metadata5594">
    <rdf:RDF>
      <cc:Work
         rdf:about="">
        <dc:format>image/svg+xml</dc:format>
        <dc:type
           rdf:resource="http://purl.org/dc/dcmitype/StillImage" />
      </cc:Work>
    </rdf:RDF>
  </metadata>
  <path
     style="fill:#000000;fill-opacity:1;fill-rule:nonzero;stroke:none"
     d="M 850,50 H 150 C 94.5,50 50,95 50,150 v 700 c 0,55 44.5,100 100,100 h 700 c 55,0 100,-45 100,-100 V 150 C 950,95 905,50 850,50 Z M 450,650 H 375 V 550 H 275 V 650 H 200 V 350 h 75 V 475 H 375 V 350 h 75 z M 550,350 h 200 c 27.5,0 50,22.5 50,50 v 200 c 0,27.5 -22.5,50 -50,50 H 550 Z m 75,225 H 725 V 425 H 625 Z m 0,0"
     id="path6" />
</svg>
