<?xml version="1.0" encoding="UTF-8" standalone="no"?>
<!-- Created with Inkscape (http://www.inkscape.org/) -->

<svg
   width="1000"
   height="1000"
   version="1.1"
   id="svg14"
   xmlns="http://www.w3.org/2000/svg"
   xmlns:svg="http://www.w3.org/2000/svg"
   xmlns:rdf="http://www.w3.org/1999/02/22-rdf-syntax-ns#"
   xmlns:cc="http://creativecommons.org/ns#"
   xmlns:dc="http://purl.org/dc/elements/1.1/">
  <defs
     id="defs5498" />
  <metadata
     id="metadata5594">
    <rdf:RDF>
      <cc:Work
         rdf:about="">
        <dc:format>image/svg+xml</dc:format>
        <dc:type
           rdf:resource="http://purl.org/dc/dcmitype/StillImage" />
      </cc:Work>
    </rdf:RDF>
  </metadata>
  <path
     style="fill:#000000;fill-opacity:1;fill-rule:nonzero;stroke:none"
     d="m 50,50.04297 v 314.96094 c 0,49.51171 40.515625,90.02734 90.02734,90.02734 H 859.97266 C 909.48437,455.03125 950,414.51562 950,365.00391 V 50.04297 Z M 859.97266,320.03516 H 140.02734 v -90.02735 h 719.94532 z m 0,0"
     id="path6" />
  <path
     style="fill:#000000;fill-opacity:1;fill-rule:nonzero;stroke:none"
     d="m 189.53516,554.05078 c -17.98828,13.53125 -22.52735,44.96875 -4.53907,62.95703 44.96875,53.96485 31.51953,81.03125 8.99219,130.45703 -22.52734,40.51563 -49.50781,99.01953 -13.53125,175.51172 4.53906,17.98828 17.98828,26.98047 35.97656,26.98047 4.53907,0 13.53125,0 17.98438,-4.53906 22.53125,-8.9961 31.52344,-35.97656 22.53125,-58.50391 -17.98828,-35.97656 -4.54297,-58.5039 13.53125,-99.01953 26.98437,-53.96484 62.96094,-126.00391 -17.98828,-225.02344 -17.98828,-22.35547 -44.96875,-22.35547 -62.95703,-8.82031 z m 0,0"
     id="path8" />
  <path
     style="fill:#000000;fill-opacity:1;fill-rule:nonzero;stroke:none"
     d="m 459.52734,554.05078 c -17.98828,13.53125 -22.52734,44.96875 -4.53906,62.95703 44.96875,53.96485 31.51953,81.03125 8.99219,130.45703 -22.52735,40.51563 -49.50781,99.01953 -13.53125,175.51172 8.99219,17.98828 22.52734,26.98047 40.51562,26.98047 4.53907,0 13.53125,0 17.98828,-4.53906 22.52735,-8.9961 31.51954,-35.97656 22.52735,-58.50391 -17.98828,-35.97656 -4.54297,-58.5039 13.53125,-99.01953 26.98437,-53.96484 62.96094,-126.00391 -17.98828,-225.02344 -22.52735,-22.35547 -49.50782,-22.35547 -67.4961,-8.82031 z m 0,0"
     id="path10" />
  <path
     style="fill:#000000;fill-opacity:1;fill-rule:nonzero;stroke:none"
     d="m 724.98047,554.05078 c -17.98828,13.53125 -22.53125,44.96875 -4.54297,62.95703 44.97266,53.96485 31.52344,81.03125 8.99609,130.45703 -22.52734,40.51563 -49.51172,99.01953 -13.53515,175.51172 8.99609,17.98828 22.52734,26.98047 40.51562,26.98047 4.53906,0 13.53516,0 17.98828,-4.53906 22.52735,-8.9961 31.52344,-35.97656 22.52735,-58.50391 -17.98828,-35.97656 -4.53907,-58.5039 13.53515,-99.01953 26.98047,-53.96484 62.95703,-126.00391 -17.98828,-225.02344 -17.98828,-22.35547 -44.96875,-22.35547 -67.49609,-8.82031 z m 0,0"
     id="path12" />
</svg>
