<?xml version="1.0" encoding="UTF-8" standalone="no"?>
<!-- Created with Inkscape (http://www.inkscape.org/) -->

<svg
   width="1000"
   height="1000"
   version="1.1"
   id="svg20"
   xmlns="http://www.w3.org/2000/svg"
   xmlns:svg="http://www.w3.org/2000/svg"
   xmlns:rdf="http://www.w3.org/1999/02/22-rdf-syntax-ns#"
   xmlns:cc="http://creativecommons.org/ns#"
   xmlns:dc="http://purl.org/dc/elements/1.1/">
  <defs
     id="defs5498" />
  <metadata
     id="metadata5594">
    <rdf:RDF>
      <cc:Work
         rdf:about="">
        <dc:format>image/svg+xml</dc:format>
        <dc:type
           rdf:resource="http://purl.org/dc/dcmitype/StillImage" />
      </cc:Work>
    </rdf:RDF>
  </metadata>
  <path
     style="fill:#000000;fill-opacity:1;fill-rule:nonzero;stroke:none"
     d="M 268.88281,524.38672 463.57031,329.70703 658.1875,524.45703 463.5,719.14062 Z m 0,0"
     id="path6" />
  <path
     style="fill:#000000;fill-opacity:1;fill-rule:nonzero;stroke:none"
     d="m 877.04687,62.070312 -24.30859,24.316407 48.62109,48.636721 -24.3125,24.3164 -73,-73.023434 L 779.73828,110.63672 731.11719,62 585.1875,207.97656 l 194.55078,194.6836 145.92969,-146.04688 -48.6211,-48.63672 73.07032,-73.02344 z m 0,0"
     id="path8" />
  <path
     style="fill:#000000;fill-opacity:1;fill-rule:nonzero;stroke:none"
     d="m 463.5,281 73,-73.02344 243.30859,243.38672 -73,73.02344 z m 0,0"
     id="path10" />
  <path
     style="fill:#000000;fill-opacity:1;fill-rule:nonzero;stroke:none"
     d="m 220.19141,573.02344 24.3125,-24.31641 194.6875,194.67969 -24.3125,24.32031 z m 0,0"
     id="path12" />
  <path
     style="fill:#000000;fill-opacity:1;fill-rule:nonzero;stroke:none"
     d="m 171.57422,621.72656 24.30859,-24.3164 194.6875,194.75 -24.30859,24.32031 z m 0,0"
     id="path14" />
  <path
     style="fill:#000000;fill-opacity:1;fill-rule:nonzero;stroke:none"
     d="m 122.95313,670.43359 24.3789,-24.38672 194.61719,194.67969 -24.37891,24.39063 z m 0,0"
     id="path16" />
  <path
     style="fill:#000000;fill-opacity:1;fill-rule:nonzero;stroke:none"
     d="m 195.88281,840.72656 48.6211,48.63672 L 268.8125,865.04687 122.88281,719.07031 98.574219,743.38672 147.19141,792.02344 49.882812,889.36328 98.503906,938 Z m 0,0"
     id="path18" />
</svg>
