<?xml version="1.0" encoding="UTF-8" standalone="no"?>
<!-- Created with Inkscape (http://www.inkscape.org/) -->

<svg
   width="1000"
   height="1000"
   version="1.1"
   id="svg8"
   xmlns="http://www.w3.org/2000/svg"
   xmlns:svg="http://www.w3.org/2000/svg"
   xmlns:rdf="http://www.w3.org/1999/02/22-rdf-syntax-ns#"
   xmlns:cc="http://creativecommons.org/ns#"
   xmlns:dc="http://purl.org/dc/elements/1.1/">
  <defs
     id="defs5498" />
  <metadata
     id="metadata5594">
    <rdf:RDF>
      <cc:Work
         rdf:about="">
        <dc:format>image/svg+xml</dc:format>
        <dc:type
           rdf:resource="http://purl.org/dc/dcmitype/StillImage" />
      </cc:Work>
    </rdf:RDF>
  </metadata>
  <path
     style="fill:#000000;fill-opacity:1;fill-rule:nonzero;stroke:none"
     d="M 912.5,462.875 725,462.5 c -20.625,0 -37.5,16.875 -37.5,37.5 v 337.5 c 0,20.625 16.875,37.5 37.5,37.5 h 187.5 c 20.625,0 37.5,-16.875 37.5,-37.5 V 500 c 0,-20.625 -16.875,-37.125 -37.5,-37.125 z M 912.5,800 H 725 V 537.5 H 912.5 Z M 800,125 H 125 c -41.625,0 -75,33.375 -75,75 v 450 c 0,41.25 33.375,75 75,75 h 262.5 v 75 h -75 v 75 h 300 v -75 h -75 v -75 h 75 V 650 H 125 V 200 h 675 v 187.5 h 75 V 200 c 0,-41.625 -33.75,-75 -75,-75 z M 498.875,387.5 462.5,275 426.125,387.5 H 312.5 l 92.625,66 -35.25,109.125 92.625,-67.5 92.625,67.5 -35.25,-109.125 92.625,-66 z m 0,0"
     id="path6" />
</svg>
