<?xml version="1.0" encoding="UTF-8" standalone="no"?>
<!-- Created with Inkscape (http://www.inkscape.org/) -->

<svg
   width="1000"
   height="1000"
   version="1.1"
   id="svg14"
   xmlns="http://www.w3.org/2000/svg"
   xmlns:svg="http://www.w3.org/2000/svg"
   xmlns:rdf="http://www.w3.org/1999/02/22-rdf-syntax-ns#"
   xmlns:cc="http://creativecommons.org/ns#"
   xmlns:dc="http://purl.org/dc/elements/1.1/">
  <defs
     id="defs5498" />
  <metadata
     id="metadata5594">
    <rdf:RDF>
      <cc:Work
         rdf:about="">
        <dc:format>image/svg+xml</dc:format>
        <dc:type
           rdf:resource="http://purl.org/dc/dcmitype/StillImage" />
      </cc:Work>
    </rdf:RDF>
  </metadata>
  <path
     style="fill:#000000;fill-opacity:1;fill-rule:nonzero;stroke:none"
     d="m 257.03516,643.94531 c -13.53516,13.53516 -17.98829,35.97656 -4.54297,49.51172 35.97656,44.96875 26.98437,62.95703 8.99609,99.01953 C 243.5,824 220.97266,868.96875 247.95312,927.47266 252.49219,941.00781 265.94141,950 279.47656,950 c 4.53906,0 8.99219,0 13.53125,-4.53906 17.98828,-8.9961 26.98438,-26.98438 17.98828,-44.97266 C 297.46484,873.50781 306.45703,855.51953 319.99219,824 342.51953,783.48437 369.5,724.98047 306.45703,648.48828 293.00781,634.95312 270.48047,630.5 257.03516,643.94531 Z m 0,0"
     id="path6" />
  <path
     style="fill:#000000;fill-opacity:1;fill-rule:nonzero;stroke:none"
     d="m 468.51953,643.94531 c -13.53125,13.53516 -17.98828,35.97656 -4.53906,49.51172 35.97656,44.96875 26.98437,62.95703 8.99609,99.01953 C 454.98828,824 432.46094,868.96875 459.44141,927.47266 463.98047,941.00781 477.42969,950 490.96484,950 c 4.53907,0 8.99219,0 13.53125,-4.53906 17.98828,-8.9961 26.98438,-26.98438 17.98828,-44.97266 C 508.95312,873.50781 517.94531,855.51953 531.48047,824 554.00781,783.48437 580.98828,724.98047 517.94531,648.48828 504.49609,634.95312 481.96875,630.5 468.51953,643.94531 Z m 0,0"
     id="path8" />
  <path
     style="fill:#000000;fill-opacity:1;fill-rule:nonzero;stroke:none"
     d="m 675.46875,643.94531 c -13.53516,13.53516 -17.98828,35.97656 -4.53906,49.51172 35.97656,44.96875 26.98047,62.95703 8.99218,99.01953 C 661.93359,824 639.40625,868.96875 666.39062,927.47266 670.92969,941.00781 684.37891,950 697.91016,950 c 4.53906,0 8.99609,0 13.53515,-4.53906 17.98828,-8.9961 26.98047,-26.98438 17.98828,-44.97266 C 715.89844,873.50781 724.89453,855.51953 738.42578,824 760.95312,783.48437 787.9375,724.98047 724.89453,648.48828 711.44531,634.95312 689.00391,630.5 675.46875,643.94531 Z m 0,0"
     id="path10" />
  <path
     style="fill:#000000;fill-opacity:1;fill-rule:nonzero;stroke:none"
     d="M 882.50391,410.01562 828.53906,176 C 824,153.47266 806.01172,140.02734 783.56641,140.02734 H 634.95312 V 50 H 364.96094 v 90.02734 H 220.97266 C 198.44531,140.02734 180.45703,153.55859 176,176 L 122.03906,410.01562 H 50 v 134.9961 h 900 v -134.9961 z m 0,0"
     id="path12" />
</svg>
