<?xml version="1.0" encoding="UTF-8" standalone="no"?>
<!-- Created with Inkscape (http://www.inkscape.org/) -->

<svg
   width="1000"
   height="1000"
   version="1.1"
   id="svg26"
   xmlns="http://www.w3.org/2000/svg"
   xmlns:svg="http://www.w3.org/2000/svg"
   xmlns:rdf="http://www.w3.org/1999/02/22-rdf-syntax-ns#"
   xmlns:cc="http://creativecommons.org/ns#"
   xmlns:dc="http://purl.org/dc/elements/1.1/">
  <defs
     id="defs5498" />
  <metadata
     id="metadata5594">
    <rdf:RDF>
      <cc:Work
         rdf:about="">
        <dc:format>image/svg+xml</dc:format>
        <dc:type
           rdf:resource="http://purl.org/dc/dcmitype/StillImage" />
      </cc:Work>
    </rdf:RDF>
  </metadata>
  <path
     style="fill:#000000;fill-opacity:1;fill-rule:nonzero;stroke:none"
     d="m 703.52751,876.70545 h -568.5039 c -1.95313,-59.02344 -2.51954,-115.68359 -2.03125,-166.41406 0.48437,-45.52735 1.78515,-87.3125 3.82031,-125.60156 8.69922,-166.66016 30.24219,-267.8711 47.88281,-325.34766 14.63282,-47.64063 26.66407,-65.36328 26.66407,-65.36328 h 409.97656 c 5.20312,12.03125 10.08203,23.25 14.71484,35.44531 7.72266,20.32422 14.55469,41.78516 20.73047,63.98047 30.32422,109.50391 42.92578,237.30469 47.55859,345.26562 1.38282,32.27344 2.03516,62.76172 2.27735,90.48047 0.73047,87.71875 -3.08985,147.55469 -3.08985,147.55469 z m 0,0"
     id="path6" />
  <path
     style="fill:#000000;fill-opacity:1;fill-rule:nonzero;stroke:none"
     d="m 703.52751,863.04529 c -26.33984,0 -52.76172,0 -79.10156,0 -59.58984,0 -119.09766,0 -178.6875,0 -63.49219,0 -126.90625,0 -190.39844,0 -38.04687,0 -76.01172,0 -114.05859,0 -2.11328,0 -4.22656,0 -6.33984,0 4.63281,4.63672 9.34765,9.35157 13.98437,13.98438 -3.98437,-122.75781 -3.41406,-246.00391 6.99219,-368.51563 2.27344,-26.66406 5.03906,-53.25 8.45312,-79.75 0.16407,-1.46484 0.40625,-2.92968 0.57032,-4.30859 0,-0.082 0.64843,-4.79687 0.24218,-1.95312 0.40625,-2.76563 0.73047,-5.60938 1.13672,-8.375 0.81641,-5.85157 1.71094,-11.70313 2.60156,-17.5586 1.62891,-10.48828 3.33594,-20.89453 5.20313,-31.29687 5.69141,-32.03125 12.68359,-63.82032 21.87109,-95.03907 2.60157,-8.77734 5.36329,-17.47656 8.3711,-26.09375 1.6289,-4.79687 3.41797,-9.51171 5.20312,-14.22656 0.8125,-2.03125 1.62891,-3.98437 2.44141,-6.01562 1.54297,-3.74219 -1.14063,2.51953 0.40625,-0.97657 0.40625,-0.97656 0.89453,-1.95312 1.30078,-2.92578 2.84375,-6.34375 5.76953,-13.00781 9.67187,-18.86328 -4.06249,2.27735 -8.04687,4.63672 -12.11328,6.91016 35.36719,0 70.73047,0 106.09375,0 64.0625,0 128.04297,0 192.10157,0 34.14453,0 68.28906,0 102.51562,0 3.08984,0 6.26172,0 9.34766,0 -4.0625,-2.27344 -8.04688,-4.63281 -12.11328,-6.91016 24.63281,55.36328 40.48828,114.22266 52.19531,173.65235 11.54297,58.61328 18.69531,117.30859 23.57422,176.89843 8.53515,104.71094 10.24218,210.47657 5.12109,315.42969 -0.16016,3.41406 -0.32422,6.74609 -0.57031,10.08203 -0.48438,7.64063 6.75,13.98047 13.98437,13.98047 7.96875,0 13.4961,-6.42187 13.98438,-13.98047 1.86719,-29.67578 2.51953,-59.51172 2.92578,-89.26562 0.8125,-60.32032 -0.32422,-120.64063 -3.66016,-180.88282 -3.33203,-59.91406 -9.02343,-119.75 -17.88281,-179.17578 -8.86328,-59.58984 -21.21875,-118.85547 -40.07812,-176.08984 -7.31641,-22.11328 -15.85547,-43.65625 -25.36719,-64.875 -1.94922,-4.39063 -7.5586,-6.91016 -12.11328,-6.91016 -33.08594,0 -66.17188,0 -99.17969,0 -63.65625,0 -127.30859,0 -190.96484,0 -39.67188,0 -79.42579,0 -119.09766,0 -10.40625,0 -14.39062,9.02344 -18.375,16.91016 -9.91797,19.83594 -17.23438,41.05469 -23.65625,62.27344 -9.1875,30.40625 -16.09766,61.54297 -21.8711,92.75781 -19.67187,107.23047 -26.5,216.73828 -28.69531,325.59375 -1.38281,66.5 -0.65234,133.08203 1.54297,199.58203 0.24609,7.64063 6.17969,13.98438 13.98438,13.98438 26.33984,0 52.76171,0 79.10156,0 59.58984,0 119.09766,0 178.6875,0 63.49219,0 126.90625,0 190.39844,0 38.04687,0 76.01172,0 114.05859,0 2.11328,0 4.22656,0 6.33984,0 7.64063,0 13.98438,-6.34375 13.98438,-13.98438 0,-7.64062 -6.42578,-14.06641 -14.06641,-14.06641 z m 0,0"
     id="path8" />
  <path
     style="fill:#000000;fill-opacity:1;fill-rule:nonzero;stroke:none"
     d="m 135.02361,946.37733 c 26.33984,0 52.76171,0 79.10156,0 59.58984,0 119.09766,0 178.6875,0 63.49219,0 126.90625,0 190.39844,0 38.04687,0 76.01172,0 114.05859,0 2.11328,0 4.22656,0 6.33984,0 7.64063,0 13.98438,-6.34375 13.98438,-13.98438 0,-7.64062 -6.34375,-13.98437 -13.98438,-13.98437 -26.33984,0 -52.76171,0 -79.10156,0 -59.58984,0 -119.09765,0 -178.6875,0 -63.49219,0 -126.90625,0 -190.39844,0 -38.04687,0 -76.01171,0 -114.05859,0 -2.11328,0 -4.22656,0 -6.33984,0 -7.64063,0 -13.98438,6.34375 -13.98438,13.98437 -0.082,7.55859 6.34375,13.98438 13.98438,13.98438 z m 0,0"
     id="path10" />
  <path
     style="fill:#000000;fill-opacity:1;fill-rule:nonzero;stroke:none"
     d="M 565.40642,123.00623 C 532.07439,99.025762 482.56658,73.580449 410.45329,67.72498 v 56.25781 H 265.50408 c 0,0 -23.57813,22.92578 -54.22657,70.40235 l 388.35547,-0.32422 h 22.27344 c 0,0 -15.20313,-41.37891 -56.5,-71.05469 z m 0,0"
     id="path12" />
  <path
     style="fill:#000000;fill-opacity:1;fill-rule:nonzero;stroke:none"
     d="M 572.23454,110.81092 C 524.51189,76.588262 468.17595,58.53748 409.96892,53.66248 c -7.64453,-0.652343 -13.98438,6.828126 -13.98438,13.980469 0,18.699219 0,37.398441 0,56.097661 4.63282,-4.63672 9.34766,-9.35157 13.98438,-13.98438 -47.31641,0 -94.62891,0 -141.94531,0 -4.79688,0 -9.10547,0.8125 -12.76172,4.47266 -3.25391,3.25 -6.34375,6.66406 -9.35156,10.16015 -17.23438,19.59375 -32.51563,40.89063 -46.66407,62.84375 -5.85156,9.02344 1.8711,21.05469 12.11329,21.05469 35.36328,0 70.73046,-0.082 106.09374,-0.082 64.0586,-0.082 128.03907,-0.082 192.10157,-0.16406 34.0625,0 68.20703,-0.0781 102.26953,-0.0781 3.41406,0 6.75,0 10.16406,0 8.45313,0 16.74609,-9.10547 13.49609,-17.72265 -12.11328,-31.8711 -36.01562,-59.58985 -63.25,-79.42969 -6.17968,-4.46875 -15.60937,-1.05469 -19.1875,5.04297 -4.14453,7.07031 -1.13671,14.71484 5.04297,19.18359 8.12891,5.9375 16.33985,13.57813 23.41407,21.46485 1.625,1.78906 3.16796,3.57422 4.71484,5.44531 0.56641,0.73047 1.21875,1.46484 1.78906,2.19531 2.84375,3.4961 -1.54687,-2.03125 1.13672,1.46485 2.76172,3.57421 5.28516,7.3164 7.72266,11.13671 3.49609,5.44532 6.66797,11.05469 9.51172,16.82813 0.89453,1.78906 1.70703,3.57812 2.4375,5.36328 -2.27344,-5.19922 -0.97266,-2.4375 -0.48829,-1.13672 4.47266,-5.93359 9.02735,-11.78906 13.4961,-17.72266 -33.00391,0 -66.01172,0 -99.01953,0.082 -63.57032,0.082 -127.22657,0.082 -190.80078,0.16406 -39.9961,0 -79.91407,0.0781 -119.91016,0.0781 -0.32812,0 -0.57031,0 -0.89453,0 4.0625,6.99219 8.04687,14.06641 12.11328,21.0586 6.74609,-10.40625 13.82031,-20.73047 21.13672,-30.73047 5.52734,-7.48047 9.10547,-12.11328 15.60937,-19.83594 4.875,-5.85547 9.83594,-11.70703 15.28125,-16.99219 -3.33203,1.38281 -6.58593,2.76563 -9.91797,4.06641 47.31641,0 94.62891,0 141.94532,0 0.8125,0 1.70703,0 2.51953,0 7.64062,0 13.98047,-6.34375 13.98047,-13.98438 0,-18.69922 0,-37.394528 0,-56.093747 -4.63282,4.632813 -9.34766,9.347656 -13.98047,13.980469 29.7539,2.523437 59.50781,9.105468 87.80078,20.082028 1.30078,0.48828 2.67969,1.0586 3.98047,1.625 1.54687,0.65235 1.70703,0.73047 0.57031,0.2461 0.89453,0.32422 1.70703,0.73047 2.51953,1.13672 2.92578,1.30078 5.77344,2.60156 8.69922,3.98437 5.44531,2.60156 10.8125,5.36328 16.09766,8.29297 9.83593,5.44531 19.26562,11.54297 28.45312,18.04687 6.25781,4.46875 15.60938,1.13672 19.1875,-5.04296 4.22656,-7.23438 1.21875,-14.95704 -4.96094,-19.42969 z m 0,0"
     id="path14" />
  <path
     style="fill:#000000;fill-opacity:1;fill-rule:nonzero;stroke:none"
     d="m 199.24626,213.08436 h -90.48047 c 0,0 22.03125,108.12109 51.05469,141.78125"
     id="path16" />
  <path
     style="fill:#000000;fill-opacity:1;fill-rule:nonzero;stroke:none"
     d="m 199.65251,199.09998 c -30.24219,0 -60.5664,0 -90.80859,0 -9.589845,0 -15.363282,8.94141 -13.492189,17.72266 4.144532,20 9.265629,39.83594 15.039059,59.34765 4.71485,15.9336 10,31.78516 16.33985,47.07032 6.17968,14.71484 13.00781,29.18359 23.41406,41.46093 4.95703,5.85157 14.71484,5.03907 19.83594,0 5.6914,-5.6914 4.96093,-13.98437 0,-19.83593 -0.32422,-0.40625 -0.73047,-0.8125 -1.0586,-1.21875 -1.86718,-2.27735 1.95313,2.67968 0.16407,0.16015 -0.89454,-1.21875 -1.70704,-2.4375 -2.51954,-3.65625 -1.78906,-2.68359 -3.41406,-5.44922 -4.96093,-8.21093 -1.70703,-3.08985 -3.25,-6.17969 -4.71485,-9.35157 -0.8125,-1.625 -1.54297,-3.33203 -2.27343,-5.03906 -0.48829,-1.05859 -0.89454,-2.03125 -1.38282,-3.08984 1.38282,3.17187 -0.16406,-0.40625 -0.32422,-0.89453 -6.34375,-15.36329 -11.46484,-31.21875 -16.17968,-47.23047 -5.52735,-18.86328 -10.48828,-37.96875 -14.39063,-57.15235 -4.46875,5.9336 -9.02343,11.78516 -13.49609,17.72266 30.24219,0 60.5664,0 90.80859,0 7.64454,0 13.98438,-6.34375 13.98438,-13.98438 0,-7.64062 -6.33984,-13.82031 -13.98438,-13.82031 z m 0,0"
     id="path18" />
  <path
     style="fill:#000000;fill-opacity:1;fill-rule:nonzero;stroke:none"
     d="m 621.33611,193.89686 c 5.20312,11.30078 10.08203,23.33203 14.71484,35.52734 7.72266,20.32422 14.55469,41.86719 20.73047,64.0625 l 7.15625,12.51953 c -15.28516,-88.28906 26.5,-73.25 26.5,-73.25 30.73047,10.2461 112.75781,46.91016 118.61328,166.98438 5.85156,120.07422 -105.52344,203.48437 -105.52344,203.48437 l 3.90235,109.91016 c 0,0 92.83984,-21.94922 160.23437,-153.8125 C 935.05876,427.46326 902.62126,291.77967 838.39861,212.59608 749.05486,102.35779 580.03923,133.57654 580.03923,133.57654"
     id="path20" />
  <path
     style="fill:#000000;fill-opacity:1;fill-rule:nonzero;stroke:none"
     d="m 346.06658,70.732793 c 0,17.722656 0,35.445317 0,53.085937 0,7.64453 6.34375,13.98438 13.98437,13.98438 7.64063,0 13.98438,-6.33985 13.98438,-13.98438 0,-17.72266 0,-35.445312 0,-53.085937 0,-7.640625 -6.34375,-13.980469 -13.98438,-13.980469 -7.64062,-0.08203 -13.98437,6.339844 -13.98437,13.980469 z m 0,0"
     id="path22" />
  <path
     style="fill:#000000;fill-opacity:1;fill-rule:nonzero;stroke:none"
     d="m 297.21111,87.72498 c 0,12.03125 0,24.0625 0,36.09375 0,7.64453 6.33984,13.98438 13.98047,13.98438 7.64062,0 13.98437,-6.33985 13.98437,-13.98438 0,-12.03125 0,-24.0625 0,-36.09375 0,-7.640624 -6.34375,-13.984374 -13.98437,-13.984374 -7.64063,0 -13.98047,6.34375 -13.98047,13.984374 z m 0,0"
     id="path24" />
</svg>
