<?xml version="1.0" encoding="UTF-8" standalone="no"?>
<!-- Created with Inkscape (http://www.inkscape.org/) -->

<svg
   width="1000"
   height="1000"
   version="1.1"
   id="svg8"
   xmlns="http://www.w3.org/2000/svg"
   xmlns:svg="http://www.w3.org/2000/svg"
   xmlns:rdf="http://www.w3.org/1999/02/22-rdf-syntax-ns#"
   xmlns:cc="http://creativecommons.org/ns#"
   xmlns:dc="http://purl.org/dc/elements/1.1/">
  <defs
     id="defs5498" />
  <metadata
     id="metadata5594">
    <rdf:RDF>
      <cc:Work
         rdf:about="">
        <dc:format>image/svg+xml</dc:format>
        <dc:type
           rdf:resource="http://purl.org/dc/dcmitype/StillImage" />
      </cc:Work>
    </rdf:RDF>
  </metadata>
  <path
     style="fill:#000000;fill-opacity:1;fill-rule:nonzero;stroke:none"
     d="M 860,185 H 140 c -49.5,0 -89.550781,40.5 -89.550781,90 L 50,725 c 0,49.5 40.5,90 90,90 h 720 c 49.5,0 90,-40.5 90,-90 V 275 c 0,-49.5 -40.5,-90 -90,-90 z M 455,320 h 90 v 90 h -90 z m 0,135 h 90 v 90 H 455 Z M 320,320 h 90 v 90 h -90 z m 0,135 h 90 v 90 h -90 z m -45,90 h -90 v -90 h 90 z m 0,-135 h -90 v -90 h 90 z M 680,725 H 320 v -90 h 360 z m 0,-180 h -90 v -90 h 90 z m 0,-135 h -90 v -90 h 90 z m 135,135 h -90 v -90 h 90 z m 0,-135 h -90 v -90 h 90 z m 0,0"
     id="path6" />
</svg>
