<?xml version="1.0" encoding="UTF-8" standalone="no"?>
<!-- Created with Inkscape (http://www.inkscape.org/) -->

<svg
   width="1000"
   height="1000"
   version="1.1"
   id="svg16"
   xmlns="http://www.w3.org/2000/svg"
   xmlns:svg="http://www.w3.org/2000/svg"
   xmlns:rdf="http://www.w3.org/1999/02/22-rdf-syntax-ns#"
   xmlns:cc="http://creativecommons.org/ns#"
   xmlns:dc="http://purl.org/dc/elements/1.1/">
  <defs
     id="defs5498" />
  <metadata
     id="metadata5594">
    <rdf:RDF>
      <cc:Work
         rdf:about="">
        <dc:format>image/svg+xml</dc:format>
        <dc:type
           rdf:resource="http://purl.org/dc/dcmitype/StillImage" />
      </cc:Work>
    </rdf:RDF>
  </metadata>
  <path
     style="fill:#000000;fill-opacity:1;fill-rule:nonzero;stroke:none"
     d="M 811.39844,223.45312 H 188.60156 C 169.54297,223.45312 154,238.89453 154,258.02344 v 103.70312 c 0,113.17969 54.88672,213.46485 139.27734,276.54688 h -0.8789 c -19.05469,0 -34.59766,15.52734 -34.59766,34.5664 0,19.03907 15.45313,34.57032 34.59766,34.57032 h 415.20312 c 19.05469,0 34.59766,-15.44141 34.59766,-34.57032 0,-19.03906 -15.45313,-34.5664 -34.59766,-34.5664 h -0.8789 C 791.11328,575.19141 846,474.90625 846,361.72656 V 258.02344 c 0,-19.03907 -15.54297,-34.57032 -34.60156,-34.57032 z m 0,0"
     id="path6" />
  <path
     style="fill:#000000;fill-opacity:1;fill-rule:nonzero;stroke:none"
     d="m 500,188.88672 c 19.05469,0 34.60156,-15.53125 34.60156,-34.56641 V 85.183593 C 534.60156,66.14453 519.05469,50.61328 500,50.61328 c -19.05469,0 -34.60156,15.53125 -34.60156,34.570313 v 69.136717 c 0,19.03516 15.54687,34.56641 34.60156,34.56641 z m 0,0"
     id="path8" />
  <path
     style="fill:#000000;fill-opacity:1;fill-rule:nonzero;stroke:none"
     d="m 327,188.88672 c 19.05469,0 34.60156,-15.53125 34.60156,-34.56641 V 119.75 c 0,-19.03906 -15.54687,-34.566407 -34.60156,-34.566407 -19.05469,0 -34.60156,15.527347 -34.60156,34.566407 v 34.57031 c 0,19.03516 15.54687,34.56641 34.60156,34.56641 z m 0,0"
     id="path10" />
  <path
     style="fill:#000000;fill-opacity:1;fill-rule:nonzero;stroke:none"
     d="m 673,188.88672 c 19.05469,0 34.60156,-15.53125 34.60156,-34.56641 V 119.75 c 0,-19.03906 -15.54687,-34.566407 -34.60156,-34.566407 -19.05469,0 -34.60156,15.527347 -34.60156,34.566407 v 34.57031 c 0,19.03516 15.54687,34.56641 34.60156,34.56641 z m 0,0"
     id="path12" />
  <path
     style="fill:#000000;fill-opacity:1;fill-rule:nonzero;stroke:none"
     d="m 742.19922,811.11328 h -280.75 c -14.49219,-59.13281 -66.65235,-69.13672 -99.84766,-69.13672 -77.63281,0 -138.40234,45.53516 -138.40234,103.70313 0,58.17187 60.76953,103.70703 138.40234,103.70703 33.10547,0 85.26953,-10.00391 99.84766,-69.13672 h 280.75 c 19.05859,0 34.60156,-15.44141 34.60156,-34.57031 0,-19.03516 -15.54297,-34.56641 -34.60156,-34.56641 z m 0,0"
     id="path14" />
</svg>
