<?xml version="1.0" encoding="UTF-8" standalone="no"?>
<!-- Created with Inkscape (http://www.inkscape.org/) -->

<svg
   width="1000"
   height="1000"
   version="1.1"
   id="svg10"
   xmlns="http://www.w3.org/2000/svg"
   xmlns:svg="http://www.w3.org/2000/svg"
   xmlns:rdf="http://www.w3.org/1999/02/22-rdf-syntax-ns#"
   xmlns:cc="http://creativecommons.org/ns#"
   xmlns:dc="http://purl.org/dc/elements/1.1/">
  <defs
     id="defs5498" />
  <metadata
     id="metadata5594">
    <rdf:RDF>
      <cc:Work
         rdf:about="">
        <dc:format>image/svg+xml</dc:format>
        <dc:type
           rdf:resource="http://purl.org/dc/dcmitype/StillImage" />
      </cc:Work>
    </rdf:RDF>
  </metadata>
  <path
     style="fill:#000000;fill-opacity:1;fill-rule:nonzero;stroke:none"
     d="M 603.80078,845.67969 H 396.19922 c -19.05469,0 -34.59766,15.44531 -34.59766,34.57031 0,19.125 15.45313,34.56641 34.59766,34.56641 h 69.19922 c 0,19.03906 15.54687,34.57031 34.60156,34.57031 19.05469,0 34.60156,-15.44141 34.60156,-34.57031 h 69.19922 c 19.05469,0 34.59766,-15.52735 34.59766,-34.56641 0,-19.03906 -15.54297,-34.57031 -34.59766,-34.57031 z m 0,0"
     id="path6" />
  <path
     style="fill:#000000;fill-opacity:1;fill-rule:nonzero;stroke:none"
     d="m 500,50.613281 c -190.82813,0 -346,155.031249 -346,345.683589 0,137.65625 82.46094,261.89063 207.60156,316.55079 v 63.69921 c 0,19.03907 15.45313,34.56641 34.59766,34.56641 h 207.60156 c 19.05469,0 34.59766,-15.53125 34.59766,-34.56641 V 712.84766 C 763.53906,658.1875 846,533.95312 846,396.29687 846,205.64453 690.82812,50.613281 500,50.613281 Z m 153.85547,376.566409 -69.19922,34.5664 c -4.91797,2.45703 -10.1875,3.6875 -15.45703,3.6875 -5.26953,0 -10.625,-1.23047 -15.45313,-3.6875 L 500,434.89844 446.25391,461.74609 c -9.7461,4.91407 -21.25,4.91407 -30.91016,0 l -69.19922,-34.5664 c -17.125,-8.51172 -23.97266,-29.30469 -15.45703,-46.41407 8.51953,-17.10937 29.33203,-23.95312 46.45703,-15.4414 l 53.74219,26.84765 53.74609,-26.84765 c 9.7461,-4.91406 21.25,-4.91406 30.91016,0 l 53.74609,26.84765 53.74219,-26.84765 c 17.125,-8.59766 37.85156,-1.57813 46.45703,15.4414 8.42969,17.19532 1.49219,37.90235 -15.63281,46.41407 z m 0,0"
     id="path8" />
</svg>
