<?xml version="1.0" encoding="UTF-8" standalone="no"?>
<!-- Created with Inkscape (http://www.inkscape.org/) -->

<svg
   width="1000"
   height="1000"
   version="1.1"
   id="svg26"
   xmlns="http://www.w3.org/2000/svg"
   xmlns:svg="http://www.w3.org/2000/svg"
   xmlns:rdf="http://www.w3.org/1999/02/22-rdf-syntax-ns#"
   xmlns:cc="http://creativecommons.org/ns#"
   xmlns:dc="http://purl.org/dc/elements/1.1/">
  <defs
     id="defs5498" />
  <metadata
     id="metadata5594">
    <rdf:RDF>
      <cc:Work
         rdf:about="">
        <dc:format>image/svg+xml</dc:format>
        <dc:type
           rdf:resource="http://purl.org/dc/dcmitype/StillImage" />
      </cc:Work>
    </rdf:RDF>
  </metadata>
  <path
     style="fill:#000000;fill-opacity:1;fill-rule:nonzero;stroke:none"
     d="m 500,153.84766 c 19.06641,0 34.61719,-15.55079 34.61719,-34.61719 V 84.617188 C 534.61719,65.550781 519.06641,50 500,50 480.93359,50 465.38281,65.550781 465.38281,84.617188 v 34.613282 c 0,19.0664 15.55078,34.61719 34.61719,34.61719 z m 0,0"
     id="path6" />
  <path
     style="fill:#000000;fill-opacity:1;fill-rule:nonzero;stroke:none"
     d="m 500,846.15234 c -19.06641,0 -34.61719,15.46485 -34.61719,34.61719 v 34.61328 C 465.38281,934.44922 480.93359,950 500,950 c 19.06641,0 34.61719,-15.46094 34.61719,-34.61719 v -34.61328 c 0,-19.06641 -15.55078,-34.61719 -34.61719,-34.61719 z m 0,0"
     id="path8" />
  <path
     style="fill:#000000;fill-opacity:1;fill-rule:nonzero;stroke:none"
     d="M 119.23047,465.38281 H 84.617188 C 65.550781,465.38281 50,480.93359 50,500 c 0,19.06641 15.550781,34.61719 34.617188,34.61719 h 34.613282 c 19.0664,0 34.61719,-15.46485 34.61719,-34.61719 0,-19.06641 -15.55079,-34.61719 -34.61719,-34.61719 z m 0,0"
     id="path10" />
  <path
     style="fill:#000000;fill-opacity:1;fill-rule:nonzero;stroke:none"
     d="m 915.38281,465.38281 h -34.61328 c -19.15234,0 -34.61719,15.55078 -34.61719,34.61719 0,19.06641 15.46485,34.61719 34.61719,34.61719 h 34.61328 C 934.44922,534.61719 950,519.15234 950,500 c 0,-19.06641 -15.55078,-34.61719 -34.61719,-34.61719 z m 0,0"
     id="path12" />
  <path
     style="fill:#000000;fill-opacity:1;fill-rule:nonzero;stroke:none"
     d="m 769.28125,181.78516 -24.51172,24.51171 c -13.53125,13.53125 -13.53125,35.40625 0,48.9336 6.76172,6.76562 15.63672,10.10547 24.51172,10.10547 8.87109,0 17.74609,-3.33985 24.51172,-10.10547 l 24.51172,-24.51172 c 13.52734,-13.52734 13.52734,-35.40625 0,-48.93359 -13.61719,-13.53125 -35.58203,-13.53125 -49.02344,0 z m 0,0"
     id="path14" />
  <path
     style="fill:#000000;fill-opacity:1;fill-rule:nonzero;stroke:none"
     d="m 206.29687,744.76953 -24.51171,24.51172 c -13.53125,13.52734 -13.53125,35.40625 0,48.93359 6.76562,6.76563 15.63671,10.10547 24.51171,10.10547 8.8711,0 17.7461,-3.33984 24.51172,-10.10547 l 24.51172,-24.51172 c 13.53125,-13.53125 13.53125,-35.40625 0,-48.93359 -13.61719,-13.53125 -35.49219,-13.53125 -49.02344,0 z m 0,0"
     id="path16" />
  <path
     style="fill:#000000;fill-opacity:1;fill-rule:nonzero;stroke:none"
     d="m 206.29687,255.23047 c 6.76563,6.76562 15.63672,10.10547 24.51172,10.10547 8.875,0 17.7461,-3.33985 24.51172,-10.10547 13.53125,-13.52735 13.53125,-35.40235 0,-48.9336 l -24.51172,-24.51171 c -13.53125,-13.53125 -35.40625,-13.53125 -48.9375,0 -13.52734,13.52734 -13.52734,35.40625 0,48.93359 z m 0,0"
     id="path18" />
  <path
     style="fill:#000000;fill-opacity:1;fill-rule:nonzero;stroke:none"
     d="m 793.70312,744.76953 c -13.53125,-13.53125 -35.40625,-13.53125 -48.93359,0 -13.53125,13.52734 -13.53125,35.40234 0,48.93359 l 24.51172,24.51172 c 6.76172,6.76563 15.63672,10.10547 24.51172,10.10547 8.87109,0 17.74609,-3.33984 24.51172,-10.10547 13.52734,-13.52734 13.52734,-35.40625 0,-48.93359 z m 0,0"
     id="path20" />
  <path
     style="fill:#000000;fill-opacity:1;fill-rule:nonzero;stroke:none"
     d="M 569.23047,534.61719 H 430.76953 c 0,38.21484 31.01172,69.23047 69.23047,69.23047 38.21875,0 69.23047,-31.01563 69.23047,-69.23047 z m 0,0"
     id="path22" />
  <path
     style="fill:#000000;fill-opacity:1;fill-rule:nonzero;stroke:none"
     d="m 500,188.46094 c -171.75781,0 -311.53906,139.78125 -311.53906,311.53906 0,160.07422 121.41797,292.21094 276.92187,309.51953 V 668.50781 C 405.73047,653.04687 361.53906,599.01562 361.53906,534.61719 V 500 c 0,-19.06641 15.46094,-34.61719 34.61328,-34.61719 v -69.23047 c 0,-19.0625 15.55078,-34.61328 34.61719,-34.61328 19.06641,0 34.61328,15.55078 34.61328,34.61328 v 69.23047 h 69.23438 v -69.23047 c 0,-19.0625 15.46093,-34.61328 34.61328,-34.61328 19.15234,0 34.61719,15.55078 34.61719,34.61328 v 69.23047 c 19.0625,0 34.61328,15.55078 34.61328,34.61719 v 34.61719 c 0,64.39843 -44.27735,118.42968 -103.84375,133.89062 V 809.51953 C 690.12109,792.21094 811.53906,660.07422 811.53906,500 811.53906,328.24219 671.75781,188.46094 500,188.46094 Z m 0,0"
     id="path24" />
</svg>
