<?xml version="1.0" encoding="UTF-8" standalone="no"?>
<!-- Created with Inkscape (http://www.inkscape.org/) -->

<svg
   width="1000"
   height="1000"
   version="1.1"
   id="svg7"
   xmlns="http://www.w3.org/2000/svg"
   xmlns:svg="http://www.w3.org/2000/svg"
   xmlns:rdf="http://www.w3.org/1999/02/22-rdf-syntax-ns#"
   xmlns:cc="http://creativecommons.org/ns#"
   xmlns:dc="http://purl.org/dc/elements/1.1/">
  <defs
     id="defs5498" />
  <metadata
     id="metadata5594">
    <rdf:RDF>
      <cc:Work
         rdf:about="">
        <dc:format>image/svg+xml</dc:format>
        <dc:type
           rdf:resource="http://purl.org/dc/dcmitype/StillImage" />
      </cc:Work>
    </rdf:RDF>
  </metadata>
  <g
     id="layer1">
    <g
       id="g476"
       transform="matrix(10,0,0,10,-8662.9956,-1151.9824)">
      <path
         d="m 924.69456,194.05324 h -16.79 c -1.07,0 -1.938,0.868 -1.938,1.938 0,1.07 0.867,1.937 1.938,1.937 h 16.789 c 1.07,0 1.938,-0.867 1.938,-1.937 0,-1.07 -0.867,-1.938 -1.937,-1.938 z"
         id="path86" />
      <path
         d="m 926.63156,201.48024 c 0,-1.07 -0.867,-1.937 -1.938,-1.937 h -16.789 c -1.07,0 -1.938,0.867 -1.938,1.937 0,1.07 0.867,1.938 1.938,1.938 h 16.789 c 1.071,-0.001 1.938,-0.868 1.938,-1.938 z"
         id="path88" />
      <path
         d="m 921.03156,209.95524 3.246,-3.708 c 0.586,-0.671 0.34,-1.215 -0.553,-1.215 h -14.851 c -0.893,0 -1.139,0.544 -0.553,1.215 l 3.246,3.708 c 0.118,0.134 0.357,0.243 0.536,0.243 h 8.395 c 0.178,0 0.417,-0.109 0.534,-0.243 z"
         id="path90" />
      <path
         d="m 905.57056,190.18724 c 0.196,1.052 1.146,1.917 2.215,1.917 h 17.029 c 1.069,0 2.019,-0.865 2.215,-1.917 1.979,-10.588 10.581,-16.994 10.581,-27.454 0,-11.77 -9.541,-21.311 -21.311,-21.311 -11.77,0 -21.311,9.542 -21.311,21.311 0,10.46 8.602,16.866 10.582,27.454 z"
         id="path106" />
    </g>
  </g>
</svg>
