<?xml version="1.0" encoding="UTF-8" standalone="no"?>
<!-- Created with Inkscape (http://www.inkscape.org/) -->

<svg
   width="1000"
   height="1000"
   version="1.1"
   id="svg14"
   xmlns="http://www.w3.org/2000/svg"
   xmlns:svg="http://www.w3.org/2000/svg"
   xmlns:rdf="http://www.w3.org/1999/02/22-rdf-syntax-ns#"
   xmlns:cc="http://creativecommons.org/ns#"
   xmlns:dc="http://purl.org/dc/elements/1.1/">
  <defs
     id="defs5498" />
  <metadata
     id="metadata5594">
    <rdf:RDF>
      <cc:Work
         rdf:about="">
        <dc:format>image/svg+xml</dc:format>
        <dc:type
           rdf:resource="http://purl.org/dc/dcmitype/StillImage" />
      </cc:Work>
    </rdf:RDF>
  </metadata>
  <path
     style="fill:#000000;fill-opacity:1;fill-rule:nonzero;stroke:none"
     d="m 853.89378,419.86355 c 3.95703,-8.4375 0.33203,-18.51953 -8.16797,-22.47656 L 486.68675,229.78152 c -8.5,-3.95313 -18.58203,-0.32813 -22.46875,8.17187 -3.09766,6.58985 -1.51563,14.23829 3.35937,19.11329 1.38282,1.32031 2.96485,2.5039 4.8086,3.36328 l 359.03906,167.53906 c 8.4375,4.02344 18.51563,0.39844 22.46875,-8.10547 z m 0,0"
     id="path6" />
  <path
     style="fill:#000000;fill-opacity:1;fill-rule:nonzero;stroke:none"
     d="m 925.718,348.02371 c 3.95312,-8.4375 0.26172,-18.45703 -8.17188,-22.47657 L 558.50706,157.94167 c -8.43359,-3.95703 -18.58203,-0.33203 -22.46875,8.17188 -3.09765,6.58984 -1.51562,14.23437 3.35938,19.11328 1.38281,1.38282 2.96484,2.50391 4.8125,3.35938 l 359.03906,167.60937 c 8.43359,3.95313 18.51562,0.26172 22.46875,-8.17187 z m 0,0"
     id="path8" />
  <path
     style="fill:#000000;fill-opacity:1;fill-rule:nonzero;stroke:none"
     d="m 811.85862,208.23074 c 8.4336,3.95312 18.51563,0.32812 22.46875,-8.17578 3.95313,-8.4336 0.32813,-18.45313 -8.17187,-22.47266 L 630.32737,86.097922 c -8.43359,-3.953125 -18.51562,-0.328125 -22.46875,8.175782 -3.09765,6.589846 -1.51562,14.234376 3.35938,19.113276 1.38672,1.38282 2.96484,2.50391 4.8125,3.35938 z m 0,0"
     id="path10" />
  <path
     style="fill:#000000;fill-opacity:1;fill-rule:nonzero;stroke:none"
     d="m 782.07347,491.63699 c 3.95312,-8.4336 0.33203,-18.45313 -8.16797,-22.47266 L 414.86644,301.55496 c -0.13282,-0.0625 -0.33203,-0.0625 -0.46485,-0.12891 -1.18359,-0.52734 -2.5,-0.66016 -3.82031,-0.92578 -0.85547,-0.12891 -1.77734,-0.46094 -2.63672,-0.46094 -1.05078,-0.0664 -2.10547,0.26563 -3.16015,0.46094 -1.05469,0.19922 -2.17579,0.26562 -3.16407,0.66016 -0.85547,0.26562 -1.58203,0.92187 -2.37109,1.38281 -1.12109,0.66015 -2.24219,1.2539 -3.16406,2.10937 -0.13282,0.13282 -0.26172,0.13282 -0.39453,0.26563 -0.72657,0.72265 -1.05469,1.64844 -1.64844,2.5039 -0.59375,0.79297 -1.31641,1.38282 -1.71094,2.3086 -0.0664,0.0625 0.0664,0.19531 -0.0664,0.26172 -1.2539,2.83593 -1.51562,5.86718 -1.12109,8.89843 0.13281,0.72657 0.19922,1.25 0.39453,1.91016 0.72656,2.96484 1.91016,5.73438 4.15235,7.97656 l 47.83593,47.84766 c 2.50391,2.44141 58.90625,60.76953 -23.91797,143.61719 l -59.82812,-59.84375 c -13.24609,-13.25 -34.66016,-13.25 -47.83594,0 l -95.67578,95.89843 v 95.76563 l -23.98438,23.98828 -23.91797,-23.98828 -23.91798,23.98828 23.91798,23.92578 -23.91798,23.92578 -23.91796,-23.92578 -23.917973,23.92578 23.917973,23.92578 -47.835942,47.91407 23.917969,23.99218 -23.917969,23.92579 71.753902,71.83984 23.91798,-23.92578 23.91797,23.92578 47.90234,-47.85156 23.91797,23.92578 23.92187,-23.92578 -23.92187,-23.92188 23.92187,-23.92578 23.91797,23.92578 23.91797,-23.92578 -23.91797,-23.99219 23.91797,-23.92578 95.80469,-0.0664 95.73828,-95.76563 c 13.17969,-13.24609 13.24609,-34.66797 0,-47.91406 L 467.57737,568.28933 C 548.22972,487.61746 605.02659,538.36746 611.218,544.36746 l 47.83984,47.84765 c 6.58594,6.58985 17.32813,6.58985 23.91797,0 6.58985,-6.58984 6.58985,-17.33203 0,-23.92578 l -47.83984,-47.84765 c -0.85547,-0.79297 -85.0625,-82.58594 -191.47656,23.92578 79.0039,-78.96094 54.49218,-145.59375 36.17187,-175.1211 l 279.83984,130.56641 c 8.4336,4.01953 18.51563,0.32812 22.40235,-8.17578 z m -589.78906,375.94922 -71.82032,-71.84375 23.91797,-23.92578 71.82031,71.84375 z m 47.90234,-47.85157 -71.82031,-71.83984 23.91797,-23.92578 71.82031,71.83984 z m 0,0"
     id="path12" />
</svg>
