<?xml version="1.0" encoding="UTF-8" standalone="no"?>
<!-- Created with Inkscape (http://www.inkscape.org/) -->

<svg
   width="1000"
   height="1000"
   version="1.1"
   id="svg10"
   xmlns="http://www.w3.org/2000/svg"
   xmlns:svg="http://www.w3.org/2000/svg"
   xmlns:rdf="http://www.w3.org/1999/02/22-rdf-syntax-ns#"
   xmlns:cc="http://creativecommons.org/ns#"
   xmlns:dc="http://purl.org/dc/elements/1.1/">
  <defs
     id="defs5498" />
  <metadata
     id="metadata5594">
    <rdf:RDF>
      <cc:Work
         rdf:about="">
        <dc:format>image/svg+xml</dc:format>
        <dc:type
           rdf:resource="http://purl.org/dc/dcmitype/StillImage" />
      </cc:Work>
    </rdf:RDF>
  </metadata>
  <path
     style="fill:#000000;fill-opacity:1;fill-rule:nonzero;stroke:none"
     d="m 734.30074,581.42578 c -6.59375,-7.72656 -16.26562,-12.20703 -26.46484,-12.20703 V 153.91406 c 0,-19.0625 -15.5586,-34.60937 -34.63672,-34.60937 -19.07813,0 -34.64063,15.54687 -34.64063,34.60937 V 569.21875 H 603.92183 V 153.91406 c 0,-57.273434 -46.59765,-103.828121 -103.91796,-103.828121 -57.32032,0 -103.91797,46.554687 -103.91797,103.828121 V 569.21875 H 361.44918 V 153.91406 c 0,-19.0625 -15.5625,-34.60937 -34.64063,-34.60937 -19.07812,0 -34.63672,15.54687 -34.63672,34.60937 v 415.30469 c -10.19921,0 -19.87109,4.48047 -26.46484,12.20703 -6.59375,7.73047 -9.40625,18.00781 -7.73437,28.10938 l 16.4375,98.11718 h 451.27343 l 16.35157,-98.11718 c 1.67187,-10.01172 -1.23047,-20.28907 -7.73438,-28.10938 z m 0,0"
     id="path6" />
  <path
     style="fill:#000000;fill-opacity:1;fill-rule:nonzero;stroke:none"
     d="m 292.60933,817.1875 c 1.14454,7.11719 4.57422,13.70312 9.67188,18.79687 L 406.19918,939.8125 c 6.5039,6.5 15.29687,10.10156 24.52734,10.10156 h 138.55469 c 9.14453,0 18.02344,-3.6875 24.52734,-10.10156 L 697.72652,835.98437 c 5.09766,-5.09375 8.52735,-11.67968 9.67188,-18.79687 l 6.67968,-40.31641 H 285.92965 Z m 0,0"
     id="path8" />
</svg>
