<?xml version="1.0" encoding="UTF-8" standalone="no"?>
<!-- Created with Inkscape (http://www.inkscape.org/) -->

<svg
   width="1000"
   height="1000"
   version="1.1"
   id="svg18"
   xmlns="http://www.w3.org/2000/svg"
   xmlns:svg="http://www.w3.org/2000/svg"
   xmlns:rdf="http://www.w3.org/1999/02/22-rdf-syntax-ns#"
   xmlns:cc="http://creativecommons.org/ns#"
   xmlns:dc="http://purl.org/dc/elements/1.1/">
  <defs
     id="defs5498" />
  <metadata
     id="metadata5594">
    <rdf:RDF>
      <cc:Work
         rdf:about="">
        <dc:format>image/svg+xml</dc:format>
        <dc:type
           rdf:resource="http://purl.org/dc/dcmitype/StillImage" />
      </cc:Work>
    </rdf:RDF>
  </metadata>
  <path
     style="fill:#000000;fill-opacity:1;fill-rule:nonzero;stroke:none"
     d="m 500,194.59766 c -109.02734,0 -197.71094,88.64062 -197.71094,197.61328 v 287.4375 c 0,9.9414 8.02735,17.96484 17.97266,17.96484 h 53.92187 v 161.68359 c 0,9.9375 8.03125,17.96485 17.97266,17.96485 9.94531,0 17.97656,-8.02735 17.97656,-17.96485 V 697.61328 h 179.73438 v 233.54297 c 0,9.9375 8.03125,17.96484 17.97656,17.96484 9.94141,0 17.97266,-8.02734 17.97266,-17.96484 V 697.61328 h 53.92187 c 9.94531,0 17.97266,-8.02344 17.97266,-17.96484 V 392.21094 C 697.71094,283.23828 609.02734,194.59766 500,194.59766 Z m 0,0"
     id="path6" />
  <path
     style="fill:#000000;fill-opacity:1;fill-rule:nonzero;stroke:none"
     d="m 212.42187,374.24609 h -35.94921 c -9.94532,0 -17.97266,8.02344 -17.97266,17.96485 0,9.9414 8.02734,17.96484 17.97266,17.96484 h 35.94921 c 9.94532,0 17.97266,-8.02344 17.97266,-17.96484 0,-9.94141 -8.02734,-17.96485 -17.97266,-17.96485 z m 0,0"
     id="path8" />
  <path
     style="fill:#000000;fill-opacity:1;fill-rule:nonzero;stroke:none"
     d="m 823.52734,374.24609 h -35.94922 c -9.94531,0 -17.97265,8.02344 -17.97265,17.96485 0,9.9414 8.02734,17.96484 17.97265,17.96484 h 35.94922 c 9.94532,0 17.97266,-8.02344 17.97266,-17.96484 0,-9.94141 -8.02734,-17.96485 -17.97266,-17.96485 z m 0,0"
     id="path10" />
  <path
     style="fill:#000000;fill-opacity:1;fill-rule:nonzero;stroke:none"
     d="m 500,122.73828 c 9.94531,0 17.97266,-8.02343 17.97266,-17.96484 V 68.843752 c 0,-9.9375 -8.02735,-17.964844 -17.97266,-17.964844 -9.94531,0 -17.97266,8.027344 -17.97266,17.964844 v 35.929688 c 0,9.94141 8.02735,17.96484 17.97266,17.96484 z m 0,0"
     id="path12" />
  <path
     style="fill:#000000;fill-opacity:1;fill-rule:nonzero;stroke:none"
     d="m 309.40625,176.26953 -25.45703,-25.44531 c -7.02344,-7.01953 -18.42969,-7.01953 -25.45313,0 -7.02734,7.02344 -7.02734,18.42187 0,25.44531 l 25.45313,25.44141 c 3.46875,3.46484 8.12109,5.28906 12.68359,5.28906 4.5625,0 9.21485,-1.73438 12.6836,-5.28906 7.02343,-7.02344 7.02343,-18.42188 0.0898,-25.44141 z m 0,0"
     id="path14" />
  <path
     style="fill:#000000;fill-opacity:1;fill-rule:nonzero;stroke:none"
     d="m 716.05078,150.82422 -25.45703,25.44531 c -7.02344,7.01953 -7.02344,18.41797 0,25.44141 3.46875,3.46484 8.12109,5.28906 12.68359,5.28906 4.5586,0 9.21485,-1.73438 12.67969,-5.28906 l 25.45703,-25.44141 c 7.02344,-7.02344 7.02344,-18.42187 0,-25.44531 -6.93359,-7.01953 -18.33984,-7.01953 -25.36328,0 z m 0,0"
     id="path16" />
</svg>
