<?xml version="1.0" encoding="UTF-8" standalone="no"?>
<!-- Created with Inkscape (http://www.inkscape.org/) -->

<svg
   width="1000"
   height="1000"
   version="1.1"
   id="svg8"
   xmlns="http://www.w3.org/2000/svg"
   xmlns:svg="http://www.w3.org/2000/svg"
   xmlns:rdf="http://www.w3.org/1999/02/22-rdf-syntax-ns#"
   xmlns:cc="http://creativecommons.org/ns#"
   xmlns:dc="http://purl.org/dc/elements/1.1/">
  <defs
     id="defs5498" />
  <metadata
     id="metadata5594">
    <rdf:RDF>
      <cc:Work
         rdf:about="">
        <dc:format>image/svg+xml</dc:format>
        <dc:type
           rdf:resource="http://purl.org/dc/dcmitype/StillImage" />
      </cc:Work>
    </rdf:RDF>
  </metadata>
  <path
     style="fill:#000000;fill-opacity:1;fill-rule:nonzero;stroke:none"
     d="m 923.44922,481.10156 -405,-404.999998 C 502.25,59.898438 479.75,50 455,50 H 140 C 90.5,50 50,90.5 50,140 v 315 c 0,24.75 9.898438,47.25 26.550781,63.89844 l 404.999999,405 C 497.75,940.10156 520.25,950 545,950 c 24.75,0 47.25,-9.89844 63.44922,-26.55078 l 315,-315 C 940.10156,592.25 950,569.75 950,545 950,520.25 939.64844,497.30078 923.44922,481.10156 Z M 207.5,275 c -37.35156,0 -67.5,-30.14844 -67.5,-67.5 0,-37.35156 30.14844,-67.5 67.5,-67.5 37.35156,0 67.5,30.14844 67.5,67.5 0,37.35156 -30.14844,67.5 -67.5,67.5 z M 737.14844,647.14844 545,839.30078 352.85156,647.14844 C 332.60156,626.44922 320,598.55078 320,567.5 320,505.39844 370.39844,455 432.5,455 c 31.05078,0 59.39844,12.60156 79.64844,33.30078 L 545,520.69922 577.85156,487.85156 C 598.10156,467.60156 626.44922,455 657.5,455 c 62.10156,0 112.5,50.39844 112.5,112.5 0,31.05078 -12.60156,59.39844 -32.85156,79.64844 z m 0,0"
     id="path6" />
</svg>
