<?xml version="1.0" encoding="UTF-8" standalone="no"?>
<!-- Created with Inkscape (http://www.inkscape.org/) -->

<svg
   width="1000"
   height="1000"
   version="1.1"
   id="svg7"
   xmlns="http://www.w3.org/2000/svg"
   xmlns:svg="http://www.w3.org/2000/svg"
   xmlns:rdf="http://www.w3.org/1999/02/22-rdf-syntax-ns#"
   xmlns:cc="http://creativecommons.org/ns#"
   xmlns:dc="http://purl.org/dc/elements/1.1/">
  <defs
     id="defs5498" />
  <metadata
     id="metadata5594">
    <rdf:RDF>
      <cc:Work
         rdf:about="">
        <dc:format>image/svg+xml</dc:format>
        <dc:type
           rdf:resource="http://purl.org/dc/dcmitype/StillImage" />
      </cc:Work>
    </rdf:RDF>
  </metadata>
  <g
     id="layer1">
    <path
       d="m 503.03447,51.465646 h -6.07389 a 448.53556,448.53556 0 0 0 2.99022,897.066124 v 0 A 448.53571,448.53571 0 0 0 503.03447,51.465646 Z M 823.17494,313.10993 H 668.15066 A 484.69604,484.69604 0 0 0 595.26405,139.02304 374.71199,374.71199 0 0 1 823.17494,313.10993 Z M 499.9508,858.9186 A 377.79566,377.79566 0 0 1 408.56219,686.88748 H 591.33943 A 377.79566,377.79566 0 0 1 499.9508,858.9186 Z M 394.73242,612.13198 a 912.67136,912.67136 0 0 1 0,-224.26654 h 210.43673 a 887.72169,887.72169 0 0 1 6.91494,112.13327 887.72169,887.72169 0 0 1 -6.91494,112.13327 z M 126.17324,499.99871 a 373.77755,373.77755 0 0 1 17.19377,-112.13327 h 176.32957 a 950.89009,950.89009 0 0 0 0,224.26654 H 143.36701 A 373.77755,373.77755 0 0 1 126.17324,499.99871 Z M 499.9508,141.07881 a 377.79566,377.79566 0 0 1 91.38863,172.03112 H 408.56219 A 377.79566,377.79566 0 0 1 499.9508,141.07881 Z m 180.25424,246.78663 h 176.32955 a 374.24478,374.24478 0 0 1 0,224.26654 H 680.20504 a 978.45618,978.45618 0 0 0 6.6345,-112.13327 978.45618,978.45618 0 0 0 -6.6345,-112.13327 z M 404.63753,139.02304 A 484.69604,484.69604 0 0 0 331.7509,313.10993 H 176.72667 A 374.71199,374.71199 0 0 1 404.63753,139.02304 Z M 176.72667,686.88748 H 331.7509 a 484.69604,484.69604 0 0 0 72.88663,174.0869 374.71199,374.71199 0 0 1 -227.91086,-174.0869 z m 418.53738,174.0869 a 484.69604,484.69604 0 0 0 72.88661,-174.0869 h 155.1177 a 374.71199,374.71199 0 0 1 -228.00431,174.0869 z"
       id="path2"
       style="stroke-width:9.3444" />
  </g>
</svg>
