<?xml version="1.0" encoding="UTF-8" standalone="no"?>
<!-- Created with Inkscape (http://www.inkscape.org/) -->

<svg
   width="1000"
   height="1000"
   version="1.1"
   id="svg8"
   xmlns="http://www.w3.org/2000/svg"
   xmlns:svg="http://www.w3.org/2000/svg"
   xmlns:rdf="http://www.w3.org/1999/02/22-rdf-syntax-ns#"
   xmlns:cc="http://creativecommons.org/ns#"
   xmlns:dc="http://purl.org/dc/elements/1.1/">
  <defs
     id="defs5498" />
  <metadata
     id="metadata5594">
    <rdf:RDF>
      <cc:Work
         rdf:about="">
        <dc:format>image/svg+xml</dc:format>
        <dc:type
           rdf:resource="http://purl.org/dc/dcmitype/StillImage" />
      </cc:Work>
    </rdf:RDF>
  </metadata>
  <path
     style="fill:#000000;fill-opacity:1;fill-rule:nonzero;stroke:none"
     d="M 838.59766,531.80664 C 658.08203,242.91211 619.64453,58.865237 619.27344,57.091799 c -0.83985,-4.289062 -4.66797,-7.367188 -9.05078,-7.367188 H 389.77734 c -4.38281,0 -8.11718,3.078126 -9.05078,7.367188 -0.37109,1.867188 -38.52734,185.445311 -219.32422,474.714841 -1.77343,2.80078 -1.86328,6.4375 -0.27734,9.32813 1.67578,2.89453 4.66406,4.75781 8.01953,4.75781 h 248.15234 v 287.125 c -67.26171,19.58984 -110.26953,61.47266 -110.26953,108.01953 0,5.03906 4.10547,9.23828 9.23828,9.23828 h 367.5625 c 5.03907,0 9.23438,-4.10547 9.23438,-9.23828 0,-46.54687 -43.00391,-88.42969 -110.26563,-108.01953 l -0.0937,-287.125 h 248.15235 c 3.35547,0 6.43359,-1.86328 8.01953,-4.75781 1.58594,-2.89063 1.49609,-6.4375 -0.27734,-9.32813 z m -267.3711,317.07032 c 57.9336,15.20312 96.92969,47.10546 102.71485,82.92578 H 326.15234 c 5.69141,-35.82032 44.78125,-67.81641 102.71485,-82.92578 4.01172,-1.02735 6.80859,-4.66407 6.80859,-8.86329 V 545.89258 h 128.64844 v 294.12109 c 0,4.10547 2.79687,7.83594 6.90234,8.86329 z M 185.75391,527.51758 C 340.98828,275.6543 388.19141,104.75977 397.05469,68.099611 h 205.89062 c 8.95703,36.660159 56.06641,207.554689 211.30078,459.417969 z m 0,0"
     id="path6" />
</svg>
