<?xml version="1.0" encoding="UTF-8" standalone="no"?>
<!-- Created with Inkscape (http://www.inkscape.org/) -->

<svg
   width="1000"
   height="1000"
   version="1.1"
   id="svg10"
   xmlns="http://www.w3.org/2000/svg"
   xmlns:svg="http://www.w3.org/2000/svg"
   xmlns:rdf="http://www.w3.org/1999/02/22-rdf-syntax-ns#"
   xmlns:cc="http://creativecommons.org/ns#"
   xmlns:dc="http://purl.org/dc/elements/1.1/">
  <defs
     id="defs5498" />
  <metadata
     id="metadata5594">
    <rdf:RDF>
      <cc:Work
         rdf:about="">
        <dc:format>image/svg+xml</dc:format>
        <dc:type
           rdf:resource="http://purl.org/dc/dcmitype/StillImage" />
      </cc:Work>
    </rdf:RDF>
  </metadata>
  <path
     style="fill:#000000;fill-opacity:1;fill-rule:nonzero;stroke:none"
     d="M 468.01127,51.616653 C 351.29252,69.659621 252.44486,159.44087 234.49174,276.24556 c -13.51172,80.88671 13.50781,161.6914 58.39843,215.64843 44.89454,53.86719 71.91407,121.25001 71.91407,188.62891 v 44.89062 h 89.86718 l -0.0859,-296.45312 -89.86719,-89.78125 62.84766,-62.85157 71.91406,71.82813 71.91015,-71.91016 62.84766,62.84766 -89.86719,89.86719 v 296.45312 h 89.86719 V 680.5229 c 0,-67.37891 22.48828,-130.22657 62.85156,-179.65235 44.8906,-49.42187 71.91013,-112.26953 71.91013,-179.64843 0,-157.25 -139.20703,-287.562499 -300.98828,-269.605467 z m 0,0"
     id="path6" />
  <path
     style="fill:#000000;fill-opacity:1;fill-rule:nonzero;stroke:none"
     d="m 364.7183,905.1518 h 44.89062 l 44.89454,44.89063 h 89.86718 l 44.89063,-44.89063 h 44.89062 V 815.28071 H 364.63236 Z m 0,0"
     id="path8" />
</svg>
