<?xml version="1.0" encoding="UTF-8" standalone="no"?>
<!-- Created with Inkscape (http://www.inkscape.org/) -->

<svg
   width="1000"
   height="1000"
   version="1.1"
   id="svg22"
   xmlns="http://www.w3.org/2000/svg"
   xmlns:svg="http://www.w3.org/2000/svg"
   xmlns:rdf="http://www.w3.org/1999/02/22-rdf-syntax-ns#"
   xmlns:cc="http://creativecommons.org/ns#"
   xmlns:dc="http://purl.org/dc/elements/1.1/">
  <defs
     id="defs5498" />
  <metadata
     id="metadata5594">
    <rdf:RDF>
      <cc:Work
         rdf:about="">
        <dc:format>image/svg+xml</dc:format>
        <dc:type
           rdf:resource="http://purl.org/dc/dcmitype/StillImage" />
      </cc:Work>
    </rdf:RDF>
  </metadata>
  <path
     style="fill:#000000;fill-opacity:1;fill-rule:nonzero;stroke:none"
     d="m 496.19922,131.9375 c -184.92578,0 -327.41797,138.84375 -327.41797,323.86328 0,141.5625 80.36328,244.08203 204.39453,293.13281 l 3.72266,163.98828 h 37 l -2.32813,-123.24218 c 20.01563,-4.03907 51.50781,-11.10157 80.98438,-20.72266 8.60937,-2.79297 83.23047,-49.51562 83.23047,-49.51562 0,0 -81.52344,23.20703 -167.85938,-2.94922 -93.16016,-41.21094 -176.23437,-141.32813 -176.23437,-249.4375 0,-146.14063 118.44531,-264.64844 264.50781,-264.64844 146.0625,0 265.75,118.50781 265.75,264.64844 0,118.43359 -76.17188,218.625 -183.76172,252.46484 v 68.52734 c -39.09375,0.15625 -96.10547,3.72657 -119.22266,15.83204 -7.98828,4.1914 -40.48828,21.11328 -40.48828,21.11328 h 159.63672 v 7.44922 c -39.09766,0.15625 -96.10937,1.08593 -119.22656,13.1914 -7.98828,4.19141 -40.48828,18.47266 -40.48828,18.47266 h 159.63672 v 12.72656 c -39.09375,0.15625 -96.10938,3.33984 -119.22266,15.44531 C 450.82031,896.46875 418.32031,913 418.32031,913 h 198.73047 l 0.3125,-134.49609 c 127.13281,-49.05079 212.69141,-170.1211 212.69141,-311.60547 0,-185.01953 -148.9336,-334.96094 -333.85547,-334.96094 z m 0,0"
     id="path6" />
  <path
     style="fill:#000000;fill-opacity:1;fill-rule:nonzero;stroke:none"
     d="M 218.8125,814.28125 C 183.05469,785.56641 151.94922,751.72656 126.35156,713.69922 l 81.21485,-54.5625 c 20.01171,29.80469 44.36718,56.34765 72.44921,78.85156 z m 0,0"
     id="path8" />
  <path
     style="fill:#000000;fill-opacity:1;fill-rule:nonzero;stroke:none"
     d="m 56.230469,537.29297 c -4.035157,-24.44922 -6.128907,-49.4375 -6.128907,-74.35156 0,-38.96094 4.964844,-77.6875 14.894532,-115.09375 l 94.554686,24.98828 c -7.75781,29.25781 -11.63672,59.60547 -11.63672,90.10547 0,19.55859 1.62891,39.1914 4.8125,58.36328 z m 0,0"
     id="path10" />
  <path
     style="fill:#000000;fill-opacity:1;fill-rule:nonzero;stroke:none"
     d="M 226.95703,240.51172 151.17188,178.65625 C 180.18359,143.11328 214.23828,112.22266 252.47656,87 l 53.83594,81.72266 c -29.94141,19.71484 -56.625,43.85156 -79.35547,71.78906 z m 0,0"
     id="path12" />
  <path
     style="fill:#000000;fill-opacity:1;fill-rule:nonzero;stroke:none"
     d="m 792.43359,266.74219 c -20.01172,-29.80078 -44.36718,-56.34375 -72.44922,-78.84766 l 61.125,-76.37109 c 35.75782,28.71875 66.94141,62.55468 92.46094,100.58203 z m 0,0"
     id="path14" />
  <path
     style="fill:#000000;fill-opacity:1;fill-rule:nonzero;stroke:none"
     d="m 939.34766,560.10937 -95.48438,-21.03125 c 5.42969,-24.83593 8.22266,-50.44921 8.22266,-76.13671 0,-22.04297 -2.01953,-44.00391 -6.05078,-65.42579 l 96.10546,-18.08203 c 5.1211,27.39453 7.75782,55.41407 7.75782,83.50782 -0.0781,32.75 -3.56641,65.42578 -10.55078,97.16796 z m 0,0"
     id="path16" />
  <path
     style="fill:#000000;fill-opacity:1;fill-rule:nonzero;stroke:none"
     d="m 769.9375,823.05078 -58.71875,-78.23047 c 28.70312,-21.57422 53.91016,-47.34375 74.85547,-76.52344 l 79.42969,57.1211 c -26.76172,37.2539 -58.875,70.08203 -95.56641,97.63281 z m 0,0"
     id="path18" />
  <path
     style="fill:#000000;fill-opacity:1;fill-rule:nonzero;stroke:none"
     d="m 283.73828,438.96094 c 0,0 0.92969,-4.73438 2.63672,-12.96094 0.46484,-2.09766 0.92969,-4.34766 1.39844,-6.83203 0.85156,-2.8711 1.70312,-5.97266 2.71484,-9.3125 1.9375,-6.67188 4.03125,-14.125 7.36719,-21.26563 1.55078,-3.64453 3.17969,-7.44922 4.80859,-11.40625 2.01953,-3.80468 4.11328,-7.68359 6.28516,-11.71875 3.95312,-8.14843 9.92969,-15.75781 15.28125,-23.90625 6.35937,-7.52734 12.33203,-15.59765 19.85547,-22.5039 6.90625,-7.45313 15.20312,-13.73828 23.03906,-20.17969 8.53125,-5.66797 16.75391,-11.64063 25.75391,-16.06641 8.53125,-5.04297 17.83984,-8.38281 26.44921,-12.02734 9.07422,-2.64063 17.45313,-5.97656 25.91016,-7.29688 4.1875,-0.85546 8.21875,-1.70703 12.09766,-2.48437 3.95703,-0.38672 7.75781,-0.77344 11.48047,-1.16406 7.29296,-1.00782 14.03906,-0.92969 19.9375,-0.85157 2.94531,0 5.73828,0 8.29687,0 2.5625,0.23047 4.88672,0.46485 6.98438,0.69532 8.375,0.85547 13.18359,1.32031 13.18359,1.32031 0,0 -4.80859,0.3125 -13.18359,0.77734 -2.09766,0.15625 -4.42188,0.23438 -6.90625,0.38672 -2.48047,0.39063 -5.19532,0.85547 -8.06641,1.32031 -5.73828,0.85547 -12.17969,1.78516 -19.00391,3.87891 -3.41406,0.93359 -6.98047,1.86328 -10.6289,2.875 -3.56641,1.31641 -7.21094,2.71484 -11.01172,4.11328 -7.60156,2.48047 -14.97266,6.90625 -22.80469,10.55469 -7.29297,4.73437 -15.20703,8.92187 -22.10937,14.74609 -7.36719,5.1211 -13.80469,11.71875 -20.39844,17.76953 -5.97266,6.83204 -12.17969,13.27344 -17.06641,20.64454 -5.50781,6.83203 -9.38672,14.66796 -13.65234,21.65234 -3.25781,7.60937 -7.29297,14.51562 -9.38672,21.73437 -1.23828,3.49219 -2.40234,6.90625 -3.56641,10.24219 -0.77734,3.41406 -1.6289,6.67578 -2.32812,9.85547 -1.78516,6.36719 -2.32813,11.875 -2.94922,16.60938 -0.30859,2.40625 -0.61719,4.65625 -0.92969,6.67578 -0.15625,2.55859 -0.23047,4.88672 -0.30859,6.98437 -0.39063,8.46094 -0.54297,13.26953 -0.54297,13.26953 z m 0,0"
     id="path20" />
</svg>
