<?xml version="1.0" encoding="UTF-8" standalone="no"?>
<!-- Created with Inkscape (http://www.inkscape.org/) -->

<svg
   width="1000"
   height="1000"
   version="1.1"
   id="svg7"
   xmlns="http://www.w3.org/2000/svg"
   xmlns:svg="http://www.w3.org/2000/svg"
   xmlns:rdf="http://www.w3.org/1999/02/22-rdf-syntax-ns#"
   xmlns:cc="http://creativecommons.org/ns#"
   xmlns:dc="http://purl.org/dc/elements/1.1/">
  <defs
     id="defs5498" />
  <metadata
     id="metadata5594">
    <rdf:RDF>
      <cc:Work
         rdf:about="">
        <dc:format>image/svg+xml</dc:format>
        <dc:type
           rdf:resource="http://purl.org/dc/dcmitype/StillImage" />
      </cc:Work>
    </rdf:RDF>
  </metadata>
  <g
     id="layer1">
    <g
       id="g476"
       transform="matrix(10,0,0,10,-8662.9956,-1151.9824)">
      <g
         id="g1224"
         transform="matrix(18,0,0,18,-16092.511,-2522.9075)">
        <path
           d="m 944.93392,147.63921 c -0.6065,0 -1.1,0.4935 -1.1,1.1 v 1.6 c 0,0.0553 0.0448,0.1 0.1,0.1 h 0.3 v 0.9 c 0,0.0553 0.0448,0.1 0.1,0.1 0.0552,0 0.1,-0.0447 0.1,-0.1 v -0.9 h 1 v 1.3 c 0,0.0553 0.0447,0.1 0.1,0.1 0.0553,0 0.1,-0.0447 0.1,-0.1 v -1.3 h 0.3 c 0.0553,0 0.1,-0.0447 0.1,-0.1 v -1.6 c 0,-0.6065 -0.4935,-1.1 -1.1,-1.1 z"
           id="path54"
           style="stroke-width:0.1" />
        <path
           d="m 943.33392,148.63921 h -0.2 c -0.0552,0 -0.1,0.0448 -0.1,0.1 0,0.0552 0.0448,0.1 0.1,0.1 h 0.2 c 0.0552,0 0.1,-0.0448 0.1,-0.1 0,-0.0552 -0.0448,-0.1 -0.1,-0.1 z"
           id="path56"
           style="stroke-width:0.1" />
        <path
           d="m 946.73392,148.63921 h -0.2 c -0.0553,0 -0.1,0.0448 -0.1,0.1 0,0.0552 0.0447,0.1 0.1,0.1 h 0.2 c 0.0553,0 0.1,-0.0448 0.1,-0.1 0,-0.0552 -0.0447,-0.1 -0.1,-0.1 z"
           id="path58"
           style="stroke-width:0.1" />
        <path
           d="m 944.93392,147.23921 c 0.0552,0 0.1,-0.0448 0.1,-0.1 v -0.2 c 0,-0.0552 -0.0448,-0.1 -0.1,-0.1 -0.0552,0 -0.1,0.0448 -0.1,0.1 v 0.2 c 0,0.0552 0.0448,0.1 0.1,0.1 z"
           id="path60"
           style="stroke-width:0.1" />
        <path
           d="m 943.87332,147.53721 -0.1414,-0.1415 c -0.0391,-0.0391 -0.1023,-0.0391 -0.1414,0 -0.0391,0.039 -0.0391,0.1023 0,0.1414 l 0.1414,0.1415 c 0.0195,0.0195 0.0451,0.0293 0.0707,0.0293 0.0256,0 0.0512,-0.01 0.0707,-0.0293 0.039,-0.039 0.039,-0.1023 0,-0.1414 z"
           id="path62"
           style="stroke-width:0.1" />
        <path
           d="m 946.13602,147.39571 -0.1414,0.1415 c -0.0391,0.0391 -0.0391,0.1024 0,0.1414 0.0195,0.0195 0.0451,0.0293 0.0707,0.0293 0.0256,0 0.0512,-0.01 0.0707,-0.0293 l 0.1414,-0.1415 c 0.0391,-0.0391 0.0391,-0.1024 0,-0.1414 -0.0391,-0.039 -0.1024,-0.039 -0.1414,0 z"
           id="path64"
           style="stroke-width:0.1" />
      </g>
    </g>
  </g>
</svg>
