<?xml version="1.0" encoding="UTF-8" standalone="no"?>
<!-- Created with Inkscape (http://www.inkscape.org/) -->

<svg
   width="1000"
   height="1000"
   version="1.1"
   id="svg22"
   xmlns="http://www.w3.org/2000/svg"
   xmlns:svg="http://www.w3.org/2000/svg"
   xmlns:rdf="http://www.w3.org/1999/02/22-rdf-syntax-ns#"
   xmlns:cc="http://creativecommons.org/ns#"
   xmlns:dc="http://purl.org/dc/elements/1.1/">
  <defs
     id="defs5498" />
  <metadata
     id="metadata5594">
    <rdf:RDF>
      <cc:Work
         rdf:about="">
        <dc:format>image/svg+xml</dc:format>
        <dc:type
           rdf:resource="http://purl.org/dc/dcmitype/StillImage" />
      </cc:Work>
    </rdf:RDF>
  </metadata>
  <path
     style="fill:#000000;fill-opacity:1;fill-rule:nonzero;stroke:none"
     d="M 573.50391,454.07031 H 536.75 c -2.42188,0 -4.75391,0.92969 -6.52734,2.70313 L 500,486.98828 469.77734,456.77344 C 468.00391,455 465.67187,454.07031 463.25,454.07031 h -36.75391 c -5.03515,0 -9.23437,4.10156 -9.23437,9.23047 0,5.12891 4.10547,9.23438 9.23437,9.23438 h 32.92969 l 34.04297,34.03906 c 1.77344,1.77344 4.10547,2.70703 6.53125,2.70703 2.42578,0 4.66406,-0.93359 6.53125,-2.70703 l 34.04297,-34.03906 h 32.92969 c 5.03515,0 9.23437,-4.10547 9.23437,-9.23438 0,-5.12891 -4.19922,-9.23047 -9.23437,-9.23047 z m 0,0"
     id="path6" />
  <path
     style="fill:#000000;fill-opacity:1;fill-rule:nonzero;stroke:none"
     d="m 500,233.59766 c -126.67188,0 -229.74219,103.05468 -229.74219,229.70312 0,79.73828 42.16016,154.34766 110.25391,195.94531 v 98.01563 c 0,45.60547 37.125,82.63281 82.64453,82.63281 h 73.5 c 45.61328,0 82.64453,-37.11719 82.64453,-82.63281 V 659.24609 C 687.48828,617.64844 729.55469,543.03906 729.55469,463.30078 729.64844,336.65234 626.57812,233.59766 500,233.59766 Z M 605.58984,646 c -2.79687,1.67969 -4.57031,4.66406 -4.57031,7.92969 v 103.33203 c 0,35.4414 -28.82422,64.25781 -64.26953,64.25781 h -73.59375 c -35.44531,0 -64.26953,-28.81641 -64.26953,-64.25781 V 654.02344 c 0,-3.26563 -1.77344,-6.34375 -4.57031,-7.92969 -65.19922,-37.76953 -105.6836,-107.80859 -105.6836,-182.79297 0,-116.48437 94.76953,-211.33203 211.36719,-211.33203 116.59766,0 211.27344,94.75391 211.27344,211.33203 0,74.98438 -40.48047,145.02344 -105.6836,182.69922 z m 0,0"
     id="path8" />
  <path
     style="fill:#000000;fill-opacity:1;fill-rule:nonzero;stroke:none"
     d="m 536.75,931.75781 h -73.59375 c -5.03906,0 -9.23438,4.10156 -9.23438,9.23047 0,5.03906 4.10157,9.23438 9.23438,9.23438 h 73.5 c 5.03906,0 9.23828,-4.10157 9.23828,-9.23438 0,-5.12891 -4.10547,-9.23047 -9.14453,-9.23047 z m 0,0"
     id="path10" />
  <path
     style="fill:#000000;fill-opacity:1;fill-rule:nonzero;stroke:none"
     d="M 132.48437,454.07031 H 95.734375 c -5.035156,0 -9.234375,4.10156 -9.234375,9.23047 0,5.12891 4.105469,9.23438 9.234375,9.23438 l 36.749995,-0.0937 c 5.03907,0 9.23438,-4.10547 9.23438,-9.23438 0,-5.12891 -4.19531,-9.13672 -9.23438,-9.13672 z m 0,0"
     id="path12" />
  <path
     style="fill:#000000;fill-opacity:1;fill-rule:nonzero;stroke:none"
     d="m 904.26562,454.07031 h -36.75 c -5.03906,0 -9.23437,4.10156 -9.23437,9.23047 0,5.12891 4.10156,9.23438 9.23437,9.23438 h 36.75 c 5.03516,0 9.23438,-4.10547 9.23438,-9.23438 0,-5.12891 -4.19922,-9.23047 -9.23438,-9.23047 z m 0,0"
     id="path14" />
  <path
     style="fill:#000000;fill-opacity:1;fill-rule:nonzero;stroke:none"
     d="m 500,104.98828 c 5.03516,0 9.23437,-4.10547 9.23437,-9.234376 V 59.011717 c 0,-5.039063 -4.10546,-9.234375 -9.23437,-9.234375 -5.12891,0 -9.23438,4.101562 -9.23438,9.234375 v 36.835937 c 0,5.035156 4.10547,9.140626 9.23438,9.140626 z m 0,0"
     id="path16" />
  <path
     style="fill:#000000;fill-opacity:1;fill-rule:nonzero;stroke:none"
     d="m 220.63281,170.92578 c -3.54297,-3.54687 -9.42187,-3.54687 -12.96484,0 -3.54297,3.54297 -3.54297,9.41797 0,12.96094 l 26.02344,26.01953 c 1.77343,1.77344 4.19921,2.70703 6.53125,2.70703 2.33203,0 4.66406,-0.93359 6.52734,-2.70703 3.54687,-3.54297 3.54687,-9.41797 0,-12.96094 z m 0,0"
     id="path18" />
  <path
     style="fill:#000000;fill-opacity:1;fill-rule:nonzero;stroke:none"
     d="M 779.27344,170.92578 753.25,196.94531 c -3.54688,3.54297 -3.54688,9.41797 0,12.96094 1.76953,1.77344 4.19531,2.70703 6.52734,2.70703 2.33203,0 4.66407,-0.93359 6.53125,-2.70703 l 26.02344,-26.01953 c 3.54297,-3.54297 3.54297,-9.41797 0,-12.96094 -3.54297,-3.54687 -9.42187,-3.54687 -13.05859,0 z m 0,0"
     id="path20" />
</svg>
