<?xml version="1.0" encoding="UTF-8" standalone="no"?>
<!-- Created with Inkscape (http://www.inkscape.org/) -->

<svg
   width="1000"
   height="1000"
   version="1.1"
   id="svg24"
   xmlns="http://www.w3.org/2000/svg"
   xmlns:svg="http://www.w3.org/2000/svg"
   xmlns:rdf="http://www.w3.org/1999/02/22-rdf-syntax-ns#"
   xmlns:cc="http://creativecommons.org/ns#"
   xmlns:dc="http://purl.org/dc/elements/1.1/">
  <defs
     id="defs5498" />
  <metadata
     id="metadata5594">
    <rdf:RDF>
      <cc:Work
         rdf:about="">
        <dc:format>image/svg+xml</dc:format>
        <dc:type
           rdf:resource="http://purl.org/dc/dcmitype/StillImage" />
      </cc:Work>
    </rdf:RDF>
  </metadata>
  <path
     style="fill:#000000;fill-opacity:1;fill-rule:nonzero;stroke:none"
     d="m 661.42149,699.14034 c 0,57.92579 -45.4375,106.03516 -103.42968,106.03516 L 444.734,805.0935 c -57.9961,-3e-5 -106.73438,-48.02737 -106.73438,-106.03909 V 619.1755 h 323.42187 z m 0,0"
     id="path6" />
  <path
     style="fill:#000000;fill-opacity:1;fill-rule:nonzero;stroke:none"
     d="m 647.46056,699.14034 c 0,2.88672 -0.16407,5.69141 -0.33203,8.4961 -0.082,1.40625 -0.2461,2.80859 -0.41407,4.21094 0.33203,-2.97266 -0.24609,1.5664 -0.32812,1.73046 -0.99219,5.85938 -2.5625,11.63672 -4.46094,17.25 -0.41406,1.32032 -0.91016,2.55469 -1.40625,3.79297 -1.56641,4.12891 1.15625,-2.47265 -0.66016,1.57032 -1.07421,2.47265 -2.3125,4.86718 -3.63281,7.17968 -1.24219,2.39063 -2.64453,4.6211 -4.13281,6.84766 -0.74219,1.15625 -1.48438,2.22656 -2.23047,3.30078 -0.49609,0.74219 -1.07422,1.48438 -1.57031,2.14453 0.91015,-1.07031 0.82812,-0.98828 -0.2461,0.25 -3.30468,4.125 -7.02343,8.00391 -10.90625,11.63281 -1.98046,1.81641 -3.96484,3.46875 -6.11328,5.11719 2.23047,-1.8164 -1.23828,0.82422 -1.40234,0.90625 -1.40625,0.99219 -2.97266,1.98047 -4.46094,2.97266 -2.23047,1.40234 -4.54297,2.72265 -6.9414,3.96094 -1.15625,0.66015 -2.39454,1.23828 -3.55079,1.8164 -0.16406,0.082 -4.21484,1.89844 -1.48828,0.74219 -5.44922,2.30859 -11.07031,3.96094 -16.85156,5.28125 -1.32031,0.32812 -2.72656,0.57812 -4.04687,0.82422 -0.25,0 -4.71094,0.74219 -1.73438,0.33203 -2.80859,0.32812 -5.61719,0.57422 -8.42578,0.66016 -1.82031,0.082 -3.63672,0.082 -5.45313,0.082 -3.88281,0 -7.68359,0 -11.5664,0 -14.95313,0 -29.98828,0 -44.94141,0 -14.70312,0 -29.49219,0 -44.19531,0 -3.55469,0 -7.10547,0 -10.65625,0 -2.14844,0 -4.29687,-0.082 -6.44531,-0.16797 -1.40235,-0.082 -2.8086,-0.16406 -4.21094,-0.32813 -0.16797,0 -4.79297,-0.57812 -1.82031,-0.16406 -3.22266,-0.49609 -6.44141,-1.15625 -9.58203,-1.89844 -2.72657,-0.66015 -5.3711,-1.40234 -7.92969,-2.3125 -1.32422,-0.41015 -2.5625,-0.90625 -3.88281,-1.40234 -0.16407,-0.082 -4.29688,-1.73047 -1.65235,-0.57813 -5.45312,-2.30859 -10.57422,-5.19921 -15.53125,-8.33203 -8.17968,-5.19922 -15.69531,-12.13281 -23.04687,-21.29297 1.73437,2.23047 -0.91016,-1.32031 -0.99219,-1.40234 -0.82812,-1.07031 -1.57031,-2.22656 -2.3125,-3.38281 -1.48828,-2.22656 -2.89453,-4.6211 -4.21484,-6.92969 -3.55078,-6.27344 -4.12891,-7.92187 -6.27735,-14.03125 -1.82031,-5.19922 -3.05859,-10.64453 -4.05078,-16.08984 -0.74219,-4.53907 0.25,2.80468 -0.24609,-1.73438 -0.16406,-1.40234 -0.2461,-2.80469 -0.41406,-4.20703 -0.16407,-2.39453 -0.2461,-4.78516 -0.2461,-7.17969 0,-26.73828 0,-53.47265 0,-80.21093 -4.71094,4.70312 -9.5,9.49218 -14.21094,14.19531 40.97657,0 81.95313,0 122.92578,0 59.31641,0 118.62891,0 177.94532,0 7.51562,0 15.03515,0 22.55078,0 -4.70703,-4.70313 -9.5,-9.49219 -14.20703,-14.19531 0,26.98437 0,53.72265 0,80.54296 0,7.75391 6.4414,14.19141 14.20703,14.19141 7.76562,0 14.21094,-6.4375 14.21094,-14.19141 0,-26.73828 0,-53.55859 0,-80.29296 0,-7.75782 -6.44532,-14.19532 -14.21094,-14.19532 -40.97266,0 -81.94922,0 -122.92188,0 -59.3164,0 -118.63281,0 -177.94531,0 -7.51953,0 -15.03515,0 -22.55469,0 -7.76562,0 -14.20703,6.4375 -14.20703,14.19532 0,24.92187 0,49.92187 0,74.84375 0,17.16406 2.14844,34 8.83985,49.92578 9.74609,23.26953 25.9375,42.49609 47.0039,56.35937 19.08203,12.54297 42.29688,19.0625 65.01563,19.0625 9.16797,0 18.25781,0 27.42578,0 27.83984,0 55.59765,0 83.4375,0 29.24609,0 56.25781,-9.73437 78.64453,-28.46875 26.68359,-22.28125 41.30859,-57.01953 41.55469,-91.34765 0.082,-7.75782 -6.52735,-14.19532 -14.20703,-14.19532 -7.85157,-0.16406 -14.21094,6.35547 -14.29297,14.11328 z m 0,0"
     id="path8" />
  <path
     style="fill:#000000;fill-opacity:1;fill-rule:nonzero;stroke:none"
     d="m 574.26524,836.20284 c -48.41015,0 -96.73437,0 -145.14453,0 -1.16015,0 -2.3164,0 -3.47265,0 -7.76563,0 -14.20703,6.4375 -14.20703,14.19532 0,7.75781 6.4414,14.1914 14.20703,14.1914 48.41015,0 96.73828,0 145.14843,0 1.15625,0 2.3125,0 3.46875,0 7.76563,0 14.21094,-6.43359 14.21094,-14.1914 0.082,-7.67578 -6.44531,-14.19532 -14.21094,-14.19532 z m 0,0"
     id="path10" />
  <path
     style="fill:#000000;fill-opacity:1;fill-rule:nonzero;stroke:none"
     d="m 574.26524,878.86691 c -48.41015,0 -96.73437,0 -145.14453,0 -1.16015,0 -2.3164,0 -3.47265,0 -7.76563,0 -14.20703,6.4375 -14.20703,14.19531 0,7.75391 6.4414,14.19141 14.20703,14.19141 48.41015,0 96.73828,0 145.14843,0 1.15625,0 2.3125,0 3.46875,0 7.76563,0 14.21094,-6.4375 14.21094,-14.19141 0,-7.75781 -6.44531,-14.19531 -14.21094,-14.19531 z m 0,0"
     id="path12" />
  <path
     style="fill:#000000;fill-opacity:1;fill-rule:nonzero;stroke:none"
     d="m 529.65587,921.613 c -19.74219,0 -39.48828,0 -59.23047,0 -7.76562,0 -14.21094,6.4375 -14.21094,14.19141 0,7.75781 6.44532,14.19531 14.21094,14.19531 19.74219,0 39.48828,0 59.23047,0 7.76562,0 14.21094,-6.4375 14.21094,-14.19531 0,-7.75391 -6.44532,-14.19141 -14.21094,-14.19141 z m 0,0"
     id="path14" />
  <path
     style="fill:#000000;fill-opacity:1;fill-rule:nonzero;stroke:none"
     d="M 475.3004,124.13644 V 568.4255 H 440.68321 V 123.89035 c 0,-7.17969 -2.72656,-13.61719 -7.43359,-18.32031 -4.70703,-4.70313 -11.23438,-7.589847 -18.42188,-7.589847 -14.29296,0 -26.02343,11.632817 -26.02343,25.910157 V 568.4255 H 355.26524 V 124.13644 c 0,-16.58593 6.85547,-31.519528 17.67969,-42.41406 10.82031,-10.808594 25.77344,-17.578125 42.37891,-17.578125 33.125,0 59.97656,26.902344 59.97656,59.992185 z m 0,0"
     id="path16" />
  <path
     style="fill:#000000;fill-opacity:1;fill-rule:nonzero;stroke:none"
     d="m 461.25353,124.13644 c 0,32.84375 0,65.76953 0,98.61328 0,65.10937 0,130.13281 0,195.24219 0,46.95312 0,93.91015 0,140.86328 0,3.05078 0,6.10547 0,9.16015 4.71093,-4.70312 9.5,-9.49218 14.21093,-14.19531 -11.48437,0 -22.96484,0 -34.44921,0 4.70703,4.70313 9.5,9.49219 14.20703,14.19531 0,-32.92578 0,-65.76953 0,-98.69531 0,-65.10937 0,-130.21875 0,-195.32422 0,-46.95703 0,-93.99218 0,-140.94531 0,-3.05468 0,-6.02343 0,-9.07812 0,-13.12109 -6.44141,-25.003906 -16.9336,-32.761718 -12.72265,-9.40625 -29.90625,-9.488282 -43.53515,-1.980469 -13.30079,7.347656 -19.91016,22.035157 -19.91016,36.722657 0,4.78515 0,9.65625 0,14.4414 0,51.08203 0,102.16016 0,153.15625 0,64.12109 0,128.32031 0,192.4375 0,27.31641 0,54.62891 0,81.94531 4.71094,-4.70703 9.5,-9.49218 14.21094,-14.19531 -11.23828,0 -22.47266,0 -33.70703,0 4.70703,4.70313 9.5,9.48828 14.21093,14.19531 0,-32.84375 0,-65.76953 0,-98.61328 0,-65.10937 0,-130.13281 0,-195.24219 0,-46.95312 0,-93.91015 0,-140.86327 0,-2.88672 0,-5.77735 0,-8.66406 0,-14.76954 6.02735,-26.98438 17.92578,-36.968755 -0.82812,0.660157 -0.57812,0.496094 0.82422,-0.578125 1.23828,-0.90625 2.5625,-1.734375 3.88282,-2.476562 0.91015,-0.492188 1.8164,-0.988282 2.72656,-1.484375 -0.2461,0.08203 4.3789,-1.980469 2.23047,-1.15625 5.28906,-2.144531 10.65625,-3.21875 14.87109,-3.546875 2.47656,-0.164063 5.03906,-0.08203 7.51563,0.08203 0.25,0 4.79297,0.578125 1.73437,0.164063 1.32422,0.167968 2.72656,0.496093 4.05078,0.828124 2.23047,0.492188 4.37891,1.152344 6.44141,1.894532 4.13281,1.40625 -2.39453,-1.152344 1.57031,0.578125 1.23828,0.578125 2.39453,1.15625 3.55469,1.816406 7.67969,4.125 13.29687,9.738281 17.51172,16.503902 5.03906,8.00391 6.77343,15.01954 6.85547,23.92969 0.082,7.75781 6.44531,14.19531 14.21093,14.19531 7.6836,0 14.28907,-6.4375 14.20703,-14.19531 -0.32812,-26.156248 -13.79296,-49.839842 -36.01562,-63.621092 -23.62891,-14.6875 -55.10156,-13.699219 -78.31641,1.15625 -21.14843,13.53125 -34.11718,37.546875 -34.11718,62.632812 0,3.21875 0,6.43359 0,9.57031 0,47.36719 0,94.81641 0,142.18359 0,65.02344 0,129.96875 0,194.9961 0,32.26562 0,64.61328 0,96.8789 0,7.75391 6.4414,14.19141 14.20703,14.19141 11.23437,0 22.47265,0 33.70703,0 7.76562,0 14.20703,-6.4375 14.20703,-14.19141 0,-32.92578 0,-65.76953 0,-98.69531 0,-65.10937 0,-130.21875 0,-195.32422 0,-46.95703 0,-93.99219 0,-140.94531 0,-3.05468 0,-6.02343 0,-9.07812 0,0 0,-0.082 0,-0.082 0,-4.375 -0.74219,2.39453 0.082,-1.81641 0.0859,-0.24609 1.40625,-4.37109 0.25,-1.73047 0.49609,-1.23828 1.23828,-2.39453 1.89844,-3.55078 -1.40235,2.3125 0.82812,-0.90625 1.15625,-1.23828 0.25,-0.24609 3.47265,-2.72266 1.24218,-1.15234 0.57813,-0.41407 5.03907,-2.39453 2.64063,-1.48828 1.32422,-0.49219 2.64453,-0.74219 3.96484,-0.98829 -2.97265,0.57813 1.90235,0.2461 2.06641,0.2461 -2.14844,-0.082 2.48047,0.66015 2.48047,0.66015 -1.90234,-0.57812 2.23047,1.15625 2.23047,1.15625 3.30469,1.89844 5.20312,6.1875 5.36719,9.82032 0.33203,9.24218 0,18.5664 0,27.80859 0,55.28906 0,110.57812 0,165.86718 0,62.30078 0,124.6875 0,186.98828 0,21.125 0,42.25 0,63.375 0,7.75782 6.44531,14.19532 14.21093,14.19532 11.48047,0 22.96485,0 34.44922,0 7.76563,0 14.20703,-6.4375 14.20703,-14.19532 0,-32.84375 0,-65.76562 0,-98.60937 0,-65.10938 0,-130.13672 0,-195.24219 0,-46.95703 0,-93.91015 0,-140.86328 0,-3.05468 0,-6.10546 0,-9.16015 0,-7.75781 -6.4414,-14.19141 -14.20703,-14.19141 -7.60156,0.16407 -14.1289,6.6836 -14.1289,14.4375 z m 0,0"
     id="path18" />
  <path
     style="fill:#000000;fill-opacity:1;fill-rule:nonzero;stroke:none"
     d="M 645.14806,124.13644 V 568.4255 H 610.53087 V 123.89035 c 0,-7.17969 -2.72266,-13.61719 -7.43359,-18.32031 -4.70704,-4.70313 -11.23438,-7.589847 -18.42188,-7.589847 -14.29297,0 -26.02344,11.632817 -26.02344,25.910157 V 568.4255 H 525.1129 V 124.13644 c 0,-16.58593 6.85547,-31.519528 17.67969,-42.41406 10.82031,-10.808594 25.77344,-17.578125 42.3789,-17.578125 33.125,0 59.97657,26.902344 59.97657,59.992185 z m 0,0"
     id="path20" />
  <path
     style="fill:#000000;fill-opacity:1;fill-rule:nonzero;stroke:none"
     d="m 631.10118,124.13644 c 0,32.84375 0,65.76953 0,98.61328 0,65.10937 0,130.13281 0,195.24219 0,46.95312 0,93.91015 0,140.86328 0,3.05078 0,6.10547 0,9.16015 4.71094,-4.70312 9.50391,-9.49218 14.21094,-14.19531 -11.48438,0 -22.96484,0 -34.44922,0 4.71094,4.70313 9.5,9.49219 14.21094,14.19531 0,-32.92578 0,-65.76953 0,-98.69531 0,-65.10937 0,-130.21875 0,-195.32422 0,-46.95703 0,-93.99218 0,-140.94531 0,-3.05468 0,-6.02343 0,-9.07812 0,-13.12109 -6.44531,-25.003906 -16.9375,-32.761718 -12.72266,-9.40625 -29.90625,-9.488282 -43.53516,-1.980469 -13.30078,7.347656 -19.91015,22.035157 -19.91015,36.722657 0,4.78515 0,9.65625 0,14.4414 0,51.08203 0,102.16016 0,153.15625 0,64.12109 0,128.32031 0,192.4375 0,27.31641 0,54.62891 0,81.94531 4.71093,-4.70703 9.5,-9.49218 14.21093,-14.19531 -11.23437,0 -22.47265,0 -33.70703,0 4.71094,4.70313 9.5,9.48828 14.21094,14.19531 0,-32.84375 0,-65.76953 0,-98.61328 0,-65.10937 0,-130.13281 0,-195.24219 0,-46.95312 0,-93.91015 0,-140.86327 0,-2.88672 0,-5.77735 0,-8.66406 0,-14.76954 6.03125,-26.98438 17.92578,-36.968755 -0.82812,0.660157 -0.57812,0.496094 0.82422,-0.578125 1.24219,-0.90625 2.5625,-1.734375 3.88281,-2.476562 0.91016,-0.492188 1.82031,-0.988282 2.72656,-1.484375 -0.24609,0.08203 4.37891,-1.980469 2.23047,-1.15625 5.28907,-2.144531 10.65625,-3.21875 14.8711,-3.546875 2.47656,-0.164063 5.03906,-0.08203 7.51562,0.08203 0.25,0 4.79297,0.578125 1.73828,0.164063 1.32032,0.167968 2.72657,0.496093 4.04688,0.828124 2.23047,0.492188 4.3789,1.152344 6.4414,1.894532 4.13282,1.40625 -2.39453,-1.152344 1.57032,0.578125 1.23828,0.578125 2.39843,1.15625 3.55468,1.816406 7.67969,4.125 13.30079,9.738281 17.51172,16.503902 5.1211,8.00391 6.77344,15.01954 6.85547,23.92969 0.0859,7.75781 6.44531,14.19531 14.21094,14.19531 7.68359,0 14.29297,-6.4375 14.20703,-14.19531 -0.32812,-26.156248 -13.79297,-49.839842 -36.01562,-63.621092 -23.62891,-14.6875 -55.10157,-13.699219 -78.31641,1.15625 -21.14844,13.53125 -34.11719,37.546875 -34.11719,62.632812 0,3.21875 0,6.43359 0,9.57031 0,47.36719 0,94.81641 0,142.18359 0,65.02344 0,129.96875 0,194.9961 0,32.26562 0,64.61328 0,96.8789 0,7.75391 6.44141,14.19141 14.20703,14.19141 11.23828,0 22.47266,0 33.70703,0 7.76563,0 14.20704,-6.4375 14.20704,-14.19141 0,-32.92578 0,-65.76953 0,-98.69531 0,-65.10937 0,-130.21875 0,-195.32422 0,-46.95703 0,-93.99219 0,-140.94531 0,-3.05468 0,-6.02343 0,-9.07812 0,0 0,-0.082 0,-0.082 0,-4.375 -0.74219,2.39453 0.0859,-1.81641 0.082,-0.24609 1.40235,-4.37109 0.2461,-1.73047 0.49609,-1.23828 1.23828,-2.39453 1.89843,-3.55078 -1.40234,2.3125 0.82813,-0.90625 1.15625,-1.23828 0.25,-0.24609 3.47266,-2.72266 1.24219,-1.15234 0.57813,-0.41407 5.03906,-2.39453 2.64063,-1.48828 1.32422,-0.49219 2.64453,-0.74219 3.96875,-0.98829 -2.97657,0.57813 1.89843,0.2461 2.0625,0.2461 -2.14844,-0.082 2.48047,0.66015 2.48047,0.66015 -1.90235,-0.57812 2.23046,1.15625 2.23046,1.15625 3.30469,1.89844 5.20313,6.1875 5.36719,9.82032 0.33203,9.24218 0,18.5664 0,27.80859 0,55.28906 0,110.57812 0,165.86718 0,62.30078 0,124.6875 0,186.98828 0,21.125 0,42.25 0,63.375 0,7.75782 6.44531,14.19532 14.21094,14.19532 11.48437,0 22.96484,0 34.44922,0 7.76562,0 14.20703,-6.4375 14.20703,-14.19532 0,-32.84375 0,-65.76562 0,-98.60937 0,-65.10938 0,-130.13672 0,-195.24219 0,-46.95703 0,-93.91015 0,-140.86327 0,-3.05469 0,-6.10547 0,-9.16016 0,-7.75781 -6.44141,-14.19141 -14.20703,-14.19141 -7.60156,0.16407 -14.12891,6.6836 -14.12891,14.4375 z m 0,0"
     id="path22" />
</svg>
