<?xml version="1.0" encoding="UTF-8" standalone="no"?>
<!-- Created with Inkscape (http://www.inkscape.org/) -->

<svg
   width="1000"
   height="1000"
   version="1.1"
   id="svg10"
   xmlns="http://www.w3.org/2000/svg"
   xmlns:svg="http://www.w3.org/2000/svg"
   xmlns:rdf="http://www.w3.org/1999/02/22-rdf-syntax-ns#"
   xmlns:cc="http://creativecommons.org/ns#"
   xmlns:dc="http://purl.org/dc/elements/1.1/">
  <defs
     id="defs5498" />
  <metadata
     id="metadata5594">
    <rdf:RDF>
      <cc:Work
         rdf:about="">
        <dc:format>image/svg+xml</dc:format>
        <dc:type
           rdf:resource="http://purl.org/dc/dcmitype/StillImage" />
      </cc:Work>
    </rdf:RDF>
  </metadata>
  <path
     style="fill:#000000;fill-opacity:1;fill-rule:nonzero;stroke:none"
     d="M 603.80078,845.67969 H 396.19922 c -19.05469,0 -34.59766,15.44531 -34.59766,34.57031 0,19.125 15.45313,34.56641 34.59766,34.56641 h 69.19922 c 0,19.03906 15.54687,34.57031 34.60156,34.57031 19.05469,0 34.60156,-15.44141 34.60156,-34.57031 h 69.19922 c 19.05469,0 34.59766,-15.52735 34.59766,-34.56641 0,-19.03906 -15.54297,-34.57031 -34.59766,-34.57031 z m 0,0"
     id="path6" />
  <path
     style="fill:#000000;fill-opacity:1;fill-rule:nonzero;stroke:none"
     d="m 500,50.613281 c -190.82813,0 -346,155.031249 -346,345.683589 0,137.65625 82.46094,261.89063 207.60156,316.55079 v 63.69921 c 0,19.03907 15.45313,34.56641 34.59766,34.56641 h 207.60156 c 19.05469,0 34.59766,-15.53125 34.59766,-34.56641 V 712.84766 C 763.53906,658.1875 846,533.95312 846,396.29687 846,205.64453 690.82812,50.613281 500,50.613281 Z m 67.44531,356.648439 -34.60156,103.70703 c -4.82813,14.47656 -18.35547,23.6875 -32.84375,23.6875 -3.60156,0 -7.28906,-0.52734 -10.97656,-1.75391 -18.08985,-6.05468 -27.92578,-25.62109 -21.86719,-43.69531 l 19.40625,-58.16797 -21.16406,-0.17578 c -11.15235,0 -21.60157,-5.35156 -28.10157,-14.38672 -6.49609,-9.03906 -8.2539,-20.62109 -4.74218,-31.14844 L 467.15625,281.625 c 6.05859,-18.07422 25.73047,-27.90234 43.73437,-21.84766 18.08985,6.05469 27.92579,25.6211 21.86329,43.69141 l -19.40625,58.17187 h 21.16406 c 11.15234,0 21.51562,5.35157 28.10156,14.38672 6.58594,9.125 8.34375,20.6211 4.83203,31.23438 z m 0,0"
     id="path8" />
</svg>
