<?xml version="1.0" encoding="UTF-8" standalone="no"?>
<!-- Created with Inkscape (http://www.inkscape.org/) -->

<svg
   width="1000"
   height="1000"
   version="1.1"
   id="svg12"
   xmlns="http://www.w3.org/2000/svg"
   xmlns:svg="http://www.w3.org/2000/svg"
   xmlns:rdf="http://www.w3.org/1999/02/22-rdf-syntax-ns#"
   xmlns:cc="http://creativecommons.org/ns#"
   xmlns:dc="http://purl.org/dc/elements/1.1/">
  <defs
     id="defs5498" />
  <metadata
     id="metadata5594">
    <rdf:RDF>
      <cc:Work
         rdf:about="">
        <dc:format>image/svg+xml</dc:format>
        <dc:type
           rdf:resource="http://purl.org/dc/dcmitype/StillImage" />
      </cc:Work>
    </rdf:RDF>
  </metadata>
  <path
     style="fill:#000000;fill-opacity:1;fill-rule:nonzero;stroke:none"
     d="M 603.74219,845.76953 H 396.25781 c -19.04687,0 -34.58203,15.44531 -34.58203,34.57813 0,19.1289 15.44922,34.57421 34.58203,34.57421 h 69.16016 c 0,19.04297 15.53515,34.57813 34.58203,34.57813 19.04687,0 34.58203,-15.44531 34.58203,-34.57813 h 69.16016 c 19.04687,0 34.58203,-15.53125 34.58203,-34.57421 0,-19.04688 -15.44922,-34.57813 -34.58203,-34.57813 z m 0,0"
     id="path6" />
  <path
     style="fill:#000000;fill-opacity:1;fill-rule:nonzero;stroke:none"
     d="M 638.32422,638.30859 H 361.67578 c -11.14453,0 -21.58984,5.35157 -28.08594,14.39063 -6.49218,9.03906 -8.25,20.625 -4.73828,31.15625 l 34.58203,103.73047 c 4.73828,14.1289 17.90235,23.60547 32.82422,23.60547 h 207.48438 c 14.92187,0 28.08593,-9.56641 32.82422,-23.60547 l 34.58203,-103.73047 c 3.51172,-10.53125 1.7539,-22.11719 -4.73828,-31.15625 -6.4961,-9.03906 -16.94141,-14.39063 -28.08594,-14.39063 z m 0,0"
     id="path8" />
  <path
     style="fill:#000000;fill-opacity:1;fill-rule:nonzero;stroke:none"
     d="M 569.16016,50.5 C 542.56641,50.5 518.34375,60.59375 500,77.179688 481.65625,60.679688 457.43359,50.5 430.83984,50.5 373.61328,50.5 327.09766,97.011719 327.09766,154.23047 v 414.92187 c 0,19.04688 15.53515,34.57813 34.57812,34.57813 19.04688,0 34.58203,-15.44531 34.58203,-34.57813 V 154.23047 c 0,-19.04297 15.53516,-34.57813 34.58203,-34.57813 19.04297,0 34.57813,15.53516 34.57813,34.57813 v 414.92187 c 0,19.04688 15.53515,34.57813 34.58203,34.57813 19.04687,0 34.58203,-15.44531 34.58203,-34.57813 V 154.23047 c 0,-19.04297 15.53516,-34.57813 34.57813,-34.57813 19.04687,0 34.58203,15.53516 34.58203,34.57813 v 414.92187 c 0,19.04688 15.44922,34.57813 34.58203,34.57813 19.13281,0 34.57812,-15.44531 34.57812,-34.57813 V 154.23047 C 672.90234,97.011719 626.38672,50.5 569.16016,50.5 Z m 0,0"
     id="path10" />
</svg>
