<?xml version="1.0" encoding="UTF-8" standalone="no"?>
<!-- Created with Inkscape (http://www.inkscape.org/) -->

<svg
   width="1000"
   height="1000"
   version="1.1"
   id="svg20"
   xmlns="http://www.w3.org/2000/svg"
   xmlns:svg="http://www.w3.org/2000/svg"
   xmlns:rdf="http://www.w3.org/1999/02/22-rdf-syntax-ns#"
   xmlns:cc="http://creativecommons.org/ns#"
   xmlns:dc="http://purl.org/dc/elements/1.1/">
  <defs
     id="defs5498" />
  <metadata
     id="metadata5594">
    <rdf:RDF>
      <cc:Work
         rdf:about="">
        <dc:format>image/svg+xml</dc:format>
        <dc:type
           rdf:resource="http://purl.org/dc/dcmitype/StillImage" />
      </cc:Work>
    </rdf:RDF>
  </metadata>
  <path
     style="fill:#000000;fill-opacity:1;fill-rule:nonzero;stroke:none"
     d="m 500,230.14453 c -129.01563,0 -234,104.92969 -234,233.875 0,79.53906 41.11719,154.05859 108,196.89063 v 90.95312 c 0,49.58984 40.38672,89.95313 90,89.95313 h 72 c 49.61328,0 90,-40.36329 90,-89.95313 v -90.95312 c 66.88281,-42.92188 108,-117.35157 108,-196.89063 0,-128.94531 -104.98438,-233.875 -234,-233.875 z m 72,251.86328 h -28.50781 l -30.69922,30.6875 c -3.47266,3.46875 -8.13281,5.29688 -12.70313,5.29688 -4.5664,0 -9.22656,-1.73828 -12.69922,-5.29688 l -30.88281,-30.6875 H 428 c -9.96094,0 -18,-8.03515 -18,-17.98828 0,-9.95312 8.03906,-17.99219 18,-17.99219 h 36 c 4.75,0 9.32031,1.91797 12.69922,5.29688 L 500,474.51953 523.30078,451.23437 C 526.67969,447.85547 531.25,445.9375 536,445.9375 h 36 c 9.96094,0 18,8.03516 18,17.99219 0,9.95312 -8.03906,18.07812 -18,18.07812 z m 0,0"
     id="path6" />
  <path
     style="fill:#000000;fill-opacity:1;fill-rule:nonzero;stroke:none"
     d="m 536,913.77734 h -72 c -9.96094,0 -18,8.03516 -18,17.99219 0,9.95313 8.03906,17.98828 18,17.98828 h 72 c 9.96094,0 18,-8.03515 18,-17.98828 0,-9.95703 -8.03906,-17.99219 -18,-17.99219 z m 0,0"
     id="path8" />
</svg>
