<?xml version="1.0" encoding="UTF-8" standalone="no"?>
<!-- Created with Inkscape (http://www.inkscape.org/) -->

<svg
   width="1000"
   height="1000"
   version="1.1"
   id="svg8"
   xmlns="http://www.w3.org/2000/svg"
   xmlns:svg="http://www.w3.org/2000/svg"
   xmlns:rdf="http://www.w3.org/1999/02/22-rdf-syntax-ns#"
   xmlns:cc="http://creativecommons.org/ns#"
   xmlns:dc="http://purl.org/dc/elements/1.1/">
  <defs
     id="defs5498" />
  <metadata
     id="metadata5594">
    <rdf:RDF>
      <cc:Work
         rdf:about="">
        <dc:format>image/svg+xml</dc:format>
        <dc:type
           rdf:resource="http://purl.org/dc/dcmitype/StillImage" />
      </cc:Work>
    </rdf:RDF>
  </metadata>
  <path
     style="fill:#000000;fill-opacity:1;fill-rule:nonzero;stroke:none"
     d="M 499.55078,50 C 251.14844,50 50,251.60156 50,500 50,748.39844 251.14844,950 499.55078,950 748.39844,950 950,748.39844 950,500 950,251.60156 748.39844,50 499.55078,50 Z m 311.84766,270 h -132.75 C 664.25,263.75 643.55078,209.75 616.55078,159.80078 699.35156,188.14844 768.19922,245.75 811.39844,320 Z M 500,141.80078 c 37.35156,54 66.60156,113.84766 85.94922,178.19922 H 414.05078 C 433.39844,255.64844 462.64844,195.80078 500,141.80078 Z M 151.69922,590 C 144.5,561.19922 140,531.05078 140,500 c 0,-31.05078 4.5,-61.19922 11.69922,-90 h 152.10156 c -3.60156,29.69922 -6.30078,59.39844 -6.30078,90 0,30.60156 2.69922,60.30078 6.30078,90 z m 36.90234,90 h 132.75 C 335.75,736.25 356.44922,790.25 383.44922,840.19922 300.64844,811.85156 231.80078,754.69922 188.60156,680 Z m 132.75,-360 h -132.75 C 231.80078,245.30078 300.64844,188.14844 383.44922,159.80078 356.44922,209.75 335.75,263.75 321.35156,320 Z M 500,858.19922 C 462.64844,804.19922 433.39844,744.35156 414.05078,680 H 585.94922 C 566.60156,744.35156 537.35156,804.19922 500,858.19922 Z M 605.30078,590 H 394.69922 C 390.64844,560.30078 387.5,530.60156 387.5,500 c 0,-30.60156 3.14844,-60.75 7.19922,-90 h 210.60156 c 4.05078,29.25 7.19922,59.39844 7.19922,90 0,30.60156 -3.14844,60.30078 -7.19922,90 z m 11.25,250.19922 C 643.55078,790.25 664.25,736.25 678.64844,680 h 132.75 C 768.19922,754.25 699.35156,811.85156 616.55078,840.19922 Z M 696.19922,590 c 3.60156,-29.69922 6.30078,-59.39844 6.30078,-90 0,-30.60156 -2.69922,-60.30078 -6.30078,-90 H 848.30078 C 855.5,438.80078 860,468.94922 860,500 c 0,31.05078 -4.5,61.19922 -11.69922,90 z m 0,0"
     id="path6" />
</svg>
