<?xml version="1.0" encoding="UTF-8" standalone="no"?>
<!-- Created with Inkscape (http://www.inkscape.org/) -->

<svg
   width="1000"
   height="1000"
   version="1.1"
   id="svg8"
   xmlns="http://www.w3.org/2000/svg"
   xmlns:svg="http://www.w3.org/2000/svg"
   xmlns:rdf="http://www.w3.org/1999/02/22-rdf-syntax-ns#"
   xmlns:cc="http://creativecommons.org/ns#"
   xmlns:dc="http://purl.org/dc/elements/1.1/">
  <defs
     id="defs5498" />
  <metadata
     id="metadata5594">
    <rdf:RDF>
      <cc:Work
         rdf:about="">
        <dc:format>image/svg+xml</dc:format>
        <dc:type
           rdf:resource="http://purl.org/dc/dcmitype/StillImage" />
      </cc:Work>
    </rdf:RDF>
  </metadata>
  <path
     style="fill:#000000;fill-opacity:1;fill-rule:nonzero;stroke:none"
     d="M 867.77344,132 H 132.22656 C 87.277344,132 50.5,168.80078 50.5,213.77734 V 786.22266 C 50.5,831.19922 87.277344,868 132.22656,868 H 867.77344 C 912.72266,868 949.5,831.19922 949.5,786.22266 V 213.77734 C 949.5,168.80078 912.72266,132 867.77344,132 Z m 0,654.22266 H 132.22656 V 213.77734 H 867.77344 Z M 336.54687,622.66797 C 336.54687,554.79297 391.30078,500 459.13672,500 c 14.30078,0 28.19531,2.86328 40.86328,7.35937 v -252.6914 h 204.31641 v 81.77734 H 581.72656 v 287.44922 c -0.8164,67.05469 -55.16406,121.4375 -122.58984,121.4375 -67.83594,0 -122.58985,-54.78906 -122.58985,-122.66406 z m 0,0"
     id="path6" />
</svg>
