<?xml version="1.0" encoding="UTF-8" standalone="no"?>
<!-- Created with Inkscape (http://www.inkscape.org/) -->

<svg
   width="1000"
   height="1000"
   version="1.1"
   id="svg8"
   xmlns="http://www.w3.org/2000/svg"
   xmlns:svg="http://www.w3.org/2000/svg"
   xmlns:rdf="http://www.w3.org/1999/02/22-rdf-syntax-ns#"
   xmlns:cc="http://creativecommons.org/ns#"
   xmlns:dc="http://purl.org/dc/elements/1.1/">
  <defs
     id="defs5498" />
  <metadata
     id="metadata5594">
    <rdf:RDF>
      <cc:Work
         rdf:about="">
        <dc:format>image/svg+xml</dc:format>
        <dc:type
           rdf:resource="http://purl.org/dc/dcmitype/StillImage" />
      </cc:Work>
    </rdf:RDF>
  </metadata>
  <path
     style="fill:#000000;fill-opacity:1;fill-rule:nonzero;stroke:none"
     d="m 811.5,500 c 0,-19.05078 -15.46094,-34.58594 -34.60938,-34.58594 H 707.66797 V 396.23828 H 569.22266 c -19.0625,0 -34.61329,-15.53906 -34.61329,-34.58984 0,-19.05078 15.46094,-34.58594 34.61329,-34.58594 H 707.66797 V 292.47266 H 569.22266 c -19.0625,0 -34.61329,-15.53907 -34.61329,-34.58594 0,-19.05078 15.46094,-34.58985 34.61329,-34.58985 H 704.50391 C 687.90234,125.32813 602.69141,50.359377 500,50.359377 c -102.69141,0 -187.98828,74.968753 -204.50391,172.937493 h 135.28125 c 19.0625,0 34.61328,15.45313 34.61328,34.58985 0,19.04687 -15.46093,34.58594 -34.61328,34.58594 H 292.33203 v 34.58984 h 138.44531 c 19.0625,0 34.61328,15.44922 34.61328,34.58594 0,19.13672 -15.46093,34.58984 -34.61328,34.58984 H 292.33203 v 69.17578 H 223.10937 C 204.04687,465.41406 188.5,480.94922 188.5,500 c 0,159.94531 121.40234,291.97656 276.89062,309.26953 v 71.19531 H 361.55469 c -19.0625,0 -34.60938,15.53907 -34.60938,34.58985 0,19.04687 15.54688,34.58593 34.60938,34.58593 h 276.89062 c 19.0625,0 34.60938,-15.44921 34.60938,-34.58593 0,-19.14063 -15.54688,-34.58985 -34.60938,-34.58985 H 534.60937 V 809.26953 C 690.09766,791.97656 811.5,659.94531 811.5,500 Z m -106.99609,34.58594 h 34.96093 c -15.28515,105.78515 -99,189.53125 -204.85547,204.71875 v -34.9375 c 86.79297,-14.57422 155.3125,-83.04688 169.89454,-169.78125 z m -443.96875,0 h 34.96093 c 14.66797,86.73437 83.1875,155.20703 169.89453,169.78125 v 34.9375 C 359.53516,724.11719 275.73047,640.37109 260.53516,534.58594 Z m 0,0"
     id="path6" />
</svg>
