<?xml version="1.0" encoding="UTF-8" standalone="no"?>
<!-- Created with Inkscape (http://www.inkscape.org/) -->

<svg
   width="1000"
   height="1000"
   version="1.1"
   id="svg8"
   xmlns="http://www.w3.org/2000/svg"
   xmlns:svg="http://www.w3.org/2000/svg"
   xmlns:rdf="http://www.w3.org/1999/02/22-rdf-syntax-ns#"
   xmlns:cc="http://creativecommons.org/ns#"
   xmlns:dc="http://purl.org/dc/elements/1.1/">
  <defs
     id="defs5498" />
  <metadata
     id="metadata5594">
    <rdf:RDF>
      <cc:Work
         rdf:about="">
        <dc:format>image/svg+xml</dc:format>
        <dc:type
           rdf:resource="http://purl.org/dc/dcmitype/StillImage" />
      </cc:Work>
    </rdf:RDF>
  </metadata>
  <path
     style="fill:#000000;fill-opacity:1;fill-rule:nonzero;stroke:none"
     d="M 904.94531,319.99219 H 679.92187 l 0.0859,-90.02735 c 99.01957,0 179.96489,-81.03125 179.96489,-179.96484 H 364.96094 c 0,99.01953 81.03125,179.96484 179.96484,179.96484 v 90.02735 H 319.99219 c -26.98438,0 -44.97266,17.98828 -44.97266,44.96875 V 499.95703 H 140.02734 V 454.98828 H 50 v 360.01563 h 90.02734 v -45.05469 h 134.99219 v 134.99609 c 0,26.98047 17.98828,44.96875 44.97266,44.96875 L 904.94531,950 c 26.98047,0 44.96875,-17.98828 44.96875,-44.96875 L 950,364.96094 c 0,-26.98047 -22.52734,-44.96875 -45.05469,-44.96875 z m -134.99609,90.02343 c 22.52734,0 44.96875,17.98829 44.96875,44.97266 0,22.52734 -17.98828,44.96875 -44.96875,44.96875 -22.52735,0 -44.97266,-17.98828 -44.97266,-44.96875 0,-26.98437 17.98828,-44.97266 44.97266,-44.97266 z m 0,314.96485 c -49.51172,0 -90.02735,-40.51563 -90.02735,-90.02735 0,-49.51171 40.51563,-90.02734 90.02735,-90.02734 49.50781,0 90.02344,40.51563 90.02344,90.02734 0,49.51172 -40.51563,90.02735 -90.02344,90.02735 z m 0,0"
     id="path6" />
</svg>
