<?xml version="1.0" encoding="UTF-8" standalone="no"?>
<!-- Created with Inkscape (http://www.inkscape.org/) -->

<svg
   width="1000"
   height="1000"
   version="1.1"
   id="svg8"
   xmlns="http://www.w3.org/2000/svg"
   xmlns:svg="http://www.w3.org/2000/svg"
   xmlns:rdf="http://www.w3.org/1999/02/22-rdf-syntax-ns#"
   xmlns:cc="http://creativecommons.org/ns#"
   xmlns:dc="http://purl.org/dc/elements/1.1/">
  <defs
     id="defs5498" />
  <metadata
     id="metadata5594">
    <rdf:RDF>
      <cc:Work
         rdf:about="">
        <dc:format>image/svg+xml</dc:format>
        <dc:type
           rdf:resource="http://purl.org/dc/dcmitype/StillImage" />
      </cc:Work>
    </rdf:RDF>
  </metadata>
  <path
     style="fill:#000000;fill-opacity:1;fill-rule:nonzero;stroke:none;stroke-width:1.00111"
     d="m 500,618.42064 c 78.70073,0 141.75517,-63.47287 141.75517,-142.1032 l 0.47317,-284.21032 C 642.22834,113.47287 578.70073,50 500,50 421.29927,50 357.77166,113.47287 357.77166,192.10712 v 284.21032 c 0,78.63033 63.52761,142.1032 142.22834,142.1032 z m 251.27138,-142.1032 c 0,142.1032 -120.41896,241.577 -251.27138,241.577 -130.85242,0 -251.27138,-99.4738 -251.27138,-241.577 h -80.59736 c 0,161.52322 128.95578,295.10523 284.46059,318.31462 V 950 h 94.8163 V 794.63206 C 702.91296,771.89586 831.86874,638.31384 831.86874,476.31744 Z m 0,0"
     id="path6" />
</svg>
