<?xml version="1.0" encoding="UTF-8" standalone="no"?>
<!-- Created with Inkscape (http://www.inkscape.org/) -->

<svg
   width="1000"
   height="1000"
   version="1.1"
   id="svg8"
   xmlns="http://www.w3.org/2000/svg"
   xmlns:svg="http://www.w3.org/2000/svg"
   xmlns:rdf="http://www.w3.org/1999/02/22-rdf-syntax-ns#"
   xmlns:cc="http://creativecommons.org/ns#"
   xmlns:dc="http://purl.org/dc/elements/1.1/">
  <defs
     id="defs5498" />
  <metadata
     id="metadata5594">
    <rdf:RDF>
      <cc:Work
         rdf:about="">
        <dc:format>image/svg+xml</dc:format>
        <dc:type
           rdf:resource="http://purl.org/dc/dcmitype/StillImage" />
      </cc:Work>
    </rdf:RDF>
  </metadata>
  <path
     style="fill:#000000;fill-opacity:1;fill-rule:nonzero;stroke:none"
     d="M 779,388.625 627.875,237.5 H 462.5 v 75 h 134.625 l 75,75 H 237.5 C 132.5,387.5 50,470 50,575 c 0,105 82.5,187.5 187.5,187.5 92.25,0 166.875,-63.375 183.75,-150 h 61.875 L 587,508.625 c -7.875,20.25 -12,42.75 -12,66.375 0,105 82.5,187.5 187.5,187.5 C 867.5,762.5 950,680 950,575 950,475.625 876.125,396.125 779,388.625 Z M 343.25,612.5 c -15.75,43.125 -57.75,75 -105.75,75 C 176.375,687.5 125,636.125 125,575 c 0,-61.125 51.375,-112.5 112.5,-112.5 48,0 90,31.875 105.75,75 H 237.5 v 75 z m 419.25,75 C 700.25,687.5 650,637.25 650,575 c 0,-62.25 50.25,-112.5 112.5,-112.5 62.25,0 112.5,50.25 112.5,112.5 0,62.25 -50.25,112.5 -112.5,112.5 z m 0,0"
     id="path6" />
</svg>
