<?xml version="1.0" encoding="UTF-8" standalone="no"?>
<!-- Created with Inkscape (http://www.inkscape.org/) -->

<svg
   width="1000"
   height="1000"
   version="1.1"
   id="svg28"
   xmlns="http://www.w3.org/2000/svg"
   xmlns:svg="http://www.w3.org/2000/svg"
   xmlns:rdf="http://www.w3.org/1999/02/22-rdf-syntax-ns#"
   xmlns:cc="http://creativecommons.org/ns#"
   xmlns:dc="http://purl.org/dc/elements/1.1/">
  <defs
     id="defs5498" />
  <metadata
     id="metadata5594">
    <rdf:RDF>
      <cc:Work
         rdf:about="">
        <dc:format>image/svg+xml</dc:format>
        <dc:type
           rdf:resource="http://purl.org/dc/dcmitype/StillImage" />
      </cc:Work>
    </rdf:RDF>
  </metadata>
  <path
     style="fill:#000000;fill-opacity:1;fill-rule:nonzero;stroke:none"
     d="M 64.527344,268.53516 V 713.51172 H 935.55469 V 268.53516 Z m 705.742186,60.46875 h 104.45313 v 98.41015 H 770.26953 Z m 52.1875,201.0664 c 22.42188,0 40.60547,18.19922 40.60547,40.63672 0,22.44141 -18.18359,40.64063 -40.60547,40.64063 -22.42578,0 -40.60937,-18.19922 -40.60937,-40.64063 0.082,-22.51953 18.18359,-40.63672 40.60937,-40.63672 z m -25.03516,-49.37109 c 0,-14.11719 11.41797,-25.53906 25.52344,-25.53906 14.10547,0 25.52344,11.42187 25.52344,25.53906 0,14.11719 -11.41797,25.54297 -25.52344,25.54297 -14.10547,0 -25.52344,-11.42578 -25.52344,-25.54297 z M 686.6875,650.02734 H 156.75 C 109.45703,522.48047 144.84766,329.00391 144.84766,329.00391 h 541.92187 c 48.19141,142.96484 -0.082,321.02343 -0.082,321.02343 z m 182.00391,22.11328 h -93.36719 c -12.47656,0 -22.58594,-10.12109 -22.58594,-22.60546 0,-6.28125 2.52734,-11.91407 6.60547,-15.99219 4.07812,-4.08203 9.70312,-6.60938 15.98047,-6.60938 h 93.36719 c 12.47656,0 22.58593,10.11719 22.58593,22.60157 0,12.48437 -10.10937,22.60546 -22.58593,22.60546 z m 0,0"
     id="path6" />
  <path
     style="fill:#000000;fill-opacity:1;fill-rule:nonzero;stroke:none"
     d="m 868.69141,658.10547 c -24.95313,0 -49.90625,0 -74.85547,0 -5.13672,0 -10.35547,0 -15.49219,0 -0.98047,0 -1.87891,0 -2.85547,0 -3.91406,0 1.79297,0.65234 -1.79297,-0.16406 -0.41015,-0.082 -4.16015,-1.63282 -1.55078,-0.41016 -0.73437,-0.40625 -1.55078,-0.8125 -2.20312,-1.30469 1.14453,0.89844 1.0625,0.89844 -0.16016,-0.16406 -0.32813,-0.24219 -2.77344,-3.34375 -1.14063,-1.05859 -0.16406,-0.2461 -2.03906,-3.91797 -0.89843,-1.22657 -0.48828,-1.22265 -0.73438,-2.52734 -1.0586,-3.83203 0.65235,2.9375 0.16016,-1.55078 0.16016,-1.8789 -0.082,2.36718 0.65234,-2.03907 0.73437,-2.1211 -0.65234,2.20313 1.14063,-1.71484 1.22266,-1.875 -1.22266,1.95703 1.55078,-1.39062 1.63281,-1.46875 -1.875,1.71094 3.66797,-1.71484 1.30469,-0.73437 0.082,0 4.56641,-0.89844 2.11719,-0.73438 0.49219,-0.082 1.0625,-0.082 1.63281,-0.082 0.24609,0 0.57031,0 0.81641,0 1.6289,0 3.17968,0 4.80859,0 23.32031,0 46.64453,0 69.96484,0 6.35938,0 12.71875,-0.16406 19.07813,0.082 -3.09766,-0.082 4.56641,1.79297 1.79687,0.48828 0.73438,0.40625 1.54688,0.81641 2.19922,1.30469 -2.28125,-1.46875 0.73438,0.81641 1.0625,1.14453 1.0586,1.22266 1.14063,1.30469 0.16016,0.16016 0.16406,0.24609 2.03906,3.91797 0.89844,1.22656 0.32812,0.81641 0.57031,1.62891 0.73437,2.52734 1.0586,3.83594 0,-2.44531 0.16406,1.63282 -0.082,1.71484 -0.082,1.79687 0.16016,0.32812 -0.16016,1.30469 -0.65234,2.60938 -1.05859,3.83203 0.57031,-1.38672 0.48828,-1.30468 -0.2461,0.16407 -1.875,3.42968 1.71485,-1.63282 -0.89453,1.30468 -0.57031,0.65625 -1.22265,1.22657 -1.875,1.79688 2.11719,-1.875 -1.0625,0.48828 -1.46875,0.65234 2.44531,-1.30469 -1.05859,0.2461 -1.55078,0.41016 -3.75,0.89453 2.52734,-0.16406 -1.54687,0 -7.66797,0.24219 -14.02735,6.19922 -14.02735,14.03515 0,7.50782 6.35938,14.28125 14.02735,14.03516 15.57421,-0.48828 28.375,-9.46484 34.24609,-23.82812 5.46484,-13.46485 1.30469,-29.13282 -8.80469,-39.25 -10.92969,-10.9336 -25.19922,-10.28125 -39.30469,-10.28125 -26.33984,0 -52.67578,0 -79.01562,0 -13.125,0 -23.80859,6.52734 -31.39063,16.97265 -9.3789,12.97266 -6.60546,31.33594 2.85157,43.25 10.19531,12.8086 25.03515,13.13672 39.71093,13.13672 26.82813,0 53.73829,0 80.5625,0 0.41016,0 0.73438,0 1.14454,0 7.66406,0 14.02343,-6.36719 14.02343,-14.03516 0.082,-7.67187 -6.35937,-14.03515 -14.02343,-14.03515 z m 0,0"
     id="path8" />
  <path
     style="fill:#000000;fill-opacity:1;fill-rule:nonzero;stroke:none"
     d="m 686.6875,635.98828 c -28.12891,0 -56.17969,0 -84.3125,0 -61.5625,0 -123.12891,0 -184.69141,0 -60.91015,0 -121.74218,0 -182.65234,0 -26.09375,0 -52.26953,0 -78.36328,0 4.48437,3.42969 9.05078,6.85547 13.53906,10.36328 -8.15625,-22.19531 -13.62109,-45.20703 -17.37109,-68.54297 -1.875,-11.50781 -2.9336,-20.89062 -4.15625,-33.86718 -1.0625,-11.9961 -1.79688,-24.07032 -2.20313,-36.14844 -1.46875,-42.10547 0.65235,-84.29688 5.05469,-126.15625 0.73438,-7.17969 1.63281,-14.36328 2.52734,-21.54297 0.16407,-1.22656 0.89844,-6.77344 0.2461,-1.63281 0.16406,-1.38672 0.40625,-2.85547 0.57031,-4.24219 0.32813,-2.44922 0.73438,-4.98047 1.05859,-7.42578 0.73438,-4.65235 1.38672,-9.30469 2.28516,-13.95313 -4.48437,3.42578 -9.05078,6.85157 -13.53516,10.36328 27.5586,0 55.20313,0 82.76563,0 61.07422,0 122.0664,0 183.14062,0 61.89063,0 123.69922,0 185.58985,0 30.08593,0 60.09375,0 90.18359,0 0.082,0 0.16406,0 0.24609,0 -4.48437,-3.42968 -9.05078,-6.85546 -13.53906,-10.36328 17.125,51.2461 21.9375,102.89844 20.79297,156.83594 -0.48828,23.58594 -2.28125,47.16797 -5.05469,70.66797 -0.32422,2.53125 -0.65234,5.05859 -0.89453,7.58984 -0.082,0.48828 -0.57422,4.57032 -0.16406,1.14453 -0.16406,1.22266 -0.32813,2.36329 -0.48828,3.58985 -0.65235,4.97656 -1.46875,9.87109 -2.20313,14.85156 -1.30468,8.24219 -2.77343,16.40234 -4.32031,24.5625 -2.20312,11.50391 -4.56641,23.01172 -7.58594,34.26953 -4.72656,17.54688 22.34375,24.97266 27.07422,7.50781 5.30078,-19.66406 8.96875,-39.90234 12.14844,-59.97656 7.42187,-46.75781 11.17187,-94.16797 9.37891,-141.57812 -1.63282,-42.92578 -7.82813,-86.17188 -21.52735,-126.97266 -2.03906,-5.95703 -7.01562,-10.36328 -13.53906,-10.36328 -27.64063,0 -55.20313,0 -82.84375,0 -61.07422,0 -122.06641,0 -183.14453,0 -61.88672,0 -123.69531,0 -185.58594,0 -30.08984,0 -60.09765,0 -90.1875,0 -0.0781,0 -0.16016,0 -0.24219,0 -5.87109,0 -12.47656,4.24219 -13.53515,10.36328 -3.50782,19.25781 -5.8711,38.83985 -7.91016,58.26172 -4.40625,42.1875 -6.35937,84.70312 -4.8125,127.05469 1.79297,48.22656 7.82813,97.67968 24.625,143.1289 2.20313,5.95703 6.93359,10.36719 13.53516,10.36719 28.13281,0 56.18359,0 84.3164,0 61.5625,0 123.12891,0 184.69141,0 60.91016,0 121.74219,0 182.65234,0 26.09375,0 52.26953,0 78.36328,0 7.66407,0 14.02344,-6.36719 14.02344,-14.03906 0.16406,-7.75 -6.27734,-14.11719 -13.94531,-14.11719 z m 0,0"
     id="path10" />
  <path
     style="fill:#000000;fill-opacity:1;fill-rule:nonzero;stroke:none"
     d="m 811.53125,480.69922 c 0.0781,-4.40625 -0.73438,2.44922 0.0781,-1.71094 0.082,-0.24609 1.38672,-4.32422 0.2461,-1.71484 0.48828,-1.22266 1.22265,-2.36719 1.875,-3.42578 -1.38672,2.28515 0.8164,-0.89844 1.14062,-1.22657 0.2461,-0.24218 3.42578,-2.6914 1.22657,-1.14062 1.05859,-0.73438 2.28125,-1.30469 3.42187,-1.87891 -2.52734,1.22656 1.38672,-0.16015 1.71484,-0.24219 3.9961,-0.98046 -2.44921,0 1.71094,-0.082 4.16016,-0.082 -2.28125,-0.65234 1.71094,0.082 0.24609,0.082 4.32422,1.38672 1.71484,0.24219 1.22266,0.49219 2.36328,1.22656 3.42188,1.87891 -2.28125,-1.38672 0.89844,0.8164 1.22656,1.14062 0.24219,0.2461 2.6875,3.42969 1.14063,1.22657 0.73437,1.05859 1.30468,2.28515 1.875,3.42578 -1.22266,-2.53125 0.16406,1.38672 0.24609,1.71484 0.97656,3.99609 0,-2.44922 0.0781,1.71094 0.082,4.16406 0.65235,-2.28125 -0.0781,1.71484 -0.082,0.2461 -1.38672,4.32422 -0.24609,1.71485 -0.48829,1.22265 -1.22266,2.36718 -1.875,3.42578 1.38671,-2.28516 -0.81641,0.89843 -1.14063,1.22656 -0.24609,0.24219 -3.42578,2.69141 -1.22656,1.14062 -1.0586,0.73438 -2.28125,1.30469 -3.42188,1.87891 2.52735,-1.22656 -1.38672,0.16016 -1.71484,0.24219 -3.99219,0.98047 2.44922,0 -1.71094,0.082 -4.16015,0.082 2.28516,0.65234 -1.71094,-0.082 -0.24609,-0.082 -4.32421,-1.38672 -1.71484,-0.24219 -1.22266,-0.49219 -2.36328,-1.22656 -3.42187,-1.87891 2.28125,1.38672 -0.89844,-0.8164 -1.22657,-1.14062 -0.24218,-0.24609 -2.6875,-3.42969 -1.14062,-1.22656 -0.73438,-1.0586 -1.30469,-2.28516 -1.875,-3.42578 1.22265,2.52734 -0.16406,-1.38672 -0.2461,-1.71485 -0.97656,-3.91797 0,2.53125 -0.0781,-1.71484 -0.24609,-7.66797 -6.19922,-14.03516 -14.02734,-14.03516 -7.5,0 -14.26954,6.36719 -14.02344,14.03516 0.57031,21.95312 17.61328,39.00781 39.54687,39.57812 21.9336,0.57032 38.97657,-18.52343 39.54688,-39.57812 0.57031,-21.94922 -18.50781,-39.00391 -39.54688,-39.57422 -21.93359,-0.57031 -38.97656,18.52344 -39.54687,39.57422 -0.2461,7.67187 6.52344,14.03906 14.02344,14.03906 7.74609,0.0781 13.78125,-6.36719 14.02734,-14.03906 z m 0,0"
     id="path12" />
  <path
     style="fill:#000000;fill-opacity:1;fill-rule:nonzero;stroke:none"
     d="m 822.45703,544.10547 c 0.89453,0 1.875,0 2.77344,0.082 4.32031,0.24609 -2.53125,-0.57031 1.6289,0.24609 2.20313,0.40625 4.32032,1.14063 6.35938,1.875 -1.30469,-0.57031 -1.22266,-0.48828 0.24609,0.16407 1.14063,0.57031 2.28125,1.22265 3.42578,1.95703 0.24219,0.16406 3.58594,2.61328 1.38282,0.8164 0.98047,0.81641 1.95703,1.71485 2.85547,2.61328 0.65234,0.65235 1.22265,1.22266 1.79296,1.875 2.77344,3.10157 -1.38671,-2.12109 0.98047,1.30469 1.22266,1.79688 2.28125,3.75391 3.17969,5.71485 -0.57031,-1.3086 -0.48828,-1.22657 0.082,0.32421 0.48828,1.22657 0.81641,2.53125 1.14063,3.83594 0.082,0.2461 0.73437,4.57031 0.40625,1.63281 0.16406,1.38672 0.16406,2.77344 0.24609,4.16016 0,0.89844 0,1.87891 -0.082,2.77734 -0.24219,4.32422 0.57031,-2.53125 -0.24219,1.62891 -0.41015,2.20313 -1.14453,4.32813 -1.8789,6.36719 0.57421,-1.30469 0.49218,-1.22656 -0.16016,0.24219 -0.57031,1.14453 -1.22266,2.28515 -1.95703,3.42968 -0.16406,0.2461 -2.60938,3.58985 -0.81641,1.38672 -0.8164,0.98047 -1.71094,1.95703 -2.60937,2.85547 -0.65235,0.65234 -1.22266,1.22656 -1.875,1.79688 -3.09766,2.77343 2.12109,-1.38672 -1.30469,0.97656 -1.79297,1.22656 -3.75,2.28515 -5.70703,3.18359 1.30469,-0.57031 1.22265,-0.48828 -0.32813,0.082 -1.22265,0.48828 -2.52734,0.81641 -3.83203,1.14063 -0.24609,0.082 -4.5664,0.73437 -1.63281,0.41015 -1.38281,0.16407 -2.76953,0.16407 -4.15625,0.2461 -14.67969,0.24219 -26.25781,-12.24219 -26.5,-26.52344 -0.16406,-14.76953 12.3125,-26.35547 26.58203,-26.60156 7.66406,-0.16406 14.02344,-6.28125 14.02344,-14.03516 0,-7.58984 -6.35938,-14.19922 -14.02344,-14.03515 -28.13281,0.48828 -50.96484,21.29687 -54.30859,49.125 -3.17969,26.76562 15.33203,51.98046 41.01562,58.58984 13.45703,3.42578 27.48047,1.14062 39.62891,-5.22266 11.98828,-6.28515 20.05859,-17.30078 25.03515,-29.53906 10.02735,-24.89062 -3.09765,-54.67578 -26.17578,-66.75 -7.82812,-4.08203 -16.47265,-6.03906 -25.27734,-6.20312 -7.66406,-0.16407 -14.02734,6.52734 -14.02734,14.03515 0.082,7.75391 6.44531,13.8711 14.10937,14.03516 z m 0,0"
     id="path14" />
  <path
     style="fill:#000000;fill-opacity:1;fill-rule:nonzero;stroke:none"
     d="m 770.26953,343.03906 c 34.81641,0 69.63672,0 104.45313,0 -4.64454,-4.65234 -9.375,-9.38672 -14.02344,-14.03515 0,32.80468 0,65.60546 0,98.41015 4.64844,-4.65234 9.3789,-9.38281 14.02344,-14.03515 -34.81641,0 -69.63672,0 -104.45313,0 4.64844,4.65234 9.37891,9.38281 14.02344,14.03515 0,-32.80469 0,-65.60547 0,-98.41015 0,-7.67188 -6.35938,-14.03516 -14.02344,-14.03516 -7.66406,0 -14.02344,6.36328 -14.02344,14.03516 0,32.80468 0,65.60546 0,98.41015 0,7.67188 6.35938,14.03516 14.02344,14.03516 34.81641,0 69.63672,0 104.45313,0 7.66796,0 14.02734,-6.36328 14.02734,-14.03516 0,-32.80469 0,-65.60547 0,-98.41015 0,-7.67188 -6.35938,-14.03516 -14.02734,-14.03516 -34.81641,0 -69.63672,0 -104.45313,0 -7.66406,0 -14.02344,6.36328 -14.02344,14.03516 0,7.66796 6.35938,14.03515 14.02344,14.03515 z m 0,0"
     id="path16" />
  <path
     style="fill:#000000;fill-opacity:1;fill-rule:nonzero;stroke:none"
     d="m 50.503906,268.53516 c 0,32.15234 0,64.38281 0,96.53515 0,64.22266 0,128.52344 0,192.7461 0,47.89843 0,95.80078 0,143.69921 0,4 0,7.91797 0,11.91407 0,7.67187 6.359375,14.03515 14.023438,14.03515 18.429687,0 36.855466,0 55.367186,0 46.88672,0 93.85547,0 140.73828,0 62.78906,0 125.57422,0 188.28125,0 65.96875,0 132.01563,0 197.98438,0 56.58984,0 113.17968,0 169.76953,0 34.57422,0 69.0625,0 103.63672,0 5.05859,0 10.11328,0 15.16797,0 7.66406,0 14.02343,-6.36328 14.02343,-14.03515 0,-32.15235 0,-64.38282 0,-96.53516 0,-64.21875 0,-128.52344 0,-192.74219 0,-47.90234 0,-95.80078 0,-143.70312 0,-4 0,-7.91406 0,-11.91406 0,-7.67188 -6.35937,-14.03516 -14.02343,-14.03516 -18.42969,0 -36.85547,0 -55.36719,0 -46.88672,0 -93.85547,0 -140.73828,0 -62.78907,0 -125.57422,0 -188.28125,0 -65.96875,0 -132.01563,0 -197.98438,0 -56.58984,0 -113.17969,0 -169.76953,0 -34.57422,0 -69.0625,0 -103.636718,0 -5.058593,0 -10.113281,0 -15.167968,0 -7.664063,0 -14.023438,6.36328 -14.023438,14.03516 0,7.67187 6.359375,14.03515 14.023438,14.03515 18.429687,0 36.855466,0 55.367186,0 46.88672,0 93.85547,0 140.73828,0 62.78906,0 125.57422,0 188.28125,0 65.96875,0 132.01563,0 197.98438,0 56.58984,0 113.17968,0 169.76953,0 34.57422,0 69.0625,0 103.63672,0 5.05859,0 10.11328,0 15.16797,0 -4.64844,-4.65234 -9.37891,-9.38281 -14.02344,-14.03515 0,32.15234 0,64.38281 0,96.53515 0,64.22266 0,128.52344 0,192.7461 0,47.89843 0,95.80078 0,143.69921 0,4 0,7.91797 0,11.91407 4.64453,-4.65235 9.375,-9.38282 14.02344,-14.03516 -18.42969,0 -36.85547,0 -55.36719,0 -46.88672,0 -93.85547,0 -140.73828,0 -62.78907,0 -125.57422,0 -188.28125,0 -65.96875,0 -132.01563,0 -197.98438,0 -56.58984,0 -113.17969,0 -169.76953,0 -34.57422,0 -69.0625,0 -103.636718,0 -5.058593,0 -10.113281,0 -15.167968,0 4.648437,4.65234 9.378906,9.38281 14.023437,14.03516 0,-32.15235 0,-64.38282 0,-96.53516 0,-64.21875 0,-128.52344 0,-192.74219 0,-47.90234 0,-95.80078 0,-143.70312 0,-4 0,-7.91406 0,-11.91406 0,-7.67188 -6.359375,-14.03516 -14.023437,-14.03516 -7.664063,0 -14.023438,6.36328 -14.023438,14.03516 z m 0,0"
     id="path18" />
  <path
     style="fill:#000000;fill-opacity:1;fill-rule:nonzero;stroke:none"
     d="m 137.67187,713.51172 h 23.64454 v 17.95312 h -23.64454 z m 0,0"
     id="path20" />
  <path
     style="fill:#000000;fill-opacity:1;fill-rule:nonzero;stroke:none"
     d="m 161.31641,699.47656 c -7.91016,0 -15.73829,0 -23.64454,0 -7.66796,0 -14.02734,6.36328 -14.02734,14.03516 0,5.95703 0,11.91406 0,17.95312 0,7.67188 6.35938,14.03516 14.02734,14.03516 7.90625,0 15.73438,0 23.64454,0 7.66406,0 14.02734,-6.36328 14.02734,-14.03516 0,-5.95703 0,-11.91406 0,-17.95312 0,-18.11719 -28.13281,-18.11719 -28.13281,0 0,5.95703 0,11.91406 0,17.95312 4.64844,-4.65234 9.375,-9.38281 14.02344,-14.03515 -7.91016,0 -15.73829,0 -23.64454,0 4.64844,4.65234 9.375,9.38281 14.02344,14.03515 0,-5.95703 0,-11.91406 0,-17.95312 -4.64844,4.65234 -9.375,9.38281 -14.02344,14.03515 7.90625,0 15.73438,0 23.64454,0 18.18359,0 18.18359,-28.07031 0.082,-28.07031 z m 0,0"
     id="path22" />
  <path
     style="fill:#000000;fill-opacity:1;fill-rule:nonzero;stroke:none"
     d="m 832.89453,713.51172 h 23.07422 v 17.95312 h -23.07422 z m 0,0"
     id="path24" />
  <path
     style="fill:#000000;fill-opacity:1;fill-rule:nonzero;stroke:none"
     d="m 855.96875,699.47656 c -7.66406,0 -15.41016,0 -23.07422,0 -7.66406,0 -14.02734,6.36328 -14.02734,14.03516 0,5.95703 0,11.91406 0,17.95312 0,7.67188 6.36328,14.03516 14.02734,14.03516 7.66406,0 15.41016,0 23.07422,0 7.66406,0 14.02734,-6.36328 14.02734,-14.03516 0,-5.95703 0,-11.91406 0,-17.95312 0,-18.11719 -28.13281,-18.11719 -28.13281,0 0,5.95703 0,11.91406 0,17.95312 4.64844,-4.65234 9.37891,-9.38281 14.02344,-14.03515 -7.66406,0 -15.41016,0 -23.07422,0 4.64844,4.65234 9.375,9.38281 14.02344,14.03515 0,-5.95703 0,-11.91406 0,-17.95312 -4.64844,4.65234 -9.375,9.38281 -14.02344,14.03515 7.66406,0 15.41016,0 23.07422,0 18.26562,0 18.26562,-28.07031 0.082,-28.07031 z m 0,0"
     id="path26" />
</svg>
