<?xml version="1.0" encoding="UTF-8" standalone="no"?>
<!-- Created with Inkscape (http://www.inkscape.org/) -->

<svg
   width="1000"
   height="1000"
   version="1.1"
   id="svg8"
   xmlns="http://www.w3.org/2000/svg"
   xmlns:svg="http://www.w3.org/2000/svg"
   xmlns:rdf="http://www.w3.org/1999/02/22-rdf-syntax-ns#"
   xmlns:cc="http://creativecommons.org/ns#"
   xmlns:dc="http://purl.org/dc/elements/1.1/">
  <defs
     id="defs5498" />
  <metadata
     id="metadata5594">
    <rdf:RDF>
      <cc:Work
         rdf:about="">
        <dc:format>image/svg+xml</dc:format>
        <dc:type
           rdf:resource="http://purl.org/dc/dcmitype/StillImage" />
      </cc:Work>
    </rdf:RDF>
  </metadata>
  <path
     id="path6"
     style="fill:#000000;fill-opacity:0.8904379;fill-rule:nonzero;stroke:none;stroke-width:1.00111"
     d="M 500 50 C 421.29927 50 357.77148 113.47317 357.77148 192.10742 L 357.77148 200.78906 L 641.38281 484.40039 C 641.53367 481.71296 641.75586 479.04533 641.75586 476.31836 L 642.22852 192.10742 C 642.22852 113.47317 578.70073 50 500 50 z M 133.6543 97.355469 L 73.482422 157.52734 L 357.77148 441.81641 L 357.77148 476.31836 C 357.77148 554.94869 421.29927 618.41992 500 618.41992 C 510.64449 618.41992 520.96713 617.16951 530.92188 614.9668 L 609.45312 693.49805 C 575.67331 709.14542 538.33689 717.89453 500 717.89453 C 369.14758 717.89453 248.72852 618.42156 248.72852 476.31836 L 168.13086 476.31836 C 168.13086 637.84158 297.08699 771.42342 452.5918 794.63281 L 452.5918 950 L 547.4082 950 L 547.4082 794.63281 C 590.37783 788.35027 631.29998 773.57015 668.05469 752.09961 L 866.12695 950.17188 L 926.29883 890 L 736.17383 699.875 L 680.8125 644.51367 L 606.45312 570.1543 L 357.77148 321.47266 L 133.6543 97.355469 z M 751.27148 476.31836 C 751.27148 511.66752 743.67174 544.28163 730.45117 573.46875 L 788.98438 632.00195 C 816.06581 585.89392 831.86914 532.86763 831.86914 476.31836 L 751.27148 476.31836 z " />
</svg>
