<?xml version="1.0" encoding="UTF-8" standalone="no"?>
<!-- Created with Inkscape (http://www.inkscape.org/) -->

<svg
   width="1000"
   height="1000"
   version="1.1"
   id="svg30"
   xmlns="http://www.w3.org/2000/svg"
   xmlns:svg="http://www.w3.org/2000/svg"
   xmlns:rdf="http://www.w3.org/1999/02/22-rdf-syntax-ns#"
   xmlns:cc="http://creativecommons.org/ns#"
   xmlns:dc="http://purl.org/dc/elements/1.1/">
  <defs
     id="defs5498" />
  <metadata
     id="metadata5594">
    <rdf:RDF>
      <cc:Work
         rdf:about="">
        <dc:format>image/svg+xml</dc:format>
        <dc:type
           rdf:resource="http://purl.org/dc/dcmitype/StillImage" />
      </cc:Work>
    </rdf:RDF>
  </metadata>
  <path
     style="fill:#000000;fill-opacity:1;fill-rule:nonzero;stroke:none"
     d="m 390.45765,907.12957 v 13.08984 c 0,9.01562 6.86719,16.4375 15.89453,16.4375 h 23.79688 c 9.02343,0 16.36718,-7.33984 16.36718,-16.4375 v -13.08984 z m -219.28125,0 v 13.08984 c 0,9.01562 7.26563,16.4375 16.28906,16.4375 h 23.79688 c 9.02344,0 15.97266,-7.33984 15.97266,-16.4375 v -13.08984 z m 466.03516,-57.94141 v 41.26172 H 760.10999 V 849.18816 Z M 889.95374,724.29363 v -97.12892 c 0,-27.53125 -22.03906,-50.1953 -49.58984,-50.1953 h -22.19922 v 49.16016 h 19.00781 c 11.09766,0 20.28125,8.45703 20.28125,19.55078 v 82.67968 c 0,3.99219 1.75782,7.58204 4.71094,10.21875 2.95703,2.63282 7.02735,4.22657 11.58203,4.22657 7.50391,0 13.73438,-4.38672 15.64844,-10.45313 0.48047,-2.63281 0.55859,-5.34765 0.55859,-8.05859 z M 579.2389,576.96941 v 125.61328 c 0,42.37891 21.16016,79.73047 53.02344,100.39844 h 133.83594 c 30.50781,-20.66797 52.0664,-59.0586 52.0664,-100.39844 V 576.96941 Z M 760.27015,481.67643 H 632.50062 c -54.22266,0 -54.22266,47.16798 -54.22266,47.16798 h 236.21485 c 0,-30.48828 -16.29297,-47.16797 -54.22266,-47.16798 z M 468.47718,166.27799 h -24.91406 v 54.03125 h 21.32031 c 12.53906,0 22.91797,10.61328 22.91797,23.14453 v 98.48047 c 0,4.55078 1.99609,8.6211 5.35156,11.57422 3.35547,2.95313 7.98438,4.78906 13.09766,4.78906 8.46484,0 15.33203,-5.03125 17.56641,-11.8125 0.48046,-2.95312 0.39843,-5.98437 0.39843,-9.09764 l -0.0781,-114.84375 c 0,-31.04297 -24.51563,-56.26563 -55.66016,-56.26563 z M 449.23109,526.528 c -6.06641,-32.39844 -33.21875,-50.75782 -66.35938,-50.75782 H 224.75843 c -33.14062,0 -61.80859,15.96484 -66.35937,50.75782 l -48.15235,320.98438 c 0,33.12108 26.83203,59.61719 59.96875,59.61719 H 446.6764 c 32.98047,0 59.73438,-26.57422 59.73438,-59.61719 z M 308.36781,817.74675 c -26.35157,0 -47.67578,-21.39062 -47.67578,-47.72656 0,-26.33594 21.32421,-47.72266 47.67578,-47.72266 26.35156,0 47.7539,21.38672 47.7539,47.72266 0,26.33594 -21.40234,47.72656 -47.7539,47.72656 z M 173.17249,166.27799 v 146.60938 c 0,47.88281 24.19532,89.9414 60.21094,114.04297 h 151.56641 c 34.49609,-24.33985 58.61328,-67.35938 58.61328,-114.04296 V 166.27799 Z M 380.63734,64.04753 H 236.1764 c -61.32812,0 -61.32812,52.11328 -61.32812,52.11328 h 267.11718 c 0,-35.355467 -18.44531,-52.11328 -61.32812,-52.11328 z m 0,0"
     id="path6" />
  <path
     style="fill:#000000;fill-opacity:1;fill-rule:nonzero;stroke:none"
     d="m 376.64515,907.61003 c 0,3.75 0,7.5 0,11.25 0,8.38282 2.71484,15.00391 7.82422,21.55079 8.06641,10.375 21.72266,9.57421 33.30078,9.57421 3.99219,0 7.98438,0 11.89844,0 8.38281,0 15.65234,-3.1914 21.8789,-8.69921 9.90235,-8.77735 8.94532,-21.86719 8.94532,-33.75782 0,-7.5 -6.23047,-13.72656 -13.73438,-13.72656 -18.76562,0 -37.61328,0 -56.3789,0 -7.50782,0.082 -13.73438,6.38672 -13.73438,13.80859 0,7.5 6.22656,13.72657 13.73438,13.72657 18.76562,0 37.61328,0 56.3789,0 -4.55469,-4.55078 -9.18359,-9.17969 -13.73828,-13.72657 0,3.03125 0,6.0625 0,9.01563 0,1.11719 0,2.31641 0,3.43359 0,1.51563 -0.39844,2.07421 0,0.32032 -0.47656,1.51562 -0.47656,1.59375 0,0.23828 -0.875,1.35547 -0.875,1.4375 0,0.32031 -2.23437,2.71094 1.91797,-0.87891 -1.11719,1.03516 -3.03515,1.91796 2.07813,-0.47657 -1.4375,0.55859 2.39844,-0.63672 -0.71875,0 -1.4375,0 -3.43359,0 -6.78515,0 -10.21875,0 -3.59375,0 -7.10937,0 -10.70312,0 -0.5586,0 -1.11719,0 -1.67578,0 -3.91407,0 2.15625,0.71875 -1.4375,-0.31641 1.35937,0.63671 1.27734,0.55859 -0.0781,-0.16016 1.11719,0.95704 1.11719,0.95704 -0.082,-0.16016 -2.55469,-2.39453 1.03906,1.91406 -0.71875,-1.19922 1.51953,2.79297 -0.16016,-2.3125 0.16016,0.80079 -0.16016,-1.35937 -0.0781,-2.71484 -0.0781,-4.07031 0,-3.27344 0,-6.54687 0,-9.89844 0,-7.5 -6.23047,-13.72656 -13.73828,-13.72656 -7.58594,0.082 -13.8125,6.38672 -13.8125,13.80859 z m 0,0"
     id="path8" />
  <path
     style="fill:#000000;fill-opacity:1;fill-rule:nonzero;stroke:none"
     d="m 157.28187,907.61003 c 0,3.75 0,7.5 0,11.25 0,8.38282 2.71484,15.16407 7.98437,21.55079 8.30469,10.21484 21.80079,9.57421 33.6211,9.57421 12.375,0 23.71484,0.40235 33.61719,-8.69921 9.66406,-8.85547 8.70312,-21.86719 8.70312,-33.75782 0,-7.5 -6.22656,-13.72656 -13.73437,-13.72656 -18.76563,0 -37.61329,0 -56.37891,0 -7.50391,0.082 -13.8125,6.38672 -13.8125,13.80859 0,7.5 6.22656,13.72657 13.73437,13.72657 18.76563,0 37.61329,0 56.37891,0 -4.55469,-4.55078 -9.18359,-9.17969 -13.73828,-13.72657 0,3.03125 0,6.0625 0,9.01563 0,1.11719 0,2.31641 0,3.43359 0,1.35546 -0.31641,2.15625 0,0.32032 -0.47656,1.51562 -0.47656,1.59375 0.082,0.23828 -0.87891,1.35547 -0.79688,1.4375 0.0781,0.32031 -0.39844,0.47655 -3.19141,2.55078 -0.95703,1.03516 -2.95313,1.99609 2.15625,-0.47657 -1.35547,0.55859 2.47266,-0.71875 -0.64063,0 -1.4375,0 -3.43359,0 -6.78906,0 -10.22266,0 -3.59375,0 -7.10937,0 -10.70312,0 -0.5586,0 -1.11719,0 -1.67578,0 -3.91407,0 2.15625,0.71875 -1.51563,-0.31641 2.79297,0.79688 -2.55469,-2.31641 -0.32031,-0.32031 -2.63672,-2.39453 0.95703,1.83594 -0.79688,-1.19922 1.51563,2.63672 -0.32031,-2.23437 0.0781,0.80078 -0.16015,-1.35937 -0.0781,-2.71484 -0.0781,-4.07031 0,-3.27344 0,-6.54687 0,-9.89844 0,-7.5 -6.23046,-13.72656 -13.73828,-13.72656 -7.5039,0.082 -13.8125,6.38672 -13.8125,13.80859 z m 0,0"
     id="path10" />
  <path
     style="fill:#000000;fill-opacity:1;fill-rule:nonzero;stroke:none"
     d="m 623.55921,849.27019 c 0,13.64844 0,27.29297 0,40.94141 0,7.5 6.22657,13.72656 13.73438,13.72656 40.96484,0 82.01172,0 122.97656,0 7.50781,0 13.73438,-6.22656 13.73438,-13.72656 0,-13.64844 0,-27.29297 0,-40.94141 0,-7.50391 -6.22657,-13.72656 -13.73438,-13.72656 -40.96484,0 -82.01172,0 -122.97656,0 -7.42578,0 -13.73438,6.22265 -13.73438,13.72656 0,7.5 6.22657,13.72656 13.73438,13.72656 40.96484,0 82.01172,0 122.97656,0 -4.55078,-4.55079 -9.18359,-9.17968 -13.73437,-13.72656 0,13.64844 0,27.29297 0,40.94141 4.55078,-4.55078 9.18359,-9.17969 13.73437,-13.72657 -40.96484,0 -82.01172,0 -122.97656,0 4.55078,4.54688 9.18359,9.17579 13.73437,13.72657 0,-13.64844 0,-27.29297 0,-40.94141 0,-7.50391 -6.23047,-13.72656 -13.73437,-13.72656 -7.50781,0 -13.73438,6.22265 -13.73438,13.72656 z m 0,0"
     id="path12" />
  <path
     style="fill:#000000;fill-opacity:1;fill-rule:nonzero;stroke:none"
     d="m 903.21156,724.29363 c 0,-24.1836 0,-48.36329 0,-72.54688 0,-8.61718 0.0781,-17.31641 0,-25.9375 -0.32032,-26.49609 -17.16797,-48.68359 -41.04688,-58.73829 -13.65234,-5.74608 -29.94531,-3.98828 -44.39844,-3.98828 -7.50781,0 -13.73437,6.22266 -13.73437,13.72656 0,16.35938 0,32.80078 0,49.16016 0,7.5 6.22656,13.72656 13.73437,13.72656 5.98829,0 11.97657,0 18.04688,0 0.95703,0 1.83594,0 2.79687,0.0781 -2.71484,-0.0781 1.19532,0.40234 1.59375,0.55859 -2.47265,-0.71484 1.03907,0.64063 1.4375,0.87891 -2.15625,-1.27735 0.87891,0.80078 1.19922,1.11718 -1.75781,-1.83593 0.5586,0.95704 0.80078,1.35938 -1.28125,-2.23438 0.23829,1.11719 0.39844,1.59375 -0.39844,-1.59375 -0.082,-1.11719 -0.082,0.39844 0,10.05859 0,20.11328 0,30.16797 0,14.68359 0,29.37109 0,44.05468 0,2.79297 0,5.58594 0,8.37891 0,17.07812 16.21094,29.92969 32.74219,28.01172 7.58594,-0.87891 14.77344,-3.91016 19.88281,-9.81641 5.58984,-6.54297 6.70703,-13.80469 6.62891,-22.18359 -0.0781,-7.50391 -6.23047,-13.73047 -13.73438,-13.73047 -7.42578,0 -13.8164,6.22656 -13.73437,13.73047 0,1.59375 0,3.26953 0,4.86719 0,5.02734 2.07422,-3.99219 0,-0.39844 1.4375,-2.47656 -1.83985,1.03515 0.39843,-0.48047 -2.875,1.99609 1.75782,-0.32031 -1.67578,0.71875 2.3125,-0.64063 -1.75781,0 -2.15625,-0.082 2.55469,0.082 -2.15625,-1.19531 0.23828,0 -3.11328,-1.51563 1.11719,1.51953 -1.59765,-1.11719 0.39844,0.32031 0.64062,0.71875 0.64062,1.19922 -0.40234,-1.59766 -0.48047,-1.83594 -0.16015,-0.64063 -0.16016,-2.79296 0,-5.58593 0,-8.3789 0,-14.6836 0,-29.36719 0,-44.05078 0,-10.0586 0,-20.11328 0,-30.16797 0,-14.28516 -9.50391,-26.65625 -22.76172,-31.44531 -7.58594,-2.79297 -16.21094,-1.9961 -24.11328,-1.9961 -2.31641,0 -4.55469,0 -6.86719,0 4.55078,4.55078 9.17969,9.17969 13.73437,13.72656 0,-16.35937 0,-32.80078 0,-49.16015 -4.55468,4.55078 -9.18359,9.17969 -13.73437,13.72656 6.06641,0 12.13672,0 18.20703,0 2.39453,0 4.78906,0 7.18359,0.082 0.24219,0 4.63282,0.5586 1.67969,0.0781 1.27735,0.23828 2.55469,0.48047 3.83203,0.79687 1.27735,0.32031 2.47657,0.71875 3.75391,1.11719 0.79687,0.32031 1.59766,0.55859 2.39453,0.87891 -1.35547,-0.5586 -1.27734,-0.47657 0.23828,0.23828 2.31641,1.11718 4.47266,2.47656 6.55078,3.99218 -2.3164,-1.59765 0.95703,0.87891 1.19532,1.03907 0.96093,0.79687 1.83984,1.7539 2.71484,2.63281 0.87891,0.875 1.75781,1.91406 2.55859,2.87109 -1.83984,-2.15234 0.71875,1.11719 0.87891,1.27735 1.67578,2.47265 3.11328,5.1875 4.30859,7.90234 -1.19531,-2.55469 0.40235,1.35547 0.48047,1.59375 0.39844,1.27734 0.71875,2.55469 1.03906,3.83203 0.32032,1.27735 0.5586,2.63281 0.79688,3.91016 -0.47656,-2.8711 0.082,1.4375 0.082,1.67578 0.0781,1.4375 0.0781,2.79297 0.0781,4.23047 0,26.65625 0,53.23047 0,79.88672 0,5.26953 0,10.45703 0,15.72265 0,7.5 6.23046,13.72657 13.73437,13.72657 7.50781,0 13.81641,-6.30469 13.81641,-13.80469 z m 0,0"
     id="path14" />
  <path
     style="fill:#000000;fill-opacity:1;fill-rule:nonzero;stroke:none"
     d="m 565.18421,576.88738 c 0,22.26562 0,44.53125 0,66.80078 0,14.52344 0,29.04687 0,43.49219 0,9.25781 -0.24218,18.59765 0.63672,27.77343 2.55469,27.05469 12.9375,51.79688 29.62891,73.10547 7.74609,9.97266 17.24609,18.27344 27.54687,25.61719 4.39453,3.11328 8.3086,3.51172 13.17969,3.51172 26.98828,0 53.90234,0 80.89063,0 13.09765,0 26.11328,0 39.1289,0 3.03516,0 6.07031,0 9.10547,0 9.42188,0 18.28516,-9.73828 24.75391,-15.96095 18.6875,-18.11719 31.78515,-42.21875 37.77343,-67.4375 3.11329,-13.16796 3.67188,-26.57812 3.67188,-39.98437 0,-39.02734 0,-77.97266 0,-116.99609 0,-7.50391 -6.22656,-13.72656 -13.73438,-13.72656 -45.51953,0 -91.03515,0 -136.47265,0 -34.09766,0 -68.19531,0 -102.29688,0 -7.58593,0 -13.8125,6.30469 -13.8125,13.80469 0,7.5039 6.22657,13.72656 13.73438,13.72656 45.51562,0 91.03515,0 136.47265,0 34.09766,0 68.19532,0 102.29688,0 -4.55469,-4.54687 -9.18359,-9.17578 -13.73828,-13.72656 0,22.26562 0,44.53125 0,66.80078 0,14.52344 0,29.04687 0,43.49219 0,9.25781 0.24219,18.59765 -0.63672,27.85547 -1.35938,13.88281 -6.94922,30.0039 -14.375,43.01562 -4.39063,7.73828 -7.90625,12.44922 -13.33594,18.51563 -2.55469,2.87109 -5.35156,5.58593 -8.14453,8.21875 -3.35547,3.11328 -5.82812,5.02734 -8.30469,6.78515 2.31641,-0.64062 4.62891,-1.27734 6.94532,-1.91797 -44.5586,0 -89.03907,0 -133.59766,0 -0.0781,0 -0.16016,0 -0.23828,0 2.3164,0.64063 4.63281,1.27735 6.94531,1.91797 -8.38281,-5.66797 -16.84766,-13.64844 -24.27344,-22.90625 1.4375,1.83594 -1.35937,-1.91406 -1.27734,-1.83594 -0.87891,-1.19531 -1.67969,-2.39453 -2.47656,-3.58984 -1.59766,-2.39453 -3.11328,-4.87109 -4.55078,-7.42187 -3.27735,-5.66797 -5.35157,-10.53516 -7.10938,-15.32422 -5.50781,-15.00391 -6.70703,-27.375 -6.70703,-42.9375 0,-27.92969 0,-55.78516 0,-83.71875 0,-12.36719 0,-24.73828 0,-37.02735 0,-7.5039 -6.23047,-13.72656 -13.73438,-13.72656 -7.66796,0 -13.89453,6.30469 -13.89453,13.80469 z m 0,0"
     id="path16" />
  <path
     style="fill:#000000;fill-opacity:1;fill-rule:nonzero;stroke:none"
     d="m 760.27015,467.87174 c -22.12109,0 -44.23828,0 -66.35937,0 -14.69532,0 -29.46875,0 -44.16016,0 -8.06641,0 -16.29297,-0.32031 -24.35547,0.32032 -21.64062,1.59375 -41.76562,11.41015 -52.625,30.72265 -4.95312,8.78125 -8.22656,19.71485 -8.30469,29.84767 0,7.50389 6.3086,13.73046 13.73438,13.73046 45.75781,0 91.43359,0 137.1914,0 32.98047,0 66.03907,0 99.01954,0 7.42968,0 13.8164,-6.22656 13.73828,-13.73046 -0.082,-16.35938 -4.39453,-32.87892 -16.61328,-44.44923 -13.49219,-13.01172 -33.13672,-16.36327 -51.26563,-16.44141 -7.50781,-0.082 -13.73437,6.30469 -13.73437,13.72657 0,7.5 6.22656,13.72656 13.73437,13.72656 3.83203,0 7.58594,0.16015 11.41797,0.55859 1.67969,0.16016 1.75781,0.16016 0.24219,0 0.79687,0.16016 1.67578,0.23828 2.47265,0.39844 1.9961,0.32031 3.91407,0.79687 5.83203,1.35547 1.4375,0.40234 2.875,0.8789 4.3125,1.35937 1.4375,0.5586 1.35547,0.47657 -0.32031,-0.16015 0.63672,0.32031 1.27735,0.55859 1.91797,0.8789 1.19531,0.5586 2.39453,1.27735 3.51172,1.99219 0.55859,0.32031 1.11719,0.71875 1.59766,1.11719 2.71484,1.91797 -2.23829,-1.91406 0.23828,0.24219 0.96093,0.79687 1.83593,1.7539 2.71484,2.63281 0.40234,0.48047 0.80078,0.95703 1.19922,1.4375 -1.19922,-1.59766 -1.35938,-1.75781 -0.48047,-0.5586 0.71875,1.03516 1.35938,2.15235 1.99609,3.19141 0.32032,0.55859 0.64063,1.11719 0.87891,1.67578 1.51953,3.03125 -1.03906,-2.875 0.16016,0.32031 1.11718,2.87111 1.83593,5.98438 2.3164,9.01563 0.23828,1.59766 0.23828,1.4375 0,-0.39844 0.0781,0.71875 0.16016,1.51563 0.23828,2.23438 0.16016,1.99609 0.24219,3.99218 0.24219,5.98828 4.55078,-4.55078 9.1836,-9.17969 13.73438,-13.72656 -45.75782,0 -91.4336,0 -137.19141,0 -32.98047,0 -66.04297,0 -99.02344,0 4.55469,4.54687 9.1836,9.17578 13.73828,13.72656 0,-0.5586 0,-1.03906 0.0781,-1.59766 0.0781,-0.63672 0.0781,-1.19922 0.16016,-1.83594 0.23828,-2.3125 -0.71875,4.46875 0,0.39844 0.39843,-2.15234 0.8789,-4.23047 1.51562,-6.30469 0.40234,-1.19531 0.80078,-2.39453 1.19922,-3.58984 0.32031,-0.95703 1.4375,-3.27344 -0.32031,0.79688 0.39843,-0.87891 0.80078,-1.67579 1.19922,-2.55469 0.63671,-1.35547 1.4375,-2.63281 2.23437,-3.82813 0.39844,-0.64062 0.87891,-1.27734 1.27734,-1.91797 1.67969,-2.39453 -2.07421,2.55469 -0.23828,0.24219 1.03907,-1.27734 2.23438,-2.47656 3.4336,-3.67187 0.64062,-0.64063 1.27734,-1.19922 1.91797,-1.75782 1.7539,-1.51562 -2.39844,1.67579 0.79687,-0.55859 1.59766,-1.11719 3.27344,-1.99219 4.95313,-2.95312 0.875,-0.47657 1.83593,-0.875 2.71484,-1.27735 -3.27734,1.4375 0.0781,0.082 0.63672,-0.15625 2.15625,-0.80078 4.39453,-1.27734 6.6289,-1.83594 1.19922,-0.24218 2.39454,-0.48046 3.59375,-0.64062 -3.03515,0.48047 2.31641,-0.16016 2.875,-0.23828 7.82422,-0.5586 15.8125,-0.16016 23.71485,-0.16016 14.77344,0 29.6289,0 44.40234,0 21.80078,0 43.60156,0 65.32031,0 7.50782,0 13.73438,-6.22265 13.73438,-13.72656 0.24219,-7.34375 -6.06641,-13.56641 -13.57422,-13.56641 z m 0,0"
     id="path18" />
  <path
     style="fill:#000000;fill-opacity:1;fill-rule:nonzero;stroke:none"
     d="m 468.47718,152.39518 c -8.30469,0 -16.53125,0 -24.83594,0 -7.5039,0 -13.73437,6.22267 -13.73437,13.72656 0,18.11328 0,36.15235 0,54.26564 0,7.50389 6.23047,13.72656 13.73437,13.72656 5.99219,0 12.0586,0 18.05079,0 0.95703,0 1.91406,0 2.87109,0 0.5625,0 1.03906,0 1.59766,0.082 -2.79297,-0.082 0.96093,0.32031 1.4375,0.39844 3.7539,1.03906 -1.9961,-1.19532 1.35937,0.64062 0.32031,0.15625 3.35156,2.55079 1.27734,0.79688 0.23829,0.16015 2.875,3.1914 1.19922,0.95703 0.39844,0.48047 2.55469,4.78906 1.59375,2.3125 0.48047,1.19922 0.71875,2.47656 0.96094,3.7539 -0.32031,-1.51562 -0.16016,-1.35937 -0.16016,0.3164 0,0.24219 0,0.40235 0,0.64063 0,1.35547 0,2.71484 0,4.14844 0,5.42968 0,10.85546 0,16.28125 0,25.69921 0,51.3164 0,77.01562 0,13.96484 9.10157,23.70313 21.40235,28.80859 14.29297,5.90625 32.17969,-1.59375 39.60547,-14.52343 5.1914,-9.09766 3.43359,-23.625 3.43359,-34.16016 0,-29.04687 0,-58.17578 0,-87.22656 0,-14.125 -0.47656,-27.375 -6.30859,-40.70313 -10.69922,-25.05859 -36.41407,-40.9414 -63.48438,-41.25781 -7.5039,-0.082 -13.73437,6.30469 -13.73437,13.72656 0,7.57813 6.23047,13.64453 13.73437,13.72657 18.44922,0.23828 34.65625,12.21093 40.2461,29.20703 0.80078,2.47656 1.35937,5.10937 1.83984,7.66406 -0.48047,-2.875 0.0781,1.43359 0.16016,1.67578 0.0781,1.35547 0.15625,2.71094 0.15625,4.07031 0,0.5586 0,1.19532 0,1.75391 0,3.99219 0,7.98047 0,11.97266 0,29.1289 0,58.25781 0,87.30859 0,3.98828 0,7.98047 0,11.96875 0,0.55859 0,1.19922 0,1.75781 0,0.79688 -1.03516,7.26172 0.32031,4.46875 -1.51563,3.19141 1.51953,-1.27734 -0.87891,1.27735 -1.19531,1.03515 -1.27734,1.19531 -0.3164,0.23828 -1.4375,0.71875 -1.51954,0.8789 -0.32032,0.39843 -0.16015,0.082 -4.39453,0.96094 -1.91797,0.64063 -0.16015,0 -4.63281,-0.32031 -2.3164,0.0781 -0.23828,0 -4.15235,-1.67578 -1.9961,-0.55859 -3.1914,-1.59375 1.11719,1.4375 -1.67578,-1.19531 1.4375,1.35547 -0.8789,-2.15625 -0.082,-0.082 -1.03515,-2.95313 -0.15625,-1.19532 -0.15625,-0.71875 0,-0.23828 0,-0.5586 0,-0.79688 0,-3.75 0,-7.5 0,-11.2539 0,-27.53125 0,-55.0664 0,-82.59766 0,-15.00391 -5.75,-28.97266 -19.64453,-36.39453 -11.42187,-6.0625 -25.63672,-4.23047 -38.17187,-4.23047 4.55078,4.55078 9.18359,9.17969 13.73437,13.73047 0,-18.11719 0,-36.15625 0,-54.26953 -4.55078,4.54687 -9.18359,9.17578 -13.73437,13.72656 8.30468,0 16.53125,0 24.83593,0 7.50391,0 13.73438,-6.22656 13.73438,-13.72656 0,-7.50391 -6.3086,-13.56641 -13.81641,-13.56641 z m 0,0"
     id="path20" />
  <path
     style="fill:#000000;fill-opacity:1;fill-rule:nonzero;stroke:none"
     d="m 308.36781,803.93816 c -1.35938,0 -2.71485,-0.0781 -4.15235,-0.16016 -4.3125,-0.31641 2.55469,0.48046 -1.67578,-0.23829 -2.63672,-0.47655 -5.11328,-1.27733 -7.58984,-2.23437 2.63672,0.95704 -1.27735,-0.63671 -1.4336,-0.71875 -1.19921,-0.55859 -2.23828,-1.27734 -3.35546,-1.91407 -1.11719,-0.64062 -2.15625,-1.4375 -3.19532,-2.15625 2.07813,1.51563 -1.75781,-1.67578 -2.07422,-1.99609 -0.96093,-0.875 -1.75781,-1.83203 -2.63671,-2.79297 -2.79297,-3.10937 1.35937,2.07813 -1.03907,-1.27344 -1.51562,-2.07812 -2.79297,-4.39062 -3.91015,-6.70703 -1.83985,-3.75 0.79687,2.39453 -0.64063,-1.51562 -0.48047,-1.19531 -0.79687,-2.47266 -1.11719,-3.75 -0.32031,-1.27735 -0.55859,-2.63281 -0.8789,-3.91016 0.48047,2.63281 -0.16016,-2.55469 -0.16016,-3.11328 -0.0781,-1.35547 0,-2.79297 0.082,-4.14844 0,-0.24218 0.5586,-4.6289 0.15625,-1.75781 0.40235,-2.63281 1.1211,-5.1875 1.9961,-7.66016 1.35937,-3.99218 -1.11719,2.23438 0.64062,-1.51562 0.5586,-1.19922 1.19922,-2.31641 1.83594,-3.43359 0.64062,-1.11719 1.35937,-2.15625 2.07812,-3.27344 0.95704,-1.27344 1.03516,-1.35547 0.16016,-0.31641 0.55859,-0.64062 1.11719,-1.27734 1.67578,-1.91797 0.87891,-0.95703 1.75781,-1.83593 2.71485,-2.71093 0.16015,-0.16016 3.35546,-2.79297 1.19921,-1.11719 2.07422,-1.59766 4.3125,-2.875 6.54688,-4.07031 0.16016,-0.082 4.07422,-1.75782 1.4375,-0.71875 1.19922,-0.48047 2.47656,-0.87891 3.75391,-1.27735 1.27734,-0.39844 2.55468,-0.63672 3.83203,-0.95703 1.67578,-0.23828 1.75781,-0.32031 0.32031,-0.16016 0.87891,-0.0781 1.83594,-0.16015 2.71484,-0.23828 2.71485,-0.16015 5.50782,-0.082 8.22266,0.23828 -2.87109,-0.32031 1.35937,0.39844 1.59766,0.39844 1.27734,0.23828 2.55859,0.64063 3.83593,1.03906 0.16016,0.0781 4.15235,1.59375 1.59375,0.47657 1.19922,0.48047 2.31641,1.11718 3.51563,1.75781 1.11719,0.63672 2.23437,1.27734 3.35547,1.99609 0.71875,0.47657 1.4375,0.95703 2.07422,1.51563 -1.11719,-0.80078 -1.03907,-0.71875 0.23828,0.23828 1.99609,1.67578 3.67578,3.58984 5.35156,5.50781 -1.75781,-2.07422 0.80078,1.11719 0.87891,1.35547 0.71875,1.03906 1.35937,2.15625 1.99609,3.35156 0.64062,1.11719 1.19922,2.31641 1.75781,3.51172 -1.19922,-2.55469 0.39844,1.35547 0.47656,1.59766 0.40235,1.27734 0.71875,2.55078 1.03907,3.82812 0.24218,0.87891 0.39843,1.75782 0.55859,2.63672 -0.16016,-1.4375 -0.16016,-1.35937 0,0.31641 0.24219,2.71484 0.16016,5.50781 0,8.22265 -0.31641,4.3086 0.48047,-2.55468 -0.23828,1.67579 -0.23828,1.27734 -0.55859,2.55078 -0.95703,3.82812 -0.32031,1.27734 -0.80078,2.47656 -1.27735,3.75391 0.95704,-2.63672 -0.64062,1.27734 -0.71875,1.43359 -0.5625,1.19922 -1.27734,2.23438 -1.91796,3.35156 -0.23829,0.48047 -3.27344,4.47266 -1.59766,2.47657 -1.59766,1.99609 -3.43359,3.82812 -5.35156,5.50781 -3.11328,2.79297 2.07812,-1.35938 -1.27735,1.03515 -1.03515,0.71875 -2.15625,1.4375 -3.27343,2.07422 -1.11719,0.64063 -2.23438,1.27735 -3.4336,1.83594 -3.7539,1.83594 2.39453,-0.79687 -1.51562,0.64063 -1.27735,0.47656 -2.47657,0.79687 -3.75391,1.11718 -0.48047,0.16016 -5.67187,1.11719 -2.95703,0.71875 -1.83594,0.23828 -3.67188,0.31641 -5.50781,0.31641 -7.50782,0.082 -13.73438,6.14453 -13.73438,13.72656 0,7.42188 6.22656,13.88672 13.73438,13.72656 26.75,-0.39843 49.1914,-17.07812 58.29297,-41.97656 9.18359,-25.05859 -1.35547,-53.23047 -21.96094,-68.875 -20.28125,-15.40234 -49.66797,-15.80078 -70.67188,-1.51562 -21.95703,14.92578 -31.85937,42.3789 -24.83203,67.91797 7.26563,26.2539 32.26172,44.13281 59.08985,44.44921 7.50781,0.082 13.73828,-6.30468 13.73828,-13.72656 0.16015,-7.5 -6.14844,-13.64453 -13.65625,-13.72656 z m 0,0"
     id="path22" />
  <path
     style="fill:#000000;fill-opacity:1;fill-rule:nonzero;stroke:none"
     d="m 462.4889,522.778 c -4.55078,-23.22266 -20.04297,-43.25391 -41.68359,-52.99219 -13.4961,-6.06641 -27.63282,-8.0586 -42.2461,-8.0586 -25.87109,0 -51.74609,0 -77.61718,0 -24.51563,0 -49.11329,0 -73.62891,0 -16.12891,0 -31.70313,2.71094 -46.23438,9.97656 -19.72656,9.89454 -32.66015,29.52735 -35.85546,51.07423 -5.83204,39.10546 -11.73829,78.21094 -17.57032,117.39844 -8.70312,58.09766 -17.40625,116.19922 -26.11328,174.21875 -1.996091,13.16797 -6.066404,28.08984 -4.390622,41.41797 3.035152,24.74219 17.886722,46.84766 40.566402,57.94141 11.42188,5.58593 23.5586,7.66015 36.17578,7.66015 50.46876,0 100.9375,0 151.40625,0 28.82813,0 57.65625,0 86.5625,0 14.13282,0 29.06641,1.19922 43.1211,-0.55859 24.67578,-3.19141 46.79687,-17.95703 57.8164,-40.54297 5.82813,-11.96875 9.02344,-25.77734 6.62891,-38.94531 -2.95703,-16.35938 -5.83203,-32.71875 -8.78516,-49.16016 -10.78125,-60.41406 -21.5625,-120.82812 -32.26171,-181.24219 -5.35157,-29.44922 -10.6211,-58.8164 -15.89063,-88.1875 -1.27734,-7.42187 -10.22266,-11.49218 -16.92969,-9.57812 -7.74609,2.15625 -10.9414,9.57812 -9.58203,16.92187 6.70703,37.82813 13.4961,75.65625 20.20313,113.48438 10.38281,58.33984 20.76172,116.59765 31.14453,174.9375 1.4375,8.0625 2.875,16.12109 4.3125,24.26172 0.39844,2.15625 0.79687,4.39062 1.19531,6.54297 0.082,0.55859 0.16016,1.03906 0.32031,1.59765 0.39844,2.3125 -0.32031,-4.70703 -0.48047,-0.39844 -0.0781,1.35547 -0.15625,2.71094 -0.3164,4.07032 0.3164,-2.95313 -0.32031,1.35547 -0.32031,1.59375 -0.48047,2.55468 -1.27735,5.10937 -2.07813,7.58203 -0.0781,0.24219 -1.67578,4.15234 -0.55859,1.51562 -0.47657,1.19922 -1.11719,2.31641 -1.67578,3.51172 -1.35938,2.63672 -3.03516,5.1875 -4.79297,7.58203 1.67968,-2.23437 -0.875,1.03907 -1.03516,1.19922 -0.80078,0.95703 -1.75781,1.91406 -2.63672,2.79297 -0.8789,0.87891 -1.83594,1.75391 -2.79687,2.63281 -0.15625,0.16016 -3.4336,2.79296 -1.19532,1.03907 -2.07812,1.51562 -4.23437,2.87109 -6.46875,4.14843 -1.11718,0.63671 -2.23437,1.19921 -3.43359,1.75782 -1.4375,0.63671 -1.59766,0.71484 -0.23828,0.15625 -0.80078,0.32031 -1.59766,0.64062 -2.39844,0.8789 -2.47265,0.87891 -5.03125,1.51563 -7.58594,2.07422 -0.23828,0.082 -4.55078,0.71875 -1.59765,0.39844 -1.35547,0.16015 -2.71485,0.24219 -4.07031,0.32031 -1.11719,0.082 -2.15625,0.082 -3.27344,0.082 -1.67969,0 -3.4336,0 -5.11328,0 -52.30469,0 -104.69141,0 -156.9961,0 -28.02734,0 -55.97656,0 -84.00781,0 -8.0664,0 -16.05078,0 -24.03515,0 -1.67579,0 -3.4336,0 -5.11329,0 -0.63671,0 -1.27734,0 -1.91406,0 -1.35937,0 -2.71484,-0.16015 -4.07422,-0.24219 -4.39062,-0.31641 2.63672,0.48046 -1.67578,-0.23829 -3.03515,-0.48046 -5.98828,-1.35546 -8.94531,-2.3125 -0.23828,-0.082 -4.15234,-1.67578 -1.51563,-0.55858 -1.19921,-0.48047 -2.3164,-1.1172 -3.51562,-1.6797 -2.3125,-1.1953 -4.46875,-2.55078 -6.54688,-4.0664 -3.43359,-2.39454 1.91797,1.67578 -1.27734,-0.96094 -0.95703,-0.79688 -1.91797,-1.67578 -2.875,-2.55078 -0.95703,-0.87891 -1.83594,-1.83594 -2.71484,-2.71485 -0.32032,-0.32031 -3.51563,-4.23047 -1.91797,-2.15625 -1.51563,-2.07422 -2.875,-4.23047 -4.15235,-6.46484 -0.63671,-1.11719 -1.19531,-2.3125 -1.7539,-3.42969 -1.83985,-3.75 0.875,2.47266 -0.64063,-1.51562 -0.95703,-2.47657 -1.67578,-5.02735 -2.23437,-7.50391 -0.32031,-1.27734 -0.5586,-2.63281 -0.71875,-3.91016 0.47656,2.71485 -0.16016,-2.55468 -0.16016,-3.03125 -0.24219,-4.30859 -0.80078,2.55469 -0.48047,0.47657 0.082,-0.5586 0.16016,-1.11719 0.23828,-1.75391 0.32032,-2.23437 0.64063,-4.39062 0.96094,-6.625 3.03516,-20.26953 6.06641,-40.54297 9.10156,-60.8125 9.1836,-61.29297 18.36719,-122.50391 27.55079,-183.79687 2.95312,-19.94922 5.98828,-39.90235 8.94531,-59.85547 0.63672,-4.07032 1.11719,-8.21875 1.91406,-12.28907 0.48047,-2.63281 1.19922,-5.1875 1.99609,-7.74218 0.082,-0.23828 1.59766,-4.23047 0.48047,-1.4375 0.48047,-1.11719 1.03907,-2.23438 1.59766,-3.35157 1.11719,-2.15234 2.39453,-4.23046 3.83203,-6.14453 2.23828,-3.1914 -1.75781,1.9961 0.80078,-0.95702 1.03516,-1.19531 2.15625,-2.3125 3.27344,-3.43359 0.79687,-0.79688 1.75781,-1.59375 2.63281,-2.39063 2.95703,-2.55468 -2.23437,1.51563 0.96094,-0.71875 1.91406,-1.35937 3.99219,-2.63672 6.0664,-3.7539 1.03907,-0.5586 2.15625,-1.11719 3.19532,-1.59375 3.59375,-1.75782 -2.55469,0.95703 1.19922,-0.48047 2.71484,-1.03516 5.50781,-1.83594 8.30468,-2.55469 2.47657,-0.63672 4.94922,-1.11719 7.50391,-1.51562 -3.03125,0.48046 1.19922,-0.0781 1.51953,-0.16016 1.27734,-0.15625 2.63672,-0.23828 3.91406,-0.31642 1.9961,-0.16015 3.99219,-0.16015 5.98829,-0.16015 2.63281,0 5.26953,0 7.82421,0 11.82032,0 23.63672,0 35.45703,0 30.42579,0 60.85157,0 91.27344,0 9.42578,0 19.00781,-0.32031 28.42969,0.16015 1.35937,0.0781 2.71484,0.23828 4.07422,0.39844 -2.71485,-0.32031 2.47265,0.47656 2.95312,0.55859 3.4336,0.63672 6.70703,1.59375 10.0625,2.71485 0.79688,0.3164 1.59766,0.55859 2.39453,0.875 -1.35546,-0.5586 -1.27734,-0.5586 0.23829,0.082 1.51953,0.71875 3.03515,1.43359 4.47265,2.23437 1.4375,0.79688 2.875,1.67579 4.23438,2.55469 0.71875,0.47656 1.35547,0.95703 1.99609,1.4336 -1.11719,-0.95704 -1.11719,-0.875 0.16016,0.082 2.23437,1.83593 4.23047,3.82812 6.22656,5.90625 0.32031,0.39843 3.43359,4.30859 1.75781,1.99218 0.95703,1.35938 1.91797,2.71486 2.71485,4.15236 0.8789,1.43358 1.67578,2.95312 2.39453,4.46875 0.40234,0.79687 0.71875,1.51562 1.12109,2.3125 -0.5625,-1.27735 -0.5625,-1.19531 0.0781,0.32031 1.27734,3.35156 2.15625,6.86327 2.79687,10.45313 1.4375,7.34375 10.14063,11.49218 16.92578,9.57812 7.10938,-1.91406 10.54297,-9.33594 9.10547,-16.67969 z m 0,0"
     id="path24" />
  <path
     style="fill:#000000;fill-opacity:1;fill-rule:nonzero;stroke:none"
     d="m 159.35609,166.19987 c 0,47.32422 0,94.65234 0,141.97657 0,15.48438 1.51953,30.88672 5.58984,45.89063 6.70703,24.57812 20.20313,47.24608 37.9336,65.51953 3.99218,4.07031 8.22265,7.82422 12.69531,11.33203 4.95312,3.91406 11.10156,9.81639 17.80859,9.81639 1.9961,0 3.99219,0 5.98828,0 11.26172,0 22.51953,0 33.78125,0 30.26172,0 60.60938,0 90.875,0 6.86719,0 13.8125,0 20.67969,0 6.23047,0 10.94141,-4.70702 15.57422,-8.29687 4.94922,-3.83202 9.50391,-8.14063 13.8125,-12.69141 8.94531,-9.33593 16.69141,-19.94922 23.08203,-31.20312 13.01563,-22.82422 20.04297,-49.32031 20.04297,-75.65625 0,-6.46485 0,-12.92969 0,-19.31641 0,-30.24609 0,-60.49219 0,-90.73828 0,-12.21094 0,-24.42187 0,-36.55469 0,-7.5 -6.23047,-13.72656 -13.73438,-13.72656 -42.96484,0 -85.92578,0 -128.89062,0 -46.95313,0 -93.91016,0 -140.86328,0 -0.23828,0 -0.55859,0 -0.79688,0 -7.26953,-0.15625 -13.57812,6.14844 -13.57812,13.64844 0,7.5 6.23047,13.72656 13.73437,13.72656 42.96485,0 85.92578,0 128.88672,0 46.95703,0 93.91016,0 140.86719,0 0.23828,0 0.55859,0 0.79687,0 -4.55078,-4.54687 -9.18359,-9.17578 -13.73437,-13.72656 0,47.32422 0,94.65234 0,141.97656 0,17.23828 -1.83594,31.20703 -7.74609,47.88672 -7.98438,22.66406 -24.99219,45.32812 -44.16016,58.97656 2.31641,-0.64062 4.63281,-1.27733 6.94922,-1.91797 -47.91406,0 -95.82813,0 -143.74219,0 -2.63281,0 -5.26953,0 -7.82422,0 2.31641,0.64063 4.63282,1.27735 6.94532,1.91797 -8.30469,-5.66797 -16.92579,-13.32812 -24.59375,-22.26562 -3.59375,-4.23047 -5.42969,-6.78516 -8.94532,-12.13282 -3.43359,-5.26562 -6.38672,-10.77343 -9.02343,-16.51952 -3.99219,-8.61718 -7.90625,-22.10548 -9.66016,-33.4375 -0.48047,-3.27343 -1.03906,-10.85548 -1.11719,-16.20312 0,-0.95703 0,-1.83594 0,-2.79298 0,-24.02344 0,-48.125 0,-72.14453 0,-24.42188 0,-48.92188 0,-73.34375 0,-7.5 -6.23047,-13.72656 -13.73828,-13.72656 -7.58594,-0.0781 -13.89453,6.22656 -13.89453,13.72656 z m 0,0"
     id="path26" />
  <path
     style="fill:#000000;fill-opacity:1;fill-rule:nonzero;stroke:none"
     d="m 380.63734,50.000655 c -46.95703,0 -93.91016,0 -140.78516,0 -23,0 -46.95703,5.109375 -62.44922,23.542969 -9.74218,11.570312 -16.28906,27.132816 -16.36718,42.457026 0,7.50391 6.30859,13.72657 13.73437,13.72657 43.19922,0 86.40234,0 129.68359,0 45.75782,0 91.4336,0 137.19141,0 0.082,0 0.24219,0 0.32031,0 7.50782,0 13.81641,-6.22266 13.73438,-13.72657 -0.0781,-17.79687 -4.71094,-36.152339 -18.28516,-48.601557 -15.17187,-13.964844 -36.8125,-17.320313 -56.77734,-17.398438 -7.50781,0 -13.73438,6.304688 -13.73438,13.726562 0,7.503907 6.22657,13.726563 13.73438,13.726563 4.3125,0 8.54297,0.160156 12.77734,0.558594 0.87891,0.08203 1.75391,0.160156 2.63281,0.320312 -3.03125,-0.320312 1.03907,0.238281 1.35938,0.238281 1.99609,0.320313 3.91406,0.796876 5.82812,1.277344 1.83594,0.480469 3.59375,1.039063 5.35157,1.597656 0.63672,0.238282 1.35547,0.476563 1.99609,0.71875 -3.27344,-1.277343 -0.0781,0 0.48047,0.316407 1.51562,0.71875 2.95312,1.515625 4.3125,2.394531 0.55859,0.320312 1.11719,0.71875 1.59375,1.039062 2.71484,1.835938 -2.3125,-1.917968 0.24219,0.160157 1.19531,0.957031 2.3164,2.074219 3.35156,3.191406 0.40234,0.476563 0.80078,0.878906 1.19922,1.355469 -2.39453,-2.792969 -0.39844,-0.476563 0.0781,0.160156 0.87891,1.277344 1.67969,2.632812 2.39844,3.992188 0.32031,0.558593 0.55859,1.117187 0.79688,1.675781 1.4375,3.03125 -1.11719,-2.875 0.082,0.316406 1.19531,3.195313 1.99609,6.625 2.55468,9.97656 0.23829,1.59766 0.23829,1.4375 -0.082,-0.39844 0.16016,1.11719 0.24219,2.23438 0.32032,3.4336 0.16015,1.99219 0.16015,3.98828 0.16015,5.98437 4.55078,-4.55078 9.1836,-9.17968 13.73438,-13.72656 -43.19922,0 -86.40235,0 -129.6836,0 -45.75781,0 -91.4375,0 -137.1914,0 -0.082,0 -0.24219,0 -0.32032,0 4.55079,4.54688 9.1836,9.17578 13.73438,13.72656 0,-0.48047 0,-0.95703 0.0781,-1.35547 0,-0.55859 0.082,-1.11718 0.16016,-1.59765 0.40234,-3.67188 -0.5586,3.42969 -0.0781,0.63672 0.32031,-1.99219 0.71875,-3.91016 1.19921,-5.82422 0.31641,-1.11719 0.63672,-2.23438 1.03516,-3.4336 0.40234,-1.19531 2.39844,-6.222651 0.48047,-1.59375 1.11719,-2.632807 2.47656,-5.187495 3.99219,-7.582026 0.55859,-0.957031 3.83203,-5.1875 1.03906,-1.597657 1.19922,-1.515624 2.47656,-2.871093 3.83203,-4.230468 1.19922,-1.195313 2.55469,-2.3125 3.91406,-3.429688 -3.19531,2.554688 1.59766,-0.957031 2.55469,-1.515625 1.67578,-1.039062 3.43359,-1.917969 5.26953,-2.714843 3.19531,-1.515626 -2.79297,1.039062 0.5586,-0.238282 1.35937,-0.558594 2.79687,-0.957031 4.23437,-1.359375 5.82813,-1.753906 8.30469,-1.992187 12.37891,-2.3125 2.55469,-0.238281 5.1875,-0.238281 7.74609,-0.238281 2.71485,0 5.42969,0 8.14453,0 12.375,0 24.75391,0 37.13281,0 32.89844,0 65.80079,0 98.6211,0 7.50781,0 13.73437,-6.226562 13.73437,-13.726562 2e-5,-7.421876 -6.22654,-13.648438 -13.73435,-13.648438 z m 0,0"
     id="path28" />
</svg>
