<?xml version="1.0" encoding="UTF-8" standalone="no"?>
<!-- Created with Inkscape (http://www.inkscape.org/) -->

<svg
   width="1000"
   height="1000"
   version="1.1"
   id="svg16"
   xmlns="http://www.w3.org/2000/svg"
   xmlns:svg="http://www.w3.org/2000/svg"
   xmlns:rdf="http://www.w3.org/1999/02/22-rdf-syntax-ns#"
   xmlns:cc="http://creativecommons.org/ns#"
   xmlns:dc="http://purl.org/dc/elements/1.1/">
  <defs
     id="defs5498" />
  <metadata
     id="metadata5594">
    <rdf:RDF>
      <cc:Work
         rdf:about="">
        <dc:format>image/svg+xml</dc:format>
        <dc:type
           rdf:resource="http://purl.org/dc/dcmitype/StillImage" />
      </cc:Work>
    </rdf:RDF>
  </metadata>
  <path
     style="fill:#000000;fill-opacity:1;fill-rule:nonzero;stroke:none"
     d="m 50.105469,364.93339 c 0,-62.12109 50.355471,-112.47656 112.472661,-112.47656 62.11718,0 112.47265,50.35547 112.47265,112.47656 0,62.11719 -50.35547,112.47266 -112.47265,112.47266 -62.11719,0 -112.472661,-50.35547 -112.472661,-112.47266"
     id="path6" />
  <path
     style="fill:#000000;fill-opacity:1;fill-rule:nonzero;stroke:none"
     d="m 252.55859,184.97246 c 0,-62.11719 50.35547,-112.47266 112.47266,-112.47266 62.11719,0 112.47266,50.35547 112.47266,112.47266 0,62.11718 -50.35547,112.47656 -112.47266,112.47656 -62.11719,0 -112.47266,-50.35938 -112.47266,-112.47656"
     id="path8" />
  <path
     style="fill:#000000;fill-opacity:1;fill-rule:nonzero;stroke:none"
     d="m 522.49609,184.97246 c 0,-62.11719 50.35547,-112.47266 112.47266,-112.47266 62.11719,0 112.47266,50.35547 112.47266,112.47266 0,62.11718 -50.35547,112.47656 -112.47266,112.47656 -62.11719,0 -112.47266,-50.35938 -112.47266,-112.47656"
     id="path10" />
  <path
     style="fill:#000000;fill-opacity:1;fill-rule:nonzero;stroke:none"
     d="m 724.94922,364.93339 c 0,-62.12109 50.35547,-112.47656 112.47265,-112.47656 62.11719,0 112.47266,50.35547 112.47266,112.47656 0,62.11719 -50.35547,112.47266 -112.47266,112.47266 -62.11718,0 -112.47265,-50.35547 -112.47265,-112.47266"
     id="path12" />
  <path
     style="fill:#000000;fill-opacity:1;fill-rule:nonzero;stroke:none"
     d="M 740.24219,606.07402 C 701.10156,560.1873 668.26172,521.04667 628.67187,475.15605 607.97656,450.86308 581.42969,426.56621 549.9375,415.76933 c -4.94922,-1.80078 -9.89844,-3.14844 -14.84375,-4.04687 -11.25,-1.80079 -23.39453,-1.80079 -35.09375,-1.80079 -11.69922,0 -23.84375,0 -35.54297,2.25 -4.94922,0.89844 -9.89453,2.25 -14.84375,4.04688 -31.49609,10.79687 -57.58984,35.09375 -78.73437,59.38672 -39.14063,45.89062 -71.98047,85.03125 -111.57422,130.92187 -58.9336,58.9336 -131.36719,124.16797 -117.8711,215.5 13.04688,45.88672 45.89063,91.32813 104.82422,104.375 32.84375,6.7461 137.66797,-19.79687 249.24219,-19.79687 h 8.09766 c 111.57421,0 216.40234,26.09375 249.24218,19.79687 58.9375,-13.04687 91.78125,-58.9375 104.82813,-104.375 13.94531,-91.78125 -58.48828,-157.01562 -117.42578,-215.95312 z m 0,0"
     id="path14" />
</svg>
