<?xml version="1.0" encoding="UTF-8" standalone="no"?>
<!-- Created with Inkscape (http://www.inkscape.org/) -->

<svg
   width="1000"
   height="1000"
   version="1.1"
   id="svg8"
   xmlns="http://www.w3.org/2000/svg"
   xmlns:svg="http://www.w3.org/2000/svg"
   xmlns:rdf="http://www.w3.org/1999/02/22-rdf-syntax-ns#"
   xmlns:cc="http://creativecommons.org/ns#"
   xmlns:dc="http://purl.org/dc/elements/1.1/">
  <defs
     id="defs5498" />
  <metadata
     id="metadata5594">
    <rdf:RDF>
      <cc:Work
         rdf:about="">
        <dc:format>image/svg+xml</dc:format>
        <dc:type
           rdf:resource="http://purl.org/dc/dcmitype/StillImage" />
      </cc:Work>
    </rdf:RDF>
  </metadata>
  <path
     style="fill:#000000;fill-opacity:1;fill-rule:nonzero;stroke:none"
     d="m 764.72721,481.25 c 12.75,0 25.125,1.125 37.5,2.625 L 802.60221,50 52.602208,800 H 486.10221 c -1.5,-12.375 -2.625,-24.75 -2.625,-37.5 0,-155.25 126,-281.25 281.25,-281.25 z m 139.125,299.625 c 0.75,-6 1.5,-12 1.5,-18.375 0,-6.375 -0.375,-12.375 -1.5,-18.375 l 39.75,-31.125 c 3.375,-3 4.5,-7.875 2.25,-12 l -37.5,-64.875 c -2.25,-4.125 -7.125,-5.625 -11.625,-4.125 l -46.5,18.75 c -9.75,-7.5 -20.25,-13.875 -31.875,-18.375 l -7.125,-49.5 c -0.375,-4.5 -4.5,-7.875 -9,-7.875 h -75 c -4.5,0 -8.625,3.375 -9.375,7.875 l -7.125,49.5 c -11.25,4.875 -22.125,10.875 -31.875,18.375 l -46.5,-18.75 c -4.125,-1.5 -9,0 -11.625,4.125 l -37.5,64.875 c -2.25,4.125 -1.5,9 2.25,12 l 39.75,31.125 c -0.75,6 -1.125,12 -1.125,18.375 0,6.375 0.375,12.375 1.125,18.375 l -39.75,31.125 c -3.375,3 -4.5,7.875 -2.25,12 l 37.5,64.875 c 2.25,4.125 7.125,5.625 11.625,4.125 l 46.5,-18.75 c 9.75,7.5 20.25,13.875 31.875,18.375 l 7.125,49.5 c 0.75,4.5 4.5,7.875 9.375,7.875 h 75 c 4.5,0 8.625,-3.375 9.375,-7.875 l 7.125,-49.5 c 11.25,-4.875 22.125,-10.875 31.5,-18.375 l 46.875,18.75 c 4.125,1.5 9,0 11.625,-4.125 l 37.5,-64.875 c 2.25,-4.125 1.125,-9 -2.25,-12 z m -139.125,37.875 c -31.125,0 -56.25,-25.125 -56.25,-56.25 0,-31.125 25.125,-56.25 56.25,-56.25 31.125,0 56.25,25.125 56.25,56.25 0,31.125 -25.125,56.25 -56.25,56.25 z m 0,0"
     id="path6" />
</svg>
