<?xml version="1.0" encoding="UTF-8" standalone="no"?>
<!-- Created with Inkscape (http://www.inkscape.org/) -->

<svg
   width="1000"
   height="1000"
   version="1.1"
   id="svg8"
   xmlns="http://www.w3.org/2000/svg"
   xmlns:svg="http://www.w3.org/2000/svg"
   xmlns:rdf="http://www.w3.org/1999/02/22-rdf-syntax-ns#"
   xmlns:cc="http://creativecommons.org/ns#"
   xmlns:dc="http://purl.org/dc/elements/1.1/">
  <defs
     id="defs5498" />
  <metadata
     id="metadata5594">
    <rdf:RDF>
      <cc:Work
         rdf:about="">
        <dc:format>image/svg+xml</dc:format>
        <dc:type
           rdf:resource="http://purl.org/dc/dcmitype/StillImage" />
      </cc:Work>
    </rdf:RDF>
  </metadata>
  <path
     style="fill:#000000;fill-opacity:1;fill-rule:nonzero;stroke:none"
     d="M 550,50 H 450 v 500 h 100 z m 241.5,108.5 -71,71 C 799.5,293 850,390.5 850,500 850,693.5 693.5,850 500,850 306.5,850 150,693.5 150,500 150,390.5 200.5,293 279,229 L 208.5,158.5 C 111.5,241 50,363 50,500 50,748.5 251.5,950 500,950 748.5,950 950,748.5 950,500 950,363 888.5,241 791.5,158.5 Z m 0,0"
     id="path6" />
</svg>
