<?xml version="1.0" encoding="UTF-8" standalone="no"?>
<!-- Created with Inkscape (http://www.inkscape.org/) -->

<svg
   width="1000"
   height="1000"
   version="1.1"
   id="svg10"
   xmlns="http://www.w3.org/2000/svg"
   xmlns:svg="http://www.w3.org/2000/svg"
   xmlns:rdf="http://www.w3.org/1999/02/22-rdf-syntax-ns#"
   xmlns:cc="http://creativecommons.org/ns#"
   xmlns:dc="http://purl.org/dc/elements/1.1/">
  <defs
     id="defs5498" />
  <metadata
     id="metadata5594">
    <rdf:RDF>
      <cc:Work
         rdf:about="">
        <dc:format>image/svg+xml</dc:format>
        <dc:type
           rdf:resource="http://purl.org/dc/dcmitype/StillImage" />
      </cc:Work>
    </rdf:RDF>
  </metadata>
  <path
     style="fill:#000000;fill-opacity:1;fill-rule:nonzero;stroke:none"
     d="M 500,50 C 251.89062,50 50,251.89062 50,500 50,748.10937 251.89062,950 500,950 748.10937,950 950,748.10937 950,500 950,251.89062 748.10937,50 500,50 Z m 0,866.15234 C 270.57031,916.15234 83.847656,729.42969 83.847656,500 83.847656,270.48828 270.57031,83.847656 500,83.847656 729.42969,83.847656 916.15234,270.48828 916.15234,500 916.15234,729.42969 729.42969,916.15234 500,916.15234 Z m 0,0"
     id="path6" />
  <path
     style="fill:#000000;fill-opacity:1;fill-rule:nonzero;stroke:none"
     d="m 847.73828,557.875 c -12.85156,-30.65234 -38,-53.32422 -73.04297,-50.13281 -34.80859,3.19531 -60.43359,34.88672 -94.28125,40.07422 -12.85156,1.99609 -25.78515,1.67968 -38.39844,-0.47657 18.52344,-55.24218 2.95704,-116.47265 -39.27343,-156.30859 14.44922,-24.58594 25.46484,-48.69531 31.85156,-63.38281 45.10156,-104.25782 -8.46094,-246.83594 -141.05859,-217.0586 -33.3711,7.50391 -95.95704,31.05469 -117.26954,59.15625 -20.11718,26.5 -27.14453,59.63282 -6.86718,88.28907 20.11718,28.57812 60.42968,34.88671 81.82422,61.6289 8.14453,10.14063 14.37109,21.47656 18.83984,33.52735 -40.47266,8.30468 -77.43359,33.21093 -99.70703,71.84765 -7.42188,12.9336 -12.76953,26.50391 -16.04297,40.31641 -28.5,-0.24219 -54.92578,2.3125 -70.80859,4.14844 -112.80078,13.09375 -209.554691,130.76171 -117.42969,230.70703 23.14844,25.14843 74.8789,67.53906 109.84375,72.00781 33.05078,4.15234 65.22265,-6.30469 79.91015,-38.16016 14.6875,-31.76953 0,-69.76953 12.375,-101.70312 4.70704,-12.13281 11.41407,-23.14844 19.55469,-32.96875 10.37891,11.73437 22.83203,22.11328 37.20313,30.41797 37.12109,21.47265 79.66797,25.14453 117.75,13.73047 14.04687,24.82421 29.45703,46.46093 38.95312,59.3125 67.77735,91.16406 218.01563,116.07031 258.49219,-13.65235 10.375,-32.73047 21.23437,-98.75 7.58203,-131.32031 z M 500,592.52344 c -51.08984,0 -92.52344,-41.4336 -92.52344,-92.52344 0,-51.08984 41.4336,-92.52344 92.52344,-92.52344 51.08984,0 92.52344,41.4336 92.52344,92.52344 0,51.08984 -41.4336,92.52344 -92.52344,92.52344 z m 0,0"
     id="path8" />
</svg>
