<?xml version="1.0" encoding="UTF-8" standalone="no"?>
<!-- Created with Inkscape (http://www.inkscape.org/) -->

<svg
   width="1000"
   height="1000"
   version="1.1"
   id="svg8"
   xmlns="http://www.w3.org/2000/svg"
   xmlns:svg="http://www.w3.org/2000/svg"
   xmlns:rdf="http://www.w3.org/1999/02/22-rdf-syntax-ns#"
   xmlns:cc="http://creativecommons.org/ns#"
   xmlns:dc="http://purl.org/dc/elements/1.1/">
  <defs
     id="defs5498" />
  <metadata
     id="metadata5594">
    <rdf:RDF>
      <cc:Work
         rdf:about="">
        <dc:format>image/svg+xml</dc:format>
        <dc:type
           rdf:resource="http://purl.org/dc/dcmitype/StillImage" />
      </cc:Work>
    </rdf:RDF>
  </metadata>
  <path
     style="fill:#000000;fill-opacity:1;fill-rule:nonzero;stroke:none"
     d="M 904.94531,680.05078 H 679.92187 l 0.0859,-45.05469 h -90.02344 v -89.9414 h 225.01954 c 26.98046,0 44.96875,-22.52735 44.96875,-44.96875 V 95.01172 c 0,-26.980469 -17.98829,-44.96875 -44.96875,-44.96875 H 184.99609 c -26.98437,0 -44.96875,17.988281 -44.96875,44.96875 V 500 c 0,26.98047 17.98438,44.96875 44.96875,44.96875 h 225.01953 v 90.02734 h -90.02343 v 44.96875 l -225.02344,0.0859 C 67.988281,680.05078 50,698.03906 50,725.02344 v 179.96484 c 0,26.98047 17.988281,44.96875 44.96875,44.96875 h 809.97656 c 26.98047,0 44.96875,-17.98828 44.96875,-44.96875 L 950,725.02344 c 0,-26.98438 -17.98828,-44.97266 -45.05469,-44.97266 z M 229.96484,455.03125 V 140.07031 H 769.94922 V 455.03125 Z M 499.95703,860.01562 H 140.02734 v -90.02343 h 359.92969 z m 315.04688,0 c -26.98047,0 -44.96875,-17.98828 -44.96875,-44.96875 0,-26.98046 17.98828,-44.96875 44.96875,-44.96875 26.98046,0 44.96875,17.98829 44.96875,44.96875 0,26.98047 -17.98829,44.96875 -44.96875,44.96875 z m 0,0"
     id="path6" />
</svg>
