<?xml version="1.0" encoding="UTF-8" standalone="no"?>
<!-- Created with Inkscape (http://www.inkscape.org/) -->

<svg
   width="1000"
   height="1000"
   version="1.1"
   id="svg8"
   xmlns="http://www.w3.org/2000/svg"
   xmlns:svg="http://www.w3.org/2000/svg"
   xmlns:rdf="http://www.w3.org/1999/02/22-rdf-syntax-ns#"
   xmlns:cc="http://creativecommons.org/ns#"
   xmlns:dc="http://purl.org/dc/elements/1.1/">
  <defs
     id="defs5498" />
  <metadata
     id="metadata5594">
    <rdf:RDF>
      <cc:Work
         rdf:about="">
        <dc:format>image/svg+xml</dc:format>
        <dc:type
           rdf:resource="http://purl.org/dc/dcmitype/StillImage" />
      </cc:Work>
    </rdf:RDF>
  </metadata>
  <path
     style="fill:#000000;fill-opacity:1;fill-rule:nonzero;stroke:none"
     d="M 500,50 C 251.89453,50 50,251.89453 50,500 50,748.10547 251.89453,950 500,950 748.10547,950 950,748.10547 950,500 950,251.89453 748.10547,50 500,50 Z m -34.61719,207.69141 c 0,-19.0625 15.55078,-34.61329 34.61719,-34.61329 19.06641,0 34.61719,15.46094 34.61719,34.61329 v 173.07812 c 0,19.06641 -15.55078,34.61328 -34.61719,34.61328 -19.06641,0 -34.61719,-15.54687 -34.61719,-34.61328 z m 205.9375,413.6289 C 624.05469,718.58594 562.02734,742.21875 500,742.21875 c -62.02734,0 -124.05469,-23.63281 -171.32031,-70.89844 -94.44532,-94.44531 -94.44532,-248.19531 0,-342.64062 13.53125,-13.53125 35.40625,-13.53125 48.9375,0 13.52734,13.53125 13.52734,35.40625 0,48.9375 -67.47657,67.47265 -67.47657,177.29297 0,244.76562 67.47265,67.47656 177.29297,67.47656 244.76562,0 67.47656,-67.47265 67.47656,-177.29297 0,-244.76562 -13.52734,-13.53125 -13.52734,-35.40625 0,-48.9375 13.53125,-13.53125 35.40625,-13.53125 48.9375,0 94.53125,94.44531 94.53125,248.19531 0,342.64062 z m 0,0"
     id="path6" />
</svg>
