<?xml version="1.0" encoding="UTF-8" standalone="no"?>
<!-- Created with Inkscape (http://www.inkscape.org/) -->

<svg
   width="1000"
   height="1000"
   version="1.1"
   id="svg8"
   xmlns="http://www.w3.org/2000/svg"
   xmlns:svg="http://www.w3.org/2000/svg"
   xmlns:rdf="http://www.w3.org/1999/02/22-rdf-syntax-ns#"
   xmlns:cc="http://creativecommons.org/ns#"
   xmlns:dc="http://purl.org/dc/elements/1.1/">
  <defs
     id="defs5498" />
  <metadata
     id="metadata5594">
    <rdf:RDF>
      <cc:Work
         rdf:about="">
        <dc:format>image/svg+xml</dc:format>
        <dc:type
           rdf:resource="http://purl.org/dc/dcmitype/StillImage" />
      </cc:Work>
    </rdf:RDF>
  </metadata>
  <path
     style="fill:#000000;fill-opacity:1;fill-rule:nonzero;stroke:none"
     d="M 912.5,256.25 V 800 c 0,82.5 -67.5,150 -150,150 H 488.75 C 448.25,950 410,933.875 381.875,905.375 L 87.5,606.125 c 0,0 47.25,-46.125 48.75,-46.875 8.25,-7.125 18.375,-10.875 29.625,-10.875 8.25,0 15.75,2.25 22.5,6 1.5,0.375 161.625,92.25 161.625,92.25 V 200 c 0,-31.125 25.125,-56.25 56.25,-56.25 31.125,0 56.25,25.125 56.25,56.25 V 462.5 H 500 V 106.25 C 500,75.125 525.125,50 556.25,50 c 31.125,0 56.25,25.125 56.25,56.25 V 462.5 H 650 V 143.75 c 0,-31.125 25.125,-56.25 56.25,-56.25 31.125,0 56.25,25.125 56.25,56.25 V 462.5 H 800 V 256.25 c 0,-31.125 25.125,-56.25 56.25,-56.25 31.125,0 56.25,25.125 56.25,56.25 z m 0,0"
     id="path6" />
</svg>
