<?xml version="1.0" encoding="UTF-8" standalone="no"?>
<!-- Created with Inkscape (http://www.inkscape.org/) -->

<svg
   width="1000"
   height="1000"
   version="1.1"
   id="svg8"
   xmlns="http://www.w3.org/2000/svg"
   xmlns:svg="http://www.w3.org/2000/svg"
   xmlns:rdf="http://www.w3.org/1999/02/22-rdf-syntax-ns#"
   xmlns:cc="http://creativecommons.org/ns#"
   xmlns:dc="http://purl.org/dc/elements/1.1/">
  <defs
     id="defs5498" />
  <metadata
     id="metadata5594">
    <rdf:RDF>
      <cc:Work
         rdf:about="">
        <dc:format>image/svg+xml</dc:format>
        <dc:type
           rdf:resource="http://purl.org/dc/dcmitype/StillImage" />
      </cc:Work>
    </rdf:RDF>
  </metadata>
  <path
     style="fill:#000000;fill-opacity:1;fill-rule:nonzero;stroke:none"
     d="M 622.26223,162.07422 C 607.55129,98.269531 550.35988,50.4375 482.02004,50.4375 c -79.39844,0 -143.99219,64.53516 -143.99219,143.85937 v 467.54688 c -17.63281,0 -32.61718,12.6875 -35.53906,30.03125 l -36,215.78906 c -1.73437,10.40625 1.1875,21.08594 8.04297,29.21094 6.85156,8.03125 16.90234,12.6875 27.5,12.6875 h 143.98828 c 10.59766,0 20.64844,-4.65625 27.5,-12.6875 6.85547,-8.03516 9.77734,-18.71484 8.04297,-29.21094 l -36,-215.78906 c -2.92188,-17.34375 -17.90625,-30.03125 -35.53906,-30.03125 V 194.29687 c 0,-39.70703 32.25,-71.92968 71.99609,-71.92968 29.14453,0 54.17578,17.43359 65.50781,42.35547 -58.75,18.16406 -101.50781,72.93359 -101.50781,137.46875 0,79.32421 64.59375,143.85937 143.99219,143.85937 79.39453,0 143.98828,-64.53516 143.98828,-143.85937 0,-68.27735 -47.875,-125.42188 -111.73828,-140.11719 z m 0,0"
     id="path6" />
</svg>
