<?xml version="1.0" encoding="UTF-8" standalone="no"?>
<!-- Created with Inkscape (http://www.inkscape.org/) -->

<svg
   width="1000"
   height="1000"
   version="1.1"
   id="svg10"
   xmlns="http://www.w3.org/2000/svg"
   xmlns:svg="http://www.w3.org/2000/svg"
   xmlns:rdf="http://www.w3.org/1999/02/22-rdf-syntax-ns#"
   xmlns:cc="http://creativecommons.org/ns#"
   xmlns:dc="http://purl.org/dc/elements/1.1/">
  <defs
     id="defs5498" />
  <metadata
     id="metadata5594">
    <rdf:RDF>
      <cc:Work
         rdf:about="">
        <dc:format>image/svg+xml</dc:format>
        <dc:type
           rdf:resource="http://purl.org/dc/dcmitype/StillImage" />
      </cc:Work>
    </rdf:RDF>
  </metadata>
  <path
     style="fill:#000000;fill-opacity:1;fill-rule:nonzero;stroke:none"
     d="M 912.5,50 H 87.5 C 66.847656,50 50,66.847656 50,87.5 v 825 c 0,20.65234 16.75,37.5 37.5,37.5 h 825 c 20.65234,0 37.5,-16.84766 37.5,-37.5 V 87.5 C 950,66.847656 933.15234,50 912.5,50 Z M 500,837.5 C 313.92578,837.5 162.5,686.07422 162.5,500 162.5,313.92578 313.92578,162.5 500,162.5 c 186.07422,0 337.5,151.42578 337.5,337.5 0,186.07422 -151.42578,337.5 -337.5,337.5 z m 0,0"
     id="path6" />
  <path
     style="fill:#000000;fill-opacity:1;fill-rule:nonzero;stroke:none"
     d="m 500,237.5 c -144.76563,0 -262.5,117.73437 -262.5,262.5 0,132.01172 98.03125,241.17969 225,259.45312 V 725 c 0,-20.65234 16.84766,-37.5 37.5,-37.5 20.65234,0 37.5,16.75 37.5,37.5 v 34.45312 C 664.46875,741.17969 762.5,631.91797 762.5,500 762.5,355.23437 644.76562,237.5 500,237.5 Z m -112.5,300 c -20.65234,0 -37.5,-16.75 -37.5,-37.5 0,-20.65234 16.75,-37.5 37.5,-37.5 20.75,0 37.5,16.84766 37.5,37.5 0,20.65234 -16.84766,37.5 -37.5,37.5 z m 225,0 c -20.65234,0 -37.5,-16.75 -37.5,-37.5 0,-20.65234 16.84766,-37.5 37.5,-37.5 20.65234,0 37.5,16.84766 37.5,37.5 0,20.65234 -16.84766,37.5 -37.5,37.5 z m 0,0"
     id="path8" />
</svg>
