<?xml version="1.0" encoding="UTF-8" standalone="no"?>
<!-- Created with Inkscape (http://www.inkscape.org/) -->

<svg
   width="1000"
   height="1000"
   version="1.1"
   id="svg28"
   xmlns="http://www.w3.org/2000/svg"
   xmlns:svg="http://www.w3.org/2000/svg"
   xmlns:rdf="http://www.w3.org/1999/02/22-rdf-syntax-ns#"
   xmlns:cc="http://creativecommons.org/ns#"
   xmlns:dc="http://purl.org/dc/elements/1.1/">
  <defs
     id="defs5498" />
  <metadata
     id="metadata5594">
    <rdf:RDF>
      <cc:Work
         rdf:about="">
        <dc:format>image/svg+xml</dc:format>
        <dc:type
           rdf:resource="http://purl.org/dc/dcmitype/StillImage" />
      </cc:Work>
    </rdf:RDF>
  </metadata>
  <path
     style="fill:#000000;fill-opacity:1;fill-rule:nonzero;stroke:none"
     d="M 897.09411,288.17578 C 818.71911,141.24219 666.43786,50.015627 499.78942,50.015627 c -73.26953,0 -146.3789,18.355469 -211.5039,53.074223 C 182.29333,159.67969 104.63317,254.17578 69.676143,369.10547 34.719112,484.11719 46.609737,605.83203 103.19958,711.82422 c 78.375,146.93359 230.65625,238.16015 397.30859,238.16015 73.26563,0 146.375,-18.35546 211.42188,-53.07421 C 930.85583,780.14453 1013.8636,507.02344 897.09411,288.17578 Z M 696.04723,867.05859 c -60.17968,32.08594 -127.78125,49.08594 -195.53906,49.08594 -154.12109,0 -294.91015,-84.44141 -367.46093,-220.28516 -52.355472,-98.08984 -63.371097,-210.625 -31.04688,-316.93359 32.32422,-106.3125 104.15625,-193.70703 202.16797,-246.0664 60.17578,-32.08203 127.77734,-49.082034 195.53906,-49.082034 154.12109,0 294.91016,84.441404 367.45703,220.281244 108.06641,202.48438 31.28906,455.01172 -171.11719,563 z m 0,0"
     id="path6" />
  <path
     style="fill:#000000;fill-opacity:1;fill-rule:nonzero;stroke:none"
     d="m 709.69567,794.19141 c -85.16015,60.65625 -192.42969,81.32812 -294.10937,56.90625 -2.39453,-0.5586 -4.8711,0.875 -5.42969,3.35156 -0.55859,2.39453 0.87891,4.86719 3.35547,5.42578 28.65234,6.86328 57.78125,10.29687 86.7539,10.29687 76.30079,0 151.48438,-23.54687 214.69922,-68.64062 1.99219,-1.43359 2.47266,-4.23047 1.03516,-6.30469 -1.51563,-1.99609 -4.30859,-2.47265 -6.30469,-1.03515 z m 0,0"
     id="path8" />
  <path
     style="fill:#000000;fill-opacity:1;fill-rule:nonzero;stroke:none"
     d="m 425.88317,822.84375 c -0.48047,2.3125 0.95703,4.62891 3.26953,5.10547 23.46485,5.10937 47.25,7.58203 70.95313,7.58203 54.7539,0 109.18359,-13.40625 158.03125,-39.50391 2.07422,-1.12109 2.87109,-3.7539 1.7539,-5.82812 -1.11718,-2.07422 -3.66796,-2.875 -5.82421,-1.75781 -68.32032,36.47656 -147.57422,47.49218 -223.15625,31.1289 -2.23438,-0.55859 -4.55079,0.95703 -5.02735,3.27344 z m 0,0"
     id="path10" />
  <path
     style="fill:#000000;fill-opacity:1;fill-rule:nonzero;stroke:none"
     d="m 500.50817,804.32422 c 43.89453,0 87.39453,-9.57422 127.9375,-28.41016 2.07422,-0.96094 2.95313,-3.35156 1.9961,-5.42969 -0.95704,-2.07421 -3.35157,-2.95312 -5.42579,-1.99609 -55.71093,25.94141 -117.08593,33.84375 -177.42578,22.90625 -2.23437,-0.31641 -4.30859,1.03906 -4.70703,3.27344 -0.40234,2.23437 1.03516,4.3125 3.26953,4.78906 18.03907,3.27344 36.23438,4.86719 54.35547,4.86719 z m 0,0"
     id="path12" />
  <path
     style="fill:#000000;fill-opacity:1;fill-rule:nonzero;stroke:none"
     d="m 653.90661,163.35156 c -2.23438,-1.03906 -4.94922,0 -5.98438,2.23438 -1.03906,2.23437 0,4.94531 2.23438,5.98437 95.13672,43.41797 166.64844,125.86328 196.33984,226.26953 0.5586,1.91407 2.39453,3.19141 4.3086,3.19141 0.39843,0 0.8789,-0.0781 1.27734,-0.16016 2.39453,-0.71875 3.75,-3.1914 3.03125,-5.58593 C 824.78552,292.32812 751.43786,207.80469 653.90661,163.35156 Z m 0,0"
     id="path14" />
  <path
     style="fill:#000000;fill-opacity:1;fill-rule:nonzero;stroke:none"
     d="m 811.45739,400.15234 c 0.55859,1.83594 2.23438,2.95313 4.07031,2.95313 0.48047,0 0.87891,-0.0781 1.27735,-0.23828 2.23437,-0.71875 3.51172,-3.11328 2.79297,-5.34766 -24.1836,-75.58203 -74.70313,-140.30859 -142.14844,-182.37109 -1.99219,-1.27735 -4.62891,-0.64063 -5.90625,1.35547 -1.27344,1.99609 -0.63672,4.6289 1.35937,5.90625 65.76563,41.02343 115.00782,104.07812 138.55469,177.74218 z m 0,0"
     id="path16" />
  <path
     style="fill:#000000;fill-opacity:1;fill-rule:nonzero;stroke:none"
     d="m 670.26989,257.6875 c 50.28125,35.35937 87.87109,84.52344 108.54297,142.14844 0.64062,1.67578 2.15625,2.71093 3.83203,2.71093 0.48047,0 0.95703,-0.0781 1.35547,-0.23828 2.15625,-0.71875 3.19531,-3.11328 2.47656,-5.1875 C 765.24645,337.82031 726.61755,287.30078 674.8988,251.0625 c -1.83594,-1.27734 -4.39063,-0.875 -5.66797,0.96094 -1.27735,1.83593 -0.79688,4.38672 1.03906,5.66406 z m 0,0"
     id="path18" />
  <path
     style="fill:#000000;fill-opacity:1;fill-rule:nonzero;stroke:none"
     d="m 136.16052,539.26953 c 0.16015,0 0.32031,0 0.39844,0 2.47656,-0.24219 4.3125,-2.47656 4.07031,-4.87109 -9.97656,-104.07422 25.69922,-207.27344 97.77343,-283.17578 1.67578,-1.83594 1.67578,-4.62891 -0.16015,-6.38282 -1.83594,-1.75781 -4.62891,-1.59765 -6.38672,0.16016 -73.90625,77.81641 -110.37891,183.56641 -100.16406,290.19922 0.23828,2.3125 2.15625,4.07031 4.46875,4.07031 z m 0,0"
     id="path20" />
  <path
     style="fill:#000000;fill-opacity:1;fill-rule:nonzero;stroke:none"
     d="m 168.9652,493.21484 c 0.0781,0 0.0781,0 0.16016,0 2.3125,0 4.23047,-1.83593 4.30859,-4.14843 2.55469,-77.33985 32.64453,-151.56641 84.60157,-208.78907 1.59765,-1.75781 1.4375,-4.47265 -0.32032,-6.0664 -1.7539,-1.59766 -4.46875,-1.4375 -6.0664,0.3164 -53.3125,58.82422 -84.19922,134.88672 -86.83594,214.30078 0,2.39063 1.83594,4.3086 4.15234,4.38672 z m 0,0"
     id="path22" />
  <path
     style="fill:#000000;fill-opacity:1;fill-rule:nonzero;stroke:none"
     d="m 200.80895,477.57422 c 0.16016,0 0.23828,0 0.39844,0 2.07813,0 3.91016,-1.59766 4.07031,-3.75391 5.42969,-61.21484 29.21094,-118.28125 68.87891,-165.05078 1.4375,-1.75781 1.27734,-4.3125 -0.47656,-5.74609 -1.67578,-1.4375 -4.3125,-1.27735 -5.7461,0.47656 -40.70703,48.04687 -65.20703,106.71094 -70.79687,169.60156 -0.23828,2.31641 1.4375,4.23047 3.67187,4.47266 z m 0,0"
     id="path24" />
  <path
     style="fill:#000000;fill-opacity:1;fill-rule:nonzero;stroke:none"
     d="m 774.82458,507.74219 c -34.87891,3.11328 -60.42188,34.8789 -94.26172,40.0664 -12.84766,1.9961 -25.69922,1.51563 -38.30859,-0.64062 18.4375,-55.23047 2.71484,-116.28516 -39.42969,-156.03125 14.44922,-24.58203 25.54297,-48.76563 31.92578,-63.45313 45.09375,-104.23437 -8.46094,-246.859369 -141.02734,-217.01171 -33.28125,7.5039 -95.9375,31.04687 -117.2461,59.14453 -20.11328,26.49609 -27.13672,59.61718 -6.86328,88.26953 20.11328,28.57422 60.41797,34.8789 81.80859,61.61718 8.14063,10.21485 14.28516,21.62891 18.67579,33.67969 -40.46485,8.30078 -77.33985,33.04297 -99.60547,71.67188 -7.50391,12.92968 -12.69141,26.5 -15.96485,40.30468 -28.49218,-0.23828 -54.91015,2.23829 -70.79297,4.07422 -112.77343,13.08594 -209.507806,130.73047 -117.40624,230.65625 23.14843,25.0625 74.86718,67.52344 109.90234,71.99219 33.04297,4.14844 65.20703,-6.30469 79.89453,-38.23047 14.68359,-31.76562 0,-69.75781 12.37109,-101.67969 4.70703,-12.13281 11.57422,-23.0664 19.71485,-32.88671 10.375,11.73437 22.74609,22.03125 37.03125,30.33203 37.11328,21.46875 79.65234,25.05859 117.72265,13.64843 14.04688,24.82032 29.45313,46.52735 38.94922,59.37891 67.76172,91.14453 217.96875,116.04688 258.4336,-13.64844 10.21875,-32.64453 21.07031,-98.5664 7.42187,-131.13281 -12.84766,-30.64844 -37.91016,-53.23437 -72.94531,-50.12109 z M 546.3988,580.13281 c -44.29688,25.53906 -100.88282,10.375 -126.42188,-33.83984 -25.54297,-44.21875 -10.3789,-100.88672 33.83985,-126.42578 44.21484,-25.53907 100.88281,-10.375 126.42187,33.92187 25.62109,44.21485 10.45703,100.80469 -33.83984,126.34375 z m 0,0"
     id="path26" />
</svg>
