<?xml version="1.0" encoding="UTF-8" standalone="no"?>
<!-- Created with Inkscape (http://www.inkscape.org/) -->

<svg
   width="1000"
   height="1000"
   version="1.1"
   id="svg8"
   xmlns="http://www.w3.org/2000/svg"
   xmlns:svg="http://www.w3.org/2000/svg"
   xmlns:rdf="http://www.w3.org/1999/02/22-rdf-syntax-ns#"
   xmlns:cc="http://creativecommons.org/ns#"
   xmlns:dc="http://purl.org/dc/elements/1.1/">
  <defs
     id="defs5498" />
  <metadata
     id="metadata5594">
    <rdf:RDF>
      <cc:Work
         rdf:about="">
        <dc:format>image/svg+xml</dc:format>
        <dc:type
           rdf:resource="http://purl.org/dc/dcmitype/StillImage" />
      </cc:Work>
    </rdf:RDF>
  </metadata>
  <path
     style="fill:#000000;fill-opacity:1;fill-rule:nonzero;stroke:none"
     d="m 915.19922,297.39844 v -73.96875 c 0,-19.03907 -15.54297,-34.57032 -34.59766,-34.57032 -19.05859,0 -34.60156,15.53125 -34.60156,34.57032 v 69.14062 h -34.60156 v -69.14062 c 0,-19.03907 -15.45313,-34.57032 -34.59766,-34.57032 -19.14453,0 -34.60156,15.53125 -34.60156,34.57032 v 73.96875 c -10.27344,5.96484 -17.30078,17.02343 -17.30078,29.74609 v 103.71094 c 0,19.04297 15.54687,34.57422 34.60156,34.57422 h 34.60156 v 207.42578 c 0,19.04297 -15.54687,34.57422 -34.60156,34.57422 -19.05469,0 -34.60156,-15.53125 -34.60156,-34.57422 0,-57.20703 -46.54297,-103.71094 -103.79688,-103.71094 V 85.144532 C 621.10156,66.10547 605.55469,50.57422 586.5,50.57422 H 102.10156 C 83.042969,50.57422 67.5,66.10547 67.5,85.144532 V 914.85547 c 0,19.03906 15.542969,34.57031 34.60156,34.57031 H 586.5 c 19.05469,0 34.60156,-15.44141 34.60156,-34.57031 V 638.28516 c 19.05469,0 34.59766,15.53125 34.59766,34.57031 0,57.21094 46.54297,103.71484 103.80078,103.71484 57.25781,0 103.80078,-46.5039 103.80078,-103.71484 V 465.42969 h 34.59766 c 19.14453,0 34.60156,-15.53125 34.60156,-34.57422 V 327.14453 c 0,-12.72266 -7.02344,-23.78125 -17.30078,-29.74609 z M 448.10156,223.42969 V 361.71484 H 240.5 V 223.42969 Z m 0,0"
     id="path6" />
</svg>
