<?xml version="1.0" encoding="UTF-8" standalone="no"?>
<!-- Created with Inkscape (http://www.inkscape.org/) -->

<svg
   width="1000"
   height="1000"
   version="1.1"
   id="svg8"
   xmlns="http://www.w3.org/2000/svg"
   xmlns:svg="http://www.w3.org/2000/svg"
   xmlns:rdf="http://www.w3.org/1999/02/22-rdf-syntax-ns#"
   xmlns:cc="http://creativecommons.org/ns#"
   xmlns:dc="http://purl.org/dc/elements/1.1/">
  <defs
     id="defs5498" />
  <metadata
     id="metadata5594">
    <rdf:RDF>
      <cc:Work
         rdf:about="">
        <dc:format>image/svg+xml</dc:format>
        <dc:type
           rdf:resource="http://purl.org/dc/dcmitype/StillImage" />
      </cc:Work>
    </rdf:RDF>
  </metadata>
  <path
     style="fill:#000000;fill-opacity:1;fill-rule:nonzero;stroke:none"
     d="M 815,320 H 185 C 110.30078,320 50,380.30078 50,455 V 725 H 230 V 905 H 770 V 725 H 950 V 455 C 950,380.30078 889.69922,320 815,320 Z M 680,815 H 320 V 590 H 680 Z M 815,500 c -24.75,0 -45,-20.25 -45,-45 0,-24.75 20.25,-45 45,-45 24.75,0 45,20.25 45,45 0,24.75 -20.25,45 -45,45 z M 770,95 H 230 v 180 h 540 z m 0,0"
     id="path6" />
</svg>
