<?xml version="1.0" encoding="UTF-8" standalone="no"?>
<!-- Created with Inkscape (http://www.inkscape.org/) -->

<svg
   width="1000"
   height="1000"
   version="1.1"
   id="svg8"
   xmlns="http://www.w3.org/2000/svg"
   xmlns:svg="http://www.w3.org/2000/svg"
   xmlns:rdf="http://www.w3.org/1999/02/22-rdf-syntax-ns#"
   xmlns:cc="http://creativecommons.org/ns#"
   xmlns:dc="http://purl.org/dc/elements/1.1/">
  <defs
     id="defs5498" />
  <metadata
     id="metadata5594">
    <rdf:RDF>
      <cc:Work
         rdf:about="">
        <dc:format>image/svg+xml</dc:format>
        <dc:type
           rdf:resource="http://purl.org/dc/dcmitype/StillImage" />
      </cc:Work>
    </rdf:RDF>
  </metadata>
  <path
     style="fill:#000000;fill-opacity:1;fill-rule:nonzero;stroke:none"
     d="M 815,140 H 770 V 50 h -90 v 90 H 320 V 50 h -90 v 90 h -45 c -49.94922,0 -90,40.5 -90,90 v 630 c 0,49.5 40.05078,90 90,90 h 630 c 49.5,0 90,-40.5 90,-90 V 230 c 0,-49.5 -40.5,-90 -90,-90 z M 500,275 c 74.69922,0 135,60.30078 135,135 0,74.69922 -60.30078,135 -135,135 -74.69922,0 -135,-60.30078 -135,-135 0,-74.69922 60.30078,-135 135,-135 z M 770,815 H 230 v -45 c 0,-90 180,-139.5 270,-139.5 90,0 270,49.5 270,139.5 z m 0,0"
     id="path6" />
</svg>
