<?xml version="1.0" encoding="UTF-8" standalone="no"?>
<!-- Created with Inkscape (http://www.inkscape.org/) -->

<svg
   width="1000"
   height="1000"
   version="1.1"
   id="svg8"
   xmlns="http://www.w3.org/2000/svg"
   xmlns:svg="http://www.w3.org/2000/svg"
   xmlns:rdf="http://www.w3.org/1999/02/22-rdf-syntax-ns#"
   xmlns:cc="http://creativecommons.org/ns#"
   xmlns:dc="http://purl.org/dc/elements/1.1/">
  <defs
     id="defs5498" />
  <metadata
     id="metadata5594">
    <rdf:RDF>
      <cc:Work
         rdf:about="">
        <dc:format>image/svg+xml</dc:format>
        <dc:type
           rdf:resource="http://purl.org/dc/dcmitype/StillImage" />
      </cc:Work>
    </rdf:RDF>
  </metadata>
  <path
     style="fill:#000000;fill-opacity:1;fill-rule:nonzero;stroke:none"
     d="M 860,185 H 717.35156 L 635,95 H 365 l -82.35156,90 H 140 c -49.5,0 -90,40.5 -90,90 v 540 c 0,49.5 40.5,90 90,90 H 455 V 810.94922 C 327.64844,789.35156 230,678.64844 230,545 h 90 c 0,99.44922 80.55078,180 180,180 99.44922,0 180,-80.55078 180,-180 h 90 c 0,133.64844 -97.64844,244.35156 -225,265.94922 V 905 h 315 c 49.5,0 90,-40.5 90,-90 V 275 c 0,-49.5 -40.5,-90 -90,-90 z M 590,545 c 0,49.5 -40.5,90 -90,90 -49.5,0 -90,-40.5 -90,-90 V 365 c 0,-49.5 40.5,-90 90,-90 49.5,0 90,40.5 90,90 z m 0,0"
     id="path6" />
</svg>
