<?xml version="1.0" encoding="UTF-8" standalone="no"?>
<!-- Created with Inkscape (http://www.inkscape.org/) -->

<svg
   width="1000"
   height="1000"
   version="1.1"
   id="svg8"
   xmlns="http://www.w3.org/2000/svg"
   xmlns:svg="http://www.w3.org/2000/svg"
   xmlns:rdf="http://www.w3.org/1999/02/22-rdf-syntax-ns#"
   xmlns:cc="http://creativecommons.org/ns#"
   xmlns:dc="http://purl.org/dc/elements/1.1/">
  <defs
     id="defs5498" />
  <metadata
     id="metadata5594">
    <rdf:RDF>
      <cc:Work
         rdf:about="">
        <dc:format>image/svg+xml</dc:format>
        <dc:type
           rdf:resource="http://purl.org/dc/dcmitype/StillImage" />
      </cc:Work>
    </rdf:RDF>
  </metadata>
  <path
     style="fill:#000000;fill-opacity:1;fill-rule:nonzero;stroke:none"
     d="M 500,50 C 251.5,50 50,251.5 50,500 c 0,248.5 201.5,450 450,450 41.5,0 75,-33.5 75,-75 0,-19.5 -7.5,-37 -19.5,-50.5 -11.5,-13 -19,-30.5 -19,-49.5 0,-41.5 33.5,-75 75,-75 H 700 C 838,700 950,588 950,450 950,229 748.5,50 500,50 Z M 225,500 c -41.5,0 -75,-33.5 -75,-75 0,-41.5 33.5,-75 75,-75 41.5,0 75,33.5 75,75 0,41.5 -33.5,75 -75,75 z M 375,300 c -41.5,0 -75,-33.5 -75,-75 0,-41.5 33.5,-75 75,-75 41.5,0 75,33.5 75,75 0,41.5 -33.5,75 -75,75 z m 250,0 c -41.5,0 -75,-33.5 -75,-75 0,-41.5 33.5,-75 75,-75 41.5,0 75,33.5 75,75 0,41.5 -33.5,75 -75,75 z m 150,200 c -41.5,0 -75,-33.5 -75,-75 0,-41.5 33.5,-75 75,-75 41.5,0 75,33.5 75,75 0,41.5 -33.5,75 -75,75 z m 0,0"
     id="path6" />
</svg>
