<?xml version="1.0" encoding="UTF-8" standalone="no"?>
<!-- Created with Inkscape (http://www.inkscape.org/) -->

<svg
   width="1000"
   height="1000"
   version="1.1"
   id="svg8"
   xmlns="http://www.w3.org/2000/svg"
   xmlns:svg="http://www.w3.org/2000/svg"
   xmlns:rdf="http://www.w3.org/1999/02/22-rdf-syntax-ns#"
   xmlns:cc="http://creativecommons.org/ns#"
   xmlns:dc="http://purl.org/dc/elements/1.1/">
  <defs
     id="defs5498" />
  <metadata
     id="metadata5594">
    <rdf:RDF>
      <cc:Work
         rdf:about="">
        <dc:format>image/svg+xml</dc:format>
        <dc:type
           rdf:resource="http://purl.org/dc/dcmitype/StillImage" />
      </cc:Work>
    </rdf:RDF>
  </metadata>
  <path
     style="fill:#000000;fill-opacity:1;fill-rule:nonzero;stroke:none"
     d="M 125,275 H 50 v 187.5 h 0.375 L 50,800 c 0,41.25 33.75,75 75,75 H 800 V 800 H 125 Z M 875,200 H 575 L 500,125 H 275 c -41.25,0 -74.625,33.75 -74.625,75 L 200,650 c 0,41.25 33.75,75 75,75 h 600 c 41.25,0 75,-33.75 75,-75 V 275 c 0,-41.25 -33.75,-75 -75,-75 z M 312.5,612.5 481.25,387.5 612.5,556.625 706.25,443.75 837.5,612.5 Z m 0,0"
     id="path6" />
</svg>
