<?xml version="1.0" encoding="UTF-8" standalone="no"?>
<!-- Created with Inkscape (http://www.inkscape.org/) -->

<svg
   width="1000"
   height="1000"
   version="1.1"
   id="svg8"
   xmlns="http://www.w3.org/2000/svg"
   xmlns:svg="http://www.w3.org/2000/svg"
   xmlns:rdf="http://www.w3.org/1999/02/22-rdf-syntax-ns#"
   xmlns:cc="http://creativecommons.org/ns#"
   xmlns:dc="http://purl.org/dc/elements/1.1/">
  <defs
     id="defs5498" />
  <metadata
     id="metadata5594">
    <rdf:RDF>
      <cc:Work
         rdf:about="">
        <dc:format>image/svg+xml</dc:format>
        <dc:type
           rdf:resource="http://purl.org/dc/dcmitype/StillImage" />
      </cc:Work>
    </rdf:RDF>
  </metadata>
  <path
     style="fill:#000000;fill-opacity:1;fill-rule:nonzero;stroke:none"
     d="M 499.55078,50 C 251.14844,50 50,251.60156 50,500 50,748.39844 251.14844,950 499.55078,950 748.39844,950 950,748.39844 950,500 950,251.60156 748.39844,50 499.55078,50 Z M 500,860 C 301.10156,860 140,698.89844 140,500 140,301.10156 301.10156,140 500,140 698.89844,140 860,301.10156 860,500 860,698.89844 698.89844,860 500,860 Z M 522.5,275 H 455 V 545 L 691.25,686.75 725,631.39844 522.5,511.25 Z m 0,0"
     id="path6" />
</svg>
