<?xml version="1.0" encoding="UTF-8" standalone="no"?>
<!-- Created with Inkscape (http://www.inkscape.org/) -->

<svg
   width="1000"
   height="1000"
   version="1.1"
   id="svg8"
   xmlns="http://www.w3.org/2000/svg"
   xmlns:svg="http://www.w3.org/2000/svg"
   xmlns:rdf="http://www.w3.org/1999/02/22-rdf-syntax-ns#"
   xmlns:cc="http://creativecommons.org/ns#"
   xmlns:dc="http://purl.org/dc/elements/1.1/">
  <defs
     id="defs5498" />
  <metadata
     id="metadata5594">
    <rdf:RDF>
      <cc:Work
         rdf:about="">
        <dc:format>image/svg+xml</dc:format>
        <dc:type
           rdf:resource="http://purl.org/dc/dcmitype/StillImage" />
      </cc:Work>
    </rdf:RDF>
  </metadata>
  <path
     style="fill:#000000;fill-opacity:1;fill-rule:nonzero;stroke:none"
     d="M 939.125,696.63672 C 824.75,588.1875 670.25,521.39062 500,521.39062 c -170.25,0 -324.75,66.79688 -439.125,175.2461 C 54.125,703.39453 50,712.77344 50,723.28125 c 0,10.50781 4.125,19.89062 10.875,26.64453 l 93,93.06641 c 6.75,6.7539 16.125,10.88281 26.625,10.88281 10.125,0 19.5,-4.12891 26.25,-10.50781 29.625,-27.76953 63.375,-51.03907 99.75,-69.42578 12.375,-6.00391 21,-18.76172 21,-33.77344 V 623.83594 C 381.875,605.82422 440,596.44141 500,596.44141 c 60,0 118.125,9.38281 172.5,27.01953 v 116.33203 c 0,14.63672 8.625,27.76953 21,33.77344 36.75,18.38671 70.125,42.03125 99.75,69.42578 6.75,6.7539 16.125,10.5039 26.25,10.5039 10.5,0 19.875,-4.125 26.625,-10.8789 l 93,-93.06641 c 6.75,-6.75391 10.875,-16.13672 10.875,-26.64453 0,-10.13281 -4.125,-19.51172 -10.875,-26.26953 z M 843.5,305.98828 790.625,253.07813 657.125,386.29687 710,439.20703 c 0,0 129.375,-132.09375 133.5,-133.21875 z M 537.5,146.125 h -75 v 187.63281 h 75 z M 290,439.20703 342.875,386.29687 209.75,252.70313 156.5,305.98828 c 4.125,1.125 133.5,133.21875 133.5,133.21875 z m 0,0"
     id="path6" />
</svg>
