<?xml version="1.0" encoding="UTF-8" standalone="no"?>
<!-- Created with Inkscape (http://www.inkscape.org/) -->

<svg
   width="1000"
   height="1000"
   version="1.1"
   id="svg16"
   xmlns="http://www.w3.org/2000/svg"
   xmlns:svg="http://www.w3.org/2000/svg"
   xmlns:rdf="http://www.w3.org/1999/02/22-rdf-syntax-ns#"
   xmlns:cc="http://creativecommons.org/ns#"
   xmlns:dc="http://purl.org/dc/elements/1.1/">
  <defs
     id="defs5498" />
  <metadata
     id="metadata5594">
    <rdf:RDF>
      <cc:Work
         rdf:about="">
        <dc:format>image/svg+xml</dc:format>
        <dc:type
           rdf:resource="http://purl.org/dc/dcmitype/StillImage" />
      </cc:Work>
    </rdf:RDF>
  </metadata>
  <path
     style="fill:#000000;fill-opacity:1;fill-rule:nonzero;stroke:none"
     d="m 822.94531,321.94922 c -45.99609,-96.99219 -133,-141.01172 -136.96484,-142.99219 -1.98438,-1.03125 -6.02735,0 -6.98047,1.98047 L 549.96484,401.97266 c -1.03125,1.98437 -1.03125,6.02734 1.98438,6.98046 59.95703,36.95704 54.00781,93.03125 54.00781,95.01172 0,1.98438 0,3.01563 1.03125,3.96485 1.03125,0.95312 1.98438,1.98437 3.96484,1.98437 h 248 c 3.01563,0 4.9961,-1.98437 4.9961,-4.99609 0,-3.01563 3.96484,-87.95313 -41.00391,-182.96875 z M 616.98047,500 c 0,-16.01953 -3.96485,-62.97266 -54.96094,-96.99609 L 685.98047,191.01172 c 18.0039,9.99219 88.98437,54.00781 128.0039,136.01562 36.95704,78.99219 39.97266,152.98828 39.97266,172.97266 z m 0,0"
     id="path6" />
  <path
     style="fill:#000000;fill-opacity:1;fill-rule:nonzero;stroke:none"
     d="m 417.99609,500 c 0,44.96875 36.00391,80.97266 80.97266,80.97266 44.96875,0 80.97656,-36.00391 80.97656,-80.97266 0,-44.96875 -36.00781,-80.97656 -80.97656,-80.97656 C 454,419.02344 417.99609,454.95312 417.99609,500 Z M 500,429.96875 c 39.01953,0 70.98047,31.96094 70.98047,70.98437 0,39.01954 -31.96094,70.98047 -70.98047,70.98047 -39.01953,0 -70.98047,-31.96093 -70.98047,-70.98047 -0.082,-39.97265 31.96094,-70.98437 70.98047,-70.98437 z m 0,0"
     id="path8" />
  <path
     style="fill:#000000;fill-opacity:1;fill-rule:nonzero;stroke:none"
     d="m 393.01172,507.92969 c 1.03125,-1.03125 1.03125,-3.01172 1.03125,-3.96485 0,-0.95312 -6.02735,-57.97265 54.00781,-95.01172 1.98438,-1.98437 3.01563,-4.99609 1.98438,-6.98046 L 321,181.96875 c -1.03125,-1.98047 -3.96484,-3.01172 -6.98047,-1.98047 -3.01172,1.03125 -78.99219,37.03516 -133.95312,139.02734 -42.98438,80.02344 -44.01563,182.01563 -44.01563,185.98047 0,1.03125 1.03125,3.01563 1.98438,3.96485 0,1.03125 1.98046,1.03125 3.01171,1.03125 h 248 c 1.90235,0 2.9336,0 3.96485,-2.0625 z M 146.99609,500 c 1.03125,-21.96875 6.02735,-108.97266 42.98438,-175.98828 46,-85.01953 108.01953,-123.00781 123.96094,-131.96875 l 123.96093,211.99219 c -50.99609,34.02343 -54.96093,80.02343 -54.96093,96.99609 l -235.94532,-0.0781 z m 0,0"
     id="path10" />
  <path
     style="fill:#000000;fill-opacity:1;fill-rule:nonzero;stroke:none"
     d="m 565.98437,594.93359 c -1.03125,-1.03125 -1.98046,-1.98437 -3.96484,-3.01562 -1.03125,0 -3.01172,0 -3.96484,1.03125 0,0 -21.01563,14.99219 -52.98047,14.99219 -19.03125,0 -37.98828,-5 -57.02344,-16.02344 -3.01172,-1.03125 -6.02734,-1.03125 -6.97656,1.98437 L 311.95703,813.98437 c -1.03125,1.98438 -1.03125,6.02735 1.98438,6.98047 3.01171,1.98047 77.96093,49.96485 185.98046,49.96485 118.96094,0 182.96485,-52.02735 185.98047,-54.01172 1.98047,-1.98047 1.98047,-3.96485 1.03125,-6.97656 z M 500,861.96484 c -90.96875,0 -157.98438,-36.0039 -175.98828,-45.99609 L 447.97266,605.00391 c 19.03515,9.99218 37.98828,14.03906 57.02343,14.03906 26.01563,0 44.96875,-8.96094 54.01172,-14.03906 L 675.03516,812 C 660.91797,822.94531 599.92969,861.96484 500,861.96484 Z m 0,0"
     id="path12" />
  <path
     style="fill:#000000;fill-opacity:1;fill-rule:nonzero;stroke:none"
     d="M 500,50 C 252,50 50,252 50,500 50,748 252,950 500,950 748,950 950,748 950,500 949.92187,252 747.92187,50 500,50 Z m 0,888.97656 C 258.02734,938.97656 61.023438,741.97266 61.023438,500 61.023438,258.02734 258.02734,61.023438 500,61.023438 741.97266,61.023438 938.97656,258.02734 938.97656,500 938.97656,741.97266 741.97266,938.97656 500,938.97656 Z m 0,0"
     id="path14" />
</svg>
