<?xml version="1.0" encoding="UTF-8" standalone="no"?>
<!-- Created with Inkscape (http://www.inkscape.org/) -->

<svg
   width="1000"
   height="1000"
   version="1.1"
   id="svg8"
   xmlns="http://www.w3.org/2000/svg"
   xmlns:svg="http://www.w3.org/2000/svg"
   xmlns:rdf="http://www.w3.org/1999/02/22-rdf-syntax-ns#"
   xmlns:cc="http://creativecommons.org/ns#"
   xmlns:dc="http://purl.org/dc/elements/1.1/">
  <defs
     id="defs5498" />
  <metadata
     id="metadata5594">
    <rdf:RDF>
      <cc:Work
         rdf:about="">
        <dc:format>image/svg+xml</dc:format>
        <dc:type
           rdf:resource="http://purl.org/dc/dcmitype/StillImage" />
      </cc:Work>
    </rdf:RDF>
  </metadata>
  <path
     style="fill:#000000;fill-opacity:1;fill-rule:nonzero;stroke:none"
     d="M 850,850 H 950 V 950 H 850 Z m 0,-100 H 950 V 650 H 850 Z M 50,550 H 150 V 450 H 50 Z m 0,200 H 150 V 650 H 50 Z M 50,350 H 150 V 250 H 50 Z M 50,150 H 150 V 50 H 50 Z m 200,0 H 350 V 50 H 250 Z M 650,950 H 750 V 850 H 650 Z m -200,0 H 550 V 850 H 450 Z m 200,0 H 750 V 850 H 650 Z m -400,0 H 350 V 850 H 250 Z M 50,950 H 150 V 850 H 50 Z M 950,300 C 950,162 838,50 700,50 H 450 v 100 h 250 c 82.5,0 150,67.5 150,150 v 250 h 100 z m 0,0"
     id="path6" />
</svg>
