<?xml version="1.0" encoding="UTF-8" standalone="no"?>
<!-- Created with Inkscape (http://www.inkscape.org/) -->

<svg
   width="1000"
   height="1000"
   version="1.1"
   id="svg8"
   xmlns="http://www.w3.org/2000/svg"
   xmlns:svg="http://www.w3.org/2000/svg"
   xmlns:rdf="http://www.w3.org/1999/02/22-rdf-syntax-ns#"
   xmlns:cc="http://creativecommons.org/ns#"
   xmlns:dc="http://purl.org/dc/elements/1.1/">
  <defs
     id="defs5498" />
  <metadata
     id="metadata5594">
    <rdf:RDF>
      <cc:Work
         rdf:about="">
        <dc:format>image/svg+xml</dc:format>
        <dc:type
           rdf:resource="http://purl.org/dc/dcmitype/StillImage" />
      </cc:Work>
    </rdf:RDF>
  </metadata>
  <path
     style="fill:#000000;fill-opacity:1;fill-rule:nonzero;stroke:none"
     d="M 343.53125,578.17578 167.5,754.06641 l 58.67578,58.6289 136.91406,-136.80469 h 78.23438 z M 597.79297,50.5 c -43.02735,0 -78.23438,35.179688 -78.23438,78.17578 0,42.99219 35.20703,78.17188 78.23438,78.17188 43.03125,0 78.23828,-35.17969 78.23828,-78.17188 C 676.03125,85.679688 640.82422,50.5 597.79297,50.5 Z M 832.5,832.62891 715.14844,949.5 598.18359,831.84766 V 773.60937 L 320.44922,496.48047 c -12.125,1.95703 -23.85938,2.73828 -35.59766,2.73828 v -84.42969 c 64.9375,1.17578 141.21485,-34.0039 182.67969,-79.73437 l 54.76562,-60.58594 c 7.4336,-8.20703 16.82032,-14.85547 26.99219,-19.54297 11.34375,-5.47266 24.25391,-8.99219 37.55078,-8.99219 h 1.17578 c 48.50391,0.39063 88.01563,39.8711 88.01563,88.33594 v 224.75 c 0,32.83594 -13.69141,62.93359 -35.98828,84.42969 L 500,503.51953 v -88.73047 c -24.64453,20.32813 -55.9375,39.8711 -89.57813,54.33203 l 246.04688,245.85547 h 58.67969 z m 0,0"
     id="path6" />
</svg>
