<?xml version="1.0" encoding="UTF-8" standalone="no"?>
<!-- Created with Inkscape (http://www.inkscape.org/) -->

<svg
   width="1000"
   height="1000"
   version="1.1"
   id="svg8"
   xmlns="http://www.w3.org/2000/svg"
   xmlns:svg="http://www.w3.org/2000/svg"
   xmlns:rdf="http://www.w3.org/1999/02/22-rdf-syntax-ns#"
   xmlns:cc="http://creativecommons.org/ns#"
   xmlns:dc="http://purl.org/dc/elements/1.1/">
  <defs
     id="defs5498" />
  <metadata
     id="metadata5594">
    <rdf:RDF>
      <cc:Work
         rdf:about="">
        <dc:format>image/svg+xml</dc:format>
        <dc:type
           rdf:resource="http://purl.org/dc/dcmitype/StillImage" />
      </cc:Work>
    </rdf:RDF>
  </metadata>
  <path
     style="fill:#000000;fill-opacity:1;fill-rule:nonzero;stroke:none"
     d="M 500,50 C 251.05078,50 50,250.96875 50,500 50,748.94922 250.96875,950 500,950 749.03125,950 950,749.03125 950,500 949.92187,250.96875 748.95312,50 500,50 Z m 0,372.99219 c 42.03516,0 77.00781,34.02343 77.00781,77.00781 0,42.03516 -34.02344,77.00781 -77.00781,77.00781 -42.98438,0 -77.00781,-34.02344 -77.00781,-77.00781 0,-42.03516 33.9414,-77.00781 77.00781,-77.00781 z m -362.99609,82.0039 c 0,0 1.03125,-105.0039 44.01562,-185.98047 55.99219,-103.02343 133,-139.02734 133,-139.02734 l 131.01953,223.01563 c -65.03515,39.97265 -57.02344,101.99218 -57.02344,101.99218 z M 500,870.92969 c -108.96875,0 -184.94922,-49.96485 -184.94922,-49.96485 L 446.07031,597.94531 c 65.98438,37.03906 116.02735,0 116.02735,0 L 684.07812,816.91797 C 683.91797,817.94922 619.99609,870.92969 500,870.92969 Z m 111.98437,-365.9336 c 0,0 8.01172,-62.01953 -57.02343,-101.99218 L 685.98047,179.98828 c 0,0 90.01562,44.01563 136.01562,141.96094 44.96875,95.01562 41,182.96875 41,182.96875 z m 0,0"
     id="path6" />
</svg>
