<?xml version="1.0" encoding="UTF-8" standalone="no"?>
<!-- Created with Inkscape (http://www.inkscape.org/) -->

<svg
   width="1000"
   height="1000"
   version="1.1"
   id="svg14"
   xmlns="http://www.w3.org/2000/svg"
   xmlns:svg="http://www.w3.org/2000/svg"
   xmlns:rdf="http://www.w3.org/1999/02/22-rdf-syntax-ns#"
   xmlns:cc="http://creativecommons.org/ns#"
   xmlns:dc="http://purl.org/dc/elements/1.1/">
  <defs
     id="defs5498" />
  <metadata
     id="metadata5594">
    <rdf:RDF>
      <cc:Work
         rdf:about="">
        <dc:format>image/svg+xml</dc:format>
        <dc:type
           rdf:resource="http://purl.org/dc/dcmitype/StillImage" />
      </cc:Work>
    </rdf:RDF>
  </metadata>
  <path
     style="fill:#000000;fill-opacity:1;fill-rule:nonzero;stroke:none"
     d="M 933.33203,283.41797 H 816.66797 v -8.375 c 0,-32.14844 -26.14453,-58.29297 -58.29297,-58.29297 h -50 c -32.14844,0 -58.28906,26.14453 -58.28906,58.29297 V 316.75 h -33.41797 v -41.70703 c 0,-32.14844 -26.14453,-58.29297 -58.29297,-58.29297 h -50 c -32.14844,0 -58.28906,26.14453 -58.28906,58.29297 V 316.75 H 416.75 V 275.04297 C 416.75,242.89453 390.60937,216.75 358.46094,216.75 h -50 c -32.14844,0 -58.29297,26.14453 -58.29297,58.29297 V 316.75 h -33.33203 v -41.70703 c 0,-32.14844 -26.14063,-58.29297 -58.29297,-58.29297 h -50.25 C 76.140625,216.75 50,242.89453 50,275.04297 V 891.70703 C 50,923.85937 76.140625,950 108.29297,950 h 50 c 32.14844,0 58.28906,-26.14063 58.28906,-58.29297 L 216.66797,816.75 H 250 v 74.95703 C 250,923.85937 276.14062,950 308.29297,950 h 50 c 32.14844,0 58.28906,-26.14063 58.28906,-58.29297 L 416.66797,816.75 H 450 v 74.95703 C 450,923.85937 476.14062,950 508.28906,950 h 50 c 32.15235,0 58.29297,-26.14063 58.29297,-58.29297 L 616.66797,816.75 H 650 v 74.95703 C 650,923.85937 676.14062,950 708.28906,950 h 50 c 32.15235,0 58.29297,-26.14063 58.29297,-58.29297 l 0.0859,-508.28906 h 116.6641 C 942.55469,383.41797 950,375.97266 950,366.75 v -66.66406 c 0,-9.22266 -7.44531,-16.66797 -16.66797,-16.66797 z m -750,608.28906 c 0,13.79297 -11.25,25.04297 -24.95703,25.04297 H 108.29297 C 94.5,916.75 83.332031,905.5 83.332031,891.70703 V 275.125 c 0,-13.78906 11.253907,-24.95703 24.960939,-24.95703 h 50 c 13.78906,0 24.95703,11.2539 24.95703,24.95703 z M 216.66797,783.41797 V 350.08594 H 250 v 433.33203 z m 166.66406,108.28906 c 0,13.79297 -11.25,25.04297 -24.95703,25.04297 h -50 c -13.78906,0 -24.95703,-11.25 -24.95703,-25.04297 L 283.33203,275.125 c 0,-13.78906 11.25391,-24.95703 24.96094,-24.95703 h 50 c 13.78906,0 24.95703,11.2539 24.95703,24.95703 z M 416.66797,783.41797 V 350.08594 H 450 v 433.33203 z m 166.66406,108.28906 c 0,13.79297 -11.25,25.04297 -24.95703,25.04297 h -50 c -13.78906,0 -24.95703,-11.25 -24.95703,-25.04297 L 483.33203,275.125 c 0,-13.78906 11.25391,-24.95703 24.95703,-24.95703 h 50 c 13.79297,0 24.96094,11.2539 24.96094,24.95703 z M 616.66797,783.41797 V 350.08594 H 650 v 433.33203 z m 166.66406,108.28906 c 0,13.79297 -11.25,25.04297 -25.04297,25.04297 h -50 C 694.5,916.75 683.33203,905.5 683.33203,891.70703 V 275.125 c 0,-13.78906 11.25391,-24.95703 24.95703,-24.95703 h 50 c 13.79297,0 25.04297,11.2539 25.04297,24.95703 z M 916.66797,350.08594 h -100 V 316.75 h 100 z m 0,0"
     id="path6" />
  <path
     style="fill:#000000;fill-opacity:1;fill-rule:nonzero;stroke:none"
     d="m 312.69141,166.75 c 0,9.22266 7.44531,16.66797 16.66406,16.66797 9.22265,0 16.66797,-7.44531 16.66797,-16.66797 0,-4.56641 0.67578,-6.00391 2.36718,-9.47266 2.3711,-4.99218 5.67188,-11.76172 5.67188,-23.94531 0,-12.09765 -3.30078,-18.94922 -5.67188,-23.9414 -1.6914,-3.46875 -2.36718,-4.90625 -2.36718,-9.476568 0,-4.484374 0.67578,-5.921874 2.36718,-9.390624 2.3711,-4.992188 5.67188,-11.757813 5.67188,-23.855469 C 354.0625,57.445312 346.61719,50 337.39453,50 c -9.22266,0 -16.66797,7.445312 -16.66797,16.667969 0,4.484375 -0.67578,5.921875 -2.36719,9.390625 -2.37109,4.992187 -5.66796,11.757812 -5.66796,23.855468 0,12.097658 3.29687,18.953128 5.66796,23.945318 1.69141,3.46875 2.36719,4.90624 2.36719,9.47265 0,4.57031 -0.67578,6.00781 -2.36719,9.47656 -2.45312,4.99219 -5.66796,11.84375 -5.66796,23.94141 z m 0,0"
     id="path8" />
  <path
     style="fill:#000000;fill-opacity:1;fill-rule:nonzero;stroke:none"
     d="m 412.69141,166.75 c 0,9.22266 7.44531,16.66797 16.66406,16.66797 9.22265,0 16.66797,-7.44531 16.66797,-16.66797 0,-4.56641 0.67578,-6.00391 2.36718,-9.47266 2.3711,-4.99218 5.67188,-11.76172 5.67188,-23.94531 0,-12.09765 -3.30078,-18.94922 -5.67188,-23.9414 -1.6914,-3.46875 -2.36718,-4.90625 -2.36718,-9.476568 0,-4.484374 0.67578,-5.921874 2.36718,-9.390624 2.3711,-4.992188 5.67188,-11.757813 5.67188,-23.855469 C 454.0625,57.445312 446.61719,50 437.39453,50 c -9.22266,0 -16.66797,7.445312 -16.66797,16.667969 0,4.484375 -0.67578,5.921875 -2.36719,9.390625 -2.37109,4.992187 -5.66796,11.757812 -5.66796,23.855468 0,12.097658 3.29687,18.953128 5.66796,23.945318 1.69141,3.46875 2.36719,4.90624 2.36719,9.47265 0,4.57031 -0.67578,6.00781 -2.36719,9.47656 -2.45312,4.99219 -5.66796,11.84375 -5.66796,23.94141 z m 0,0"
     id="path10" />
  <path
     style="fill:#000000;fill-opacity:1;fill-rule:nonzero;stroke:none"
     d="m 512.69141,166.75 c 0,9.22266 7.44531,16.66797 16.66406,16.66797 9.22265,0 16.66797,-7.44531 16.66797,-16.66797 0,-4.56641 0.67578,-6.00391 2.36718,-9.47266 2.3711,-4.99218 5.67188,-11.76172 5.67188,-23.94531 0,-12.09765 -3.30078,-18.94922 -5.67188,-23.9414 -1.6914,-3.46875 -2.36718,-4.90625 -2.36718,-9.476568 0,-4.484374 0.67578,-5.921874 2.36718,-9.390624 2.3711,-4.992188 5.67188,-11.757813 5.67188,-23.855469 C 554.0625,57.445312 546.61719,50 537.39453,50 c -9.22266,0 -16.66797,7.445312 -16.66797,16.667969 0,4.484375 -0.67578,5.921875 -2.36719,9.390625 -2.37109,4.992187 -5.66796,11.757812 -5.66796,23.855468 0,12.097658 3.29687,18.953128 5.66796,23.945318 1.69141,3.46875 2.36719,4.90624 2.36719,9.47265 0,4.57031 -0.67578,6.00781 -2.36719,9.47656 -2.45312,4.99219 -5.66796,11.84375 -5.66796,23.94141 z m 0,0"
     id="path12" />
</svg>
