<?xml version="1.0" encoding="UTF-8" standalone="no"?>
<!-- Created with Inkscape (http://www.inkscape.org/) -->

<svg
   width="1000"
   height="1000"
   version="1.1"
   id="svg18"
   xmlns="http://www.w3.org/2000/svg"
   xmlns:svg="http://www.w3.org/2000/svg"
   xmlns:rdf="http://www.w3.org/1999/02/22-rdf-syntax-ns#"
   xmlns:cc="http://creativecommons.org/ns#"
   xmlns:dc="http://purl.org/dc/elements/1.1/">
  <defs
     id="defs5498" />
  <metadata
     id="metadata5594">
    <rdf:RDF>
      <cc:Work
         rdf:about="">
        <dc:format>image/svg+xml</dc:format>
        <dc:type
           rdf:resource="http://purl.org/dc/dcmitype/StillImage" />
      </cc:Work>
    </rdf:RDF>
  </metadata>
  <path
     style="fill:#000000;fill-opacity:1;fill-rule:nonzero;stroke:none"
     d="m 352.125,312.63303 c -3.57031,0 -7.21094,-0.99609 -10.42188,-3.13672 -8.5664,-5.70703 -10.92187,-17.33203 -5.21093,-25.96093 25.05468,-37.58985 13.84765,-60.19922 -1.64063,-91.50782 -16.5625,-33.44921 -37.1914,-75.10156 1.64063,-133.304684 5.78125,-8.628906 17.48828,-10.910156 25.98437,-5.203125 8.56641,5.703125 10.92188,17.328125 5.21094,25.960938 -26.83984,40.226561 -14.63281,64.761721 0.78516,95.929691 16.20312,32.66406 36.33593,73.39062 -0.78516,128.8789 -3.57031,5.42188 -9.49609,8.34375 -15.5625,8.34375 z m 0,0"
     id="path6" />
  <path
     style="fill:#000000;fill-opacity:1;fill-rule:nonzero;stroke:none"
     d="m 501.53516,312.63303 c -3.57032,0 -7.21094,-0.99609 -10.42188,-3.13672 -8.56641,-5.70703 -10.92187,-17.33203 -5.21094,-25.96093 25.05469,-37.51563 13.84766,-60.19922 -1.64453,-91.50782 -16.55859,-33.44921 -37.1914,-75.10156 1.64453,-133.304684 5.71094,-8.628906 17.48828,-10.910156 25.98438,-5.203125 8.5664,5.703125 10.92187,17.328125 5.21094,25.960938 -26.83985,40.226561 -14.63672,64.761721 0.78515,95.929691 16.20313,32.66406 36.33594,73.39062 -0.78515,128.8789 -3.64063,5.42188 -9.56641,8.34375 -15.5625,8.34375 z m 0,0"
     id="path8" />
  <path
     style="fill:#000000;fill-opacity:1;fill-rule:nonzero;stroke:none"
     d="m 650.87109,312.63303 c -3.5664,0 -7.20703,-0.99609 -10.42187,-3.13672 -8.56641,-5.70703 -10.92188,-17.33203 -5.21094,-25.96093 25.05859,-37.51563 13.85156,-60.19922 -1.64062,-91.50782 -16.5625,-33.44921 -37.19141,-75.10156 1.64062,-133.304684 5.71094,-8.628906 17.49219,-10.910156 25.98438,-5.203125 8.5664,5.703125 10.92187,17.328125 5.21093,25.960938 -26.83984,40.226561 -14.63281,64.761721 0.78516,95.929691 16.20703,32.66406 36.33594,73.39062 -0.78516,128.8789 -3.5664,5.42188 -9.49218,8.34375 -15.5625,8.34375 z m 0,0"
     id="path10" />
  <path
     style="fill:#000000;fill-opacity:1;fill-rule:nonzero;stroke:none"
     d="M 818.76953,350.07834 H 181.23047 c -51.6836,0 -93.73047,42.00782 -93.73047,93.64844 v 337.21094 c 0,51.64062 42.04687,93.64844 93.73047,93.64844 h 637.53906 c 51.68359,0 93.73047,-42.00782 93.73047,-93.64844 V 443.79709 c 0,-51.63671 -42.04688,-93.71875 -93.73047,-93.71875 z m -581.28906,430.9336 c 0,10.33984 -8.42188,18.75781 -18.77344,18.75781 -10.35156,0 -18.77344,-8.41797 -18.77344,-18.75781 l 0.0703,-337.21485 c 0,-10.34375 8.42187,-18.75781 18.77343,-18.75781 10.35157,0 18.77344,8.41406 18.77344,18.75781 z m 112.5039,0 c 0,10.33984 -8.42578,18.75781 -18.77343,18.75781 -10.35157,0 -18.77735,-8.41797 -18.77735,-18.75781 l 0.0742,-337.21485 c 0,-10.34375 8.42188,-18.75781 18.77344,-18.75781 10.35156,0 18.77344,8.41406 18.77344,18.75781 z m 112.50391,0 c 0,10.33984 -8.42578,18.75781 -18.77734,18.75781 -10.34766,0 -18.77344,-8.41797 -18.77344,-18.75781 l 0.0703,-337.21485 c 0,-10.34375 8.42578,-18.75781 18.77735,-18.75781 10.35156,0 18.77343,8.41406 18.77343,18.75781 z m 112.50391,0 c 0,10.33984 -8.42578,18.75781 -18.77735,18.75781 -10.35156,0 -18.77343,-8.41797 -18.77343,-18.75781 l 0.0703,-337.21485 c 0,-10.34375 8.42578,-18.75781 18.77734,-18.75781 10.34766,0 18.77344,8.41406 18.77344,18.75781 z m 112.5,0 c 0,10.33984 -8.42188,18.75781 -18.77344,18.75781 -10.35156,0 -18.77344,-8.41797 -18.77344,-18.75781 l 0.0703,-337.21485 c 0,-10.34375 8.42579,-18.75781 18.77344,-18.75781 10.35156,0 18.77735,8.41406 18.77735,18.75781 z m 112.5039,0 c 0,10.33984 -8.42187,18.75781 -18.77343,18.75781 -10.35157,0 -18.77344,-8.41797 -18.77344,-18.75781 l 0.0703,-337.21485 c 0,-10.34375 8.42188,-18.75781 18.77344,-18.75781 10.35156,0 18.77344,8.41406 18.77344,18.75781 z m 0,0"
     id="path12" />
  <path
     style="fill:#000000;fill-opacity:1;fill-rule:nonzero;stroke:none"
     d="m 256.25391,949.61741 c -10.35157,0 -18.77344,-8.41407 -18.77344,-18.75782 v -74.96093 c 0,-10.33985 8.42187,-18.75782 18.77344,-18.75782 10.35156,0 18.77343,8.41797 18.77343,18.75782 v 74.96093 c 0,10.34375 -8.42187,18.75782 -18.77343,18.75782 z m 0,0"
     id="path14" />
  <path
     style="fill:#000000;fill-opacity:1;fill-rule:nonzero;stroke:none"
     d="m 743.74609,949.61741 c -10.35156,0 -18.77343,-8.41407 -18.77343,-18.75782 v -74.96093 c 0,-10.33985 8.42187,-18.75782 18.77343,-18.75782 10.35157,0 18.77344,8.41797 18.77344,18.75782 v 74.96093 c 0,10.34375 -8.42187,18.75782 -18.77344,18.75782 z m 0,0"
     id="path16" />
</svg>
