<?xml version="1.0" encoding="UTF-8" standalone="no"?>
<!-- Created with Inkscape (http://www.inkscape.org/) -->

<svg
   width="1000"
   height="1000"
   version="1.1"
   id="svg34"
   xmlns="http://www.w3.org/2000/svg"
   xmlns:svg="http://www.w3.org/2000/svg"
   xmlns:rdf="http://www.w3.org/1999/02/22-rdf-syntax-ns#"
   xmlns:cc="http://creativecommons.org/ns#"
   xmlns:dc="http://purl.org/dc/elements/1.1/">
  <defs
     id="defs5498" />
  <metadata
     id="metadata5594">
    <rdf:RDF>
      <cc:Work
         rdf:about="">
        <dc:format>image/svg+xml</dc:format>
        <dc:type
           rdf:resource="http://purl.org/dc/dcmitype/StillImage" />
      </cc:Work>
    </rdf:RDF>
  </metadata>
  <path
     style="fill:#000000;fill-opacity:1;fill-rule:nonzero;stroke:none"
     d="m 893.11746,858.19922 c 0,34.59375 -27.22266,62.07031 -61.71875,62.07031 H 776.38308 V 79.484375 h 55.01563 c 34.49609,0 61.71875,28.785155 61.71875,63.296875 z m 0,0"
     id="path6" />
  <path
     style="fill:#000000;fill-opacity:1;fill-rule:nonzero;stroke:none"
     d="m 879.30105,858.19922 c 0,1.8789 -0.082,3.76172 -0.24609,5.64062 -0.16016,1.71875 -0.16016,1.88282 0,0.41016 -0.16016,1.39062 -0.48828,2.69922 -0.73438,4.00781 -0.41015,1.80078 -0.89844,3.51563 -1.39062,5.23438 -0.2461,0.8164 -0.57032,1.71875 -0.89844,2.53515 -1.39063,4.08985 1.14453,-2.37109 -0.57031,1.55469 -1.63672,3.59766 -3.67969,6.94922 -5.96875,10.22266 -0.98047,1.30859 -1.0625,1.39062 -0.16407,0.24218 -0.8164,0.98438 -1.71484,1.96485 -2.61718,2.94532 -1.46875,1.63672 -3.10547,3.10937 -4.65625,4.5 -0.65625,0.57031 -1.3086,1.14453 -2.04688,1.63281 1.14453,-0.89844 1.0625,-0.81641 -0.32422,0.16406 -1.80078,1.3086 -3.67968,2.3711 -5.55859,3.4375 -1.55469,0.89844 -3.10938,1.63281 -4.74219,2.3711 1.3086,-0.57422 1.22656,-0.57422 -0.32812,0.082 -1.22657,0.48828 -2.53516,0.89843 -3.83985,1.22656 -1.71875,0.48828 -3.51562,0.89844 -5.23437,1.30859 -0.89844,0.16016 -1.79688,0.32422 -2.69531,0.48828 2.9414,-0.48828 -1.55469,0.082 -1.71875,0.082 -1.79688,0.16406 -3.59766,0.16406 -5.3125,0.16406 -17.82032,0 -35.72266,0 -53.54688,0 4.66016,4.66015 9.40234,9.40625 14.0625,14.0664 0,-19.13671 0,-38.27343 0,-57.41015 0,-48.33203 0,-96.58203 0,-144.91406 0,-63.78907 0,-127.57813 0,-191.36719 0,-65.58985 0,-131.17578 0,-196.84766 0,-53.72656 0,-107.45703 0,-161.1875 0,-28.21484 0,-56.42969 0,-84.644529 0,-1.46875 0,-2.941406 0,-4.414062 -4.66016,4.660156 -9.40234,9.402343 -14.0625,14.066406 12.10156,0 24.11719,0 36.21484,0 5.80469,0 11.60938,0 17.33204,0 2.69531,0 5.39453,0.08203 8.09375,0.40625 -2.94532,-0.324219 1.46875,0.328125 1.71484,0.328125 1.30859,0.246094 2.61719,0.574219 3.92578,0.980469 1.30469,0.328125 2.61328,0.738281 3.83984,1.226562 0.81641,0.328125 1.71875,0.574219 2.53516,0.902344 -1.30859,-0.574219 -1.22656,-0.492187 0.32813,0.164063 2.37109,1.144531 4.65625,2.453122 6.94531,3.925782 1.14453,0.73437 2.20703,1.46875 3.27344,2.28906 -2.28907,-1.63672 1.0625,0.98047 1.22265,1.14453 5.15235,4.41406 6.78516,6.70703 9.64844,11.20313 1.39062,2.28906 2.61719,4.66015 3.76172,7.03515 -1.22656,-2.61718 0.48828,1.38672 0.57031,1.63282 0.49219,1.22656 0.89844,2.53515 1.22656,3.84375 0.81641,2.61718 1.3086,5.3164 1.79688,8.01562 -0.48828,-2.94531 0.082,1.55469 0.082,1.80078 0.082,1.38672 0.16406,2.85938 0.16406,4.25 0,1.55469 0,3.19141 0,4.74219 0,31.81641 0,63.70703 0,95.52344 0,58.47265 0,117.02734 0,175.5 0,66.24218 0,132.48437 0,198.72656 0,55.12109 0,110.15625 0,165.27734 0,25.02344 0,50.13282 0,75.15625 -0.082,0.082 -0.082,0.2461 -0.082,0.32813 0,7.6875 6.375,14.0664 14.0625,14.0664 7.68359,0 14.05859,-6.3789 14.05859,-14.0664 0,-22 0,-44.08203 0,-66.07813 0,-53.48437 0,-106.96875 0,-160.53515 0,-66.07813 0,-132.16016 0,-198.23828 0,-59.69922 0,-119.48047 0,-179.17969 0,-34.51172 0,-69.02344 0,-103.53516 0,-2.45312 0,-4.90625 0,-7.4414 0,-18.15625 -6.21093,-35.32813 -17.41015,-49.476566 C 875.78543,75.722656 853.55105,65.5 830.74246,65.5 c -13.40625,0 -26.8125,0 -40.21875,0 -4.66016,0 -9.23828,0 -13.89453,0 -7.6875,0 -14.0625,6.378906 -14.0625,14.066406 0,19.136719 0,38.273434 0,57.410154 0,48.33203 0,96.58203 0,144.91406 0,63.78907 0,127.57813 0,191.36719 0,65.58985 0,131.17578 0,196.84766 0,53.72656 0,107.45703 0,161.1875 0,28.21484 0,56.42969 0,84.64453 0,1.46875 0,2.94141 0,4.41406 0,7.6875 6.375,14.06641 14.0625,14.06641 18.22656,0 36.375,0 54.60546,0 42.01954,0 75.78125,-34.59375 76.26954,-76.30078 0.082,-7.6875 -6.45704,-14.06641 -14.0586,-14.06641 -7.76953,0.082 -13.98047,6.46094 -14.14453,14.14844 z m 0,0"
     id="path8" />
  <path
     style="fill:#000000;fill-opacity:1;fill-rule:nonzero;stroke:none"
     d="m 63.793239,858.19922 c 0,34.59375 28.855469,62.07031 63.355471,62.07031 h 55.42187 V 79.484375 h -55.42187 c -34.582034,0 -63.355471,28.785155 -63.355471,63.296875 z m 0,0"
     id="path10" />
  <path
     style="fill:#000000;fill-opacity:1;fill-rule:nonzero;stroke:none"
     d="M 49.976832,858.19922 C 50.46902,900.15234 85.211208,934.5 127.23074,934.5 c 18.55469,0 37.10937,0 55.58594,0 7.68359,0 14.0625,-6.37891 14.0625,-14.06641 0,-19.13672 0,-38.27343 0,-57.41015 0,-48.33203 0,-96.58203 0,-144.91407 0,-63.78906 0,-127.57812 0,-191.36718 0,-65.58985 0,-131.17578 0,-196.84375 0,-53.73047 0,-107.46094 0,-161.19141 0,-28.21484 0,-56.42969 0,-84.64453 0,-1.46875 0,-2.941406 0,-4.414062 0,-7.6875 -6.37891,-14.066407 -14.0625,-14.066407 -11.9336,0 -23.78907,0 -35.72266,0 -14.79688,0 -29.75781,-0.816406 -44.0625,3.925781 -32.699219,10.957032 -53.054688,41.871098 -53.054688,75.808598 0,29.27734 0,58.55468 0,87.83203 0,57.25 0,114.49609 0,171.74218 0,66.32422 0,132.64844 0,198.96875 0,56.51172 0,113.02344 0,169.45313 0,27.80469 0,55.52734 0,83.33203 0,0.57422 0,1.0625 0,1.55469 0,7.6875 6.378907,14.0664 14.0625,14.0664 7.683594,0 14.058594,-6.3789 14.058594,-14.0664 0,-22 0,-44.08203 0,-66.07813 0,-53.48437 0,-106.96875 0,-160.53515 0,-66.07813 0,-132.16016 0,-198.23828 0,-59.69922 0,-119.48047 0,-179.17969 0,-34.51172 0,-69.02344 0,-103.53516 0,-2.45312 0,-4.90625 0,-7.4414 0,-0.16407 0,-0.32813 0,-0.41016 0,-0.98047 0,-1.87891 0.08203,-2.85938 0.08203,-1.39062 0.164062,-2.78125 0.328124,-4.17187 -0.246093,2.78125 0.570313,-2.53516 0.652344,-3.02734 2.289065,-10.46875 6.621096,-17.66407 13.89844,-24.94141 0.898437,-0.98047 1.960937,-1.80078 2.941406,-2.69922 0.164062,-0.082 3.597656,-2.78125 1.308594,-1.14453 2.125,-1.63672 4.414066,-3.02734 6.785156,-4.335938 1.14453,-0.652343 2.37109,-1.226562 3.59766,-1.796874 3.92187,-1.882813 -2.45313,0.898437 1.63281,-0.65625 2.94531,-1.144532 6.05078,-1.960938 9.15625,-2.617188 0.24609,-0.08203 4.66016,-0.734375 1.71875,-0.328125 1.39062,-0.160156 2.77734,-0.242187 4.16797,-0.324219 1.0625,-0.08203 2.125,-0.08203 3.1875,-0.08203 1.88281,0 3.67968,0 5.55859,0 14.63281,0 29.26563,0 43.89844,0 1.96094,0 3.92578,0 5.88672,0 -4.66016,-4.664063 -9.40235,-9.40625 -14.0625,-14.066406 0,19.136719 0,38.27344 0,57.41016 0,48.33203 0,96.58203 0,144.91406 0,63.78906 0,127.57812 0,191.36718 0,65.58594 0,131.17579 0,196.84375 0,53.73047 0,107.46094 0,161.19141 0,28.21484 0,56.42969 0,84.64063 0,1.47265 0,2.94531 0,4.41796 4.66015,-4.66015 9.40234,-9.40625 14.0625,-14.0664 -17.98438,0 -35.96875,0 -53.95313,0 -0.57031,0 -1.22656,0 -1.79687,0 -2.3711,0 -4.66016,-0.16406 -7.03125,-0.41016 1.47265,0.2461 1.30859,0.16406 -0.32813,-0.082 -1.39062,-0.24219 -2.69531,-0.57031 -4.0039,-0.81641 -1.80078,-0.41015 -3.51563,-0.98046 -5.23438,-1.47265 -0.8164,-0.32813 -1.71484,-0.57031 -2.53125,-0.89844 2.69531,0.98047 -1.30859,-0.65625 -1.55469,-0.73828 -2.04296,-0.98047 -3.92187,-2.04297 -5.80468,-3.1875 -0.734379,-0.49219 -1.47266,-0.98047 -2.207035,-1.47266 -0.164063,-0.082 -3.597656,-2.69922 -1.390625,-0.98047 -3.105469,-2.45312 -5.882812,-5.3164 -8.417969,-8.26171 -1.0625,-1.3086 -1.144531,-1.39063 -0.246093,-0.24219 -0.816407,-1.06641 -1.554688,-2.12891 -2.289063,-3.27344 -1.226563,-1.87891 -2.289063,-3.76172 -3.269531,-5.72266 -0.410156,-0.82031 -0.816406,-1.55468 -1.144532,-2.37109 0.574219,1.30469 0.492188,1.22656 -0.08203,-0.32812 -0.816406,-2.12891 -1.472656,-4.25391 -2.042969,-6.46094 -0.246093,-0.89844 -0.410156,-1.80078 -0.574218,-2.61719 -0.07813,-0.24609 -0.734375,-4.66016 -0.324219,-1.71875 -0.328125,-2.28906 -0.328125,-4.66016 -0.410156,-7.03125 -0.08203,-7.6875 -6.375,-14.06641 -14.058594,-14.06641 -7.765625,-0.16406 -14.308594,6.21485 -14.226563,13.90235 z m 0,0"
     id="path12" />
  <path
     style="fill:#000000;fill-opacity:1;fill-rule:nonzero;stroke:none"
     d="m 304.62136,920.43359 c 0,-19.13672 0,-38.27343 0,-57.41015 0,-48.33203 0,-96.58203 0,-144.91407 0,-63.78906 0,-127.57812 0,-191.36718 0,-65.58985 0,-131.17578 0,-196.84375 0,-53.73047 0,-107.46094 0,-161.19141 0,-28.21484 0,-56.42969 0,-84.64453 0,-1.46875 0,-2.941406 0,-4.414062 0,-7.6875 -6.3789,-14.066407 -14.0625,-14.066407 -7.68359,0 -14.05859,6.378907 -14.05859,14.066407 0,19.136718 0,38.273432 0,57.410152 0,48.33204 0,96.58203 0,144.91407 0,63.78906 0,127.57812 0,191.36718 0,65.58594 0,131.17578 0,196.84375 0,53.73047 0,107.46094 0,161.19141 0,28.21484 0,56.42969 0,84.64453 0,1.46875 0,2.94141 0,4.41406 0,7.6875 6.375,14.06641 14.05859,14.06641 7.6836,0 14.0625,-6.37891 14.0625,-14.06641 z m 0,0"
     id="path14" />
  <path
     style="fill:#000000;fill-opacity:1;fill-rule:nonzero;stroke:none"
     d="m 427.73074,920.43359 c 0,-19.13672 0,-38.27343 0,-57.41015 0,-48.33203 0,-96.58203 0,-144.91407 0,-63.78906 0,-127.57812 0,-191.36718 0,-65.58985 0,-131.17578 0,-196.84375 0,-53.73047 0,-107.46094 0,-161.19141 0,-28.21484 0,-56.42969 0,-84.64453 0,-1.46875 0,-2.941406 0,-4.414062 0,-7.6875 -6.375,-14.066407 -14.0586,-14.066407 -7.6875,0 -14.0625,6.378907 -14.0625,14.066407 0,19.136718 0,38.273432 0,57.410152 0,48.33204 0,96.58203 0,144.91407 0,63.78906 0,127.57812 0,191.36718 0,65.58594 0,131.17578 0,196.84375 0,53.73047 0,107.46094 0,161.19141 0,28.21484 0,56.42969 0,84.64453 0,1.46875 0,2.94141 0,4.41406 0,7.6875 6.375,14.06641 14.0625,14.06641 7.6836,0 14.0586,-6.37891 14.0586,-14.06641 z m 0,0"
     id="path16" />
  <path
     style="fill:#000000;fill-opacity:1;fill-rule:nonzero;stroke:none"
     d="m 550.92214,920.43359 c 0,-19.13672 0,-38.27343 0,-57.41015 0,-48.33203 0,-96.58203 0,-144.91407 0,-63.78906 0,-127.57812 0,-191.36718 0,-65.58985 0,-131.17578 0,-196.84375 0,-53.73047 0,-107.46094 0,-161.19141 0,-28.21484 0,-56.42969 0,-84.64453 0,-1.46875 0,-2.941406 0,-4.414062 0,-7.6875 -6.375,-14.066407 -14.05859,-14.066407 -7.68359,0 -14.0625,6.378907 -14.0625,14.066407 0,19.136718 0,38.273432 0,57.410152 0,48.33204 0,96.58203 0,144.91407 0,63.78906 0,127.57812 0,191.36718 0,65.58594 0,131.17578 0,196.84375 0,53.73047 0,107.46094 0,161.19141 0,28.21484 0,56.42969 0,84.64453 0,1.46875 0,2.94141 0,4.41406 0,7.6875 6.37891,14.06641 14.0625,14.06641 7.60156,0 14.05859,-6.37891 14.05859,-14.06641 z m 0,0"
     id="path18" />
  <path
     style="fill:#000000;fill-opacity:1;fill-rule:nonzero;stroke:none"
     d="m 674.03543,920.43359 c 0,-19.13672 0,-38.27343 0,-57.41015 0,-48.33203 0,-96.58203 0,-144.91407 0,-63.78906 0,-127.57812 0,-191.36718 0,-65.58985 0,-131.17578 0,-196.84375 0,-53.73047 0,-107.46094 0,-161.19141 0,-28.21484 0,-56.42969 0,-84.64453 0,-1.46875 0,-2.941406 0,-4.414062 0,-7.6875 -6.375,-14.066407 -14.0625,-14.066407 -7.6836,0 -14.0586,6.378907 -14.0586,14.066407 0,19.136718 0,38.273432 0,57.410152 0,48.33204 0,96.58203 0,144.91407 0,63.78906 0,127.57812 0,191.36718 0,65.58594 0,131.17578 0,196.84375 0,53.73047 0,107.46094 0,161.19141 0,28.21484 0,56.42969 0,84.64453 0,1.46875 0,2.94141 0,4.41406 0,7.6875 6.375,14.06641 14.0586,14.06641 7.60546,0 14.0625,-6.37891 14.0625,-14.06641 z m 0,0"
     id="path20" />
  <path
     style="fill:#000000;fill-opacity:1;fill-rule:nonzero;stroke:none"
     d="m 935.37918,205.17969 c 0,-9.48438 -7.02735,-16.92578 -16.51172,-16.92578 h -25.75 v 95.68359 h 25.75 c 9.48437,0 16.51172,-7.36328 16.51172,-16.84766 z m 0,0"
     id="path22" />
  <path
     style="fill:#000000;fill-opacity:1;fill-rule:nonzero;stroke:none"
     d="m 949.76589,205.17969 c -0.65234,-17.91016 -14.22265,-30.82813 -32.125,-30.82813 -8.09375,0 -16.1875,0 -24.27734,0 -7.6875,0 -14.0625,6.37891 -14.0625,14.06641 0,31.89453 0,63.78515 0,95.67969 0,7.6875 6.375,14.0664 14.0625,14.0664 8.91016,0 17.90234,0.2461 26.8125,-0.082 12.67188,-0.48828 23.78906,-8.99219 27.875,-20.93359 1.55469,-4.5 1.63672,-9.24219 1.63672,-13.90235 0.0781,-19.38281 0.0781,-38.68359 0.0781,-58.0664 0,-7.6875 -6.375,-14.06641 -14.05859,-14.06641 -7.68359,0 -14.0625,6.37891 -14.0625,14.06641 0,18.15625 0,36.3125 0,54.46875 0,2.45312 0,4.82422 0,7.27734 0,1.14453 -0.32422,2.37109 0.082,0.24609 -0.48828,1.55469 -0.40625,1.63282 0.16406,0.2461 -0.24609,0.48828 -2.45312,3.51562 -0.57031,1.22656 -1.14453,1.0625 -1.14453,1.14453 0.082,0.24219 -0.65625,0.49219 -1.39062,0.90234 -2.125,1.22656 1.46875,-0.57031 1.38672,-0.65234 -0.16406,-0.16016 1.22656,-0.32812 2.04297,-0.082 -0.24609,-0.082 -8.5,0 -16.92188,0 -25.42188,0 4.65625,4.66016 9.39844,9.40235 14.0586,14.06641 0,-31.89453 0,-63.78906 0,-95.68359 -4.66016,4.66015 -9.40235,9.40234 -14.0586,14.0664 6.45703,0 12.9961,0 19.45313,0 2.45312,0 4.90625,0 7.35937,0.082 -3.43359,-0.16406 2.125,1.0625 -0.98047,-0.32812 0.73438,0.32812 1.46875,0.73437 2.125,1.22656 -1.22656,-0.98047 -1.22656,-0.89844 -0.082,0.16406 -1.96094,-1.96484 0.16406,0.48828 0.57031,1.14453 -0.65234,-1.47265 -0.65234,-1.39062 -0.16406,0.16407 -0.16015,-1.63672 -0.16015,-1.55469 -0.082,0.16406 0.24609,7.6875 6.21484,14.06641 14.0625,14.06641 7.4375,0.24218 14.38672,-6.13672 14.05859,-13.82422 z m 0,0"
     id="path24" />
  <path
     style="fill:#000000;fill-opacity:1;fill-rule:nonzero;stroke:none"
     d="m 935.37918,366.04297 c 0,-9.48438 -7.02735,-17.7461 -16.51172,-17.7461 h -25.75 v 95.6836 h 25.75 c 9.48437,0 16.51172,-6.54297 16.51172,-16.10938 z m 0,0"
     id="path26" />
  <path
     style="fill:#000000;fill-opacity:1;fill-rule:nonzero;stroke:none"
     d="m 949.76589,366.04297 c -0.65234,-17.82813 -14.05859,-31.64844 -32.125,-31.64844 -8.09375,0 -16.1875,0 -24.27734,0 -7.6875,0 -14.0625,6.37891 -14.0625,14.06641 0,31.89453 0,63.78906 0,95.68359 0,7.6875 6.375,14.06641 14.0625,14.06641 8.91016,0 17.90234,0.24609 26.8125,-0.082 12.58984,-0.41016 23.70703,-8.42579 27.875,-20.28125 1.55469,-4.5 1.63672,-9.16016 1.63672,-13.82032 0.0781,-19.30078 0.0781,-38.60156 0.0781,-57.98437 0,-7.6875 -6.375,-14.06641 -14.05859,-14.06641 -7.68359,0 -14.0625,6.37891 -14.0625,14.06641 0,18.15625 0,36.3125 0,54.46484 0,2.45313 0,4.82813 0,7.28125 0,1.22656 -0.32422,2.3711 0.082,0.24219 -0.48828,1.55469 -0.40625,1.63672 0.16406,0.082 -0.32421,0.65625 -2.53125,3.27344 -0.57031,1.06641 -1.14453,1.0625 -1.14453,1.0625 0.082,0.082 -1.39062,0.73437 -1.39062,0.8164 0.082,0.16015 -0.82031,0.32813 -1.63671,0.49219 -2.45312,0.65625 1.47266,-0.32812 1.71484,-0.082 -0.24609,-0.082 -8.5,0 -16.92188,0 -25.42188,0 4.66016,4.66016 9.39844,9.40625 14.05859,14.06641 0,-31.89453 0,-63.78906 0,-95.68359 -4.66015,4.66015 -9.39843,9.40625 -14.05859,14.0664 6.45703,0 12.99609,0 19.45313,0 2.45312,0 4.90625,-0.082 7.35937,0.082 -3.35156,-0.16406 1.96094,1.22657 -0.98047,-0.16406 1.38672,0.89844 1.46875,0.81641 0.24219,-0.082 0.65625,0.57422 1.22656,1.14453 1.80078,1.80078 -2.28906,-2.37109 0.89844,2.20703 -0.41016,-0.82031 0.32813,0.82031 0.57422,1.63672 0.73829,2.45312 -0.16407,-1.55078 -0.16407,-1.46875 -0.082,0.2461 0.24219,7.6875 6.21094,14.0664 14.0586,14.0664 7.60156,0.082 14.55078,-6.29687 14.22265,-13.98437 z m 0,0"
     id="path28" />
  <path
     style="fill:#000000;fill-opacity:1;fill-rule:nonzero;stroke:none"
     d="m 935.37918,772.73828 c 0,-9.48828 -7.02735,-17.58203 -16.51172,-17.58203 h -25.75 v 70.49219 h 25.75 c 9.48437,0 16.51172,-6.70313 16.51172,-16.19141 z m 0,0"
     id="path30" />
  <path
     style="fill:#000000;fill-opacity:1;fill-rule:nonzero;stroke:none"
     d="m 949.76589,772.73828 c -0.65234,-17.82812 -14.05859,-31.48437 -32.125,-31.48437 -8.09375,0 -16.1875,0 -24.27734,0 -7.6875,0 -14.0625,6.3789 -14.0625,14.0664 0,23.46875 0,47.02344 0,70.49219 0,7.6875 6.375,14.06641 14.0625,14.06641 7.51953,0 15.03906,0 22.5625,0 15.12109,0 27.38281,-6.94922 32.53516,-21.58985 2.53125,-7.27734 1.22656,-17.17187 1.22656,-24.69531 0.0781,-6.95313 0.0781,-13.90234 0.0781,-20.85547 0,-7.6875 -6.375,-14.06641 -14.05859,-14.06641 -7.68359,0 -14.0625,6.37891 -14.0625,14.06641 0,12.18359 0,24.45313 0,36.63672 0,1.88281 -0.24219,1.71875 0.082,0.16406 -0.65234,3.59766 1.3086,-1.96094 -0.40625,1.22656 -1.71875,3.10938 1.71485,-1.63671 -0.8164,0.81641 1.30468,-0.98047 1.22265,-0.98047 -0.082,-0.0781 1.55079,-0.49219 1.46875,-0.57422 -0.082,0 -3.59765,1.14453 2.53125,0.0781 -1.39062,0.24218 -0.2461,0 -0.49219,0 -0.81641,0 -1.47265,0 -2.94531,0 -4.41406,0 -6.78516,0 -13.57031,0 -20.27344,0 4.65625,4.66407 9.39844,9.40625 14.0586,14.06641 0,-23.46875 0,-47.02344 0,-70.49219 -4.66016,4.66016 -9.40235,9.40235 -14.0586,14.06641 6.45703,0 12.9961,0 19.45313,0 2.45312,0 4.90625,-0.082 7.35937,0.082 -3.35156,-0.16406 1.96094,1.14453 -0.98047,-0.16406 1.38672,0.89843 1.46875,0.8164 0.24219,-0.16407 0.65625,0.57032 1.22656,1.14454 1.80078,1.71485 -2.28906,-2.3711 0.89844,2.21094 -0.41015,-0.81641 0.32812,0.81641 0.57421,1.63672 0.73437,2.45313 -0.16016,-1.55469 -0.16016,-1.55469 -0.0781,0.24609 0.24218,7.6875 6.21093,14.06641 14.05859,14.06641 7.51953,0 14.46875,-6.37891 14.14062,-14.06641 z m 0,0"
     id="path32" />
</svg>
