<?xml version="1.0" encoding="UTF-8" standalone="no"?>
<!-- Created with Inkscape (http://www.inkscape.org/) -->

<svg
   width="1000"
   height="1000"
   version="1.1"
   id="svg18"
   xmlns="http://www.w3.org/2000/svg"
   xmlns:svg="http://www.w3.org/2000/svg"
   xmlns:rdf="http://www.w3.org/1999/02/22-rdf-syntax-ns#"
   xmlns:cc="http://creativecommons.org/ns#"
   xmlns:dc="http://purl.org/dc/elements/1.1/">
  <defs
     id="defs5498" />
  <metadata
     id="metadata5594">
    <rdf:RDF>
      <cc:Work
         rdf:about="">
        <dc:format>image/svg+xml</dc:format>
        <dc:type
           rdf:resource="http://purl.org/dc/dcmitype/StillImage" />
      </cc:Work>
    </rdf:RDF>
  </metadata>
  <path
     style="fill:#000000;fill-opacity:1;fill-rule:nonzero;stroke:none"
     d="M 599.64114,114.5 H 400.35989 l -20.27734,243.47266 h 239.83594 z m 0,0"
     id="path6" />
  <path
     style="fill:#000000;fill-opacity:1;fill-rule:nonzero;stroke:none"
     d="M 843.69974,128.40234 C 840.92239,120.0625 833.19974,114.5 824.44974,114.5 H 640.3013 l 20.27734,243.47266 h 259.60157 z m 0,0"
     id="path8" />
  <path
     style="fill:#000000;fill-opacity:1;fill-rule:nonzero;stroke:none"
     d="M 643.59427,642.02734 623.31693,398.55078 H 376.68411 L 356.40677,642.02734 H 479.72318 V 844.92187 H 378.33255 c -11.22266,0 -20.28125,9.0625 -20.28125,20.28907 0,11.22656 9.05859,20.28906 20.28125,20.28906 h 243.33594 c 11.22265,0 20.27734,-9.0625 20.27734,-20.28906 0,-11.22657 -9.05469,-20.28907 -20.27734,-20.28907 H 520.27786 V 642.02734 Z m 0,0"
     id="path10" />
  <path
     style="fill:#000000;fill-opacity:1;fill-rule:nonzero;stroke:none"
     d="m -5.92526,615.35156 c -2.058594,6.17969 -1.03125,12.97656 2.777343,18.33203 3.808594,5.25391 9.988282,8.44532 16.472657,8.44532 H 315.74661 L 336.02396,398.55078 H 66.336459 Z m 0,0"
     id="path12" />
  <path
     style="fill:#000000;fill-opacity:1;fill-rule:nonzero;stroke:none"
     d="m 175.5474,114.5 c -8.7461,0 -16.46875,5.5625 -19.2461,13.90234 L 79.820833,357.97266 H 339.42239 L 359.69974,114.5 Z m 0,0"
     id="path14" />
  <path
     style="fill:#000000;fill-opacity:1;fill-rule:nonzero;stroke:none"
     d="M 1005.9263,615.35156 933.66458,398.55078 h -269.6875 l 20.27735,243.47656 H 986.6763 c 6.48438,0 12.66016,-3.08984 16.4688,-8.44531 3.8085,-5.25391 4.8398,-12.05078 2.7812,-18.23047 z m 0,0"
     id="path16" />
</svg>
