<?xml version="1.0" encoding="UTF-8" standalone="no"?>
<!-- Created with Inkscape (http://www.inkscape.org/) -->

<svg
   width="1000"
   height="1000"
   version="1.1"
   id="svg12"
   xmlns="http://www.w3.org/2000/svg"
   xmlns:svg="http://www.w3.org/2000/svg"
   xmlns:rdf="http://www.w3.org/1999/02/22-rdf-syntax-ns#"
   xmlns:cc="http://creativecommons.org/ns#"
   xmlns:dc="http://purl.org/dc/elements/1.1/">
  <defs
     id="defs5498" />
  <metadata
     id="metadata5594">
    <rdf:RDF>
      <cc:Work
         rdf:about="">
        <dc:format>image/svg+xml</dc:format>
        <dc:type
           rdf:resource="http://purl.org/dc/dcmitype/StillImage" />
      </cc:Work>
    </rdf:RDF>
  </metadata>
  <path
     style="fill:#000000;fill-opacity:1;fill-rule:nonzero;stroke:none"
     d="M 523.30078,449.92969 500,378.20312 476.69922,449.92969 c -2.375,7.39843 -9.32031,12.42578 -17.08594,12.42578 h -75.37891 l 60.94141,44.3164 c 6.30469,4.56641 8.95703,12.69922 6.58203,20.10157 l -23.30078,71.63281 60.94531,-44.31641 c 3.10547,-2.28125 6.85157,-3.46875 10.59766,-3.46875 3.74609,0 7.40234,1.09375 10.59766,3.46875 l 60.94531,44.31641 -23.30078,-71.63281 c -2.375,-7.40235 0.27734,-15.53516 6.58203,-20.10157 l 61.03515,-44.3164 h -75.38281 c -7.85547,0 -14.80078,-5.02735 -17.17578,-12.42578 z m 0,0"
     id="path6" />
  <path
     style="fill:#000000;fill-opacity:1;fill-rule:nonzero;stroke:none"
     d="M 500,194 C 331.23828,194 194,331.23828 194,500 194,668.76172 331.23828,806 500,806 668.76172,806 806,668.76172 806,500 806,331.23828 668.76172,194 500,194 Z m 181.73437,264.97656 -95.20703,69.16406 36.36719,111.92969 c 2.375,7.40235 -0.27344,15.53516 -6.48828,20.10156 -3.19922,2.28516 -6.85156,3.47266 -10.59766,3.47266 -3.74609,0 -7.40234,-1.09766 -10.60156,-3.47266 L 500,591.00391 404.79297,660.17187 c -6.30469,4.57032 -14.89453,4.57032 -21.19922,0 -6.30469,-4.5664 -8.95313,-12.69921 -6.57813,-20.10156 l 36.36329,-111.92969 -95.20704,-69.16406 c -6.30468,-4.57031 -8.95312,-12.70312 -6.57812,-20.10156 2.375,-7.40234 9.32031,-12.42969 17.08594,-12.42969 l 117.86718,-0.0898 36.36719,-111.92969 C 485.28906,307.02344 492.23437,302 500,302 c 7.76562,0 14.71094,5.02344 17.08594,12.42578 l 36.36718,111.92969 h 117.6836 c 7.76562,0 14.71094,5.02344 17.08594,12.42578 2.46875,7.49219 -0.1836,15.53516 -6.48829,20.19531 z m 0,0"
     id="path8" />
  <path
     style="fill:#000000;fill-opacity:1;fill-rule:nonzero;stroke:none"
     d="M 500,50 C 251.83594,50 50,251.83594 50,500 50,748.16406 251.83594,950 500,950 748.16406,950 950,748.16406 950,500 950,251.83594 748.16406,50 500,50 Z m 0,792 C 311.41016,842 158,688.58984 158,500 158,311.41016 311.41016,158 500,158 c 188.58984,0 342,153.41016 342,342 0,188.58984 -153.41016,342 -342,342 z m 0,0"
     id="path10" />
</svg>
