<?xml version="1.0" encoding="UTF-8" standalone="no"?>
<!-- Created with Inkscape (http://www.inkscape.org/) -->

<svg
   width="1000"
   height="1000"
   version="1.1"
   id="svg24"
   xmlns="http://www.w3.org/2000/svg"
   xmlns:svg="http://www.w3.org/2000/svg"
   xmlns:rdf="http://www.w3.org/1999/02/22-rdf-syntax-ns#"
   xmlns:cc="http://creativecommons.org/ns#"
   xmlns:dc="http://purl.org/dc/elements/1.1/">
  <defs
     id="defs5498" />
  <metadata
     id="metadata5594">
    <rdf:RDF>
      <cc:Work
         rdf:about="">
        <dc:format>image/svg+xml</dc:format>
        <dc:type
           rdf:resource="http://purl.org/dc/dcmitype/StillImage" />
      </cc:Work>
    </rdf:RDF>
  </metadata>
  <path
     style="fill:#000000;fill-opacity:1;fill-rule:nonzero;stroke:none"
     d="M 94.753906,498.87109 C 94.753906,274.64453 276.52734,92.875 500.75391,92.875 724.97656,92.875 906.75,274.64453 906.75,498.87109 c 0,224.22657 -181.77344,405.9961 -405.99609,405.9961 -224.22657,0 -406.000004,-181.76953 -406.000004,-405.9961"
     id="path6" />
  <path
     style="fill:#000000;fill-opacity:1;fill-rule:nonzero;stroke:none"
     d="m 672.0625,232.21875 c 13.54297,0 24.44922,-10.90625 24.44922,-24.44531 0,-13.53907 -10.90625,-24.44532 -24.44922,-24.44532 -13.53906,0 -24.44531,10.90625 -24.44531,24.44532 0,13.53906 10.90625,24.44531 24.44531,24.44531 z m 0,0"
     id="path8" />
  <path
     style="fill:#000000;fill-opacity:1;fill-rule:nonzero;stroke:none"
     d="m 141.01562,498.87109 c 0,-13.5 10.94532,-24.44531 24.44532,-24.44531 13.5039,0 24.44531,10.94531 24.44531,24.44531 0,13.5 -10.94141,24.44532 -24.44531,24.44532 -13.5,0 -24.44532,-10.94532 -24.44532,-24.44532"
     id="path10" />
  <path
     style="fill:#000000;fill-opacity:1;fill-rule:nonzero;stroke:none"
     d="m 319.09766,230.52734 c 11.66015,6.76953 26.70312,2.82032 33.47265,-9.02734 6.76953,-11.66016 2.63281,-26.70313 -9.02734,-33.47266 -11.66016,-6.76953 -26.70313,-2.82031 -33.47266,9.02735 -6.76953,11.66015 -2.63281,26.70312 9.02735,33.47265 z m 0,0"
     id="path12" />
  <path
     style="fill:#000000;fill-opacity:1;fill-rule:nonzero;stroke:none"
     d="m 308.37891,794.10937 c 0,-13.5039 10.94531,-24.44921 24.44531,-24.44921 13.5039,0 24.44531,10.94531 24.44531,24.44921 0,13.5 -10.94141,24.44532 -24.44531,24.44532 -13.5,0 -24.44531,-10.94532 -24.44531,-24.44532"
     id="path14" />
  <path
     style="fill:#000000;fill-opacity:1;fill-rule:nonzero;stroke:none"
     d="m 646.86719,794.29687 c 0,-13.5039 10.94531,-24.44921 24.44531,-24.44921 13.5,0 24.44531,10.94531 24.44531,24.44921 0,13.5 -10.94531,24.44532 -24.44531,24.44532 -13.5,0 -24.44531,-10.94532 -24.44531,-24.44532"
     id="path16" />
  <path
     style="fill:#000000;fill-opacity:1;fill-rule:nonzero;stroke:none"
     d="m 830.02344,481.57031 c -11.84375,6.58203 -16.17188,21.4375 -9.58985,33.28516 6.58203,11.84765 21.4375,16.17187 33.28516,9.58984 11.84766,-6.58203 16.17187,-21.4375 9.58984,-33.28515 -6.58203,-11.84375 -21.4375,-16.17188 -33.28515,-9.58985 z m 0,0"
     id="path18" />
  <path
     style="fill:#000000;fill-opacity:1;fill-rule:nonzero;stroke:none"
     d="M 500,50 C 251.39844,50 50,251.39844 50,500 50,748.60156 251.39844,950 500,950 748.60156,950 950,748.60156 950,500 950,251.39844 748.60156,50 500,50 Z m 172.0625,97.22266 c 33.28516,0 60.55469,27.07812 60.55469,60.55078 0,16.35937 -6.58203,31.21484 -17.11328,42.12109 l 85.1875,147.80859 c 4.88671,8.64844 2.0664,19.74219 -6.58204,24.63282 -2.82421,1.6914 -6.01953,2.44531 -9.02734,2.44531 -6.20703,0 -12.22266,-3.19922 -15.60937,-9.02734 l -85.5625,-148.5586 c -3.75782,0.75391 -7.70704,1.12891 -11.84766,1.12891 -33.28125,0 -60.55078,-27.07813 -60.55078,-60.55078 0,-33.28516 27.26953,-60.55078 60.55078,-60.55078 z m 12.22656,353.71875 c 0,101.16796 -82.36719,183.53515 -183.53515,183.53515 -9.21485,0 -16.92579,-7.52344 -16.92579,-16.92578 0,-9.21484 7.52344,-16.92578 16.92579,-16.92578 82.55078,0 149.87109,-67.32031 149.87109,-149.87109 0,-9.21485 7.52344,-16.92579 16.92578,-16.92579 9.21484,0.375 16.73828,7.89844 16.73828,17.11329 z M 606.8125,484.20312 c 9.21484,0 16.92187,7.52344 16.92187,16.92579 0,67.69531 -55.09765,122.79687 -122.79296,122.79687 -9.21485,0 -16.92579,-7.52344 -16.92579,-16.73828 0,-9.21484 7.52344,-16.92578 16.92579,-16.92578 49.26562,0 89.13281,-40.05469 89.13281,-89.13281 -0.1875,-9.40235 7.52344,-16.92579 16.73828,-16.92579 z m -165.29688,16.73829 c 0,-32.72266 26.51563,-59.23829 59.23829,-59.23829 32.71875,0 59.23437,26.51563 59.23437,59.23829 0,32.71875 -26.51562,59.23437 -59.23437,59.23437 -32.72266,0 -59.23829,-26.51562 -59.23829,-59.23437 z M 278.85547,179 c 16.73437,-28.95703 53.78125,-38.92578 82.74219,-22.1875 14.10156,8.08594 23.6914,21.25 27.82812,35.91797 l 170.75,0.1875 c 9.96484,0 18.05078,8.08594 18.05078,18.05078 0,3.19922 -0.9375,6.39453 -2.4414,9.02734 -3.19922,5.45313 -9.02735,9.02735 -15.60938,9.02735 l -171.5,-0.1875 c -1.31641,3.75781 -2.82031,7.33203 -4.89062,10.71875 -16.73438,28.95703 -53.78125,38.73437 -82.74219,22.1875 C 272.08594,245.00781 262.11719,207.96094 278.85547,179 Z m 238.82031,155.32812 c 0,9.21485 -7.51953,16.92579 -16.92187,16.92579 -82.55469,0 -149.875,67.32031 -149.875,149.875 0,9.21484 -7.52344,16.92187 -16.92579,16.92187 -9.21484,0 -16.92578,-7.51953 -16.92578,-16.92187 0,-101.17188 82.36719,-183.53516 183.53516,-183.53516 9.59375,-0.1875 17.11328,7.33203 17.11328,16.73437 z M 112.43359,528.01953 c -15.984371,-29.33594 -5.26562,-66.19531 23.87891,-82.17578 14.29297,-7.89844 30.46484,-9.21484 45.13281,-5.26563 l 88.57031,-145.92578 c 5.07813,-8.46484 16.17188,-11.28515 24.82422,-6.01953 2.82032,1.69141 4.88672,4.13672 6.39453,6.76953 3.00782,5.45313 3.00782,12.41407 -0.3789,18.05469 l -89.13281,146.48828 c 2.44531,3.00781 4.69921,6.20703 6.76953,9.77735 15.98437,29.33593 5.26562,66.19531 -23.88282,82.17968 -29.33593,16.17188 -66.1914,5.45313 -82.17578,-23.88281 z m 220.39063,326.64063 c -33.28516,0 -60.55078,-27.07813 -60.55078,-60.55079 0,-16.36328 6.58203,-31.21875 17.11328,-42.125 l -85.1875,-147.80468 c -4.89063,-8.65235 -2.06641,-19.7461 6.58203,-24.63672 2.82031,-1.69141 6.01953,-2.44141 9.02734,-2.44141 6.20313,0 12.22266,3.19531 15.60547,9.02344 l 85.5625,148.55859 c 3.76172,-0.75 7.71094,-1.1289 11.84766,-1.1289 33.47265,0 60.55078,27.08203 60.55078,60.55468 0,33.28125 -27.26563,60.55079 -60.55078,60.55079 z m 61.86719,-336.79688 c -9.21485,0 -16.92188,-7.51953 -16.92188,-16.92187 0,-67.69922 55.09766,-122.79688 122.79297,-122.79688 9.21484,0 16.92578,7.52344 16.92578,16.92578 0,9.21485 -7.52344,16.92188 -16.92578,16.92188 -49.26563,0 -89.13281,40.05468 -89.13281,89.13672 0.1875,9.21484 -7.33594,16.73437 -16.73828,16.73437 z m 306.89843,328.89844 c -28.96093,16.73437 -66.00781,6.76953 -82.74218,-22.19141 -2.07032,-3.57031 -3.57422,-7.14453 -4.89063,-10.71875 l -171.5,0.1875 c -6.76953,0 -12.59766,-3.57031 -15.60937,-9.02344 -1.50391,-2.63281 -2.44141,-5.64062 -2.44141,-9.02734 0,-9.96484 8.08594,-18.05078 18.05078,-18.05078 l 170.75,-0.19141 c 4.13672,-14.66797 13.72656,-27.64062 27.82813,-35.72656 28.96093,-16.73828 66.00781,-6.76953 82.74218,22.1875 16.54688,28.77344 6.76953,66.00781 -22.1875,82.55469 z M 871.01953,556.03906 c -14.29297,7.89844 -30.46484,9.21485 -45.13281,5.26563 l -88.57031,145.92578 c -5.07813,8.46094 -16.17188,11.28125 -24.82032,6.01562 -2.82031,-1.6914 -4.89062,-4.13672 -6.39453,-6.76953 -3.00781,-5.45312 -3.00781,-12.41015 0.375,-18.05078 l 89.13672,-146.49219 c -2.44531,-3.00781 -4.70312,-6.20312 -6.58203,-9.77734 -15.98438,-29.33594 -5.26563,-66.19141 23.88281,-82.17578 29.33594,-15.98438 66.19141,-5.26563 82.17578,23.8789 15.98438,29.14844 5.26563,66.00782 -24.07031,82.17969 z m 0,0"
     id="path20" />
  <path
     style="fill:#000000;fill-opacity:1;fill-rule:nonzero;stroke:none"
     d="m 475.17578,500.94141 c 0,-14.125 11.45313,-25.57422 25.57813,-25.57422 14.12109,0 25.57421,11.44922 25.57421,25.57422 0,14.125 -11.45312,25.57421 -25.57421,25.57421 -14.125,0 -25.57813,-11.44921 -25.57813,-25.57421"
     id="path22" />
</svg>
