<?xml version="1.0" encoding="UTF-8" standalone="no"?>
<!-- Created with Inkscape (http://www.inkscape.org/) -->

<svg
   width="1000"
   height="1000"
   version="1.1"
   id="svg10"
   xmlns="http://www.w3.org/2000/svg"
   xmlns:svg="http://www.w3.org/2000/svg"
   xmlns:rdf="http://www.w3.org/1999/02/22-rdf-syntax-ns#"
   xmlns:cc="http://creativecommons.org/ns#"
   xmlns:dc="http://purl.org/dc/elements/1.1/">
  <defs
     id="defs5498" />
  <metadata
     id="metadata5594">
    <rdf:RDF>
      <cc:Work
         rdf:about="">
        <dc:format>image/svg+xml</dc:format>
        <dc:type
           rdf:resource="http://purl.org/dc/dcmitype/StillImage" />
      </cc:Work>
    </rdf:RDF>
  </metadata>
  <path
     style="fill:#000000;fill-opacity:1;fill-rule:nonzero;stroke:none"
     d="m 50,319.99219 v 539.98047 c 0,26.98437 17.988281,44.97265 44.96875,44.97265 v 44.96875 h 90.02734 v -44.96875 h 630.00782 v 44.96875 L 904.94531,950 v -45.05469 c 26.98047,0 44.96875,-17.98828 44.96875,-44.97265 V 319.99219 Z M 184.99609,769.94922 V 454.98828 h 630.00782 v 314.96094 z m 0,0"
     id="path6" />
  <path
     style="fill:#000000;fill-opacity:1;fill-rule:nonzero;stroke:none"
     d="M 904.94531,50 H 94.96875 C 72.441406,50 50,72.527344 50,94.96875 V 229.96484 H 950 V 94.96875 C 950,72.527344 927.47266,50 904.94531,50 Z M 275.01953,184.99609 c -26.98047,0 -44.96875,-17.98828 -44.96875,-44.96875 0,-26.98437 22.52734,-44.972652 44.96875,-44.972652 22.44531,0 44.97266,22.527342 44.97266,44.972652 0,26.98047 -17.98828,44.96875 -44.97266,44.96875 z m 224.9375,0 c -26.98047,0 -44.96875,-22.52734 -44.96875,-44.96875 0,-26.98437 22.52734,-44.972652 44.96875,-44.972652 26.98047,0 44.96875,22.527342 44.96875,44.972652 0.0859,26.98047 -17.90234,44.96875 -44.96875,44.96875 z m 225.01953,0 c -26.98047,0 -44.96875,-22.52734 -44.96875,-44.96875 0,-26.98437 22.52735,-44.972652 44.96875,-44.972652 26.98438,0 44.97266,22.527342 44.97266,44.972652 0,26.98047 -17.98828,44.96875 -44.97266,44.96875 z m 0,0"
     id="path8" />
</svg>
