<?xml version="1.0" encoding="UTF-8" standalone="no"?>
<!-- Created with Inkscape (http://www.inkscape.org/) -->

<svg
   width="1000"
   height="1000"
   version="1.1"
   id="svg8"
   xmlns="http://www.w3.org/2000/svg"
   xmlns:svg="http://www.w3.org/2000/svg"
   xmlns:rdf="http://www.w3.org/1999/02/22-rdf-syntax-ns#"
   xmlns:cc="http://creativecommons.org/ns#"
   xmlns:dc="http://purl.org/dc/elements/1.1/">
  <defs
     id="defs5498" />
  <metadata
     id="metadata5594">
    <rdf:RDF>
      <cc:Work
         rdf:about="">
        <dc:format>image/svg+xml</dc:format>
        <dc:type
           rdf:resource="http://purl.org/dc/dcmitype/StillImage" />
      </cc:Work>
    </rdf:RDF>
  </metadata>
  <path
     style="fill:#000000;fill-opacity:1;fill-rule:nonzero;stroke:none"
     d="M 702.5,500 C 764.60156,500 814.55078,449.60156 814.55078,387.5 814.55078,325.39844 764.60156,275 702.5,275 640.39844,275 590,325.39844 590,387.5 590,449.60156 640.39844,500 702.5,500 Z M 365,455 c 74.69922,0 134.55078,-60.30078 134.55078,-135 0,-74.69922 -59.85156,-135 -134.55078,-135 -74.69922,0 -135,60.30078 -135,135 0,74.69922 60.30078,135 135,135 z M 702.5,590 C 620.14844,590 455,631.39844 455,713.75 V 815 H 950 V 713.75 C 950,631.39844 784.85156,590 702.5,590 Z M 365,545 C 260.14844,545 50,597.64844 50,702.5 V 815 H 365 V 713.75 C 365,675.5 379.85156,608.44922 471.64844,557.60156 432.5,549.5 394.69922,545 365,545 Z m 0,0"
     id="path6" />
</svg>
