<?xml version="1.0" encoding="UTF-8" standalone="no"?>
<!-- Created with Inkscape (http://www.inkscape.org/) -->

<svg
   width="1000"
   height="1000"
   version="1.1"
   id="svg10"
   xmlns="http://www.w3.org/2000/svg"
   xmlns:svg="http://www.w3.org/2000/svg"
   xmlns:rdf="http://www.w3.org/1999/02/22-rdf-syntax-ns#"
   xmlns:cc="http://creativecommons.org/ns#"
   xmlns:dc="http://purl.org/dc/elements/1.1/">
  <defs
     id="defs5498" />
  <metadata
     id="metadata5594">
    <rdf:RDF>
      <cc:Work
         rdf:about="">
        <dc:format>image/svg+xml</dc:format>
        <dc:type
           rdf:resource="http://purl.org/dc/dcmitype/StillImage" />
      </cc:Work>
    </rdf:RDF>
  </metadata>
  <path
     style="fill:#000000;fill-opacity:1;fill-rule:nonzero;stroke:none"
     d="m 277.95714,446.793 c -11.96875,21.9414 -4.99219,40.95312 3.96484,54.89844 9.98438,12.98828 25.9961,20.99218 42.00782,20.99218 h 47 c 6.97656,0 13,3.00782 16.96484,8 4.99219,6.96875 8.95703,19.01172 8.00391,37.94532 L 391.9337,613.543 c 0,1.98047 1.03125,3.96094 3.01563,3.96094 6.02344,1.03125 11.96484,3.01171 19.01953,3.96093 1.98437,0 3.96484,-1.03125 3.96484,-3.01172 l 3.01172,-30.97265 c 3.01172,1.03125 6.97656,1.03125 11.01563,1.98047 l -3.01172,29.94531 c 0,1.98047 1.03125,3.96094 3.01172,3.96094 6.02734,1.02734 11.96875,1.98047 19.02343,1.98047 1.98047,0 3.96485,-1.03125 3.96485,-3.01172 l 1.98047,-30.97266 c 3.01172,0 6.97656,1.02734 11.01562,1.02734 l -1.02734,30.97657 c 0,1.98047 1.98047,3.96093 3.96094,4.98828 6.02343,0 11.96875,1.03125 17.99218,1.03125 1.98438,0 3.96485,-1.98047 4.9961,-3.96094 l 1.02734,-28.99219 c 3.01172,0 6.97656,0 9.98828,0 v 28.99219 c 0,3.01172 1.98047,4.99219 4.99219,4.99219 6.02344,0 11.96875,0 17.99219,-1.03125 1.98437,0 3.96484,-1.98047 3.96484,-3.96094 v -30.97266 c 3.96094,0 6.97656,-1.03125 9.98828,-1.03125 l 1.98047,29.94532 c 0,1.98047 1.98047,3.96093 4.99219,3.96093 6.02344,-1.03125 11.96875,-1.03125 17.99219,-1.98046 1.98437,0 3.96484,-1.98047 3.96484,-4.99219 l -1.98047,-29.94531 c 3.96094,-1.02735 8.00391,-1.02735 11.01563,-1.98047 l 3.01171,29.94531 c 0,1.98047 1.98047,3.96094 4.99219,3.01172 6.97656,-1.03125 13,-3.01172 19.02344,-4.99219 1.98047,0 3.01172,-1.98047 3.01172,-3.96094 l -3.96094,-41.98437 c -1.98437,-19.01172 3.01172,-30.97266 6.97266,-38.97266 3.96484,-6.02344 11.01953,-8.95312 17.99218,-8.95312 h 42.96094 c 22.98438,0 44.94141,-12.99219 52.94531,-34.9336 3.96485,-11.01172 4.9961,-24.95312 -3.01171,-39.92578 -24.01563,-43.96484 31.94531,-104.88281 31.94531,-172.76953 0,-67.89062 -79.97656,-224.578122 -255.85938,-224.578122 -175.8789,0 -254.82422,155.816402 -254.82422,223.707032 0,67.88672 55.96094,128.88281 32.97266,172.76953 z M 551.8048,356.96097 c 14.03125,-8 36.9375,-14.01953 55.96093,-14.01953 31.94141,1.02734 48.98047,3.00781 68.95704,29.9414 16.01171,20.99219 6.97265,53.94922 -6.02344,62.89844 -21.00391,14.97266 -49.9375,21.94531 -93.92578,4.99219 -34.00391,-12.99219 -42.96094,-32.95313 -43.99219,-50.9375 -1.02734,-12.91016 6.97656,-25.90235 19.02344,-32.875 z m -60.94922,60.91797 c 4.99219,3.01171 8.95312,40.95312 8.95312,40.95312 0,0 3.96485,-37.94141 8.95703,-40.95312 4.9961,-3.01172 11.01954,-1.98047 29.01172,80.8789 0,0 3.01172,24.95313 -13.94922,32.95313 -6.02734,3.01172 -13,1.03125 -16.96484,-3.96094 -3.01172,-4.98828 -6.97266,-11.96094 -6.97266,-24.95313 -1.03125,12.99219 -3.96484,19.96485 -6.97656,24.95313 -3.96094,4.99219 -11.01562,6.97266 -16.96094,4.99219 -16.96093,-8 -13.94921,-32.95313 -13.94921,-32.95313 17.83203,-84.92187 23.77734,-84.92187 28.85156,-81.91015 z m -167.95703,-44.9961 c 19.97265,-26.93359 37.01562,-28.99219 68.95703,-29.9414 19.02344,0 42.00781,6.01953 55.96094,14.01953 11.96875,6.97265 19.97265,19.96484 19.01953,33.98437 0,16.95313 -8.95313,36.91406 -43.98828,50.9375 -44.94141,16.94922 -72.92188,9.98047 -93.92579,-4.99219 -13,-9.03125 -21.95312,-43.01562 -6.02343,-64.00781 z m 0,0"
     id="path6" />
  <path
     style="fill:#000000;fill-opacity:1;fill-rule:nonzero;stroke:none"
     d="m 867.58214,778.39065 c -64.99219,-6.01953 -3.01172,59.89063 -214.875,-14.96875 l -96.9375,-40.95703 96.9375,-40.95312 c 211.86328,-75.89063 149.88281,-8.95313 214.875,-14.97266 64.99609,-6.01953 44.94141,-56.95703 37.96875,-70.89844 -8.95703,-17.98437 -35.98437,-14.97265 -38.99609,-51.96484 -3.01563,-29.94531 0,-47.92578 -34.95703,-46.97656 -29.00782,0 -47,27.96484 -55.95704,45.94531 -8.00781,14.97266 -8.00781,30.97266 -21.95703,38.97266 -19.97265,11.01172 -54.92578,27.96484 -113.89843,51.96875 l -144.89063,61.94531 -133,-55.92578 C 289.92589,609.66019 253.94152,591.67972 236.98058,580.668 c -9.98828,-6.01953 -16.01172,-14.97266 -19.97656,-25.98438 -6.02344,-20.99218 -19.97266,-55.92578 -50.96485,-58.93359 -43.98828,-3.96094 -47,26.93359 -43.98828,56.95312 3.01172,29.94532 -22.984372,46.97657 -29.960934,61.94922 -3.964844,8.94922 -21.003906,46.97657 27.980464,48.95703 64.99219,1.98047 14.98047,-51.96875 226.84375,22.97266 l 83.9375,35.96094 -83.9375,35.96484 c -211.86328,74.9375 -161.92968,20.99219 -226.84375,22.97266 -48.98437,1.98047 -31.945308,39.92578 -27.980464,48.95703 6.976562,14.01953 31.941404,30.97266 29.960934,61.94531 -1.98047,29.94531 0,60.91797 43.98828,56.95703 30.99219,-3.00781 44.94141,-37.94531 50.96485,-58.9375 3.01171,-11.01172 9.98828,-19.96093 19.97656,-25.98047 16.96094,-9.98046 52.94531,-28.99609 124.91406,-58.9375 l 131.89063,-55.92578 144.89062,61.94532 c 58.97266,24.95312 93.92578,40.95703 113.89844,51.96484 14.98047,8.00391 14.98047,24.00391 21.95703,38.97656 8.95703,17.98047 26.94922,45.94531 55.95703,45.94531 34.95313,0 32.97266,-16.95312 34.95313,-46.97656 3.01171,-36.91406 29.96093,-33.98437 39,-51.96484 8.08203,-14.10156 28.05859,-64.08594 -36.85938,-71.0586 z m 0,0"
     id="path8" />
</svg>
