<?xml version="1.0" encoding="UTF-8" standalone="no"?>
<!-- Created with Inkscape (http://www.inkscape.org/) -->

<svg
   width="1000"
   height="1000"
   version="1.1"
   id="svg38"
   xmlns="http://www.w3.org/2000/svg"
   xmlns:svg="http://www.w3.org/2000/svg"
   xmlns:rdf="http://www.w3.org/1999/02/22-rdf-syntax-ns#"
   xmlns:cc="http://creativecommons.org/ns#"
   xmlns:dc="http://purl.org/dc/elements/1.1/">
  <defs
     id="defs5498" />
  <metadata
     id="metadata5594">
    <rdf:RDF>
      <cc:Work
         rdf:about="">
        <dc:format>image/svg+xml</dc:format>
        <dc:type
           rdf:resource="http://purl.org/dc/dcmitype/StillImage" />
      </cc:Work>
    </rdf:RDF>
  </metadata>
  <path
     style="fill:#000000;fill-opacity:1;fill-rule:nonzero;stroke:none"
     d="M 509.17969,233.88281 V 59.453124 c 0,-5.03125 -4.10157,-9.226563 -9.22657,-9.226563 -5.125,0 -9.22656,4.101563 -9.22656,9.226563 V 233.88281 C 308.60547,235.375 123.5,279.72656 123.5,353.15234 l 0.0937,110.13672 c 0,5.03125 4.10156,9.22266 9.22656,9.22266 h 734.45313 c 5.03125,0 9.22656,-4.09766 9.22656,-9.22266 l -0.0937,-110.23047 c 0,-73.42578 -185.10547,-117.77734 -367.22656,-119.17578 z M 858.04687,454.0625 H 141.95312 V 353.05859 c 0,-47.80078 147.07813,-100.91406 358,-100.91406 211.01563,0 358,53.20703 358,100.91406 z m 0,0"
     id="path6" />
  <path
     style="fill:#000000;fill-opacity:1;fill-rule:nonzero;stroke:none"
     d="m 206.17187,564.19922 c -5.03125,0 -9.22656,4.10156 -9.22656,9.22656 l 0.0937,36.61719 c 0,5.03125 4.10156,9.22656 9.22656,9.22656 5.03125,0 9.22657,-4.10156 9.22657,-9.22656 l -0.0937,-36.61719 c 0,-5.125 -4.10157,-9.22656 -9.22657,-9.22656 z m 0,0"
     id="path8" />
  <path
     style="fill:#000000;fill-opacity:1;fill-rule:nonzero;stroke:none"
     d="m 206.17187,711.05078 c -5.03125,0 -9.22656,4.09766 -9.22656,9.22266 v 36.71093 c 0,5.03125 4.10156,9.22657 9.22656,9.22657 5.03516,0 9.22657,-4.10157 9.22657,-9.22657 v -36.71093 c 0,-5.125 -4.10157,-9.22266 -9.22657,-9.22266 z m 0,0"
     id="path10" />
  <path
     style="fill:#000000;fill-opacity:1;fill-rule:nonzero;stroke:none"
     d="m 206.17187,857.89844 c -5.03125,0 -9.22656,4.09765 -9.22656,9.22265 v 36.71485 c 0,5.03125 4.10156,9.22265 9.22656,9.22265 5.03516,0 9.22657,-4.09765 9.22657,-9.22265 v -36.71485 c 0,-5.125 -4.10157,-9.22265 -9.22657,-9.22265 z m 0,0"
     id="path12" />
  <path
     style="fill:#000000;fill-opacity:1;fill-rule:nonzero;stroke:none"
     d="m 353.15625,600.91406 c -5.03125,0 -9.22656,4.09766 -9.22656,9.22266 v 36.71094 c 0,5.03125 4.10156,9.22656 9.22656,9.22656 5.03125,0 9.22656,-4.10156 9.22656,-9.22656 v -36.71094 c -0.0937,-5.125 -4.19531,-9.22266 -9.22656,-9.22266 z m 0,0"
     id="path14" />
  <path
     style="fill:#000000;fill-opacity:1;fill-rule:nonzero;stroke:none"
     d="m 353.15625,747.76172 c -5.03125,0 -9.22656,4.09765 -9.22656,9.22265 v 36.6211 c 0,5.03125 4.10156,9.22265 9.22656,9.22265 5.03125,0 9.22656,-4.09765 9.22656,-9.22265 l -0.0937,-36.6211 c 0,-5.125 -4.10156,-9.22265 -9.13281,-9.22265 z m 0,0"
     id="path16" />
  <path
     style="fill:#000000;fill-opacity:1;fill-rule:nonzero;stroke:none"
     d="m 353.15625,894.60937 c -5.03125,0 -9.22656,4.10157 -9.22656,9.22657 v 36.71093 c 0,5.03125 4.10156,9.22657 9.22656,9.22657 5.03125,0 9.22656,-4.10157 9.22656,-9.22657 v -36.71093 c -0.0937,-5.125 -4.19531,-9.22657 -9.22656,-9.22657 z m 0,0"
     id="path18" />
  <path
     style="fill:#000000;fill-opacity:1;fill-rule:nonzero;stroke:none"
     d="m 499.95312,564.19922 c -5.03125,0 -9.22656,4.10156 -9.22656,9.22656 l 0.0937,36.61719 c 0,5.03125 4.10156,9.22656 9.22656,9.22656 5.125,0 9.22657,-4.10156 9.22657,-9.22656 l -0.0937,-36.61719 c 0,-5.125 -4.10157,-9.22656 -9.22657,-9.22656 z m 0,0"
     id="path20" />
  <path
     style="fill:#000000;fill-opacity:1;fill-rule:nonzero;stroke:none"
     d="m 499.95312,711.05078 c -5.03125,0 -9.22656,4.09766 -9.22656,9.22266 v 36.71093 c 0,5.03125 4.10156,9.22657 9.22656,9.22657 5.125,0 9.22657,-4.10157 9.22657,-9.22657 v -36.71093 c 0,-5.125 -4.10157,-9.22266 -9.22657,-9.22266 z m 0,0"
     id="path22" />
  <path
     style="fill:#000000;fill-opacity:1;fill-rule:nonzero;stroke:none"
     d="m 499.95312,857.89844 c -5.03125,0 -9.22656,4.09765 -9.22656,9.22265 v 36.71485 c 0,5.03125 4.10156,9.22265 9.22656,9.22265 5.125,0 9.22657,-4.09765 9.22657,-9.22265 v -36.71485 c 0,-5.125 -4.10157,-9.22265 -9.22657,-9.22265 z m 0,0"
     id="path24" />
  <path
     style="fill:#000000;fill-opacity:1;fill-rule:nonzero;stroke:none"
     d="m 646.84375,600.91406 c -5.03125,0 -9.22656,4.09766 -9.22656,9.22266 l 0.0937,36.71094 c 0,5.03125 4.10156,9.22656 9.22656,9.22656 5.03125,0 9.22656,-4.10156 9.22656,-9.22656 v -36.71094 c -0.0937,-5.125 -4.19531,-9.22266 -9.32031,-9.22266 z m 0,0"
     id="path26" />
  <path
     style="fill:#000000;fill-opacity:1;fill-rule:nonzero;stroke:none"
     d="m 646.84375,747.76172 c -5.03125,0 -9.22656,4.09765 -9.22656,9.22265 l 0.0937,36.6211 c 0,5.03125 4.10156,9.22265 9.22656,9.22265 5.03125,0 9.22656,-4.09765 9.22656,-9.22265 l -0.0937,-36.6211 c 0,-5.125 -4.10156,-9.22265 -9.22656,-9.22265 z m 0,0"
     id="path28" />
  <path
     style="fill:#000000;fill-opacity:1;fill-rule:nonzero;stroke:none"
     d="m 646.84375,894.60937 c -5.03125,0 -9.22656,4.10157 -9.22656,9.22657 v 36.71093 c 0,5.03125 4.10156,9.22657 9.22656,9.22657 5.03125,0 9.22656,-4.10157 9.22656,-9.22657 v -36.71093 c 0,-5.125 -4.10156,-9.22657 -9.22656,-9.22657 z m 0,0"
     id="path30" />
  <path
     style="fill:#000000;fill-opacity:1;fill-rule:nonzero;stroke:none"
     d="m 793.73437,564.19922 c -5.03125,0 -9.22656,4.10156 -9.22656,9.22656 l 0.0937,36.61719 c 0,5.03125 4.10156,9.22656 9.22656,9.22656 5.03125,0 9.22657,-4.10156 9.22657,-9.22656 l -0.0937,-36.61719 c 0,-5.125 -4.10157,-9.22656 -9.22657,-9.22656 z m 0,0"
     id="path32" />
  <path
     style="fill:#000000;fill-opacity:1;fill-rule:nonzero;stroke:none"
     d="m 793.73437,711.05078 c -5.03125,0 -9.22656,4.09766 -9.22656,9.22266 v 36.71093 c 0,5.03125 4.10156,9.22657 9.22656,9.22657 5.03125,0 9.22657,-4.10157 9.22657,-9.22657 v -36.71093 c 0,-5.125 -4.10157,-9.22266 -9.22657,-9.22266 z m 0,0"
     id="path34" />
  <path
     style="fill:#000000;fill-opacity:1;fill-rule:nonzero;stroke:none"
     d="m 793.73437,857.89844 c -5.03125,0 -9.22656,4.09765 -9.22656,9.22265 v 36.71485 c 0,5.03125 4.10156,9.22265 9.22656,9.22265 5.03125,0 9.22657,-4.09765 9.22657,-9.22265 v -36.71485 c 0,-5.125 -4.10157,-9.22265 -9.22657,-9.22265 z m 0,0"
     id="path36" />
</svg>
