<?xml version="1.0" encoding="UTF-8" standalone="no"?>
<!-- Created with Inkscape (http://www.inkscape.org/) -->

<svg
   width="1000"
   height="1000"
   version="1.1"
   id="svg8"
   xmlns="http://www.w3.org/2000/svg"
   xmlns:svg="http://www.w3.org/2000/svg"
   xmlns:rdf="http://www.w3.org/1999/02/22-rdf-syntax-ns#"
   xmlns:cc="http://creativecommons.org/ns#"
   xmlns:dc="http://purl.org/dc/elements/1.1/">
  <defs
     id="defs5498" />
  <metadata
     id="metadata5594">
    <rdf:RDF>
      <cc:Work
         rdf:about="">
        <dc:format>image/svg+xml</dc:format>
        <dc:type
           rdf:resource="http://purl.org/dc/dcmitype/StillImage" />
      </cc:Work>
    </rdf:RDF>
  </metadata>
  <path
     style="fill:#000000;fill-opacity:1;fill-rule:nonzero;stroke:none"
     d="M 550,350 H 450 v 100 h 100 z m 200,0 H 650 v 100 h 100 z m 150,325 c -62.5,0 -122.5,-10 -178.5,-28.5 -17.5,-5.5 -37,-1.5 -51,12 l -110,110 C 419,696.5 303,581 231,439.5 L 341,329 c 14,-13.5 18,-33 12.5,-50.5 C 335,222.5 325,162.5 325,100 325,72.5 302.5,50 275,50 H 100 c -27.5,0 -50,22.5 -50,50 0,469.5 380.5,850 850,850 27.5,0 50,-22.5 50,-50 V 725 c 0,-27.5 -22.5,-50 -50,-50 z M 850,350 V 450 H 950 V 350 Z m 0,0"
     id="path6" />
</svg>
