<?xml version="1.0" encoding="UTF-8" standalone="no"?>
<!-- Created with Inkscape (http://www.inkscape.org/) -->

<svg
   width="1000"
   height="1000"
   version="1.1"
   id="svg24"
   sodipodi:docname="ic_shortcut.svg"
   inkscape:version="1.1.1 (1:1.1+202109281949+c3084ef5ed)"
   xmlns:inkscape="http://www.inkscape.org/namespaces/inkscape"
   xmlns:sodipodi="http://sodipodi.sourceforge.net/DTD/sodipodi-0.dtd"
   xmlns="http://www.w3.org/2000/svg"
   xmlns:svg="http://www.w3.org/2000/svg"
   xmlns:rdf="http://www.w3.org/1999/02/22-rdf-syntax-ns#"
   xmlns:cc="http://creativecommons.org/ns#"
   xmlns:dc="http://purl.org/dc/elements/1.1/">
  <sodipodi:namedview
     id="namedview14"
     pagecolor="#ffffff"
     bordercolor="#666666"
     borderopacity="1.0"
     inkscape:pageshadow="2"
     inkscape:pageopacity="0.0"
     inkscape:pagecheckerboard="0"
     showgrid="false"
     inkscape:snap-bbox="true"
     inkscape:bbox-paths="true"
     inkscape:bbox-nodes="true"
     inkscape:snap-bbox-edge-midpoints="true"
     inkscape:snap-bbox-midpoints="true"
     inkscape:object-paths="true"
     inkscape:snap-intersection-paths="true"
     inkscape:snap-smooth-nodes="true"
     inkscape:snap-midpoints="true"
     inkscape:snap-object-midpoints="true"
     inkscape:snap-center="true"
     inkscape:snap-text-baseline="true"
     inkscape:snap-page="true"
     showguides="true"
     inkscape:guide-bbox="true"
     inkscape:zoom="0.843"
     inkscape:cx="498.22064"
     inkscape:cy="518.97983"
     inkscape:window-width="1920"
     inkscape:window-height="1053"
     inkscape:window-x="0"
     inkscape:window-y="27"
     inkscape:window-maximized="1"
     inkscape:current-layer="svg24" />
  <defs
     id="defs5498" />
  <metadata
     id="metadata5594">
    <rdf:RDF>
      <cc:Work
         rdf:about="">
        <dc:format>image/svg+xml</dc:format>
        <dc:type
           rdf:resource="http://purl.org/dc/dcmitype/StillImage" />
      </cc:Work>
    </rdf:RDF>
  </metadata>
  <path
     id="path6"
     style="fill:#000002;fill-opacity:1;fill-rule:nonzero;stroke:none;stroke-width:0.947368"
     d="M 500,50 A 450,450 0 0 0 50,500 450,450 0 0 0 500,950 450,450 0 0 0 950,500 450,450 0 0 0 500,50 Z m 0,23.684211 C 735.51727,73.684211 926.31579,264.48273 926.31579,500 926.31579,735.51727 735.51727,926.31579 500,926.31579 264.48273,926.31579 73.684211,735.51727 73.684211,500 73.684211,264.48273 264.48273,73.684211 500,73.684211 Z m 0,23.68421 A 402.63158,402.63158 0 0 0 97.368421,500 402.63158,402.63158 0 0 0 500,902.63158 402.63158,402.63158 0 0 0 902.63158,500 402.63158,402.63158 0 0 0 500,97.368421 Z m 163.00658,68.421469 c 31.53331,0 57.3676,25.65295 57.3676,57.3639 0,15.49835 -6.23561,29.57195 -16.21258,39.90419 l 80.70395,140.02919 c 4.62951,8.19326 1.95762,18.70312 -6.23561,23.33635 -2.67558,1.60238 -5.70272,2.31661 -8.55223,2.31661 -5.88034,0 -11.57936,-3.03084 -14.78782,-8.55222 L 674.23068,279.44819 c -3.56004,0.71423 -7.30141,1.06949 -11.2241,1.06949 -31.52961,0 -57.3639,-25.65296 -57.3639,-57.36389 0,-31.53331 25.83429,-57.3639 57.3639,-57.3639 z m -326.80325,1.53392 c 11.02447,-0.78391 22.3899,1.60469 32.67866,7.55119 13.35938,7.66036 22.44449,20.13158 26.36349,34.02755 l 161.76315,0.17763 c 9.44038,0 17.10074,7.66037 17.10074,17.10074 0,3.03084 -0.88816,6.05798 -2.3129,8.55222 -3.03084,5.16612 -8.55223,8.55222 -14.78784,8.55222 l -162.47368,-0.17763 c -1.24713,3.56003 -2.67187,6.94614 -4.63322,10.15461 -15.85362,27.43297 -50.95066,36.69572 -78.38734,21.01973 -27.43297,-15.85362 -36.87705,-50.95065 -21.01973,-78.38733 9.9085,-17.14561 27.33454,-27.26442 45.70867,-28.57093 z m 326.80325,32.67125 c -12.82648,2e-5 -23.15872,10.33224 -23.15872,23.15873 0,12.82647 10.33224,23.15871 23.15872,23.15871 12.83018,0 23.16242,-10.33224 23.16242,-23.15871 0,-12.82649 -10.33224,-23.15869 -23.16242,-23.15873 z M 339.6986,201.3236 c -7.83883,0.16559 -15.4233,4.30976 -19.63199,11.67558 -6.41324,11.04646 -2.49424,25.29769 8.55223,31.71093 11.04645,6.41324 25.29769,2.67188 31.71093,-8.55222 6.41324,-11.04646 2.49424,-25.2977 -8.55222,-31.71094 -3.79722,-2.20454 -7.97289,-3.21013 -12.07895,-3.12335 z m -43.83615,95.93216 c 3.30187,-0.16183 6.70144,0.63097 9.77529,2.50164 2.67189,1.60239 4.62953,3.919 6.05799,6.41324 2.84948,5.16612 2.8495,11.7607 -0.35897,17.10444 l -84.44161,138.77837 c 2.31661,2.84951 4.45188,5.88035 6.41324,9.26275 15.14309,27.79194 4.98847,62.71135 -22.62582,77.85444 -27.79193,15.32073 -62.70765,5.16612 -77.85075,-22.62582 -15.14307,-27.79195 -4.98848,-62.71135 22.62213,-77.85074 13.54071,-7.48273 28.86142,-8.72984 42.7574,-4.98849 l 83.90871,-138.24548 c 3.00682,-5.01207 8.23929,-7.93464 13.74239,-8.20435 z m 204.67044,29.93832 c 9.08882,-0.17763 16.21259,6.94614 16.21259,15.85361 0,8.72987 -7.12377,16.03496 -16.03125,16.03496 -78.20971,0 -141.98684,63.77714 -141.98684,141.98684 0,8.72985 -7.12746,16.03125 -16.03496,16.03125 -8.72982,0 -16.03495,-7.12377 -16.03495,-16.03125 0,-95.84704 78.03207,-173.87541 173.87541,-173.87541 z m 0,57.3639 c 8.72985,0 16.03495,7.12747 16.03495,16.03495 0,8.72985 -7.12747,16.03125 -16.03495,16.03125 -46.6727,0 -84.4416,37.94654 -84.4416,84.44531 0.17763,8.72985 -6.94984,15.85362 -15.85732,15.85362 -8.72986,0 -16.03126,-7.12377 -16.03126,-16.03125 0,-64.1361 52.19779,-116.33388 116.33018,-116.33388 z m 0.18134,60.2134 c 30.99671,10e-6 56.11677,25.12007 56.11677,56.12048 0,30.99671 -25.12006,56.11677 -56.11677,56.11677 -31.00041,0 -56.12045,-25.12006 -56.12048,-56.11677 0,-31.00041 25.12007,-56.12045 56.12048,-56.12048 z m 320.27158,0.89371 c 2.78168,-0.14382 5.55988,-0.0855 8.31168,0.17023 18.34529,1.70466 35.53372,12.14322 44.99815,29.39988 15.14309,27.61429 4.98849,62.53372 -22.80345,77.85444 -13.54071,7.48273 -28.86143,8.72985 -42.7574,4.98849 L 724.82607,696.3236 c -4.81086,8.01563 -15.32073,10.6875 -23.51398,5.69901 -2.67188,-1.60238 -4.63322,-3.919 -6.05798,-6.41324 -2.8495,-5.16611 -2.8495,-11.75698 0.35526,-17.10074 l 84.44532,-138.78207 c -2.31661,-2.84951 -4.45559,-5.87664 -6.23561,-9.26274 -15.1431,-27.79195 -4.98849,-62.70766 22.62582,-77.85074 7.81649,-4.259 16.19589,-6.51651 24.54091,-6.94799 z m -637.91755,30.1067 c -12.78947,0 -23.15873,10.36924 -23.15873,23.15872 0,12.78947 10.36926,23.15872 23.15873,23.15872 12.79317,0 23.15871,-10.36925 23.15871,-23.15872 0,-12.78948 -10.36554,-23.15872 -23.15871,-23.15872 z m 317.64597,0.89186 c -13.38158,0 -24.23191,10.84663 -24.23191,24.22821 0,13.38158 10.85033,24.22822 24.23191,24.2282 13.37788,2e-5 24.22822,-10.84662 24.2282,-24.2282 0,-13.38158 -10.85032,-24.22821 -24.2282,-24.22821 z m 322.97122,2.96053 c -3.73792,0.028 -7.52414,0.96749 -11.03166,2.91611 -11.2204,6.23561 -15.32073,20.30921 -9.08513,31.53331 6.23561,11.22409 20.30921,15.32072 31.53331,9.08511 11.2241,-6.2356 15.32072,-20.30921 9.08512,-31.5333 -4.28698,-7.71402 -12.27823,-12.0629 -20.50164,-12.00123 z m -164.95313,5.05509 c 8.72985,0.35527 15.85732,7.48273 15.85732,16.21259 0,95.84333 -78.03208,173.87541 -173.87541,173.87541 -8.72986,0 -16.03493,-7.12747 -16.03496,-16.03495 1e-5,-8.72985 7.12747,-16.03495 16.03496,-16.03495 78.206,0 141.98314,-63.77714 141.98314,-141.98314 0,-8.72986 7.12747,-16.03492 16.03495,-16.03496 z m -57.54153,0.35526 c 8.72985,10e-6 16.03124,7.12747 16.03125,16.03496 -10e-6,64.1324 -52.19778,116.33388 -116.33018,116.33388 -8.72986,0 -16.03492,-7.12747 -16.03496,-15.85732 1e-5,-8.72985 7.12747,-16.03495 16.03496,-16.03495 46.67269,0 84.44161,-37.94655 84.44161,-84.44161 -0.17763,-8.90749 7.12747,-16.03494 15.85732,-16.03496 z m -366.63528,88.00905 c 5.87665,0 11.57936,3.02714 14.78413,8.54853 l 81.05921,140.73971 c 3.56373,-0.71052 7.3051,-1.06948 11.2241,-1.06948 31.71093,0 57.36389,25.65664 57.36389,57.3676 0,31.52959 -25.83059,57.3639 -57.36389,57.3639 -31.53331,0 -57.3639,-25.65298 -57.3639,-57.3639 0,-15.50207 6.23561,-29.57568 16.21258,-39.9079 L 219.76768,598.69655 c -4.63323,-8.19696 -1.95765,-18.70683 6.23561,-23.34005 2.67187,-1.60239 5.70271,-2.31292 8.55222,-2.31292 z m 431.73541,148.68689 c 18.37412,1.30651 35.80016,11.42532 45.70867,28.57093 15.67599,27.25905 6.41323,62.53371 -21.01974,78.2097 -27.43667,15.85362 -62.53372,6.41324 -78.38733,-21.02344 -1.96136,-3.3824 -3.3861,-6.7685 -4.63323,-10.1546 l -162.47368,0.17763 c -6.41324,0 -11.93463,-3.3824 -14.78783,-8.54852 -1.42475,-2.49422 -2.31291,-5.34375 -2.31291,-8.55222 0,-9.44038 7.66036,-17.10074 17.10074,-17.10074 l 161.76316,-0.18134 c 3.91899,-13.89597 13.0041,-26.18585 26.36349,-33.84621 10.28874,-5.94649 21.65418,-8.3351 32.67866,-7.55119 z m -324.66797,33.73705 c -12.78948,0 -23.15872,10.36923 -23.15872,23.16242 0,12.78946 10.36924,23.15871 23.15872,23.15871 12.79316,0 23.15871,-10.36925 23.15871,-23.15871 0,-12.79319 -10.36555,-23.16242 -23.15871,-23.16242 z m 320.6731,0.17763 c -12.78947,0 -23.15871,10.36923 -23.15871,23.16242 0,12.78946 10.36924,23.15872 23.15871,23.15872 12.78948,0 23.15872,-10.36926 23.15872,-23.15872 0,-12.79319 -10.36924,-23.16242 -23.15872,-23.16242 z" />
</svg>
