<?xml version="1.0" encoding="UTF-8" standalone="no"?>
<!-- Created with Inkscape (http://www.inkscape.org/) -->

<svg
   width="1000"
   height="1000"
   version="1.1"
   id="svg8"
   xmlns="http://www.w3.org/2000/svg"
   xmlns:svg="http://www.w3.org/2000/svg"
   xmlns:rdf="http://www.w3.org/1999/02/22-rdf-syntax-ns#"
   xmlns:cc="http://creativecommons.org/ns#"
   xmlns:dc="http://purl.org/dc/elements/1.1/">
  <defs
     id="defs5498" />
  <metadata
     id="metadata5594">
    <rdf:RDF>
      <cc:Work
         rdf:about="">
        <dc:format>image/svg+xml</dc:format>
        <dc:type
           rdf:resource="http://purl.org/dc/dcmitype/StillImage" />
      </cc:Work>
    </rdf:RDF>
  </metadata>
  <path
     style="fill:#000000;fill-opacity:1;fill-rule:nonzero;stroke:none"
     d="m 500,230.98437 c -155.11328,0 -280.56641,125.58204 -280.56641,280.85157 h 80.16016 c 0,-110.73438 89.78125,-200.60547 200.40625,-200.60547 110.625,0 200.40625,89.87109 200.40625,200.60547 h 80.16016 C 780.56641,356.56641 655.11328,230.98437 500,230.98437 Z m 40.08203,372.73047 c 35.26953,-15.64843 60.12109,-50.55468 60.12109,-91.8789 0,-55.36719 -44.89062,-100.30469 -100.20312,-100.30469 -55.3125,0 -100.20313,44.9375 -100.20313,100.30469 0,40.92187 24.85157,76.23047 60.1211,91.8789 V 736.11328 L 323.24219,872.92969 379.75781,929.5 500,809.13672 620.24219,929.5 676.75781,872.92969 540.08203,736.11328 Z M 500,70.5 C 256.70703,70.5 59.109375,268.29687 59.109375,511.83594 h 80.160155 c 0,-199.40235 161.52734,-361.09375 360.73047,-361.09375 199.20312,0 360.73047,161.6914 360.73047,361.09375 h 80.16015 C 940.89062,268.29687 743.29297,70.5 500,70.5 Z m 0,0"
     id="path6" />
</svg>
