<?xml version="1.0" encoding="UTF-8" standalone="no"?>
<!-- Created with Inkscape (http://www.inkscape.org/) -->

<svg
   width="1000"
   height="1000"
   version="1.1"
   id="svg8"
   xmlns="http://www.w3.org/2000/svg"
   xmlns:svg="http://www.w3.org/2000/svg"
   xmlns:rdf="http://www.w3.org/1999/02/22-rdf-syntax-ns#"
   xmlns:cc="http://creativecommons.org/ns#"
   xmlns:dc="http://purl.org/dc/elements/1.1/">
  <defs
     id="defs5498" />
  <metadata
     id="metadata5594">
    <rdf:RDF>
      <cc:Work
         rdf:about="">
        <dc:format>image/svg+xml</dc:format>
        <dc:type
           rdf:resource="http://purl.org/dc/dcmitype/StillImage" />
      </cc:Work>
    </rdf:RDF>
  </metadata>
  <path
     style="fill:#000000;fill-opacity:1;fill-rule:nonzero;stroke:none"
     d="m 845.75,717.26172 75,75.04687 H 950 V 717.26172 Z M 874.625,642.21484 875,266.97656 c 0,-41.65234 -33.75,-75.04687 -75,-75.04687 H 320.75 l 196.125,196.25 c 6.75,-1.5 13.5,-2.62891 20.625,-3.75391 V 304.5 L 687.5,444.46484 628.25,499.625 836,707.50781 c 22.875,-12.38281 38.625,-37.14844 38.625,-65.29297 z M 139.625,106 l -48,47.65625 57.75,57.78516 C 134.375,224.94922 125,244.83984 125,266.97656 v 375.23828 c 0,41.27735 33.375,75.04688 75,75.04688 H 50 v 75.04687 H 729.875 L 831.5,894 879.125,846.34375 Z M 312.5,604.69141 C 324.125,549.15625 347,493.99609 390.125,452.34375 l 59.625,59.66406 C 392,526.26562 348.5,556.28516 312.5,604.69141 Z m 0,0"
     id="path6" />
</svg>
