<?xml version="1.0" encoding="UTF-8" standalone="no"?>
<!-- Created with Inkscape (http://www.inkscape.org/) -->

<svg
   width="1000"
   height="1000"
   version="1.1"
   id="svg8"
   xmlns="http://www.w3.org/2000/svg"
   xmlns:svg="http://www.w3.org/2000/svg"
   xmlns:rdf="http://www.w3.org/1999/02/22-rdf-syntax-ns#"
   xmlns:cc="http://creativecommons.org/ns#"
   xmlns:dc="http://purl.org/dc/elements/1.1/">
  <defs
     id="defs5498" />
  <metadata
     id="metadata5594">
    <rdf:RDF>
      <cc:Work
         rdf:about="">
        <dc:format>image/svg+xml</dc:format>
        <dc:type
           rdf:resource="http://purl.org/dc/dcmitype/StillImage" />
      </cc:Work>
    </rdf:RDF>
  </metadata>
  <path
     style="fill:#000000;fill-opacity:1;fill-rule:nonzero;stroke:none"
     d="m 500,400 c -55,0 -100,45 -100,100 0,55 45,100 100,100 55,0 100,-45 100,-100 0,-55 -45,-100 -100,-100 z M 850,50 H 150 C 94.5,50 50,95 50,150 v 700 c 0,55 44.5,100 100,100 h 700 c 55.5,0 100,-45 100,-100 V 150 C 950,95 905.5,50 850,50 Z m -87.5,450 c 0,11.5 -1,23 -2.5,34 l 74,58 c 6.5,5.5 8.5,15 4,22.5 l -70,121 c -4.5,7.5 -13.5,10.5 -21.5,7.5 l -87,-35 c -18,14 -38,25.5 -59,34.5 l -13,92.5 c -1.5,8.5 -9,15 -17.5,15 H 430 c -8.5,0 -16,-6.5 -17.5,-14.5 l -13,-92.5 c -21.5,-9 -41,-20.5 -59,-34.5 l -87,35 c -8,3 -17,0 -21.5,-7.5 L 162,615 c -4.5,-7.5 -2.5,-17 4,-22.5 l 74,-58 c -1.5,-11.5 -2.5,-23 -2.5,-34.5 0,-11.5 1,-23 2.5,-34 l -74,-58 c -6.5,-5.5 -8.5,-15 -4,-22.5 l 70,-121 c 4.5,-7.5 13.5,-10.5 21.5,-7.5 l 87,35 c 18,-14 38,-25.5 59,-34.5 l 13,-92.5 c 1.5,-8.5 9,-15 17.5,-15 h 140 c 8.5,0 16,6.5 17.5,14.5 l 13,92.5 c 21.5,9 41,20.5 59,34.5 l 87,-35 c 8,-3 17,0 21.5,7.5 l 70,121 c 4.5,7.5 2.5,17 -4,22.5 l -74,58 c 1.5,11.5 2.5,23 2.5,34.5 z m 0,0"
     id="path6" />
</svg>
