<?xml version="1.0" encoding="UTF-8" standalone="no"?>
<!-- Created with Inkscape (http://www.inkscape.org/) -->

<svg
   width="1000"
   height="1000"
   version="1.1"
   id="svg8"
   xmlns="http://www.w3.org/2000/svg"
   xmlns:svg="http://www.w3.org/2000/svg"
   xmlns:rdf="http://www.w3.org/1999/02/22-rdf-syntax-ns#"
   xmlns:cc="http://creativecommons.org/ns#"
   xmlns:dc="http://purl.org/dc/elements/1.1/">
  <defs
     id="defs5498" />
  <metadata
     id="metadata5594">
    <rdf:RDF>
      <cc:Work
         rdf:about="">
        <dc:format>image/svg+xml</dc:format>
        <dc:type
           rdf:resource="http://purl.org/dc/dcmitype/StillImage" />
      </cc:Work>
    </rdf:RDF>
  </metadata>
  <path
     style="fill:#000000;fill-opacity:1;fill-rule:nonzero;stroke:none"
     d="M 132.22656,397.73828 H 50.5 V 847.69141 C 50.5,893.09375 86.867188,929.5 132.22656,929.5 h 572.08985 c 45.35937,0 81.73046,-36.40625 81.73046,-81.80859 H 132.22656 Z M 745.18359,234.11719 v -81.8086 C 745.18359,106.90625 708.8125,70.5 663.45312,70.5 H 500 c -45.35938,0 -81.72656,36.40625 -81.72656,81.80859 v 81.8086 H 213.95312 v 449.95312 c 0,45.40625 36.3711,81.8125 81.73047,81.8125 h 572.08985 c 45.35937,0 81.72656,-36.40625 81.72656,-81.8125 V 234.11719 Z M 500,152.30859 h 163.45312 v 81.8086 H 500 Z m 0,490.85938 V 356.83203 l 224.75,122.71484 z m 0,0"
     id="path6" />
</svg>
