<?xml version="1.0" encoding="UTF-8" standalone="no"?>
<!-- Created with Inkscape (http://www.inkscape.org/) -->

<svg
   width="1000"
   height="1000"
   version="1.1"
   id="svg14"
   xmlns="http://www.w3.org/2000/svg"
   xmlns:svg="http://www.w3.org/2000/svg"
   xmlns:rdf="http://www.w3.org/1999/02/22-rdf-syntax-ns#"
   xmlns:cc="http://creativecommons.org/ns#"
   xmlns:dc="http://purl.org/dc/elements/1.1/">
  <defs
     id="defs5498" />
  <metadata
     id="metadata5594">
    <rdf:RDF>
      <cc:Work
         rdf:about="">
        <dc:format>image/svg+xml</dc:format>
        <dc:type
           rdf:resource="http://purl.org/dc/dcmitype/StillImage" />
      </cc:Work>
    </rdf:RDF>
  </metadata>
  <path
     style="fill:#000000;fill-opacity:1;fill-rule:nonzero;stroke:none"
     d="M 793.77344,50.269531 H 206.22656 c -5.03125,0 -9.22656,4.101563 -9.22656,9.226563 V 940.50391 c 0,5.03125 4.10156,9.22656 9.22656,9.22656 h 587.54688 c 5.03125,0 9.22656,-4.10156 9.22656,-9.22656 V 59.496094 c 0,-5.125 -4.10156,-9.226563 -9.22656,-9.226563 z M 784.64062,931.28125 H 215.45312 V 68.625 h 569.1875 z m 0,0"
     id="path6" />
  <path
     style="fill:#000000;fill-opacity:1;fill-rule:nonzero;stroke:none"
     d="m 500,839.50781 c 106.34375,0 192.83594,-86.46094 192.83594,-192.76562 0,-106.3086 -86.49219,-192.76953 -192.83594,-192.76953 -106.34375,0 -192.74219,86.55468 -192.74219,192.86328 0,106.21093 86.49219,192.67187 192.74219,192.67187 z m 0,-367.08594 c 96.18359,0 174.38281,78.26172 174.38281,174.32032 0,96.05859 -78.19922,174.41406 -174.38281,174.41406 -96.18359,0 -174.38281,-78.26172 -174.38281,-174.32031 0,-96.0586 78.29297,-174.41407 174.38281,-174.41407 z m 0,0"
     id="path8" />
  <path
     style="fill:#000000;fill-opacity:1;fill-rule:nonzero;stroke:none"
     d="m 500,325.58594 c 45.57422,0 82.67187,-37.08203 82.67187,-82.64063 0,-45.55859 -37.09765,-82.54687 -82.67187,-82.54687 -45.57422,0 -82.67188,37.08203 -82.67188,82.54687 0.0937,45.5586 37.1875,82.64063 82.67188,82.64063 z M 500,178.75 c 35.41797,0 64.21484,28.79297 64.21484,64.19531 0,35.40625 -28.79687,64.19531 -64.21484,64.19531 -35.41797,0 -64.21484,-28.78906 -64.21484,-64.19531 0,-35.40234 28.79687,-64.19531 64.21484,-64.19531 z m 0,0"
     id="path10" />
  <path
     style="fill:#000000;fill-opacity:1;fill-rule:nonzero;stroke:none"
     d="m 481.64062,646.83594 c 0,-10.13672 8.21875,-18.35547 18.35938,-18.35547 10.14062,0 18.35937,8.21875 18.35937,18.35547 0,10.13672 -8.21875,18.35156 -18.35937,18.35156 -10.14063,0 -18.35938,-8.21484 -18.35938,-18.35156"
     id="path12" />
</svg>
