<?xml version="1.0" encoding="UTF-8" standalone="no"?>
<!-- Created with Inkscape (http://www.inkscape.org/) -->

<svg
   width="1000"
   height="1000"
   version="1.1"
   id="svg24"
   xmlns="http://www.w3.org/2000/svg"
   xmlns:svg="http://www.w3.org/2000/svg"
   xmlns:rdf="http://www.w3.org/1999/02/22-rdf-syntax-ns#"
   xmlns:cc="http://creativecommons.org/ns#"
   xmlns:dc="http://purl.org/dc/elements/1.1/">
  <defs
     id="defs5498" />
  <metadata
     id="metadata5594">
    <rdf:RDF>
      <cc:Work
         rdf:about="">
        <dc:format>image/svg+xml</dc:format>
        <dc:type
           rdf:resource="http://purl.org/dc/dcmitype/StillImage" />
      </cc:Work>
    </rdf:RDF>
  </metadata>
  <path
     style="fill:#000000;fill-opacity:1;fill-rule:nonzero;stroke:none"
     d="M 645.13672,354.86328 C 606.39453,316.11719 554.82422,294.76953 500,294.76953 c -54.82422,0 -106.30469,21.34766 -145.13672,60.09375 -38.74609,38.74219 -60.09375,90.3125 -60.09375,145.13672 0,54.82422 21.34766,106.39453 60.09375,145.13672 38.74219,38.74609 90.3125,60.09375 145.13672,60.09375 113.16016,0 205.23047,-92.07031 205.23047,-205.23047 0,-54.82422 -21.34766,-106.39453 -60.09375,-145.13672 z m 0,0"
     id="path6" />
  <path
     style="fill:#000000;fill-opacity:1;fill-rule:nonzero;stroke:none"
     d="m 500,811.53906 c -19.15234,0 -34.61719,15.55078 -34.61719,34.61328 v 69.23047 C 465.38281,934.44922 480.93359,950 500,950 c 19.06641,0 34.61719,-15.46094 34.61719,-34.61719 v -69.23047 c 0,-19.0625 -15.46485,-34.61328 -34.61719,-34.61328 z m 0,0"
     id="path8" />
  <path
     style="fill:#000000;fill-opacity:1;fill-rule:nonzero;stroke:none"
     d="m 915.38281,465.38281 h -69.23047 c -19.0625,0 -34.61328,15.55078 -34.61328,34.61719 0,19.15234 15.55078,34.61719 34.61328,34.61719 h 69.23047 C 934.44922,534.61719 950,519.15234 950,500 c 0,-19.15234 -15.46094,-34.61719 -34.61719,-34.61719 z m 0,0"
     id="path10" />
  <path
     style="fill:#000000;fill-opacity:1;fill-rule:nonzero;stroke:none"
     d="m 188.46094,500 c 0,-19.15234 -15.55078,-34.61719 -34.61328,-34.61719 H 84.617188 C 65.550781,465.38281 50,480.93359 50,500 c 0,19.06641 15.460938,34.61719 34.617188,34.61719 H 153.84766 C 173,534.61719 188.46094,519.06641 188.46094,500 Z m 0,0"
     id="path12" />
  <path
     style="fill:#000000;fill-opacity:1;fill-rule:nonzero;stroke:none"
     d="m 500,188.46094 c 19.06641,0 34.61719,-15.55078 34.61719,-34.61328 V 84.617188 C 534.61719,65.550781 519.06641,50 500,50 480.93359,50 465.38281,65.550781 465.38281,84.617188 v 69.230472 c 0,19.0625 15.46485,34.61328 34.61719,34.61328 z m 0,0"
     id="path14" />
  <path
     style="fill:#000000;fill-opacity:1;fill-rule:nonzero;stroke:none"
     d="m 720.34375,671.32031 c -13.53125,-13.53125 -35.40625,-13.53125 -48.9375,0 -13.52734,13.53125 -13.52734,35.40625 0,48.9336 l 97.875,97.875 c 6.76172,6.76562 15.63672,10.10156 24.51172,10.10156 8.87109,0 17.74609,-3.33594 24.51172,-10.10156 13.52734,-13.53125 13.52734,-35.40625 0,-48.9375 z m 0,0"
     id="path16" />
  <path
     style="fill:#000000;fill-opacity:1;fill-rule:nonzero;stroke:none"
     d="m 279.74609,328.67969 c 6.76172,6.76562 15.63672,10.10547 24.51172,10.10547 8.8711,0 17.7461,-3.33985 24.51172,-10.10547 13.52734,-13.53125 13.52734,-35.40625 0,-48.9336 l -97.96094,-97.96093 c -13.53125,-13.53125 -35.40625,-13.53125 -48.9375,0 -13.52734,13.52734 -13.52734,35.40625 0,48.93359 z m 0,0"
     id="path18" />
  <path
     style="fill:#000000;fill-opacity:1;fill-rule:nonzero;stroke:none"
     d="m 695.83203,338.78516 c 8.875,0 17.74609,-3.33985 24.51172,-10.10547 l 97.87109,-97.8711 c 13.53125,-13.53125 13.53125,-35.40625 0,-48.9375 -13.52734,-13.52734 -35.40625,-13.52734 -48.93359,0 l -97.96094,97.875 c -13.53125,13.52735 -13.53125,35.40235 0,48.9336 6.76563,6.76562 15.63672,10.10547 24.51172,10.10547 z m 0,0"
     id="path20" />
  <path
     style="fill:#000000;fill-opacity:1;fill-rule:nonzero;stroke:none"
     d="m 279.74609,671.32031 -97.96093,97.96094 c -13.53125,13.52734 -13.53125,35.40625 0,48.93359 6.76562,6.76563 15.63671,10.10547 24.51171,10.10547 8.8711,0 17.7461,-3.33984 24.51172,-10.10547 l 97.8711,-97.96093 c 13.53125,-13.52735 13.53125,-35.40235 0,-48.9336 -13.53125,-13.53125 -35.49219,-13.53125 -48.9336,0 z m 0,0"
     id="path22" />
</svg>
