<?xml version="1.0" encoding="UTF-8" standalone="no"?>
<!-- Created with Inkscape (http://www.inkscape.org/) -->

<svg
   width="1000"
   height="1000"
   version="1.1"
   id="svg8"
   xmlns="http://www.w3.org/2000/svg"
   xmlns:svg="http://www.w3.org/2000/svg"
   xmlns:rdf="http://www.w3.org/1999/02/22-rdf-syntax-ns#"
   xmlns:cc="http://creativecommons.org/ns#"
   xmlns:dc="http://purl.org/dc/elements/1.1/">
  <defs
     id="defs5498" />
  <metadata
     id="metadata5594">
    <rdf:RDF>
      <cc:Work
         rdf:about="">
        <dc:format>image/svg+xml</dc:format>
        <dc:type
           rdf:resource="http://purl.org/dc/dcmitype/StillImage" />
      </cc:Work>
    </rdf:RDF>
  </metadata>
  <path
     style="fill:#000000;fill-opacity:1;fill-rule:nonzero;stroke:none"
     d="m 336.36328,479.54687 c 0,-33.95703 -27.41016,-61.36328 -61.36328,-61.36328 -33.95313,0 -61.36328,27.40625 -61.36328,61.36328 0,33.95313 27.41015,61.36329 61.36328,61.36329 33.95312,0 61.36328,-27.41016 61.36328,-61.36329 z M 622.72656,275 c 0,-33.95313 -27.41015,-61.36328 -61.36328,-61.36328 H 438.63672 c -33.95313,0 -61.36328,27.41015 -61.36328,61.36328 0,33.95312 27.41015,61.36328 61.36328,61.36328 h 122.72656 c 33.95313,0 61.36328,-27.41016 61.36328,-61.36328 z M 356.81641,622.72656 c -33.95313,0 -61.36329,27.41016 -61.36329,61.36328 0,33.95703 27.41016,61.36328 61.36329,61.36328 33.95703,0 61.36718,-27.40625 61.36718,-61.36328 0,-33.95312 -27.41015,-61.36328 -61.36718,-61.36328 z M 500,50 C 251.68359,50 50,251.68359 50,500 50,748.31641 251.68359,950 500,950 748.31641,950 950,748.31641 950,500 950,251.68359 748.31641,50 500,50 Z m 0,818.18359 C 297.08984,868.18359 131.81641,702.91016 131.81641,500 131.81641,297.08984 297.08984,131.81641 500,131.81641 c 202.91016,0 368.18359,165.27343 368.18359,368.18359 0,202.91016 -165.27343,368.18359 -368.18359,368.18359 z m 225,-450 c -33.95313,0 -61.36328,27.40625 -61.36328,61.36328 0,33.95313 27.41015,61.36329 61.36328,61.36329 33.95312,0 61.36328,-27.41016 61.36328,-61.36329 0,-33.95703 -27.41016,-61.36328 -61.36328,-61.36328 z m -81.81641,204.54297 c -33.95703,0 -61.36718,27.41016 -61.36718,61.36328 0,33.95703 27.41015,61.36328 61.36718,61.36328 33.95313,0 61.36328,-27.40625 61.36328,-61.36328 0,-33.95312 -27.41015,-61.36328 -61.36328,-61.36328 z m 0,0"
     id="path6" />
</svg>
