<?xml version="1.0" encoding="UTF-8" standalone="no"?>
<!-- Created with Inkscape (http://www.inkscape.org/) -->

<svg
   width="1000"
   height="1000"
   version="1.1"
   id="svg22"
   xmlns="http://www.w3.org/2000/svg"
   xmlns:svg="http://www.w3.org/2000/svg"
   xmlns:rdf="http://www.w3.org/1999/02/22-rdf-syntax-ns#"
   xmlns:cc="http://creativecommons.org/ns#"
   xmlns:dc="http://purl.org/dc/elements/1.1/">
  <defs
     id="defs5498" />
  <metadata
     id="metadata5594">
    <rdf:RDF>
      <cc:Work
         rdf:about="">
        <dc:format>image/svg+xml</dc:format>
        <dc:type
           rdf:resource="http://purl.org/dc/dcmitype/StillImage" />
      </cc:Work>
    </rdf:RDF>
  </metadata>
  <path
     style="fill:#000000;fill-opacity:1;fill-rule:nonzero;stroke:none"
     d="M 837.5,331.15601 C 837.5,241.07398 733.94922,33.976318 500,33.976318 c -233.94922,0 -337.5,207.097662 -337.5,297.179692 0,90.08203 74.5625,170.80469 43.52344,228.77734 -15.52344,28.98828 -7.22657,54.85547 6.23828,72.51172 12.40234,17.57031 34.16015,27.91797 55.92187,27.91797 h 62.08203 c 8.29297,0 16.58594,4.10547 21.76172,11.41406 6.23828,9.28125 12.39844,24.88282 10.34375,49.67969 l -5.17187,59.04297 c 0,2.05469 1.0664,4.10547 4.10547,5.17578 8.29297,2.05078 16.58593,3.11719 24.88281,5.17188 3.11719,1.0664 5.17187,-1.06641 6.23828,-4.10547 l 4.10547,-41.38672 c 4.10937,1.0664 9.28125,1.0664 14.53516,2.05078 l -5.17188,42.45703 c 0,3.12109 2.05078,5.17188 4.10547,5.17188 8.29297,1.0664 16.58594,2.05468 24.88281,3.12109 3.11719,0 5.17188,-2.05469 5.17188,-4.10547 l 3.12109,-41.38672 c 4.10547,0 9.27734,1.06641 14.53516,2.05078 l -2.05469,40.40235 c 0,3.12109 2.05469,6.24218 5.17578,6.24218 7.22266,0 15.51953,1.06641 23.8125,1.06641 3.12109,0 6.24219,-2.05078 6.24219,-5.17187 l 2.05078,-39.33594 c 4.10547,0 9.28125,0 13.46875,0 l 1.06641,38.26562 c 0,3.1211 3.12109,6.24219 6.24218,6.24219 8.29297,0 15.51953,0 23.8125,-1.06641 3.1211,0 5.17188,-2.05468 5.17188,-5.17578 l -1.06641,-40.39843 c 5.17188,0 9.28125,-1.07032 13.46875,-1.07032 l 3.1211,39.33594 c 0,3.12109 3.11718,6.23828 6.23828,5.17188 8.29297,-1.06641 15.51953,-2.05079 23.8164,-3.1211 3.11719,0 5.17188,-3.11719 5.17188,-6.23828 l -3.1211,-40.40234 c 5.17188,-1.06641 10.34766,-2.05469 15.51954,-2.05469 l 4.10546,39.33594 c 0,3.12109 3.1211,5.17187 6.24219,4.10547 9.27735,-2.05469 17.57422,-4.10547 24.88281,-6.24219 2.05079,-1.06641 4.10547,-3.1211 3.11719,-5.17188 l -5.17187,-54.85547 c -2.05078,-25.86718 4.10547,-41.38671 9.28125,-51.73437 5.17187,-8.29297 14.44922,-12.39844 23.8125,-12.39844 h 56.90625 c 31.03906,0 60.02734,-17.57031 70.375,-46.55859 5.17187,-15.51953 6.24218,-33.09375 -4.10547,-53.8711 C 764.00391,501.9607 837.5,421.15601 837.5,331.15601 Z m -563.15625,215.3125 c -17.57422,-11.41406 -30.05469,-55.92188 -8.29297,-83.84375 26.93359,-35.22656 49.67969,-38.34766 91.06641,-39.33203 25.86718,-1.06641 54.85547,7.22656 74.5625,18.64062 16.58593,9.27735 25.86718,25.86719 25.86718,44.50782 -1.07031,22.74609 -12.40234,49.67968 -57.97656,67.33593 -60.02734,21.67969 -97.30859,12.39844 -125.22656,-7.30859 z m 257.76562,126.29297 c -8.29687,3.12109 -17.57421,1.07031 -22.75,-6.23828 -4.10546,-6.24219 -8.29296,-16.58985 -9.27734,-33.09375 -1.06641,16.58593 -5.17187,26.93359 -9.27734,33.09375 -5.17578,7.22656 -14.45313,9.27734 -22.75,6.23828 -21.83985,-10.34375 -18.80469,-43.4375 -18.80469,-43.4375 23.81641,-110.77735 32.10937,-111.84375 38.26953,-107.65625 6.23828,4.10547 11.41406,54.85547 11.41406,54.85547 0,0 5.17188,-50.75 11.41407,-54.85547 6.23828,-4.10547 15.51953,-3.1211 38.34765,107.65625 2.05469,0 6.16016,34.16015 -16.58594,43.4375 z M 725.73828,546.46851 c -27.91797,19.70703 -65.19922,28.98828 -125.30859,6.23828 -45.57422,-17.57031 -57.97657,-44.50391 -57.97657,-67.33203 0,-18.64063 9.28125,-35.23047 25.86719,-44.50781 19.70703,-10.34766 48.69531,-18.64063 74.5625,-18.64063 42.45313,1.06641 64.21485,4.10547 91.14844,39.33203 21.67969,28.98828 9.28125,72.50782 -8.29297,84.91016 z m 0,0"
     id="path6" />
  <path
     style="fill:#000000;fill-opacity:1;fill-rule:nonzero;stroke:none"
     d="m 730.91406,735.90992 c 1.06641,-15.51954 8.29297,-36.21094 15.51953,-50.7461 3.1211,-7.22656 -2.05468,-15.51953 -10.34765,-14.53515 -20.69532,1.0664 -53.86719,3.12109 -69.39063,3.12109 -16.58594,0 -17.57031,34.16016 -16.58594,57.97266 0,7.22656 9.28125,9.28125 12.39844,3.12109 l 21.76172,-38.26563 c 1.06641,-2.05468 5.17578,-1.0664 4.10547,1.06641 l -10.34766,52.80078 -45.57422,74.5625 c -55.92187,42.45313 -132.53515,41.38672 -132.53515,41.38672 0,0 -76.61328,1.06641 -132.53516,-42.45312 l -45.57812,-74.5625 -10.34375,-52.80079 c 0,-2.05468 3.12109,-4.10546 4.10547,-1.0664 l 21.76171,38.26562 c 3.11719,6.23828 12.39844,4.10547 12.39844,-3.12109 1.06641,-23.8125 0,-57.97656 -16.58594,-57.97656 -15.52343,0 -48.69531,-2.05078 -69.39062,-3.11719 -8.29297,0 -13.46875,7.22656 -10.34766,14.53125 7.22657,14.53516 14.53516,35.23047 15.51954,50.75 1.07031,24.88281 -14.53126,89.01562 0,108.72266 10.34765,14.53515 33.09374,32.10937 44.50781,41.38671 4.10547,3.1211 10.34765,5.17188 15.51953,5.17188 7.22656,0 17.57422,1.07031 28.98828,10.34766 19.70703,14.45312 71.44141,63.14843 82.85547,64.21484 11.41406,1.07031 59.04297,1.07031 59.04297,1.07031 0,0 47.6289,1.06641 57.97265,-1.07031 11.41407,-1.06641 63.14844,-49.67969 82.85938,-64.21484 11.41406,-8.29297 21.75781,-10.34766 28.98437,-10.34766 5.17578,0 11.41407,-1.06641 15.51953,-5.17188 11.41407,-9.27734 34.16016,-26.93359 44.50782,-41.38671 15.68359,-18.5586 -0.82032,-82.77344 1.23437,-107.65625 z m 0,0"
     id="path8" />
  <path
     style="fill:#000000;fill-opacity:1;fill-rule:nonzero;stroke:none"
     d="m 426.50391,869.51538 -18.64063,-2.05468 c -5.17187,0 -8.29297,-5.17188 -8.29297,-9.27735 l 4.10547,-41.38672 c 0,-5.17187 5.17578,-8.29296 9.28125,-8.29296 l 18.64063,2.05078 c 5.17187,0 8.29296,5.17578 8.29296,9.28125 l -4.10546,41.38672 c 0.082,5.17187 -4.10547,9.27734 -9.28125,8.29296 z m 0,0"
     id="path10" />
  <path
     style="fill:#000000;fill-opacity:1;fill-rule:nonzero;stroke:none"
     d="m 480.375,873.62085 -18.64063,-1.0664 c -5.17578,0 -8.29296,-4.10547 -8.29296,-9.28125 l 2.05078,-41.38672 c 0,-5.17188 4.10547,-8.29297 9.28125,-8.29297 l 18.64062,1.06641 c 5.17188,0 8.29297,4.10546 8.29297,9.28125 l -2.05469,41.38671 c -0.98437,5.17188 -5.17187,8.29297 -9.27734,8.29297 z m 0,0"
     id="path12" />
  <path
     style="fill:#000000;fill-opacity:1;fill-rule:nonzero;stroke:none"
     d="M 373.70312,862.20679 355.0625,860.1521 c -5.17188,-1.0664 -8.29297,-5.17187 -7.22656,-9.27734 l 5.17578,-40.40234 c 1.0664,-5.17188 5.17187,-8.29297 9.27734,-7.22657 l 18.64063,2.05469 c 5.17578,1.06641 8.29297,5.17188 7.22656,9.27734 l -5.17188,40.40235 c 0,4.1875 -4.10546,7.22656 -9.28125,7.22656 z m 0,0"
     id="path14" />
  <path
     style="fill:#000000;fill-opacity:1;fill-rule:nonzero;stroke:none"
     d="m 573.49609,869.51538 18.64063,-2.05468 c 5.17187,0 8.29297,-5.17188 8.29297,-9.27735 l -4.10547,-41.38672 c 0,-5.17187 -5.17578,-8.29296 -9.28125,-8.29296 l -18.64063,2.05078 c -5.17187,0 -8.29297,5.17578 -8.29297,9.28125 l 4.10547,41.38672 c 0,5.17187 4.10547,8.29296 9.28125,8.29296 z m 0,0"
     id="path16" />
  <path
     style="fill:#000000;fill-opacity:1;fill-rule:nonzero;stroke:none"
     d="m 520.69531,872.55445 18.63672,-1.07032 c 5.17578,0 8.29688,-4.10546 8.29688,-9.27734 l -2.05469,-41.38672 c 0,-5.17187 -4.10547,-8.29297 -9.27735,-8.29297 l -18.64062,1.06641 c -5.17578,0 -8.29688,4.10547 -8.29688,9.28125 l 2.05469,41.38672 c 0,5.2539 4.10547,9.35937 9.28125,8.29297 z m 0,0"
     id="path18" />
  <path
     style="fill:#000000;fill-opacity:1;fill-rule:nonzero;stroke:none"
     d="m 626.29687,861.22242 18.64063,-2.05469 c 5.17187,-1.06641 8.29297,-5.17188 7.22656,-9.27735 l -5.17578,-40.40234 c -1.06641,-5.17187 -5.17187,-8.29297 -9.27734,-7.22656 l -18.64063,2.05469 c -5.17578,1.0664 -8.29297,5.17187 -7.22656,9.27734 l 5.17187,40.40234 c 0,5.17188 4.10547,8.21094 9.28125,7.22657 z m 0,0"
     id="path20" />
</svg>
