<?xml version="1.0" encoding="UTF-8" standalone="no"?>
<!-- Created with Inkscape (http://www.inkscape.org/) -->

<svg
   width="1000"
   height="1000"
   version="1.1"
   id="svg12"
   xmlns="http://www.w3.org/2000/svg"
   xmlns:svg="http://www.w3.org/2000/svg"
   xmlns:rdf="http://www.w3.org/1999/02/22-rdf-syntax-ns#"
   xmlns:cc="http://creativecommons.org/ns#"
   xmlns:dc="http://purl.org/dc/elements/1.1/">
  <defs
     id="defs5498" />
  <metadata
     id="metadata5594">
    <rdf:RDF>
      <cc:Work
         rdf:about="">
        <dc:format>image/svg+xml</dc:format>
        <dc:type
           rdf:resource="http://purl.org/dc/dcmitype/StillImage" />
      </cc:Work>
    </rdf:RDF>
  </metadata>
  <path
     style="fill:#000000;fill-opacity:1;fill-rule:nonzero;stroke:none"
     d="m 500,482.01562 c -89.35938,0 -162,72.57422 -162,161.85157 0,89.27343 72.64062,161.84765 162,161.84765 89.35937,0 162,-72.57422 162,-161.84765 0,-89.27735 -72.64063,-161.85157 -162,-161.85157 z m 0,197.81641 c -19.82813,0 -36,-16.15625 -36,-35.96484 0,-19.8125 16.17187,-35.96875 36,-35.96875 19.82812,0 36,16.15625 36,35.96875 0,19.80859 -16.17188,35.96484 -36,35.96484 z m 0,0"
     id="path6" />
  <path
     style="fill:#000000;fill-opacity:1;fill-rule:nonzero;stroke:none"
     d="m 446,248.23437 c 0,-29.79296 24.17578,-53.94921 54,-53.94921 29.82422,0 54,24.15625 54,53.94921 0,29.79688 -24.17578,53.94922 -54,53.94922 -29.82422,0 -54,-24.15234 -54,-53.94922"
     id="path8" />
  <path
     style="fill:#000000;fill-opacity:1;fill-rule:nonzero;stroke:none"
     d="M 788,50.421877 H 212 c -9.96094,0 -18,8.03125 -18,17.980469 V 931.59766 c 0,9.94921 8.03906,17.98046 18,17.98046 h 576 c 9.96094,0 18,-8.03125 18,-17.98046 V 68.402346 c 0,-9.949219 -8.03906,-17.980469 -18,-17.980469 z M 500,158.32031 c 49.61328,0 90,40.34766 90,89.91406 0,49.57032 -40.38672,89.91797 -90,89.91797 -49.61328,0 -90,-40.34765 -90,-89.91797 0,-49.5664 40.38672,-89.91406 90,-89.91406 z m 0,683.35938 c -109.1875,0 -198,-88.73047 -198,-197.8125 0,-109.08594 88.8125,-197.81641 198,-197.81641 109.1875,0 198,88.73047 198,197.81641 0,109.08203 -88.8125,197.8125 -198,197.8125 z m 0,0"
     id="path10" />
</svg>
