<?xml version="1.0" encoding="UTF-8" standalone="no"?>
<!-- Created with Inkscape (http://www.inkscape.org/) -->

<svg
   width="1000"
   height="1000"
   version="1.1"
   id="svg8"
   xmlns="http://www.w3.org/2000/svg"
   xmlns:svg="http://www.w3.org/2000/svg"
   xmlns:rdf="http://www.w3.org/1999/02/22-rdf-syntax-ns#"
   xmlns:cc="http://creativecommons.org/ns#"
   xmlns:dc="http://purl.org/dc/elements/1.1/">
  <defs
     id="defs5498" />
  <metadata
     id="metadata5594">
    <rdf:RDF>
      <cc:Work
         rdf:about="">
        <dc:format>image/svg+xml</dc:format>
        <dc:type
           rdf:resource="http://purl.org/dc/dcmitype/StillImage" />
      </cc:Work>
    </rdf:RDF>
  </metadata>
  <path
     style="fill:#000000;fill-opacity:1;fill-rule:nonzero;stroke:none"
     d="m 617.57031,402.28125 h -234.75 c -21.51953,0 -39.125,17.58984 -39.125,39.08984 v 469.04297 c 0,21.4961 17.60547,39.08594 39.125,39.08594 h 234.75 c 21.51953,0 39.125,-17.58984 39.125,-39.08594 V 441.37109 c 0,-21.5 -17.60547,-39.08984 -39.125,-39.08984 z m -117.375,234.52344 c -43.03906,0 -78.25,-35.17969 -78.25,-78.17578 0,-42.99219 35.21094,-78.17188 78.25,-78.17188 43.03906,0 78.25,35.17969 78.25,78.17188 0,42.99609 -35.21094,78.17578 -78.25,78.17578 z m -193.66797,-349.82813 55.16407,55.11328 c 35.60546,-35.17968 84.51171,-57.0664 138.5039,-57.0664 53.99219,0 102.89844,21.88672 138.50391,57.0664 l 55.16406,-55.11328 c -49.6875,-49.64062 -118.15625,-80.1289 -193.66797,-80.1289 -75.51172,0 -143.98047,30.48828 -193.66797,80.1289 z M 500.19531,50.5 c -118.9414,0 -226.53515,48.078125 -304.39062,125.85938 l 55.16406,55.11328 c 63.77344,-63.32032 151.80469,-102.79688 249.22656,-102.79688 97.42188,0 185.45313,39.47656 248.83594,103.1875 L 804.19531,176.75 C 726.73047,98.578125 619.13672,50.5 500.19531,50.5 Z m 0,0"
     id="path6" />
</svg>
