<?xml version="1.0" encoding="UTF-8" standalone="no"?>
<!-- Created with Inkscape (http://www.inkscape.org/) -->

<svg
   width="1000"
   height="1000"
   version="1.1"
   id="svg8"
   xmlns="http://www.w3.org/2000/svg"
   xmlns:svg="http://www.w3.org/2000/svg"
   xmlns:rdf="http://www.w3.org/1999/02/22-rdf-syntax-ns#"
   xmlns:cc="http://creativecommons.org/ns#"
   xmlns:dc="http://purl.org/dc/elements/1.1/">
  <defs
     id="defs5498" />
  <metadata
     id="metadata5594">
    <rdf:RDF>
      <cc:Work
         rdf:about="">
        <dc:format>image/svg+xml</dc:format>
        <dc:type
           rdf:resource="http://purl.org/dc/dcmitype/StillImage" />
      </cc:Work>
    </rdf:RDF>
  </metadata>
  <path
     style="fill:#000000;fill-opacity:1;fill-rule:nonzero;stroke:none"
     d="M 867.77344,132 H 132.22656 C 87.277344,132 50.5,168.80078 50.5,213.77734 V 786.22266 C 50.5,831.19922 87.277344,868 132.22656,868 H 867.77344 C 912.72266,868 949.5,831.19922 949.5,786.22266 V 213.77734 C 949.5,168.80078 912.72266,132 867.77344,132 Z m 0,654.63281 H 132.22656 V 213.36719 H 867.77344 Z M 336.54687,663.55469 H 438.70312 L 500,724.89062 561.29687,663.55469 H 663.45312 V 561.33203 L 724.75,500 663.45312,438.66797 V 336.44531 H 561.29687 L 500,275.10937 438.70312,336.44531 H 336.54687 V 438.66797 L 275.25,500 336.54687,561.33203 Z M 500,377.33203 c 67.83203,0 122.58984,54.79297 122.58984,122.66797 0,67.875 -54.75781,122.66797 -122.58984,122.66797 z m 0,0"
     id="path6" />
</svg>
