<?xml version="1.0" encoding="UTF-8" standalone="no"?>
<!-- Created with Inkscape (http://www.inkscape.org/) -->

<svg
   width="1000"
   height="1000"
   version="1.1"
   id="svg38"
   xmlns="http://www.w3.org/2000/svg"
   xmlns:svg="http://www.w3.org/2000/svg"
   xmlns:rdf="http://www.w3.org/1999/02/22-rdf-syntax-ns#"
   xmlns:cc="http://creativecommons.org/ns#"
   xmlns:dc="http://purl.org/dc/elements/1.1/">
  <defs
     id="defs5498" />
  <metadata
     id="metadata5594">
    <rdf:RDF>
      <cc:Work
         rdf:about="">
        <dc:format>image/svg+xml</dc:format>
        <dc:type
           rdf:resource="http://purl.org/dc/dcmitype/StillImage" />
      </cc:Work>
    </rdf:RDF>
  </metadata>
  <path
     style="fill:#000000;fill-opacity:1;fill-rule:nonzero;stroke:none"
     d="m 231.93359,616.59766 v 143.42968 h 534.17578 l -0.0781,-143.42968 z m 121.03516,128.85937 c -31.86328,0 -57.69922,-23.89062 -57.69922,-55.77344 0,-31.88281 25.83594,-57.73047 57.69922,-57.73047 31.86719,0 57.70312,25.84766 57.70312,57.73047 0,31.88282 -25.83593,55.77344 -57.70312,55.77344 z m 145.46484,-18.01562 c -20.82422,0 -37.73437,-16.92188 -37.73437,-37.75782 0,-20.83593 16.91015,-37.75781 37.73437,-37.75781 20.82422,0 37.73828,16.92188 37.73828,37.75781 0,20.83594 -16.91406,37.75782 -37.73828,37.75782 z m 135.75782,15.11718 c -30.22266,0 -54.80469,-22.63672 -54.80469,-52.875 0,-30.23828 24.5039,-54.83203 54.80469,-54.83203 30.29687,0 54.80078,24.51563 54.80078,54.83203 0,30.31641 -24.58203,52.875 -54.80078,52.875 z m 0,0"
     id="path6" />
  <path
     style="fill:#000000;fill-opacity:1;fill-rule:nonzero;stroke:none"
     d="m 634.19141,729.08594 c -18.32032,-0.23438 -34.29297,-11.04688 -39.53907,-27.4961 -0.78125,-2.42968 -1.25,-4.93359 -1.64453,-7.51953 0.47266,2.89844 0,-1.41015 0,-1.64453 -0.0781,-1.33203 -0.0781,-2.66406 -0.0781,-4.07422 0,-1.33203 0.15625,-2.66406 0.23828,-3.99609 0.39062,-4.22656 -0.47266,2.58594 0.3125,-1.64453 0.54687,-2.97657 1.40625,-5.875 2.42578,-8.69532 1.41016,-3.91406 -1.09766,2.27344 0.625,-1.48828 0.55078,-1.17187 1.17578,-2.26953 1.80078,-3.36718 0.62891,-1.09766 1.33203,-2.19141 2.03516,-3.21094 0.0781,-0.15625 2.58593,-3.44531 0.86328,-1.33203 1.5664,-1.95703 3.28906,-3.76172 5.16797,-5.48438 0.9375,-0.85937 1.8789,-1.64453 2.8164,-2.5039 -1.95703,1.64453 1.95703,-1.33204 2.34766,-1.57032 2.11719,-1.41015 4.38672,-2.58203 6.65625,-3.60156 -2.50391,1.17578 1.33203,-0.46875 1.48828,-0.54687 1.17578,-0.47266 2.42578,-0.78516 3.67969,-1.17579 1.2539,-0.39062 2.5039,-0.6289 3.75781,-0.86328 4.14844,-0.85937 -2.66406,0.15625 1.64453,-0.3125 3.13281,-0.3125 6.26172,-0.3125 9.39453,-0.0781 0.23438,0 4.53907,0.625 1.64453,0.15625 1.25,0.23437 2.58204,0.46875 3.83594,0.78515 2.50391,0.54688 4.9336,1.41016 7.35938,2.34766 -2.58594,-1.01562 1.17578,0.62891 1.41015,0.78516 1.09375,0.54687 2.19141,1.17578 3.28516,1.8789 1.09766,0.625 2.11719,1.33203 3.13281,2.03516 1.25391,0.94141 1.33203,1.01953 0.3125,0.16016 0.62891,0.54687 1.25391,1.09375 1.87891,1.64453 1.8789,1.64453 3.60156,3.52343 5.24609,5.40234 2.66406,3.05469 -1.41015,-2.03516 0.94141,1.25391 0.70312,1.01953 1.40625,2.11718 2.03515,3.13281 0.70313,1.09766 1.25,2.19531 1.87891,3.29297 0.0781,0.15625 1.80078,3.99219 0.78125,1.40625 1.17578,2.74219 1.95703,5.71875 2.66406,8.61719 0.0781,0.23828 0.78125,4.46484 0.39063,1.5664 0.15625,1.33203 0.23437,2.66406 0.3125,3.9961 0.15625,2.66406 0,5.32812 -0.15625,8.07031 0.23437,-2.82031 -0.23438,1.25 -0.3125,1.5664 -0.23438,1.25391 -0.55078,2.50391 -0.86328,3.75782 -0.3125,1.2539 -0.70313,2.42968 -1.17188,3.60547 -0.55078,1.48828 -0.55078,1.5664 0,0.23437 -0.3125,0.78125 -0.70703,1.48828 -1.09765,2.26953 -0.85938,1.88281 -1.95704,3.60547 -3.05469,5.32813 -0.15625,0.23437 -2.58203,3.44531 -0.78125,1.2539 -0.78125,0.94141 -1.56641,1.87891 -2.42578,2.74219 -1.41016,1.48828 -2.89844,2.89844 -4.46485,4.23047 -3.05078,2.58203 2.11328,-1.41016 -1.17187,0.85937 -1.01953,0.70704 -2.03516,1.41016 -3.13281,2.03907 -6.8125,4.30859 -14.25,6.10937 -22.46875,6.1875 -7.35938,0.0781 -13.46875,6.10937 -13.46875,13.47265 0,7.28516 6.10937,13.55078 13.46875,13.47266 24.42578,-0.23438 47.36328,-12.45313 59.8125,-33.83984 12.37109,-21.38282 10.80468,-49.34766 -2.58204,-69.8711 -13.46875,-20.60156 -37.89453,-32.82422 -62.47656,-30.70703 -24.26953,2.03516 -46.66015,17.15234 -56.68359,39.63672 -9.31641,20.99219 -8.21875,45.90234 4.85547,65.17187 12.83984,18.95704 34.44531,29.375 57.15234,29.6875 7.35938,0.0781 13.46484,-6.1875 13.46484,-13.47265 -0.0781,-7.51953 -6.18359,-13.47266 -13.54296,-13.55078 z m 0,0"
     id="path8" />
  <path
     style="fill:#000000;fill-opacity:1;fill-rule:nonzero;stroke:none"
     d="M 498.43359,713.88672 C 485.125,713.65234 474.47656,703 474.24219,689.68359 c -0.23438,-13.3164 11.19531,-23.96875 24.1914,-24.20312 13.3086,-0.23828 23.95703,11.19922 24.19141,24.20312 0.23437,13.39453 -11.27344,23.96875 -24.19141,24.20313 -7.35937,0.16015 -13.46484,6.03515 -13.46484,13.47656 0,7.28516 6.10547,13.62891 13.46484,13.47266 27.5586,-0.47266 48.69922,-21.38672 51.125,-48.56641 2.42578,-27.18359 -19.80859,-50.36719 -45.80078,-53.58203 -25.67969,-3.21094 -50.49609,15.35547 -55.42969,40.65625 -5.16796,26.55469 11.27344,52.79687 37.34375,59.84766 4.14844,1.09375 8.53516,1.5664 12.76172,1.64453 7.35938,0.15625 13.46485,-6.26563 13.46485,-13.47266 0,-7.36328 -6.10547,-13.31641 -13.46485,-13.47656 z m 0,0"
     id="path10" />
  <path
     style="fill:#000000;fill-opacity:1;fill-rule:nonzero;stroke:none"
     d="m 352.96875,731.98437 c -9.47266,-0.0781 -17.37891,-2.27343 -25.83594,-7.67578 -1.01562,-0.6289 -2.03515,-1.41015 -3.05078,-2.11718 2.26953,1.64453 -0.86328,-0.78125 -1.01953,-1.01954 -1.80078,-1.5664 -3.52344,-3.36718 -5.08984,-5.24609 -2.58204,-2.97656 1.48828,2.11328 -0.85938,-1.09766 -0.70703,-1.01953 -1.41016,-2.03515 -2.03516,-3.05468 -0.6289,-1.01953 -1.2539,-2.11328 -1.80078,-3.21094 -0.23437,-0.46875 -2.1914,-4.9375 -1.17578,-2.42969 -0.9375,-2.34765 -1.64453,-4.77734 -2.1914,-7.20703 -0.3125,-1.25391 -0.54688,-2.50391 -0.78516,-3.75781 0.47266,2.89844 -0.0781,-1.33203 -0.0781,-1.56641 -0.23437,-2.66406 -0.15625,-5.32812 0,-7.99219 0,-0.23437 0.55079,-4.54296 0.0781,-1.64453 0.23828,-1.72265 0.62891,-3.36718 1.01953,-5.08984 0.625,-2.50781 1.48828,-4.9375 2.34766,-7.28516 -1.01563,2.58203 0.6289,-1.17578 0.70703,-1.41015 0.54687,-1.09766 1.17187,-2.19532 1.80078,-3.29297 0.625,-1.09375 1.32812,-2.11328 2.03516,-3.13281 0.15625,-0.15625 2.66015,-3.44532 0.85937,-1.25 1.80078,-2.27344 3.91406,-4.3086 6.03125,-6.26954 0.15625,-0.15625 3.28516,-2.74218 1.09375,-1.09375 1.01953,-0.78515 2.03516,-1.49218 3.05469,-2.19531 2.11328,-1.41015 4.30469,-2.58594 6.57422,-3.67969 3.67968,-1.80468 -2.42578,0.85938 1.41015,-0.6289 1.17578,-0.46875 2.42578,-0.86328 3.60157,-1.25391 1.2539,-0.39062 2.5039,-0.70312 3.75781,-1.01562 0.46875,-0.16016 5.55859,-0.94141 2.82031,-0.62891 2.66016,-0.3125 5.32422,-0.39062 7.98438,-0.39062 1.33203,0 2.66015,0.15625 3.99218,0.23437 4.22657,0.3125 -2.58203,-0.46875 1.56641,0.23438 2.50391,0.46875 5.01172,1.09765 7.51562,1.8789 1.17579,0.39453 2.42579,0.86328 3.60157,1.33203 -2.50391,-0.9375 2.03515,1.09766 2.5039,1.33203 9.00391,4.69922 13.78125,9.8711 18.71094,18.72266 0.62891,1.09766 1.17578,2.27344 1.64453,3.36719 -1.17187,-2.50391 0.47266,1.2539 0.55078,1.48828 0.85938,2.42969 1.48438,4.9375 2.03516,7.44141 0.0781,0.23828 0.70312,4.46484 0.3125,1.5664 0.15625,1.33203 0.23437,2.66406 0.3125,3.9961 0.15625,3.13281 0,6.1875 -0.3125,9.32031 0.3125,-2.89453 -0.3125,1.2539 -0.3125,1.48828 -0.3125,1.64844 -0.78516,3.29297 -1.25391,4.9375 -0.15625,0.46875 -1.8789,5.16797 -0.78125,2.58594 -0.6289,1.48828 -1.41015,2.97656 -2.19531,4.38672 -0.54687,1.09375 -1.25,2.11328 -1.87891,3.13281 -0.23437,0.46875 -3.20703,4.30859 -1.48437,2.1914 -2.03516,2.50782 -4.38672,4.77735 -6.8125,6.97266 -2.97656,2.58594 2.11328,-1.48828 -1.09766,0.94141 -1.32812,0.9375 -2.73828,1.80078 -4.14843,2.66015 -1.41016,0.86328 -2.89454,1.56641 -4.38282,2.35157 -1.41015,0.625 -1.48828,0.70312 -0.23437,0.15625 -0.78516,0.3125 -1.56641,0.6289 -2.35156,0.86328 -2.81641,1.01562 -5.71485,1.72265 -8.60938,2.34765 -0.86328,0.15625 -1.72266,0.31641 -2.58594,0.47266 1.41016,-0.23828 1.33203,-0.23828 -0.3125,0 -1.64453,0.15625 -3.44531,0.23437 -5.24609,0.23437 -7.35938,0.0781 -13.46484,6.10938 -13.46484,13.47266 0,7.28516 6.10546,13.55078 13.46484,13.47266 24.50781,-0.23438 46.97656,-11.98438 60.59766,-32.42969 13.78125,-20.75781 13.30859,-48.01953 2.5039,-69.79297 -10.95703,-22.17187 -33.74219,-35.48828 -57.69922,-37.99219 -24.89453,-2.58593 -48.22656,10.1836 -63.10156,29.45313 -16.20703,20.99219 -17.14453,50.99219 -5.32422,74.10156 11.90235,23.1875 37.57813,36.42578 63.02344,36.66016 7.35937,0.0781 13.46875,-6.1875 13.46875,-13.47266 0.0781,-7.44141 -6.10938,-13.39453 -13.46875,-13.47266 z m 0,0"
     id="path12" />
  <path
     style="fill:#000000;fill-opacity:1;fill-rule:nonzero;stroke:none"
     d="m 218.38672,616.59766 c 0,46.29687 0,92.51171 0,138.80859 0,1.56641 0,3.05469 0,4.62109 0,7.36328 6.10937,13.47266 13.46875,13.47266 25.91406,0 51.82812,0 77.74219,0 58.01171,0 115.94921,0 173.88281,0 60.36328,0 120.72656,0 181.00781,0 33.03906,0 66.07813,0 99.11719,0 0.78125,0 1.5664,0 2.34765,0 7.35938,0 13.46875,-6.10938 13.46875,-13.47266 0,-46.29687 0,-92.51172 0,-138.80859 0,-1.56641 0,-3.05469 0,-4.62109 0,-7.36329 -6.10937,-13.47266 -13.46875,-13.47266 -25.91406,0 -51.82812,0 -77.74218,0 -58.01172,0 -115.94922,0 -173.88282,0 -60.36328,0 -120.72656,0 -181.00781,0 -33.03906,0 -66.07812,0 -99.11719,0 -0.78515,0 -1.5664,0 -2.34765,0 -7.28125,-0.0781 -13.46875,6.10937 -13.46875,13.47266 0,7.36328 6.10937,13.47265 13.46875,13.47265 25.91406,0 51.82812,0 77.74219,0 58.01171,0 115.94921,0 173.88281,0 60.36328,0 120.72656,0 181.00781,0 33.03906,0 66.07813,0 99.11719,0 0.78125,0 1.5664,0 2.34765,0 -4.46093,-4.46484 -9.0039,-9.00781 -13.46484,-13.47265 0,46.29687 0,92.51171 0,138.80859 0,1.56641 0,3.05469 0,4.62109 4.46094,-4.46484 9.00391,-9.00781 13.46484,-13.47265 -25.91406,0 -51.82812,0 -77.74218,0 -58.01172,0 -115.94922,0 -173.88282,0 -60.36328,0 -120.72656,0 -181.00781,0 -33.03906,0 -66.07812,0 -99.11719,0 -0.78515,0 -1.5664,0 -2.34765,0 4.46094,4.46484 9,9.00781 13.46484,13.47265 0,-46.29687 0,-92.51172 0,-138.80859 0,-1.56641 0,-3.05469 0,-4.62109 0,-7.36329 -6.10547,-13.47266 -13.46484,-13.47266 -7.28125,-0.0781 -13.46875,6.10937 -13.46875,13.47266 z m 0,0"
     id="path14" />
  <path
     style="fill:#000000;fill-opacity:1;fill-rule:nonzero;stroke:none"
     d="m 838.05859,239.97266 v 519.97656 h 98.01953 l 0.082,-519.97656 z m 49.01172,59.92578 c 18.86719,0 34.13281,15.27343 34.13281,34.15234 0,18.87891 -15.26562,34.15234 -34.13281,34.15234 -18.86719,0 -34.13672,-15.27343 -34.13672,-34.15234 0,-18.87891 15.26953,-34.15234 34.13672,-34.15234 z m 0,178.83593 c -20.74609,0 -37.57812,-16.84375 -37.57812,-37.60156 0,-20.75781 16.83203,-37.60156 37.57812,-37.60156 20.7461,0 37.57813,16.84375 37.57813,37.60156 0,20.75781 -16.83203,37.60156 -37.57813,37.60156 z m 0,0"
     id="path16" />
  <path
     style="fill:#000000;fill-opacity:1;fill-rule:nonzero;stroke:none"
     d="m 887.07031,465.25781 c -13.23047,-0.23437 -23.80078,-10.80859 -24.03515,-24.04687 -0.23438,-13.23828 11.19531,-23.89063 24.03515,-24.04688 13.23047,-0.23437 23.87891,11.19922 24.03516,24.04688 0.3125,13.23828 -11.11719,23.8125 -24.03516,24.04687 -7.35937,0.15625 -13.46484,6.03125 -13.46484,13.47656 0,7.28125 6.10547,13.62891 13.46484,13.47266 27.48047,-0.47266 48.61719,-21.38672 50.96875,-48.41016 2.42578,-27.10546 -19.80859,-50.21093 -45.64453,-53.42578 -25.60156,-3.13281 -50.42187,15.35547 -55.27344,40.5 -5.16797,26.47657 11.19532,52.64063 37.26563,59.69141 4.07031,1.09375 8.53515,1.56641 12.76172,1.64453 7.35937,0.15625 13.46484,-6.26953 13.46484,-13.47266 0,-7.44531 -6.18359,-13.32031 -13.54297,-13.47656 z m 0,0"
     id="path18" />
  <path
     style="fill:#000000;fill-opacity:1;fill-rule:nonzero;stroke:none"
     d="m 887.07031,313.37109 c 11.27344,0.23438 20.4336,9.39844 20.66797,20.67969 0,0.86328 0,1.80078 -0.0781,2.66406 0.23437,-1.41015 0.23437,-1.33203 -0.0781,0.3125 -0.15625,0.86329 -0.39062,1.64454 -0.625,2.50782 -0.0781,0.23437 -1.41016,4.15234 -0.39453,1.5664 -0.625,1.56641 -1.48438,2.97657 -2.34766,4.46485 -0.9375,1.2539 -0.9375,1.41015 -0.0781,0.3125 -0.78125,1.01953 -1.64453,1.8789 -2.50391,2.82031 -0.39062,0.39062 -4.14844,3.36719 -2.03515,1.87891 -1.72266,1.2539 -3.60157,2.19531 -5.48047,3.05468 2.34765,-1.09375 -2.27344,0.55078 -2.82032,0.70703 -0.85937,0.23438 -1.72265,0.39063 -2.58203,0.46875 2.81641,-0.46875 -1.41015,-0.0781 -1.72265,-0.0781 -0.86328,0 -1.80078,0 -2.66407,-0.0781 1.41016,0.23438 1.33204,0.23438 -0.3125,-0.0781 -0.85937,-0.15625 -1.64453,-0.39063 -2.5039,-0.625 -0.23438,-0.0781 -4.14844,-1.41016 -1.56641,-0.39453 -1.5664,-0.625 -2.97656,-1.48828 -4.46094,-2.34766 -1.2539,-0.9414 -1.41015,-0.9414 -0.3164,-0.0781 -1.01563,-0.78516 -1.87891,-1.64453 -2.81641,-2.50782 -0.39062,-0.39062 -3.36719,-4.15234 -1.8789,-2.03515 -1.25391,-1.72656 -2.19141,-3.60547 -3.05469,-5.48438 1.09765,2.35157 -0.54688,-2.27343 -0.70313,-2.82031 -0.23437,-0.86328 -0.39062,-1.72266 -0.46875,-2.58594 0.46875,2.82032 0.0781,-1.41015 0.0781,-1.72265 0,-0.85938 0,-1.80078 0.0781,-2.66407 -0.23437,1.41016 -0.23437,1.33204 0.0781,-0.3125 0.15625,-0.86328 0.39062,-1.72265 0.625,-2.50781 0.0781,-0.23437 1.41015,-4.14844 0.39062,-1.5664 0.62891,-1.56641 1.48828,-2.97657 2.35157,-4.46485 0.9375,-1.25391 0.9375,-1.41016 0.0781,-0.3125 0.78125,-1.01953 1.64063,-1.87891 2.50391,-2.82031 0.39062,-0.39063 4.14843,-3.36719 2.03515,-1.87891 1.72266,-1.2539 3.60157,-2.19531 5.48047,-3.05469 -2.34765,1.09766 2.26953,-0.55078 2.82031,-0.70703 0.85938,-0.23437 1.71875,-0.39062 2.58204,-0.46875 -2.74219,0.54688 1.48828,0.15625 1.72265,0.15625 7.35938,-0.15625 13.46485,-6.03125 13.46485,-13.47265 0,-7.28516 -6.10547,-13.62891 -13.46485,-13.47266 -26.30469,0.46875 -47.13281,21.38281 -47.60156,47.625 -0.46875,26.32031 22.15625,47.15625 47.60156,47.62891 26.30469,0.46875 47.12891,-22.17188 47.60156,-47.62891 0.46875,-26.32031 -22.15625,-47.15625 -47.60156,-47.625 -7.35937,-0.15625 -13.46484,6.26563 -13.46484,13.47266 0,7.4414 6.10547,13.3164 13.46484,13.47265 z m 0,0"
     id="path20" />
  <path
     style="fill:#000000;fill-opacity:1;fill-rule:nonzero;stroke:none"
     d="m 824.59375,239.97266 c 0,26.55468 0,53.10937 0,79.66406 0,58.67187 0,117.34375 0,176.01562 0,59.375 0,118.75391 0,178.12891 0,28.67187 0,57.33984 0,86.01172 0,0.0781 0,0.15625 0,0.15625 0,7.36328 6.10547,13.47265 13.46484,13.47265 32.64844,0 65.375,0 98.01953,0 7.35938,0 13.46875,-6.10937 13.46875,-13.47265 0,-26.55469 0,-53.10938 0,-79.66406 0,-58.67188 0,-117.34375 0,-176.01563 0,-59.375 0,-118.75391 0,-178.12891 0,-28.67187 0,-57.33984 0,-86.01171 0,-0.0781 0,-0.15625 0,-0.15625 0,-7.36329 -6.10937,-13.47266 -13.46875,-13.47266 -32.64453,0 -65.37109,0 -98.01953,0 -7.35937,0 -13.46484,6.10937 -13.46484,13.47266 0,7.36328 6.10547,13.47265 13.46484,13.47265 32.64844,0 65.375,0 98.01953,0 -4.46093,-4.46484 -9,-9.00781 -13.46484,-13.47265 0,26.55468 0,53.10937 0,79.66406 0,58.67187 0,117.34375 0,176.01562 0,59.375 0,118.75391 0,178.12891 0,28.67187 0,57.33984 0,86.01172 0,0.0781 0,0.15625 0,0.15625 4.46484,-4.46485 9.00391,-9.00781 13.46484,-13.47266 -32.64453,0 -65.37109,0 -98.01953,0 4.46485,4.46485 9.00391,9.00781 13.46875,13.47266 0,-26.55469 0,-53.10938 0,-79.66406 0,-58.67188 0,-117.34375 0,-176.01563 0,-59.375 0,-118.75391 0,-178.12891 0,-28.67187 0,-57.33984 0,-86.01171 0,-0.0781 0,-0.15625 0,-0.15625 0,-7.36329 -6.10937,-13.47266 -13.46875,-13.47266 -7.35937,0 -13.46484,6.10937 -13.46484,13.47266 z m 0,0"
     id="path22" />
  <path
     style="fill:#000000;fill-opacity:1;fill-rule:nonzero;stroke:none"
     d="m 231.93359,239.97266 v 329.78125 h 534.17578 l -0.0781,-329.78125 z M 752.56641,556.28125 H 245.39844 V 253.52344 h 507.16797 z m 0,0"
     id="path24" />
  <path
     style="fill:#000000;fill-opacity:1;fill-rule:nonzero;stroke:none"
     d="m 218.38672,239.97266 c 0,37.1289 0,74.18359 0,111.3125 0,59.21875 0,118.35937 0,177.58203 0,13.6289 0,27.33593 0,40.96484 0,7.36719 6.10937,13.47656 13.46875,13.47656 25.91406,0 51.82812,0 77.74219,0 58.01171,0 115.94921,0 173.88281,0 60.36328,0 120.72656,0 181.00781,0 33.03906,0 66.07813,0 99.11719,0 0.78125,0 1.5664,0 2.34765,0 7.35938,0 13.46875,-6.10937 13.46875,-13.47656 0,-37.12891 0,-74.17969 0,-111.30859 0,-59.21875 0,-118.36328 0,-177.58203 0,-13.62891 0,-27.33985 0,-40.96875 0,-7.36329 -6.10937,-13.47266 -13.46875,-13.47266 -25.91406,0 -51.82812,0 -77.74218,0 -58.01172,0 -115.94922,0 -173.88282,0 -60.36328,0 -120.72656,0 -181.00781,0 -33.03906,0 -66.07812,0 -99.11719,0 -0.78515,0 -1.5664,0 -2.34765,0 -7.28125,0 -13.46875,6.10937 -13.46875,13.47266 0,7.36328 6.10937,13.47265 13.46875,13.47265 25.91406,0 51.82812,0 77.74219,0 58.01171,0 115.94921,0 173.88281,0 60.36328,0 120.72656,0 181.00781,0 33.03906,0 66.07813,0 99.11719,0 0.78125,0 1.5664,0 2.34765,0 -4.46093,-4.46484 -9.0039,-9.00781 -13.46484,-13.47265 0,37.1289 0,74.18359 0,111.3125 0,59.21875 0,118.35937 0,177.58203 0,13.6289 0,27.33593 0,40.96484 4.46094,-4.46484 9.00391,-9.00781 13.46484,-13.47266 -25.91406,0 -51.82812,0 -77.74218,0 -58.01172,0 -115.94922,0 -173.88282,0 -60.36328,0 -120.72656,0 -181.00781,0 -33.03906,0 -66.07812,0 -99.11719,0 -0.78515,0 -1.5664,0 -2.34765,0 4.46094,4.46485 9,9.00782 13.46484,13.47266 0,-37.12891 0,-74.17969 0,-111.30859 0,-59.21875 0,-118.36328 0,-177.58203 0,-13.62891 0,-27.33985 0,-40.96875 0,-7.36329 -6.10547,-13.47266 -13.46484,-13.47266 -7.28125,0 -13.46875,6.10937 -13.46875,13.47266 z m 0,0"
     id="path26" />
  <path
     style="fill:#000000;fill-opacity:1;fill-rule:nonzero;stroke:none"
     d="m 752.56641,542.80859 c -27.01172,0 -54.01954,0 -81.03125,0 -59.10938,0 -118.21875,0 -177.32813,0 -58.32812,0 -116.57422,0 -174.90234,0 -24.66016,0 -49.2461,0 -73.90625,0 4.46093,4.46485 9.0039,9.00782 13.46484,13.47266 0,-39.16406 0,-78.25391 0,-117.42188 0,-55.61328 0,-111.23046 0,-166.76953 0,-6.1875 0,-12.375 0,-18.5664 -4.46094,4.46484 -9.00391,9.01172 -13.46484,13.47656 27.01172,0 54.01953,0 81.03125,0 59.10937,0 118.21875,0 177.32812,0 58.32813,0 116.57422,0 174.90235,0 24.66015,0 49.24609,0 73.90625,0 -4.46094,-4.46484 -9.00391,-9.01172 -13.46485,-13.47656 0,39.16797 0,78.25781 0,117.42187 0,55.61719 0,111.23438 0,166.77344 0,6.1875 0,12.375 0,18.5625 0,7.36328 6.10547,13.47266 13.46485,13.47266 7.35937,0 13.46484,-6.10938 13.46484,-13.47266 0,-39.16406 0,-78.25391 0,-117.42188 0,-55.61328 0,-111.23046 0,-166.76953 0,-6.1875 0,-12.375 0,-18.5664 0,-7.36328 -6.10547,-13.47266 -13.46484,-13.47266 -27.01172,0 -54.01954,0 -81.03125,0 -59.10938,0 -118.21875,0 -177.32813,0 -58.32812,0 -116.57422,0 -174.90234,0 -24.66016,0 -49.2461,0 -73.90625,0 -7.35938,0 -13.46485,6.10938 -13.46485,13.47266 0,39.16797 0,78.25781 0,117.42187 0,55.61719 0,111.23438 0,166.77344 0,6.1875 0,12.375 0,18.5625 0,7.36328 6.10547,13.47266 13.46485,13.47266 27.01172,0 54.01953,0 81.03125,0 59.10937,0 118.21875,0 177.32812,0 58.32813,0 116.57422,0 174.90235,0 24.66015,0 49.24609,0 73.90625,0 7.35937,0 13.46484,-6.10938 13.46484,-13.47266 0,-7.36328 -6.10547,-13.47266 -13.46484,-13.47266 z m 0,0"
     id="path28" />
  <path
     style="fill:#000000;fill-opacity:1;fill-rule:nonzero;stroke:none"
     d="m 63.921875,239.97266 v 519.97656 h 98.019535 l 0.0781,-519.97656 z m 49.085935,59.92578 c 18.86719,0 34.13672,15.27343 34.13672,34.15234 0,18.87891 -15.26953,34.15234 -34.13672,34.15234 -18.867185,0 -34.13281,-15.27343 -34.13281,-34.15234 -0.07813,-18.87891 15.265625,-34.15234 34.13281,-34.15234 z m 0,178.83593 c -20.746091,0 -37.578122,-16.84375 -37.578122,-37.60156 0,-20.75781 16.832031,-37.60156 37.578122,-37.60156 20.7461,0 37.58203,16.84375 37.58203,37.60156 0,20.75781 -16.83593,37.60156 -37.58203,37.60156 z m 0,0"
     id="path30" />
  <path
     style="fill:#000000;fill-opacity:1;fill-rule:nonzero;stroke:none"
     d="m 113.00781,465.25781 c -13.230466,-0.23437 -23.800779,-10.80859 -24.035154,-24.04687 -0.234375,-13.23828 11.195314,-23.89063 24.035154,-24.04688 13.23047,-0.23437 23.87891,11.19922 24.03516,24.04688 0.23437,13.23828 -11.19531,23.8125 -24.03516,24.04687 -7.35937,0.15625 -13.464841,6.03125 -13.464841,13.47656 0,7.28125 6.105471,13.62891 13.464841,13.47266 27.48047,-0.47266 48.6211,-21.38672 50.96875,-48.41016 2.42578,-27.10546 -19.80859,-50.21093 -45.64453,-53.42578 -25.601561,-3.13281 -50.417968,15.35547 -55.273436,40.5 -5.167969,26.47657 11.195312,52.64063 37.265626,59.69141 4.07031,1.09375 8.53516,1.56641 12.76172,1.64453 7.35937,0.15625 13.46484,-6.26953 13.46484,-13.47266 -0.0781,-7.44531 -6.18359,-13.32031 -13.54297,-13.47656 z m 0,0"
     id="path32" />
  <path
     style="fill:#000000;fill-opacity:1;fill-rule:nonzero;stroke:none"
     d="m 113.00781,313.37109 c 11.27344,0.23438 20.4336,9.39844 20.66797,20.67969 0,0.86328 0,1.80078 -0.0781,2.66406 0.23438,-1.41015 0.23438,-1.33203 -0.0781,0.3125 -0.15625,0.86329 -0.39062,1.64454 -0.625,2.50782 -0.0781,0.23437 -1.41016,4.15234 -0.39062,1.5664 -0.62891,1.56641 -1.48829,2.97657 -2.35157,4.46485 -0.9375,1.2539 -0.9375,1.41015 -0.0781,0.3125 -0.78125,1.01953 -1.64062,1.8789 -2.5039,2.82031 -0.39063,0.39062 -4.14844,3.36719 -2.03516,1.87891 -1.72266,1.2539 -3.60156,2.19531 -5.48047,3.05468 2.34766,-1.09375 -2.26953,0.55078 -2.82031,0.70703 -0.85938,0.23438 -1.71875,0.39063 -2.58203,0.46875 2.82031,-0.46875 -1.41016,-0.0781 -1.72266,-0.0781 -0.85937,0 -1.80078,0 -2.66015,-0.0781 1.40625,0.23438 1.32812,0.23438 -0.31641,-0.0781 -0.85938,-0.15625 -1.64063,-0.39063 -2.50391,-0.625 -0.23437,-0.0781 -4.14843,-1.41016 -1.5664,-0.39453 -1.56641,-0.625 -2.97266,-1.48828 -4.46094,-2.34766 -1.25391,-0.9414 -1.41016,-0.9414 -0.3125,-0.0781 -1.01953,-0.78516 -1.878906,-1.64453 -2.820313,-2.50782 -0.390624,-0.39062 -3.367187,-4.15234 -1.878906,-2.03515 -1.253906,-1.72656 -2.191406,-3.60547 -3.054687,-5.48438 1.097656,2.35157 -0.546875,-2.27343 -0.703125,-2.82031 -0.234375,-0.86328 -0.390625,-1.72266 -0.46875,-2.58594 0.46875,2.82032 0.07813,-1.41015 0.07813,-1.72265 0,-0.85938 0,-1.80078 0.07813,-2.66407 -0.234375,1.41016 -0.234375,1.33204 0.07813,-0.3125 0.15625,-0.86328 0.390625,-1.64453 0.625,-2.50781 0.07813,-0.23437 1.410156,-4.14844 0.394531,-1.5664 0.625,-1.56641 1.484375,-2.97657 2.347656,-4.46485 0.9375,-1.25391 0.9375,-1.41016 0.07813,-0.3125 0.78125,-1.01953 1.644531,-1.87891 2.503907,-2.82031 0.390624,-0.39063 4.148437,-3.36719 2.035157,-1.87891 1.72266,-1.2539 3.60156,-2.19531 5.48047,-3.05469 -2.34766,1.09766 2.27344,-0.55078 2.82031,-0.70703 0.85938,-0.23437 1.72266,-0.39062 2.58203,-0.46875 -2.8164,0.54688 1.41016,0.15625 1.72266,0.15625 7.35937,-0.15625 13.46484,-6.03125 13.46484,-13.47265 0,-7.28516 -6.10547,-13.62891 -13.46484,-13.47266 -26.30469,0.46875 -47.128909,21.38281 -47.601565,47.625 -0.46875,26.32031 22.15625,47.15625 47.601565,47.62891 26.30468,0.46875 47.13282,-22.17188 47.60157,-47.62891 0.46875,-26.32031 -22.15626,-47.15625 -47.60157,-47.625 -7.35938,-0.15625 -13.464846,6.26563 -13.464846,13.47266 -0.07813,7.4414 6.105466,13.3164 13.464846,13.47265 z m 0,0"
     id="path34" />
  <path
     style="fill:#000000;fill-opacity:1;fill-rule:nonzero;stroke:none"
     d="m 50.453125,239.97266 c 0,26.55468 0,53.10937 0,79.66406 0,58.67187 0,117.34375 0,176.01562 0,59.375 0,118.75391 0,178.12891 0,28.67187 0,57.33984 0,86.01172 0,0.0781 0,0.15625 0,0.15625 0,7.36328 6.109375,13.47265 13.46875,13.47265 32.644531,0 65.371095,0 98.019535,0 7.35937,0 13.46484,-6.10937 13.46484,-13.47265 0,-26.55469 0,-53.10938 0,-79.66406 0,-58.67188 0,-117.34375 0,-176.01563 0,-59.375 0,-118.75391 0,-178.12891 0,-28.67187 0,-57.33984 0,-86.01171 0,-0.0781 0,-0.15625 0,-0.15625 0,-7.36329 -6.10547,-13.47266 -13.46484,-13.47266 -32.64844,0 -65.375004,0 -98.019535,0 -7.359375,0 -13.46875,6.10937 -13.46875,13.47266 0,7.36328 6.109375,13.47265 13.46875,13.47265 32.644531,0 65.371095,0 98.019535,0 -4.46485,-4.46484 -9.00391,-9.00781 -13.46875,-13.47265 0,26.55468 0,53.10937 0,79.66406 0,58.67187 0,117.34375 0,176.01562 0,59.375 0,118.75391 0,178.12891 0,28.67187 0,57.33984 0,86.01172 0,0.0781 0,0.15625 0,0.15625 4.46484,-4.46485 9.0039,-9.00781 13.46875,-13.47266 -32.64844,0 -65.375004,0 -98.019535,0 4.460937,4.46485 9,9.00781 13.464844,13.47266 0,-26.55469 0,-53.10938 0,-79.66406 0,-58.67188 0,-117.34375 0,-176.01563 0,-59.375 0,-118.75391 0,-178.12891 0,-28.67187 0,-57.33984 0,-86.01171 0,-0.0781 0,-0.15625 0,-0.15625 0,-7.36329 -6.105469,-13.47266 -13.464844,-13.47266 -7.359375,0 -13.46875,6.10937 -13.46875,13.47266 z m 0,0"
     id="path36" />
</svg>
