<?xml version="1.0" encoding="UTF-8" standalone="no"?>
<!-- Created with Inkscape (http://www.inkscape.org/) -->

<svg
   width="1000"
   height="1000"
   version="1.1"
   id="svg38"
   xmlns="http://www.w3.org/2000/svg"
   xmlns:svg="http://www.w3.org/2000/svg"
   xmlns:rdf="http://www.w3.org/1999/02/22-rdf-syntax-ns#"
   xmlns:cc="http://creativecommons.org/ns#"
   xmlns:dc="http://purl.org/dc/elements/1.1/">
  <defs
     id="defs5498" />
  <metadata
     id="metadata5594">
    <rdf:RDF>
      <cc:Work
         rdf:about="">
        <dc:format>image/svg+xml</dc:format>
        <dc:type
           rdf:resource="http://purl.org/dc/dcmitype/StillImage" />
      </cc:Work>
    </rdf:RDF>
  </metadata>
  <path
     style="fill:#000000;fill-opacity:1;fill-rule:nonzero;stroke:none"
     d="M 518,230.26562 V 68.28125 c 0,-9.953125 -8.03906,-17.988281 -18,-17.988281 -9.96094,0 -18,8.035156 -18,17.988281 v 161.98437 c -181.82813,2.64844 -360,45.75 -360,125.82813 v 107.92969 c 0,9.95312 8.03906,17.98828 18,17.98828 h 720 c 9.96094,0 18,-8.03516 18,-17.98828 V 356.09375 C 878,276.10547 699.82812,233.00781 518,230.26562 Z m 0,0"
     id="path6" />
  <path
     style="fill:#000000;fill-opacity:1;fill-rule:nonzero;stroke:none"
     d="m 212,553.96484 c -9.96094,0 -18,8.03516 -18,17.98828 v 35.97657 c 0,9.95312 8.03906,17.98828 18,17.98828 9.96094,0 18,-8.03516 18,-17.98828 V 571.95312 C 230,562 221.96094,553.96484 212,553.96484 Z m 0,0"
     id="path8" />
  <path
     style="fill:#000000;fill-opacity:1;fill-rule:nonzero;stroke:none"
     d="m 212,697.87109 c -9.96094,0 -18,8.03516 -18,17.98828 v 35.97657 c 0,9.95312 8.03906,17.98828 18,17.98828 9.96094,0 18,-8.03516 18,-17.98828 v -35.97657 c 0,-9.95312 -8.03906,-17.98828 -18,-17.98828 z m 0,0"
     id="path10" />
  <path
     style="fill:#000000;fill-opacity:1;fill-rule:nonzero;stroke:none"
     d="m 212,841.77734 c -9.96094,0 -18,8.03516 -18,17.98828 v 35.97657 c 0,9.95312 8.03906,17.98828 18,17.98828 9.96094,0 18,-8.03516 18,-17.98828 v -35.97657 c 0,-9.95312 -8.03906,-17.98828 -18,-17.98828 z m 0,0"
     id="path12" />
  <path
     style="fill:#000000;fill-opacity:1;fill-rule:nonzero;stroke:none"
     d="m 356,589.94141 c -9.96094,0 -18,8.03515 -18,17.98828 v 35.97656 c 0,9.95312 8.03906,17.98828 18,17.98828 9.96094,0 18,-8.03516 18,-17.98828 v -35.97656 c 0,-9.95313 -8.03906,-17.98828 -18,-17.98828 z m 0,0"
     id="path14" />
  <path
     style="fill:#000000;fill-opacity:1;fill-rule:nonzero;stroke:none"
     d="m 356,733.84766 c -9.96094,0 -18,8.03515 -18,17.98828 v 35.97656 c 0,9.95312 8.03906,17.98828 18,17.98828 9.96094,0 18,-8.03516 18,-17.98828 v -35.97656 c 0,-9.95313 -8.03906,-17.98828 -18,-17.98828 z m 0,0"
     id="path16" />
  <path
     style="fill:#000000;fill-opacity:1;fill-rule:nonzero;stroke:none"
     d="m 356,877.75391 c -9.96094,0 -18,8.03515 -18,17.98828 v 35.97656 c 0,9.95312 8.03906,17.98828 18,17.98828 9.96094,0 18,-8.03516 18,-17.98828 v -35.97656 c 0,-9.95313 -8.03906,-17.98828 -18,-17.98828 z m 0,0"
     id="path18" />
  <path
     style="fill:#000000;fill-opacity:1;fill-rule:nonzero;stroke:none"
     d="m 500,553.96484 c -9.96094,0 -18,8.03516 -18,17.98828 v 35.97657 c 0,9.95312 8.03906,17.98828 18,17.98828 9.96094,0 18,-8.03516 18,-17.98828 V 571.95312 C 518,562 509.96094,553.96484 500,553.96484 Z m 0,0"
     id="path20" />
  <path
     style="fill:#000000;fill-opacity:1;fill-rule:nonzero;stroke:none"
     d="m 500,697.87109 c -9.96094,0 -18,8.03516 -18,17.98828 v 35.97657 c 0,9.95312 8.03906,17.98828 18,17.98828 9.96094,0 18,-8.03516 18,-17.98828 v -35.97657 c 0,-9.95312 -8.03906,-17.98828 -18,-17.98828 z m 0,0"
     id="path22" />
  <path
     style="fill:#000000;fill-opacity:1;fill-rule:nonzero;stroke:none"
     d="m 500,841.77734 c -9.96094,0 -18,8.03516 -18,17.98828 v 35.97657 c 0,9.95312 8.03906,17.98828 18,17.98828 9.96094,0 18,-8.03516 18,-17.98828 v -35.97657 c 0,-9.95312 -8.03906,-17.98828 -18,-17.98828 z m 0,0"
     id="path24" />
  <path
     style="fill:#000000;fill-opacity:1;fill-rule:nonzero;stroke:none"
     d="m 644,589.94141 c -9.96094,0 -18,8.03515 -18,17.98828 v 35.97656 c 0,9.95312 8.03906,17.98828 18,17.98828 9.96094,0 18,-8.03516 18,-17.98828 v -35.97656 c 0,-9.95313 -8.03906,-17.98828 -18,-17.98828 z m 0,0"
     id="path26" />
  <path
     style="fill:#000000;fill-opacity:1;fill-rule:nonzero;stroke:none"
     d="m 644,733.84766 c -9.96094,0 -18,8.03515 -18,17.98828 v 35.97656 c 0,9.95312 8.03906,17.98828 18,17.98828 9.96094,0 18,-8.03516 18,-17.98828 v -35.97656 c 0,-9.95313 -8.03906,-17.98828 -18,-17.98828 z m 0,0"
     id="path28" />
  <path
     style="fill:#000000;fill-opacity:1;fill-rule:nonzero;stroke:none"
     d="m 644,877.75391 c -9.96094,0 -18,8.03515 -18,17.98828 v 35.97656 c 0,9.95312 8.03906,17.98828 18,17.98828 9.96094,0 18,-8.03516 18,-17.98828 v -35.97656 c 0,-9.95313 -8.03906,-17.98828 -18,-17.98828 z m 0,0"
     id="path30" />
  <path
     style="fill:#000000;fill-opacity:1;fill-rule:nonzero;stroke:none"
     d="m 788,553.96484 c -9.96094,0 -18,8.03516 -18,17.98828 v 35.97657 c 0,9.95312 8.03906,17.98828 18,17.98828 9.96094,0 18,-8.03516 18,-17.98828 V 571.95312 C 806,562 797.96094,553.96484 788,553.96484 Z m 0,0"
     id="path32" />
  <path
     style="fill:#000000;fill-opacity:1;fill-rule:nonzero;stroke:none"
     d="m 788,697.87109 c -9.96094,0 -18,8.03516 -18,17.98828 v 35.97657 c 0,9.95312 8.03906,17.98828 18,17.98828 9.96094,0 18,-8.03516 18,-17.98828 v -35.97657 c 0,-9.95312 -8.03906,-17.98828 -18,-17.98828 z m 0,0"
     id="path34" />
  <path
     style="fill:#000000;fill-opacity:1;fill-rule:nonzero;stroke:none"
     d="m 788,841.77734 c -9.96094,0 -18,8.03516 -18,17.98828 v 35.97657 c 0,9.95312 8.03906,17.98828 18,17.98828 9.96094,0 18,-8.03516 18,-17.98828 v -35.97657 c 0,-9.95312 -8.03906,-17.98828 -18,-17.98828 z m 0,0"
     id="path36" />
</svg>
