<?xml version="1.0" encoding="UTF-8" standalone="no"?>
<!-- Created with Inkscape (http://www.inkscape.org/) -->

<svg
   width="1000"
   height="1000"
   version="1.1"
   id="svg8"
   xmlns="http://www.w3.org/2000/svg"
   xmlns:svg="http://www.w3.org/2000/svg"
   xmlns:rdf="http://www.w3.org/1999/02/22-rdf-syntax-ns#"
   xmlns:cc="http://creativecommons.org/ns#"
   xmlns:dc="http://purl.org/dc/elements/1.1/">
  <defs
     id="defs5498" />
  <metadata
     id="metadata5594">
    <rdf:RDF>
      <cc:Work
         rdf:about="">
        <dc:format>image/svg+xml</dc:format>
        <dc:type
           rdf:resource="http://purl.org/dc/dcmitype/StillImage" />
      </cc:Work>
    </rdf:RDF>
  </metadata>
  <path
     style="fill:#000000;fill-opacity:1;fill-rule:nonzero;stroke:none"
     d="m 649.83203,500 c 0,-47.11719 -38.52734,-85.66797 -85.61719,-85.66797 -47.08984,0 -85.62109,38.55078 -85.62109,85.66797 0,47.11719 38.53125,85.66797 85.62109,85.66797 47.08985,0 85.61719,-38.55078 85.61719,-85.66797 z M 564.21484,114.5 C 351.44922,114.5 178.92969,287.11719 178.92969,500 H 50.5 L 221.73828,671.33203 392.97656,500 H 264.54687 c 0,-165.76563 133.9961,-299.83203 299.66797,-299.83203 165.67188,0 299.66797,134.0664 299.66797,299.83203 0,165.76562 -133.99609,299.83203 -299.66797,299.83203 -64.64453,0 -124.57812,-20.98828 -173.80859,-55.68359 l -60.78906,61.67968 C 394.6875,855.51562 476.02734,885.5 564.21484,885.5 776.97656,885.5 949.5,712.88281 949.5,500 949.5,287.11719 776.97656,114.5 564.21484,114.5 Z m 0,0"
     id="path6" />
</svg>
