<?xml version="1.0" encoding="UTF-8" standalone="no"?>
<!-- Created with Inkscape (http://www.inkscape.org/) -->

<svg
   width="1000"
   height="1000"
   version="1.1"
   id="svg8"
   xmlns="http://www.w3.org/2000/svg"
   xmlns:svg="http://www.w3.org/2000/svg"
   xmlns:rdf="http://www.w3.org/1999/02/22-rdf-syntax-ns#"
   xmlns:cc="http://creativecommons.org/ns#"
   xmlns:dc="http://purl.org/dc/elements/1.1/">
  <defs
     id="defs5498" />
  <metadata
     id="metadata5594">
    <rdf:RDF>
      <cc:Work
         rdf:about="">
        <dc:format>image/svg+xml</dc:format>
        <dc:type
           rdf:resource="http://purl.org/dc/dcmitype/StillImage" />
      </cc:Work>
    </rdf:RDF>
  </metadata>
  <path
     style="fill:#000000;fill-opacity:1;fill-rule:nonzero;stroke:none"
     d="m 500.41016,234.22266 -82.13672,102.22265 h 163.45312 z m 244.77343,184 v 163.55468 l 102.15625,-81.36718 z m -490.36718,0 -102.15625,82.1875 102.15625,81.36718 z M 581.72656,663.55469 H 418.27344 l 82.13672,102.22265 z M 867.77344,132 H 132.22656 C 87.277344,132 50.5,168.80078 50.5,213.77734 V 786.22266 C 50.5,831.19922 87.277344,868 132.22656,868 H 867.77344 C 912.72266,868 949.5,831.19922 949.5,786.22266 V 213.77734 C 949.5,168.80078 912.72266,132 867.77344,132 Z m 0,654.63281 H 132.22656 V 213.36719 h 735.54688 z m 0,0"
     id="path6" />
</svg>
