<?xml version="1.0" encoding="UTF-8" standalone="no"?>
<!-- Created with Inkscape (http://www.inkscape.org/) -->

<svg
   width="1000"
   height="1000"
   version="1.1"
   id="svg40"
   xmlns="http://www.w3.org/2000/svg"
   xmlns:svg="http://www.w3.org/2000/svg"
   xmlns:rdf="http://www.w3.org/1999/02/22-rdf-syntax-ns#"
   xmlns:cc="http://creativecommons.org/ns#"
   xmlns:dc="http://purl.org/dc/elements/1.1/">
  <defs
     id="defs5498" />
  <metadata
     id="metadata5594">
    <rdf:RDF>
      <cc:Work
         rdf:about="">
        <dc:format>image/svg+xml</dc:format>
        <dc:type
           rdf:resource="http://purl.org/dc/dcmitype/StillImage" />
      </cc:Work>
    </rdf:RDF>
  </metadata>
  <path
     style="fill:#000000;fill-opacity:1;fill-rule:nonzero;stroke:none"
     d="m 712.61446,481.05939 h -0.43359 c -0.28907,0 -0.58203,0 -0.8711,0 -22.98828,0.72266 -41.48437,19.59766 -41.48437,42.75391 0,23.22656 18.42187,42.10156 41.48437,42.75391 0.28907,0 0.58203,0 0.8711,0 h 0.43359 c 23.64453,0 42.78906,-19.16407 42.78906,-42.82813 0,-23.51953 -19.14453,-42.67969 -42.78906,-42.67969 z m 0,0 h -0.43359 c -0.28907,0 -0.58203,0 -0.8711,0 -22.98828,0.72266 -41.48437,19.59766 -41.48437,42.75391 0,23.22656 18.42187,42.10156 41.48437,42.75391 0.28907,0 0.58203,0 0.8711,0 h 0.43359 c 23.64453,0 42.78906,-19.16407 42.78906,-42.82813 0,-23.51953 -19.14453,-42.67969 -42.78906,-42.67969 z M 871.58712,230.99299 H 552.84493 c -9.64453,0 -17.40625,7.76562 -17.40625,17.41797 v 503.18359 c 0,9.65234 7.76172,17.42187 17.40625,17.42187 h 318.74219 c 9.64453,0 17.40625,-7.83984 17.40625,-17.42187 V 248.48517 c 0,-9.65234 -7.83203,-17.49218 -17.40625,-17.49218 z m -158.97266,47.90625 c 20.96094,0 38.00391,17.05859 38.00391,38.03515 0,20.98047 -16.97266,38.03907 -38.00391,38.03907 -20.95703,0 -38,-17.0586 -38,-38.03907 0,-21.05078 17.04297,-38.03515 38,-38.03515 z m 50.11328,451.13672 H 660.90743 c -12.54688,0 -22.77344,-10.23438 -22.77344,-22.79297 0,-6.31641 2.53906,-11.97657 6.67188,-16.11328 4.13281,-4.14063 9.78906,-6.67969 16.10156,-6.67969 h 101.82031 c 12.54688,0 22.77344,10.23437 22.77344,22.79297 0,12.55859 -10.22656,22.79297 -22.77344,22.79297 z m -50.11328,-78.97657 c -70.20312,0 -127.13281,-56.98047 -127.13281,-127.24609 0,-70.26563 56.92969,-127.24609 127.13281,-127.24609 70.20313,0 127.13672,56.98046 127.13672,127.24609 0,70.26562 -56.93359,127.24609 -127.13672,127.24609 z m 0,-170 h -0.43359 c -0.28907,0 -0.58203,0 -0.8711,0 -22.98828,0.72266 -41.48437,19.59766 -41.48437,42.75391 0,23.22656 18.42187,42.10156 41.48437,42.75391 0.28907,0 0.58203,0 0.8711,0 h 0.43359 c 23.64453,0 42.78906,-19.16407 42.78906,-42.82813 0,-23.51953 -19.14453,-42.67969 -42.78906,-42.67969 z m 0,0 h -0.43359 c -0.28907,0 -0.58203,0 -0.8711,0 -22.98828,0.72266 -41.48437,19.59766 -41.48437,42.75391 0,23.22656 18.42187,42.10156 41.48437,42.75391 0.28907,0 0.58203,0 0.8711,0 h 0.43359 c 23.64453,0 42.78906,-19.16407 42.78906,-42.82813 0,-23.51953 -19.14453,-42.67969 -42.78906,-42.67969 z m 0,0 h -0.43359 c -0.28907,0 -0.58203,0 -0.8711,0 -22.98828,0.72266 -41.48437,19.59766 -41.48437,42.75391 0,23.22656 18.42187,42.10156 41.48437,42.75391 0.28907,0 0.58203,0 0.8711,0 h 0.43359 c 23.64453,0 42.78906,-19.16407 42.78906,-42.82813 0,-23.51953 -19.14453,-42.67969 -42.78906,-42.67969 z m 0,0"
     id="path6" />
  <path
     style="fill:#000000;fill-opacity:1;fill-rule:nonzero;stroke:none"
     d="m 712.61446,468.5008 c -23.64062,0 -43.22266,15.02344 -51.92578,36.4375 -8.63281,21.26953 -0.58203,47.91016 17.26172,61.84766 18.34765,14.37109 43.4414,16.40234 63.60156,4.20703 20.59766,-12.41016 29.80859,-37.01953 24.875,-60.10157 -5.4375,-24.82421 -29.08203,-42.02734 -53.8125,-42.39062 -6.81641,-0.0742 -12.47266,5.73437 -12.47266,12.48437 0,6.89454 5.65625,12.41407 12.47266,12.48438 1.23438,0 2.46484,0.0742 3.69922,0.14453 3.91797,0.29297 -2.32031,-0.50781 1.44922,0.21875 2.32031,0.4375 4.57031,1.16406 6.82031,1.96094 -2.39453,-0.8711 1.08594,0.50781 1.30469,0.65234 1.01562,0.50781 2.03125,1.08985 3.04687,1.74219 1.01172,0.58203 1.95703,1.30859 2.89844,1.96094 -1.95703,-1.45313 1.52344,1.45312 1.88672,1.8125 0.87109,0.80078 1.59375,1.67187 2.39453,2.54297 2.46484,2.75781 -1.30859,-1.88672 0.86719,1.08984 1.3789,1.88672 2.46875,3.91797 3.48437,6.02344 1.66797,3.33984 -0.80078,-2.17969 0.50782,1.30468 0.43359,1.08985 0.72265,2.25 1.01171,3.41407 0.29297,1.16015 0.50782,2.32031 0.72657,3.48437 -0.4336,-2.46875 0.14453,2.17578 0.14453,2.75781 0.0742,1.23438 0,2.46875 -0.0703,3.70313 0,0.21484 -0.50782,4.13672 -0.0742,1.52344 -0.36328,2.32031 -1.01563,4.64453 -1.8125,6.89453 -1.23438,3.55859 1.01562,-2.10547 -0.50782,1.30859 -0.50781,1.08594 -1.08984,2.03125 -1.66796,3.04688 -0.58204,1.01562 -1.23438,1.96093 -1.88672,2.90234 -0.8711,1.16406 -0.8711,1.23438 -0.14453,0.21875 -0.50782,0.58203 -1.01563,1.16406 -1.52344,1.74219 -0.79688,0.87109 -1.59375,1.67187 -2.46485,2.46875 -0.14453,0.14453 -3.04687,2.53906 -1.01562,1.01562 -1.8125,1.37891 -3.84375,2.61328 -5.875,3.70313 -0.21875,0.14453 -3.69922,1.59765 -1.30469,0.65234 -1.08594,0.4375 -2.25,0.80078 -3.33594,1.16016 -1.16015,0.36328 -2.32031,0.58203 -3.48046,0.87109 -1.52344,0.21875 -1.59766,0.29297 -0.21875,0.14844 -0.79688,0.0703 -1.59375,0.14453 -2.46485,0.21484 -1.66797,0.14453 -3.33594,0.0742 -5.0039,0 -0.21875,0 -4.20704,-0.57812 -1.59766,-0.14453 -1.23047,-0.21875 -2.39063,-0.50781 -3.55078,-0.79687 -1.16016,-0.29297 -2.32422,-0.65235 -3.41016,-1.08985 -3.625,-1.23437 2.03125,1.01563 -1.3789,-0.58203 -1.08594,-0.50781 -2.10157,-1.08594 -3.11719,-1.66797 -0.36328,-0.21875 -4.13281,-2.83203 -2.32031,-1.3789 -1.8125,-1.45313 -3.48047,-3.1211 -5.07813,-4.86328 -0.14453,-0.14454 -2.46484,-3.1211 -1.01562,-1.16016 -0.72266,-0.94531 -1.30469,-1.96094 -1.95704,-2.97656 -0.65234,-1.01953 -1.16015,-2.03516 -1.66796,-3.1211 -1.74219,-3.41406 0.72656,2.17578 -0.58204,-1.3789 -0.43359,-1.16407 -0.72265,-2.25391 -1.08593,-3.41407 -0.14453,-0.43359 -1.01563,-5.08203 -0.65235,-2.68359 -0.28906,-2.46875 -0.28906,-5.01172 -0.21875,-7.47656 0,-0.21875 0.50782,-4.21094 0.14453,-1.59766 0.21875,-1.23437 0.50782,-2.39453 0.79688,-3.55859 0.29297,-1.16016 0.65625,-2.32031 1.08984,-3.41016 1.23438,-3.6289 -1.01562,2.03125 0.57813,-1.3789 0.50781,-1.08985 1.08984,-2.10547 1.67187,-3.1211 0.21485,-0.36328 2.82813,-4.13672 1.375,-2.32422 1.45313,-1.88672 3.1211,-3.48437 4.85938,-5.08203 0.14453,-0.14453 3.12109,-2.46875 1.16015,-1.01562 0.94532,-0.72657 1.96094,-1.30469 2.97266,-1.96094 1.01563,-0.65234 2.03125,-1.16016 3.12109,-1.66797 3.40625,-1.74219 -2.17578,0.72656 1.37891,-0.58203 1.16016,-0.43359 2.24609,-0.72266 3.40625,-1.08594 0.4375,-0.14844 5.07813,-1.01953 2.68359,-0.72656 1.66797,-0.21875 3.33594,-0.29297 5.00391,-0.29297 6.81641,0 12.47656,-5.66016 12.47656,-12.48437 0,-6.82422 -5.66015,-12.62891 -12.47656,-12.62891 z m 0,0"
     id="path8" />
  <path
     style="fill:#000000;fill-opacity:1;fill-rule:nonzero;stroke:none"
     d="m 712.61446,468.5008 c -23.64062,0 -43.22266,15.02344 -51.92578,36.4375 -8.63281,21.26953 -0.58203,47.91016 17.26172,61.84766 18.34765,14.37109 43.4414,16.40234 63.60156,4.20703 20.59766,-12.41016 29.80859,-37.01953 24.875,-60.10157 -5.4375,-24.82421 -29.08203,-42.02734 -53.8125,-42.39062 -6.81641,-0.0742 -12.47266,5.73437 -12.47266,12.48437 0,6.89454 5.65625,12.41407 12.47266,12.48438 1.23438,0 2.46484,0.0742 3.69922,0.14453 3.91797,0.29297 -2.32031,-0.50781 1.44922,0.21875 2.32031,0.4375 4.57031,1.16406 6.82031,1.96094 -2.39453,-0.8711 1.08594,0.50781 1.30469,0.65234 1.01562,0.50781 2.03125,1.08985 3.04687,1.74219 1.01172,0.58203 1.95703,1.30859 2.89844,1.96094 -1.95703,-1.45313 1.52344,1.45312 1.88672,1.8125 0.87109,0.80078 1.59375,1.67187 2.39453,2.54297 2.46484,2.75781 -1.30859,-1.88672 0.86719,1.08984 1.3789,1.88672 2.46875,3.91797 3.48437,6.02344 1.66797,3.33984 -0.80078,-2.17969 0.50782,1.30468 0.43359,1.08985 0.72265,2.25 1.01171,3.41407 0.29297,1.16015 0.50782,2.32031 0.72657,3.48437 -0.4336,-2.46875 0.14453,2.17578 0.14453,2.75781 0.0742,1.23438 0,2.46875 -0.0703,3.70313 0,0.21484 -0.50782,4.13672 -0.0742,1.52344 -0.36328,2.32031 -1.01563,4.64453 -1.8125,6.89453 -1.23438,3.55859 1.01562,-2.10547 -0.50782,1.30859 -0.50781,1.08594 -1.08984,2.03125 -1.66796,3.04688 -0.58204,1.01562 -1.23438,1.96093 -1.88672,2.90234 -0.8711,1.16406 -0.8711,1.23438 -0.14453,0.21875 -0.50782,0.58203 -1.01563,1.16406 -1.52344,1.74219 -0.79688,0.87109 -1.59375,1.67187 -2.46485,2.46875 -0.14453,0.14453 -3.04687,2.53906 -1.01562,1.01562 -1.8125,1.37891 -3.84375,2.61328 -5.875,3.70313 -0.21875,0.14453 -3.69922,1.59765 -1.30469,0.65234 -1.08594,0.4375 -2.25,0.80078 -3.33594,1.16016 -1.16015,0.36328 -2.32031,0.58203 -3.48046,0.87109 -1.52344,0.21875 -1.59766,0.29297 -0.21875,0.14844 -0.79688,0.0703 -1.59375,0.14453 -2.46485,0.21484 -1.66797,0.14453 -3.33594,0.0742 -5.0039,0 -0.21875,0 -4.20704,-0.57812 -1.59766,-0.14453 -1.23047,-0.21875 -2.39063,-0.50781 -3.55078,-0.79687 -1.16016,-0.29297 -2.32422,-0.65235 -3.41016,-1.08985 -3.625,-1.23437 2.03125,1.01563 -1.3789,-0.58203 -1.08594,-0.50781 -2.10157,-1.08594 -3.11719,-1.66797 -0.36328,-0.21875 -4.13281,-2.83203 -2.32031,-1.3789 -1.8125,-1.45313 -3.48047,-3.1211 -5.07813,-4.86328 -0.14453,-0.14454 -2.46484,-3.1211 -1.01562,-1.16016 -0.72266,-0.94531 -1.30469,-1.96094 -1.95704,-2.97656 -0.65234,-1.01953 -1.16015,-2.03516 -1.66796,-3.1211 -1.74219,-3.41406 0.72656,2.17578 -0.58204,-1.3789 -0.43359,-1.16407 -0.72265,-2.25391 -1.08593,-3.41407 -0.14453,-0.43359 -1.01563,-5.08203 -0.65235,-2.68359 -0.28906,-2.46875 -0.28906,-5.01172 -0.21875,-7.47656 0,-0.21875 0.50782,-4.21094 0.14453,-1.59766 0.21875,-1.23437 0.50782,-2.39453 0.79688,-3.55859 0.29297,-1.16016 0.65625,-2.32031 1.08984,-3.41016 1.23438,-3.6289 -1.01562,2.03125 0.57813,-1.3789 0.50781,-1.08985 1.08984,-2.10547 1.67187,-3.1211 0.21485,-0.36328 2.82813,-4.13672 1.375,-2.32422 1.45313,-1.88672 3.1211,-3.48437 4.85938,-5.08203 0.14453,-0.14453 3.12109,-2.46875 1.16015,-1.01562 0.94532,-0.72657 1.96094,-1.30469 2.97266,-1.96094 1.01563,-0.65234 2.03125,-1.16016 3.12109,-1.66797 3.40625,-1.74219 -2.17578,0.72656 1.37891,-0.58203 1.16016,-0.43359 2.24609,-0.72266 3.40625,-1.08594 0.4375,-0.14844 5.07813,-1.01953 2.68359,-0.72656 1.66797,-0.21875 3.33594,-0.29297 5.00391,-0.29297 6.81641,0 12.47656,-5.66016 12.47656,-12.48437 0,-6.82422 -5.66015,-12.62891 -12.47656,-12.62891 z m 0,0"
     id="path10" />
  <path
     style="fill:#000000;fill-opacity:1;fill-rule:nonzero;stroke:none"
     d="m 712.61446,638.57502 c -5.00391,0 -9.93359,-0.28906 -14.9375,-0.8711 -3.99219,-0.4375 2.46484,0.36329 -1.52344,-0.21875 -1.23437,-0.21875 -2.39453,-0.43359 -3.6289,-0.65234 -2.75391,-0.50781 -5.51172,-1.16016 -8.26563,-1.81641 -10.73437,-2.68359 -16.97265,-5.29687 -25.74609,-10.01562 -4.13281,-2.25 -8.125,-4.71875 -12.03906,-7.40234 -4.64063,-3.19532 -5.58594,-4.06641 -10.29688,-8.20313 -3.48437,-3.12109 -6.74609,-6.46094 -9.86328,-9.94531 -1.59766,-1.74219 -3.04688,-3.5586 -4.5,-5.3711 1.59766,1.95704 -0.79688,-1.08984 -0.86719,-1.16406 -0.94531,-1.23047 -1.8164,-2.53906 -2.68359,-3.84375 -2.6836,-3.84765 -5.07813,-7.91406 -7.25391,-12.125 -1.08594,-2.10547 -2.17578,-4.21094 -3.11719,-6.38672 -0.0742,-0.14453 -1.66796,-3.70312 -0.65234,-1.3789 -0.58203,-1.45313 -1.16016,-2.97657 -1.74219,-4.42969 -1.66797,-4.5 -3.04687,-9.07031 -4.20703,-13.71875 -0.57812,-2.32031 -1.08594,-4.71875 -1.52344,-7.11328 -0.21484,-1.23438 -0.43359,-2.39453 -0.65234,-3.62891 -0.21484,-1.52344 -0.21484,-1.59765 -0.0703,-0.28906 -0.0742,-0.80078 -0.21875,-1.59766 -0.29297,-2.46875 -0.57813,-4.9375 -0.72266,-9.94531 -0.72266,-14.95313 0,-2.46875 0.14453,-5.00781 0.28907,-7.47656 0.0742,-1.23437 0.21875,-2.46875 0.28906,-3.70312 0.0742,-0.4336 0.65234,-5.22657 0.29297,-2.75782 1.375,-9.94531 4.13281,-19.67187 7.83203,-29.03515 1.44922,-3.62891 -1.01563,2.17578 0.57812,-1.37891 0.50782,-1.08984 1.01563,-2.17969 1.52344,-3.19531 1.01563,-2.10547 2.10547,-4.20703 3.26563,-6.3125 2.46484,-4.5 5.21875,-8.78516 8.19531,-12.92188 0.65234,-0.94531 1.375,-1.88671 2.10156,-2.83203 -1.52344,2.03516 0.87109,-1.01562 0.94141,-1.16015 1.45312,-1.81641 3.04687,-3.5586 4.64453,-5.30078 3.40625,-3.77344 7.10547,-7.25782 10.94922,-10.52344 3.55468,-3.1211 4.78515,-3.99219 9.57422,-7.25781 4.20703,-2.83204 8.6289,-5.3711 13.19921,-7.69532 7.54297,-3.84765 15.95313,-6.89453 26.10938,-9.21875 9.57031,-2.25 17.25781,-2.90234 28.57422,-2.61328 2.46484,0.0703 5.0039,0.21875 7.46875,0.4336 1.23437,0.0742 2.46484,0.21875 3.69922,0.36328 3.98828,0.4375 -2.46485,-0.36328 1.52343,0.21875 5.21875,0.79687 10.29688,1.96093 15.375,3.41015 4.56641,1.3086 9.0625,2.90625 13.48829,4.71875 -2.39454,-0.9414 1.23437,0.58203 1.3789,0.65625 1.08594,0.50782 2.17578,1.01563 3.19141,1.52344 2.46484,1.23438 4.85937,2.53906 7.25,3.91797 9.5,5.44531 14.35937,9.29297 21.75781,16.26172 7.90625,7.47656 12.03906,12.6289 17.33203,20.90625 2.53906,3.99219 4.85938,8.05469 6.96485,12.33984 0.50781,1.08594 1.01562,2.10156 1.52343,3.19141 0.0703,0.14453 1.66797,3.70312 0.65235,1.3789 1.08593,2.54297 2.03125,5.15625 2.89843,7.83985 1.59766,4.57422 2.82813,9.21875 3.84375,13.9375 0.50782,2.39453 0.94532,4.79297 1.3086,7.1875 0.65234,3.99219 -0.29297,-2.46875 0.21484,1.52344 0.21875,1.66796 0.36328,3.26562 0.50781,4.9375 0.4375,5.00781 0.4375,10.01562 0.28907,15.02343 -0.0703,2.46875 -0.28907,4.9375 -0.50782,7.47657 -0.14453,1.23437 -0.28906,2.46875 -0.43359,3.70312 0.28906,-2.46875 -0.36328,2.32422 -0.43359,2.75781 -3.48047,20.25391 -10.3711,35.42188 -22.84766,51.97266 1.52344,-2.03125 -0.86719,1.01562 -0.94141,1.16016 -0.72656,0.94531 -1.52343,1.8164 -2.25,2.6875 -1.51953,1.74218 -3.11718,3.48437 -4.78515,5.15234 -3.55469,3.63281 -7.32422,7.04297 -11.24219,10.23828 -2.97266,2.46484 1.88672,-1.38281 -1.16016,0.94141 -0.9414,0.72656 -1.88281,1.3789 -2.82812,2.10547 -1.88281,1.3789 -3.84375,2.6875 -5.875,3.91796 -4.27734,2.76172 -8.84766,5.15625 -13.41406,7.33204 -3.33594,1.59765 -5.29688,2.39843 -10.22657,4.0664 -4.13281,1.45313 -8.41406,2.61328 -12.6914,3.55469 -1.96094,0.4375 -3.98828,0.87109 -5.94922,1.16406 -1.23047,0.21875 -2.39063,0.4336 -3.625,0.57813 2.60937,-0.4336 -1.37891,0.14843 -1.52344,0.14843 -4.57031,0.4336 -9.13672,0.57813 -13.70703,0.65235 -6.81641,0 -12.47266,5.66015 -12.47266,12.48437 0,6.82422 5.65625,12.5586 12.47266,12.48438 42.13672,-0.21485 83.03906,-19.52344 109.14844,-52.76953 27.05078,-34.40625 36.69922,-79.41407 26.03515,-122.02344 -10.07812,-40.14063 -39.3789,-74.83594 -76.94531,-91.96875 -39.96094,-18.14453 -86.23047,-16.55078 -124.96094,4.21094 -36.55078,19.59765 -63.16796,56.47265 -70.5625,97.26953 -7.76171,43.11719 4.92969,87.10547 34.08594,119.69531 26.03516,29.03516 64.32813,45.44141 103.12891,45.58594 6.8164,0 12.47265,-5.73438 12.47265,-12.48438 0.0742,-6.82422 -5.58593,-12.48437 -12.40234,-12.48437 z m 0,0"
     id="path12" />
  <path
     style="fill:#000000;fill-opacity:1;fill-rule:nonzero;stroke:none"
     d="m 762.72774,717.47736 c -21.25,0 -42.49609,0 -63.74609,0 -11.31641,0 -22.55469,0 -33.8711,0 -1.16015,0 -2.24609,0 -3.40625,0 -0.21875,0 -0.50781,0 -0.72656,0 0,0 -0.0703,0 -0.0703,0 -1.52344,-0.14453 -1.66797,-0.0703 -0.36328,0.14453 -0.80078,-0.14453 -1.59766,-0.28906 -2.39453,-0.50781 -3.48047,-0.87109 1.74218,1.08984 -1.44922,-0.43359 -0.21875,-0.0742 -3.33594,-2.17969 -1.37891,-0.58203 -0.9414,-0.72657 -1.74219,-1.59766 -2.53906,-2.39454 -2.46484,-2.54296 1.08984,1.74219 -0.79688,-1.23437 -0.14453,-0.28906 -1.52343,-3.62891 -0.65234,-1.30859 -0.4375,-1.16016 -0.65234,-2.32032 -0.87109,-3.48047 0.50781,2.60937 0.21875,-1.67188 0.21875,-1.81641 -0.0742,2.10547 1.08593,-3.62891 0.28906,-1.74219 2.32031,-5.44531 5.875,-7.11328 10.87891,-7.11328 3.33593,0 6.67187,0 10.08203,0 13.125,0 26.2539,0 39.3789,0 13.27344,0 26.47266,0 39.74219,0 3.48047,0 6.96484,0 10.44531,0 0.79688,0 1.66797,0 2.46485,0 -2.46485,-0.0742 1.08593,0.21875 1.44922,0.36328 3.48046,0.8711 -1.73829,-1.08984 1.45312,0.4336 0.21484,0.0742 3.33594,2.17968 1.375,0.58203 1.23438,0.94531 2.25,2.10547 3.26563,3.26562 -1.44922,-1.74218 0.87109,1.96094 1.16015,2.46875 -1.01562,-2.03125 0.36328,2.17578 0.4336,2.75782 -0.57813,-3.1211 -0.4336,3.84765 0,0.72656 -0.14454,0.79687 -0.28907,1.59765 -0.50782,2.39453 -0.86718,3.48437 1.08985,-1.74219 -0.43359,1.45312 -0.36328,0.72657 -0.72656,1.37891 -1.16016,2.03125 0.79688,-0.9414 0.79688,-0.87109 -0.21875,0.21875 -0.36328,0.4336 -3.69922,3.1211 -1.88672,1.8125 -0.50781,0.36329 -4.42187,2.10547 -2.32031,1.3086 -0.72265,0.21875 -1.52344,0.43359 -2.32031,0.65234 -3.55469,0.80078 2.17578,-0.0703 -1.52344,0 -6.8164,0.21875 -12.47265,5.51563 -12.47265,12.48438 0,6.67968 5.65625,12.70312 12.47265,12.48828 12.98438,-0.36328 24.73047,-7.04297 31.04297,-18.51172 6.23438,-11.25 5.51172,-25.98828 -1.88672,-36.58594 -6.67187,-9.58203 -17.55078,-15.53125 -29.22656,-15.53125 -2.39453,0 -4.78906,0 -7.17969,0 -26.10937,0 -52.28906,0 -78.39844,0 -8.92187,0 -19.07421,-1.01562 -27.63281,1.95703 -14.28515,5.08203 -23.28125,18.29297 -23.71484,33.32032 -0.36328,12.77343 7.54297,24.96875 18.49219,31.0664 9.35546,5.15625 20.01953,4.28516 30.24218,4.28516 13.49219,0 27.05469,0 40.54297,0 15.95313,0 31.83594,0 47.79297,0 6.81641,0 12.47266,-5.66406 12.47266,-12.48828 -0.0703,-6.75 -5.72657,-12.48438 -12.54688,-12.48438 z m 0,0"
     id="path14" />
  <path
     style="fill:#000000;fill-opacity:1;fill-rule:nonzero;stroke:none"
     d="m 712.61446,291.38361 c 6.74609,0.14844 13.05469,2.61328 18.05859,7.47657 2.61329,2.54296 3.77344,4.35546 5.94922,9.0039 -0.50781,-1.16406 -0.50781,-1.01953 0,0.36328 0.35938,1.16016 0.65235,2.32032 0.94141,3.48047 0.0703,0.21875 0.65234,4.06641 0.36328,1.52735 0.14453,1.23437 0.14453,2.46875 0.14453,3.69921 0.21875,14.08204 -11.82031,25.26172 -25.45703,25.48047 -14.07031,0.21875 -25.23828,-11.83203 -25.45703,-25.48047 -0.28906,-14.08203 11.75,-25.33203 25.45703,-25.55078 6.81641,-0.14453 12.47656,-5.58593 12.47656,-12.48437 0,-6.75 -5.66015,-12.62891 -12.47656,-12.48438 -23.78906,0.36328 -45.25391,17.27735 -49.53125,41.01172 -4.5,25.11719 9.71484,48.19922 33.07031,57.27344 22.55469,8.71094 48.73438,-2.61328 60.41016,-22.9375 11.96875,-20.6875 6.74609,-48.70703 -11.74609,-63.66016 -9.28516,-7.47656 -20.23438,-11.54297 -32.20313,-11.6875 -6.81641,-0.14453 -12.47266,5.8086 -12.47266,12.48438 -0.0742,6.89843 5.65625,12.41406 12.47266,12.48437 z m 0,0"
     id="path16" />
  <path
     style="fill:#000000;fill-opacity:1;fill-rule:nonzero;stroke:none"
     d="m 871.58712,218.50471 c -33.35938,0 -66.64844,0 -100.01172,0 -55.83985,0 -111.75781,0 -167.60156,0 -15.66407,0 -31.32813,0 -46.9961,0 -9.28125,0 -17.55078,1.96093 -24.875,8.34765 -6.89062,6.09766 -9.21094,15.31641 -9.21094,24.10156 0,30.84766 0,61.69922 0,92.55079 0,55.89062 0,111.78515 0,167.60546 0,54.22266 0,108.44532 0,162.66797 0,25.84375 0,51.6836 0,77.59766 0,16.625 13.78125,30.125 30.31641,30.125 3.69922,0 7.39844,0 11.02344,0 19.21875,0 38.36328,0 57.58203,0 56.64453,0 113.35547,0 169.99609,0 20.96094,0 41.84766,0 62.8086,0 5.0039,0 10.00781,0 14.9375,0 14.5039,0 27.48828,-8.34766 31.11328,-22.9375 1.95703,-7.76563 0.79687,-17.05859 0.79687,-24.97266 0,-16.91015 0,-33.75 0,-50.66406 0,-53.0625 0,-106.19531 0,-159.25781 0,-56.6211 0,-113.23828 0,-169.92969 0,-33.46484 0,-67 0,-100.46094 0,-1.52734 0,-3.125 0,-4.64843 0,-16.76563 -13.48828,-29.54297 -29.8789,-30.125 -6.81641,-0.21485 -12.47266,5.88281 -12.47266,12.48828 0,6.96875 5.65625,12.26562 12.47266,12.48437 3.76953,0.14453 -2.10157,-0.65234 1.52343,0.21875 3.33594,0.79688 -1.59765,-1.01953 1.30469,0.65235 2.90235,1.66796 -1.30469,-1.37891 1.08985,1.01562 -1.59766,-1.59766 0.50781,0.87109 0.72265,1.23438 -1.16015,-2.03125 0.21875,1.01562 0.36328,1.45312 -0.21875,-0.80078 -0.0703,-1.96094 -0.0703,0.35938 0,0.0742 0,0.0742 0,0.14843 0,0.72266 0,1.37891 0,2.10547 0,3.77344 0,7.54688 0,11.39453 0,15.67969 0,31.28516 0,46.96485 0,51.97265 0,103.875 0,155.84765 0,57.19922 0,114.39844 0,171.67188 0,35.78515 0,71.57031 0,107.35547 0,2.46875 0,4.9375 0,7.40625 0,0.0703 0,0.21484 0,0.28906 0,3.70312 0.65234,-1.96094 -0.21875,1.52344 -0.79687,3.33984 1.01563,-1.59766 -0.65234,1.30859 -1.66797,2.90234 1.375,-1.30859 -1.01563,1.08594 1.95703,-1.95703 -2.97265,1.45312 -0.4375,0.4375 -0.28906,0.14453 -3.91406,0.79687 -1.375,0.58203 -0.4375,0.0703 -0.87109,0.0703 -1.23437,0.0703 -0.0742,0 -0.14453,0 -0.21875,0 -0.4336,0 -0.79688,0 -1.23047,0 -13.34375,0 -26.61719,0 -39.96094,0 -54.90234,0 -109.73047,0 -164.62891,0 -37.35156,0 -74.6289,0 -111.97656,0 -0.21875,0 -0.4375,0 -0.72656,0 -3.69922,0 1.88672,0.65235 -1.52344,-0.21875 -3.33594,-0.79687 1.59766,1.01953 -1.30469,-0.65234 -1.23437,-0.79688 -1.30468,-0.8711 -0.21875,-0.14453 -0.9414,-1.08985 -1.08593,-1.08985 -0.36328,-0.0742 -0.14453,-0.21485 -1.88281,-3.48438 -0.9414,-1.16016 -0.14453,-0.28906 -0.79688,-3.91797 -0.57813,-1.3789 -0.0742,-0.4336 -0.0742,-0.8711 -0.0742,-1.30469 0,-0.21875 0,-0.4375 0,-0.65625 0,-2.82813 0,-5.73438 0,-8.5625 0,-14.15625 0,-28.3125 0,-42.53906 0,-50.44922 0,-100.96875 0,-151.41797 0,-57.70703 0,-115.48828 0,-173.19532 0,-38.32812 0,-76.65234 0,-114.98046 0,-3.41016 0,-6.82422 0,-10.23438 0,-0.50781 0,-1.01562 0,-1.52344 0,-0.4375 0,-0.80078 0.0742,-1.23437 -0.0742,2.46875 0.4336,-1.01563 0.57813,-1.37891 -0.72657,2.32031 0.72656,-0.87109 0.9414,-1.16406 -1.51953,2.32422 1.81641,-1.30469 -0.35937,0.36328 0.21484,-0.14453 3.48047,-1.88672 1.16015,-0.94141 0.28907,-0.14453 3.91407,-0.80078 1.375,-0.58203 0.4375,-0.0742 0.94532,-0.0742 1.37891,-0.0742 10.80859,0 21.53906,0 32.34766,0 53.51953,0 107.04297,0 160.5664,0 40.97657,0 81.87891,0 122.85547,0 0.94141,0 1.95703,0 2.90235,0 6.8164,0 12.47265,-5.66015 12.47265,-12.48437 0,-6.82422 -5.73047,-12.55859 -12.54687,-12.55859 z m 0,0"
     id="path18" />
  <path
     style="fill:#000000;fill-opacity:1;fill-rule:nonzero;stroke:none"
     d="m 712.61446,468.5008 c -23.64062,0 -43.22266,15.02344 -51.92578,36.4375 -8.63281,21.26953 -0.58203,47.91016 17.26172,61.84766 18.34765,14.37109 43.4414,16.40234 63.60156,4.20703 20.59766,-12.41016 29.80859,-37.01953 24.875,-60.10157 -5.4375,-24.82421 -29.08203,-42.02734 -53.8125,-42.39062 -6.81641,-0.0742 -12.47266,5.73437 -12.47266,12.48437 0,6.89454 5.65625,12.41407 12.47266,12.48438 1.23438,0 2.46484,0.0742 3.69922,0.14453 3.91797,0.29297 -2.32031,-0.50781 1.44922,0.21875 2.32031,0.4375 4.57031,1.16406 6.82031,1.96094 -2.39453,-0.8711 1.08594,0.50781 1.30469,0.65234 1.01562,0.50781 2.03125,1.08985 3.04687,1.74219 1.01172,0.58203 1.95703,1.30859 2.89844,1.96094 -1.95703,-1.45313 1.52344,1.45312 1.88672,1.8125 0.87109,0.80078 1.59375,1.67187 2.39453,2.54297 2.46484,2.75781 -1.30859,-1.88672 0.86719,1.08984 1.3789,1.88672 2.46875,3.91797 3.48437,6.02344 1.66797,3.33984 -0.80078,-2.17969 0.50782,1.30468 0.43359,1.08985 0.72265,2.25 1.01171,3.41407 0.29297,1.16015 0.50782,2.32031 0.72657,3.48437 -0.4336,-2.46875 0.14453,2.17578 0.14453,2.75781 0.0742,1.23438 0,2.46875 -0.0703,3.70313 0,0.21484 -0.50782,4.13672 -0.0742,1.52344 -0.36328,2.32031 -1.01563,4.64453 -1.8125,6.89453 -1.23438,3.55859 1.01562,-2.10547 -0.50782,1.30859 -0.50781,1.08594 -1.08984,2.03125 -1.66796,3.04688 -0.58204,1.01562 -1.23438,1.96093 -1.88672,2.90234 -0.8711,1.16406 -0.8711,1.23438 -0.14453,0.21875 -0.50782,0.58203 -1.01563,1.16406 -1.52344,1.74219 -0.79688,0.87109 -1.59375,1.67187 -2.46485,2.46875 -0.14453,0.14453 -3.04687,2.53906 -1.01562,1.01562 -1.8125,1.37891 -3.84375,2.61328 -5.875,3.70313 -0.21875,0.14453 -3.69922,1.59765 -1.30469,0.65234 -1.08594,0.4375 -2.25,0.80078 -3.33594,1.16016 -1.16015,0.36328 -2.32031,0.58203 -3.48046,0.87109 -1.52344,0.21875 -1.59766,0.29297 -0.21875,0.14844 -0.79688,0.0703 -1.59375,0.14453 -2.46485,0.21484 -1.66797,0.14453 -3.33594,0.0742 -5.0039,0 -0.21875,0 -4.20704,-0.57812 -1.59766,-0.14453 -1.23047,-0.21875 -2.39063,-0.50781 -3.55078,-0.79687 -1.16016,-0.29297 -2.32422,-0.65235 -3.41016,-1.08985 -3.625,-1.23437 2.03125,1.01563 -1.3789,-0.58203 -1.08594,-0.50781 -2.10157,-1.08594 -3.11719,-1.66797 -0.36328,-0.21875 -4.13281,-2.83203 -2.32031,-1.3789 -1.8125,-1.45313 -3.48047,-3.1211 -5.07813,-4.86328 -0.14453,-0.14454 -2.46484,-3.1211 -1.01562,-1.16016 -0.72266,-0.94531 -1.30469,-1.96094 -1.95704,-2.97656 -0.65234,-1.01953 -1.16015,-2.03516 -1.66796,-3.1211 -1.74219,-3.41406 0.72656,2.17578 -0.58204,-1.3789 -0.43359,-1.16407 -0.72265,-2.25391 -1.08593,-3.41407 -0.14453,-0.43359 -1.01563,-5.08203 -0.65235,-2.68359 -0.28906,-2.46875 -0.28906,-5.01172 -0.21875,-7.47656 0,-0.21875 0.50782,-4.21094 0.14453,-1.59766 0.21875,-1.23437 0.50782,-2.39453 0.79688,-3.55859 0.29297,-1.16016 0.65625,-2.32031 1.08984,-3.41016 1.23438,-3.6289 -1.01562,2.03125 0.57813,-1.3789 0.50781,-1.08985 1.08984,-2.10547 1.67187,-3.1211 0.21485,-0.36328 2.82813,-4.13672 1.375,-2.32422 1.45313,-1.88672 3.1211,-3.48437 4.85938,-5.08203 0.14453,-0.14453 3.12109,-2.46875 1.16015,-1.01562 0.94532,-0.72657 1.96094,-1.30469 2.97266,-1.96094 1.01563,-0.65234 2.03125,-1.16016 3.12109,-1.66797 3.40625,-1.74219 -2.17578,0.72656 1.37891,-0.58203 1.16016,-0.43359 2.24609,-0.72266 3.40625,-1.08594 0.4375,-0.14844 5.07813,-1.01953 2.68359,-0.72656 1.66797,-0.21875 3.33594,-0.29297 5.00391,-0.29297 6.81641,0 12.47656,-5.66016 12.47656,-12.48437 0,-6.82422 -5.66015,-12.62891 -12.47656,-12.62891 z m 0,0"
     id="path20" />
  <path
     style="fill:#000000;fill-opacity:1;fill-rule:nonzero;stroke:none"
     d="m 712.61446,468.5008 c -23.64062,0 -43.22266,15.02344 -51.92578,36.4375 -8.63281,21.26953 -0.58203,47.91016 17.26172,61.84766 18.34765,14.37109 43.4414,16.40234 63.60156,4.20703 20.59766,-12.41016 29.80859,-37.01953 24.875,-60.10157 -5.4375,-24.82421 -29.08203,-42.02734 -53.8125,-42.39062 -6.81641,-0.0742 -12.47266,5.73437 -12.47266,12.48437 0,6.89454 5.65625,12.41407 12.47266,12.48438 1.23438,0 2.46484,0.0742 3.69922,0.14453 3.91797,0.29297 -2.32031,-0.50781 1.44922,0.21875 2.32031,0.4375 4.57031,1.16406 6.82031,1.96094 -2.39453,-0.8711 1.08594,0.50781 1.30469,0.65234 1.01562,0.50781 2.03125,1.08985 3.04687,1.74219 1.01172,0.58203 1.95703,1.30859 2.89844,1.96094 -1.95703,-1.45313 1.52344,1.45312 1.88672,1.8125 0.87109,0.80078 1.59375,1.67187 2.39453,2.54297 2.46484,2.75781 -1.30859,-1.88672 0.86719,1.08984 1.3789,1.88672 2.46875,3.91797 3.48437,6.02344 1.66797,3.33984 -0.80078,-2.17969 0.50782,1.30468 0.43359,1.08985 0.72265,2.25 1.01171,3.41407 0.29297,1.16015 0.50782,2.32031 0.72657,3.48437 -0.4336,-2.46875 0.14453,2.17578 0.14453,2.75781 0.0742,1.23438 0,2.46875 -0.0703,3.70313 0,0.21484 -0.50782,4.13672 -0.0742,1.52344 -0.36328,2.32031 -1.01563,4.64453 -1.8125,6.89453 -1.23438,3.55859 1.01562,-2.10547 -0.50782,1.30859 -0.50781,1.08594 -1.08984,2.03125 -1.66796,3.04688 -0.58204,1.01562 -1.23438,1.96093 -1.88672,2.90234 -0.8711,1.16406 -0.8711,1.23438 -0.14453,0.21875 -0.50782,0.58203 -1.01563,1.16406 -1.52344,1.74219 -0.79688,0.87109 -1.59375,1.67187 -2.46485,2.46875 -0.14453,0.14453 -3.04687,2.53906 -1.01562,1.01562 -1.8125,1.37891 -3.84375,2.61328 -5.875,3.70313 -0.21875,0.14453 -3.69922,1.59765 -1.30469,0.65234 -1.08594,0.4375 -2.25,0.80078 -3.33594,1.16016 -1.16015,0.36328 -2.32031,0.58203 -3.48046,0.87109 -1.52344,0.21875 -1.59766,0.29297 -0.21875,0.14844 -0.79688,0.0703 -1.59375,0.14453 -2.46485,0.21484 -1.66797,0.14453 -3.33594,0.0742 -5.0039,0 -0.21875,0 -4.20704,-0.57812 -1.59766,-0.14453 -1.23047,-0.21875 -2.39063,-0.50781 -3.55078,-0.79687 -1.16016,-0.29297 -2.32422,-0.65235 -3.41016,-1.08985 -3.625,-1.23437 2.03125,1.01563 -1.3789,-0.58203 -1.08594,-0.50781 -2.10157,-1.08594 -3.11719,-1.66797 -0.36328,-0.21875 -4.13281,-2.83203 -2.32031,-1.3789 -1.8125,-1.45313 -3.48047,-3.1211 -5.07813,-4.86328 -0.14453,-0.14454 -2.46484,-3.1211 -1.01562,-1.16016 -0.72266,-0.94531 -1.30469,-1.96094 -1.95704,-2.97656 -0.65234,-1.01953 -1.16015,-2.03516 -1.66796,-3.1211 -1.74219,-3.41406 0.72656,2.17578 -0.58204,-1.3789 -0.43359,-1.16407 -0.72265,-2.25391 -1.08593,-3.41407 -0.14453,-0.43359 -1.01563,-5.08203 -0.65235,-2.68359 -0.28906,-2.46875 -0.28906,-5.01172 -0.21875,-7.47656 0,-0.21875 0.50782,-4.21094 0.14453,-1.59766 0.21875,-1.23437 0.50782,-2.39453 0.79688,-3.55859 0.29297,-1.16016 0.65625,-2.32031 1.08984,-3.41016 1.23438,-3.6289 -1.01562,2.03125 0.57813,-1.3789 0.50781,-1.08985 1.08984,-2.10547 1.67187,-3.1211 0.21485,-0.36328 2.82813,-4.13672 1.375,-2.32422 1.45313,-1.88672 3.1211,-3.48437 4.85938,-5.08203 0.14453,-0.14453 3.12109,-2.46875 1.16015,-1.01562 0.94532,-0.72657 1.96094,-1.30469 2.97266,-1.96094 1.01563,-0.65234 2.03125,-1.16016 3.12109,-1.66797 3.40625,-1.74219 -2.17578,0.72656 1.37891,-0.58203 1.16016,-0.43359 2.24609,-0.72266 3.40625,-1.08594 0.4375,-0.14844 5.07813,-1.01953 2.68359,-0.72656 1.66797,-0.21875 3.33594,-0.29297 5.00391,-0.29297 6.81641,0 12.47656,-5.66016 12.47656,-12.48437 0,-6.82422 -5.66015,-12.62891 -12.47656,-12.62891 z m 0,0"
     id="path22" />
  <path
     style="fill:#000000;fill-opacity:1;fill-rule:nonzero;stroke:none"
     d="m 712.61446,468.5008 c -23.64062,0 -43.22266,15.02344 -51.92578,36.4375 -8.63281,21.26953 -0.58203,47.91016 17.26172,61.84766 18.34765,14.37109 43.4414,16.40234 63.60156,4.20703 20.59766,-12.41016 29.80859,-37.01953 24.875,-60.10157 -5.4375,-24.82421 -29.08203,-42.02734 -53.8125,-42.39062 -6.81641,-0.0742 -12.47266,5.73437 -12.47266,12.48437 0,6.89454 5.65625,12.41407 12.47266,12.48438 1.23438,0 2.46484,0.0742 3.69922,0.14453 3.91797,0.29297 -2.32031,-0.50781 1.44922,0.21875 2.32031,0.4375 4.57031,1.16406 6.82031,1.96094 -2.39453,-0.8711 1.08594,0.50781 1.30469,0.65234 1.01562,0.50781 2.03125,1.08985 3.04687,1.74219 1.01172,0.58203 1.95703,1.30859 2.89844,1.96094 -1.95703,-1.45313 1.52344,1.45312 1.88672,1.8125 0.87109,0.80078 1.59375,1.67187 2.39453,2.54297 2.46484,2.75781 -1.30859,-1.88672 0.86719,1.08984 1.3789,1.88672 2.46875,3.91797 3.48437,6.02344 1.66797,3.33984 -0.80078,-2.17969 0.50782,1.30468 0.43359,1.08985 0.72265,2.25 1.01171,3.41407 0.29297,1.16015 0.50782,2.32031 0.72657,3.48437 -0.4336,-2.46875 0.14453,2.17578 0.14453,2.75781 0.0742,1.23438 0,2.46875 -0.0703,3.70313 0,0.21484 -0.50782,4.13672 -0.0742,1.52344 -0.36328,2.32031 -1.01563,4.64453 -1.8125,6.89453 -1.23438,3.55859 1.01562,-2.10547 -0.50782,1.30859 -0.50781,1.08594 -1.08984,2.03125 -1.66796,3.04688 -0.58204,1.01562 -1.23438,1.96093 -1.88672,2.90234 -0.8711,1.16406 -0.8711,1.23438 -0.14453,0.21875 -0.50782,0.58203 -1.01563,1.16406 -1.52344,1.74219 -0.79688,0.87109 -1.59375,1.67187 -2.46485,2.46875 -0.14453,0.14453 -3.04687,2.53906 -1.01562,1.01562 -1.8125,1.37891 -3.84375,2.61328 -5.875,3.70313 -0.21875,0.14453 -3.69922,1.59765 -1.30469,0.65234 -1.08594,0.4375 -2.25,0.80078 -3.33594,1.16016 -1.16015,0.36328 -2.32031,0.58203 -3.48046,0.87109 -1.52344,0.21875 -1.59766,0.29297 -0.21875,0.14844 -0.79688,0.0703 -1.59375,0.14453 -2.46485,0.21484 -1.66797,0.14453 -3.33594,0.0742 -5.0039,0 -0.21875,0 -4.20704,-0.57812 -1.59766,-0.14453 -1.23047,-0.21875 -2.39063,-0.50781 -3.55078,-0.79687 -1.16016,-0.29297 -2.32422,-0.65235 -3.41016,-1.08985 -3.625,-1.23437 2.03125,1.01563 -1.3789,-0.58203 -1.08594,-0.50781 -2.10157,-1.08594 -3.11719,-1.66797 -0.36328,-0.21875 -4.13281,-2.83203 -2.32031,-1.3789 -1.8125,-1.45313 -3.48047,-3.1211 -5.07813,-4.86328 -0.14453,-0.14454 -2.46484,-3.1211 -1.01562,-1.16016 -0.72266,-0.94531 -1.30469,-1.96094 -1.95704,-2.97656 -0.65234,-1.01953 -1.16015,-2.03516 -1.66796,-3.1211 -1.74219,-3.41406 0.72656,2.17578 -0.58204,-1.3789 -0.43359,-1.16407 -0.72265,-2.25391 -1.08593,-3.41407 -0.14453,-0.43359 -1.01563,-5.08203 -0.65235,-2.68359 -0.28906,-2.46875 -0.28906,-5.01172 -0.21875,-7.47656 0,-0.21875 0.50782,-4.21094 0.14453,-1.59766 0.21875,-1.23437 0.50782,-2.39453 0.79688,-3.55859 0.29297,-1.16016 0.65625,-2.32031 1.08984,-3.41016 1.23438,-3.6289 -1.01562,2.03125 0.57813,-1.3789 0.50781,-1.08985 1.08984,-2.10547 1.67187,-3.1211 0.21485,-0.36328 2.82813,-4.13672 1.375,-2.32422 1.45313,-1.88672 3.1211,-3.48437 4.85938,-5.08203 0.14453,-0.14453 3.12109,-2.46875 1.16015,-1.01562 0.94532,-0.72657 1.96094,-1.30469 2.97266,-1.96094 1.01563,-0.65234 2.03125,-1.16016 3.12109,-1.66797 3.40625,-1.74219 -2.17578,0.72656 1.37891,-0.58203 1.16016,-0.43359 2.24609,-0.72266 3.40625,-1.08594 0.4375,-0.14844 5.07813,-1.01953 2.68359,-0.72656 1.66797,-0.21875 3.33594,-0.29297 5.00391,-0.29297 6.81641,0 12.47656,-5.66016 12.47656,-12.48437 0,-6.82422 -5.66015,-12.62891 -12.47656,-12.62891 z m 0,0"
     id="path24" />
  <path
     style="fill:#000000;fill-opacity:1;fill-rule:nonzero;stroke:none"
     d="m 244.69259,523.8133 c -0.64844,-15.70703 7.35546,-30.50781 20.85156,-38.55469 13.49219,-8.04687 30.30859,-8.04687 43.80078,0 13.49609,8.04688 21.5,22.84766 20.85156,38.55469 0.64844,15.70703 -7.35547,30.50781 -20.85156,38.55469 -13.49219,8.04687 -30.30859,8.04687 -43.80078,0 -13.4961,-8.04688 -21.5,-22.84766 -20.85156,-38.55469"
     id="path26" />
  <path
     style="fill:#000000;fill-opacity:1;fill-rule:nonzero;stroke:none"
     d="m 317.79415,523.8133 c 0,1.23437 -0.0703,2.46875 -0.14453,3.70312 -0.28907,3.91797 0.50781,-2.32421 -0.21485,1.44922 -0.4375,2.32422 -1.16015,4.57422 -1.96093,6.82422 0.87109,-2.39453 -0.50782,1.01563 -0.65235,1.30469 -0.50781,1.01953 -1.08594,2.03516 -1.73828,3.05078 -0.58203,1.01563 -1.30859,1.96094 -1.96094,2.90234 1.45313,-1.96093 -1.44922,1.52344 -1.8125,1.88672 -0.79687,0.8711 -1.66797,1.59766 -2.53906,2.39844 -2.75391,2.46484 1.88672,-1.30859 -1.08594,0.87109 -1.88672,1.37891 -3.91797,2.46485 -6.01953,3.48438 -3.33594,1.66797 2.17578,-0.80078 -1.30469,0.50781 -1.08984,0.4336 -2.25,0.72266 -3.41015,1.01563 -1.16016,0.28906 -2.32031,0.50781 -3.48047,0.72656 2.46484,-0.4375 -2.17578,0.14453 -2.75781,0.14453 -1.23047,0.0703 -2.46485,0 -3.69532,-0.0742 -0.21875,0 -4.13671,-0.50781 -1.52343,-0.0703 -2.32032,-0.36328 -4.64453,-1.01953 -6.89063,-1.81641 -3.55469,-1.23437 2.10156,1.01563 -1.30469,-0.50781 -1.08984,-0.50781 -2.03125,-1.08984 -3.04687,-1.66797 -1.01563,-0.58203 -1.95703,-1.23437 -2.90234,-1.89062 -1.16016,-0.8711 -1.23047,-0.8711 -0.21485,-0.14453 -0.58203,-0.50782 -1.16015,-1.01563 -1.74219,-1.52344 -0.87109,-0.79688 -1.66796,-1.59766 -2.46484,-2.46875 -0.14453,-0.14453 -2.53906,-3.04688 -1.01562,-1.01563 -1.37891,-1.8164 -2.61329,-3.84765 -3.69922,-5.8789 -0.14453,-0.21875 -1.59766,-3.70313 -0.65235,-1.3086 -0.4375,-1.08593 -0.79687,-2.25 -1.16015,-3.33593 -0.36328,-1.16407 -0.58203,-2.32422 -0.8711,-3.48438 -0.21875,-1.52734 -0.28906,-1.59766 -0.14453,-0.21875 -0.0742,-0.80078 -0.14453,-1.59766 -0.21875,-2.46875 -0.14453,-2.46875 -0.0703,-4.9375 0.21875,-7.40234 -0.28906,2.68359 0.28906,-1.16407 0.36328,-1.45313 0.21485,-1.16015 0.57813,-2.32422 0.94141,-3.41015 0.0742,-0.21875 1.44922,-3.77735 0.43359,-1.37891 0.4375,-1.08984 1.01563,-2.10547 1.52344,-3.125 0.58203,-1.01563 1.16016,-2.03125 1.8125,-2.97266 0.4375,-0.65625 0.87109,-1.30859 1.30859,-1.89062 -0.80078,1.01953 -0.72656,0.94531 0.21485,-0.14453 1.52344,-1.74219 3.1914,-3.33985 4.93359,-4.78907 -1.95703,1.66797 0.94141,-0.65234 1.16016,-0.80078 0.9414,-0.65234 1.95703,-1.23437 2.97265,-1.8125 1.01563,-0.58203 2.10547,-1.08984 3.11719,-1.52343 -2.32031,1.08593 1.16406,-0.36329 1.37891,-0.4375 1.16015,-0.36329 2.25,-0.65235 3.41015,-0.94141 0.79688,-0.14844 1.59375,-0.36328 2.32032,-0.4375 -1.30469,0.14453 -1.23438,0.14453 0.28906,0 2.46484,-0.21875 4.93359,-0.14453 7.39844,0 3.91797,0.28906 -2.32032,-0.43359 1.44922,0.21875 1.16015,0.21875 2.32031,0.50781 3.48046,0.87109 1.16407,0.28907 2.25,0.72657 3.33594,1.16016 -2.39062,-0.87109 1.01563,0.50781 1.3086,0.65234 1.01562,0.50782 2.03125,1.08985 3.04296,1.74219 0.4375,0.21875 4.0625,2.97656 2.17579,1.45313 1.8164,1.45312 3.41015,3.12109 4.93359,4.78906 2.46484,2.76172 -1.30469,-1.88672 0.87109,1.08984 0.65235,0.94531 1.30469,1.96094 1.88282,2.90235 0.58203,1.01953 1.08984,2.03515 1.66796,3.05078 1.66797,3.33984 -0.79687,-2.17969 0.50782,1.30468 0.4375,1.08985 0.72656,2.25 1.01562,3.41407 0.14453,0.43359 0.94531,5.15234 0.65235,2.53906 0.4375,1.67187 0.4375,3.33984 0.50781,4.9375 0.0742,6.82422 5.58594,12.48437 12.47656,12.48437 6.74219,0 12.61719,-5.66015 12.47266,-12.48437 -0.36328,-24.10156 -15.375,-44.20703 -37.78516,-52.48047 -22.48047,-8.27734 -47.86328,1.23438 -62.00781,19.74219 -13.85156,18.21875 -14.21485,44.71484 -1.37891,63.51562 13.41797,19.74219 38.14844,28.67188 61.14063,22.35547 23.64062,-6.53125 39.66797,-29.03515 40.03125,-53.20703 0.0742,-6.82422 -5.73047,-12.48437 -12.47266,-12.48437 -6.89062,0.0742 -12.40234,5.73437 -12.47656,12.55859 z m 0,0"
     id="path28" />
  <path
     style="fill:#000000;fill-opacity:1;fill-rule:nonzero;stroke:none"
     d="M 446.8879,230.99299 H 128.14571 c -9.64453,0 -17.40625,7.76562 -17.40625,17.41797 v 503.18359 c 0,9.65234 7.83203,17.42187 17.40625,17.42187 H 446.8879 c 9.64453,0 17.40625,-7.83984 17.40625,-17.42187 V 248.48517 c 0,-9.65234 -7.76172,-17.49218 -17.40625,-17.49218 z m -159.40625,47.90625 c 20.95703,0 38,16.98437 38,38.03515 0,20.98047 -17.04297,38.03907 -38,38.03907 -20.96094,0 -38.00391,-17.0586 -38.00391,-38.03907 0.0742,-21.05078 17.04297,-38.03515 38.00391,-38.03515 z m 50.1875,451.13672 H 235.84493 c -12.54688,0 -22.77344,-10.23438 -22.77344,-22.79297 0,-6.31641 2.53906,-11.97657 6.67188,-16.11328 4.13281,-4.14063 9.78906,-6.67969 16.10156,-6.67969 h 101.82422 c 12.54297,0 22.76953,10.23437 22.76953,22.79297 0,12.55859 -10.22656,22.79297 -22.76953,22.79297 z m -50.1875,-78.97657 c -70.20313,0 -127.13672,-56.98047 -127.13672,-127.24609 0,-70.26563 56.93359,-127.24609 127.13672,-127.24609 70.20312,0 127.13281,56.98046 127.13281,127.24609 0,70.26562 -56.92969,127.24609 -127.13281,127.24609 z m 0,0"
     id="path30" />
  <path
     style="fill:#000000;fill-opacity:1;fill-rule:nonzero;stroke:none"
     d="m 287.48165,638.57502 c -5.00391,0 -9.9375,-0.28906 -14.94141,-0.8711 -3.98828,-0.4375 2.46485,0.36329 -1.52344,-0.21875 -1.23046,-0.21875 -2.39062,-0.43359 -3.625,-0.65234 -2.75781,-0.50781 -5.51171,-1.16016 -8.26953,-1.81641 -10.73047,-2.68359 -16.96875,-5.29687 -25.74609,-10.01562 -4.13281,-2.25 -8.12109,-4.71875 -12.03516,-7.40234 -4.64453,-3.19532 -5.58593,-4.06641 -10.30078,-8.20313 -3.48047,-3.12109 -6.74609,-6.46094 -9.86328,-9.94531 -1.59375,-1.74219 -3.04687,-3.5586 -4.49609,-5.3711 1.59375,1.95704 -0.79688,-1.08984 -0.8711,-1.16406 -0.9414,-1.23047 -1.8125,-2.53906 -2.68359,-3.84375 -2.68359,-3.84765 -5.07422,-7.91406 -7.25,-12.125 -1.08984,-2.10547 -2.17578,-4.21094 -3.12109,-6.38672 -0.0703,-0.14453 -1.66797,-3.70312 -0.65235,-1.3789 -0.57812,-1.45313 -1.16015,-2.97657 -1.73828,-4.42969 -1.66797,-4.5 -3.04687,-9.07031 -4.20703,-13.71875 -0.58203,-2.32031 -1.08984,-4.71875 -1.52344,-7.11328 -0.21875,-1.23438 -0.43359,-2.39453 -0.65234,-3.62891 -0.21875,-1.52344 -0.21875,-1.59765 -0.0742,-0.28906 -0.0703,-0.80078 -0.21484,-1.59766 -0.28906,-2.46875 -0.58203,-4.9375 -0.72656,-9.94531 -0.72656,-14.95313 0,-2.46875 0.14453,-5.00781 0.29296,-7.47656 0.0703,-1.23437 0.21485,-2.46875 0.28907,-3.70312 0.0703,-0.4336 0.65234,-5.22657 0.28906,-2.75782 1.37891,-9.94531 4.13281,-19.67187 7.83203,-29.03515 1.45312,-3.62891 -0.94141,2.17578 0.58203,-1.37891 0.50781,-1.08984 1.01563,-2.17969 1.52344,-3.19531 1.01562,-2.10547 2.10156,-4.20703 3.26172,-6.3125 2.46484,-4.5 5.22265,-8.78516 8.19531,-12.92188 0.65234,-0.94531 1.37891,-1.88671 2.10547,-2.83203 -1.52344,2.03516 0.86719,-1.01562 0.9414,-1.16015 1.44922,-1.81641 3.04688,-3.5586 4.64063,-5.30078 3.41016,-3.77344 7.10937,-7.25782 10.95312,-10.52344 3.55079,-3.1211 4.78516,-3.99219 9.57032,-7.25781 4.20703,-2.83204 8.63281,-5.3711 13.19922,-7.69532 7.54296,-3.84765 15.95703,-6.89453 26.10937,-9.21875 9.57422,-2.25 17.26172,-2.90234 28.57422,-2.61328 2.46484,0.0703 5.00391,0.21875 7.47266,0.4336 1.23046,0.0742 2.46484,0.21875 3.69531,0.36328 3.99219,0.4375 -2.46485,-0.36328 1.52344,0.21875 5.22265,0.79687 10.30078,1.96093 15.375,3.41015 4.57031,1.3086 9.0664,2.90625 13.49218,4.71875 -2.39453,-0.9414 1.23047,0.58203 1.375,0.65625 1.08985,0.50782 2.17578,1.01563 3.19141,1.52344 2.46484,1.23438 4.85937,2.53906 7.25391,3.91797 9.5,5.44531 14.35937,9.29297 21.75781,16.26172 7.90234,7.47656 12.03906,12.6289 17.33203,20.90625 2.53906,3.99219 4.85937,8.05469 6.96094,12.33984 0.50781,1.08594 1.01562,2.10156 1.52343,3.19141 0.0742,0.14453 1.66797,3.70312 0.65235,1.3789 1.08984,2.54297 2.03125,5.15625 2.90234,7.83985 1.59375,4.57422 2.82813,9.21875 3.84375,13.9375 0.50781,2.39453 0.94141,4.79297 1.30469,7.1875 0.65234,3.99219 -0.28906,-2.46875 0.21875,1.52344 0.21875,1.66796 0.36328,3.26562 0.50781,4.9375 0.4336,5.00781 0.4336,10.01562 0.28906,15.02343 -0.0742,2.46875 -0.28906,4.9375 -0.50781,7.47657 -0.14453,1.23437 -0.28906,2.46875 -0.43359,3.70312 0.28906,-2.46875 -0.36328,2.32422 -0.4375,2.75781 -3.48047,20.25391 -10.3711,35.42188 -22.84375,51.97266 1.52344,-2.03125 -0.8711,1.01562 -0.94141,1.16016 -0.72656,0.94531 -1.52344,1.8164 -2.25,2.6875 -1.52344,1.74218 -3.11719,3.48437 -4.78515,5.15234 -3.48047,3.63281 -7.32422,7.04297 -11.24219,10.23828 -2.97266,2.46484 1.88672,-1.38281 -1.16016,0.94141 -0.9414,0.72656 -1.88672,1.3789 -2.82812,2.10547 -1.88672,1.3789 -3.84375,2.6875 -5.875,3.91796 -4.27735,2.76172 -8.84766,5.15625 -13.41797,7.33204 -3.33594,1.59765 -5.29297,2.39843 -10.22656,4.0664 -4.13282,1.45313 -8.41016,2.61328 -12.69141,3.55469 -1.95703,0.4375 -3.98828,0.87109 -5.94531,1.16406 -1.23438,0.21875 -2.39453,0.4336 -3.625,0.57813 2.60937,-0.4336 -1.37891,0.14843 -1.52344,0.14843 -4.57031,0.4336 -9.14063,0.57813 -13.70703,0.65235 -6.81641,0 -12.47656,5.66015 -12.47656,12.48437 0,6.82422 5.66015,12.5586 12.47656,12.48438 42.13672,-0.21485 83.03906,-19.52344 109.14844,-52.76953 27.05078,-34.40625 36.69531,-79.41407 26.03515,-122.02344 -10.08203,-40.14063 -39.3789,-74.83594 -76.94922,-91.96875 -39.96093,-18.14453 -86.30078,-16.55078 -124.95703,4.21094 -36.55078,19.59765 -63.16797,56.47265 -70.5664,97.26953 -7.75782,43.11719 4.93359,87.10547 34.08593,119.69531 26.03516,29.03516 64.40235,45.44141 103.12891,45.58594 6.81641,0 12.47656,-5.73438 12.47656,-12.48438 0.14453,-6.82422 -5.58594,-12.48437 -12.40234,-12.48437 z m 0,0"
     id="path32" />
  <path
     style="fill:#000000;fill-opacity:1;fill-rule:nonzero;stroke:none"
     d="m 337.66915,717.47736 c -21.25,0 -42.5,0 -63.75,0 -11.3125,0 -22.55469,0 -33.86719,0 -1.16016,0 -2.25,0 -3.41016,0 -0.21875,0 -0.50781,0 -0.72656,0 0,0 -0.0703,0 -0.0703,0 -1.52344,-0.14453 -1.66797,-0.0703 -0.36328,0.14453 -0.79688,-0.14453 -1.59766,-0.28906 -2.39453,-0.50781 -3.48047,-0.87109 1.74218,1.08984 -1.44922,-0.43359 -0.21875,-0.0742 -3.33594,-2.17969 -1.37891,-0.58203 -0.9414,-0.72657 -1.73828,-1.59766 -2.53906,-2.39454 -2.46484,-2.54296 1.08984,1.74219 -0.79688,-1.23437 -0.14453,-0.28906 -1.52343,-3.62891 -0.65234,-1.30859 -0.43359,-1.16016 -0.65234,-2.32032 -0.87109,-3.48047 0.50781,2.60937 0.21875,-1.67188 0.21875,-1.81641 -0.0742,2.10547 1.08593,-3.62891 0.28906,-1.74219 2.32031,-5.44531 5.875,-7.11328 10.87891,-7.11328 3.33593,0 6.67187,0 10.08203,0 13.125,0 26.2539,0 39.3789,0 13.27344,0 26.47266,0 39.74219,0 3.48438,0 6.96484,0 10.44531,0 0.79688,0 1.66797,0 2.46485,0 -2.46485,-0.0742 1.08984,0.21875 1.44922,0.36328 3.48437,0.8711 -1.73829,-1.08984 1.45312,0.4336 0.21484,0.0742 3.33594,2.17968 1.37891,0.58203 1.23047,0.94531 2.24609,2.10547 3.26172,3.26562 -1.44922,-1.74218 0.87109,1.96094 1.16015,2.46875 -1.01562,-2.03125 0.36328,2.17578 0.4336,2.75782 -0.57813,-3.1211 -0.4336,3.84765 0,0.72656 -0.14454,0.79687 -0.28907,1.59765 -0.50782,2.39453 -0.86718,3.48437 1.08985,-1.74219 -0.43359,1.45312 -0.36328,0.72657 -0.72656,1.37891 -1.16016,2.03125 0.79688,-0.9414 0.79688,-0.87109 -0.21875,0.21875 -0.35937,0.4336 -3.69922,3.1211 -1.88281,1.8125 -0.50781,0.36329 -4.42578,2.10547 -2.32031,1.3086 -0.72656,0.21875 -1.52344,0.43359 -2.32422,0.65234 -3.48047,0.80078 2.17578,-0.0703 -1.51953,0 -6.82031,0.21875 -12.47656,5.51563 -12.47656,12.48438 0,6.67968 5.65625,12.70312 12.47656,12.48828 12.98047,-0.36328 24.73047,-7.04297 31.03906,-18.51172 6.23438,-11.25 5.51172,-25.98828 -1.88672,-36.58594 -6.67187,-9.58203 -17.55078,-15.53125 -29.22656,-15.53125 -2.39453,0 -4.78516,0 -7.17969,0 -26.10937,0 -52.28906,0 -78.39844,0 -8.92187,0 -19.07421,-1.01562 -27.63281,1.95703 -14.28515,5.08203 -23.27734,18.29297 -23.71484,33.32032 -0.36328,12.77343 7.54297,24.96875 18.49609,31.0664 9.35547,5.15625 20.01563,4.28516 30.24219,4.28516 13.48828,0 27.05078,0 40.53906,0 15.95703,0 31.83985,0 47.79297,0 6.81641,0 12.47266,-5.66406 12.47266,-12.48828 -0.0703,-6.75 -5.72657,-12.48438 -12.54297,-12.48438 z m 0,0"
     id="path34" />
  <path
     style="fill:#000000;fill-opacity:1;fill-rule:nonzero;stroke:none"
     d="m 287.48165,291.38361 c 6.74219,0.14844 13.05469,2.61328 17.98437,7.47657 2.61328,2.54296 3.77344,4.35546 5.94922,9.0039 -0.50781,-1.16406 -0.50781,-1.01953 0,0.36328 0.35938,1.16016 0.65235,2.32032 0.94141,3.48047 0.0742,0.21875 0.65234,4.06641 0.36328,1.45313 0.14453,1.23437 0.14453,2.46875 0.21484,3.70312 0.21875,14.00781 -11.82031,25.26172 -25.45312,25.47656 -13.9961,0.21875 -25.23828,-11.83203 -25.45703,-25.47656 -0.21875,-14.01172 11.82031,-25.26172 25.45703,-25.48047 6.8164,-0.14453 12.47265,-5.58593 12.47265,-12.48437 0,-6.75 -5.65625,-12.62891 -12.47265,-12.48438 -23.78906,0.36328 -45.25391,17.27735 -49.53516,41.01172 -4.49609,25.11719 9.71875,48.19922 33.07031,57.27344 22.55469,8.71094 48.73829,-2.6875 60.41407,-22.9375 11.96484,-20.6875 6.74218,-48.70703 -11.75,-63.66016 -9.28125,-7.47656 -20.23438,-11.54297 -32.19922,-11.6875 -6.81641,-0.14453 -12.47656,5.8086 -12.47656,12.48438 0,6.89843 5.66015,12.41406 12.47656,12.48437 z m 0,0"
     id="path36" />
  <path
     style="fill:#000000;fill-opacity:1;fill-rule:nonzero;stroke:none"
     d="m 446.8879,218.50471 c -33.35938,0 -66.64844,0 -100.01172,0 -55.83984,0 -111.75781,0 -167.60156,0 -15.66406,0 -31.32813,0 -46.9961,0 -9.28125,0 -17.55078,1.96093 -24.875,8.34765 -6.89062,6.09766 -9.210938,15.31641 -9.210938,24.10156 0,30.84766 0,61.69922 0,92.55079 0,55.89062 0,111.78515 0,167.60546 0,54.22266 0,108.44532 0,162.66797 0,25.84375 0,51.6836 0,77.59766 0,16.625 13.781248,30.125 30.316408,30.125 3.69922,0 7.39844,0 11.02344,0 19.21875,0 38.36328,0 57.58203,0 56.64453,0 113.35547,0 169.99609,0 20.96094,0 41.84766,0 62.8086,0 5.0039,0 10.00781,0 14.9375,0 14.5039,0 27.48828,-8.34766 31.11328,-22.9375 1.95703,-7.76563 0.79687,-17.05859 0.79687,-24.97266 0,-16.91015 0,-33.75 0,-50.66406 0,-53.0625 0,-106.19531 0,-159.25781 0,-56.6211 0,-113.23828 0,-169.92969 0,-33.46484 0,-67 0,-100.46094 0,-1.52734 0,-3.125 0,-4.64843 0.0742,-16.76563 -13.48828,-29.54297 -29.8789,-30.125 -6.81641,-0.21485 -12.47266,5.88281 -12.47266,12.48828 0,6.96875 5.65625,12.26562 12.47266,12.48437 3.76953,0.14453 -2.10156,-0.65234 1.52344,0.21875 3.33593,0.79688 -1.59766,-1.01953 1.30468,0.65235 2.90235,1.66796 -1.30468,-1.37891 1.08985,1.01562 -1.59766,-1.59766 0.50781,0.87109 0.72265,1.23438 -1.16015,-2.03125 0.21875,1.01562 0.36328,1.45312 -0.21875,-0.80078 -0.0703,-1.96094 -0.0703,0.35938 0,0.0742 0,0.0742 0,0.14843 0,0.72266 0,1.37891 0,2.10547 0,3.77344 0,7.54688 0,11.39453 0,15.67969 0,31.28516 0,46.96485 0,51.97265 0,103.875 0,155.84765 0,57.19922 0,114.39844 0,171.67188 0,35.78515 0,71.57031 0,107.35547 0,2.46875 0,4.9375 0,7.40625 0,0.0703 0,0.21484 0,0.28906 0,3.70312 0.65235,-1.96094 -0.21875,1.52344 -0.79687,3.33984 1.01563,-1.59766 -0.65234,1.30859 -1.66797,2.90234 1.375,-1.30859 -1.01563,1.08594 1.95703,-1.95703 -2.97265,1.45312 -0.4375,0.4375 -0.28906,0.14453 -3.91406,0.79687 -1.375,0.58203 -0.4375,0.0703 -0.87109,0.0703 -1.23437,0.0703 -0.0742,0 -0.14453,0 -0.21875,0 -0.4336,0 -0.79688,0 -1.23047,0 -13.34375,0 -26.61719,0 -39.96094,0 -54.90234,0 -109.80078,0 -164.6289,0 -37.35157,0 -74.62891,0 -111.97657,0 -0.21875,0 -0.4375,0 -0.72656,0 -3.69922,0 1.88672,0.65235 -1.52344,-0.21875 -3.33594,-0.79687 1.59766,1.01953 -1.30469,-0.65234 -1.23437,-0.79688 -1.30468,-0.8711 -0.21875,-0.14453 -0.9414,-1.08985 -1.08593,-1.08985 -0.36328,-0.0742 -0.14453,-0.21485 -1.88281,-3.48438 -0.9414,-1.16016 -0.14454,-0.28906 -0.79688,-3.91797 -0.57813,-1.3789 -0.0742,-0.4336 -0.0742,-0.8711 -0.0742,-1.30469 0,-0.21875 0,-0.4375 0,-0.65625 0,-2.82813 0,-5.73438 0,-8.5625 0,-14.15625 0,-28.3125 0,-42.53906 0,-50.44922 0,-100.96875 0,-151.41797 0,-57.70703 0,-115.48828 0,-173.19532 0,-38.32812 0,-76.65234 0,-114.98046 0,-3.41016 0,-6.82422 0,-10.23438 0,-0.50781 0,-1.01562 0,-1.52344 0,-0.4375 0,-0.80078 0.0742,-1.23437 -0.0742,2.46875 0.43359,-1.01563 0.57813,-1.37891 -0.72657,2.32031 0.72656,-0.87109 0.9414,-1.16406 -1.51953,2.32422 1.81641,-1.30469 -0.35937,0.36328 0.21484,-0.14453 3.48047,-1.88672 1.16015,-0.94141 0.28907,-0.14453 3.91407,-0.80078 1.375,-0.58203 0.4375,-0.0742 0.94532,-0.0742 1.37891,-0.0742 10.80859,0 21.53906,0 32.34766,0 53.51953,0 107.04297,0 160.5664,0 40.97657,0 81.87891,0 122.85547,0 0.94141,0 1.88672,0 2.90235,0 6.8164,0 12.47265,-5.66015 12.47265,-12.48437 0,-6.82422 -5.73047,-12.55859 -12.54687,-12.55859 z m 0,0"
     id="path38" />
</svg>
