<?xml version="1.0" encoding="UTF-8" standalone="no"?>
<!-- Created with Inkscape (http://www.inkscape.org/) -->

<svg
   width="1000"
   height="1000"
   version="1.1"
   id="svg8"
   xmlns="http://www.w3.org/2000/svg"
   xmlns:svg="http://www.w3.org/2000/svg"
   xmlns:rdf="http://www.w3.org/1999/02/22-rdf-syntax-ns#"
   xmlns:cc="http://creativecommons.org/ns#"
   xmlns:dc="http://purl.org/dc/elements/1.1/">
  <defs
     id="defs5498" />
  <metadata
     id="metadata5594">
    <rdf:RDF>
      <cc:Work
         rdf:about="">
        <dc:format>image/svg+xml</dc:format>
        <dc:type
           rdf:resource="http://purl.org/dc/dcmitype/StillImage" />
      </cc:Work>
    </rdf:RDF>
  </metadata>
  <path
     style="fill:#000000;fill-opacity:1;fill-rule:nonzero;stroke:none"
     d="M 712.89844,397.35547 533.91797,129.08594 C 526.15234,117.63281 513.07812,111.91016 500,111.91016 c -13.07813,0 -26.15234,5.72265 -33.91797,17.58203 L 287.10156,397.35547 H 91.363281 C 68.886719,397.35547 50.5,415.75781 50.5,438.25 c 0,3.67969 0.410156,7.35937 1.632812,11.03906 L 155.92969,828.38281 c 9.39844,34.35156 40.86328,59.70703 78.45703,59.70703 h 531.22656 c 37.59375,0 69.05859,-25.35547 78.86719,-59.70703 L 948.27344,449.28906 949.5,438.25 c 0,-22.49219 -18.38672,-40.89453 -40.86328,-40.89453 z m -335.48828,0 L 500,217.41797 622.58984,397.35547 Z M 500,724.51172 c -44.94922,0 -81.72656,-36.80469 -81.72656,-81.78906 0,-44.98438 36.77734,-81.78907 81.72656,-81.78907 44.94922,0 81.72656,36.80469 81.72656,81.78907 0,44.98437 -36.77734,81.78906 -81.72656,81.78906 z m 0,0"
     id="path6" />
</svg>
