<?xml version="1.0" encoding="UTF-8" standalone="no"?>
<!-- Created with Inkscape (http://www.inkscape.org/) -->

<svg
   width="1000"
   height="1000"
   version="1.1"
   id="svg12"
   xmlns="http://www.w3.org/2000/svg"
   xmlns:svg="http://www.w3.org/2000/svg"
   xmlns:rdf="http://www.w3.org/1999/02/22-rdf-syntax-ns#"
   xmlns:cc="http://creativecommons.org/ns#"
   xmlns:dc="http://purl.org/dc/elements/1.1/">
  <defs
     id="defs5498" />
  <metadata
     id="metadata5594">
    <rdf:RDF>
      <cc:Work
         rdf:about="">
        <dc:format>image/svg+xml</dc:format>
        <dc:type
           rdf:resource="http://purl.org/dc/dcmitype/StillImage" />
      </cc:Work>
    </rdf:RDF>
  </metadata>
  <path
     style="fill:#000000;fill-opacity:1;fill-rule:nonzero;stroke:none"
     d="m 274.97266,297.61719 c 0,-37.25391 30.21875,-67.45703 67.5,-67.45703 37.27734,0 67.5,30.20312 67.5,67.45703 0,37.25781 -30.22266,67.46093 -67.5,67.46093 -37.28125,0 -67.5,-30.20312 -67.5,-67.46093"
     id="path6" />
  <path
     style="fill:#000000;fill-opacity:1;fill-rule:nonzero;stroke:none"
     d="m 274.97266,702.38281 c 0,-37.25781 30.21875,-67.46094 67.5,-67.46094 37.27734,0 67.5,30.20313 67.5,67.46094 0,37.25391 -30.22266,67.45703 -67.5,67.45703 -37.28125,0 -67.5,-30.20312 -67.5,-67.45703"
     id="path8" />
  <path
     style="fill:#000000;fill-opacity:1;fill-rule:nonzero;stroke:none"
     d="M 860.02734,50.29297 H 139.97266 C 112.98828,50.29297 95,68.269532 95,95.238282 V 904.76172 c 0,26.96875 17.98828,44.94531 44.97266,44.94531 h 719.96875 c 26.98437,0 44.97265,-17.97656 44.97265,-44.94531 L 905,95.238282 C 905,68.269532 887.01172,50.29297 860.02734,50.29297 Z M 342.47266,859.81641 c -85.48829,0 -157.53125,-71.9961 -157.53125,-157.4336 0,-85.4414 72.04296,-157.4375 157.53125,-157.4375 85.48828,0 157.52734,71.9961 157.52734,157.4375 0,85.4375 -72.03906,157.4336 -157.52734,157.4336 z m 0,-404.76172 c -85.48829,0 -157.53125,-71.9961 -157.53125,-157.4375 0,-85.4375 72.04296,-157.4336 157.53125,-157.4336 C 427.96094,140.26953 500,212.17969 500,297.61719 c 0,85.4414 -72.03906,157.4375 -157.52734,157.4375 z m 405,400.22656 c -35.97657,0 -67.5,-31.50781 -67.5,-67.46094 0,-35.95703 31.52343,-67.46094 67.5,-67.46094 35.97656,0 67.5,31.50391 67.5,67.46094 -4.45704,40.49219 -31.4375,67.46094 -67.5,67.46094 z m 0,-490.20313 c -35.97657,0 -67.5,-31.5039 -67.5,-67.46093 0,-35.95313 31.52343,-67.45703 67.5,-67.45703 35.97656,0 67.5,31.5039 67.5,67.45703 0,35.95703 -31.4375,67.46093 -67.5,67.46093 z m 0,0"
     id="path10" />
</svg>
