<?xml version="1.0" encoding="UTF-8" standalone="no"?>
<!-- Created with Inkscape (http://www.inkscape.org/) -->

<svg
   width="1000"
   height="1000"
   version="1.1"
   id="svg8"
   xmlns="http://www.w3.org/2000/svg"
   xmlns:svg="http://www.w3.org/2000/svg"
   xmlns:rdf="http://www.w3.org/1999/02/22-rdf-syntax-ns#"
   xmlns:cc="http://creativecommons.org/ns#"
   xmlns:dc="http://purl.org/dc/elements/1.1/">
  <defs
     id="defs5498" />
  <metadata
     id="metadata5594">
    <rdf:RDF>
      <cc:Work
         rdf:about="">
        <dc:format>image/svg+xml</dc:format>
        <dc:type
           rdf:resource="http://purl.org/dc/dcmitype/StillImage" />
      </cc:Work>
    </rdf:RDF>
  </metadata>
  <path
     style="fill:#000000;fill-opacity:1;fill-rule:nonzero;stroke:none"
     d="M 213.63672,90.910156 C 213.63672,68.410156 195.22656,50 172.72656,50 c -22.5,0 -40.91015,18.410156 -40.91015,40.910156 V 254.54687 H 50 V 500 H 295.45312 V 254.54687 h -81.8164 z M 377.27344,663.63672 c 0,53.17969 34.36328,98.17969 81.8164,115.36328 v 171 h 81.82032 V 779 c 47.45312,-16.77344 81.8164,-61.77344 81.8164,-115.36328 V 581.81641 H 377.27344 Z M 50,663.63672 C 50,716.81641 84.363281,761.81641 131.81641,779 v 171 h 81.82031 V 779 c 47.45312,-17.18359 81.8164,-62.18359 81.8164,-115.36328 V 581.81641 H 50 Z M 868.18359,254.54687 V 90.910156 C 868.18359,68.410156 849.77344,50 827.27344,50 c -22.5,0 -40.91016,18.410156 -40.91016,40.910156 V 254.54687 H 704.54687 V 500 H 950 V 254.54687 Z M 540.91016,90.910156 C 540.91016,68.410156 522.5,50 500,50 477.5,50 459.08984,68.410156 459.08984,90.910156 V 254.54687 h -81.8164 V 500 H 622.72656 V 254.54687 h -81.8164 z M 704.54687,663.63672 c 0,53.17969 34.36329,98.17969 81.81641,115.36328 v 171 h 81.82031 V 779 C 915.63672,762.22656 950,717.22656 950,663.63672 V 581.81641 H 704.54687 Z m 0,0"
     id="path6" />
</svg>
