<?xml version="1.0" encoding="UTF-8" standalone="no"?>
<!-- Created with Inkscape (http://www.inkscape.org/) -->

<svg
   width="1000"
   height="1000"
   version="1.1"
   id="svg14"
   xmlns="http://www.w3.org/2000/svg"
   xmlns:svg="http://www.w3.org/2000/svg"
   xmlns:rdf="http://www.w3.org/1999/02/22-rdf-syntax-ns#"
   xmlns:cc="http://creativecommons.org/ns#"
   xmlns:dc="http://purl.org/dc/elements/1.1/">
  <defs
     id="defs5498" />
  <metadata
     id="metadata5594">
    <rdf:RDF>
      <cc:Work
         rdf:about="">
        <dc:format>image/svg+xml</dc:format>
        <dc:type
           rdf:resource="http://purl.org/dc/dcmitype/StillImage" />
      </cc:Work>
    </rdf:RDF>
  </metadata>
  <path
     style="fill:#000000;fill-opacity:1;fill-rule:nonzero;stroke:none"
     d="m 828.17187,339.05469 c 0,-44.02735 -24.04296,-115.01953 -79.03515,-178.00391 C 704.0625,109.96875 625.02344,50 499.96094,50 c -125.0625,0 -204.10156,59.96875 -249.09766,110.97266 -54.99219,62.03125 -79.03516,133.97656 -79.03516,178 0,39.02734 14.9961,77.02343 26.98047,110.97265 16.02735,41.01172 29.9961,77.02344 14.04688,105.97656 -13.01563,24.03516 -10,49.97266 6.98047,74.00782 10,14.04297 26.98047,24.03515 44.99609,26.97265 -3.96875,6.98047 -6.98437,16.02344 -3.96875,21.97266 6.03125,13.00781 13.01563,32.99609 14.04688,47.03906 0,6.98047 -1.03125,19.03516 -3.01563,31.96485 -3.01562,28 -6.98437,59.96875 3.96875,75.03906 9.99609,14.04297 31.97656,31.01562 43.00781,39.98047 5,3.96484 11.03125,6.02734 18.01563,6.02734 6.03125,0 14.99609,1.03125 24.04297,8.01172 6.03125,4.99609 16.03125,13.00781 26.02734,21.01953 29.04688,24.98828 48.01172,39.98047 56.02734,41.01172 C 454.01562,950 497.97656,950 500.03906,950 c 1.03125,0 13.01563,0 26.03125,0 11.98047,0 24.9961,0 31.02735,-1.03125 8.01171,-1.03125 26.02734,-16.02344 56.02343,-41.01172 10,-8.96094 19.9961,-16.97266 26.02735,-21.01953 10,-6.98047 19.04687,-8.96094 24.04687,-8.01172 6.98047,0 13.01172,-1.98047 18.01172,-6.02734 11.98438,-8.96485 33.01172,-26.01953 43.01172,-39.98047 11.03125,-13.96094 6.98437,-46.00781 3.96875,-75.03906 -1.03125,-13.00782 -3.01563,-24.98438 -3.01563,-31.96485 1.03125,-14.04297 8.01172,-33 14.04297,-47.03906 3.01563,-6.98047 -1.98047,-16.02344 -3.96484,-19.03906 0,-1.03125 -1.03125,-1.98438 -1.98438,-3.01563 26.02735,-4.99609 49.03907,-21.97265 58.00782,-46.00781 6.98437,-18.00391 5,-36.96094 -3.96875,-54.96875 -14.9961,-29.03125 -1.98438,-64.01563 14.04687,-105.97656 C 813.17578,416.07422 828.17187,378 828.17187,339.05469 Z M 719.14062,658.08984 c 1.03125,0 3.96485,1.98438 8.01563,6.98047 3.01172,5 3.96484,8.96485 3.96484,9.9961 -6.98047,14.03906 -14.04297,34.98046 -14.99609,51.0039 0,8.01172 1.03125,19.98828 3.01562,34.03125 3.01563,24.03516 6.98047,56 -1.98437,67.02735 -10,13.00781 -29.99609,29.03125 -41.02734,37.99609 -3.96875,3.01172 -8.01563,3.96484 -11.98438,3.01172 -6.98047,0 -19.04297,1.03125 -31.02734,9.99609 -6.03125,4.9961 -16.02735,13.00781 -26.02735,21.97266 -16.98047,14.03906 -44.04297,37.99609 -49.99218,39.02734 -10,1.03125 -54.9961,0 -54.9961,0 0,0 -44.99219,1.03125 -54.99219,0 -6.03125,-1.03125 -34.04296,-24.98828 -49.99218,-39.02734 -10,-8.96485 -20,-16.97656 -26.03125,-21.97266 -11.98047,-8.96484 -24.04297,-11.02734 -31.02735,-9.99609 -3.01562,0 -8.01172,0 -11.98047,-3.01172 -11.03124,-8.96484 -31.98046,-24.98828 -41.02734,-37.99609 -8.01562,-11.02735 -3.96875,-44.02344 -1.98437,-67.02735 1.98437,-14.04297 3.01562,-24.98828 3.01562,-34.03125 -1.03125,-16.02344 -8.01562,-36.01172 -14.99609,-51.0039 -1.03516,-1.98438 0,-6.98047 3.01562,-11.97657 1.98047,-3.01562 3.96485,-5 3.96485,-5 h 59.04296 c 6.98047,0 13.01172,3.01563 16.98047,8.01172 5,6.98047 11.03125,21.02344 10,44.02344 l -1.03125,11.98047 -33.01172,-39.98047 c -1.98437,-3.01172 -5,-3.96484 -8.96875,-3.01172 -3.01562,1.03125 -4.99999,4.99609 -4.99999,8.01172 l 9.99999,51.00391 c 0,1.03125 0,1.03125 1.03125,1.98046 l 31.98047,52.03907 c 1.03125,1.98047 3.01563,3.01172 5,1.98047 1.98438,0 3.01563,-1.03125 3.96485,-3.01172 l 24.04687,3.01172 -3.01562,24.98828 c 0,1.98437 1.03125,3.96484 3.01562,4.99609 5,3.01563 9.9961,6.03125 16.02735,8.01172 1.98437,1.03125 3.01562,1.03125 5,0 1.03125,-1.03125 1.98437,-1.98047 3.01562,-3.96484 l 3.01563,-29.03125 24.04687,1.98046 -3.96875,37.9961 c 0,1.98437 1.03125,5 3.96875,5 4.99609,1.03125 11.02734,3.01172 16.02734,3.96484 1.03125,0 3.01563,0 3.96875,-1.03125 0.95313,-1.03125 1.98438,-1.98437 1.98438,-3.96484 l 1.98437,-39.98047 24.04297,1.03125 -1.98437,42.99219 c 0,3.01562 1.98437,5 5,5 6.98437,0 11.03125,0 11.03125,0 0,0 0,0 1.03125,0 1.03125,0 5,0 10,0 3.01562,0 4.99609,-3.01563 4.99609,-5 l -3.01172,-42.99219 24.04297,-1.03125 1.98438,41.01172 c 0,1.03125 1.03125,3.01172 1.98437,3.96484 0.94922,0.95313 3.01563,1.03125 3.96485,1.03125 6.03125,-1.03125 11.03125,-1.98437 16.03125,-3.96484 1.98437,-1.03125 3.96875,-3.01563 3.96875,-5 l -3.96875,-37.9961 24.04296,-1.98046 3.01563,29.98437 c 0,1.98047 1.03516,3.01172 3.01562,3.96484 1.03125,1.03125 3.01563,1.03125 5,0 5,-1.98437 11.03125,-4.99609 16.03125,-8.01171 1.98438,-1.03125 3.01563,-3.01563 3.01563,-4.9961 l -11.98438,-26.01953 24.04688,-3.01562 c 1.03125,1.98437 1.98437,3.01562 3.96484,3.01562 1.98438,0 3.96875,-1.03125 5,-1.98437 l 31.02735,-51.00391 c 0,-1.03125 1.03515,-1.03125 1.03515,-1.98438 l 9.9961,-51.0039 c 1.03125,-3.96485 -1.03125,-6.98047 -5,-8.01172 -3.01563,-1.03125 -6.98047,0 -8.01172,3.01562 l -33.01172,37.9961 -1.03516,-6.98047 c 0,0 0,0 0,-1.03125 -1.98047,-24.03516 3.96875,-37.99609 8.96875,-46.00781 3.96875,-6.02735 11.03125,-9.9961 18.01563,-9.9961 h 53.72265 c -1.03125,0 -1.03125,0 0,0 z M 413.94141,787.07031 c 6.98046,1.03125 14.99609,1.98438 24.04296,3.01563 h 1.03125 c 5,0 8.96875,-3.96875 10,-8.96485 l 3.01563,-34.03125 c 1.03125,0 1.98437,0 3.96484,0 l -1.03125,34.03125 c 0,6.02735 3.96875,11.02735 10,11.02735 6.98438,0 14.04688,1.03125 23.01172,1.03125 6.03125,0 10,-5 11.03125,-9.9961 l 0.95313,-32.125 h 3.01562 v 31.96485 c 0,6.03125 5,11.02734 11.03125,11.02734 6.98047,0 14.9961,0 23.01172,-1.03125 5,0 10,-4.99609 8.96875,-9.99609 l -1.03516,-34.02735 c 1.03516,0 1.98438,0 3.01563,0 l 1.98437,32.9961 c 0,6.03125 6.03125,11.02734 11.98438,9.99609 6.98437,-1.03125 14.99609,-1.98437 23.01172,-3.01562 6.03125,-1.03125 8.96875,-6.02735 8.96875,-11.02344 l -1.98438,-34.03125 c 1.98438,0 3.01563,-1.03125 5,-1.03125 l 3.01563,31.96875 c 1.03125,6.02734 6.03125,9.99219 11.98047,8.96094 8.01562,-1.98047 16.03125,-3.96485 24.04687,-6.02735 5,-1.03125 8.01172,-6.02734 6.98047,-11.02734 l -3.01562,-31.96485 33.01171,-37.99609 -6.98046,39.02734 -28.01172,44.97657 c -1.03516,0 -3.01563,0 -3.96875,0 l -24.9961,3.01172 c -1.98437,0 -5,1.98437 -6.03125,3.96875 -1.98437,1.98046 -1.98437,3.96484 -1.98437,6.98046 l 3.01562,23.00391 c -1.98437,1.03125 -3.01562,1.98047 -5,3.01172 l -1.98437,-23.00391 c 0,-1.98047 -1.03125,-4.99609 -3.01563,-6.02734 -3.01562,-1.98438 -6.03125,-1.98438 -8.01562,-1.98438 L 559.95312,791.75 c -1.98437,0 -5,1.03125 -6.03125,3.01562 -1.98437,1.98047 -1.98437,3.96485 -1.98437,6.98047 l 3.01562,34.98047 c -1.98437,0 -3.96875,1.03125 -6.03125,1.03125 l -1.98437,-36.01172 c 0,-1.98437 -1.03125,-5 -3.01563,-6.03125 -1.98437,-1.98047 -3.96484,-3.01172 -6.98046,-1.98047 l -25,1.03125 c -1.98047,0 -4.9961,1.03125 -6.02735,3.01172 -1.98437,1.98438 -3.01562,3.96875 -1.98437,6.98047 l 1.98437,39.02735 c -3.01562,0 -5,0 -5,0 0,0 -1.98437,0 -5,0 l 1.98438,-39.02735 c 0,-4.99609 -3.96875,-9.99219 -8.96875,-9.99219 l -24.9961,-1.03125 c -5,0 -10,3.96485 -10,8.96094 l -1.98437,34.98438 c -1.98047,0 -3.96485,-1.03125 -6.03125,-1.03125 l 3.01562,-34.03125 c 0,-1.98438 -1.03125,-4.9961 -1.98047,-6.98047 -1.98437,-1.98438 -3.96875,-3.01563 -6.03125,-3.01563 l -25,-1.98047 c -4.99609,0 -9.99609,3.01172 -9.99609,8.01172 l -1.98437,23.00391 c -1.98438,-1.03125 -3.96875,-1.98438 -5,-3.01563 l 3.01562,-21.97265 c 1.03125,-4.9961 -3.01562,-9.9961 -8.01562,-11.02735 l -24.9961,-3.01171 c -1.03125,0 -3.01562,0 -3.96875,0 l -28.01172,-46.00782 -6.98437,-39.02734 33.01172,39.02734 -3.01563,29.98438 c 0,4.99609 3.01563,8.96484 6.98438,9.99609 8.01562,1.98047 16.03125,3.96485 24.04687,4.9961 6.02735,1.03125 11.02735,-3.01563 11.98047,-8.96485 l 3.01563,-34.02734 c 1.03125,0 3.01562,0 3.96875,1.03125 l -3.01563,36.01172 c -1.98437,6.42578 1.98438,11.42187 6.98438,11.42187 z M 777.14844,560.04687 c 8.01562,16.02344 10,31.01563 3.96875,47.03907 -8.96875,24.98828 -34.04297,41.01172 -63.00782,41.01172 h -54.04296 c -11.03125,0 -21.02735,4.99609 -26.98047,14.03906 -6.03125,8.96484 -11.98047,24.98828 -10,52.03515 v 1.03125 l 1.98437,18.00782 v 1.03125 l 3.96875,32.99609 c -6.98437,1.98438 -14.99609,3.96875 -23.01172,6.03125 l -3.96875,-37.99609 c 0,-1.03125 -1.03125,-3.01563 -1.98437,-3.96875 -0.95313,-0.94922 -3.01563,-1.03125 -3.96875,-1.03125 -3.96485,1.03125 -8.96485,1.98437 -14.04297,1.98437 -3.01563,0 -5,3.01563 -3.96875,4.9961 l 3.01562,37.99609 c 0,0 0,0 0,1.03125 -8.01562,1.03125 -15,1.98437 -21.98046,3.01562 h -1.03516 l -3.01172,-37.99609 c 0,-1.03125 -1.03516,-3.01562 -1.98437,-3.96484 -0.95313,-0.95313 -1.98438,-1.03125 -3.96875,-1.03125 -3.96875,0 -8.96875,1.03125 -13.01563,1.03125 -3.01562,0 -5,1.98047 -5,4.99609 l 1.03516,39.02734 c -8.01563,0 -15,1.03125 -21.98438,1.03125 v 4.9961 -4.9961 c -1.03125,0 -1.03125,0 -1.03125,-1.03125 l -1.03125,-36.96484 c 0,-3.01562 -1.98437,-4.99609 -5,-4.99609 h -13.01172 c -3.01562,0 -5,1.98047 -5,4.99609 l -1.98437,36.96484 c 0,0 0,0 -1.03125,0 -8.01563,0 -15,-1.03125 -21.98047,-1.03125 0,0 0,0 0,-1.03125 l 1.98047,-39.02734 c 0,-3.01562 -1.98047,-4.99609 -4.9961,-4.99609 -5,0 -8.96875,-1.03125 -14.04687,-1.03125 -1.03125,0 -3.01563,0 -3.96875,1.03125 -1.03125,1.03125 -1.98438,1.98047 -1.98438,3.96484 L 439.09375,780.25 c -8.96484,-1.03125 -16.02734,-1.98438 -23.01172,-1.98438 l 3.01563,-39.98046 c 0,-3.01172 -1.98438,-4.9961 -3.96875,-4.9961 -5,-1.03125 -9.9961,-1.98437 -14.04297,-1.98437 -1.03516,0 -3.01563,0 -3.96875,1.03125 -0.95313,1.03125 -1.98438,1.98437 -1.98438,3.96875 l -3.96875,39.02734 c -8.01562,-1.03125 -14.99609,-3.01562 -23.01172,-5 l 3.01563,-31.96484 1.98437,-24.98828 c 1.98438,-26.01954 -5,-42.03907 -11.03125,-51.00391 -5,-8.01172 -15,-13.00781 -24.99609,-13.00781 h -59.04297 c -19.99609,0 -38.00781,-8.96485 -49.03906,-24.03516 -15,-21.02344 -16.98438,-42.04297 -5,-64.01562 18.01172,-32.9961 1.98437,-72.02344 -14.04688,-113.98829 -13.01172,-34.02734 -26.98047,-70.03906 -26.98047,-107.0039 -1.1914,-80.27735 93.87891,-280.328126 316.94532,-280.328126 223.0664,0 318.13281,200.050776 318.13281,279.058596 0,37.99609 -14.04297,72.97656 -26.98047,107.0039 -15.94922,41.96485 -30.94531,80.99219 -13.96484,113.98828 z m 0,0"
     id="path6" />
  <path
     style="fill:#000000;fill-opacity:1;fill-rule:nonzero;stroke:none"
     d="m 637.08594,421.07422 c -24.04297,-1.03125 -53.00782,6.98047 -74.03907,18.0039 -16.98046,9.9961 -28.01171,28.00391 -26.98046,47.03907 1.03125,31.01562 21.03125,54.01953 59.03906,69.01172 21.98437,8.01171 43.01172,13.00781 61.02734,13.00781 23.01172,0 43.00781,-6.02735 62.05469,-19.98828 10,-6.98047 18.01172,-21.01953 19.99609,-37.9961 3.01563,-19.03515 -1.03125,-36.01172 -11.02734,-49.01953 -27.0625,-36.09375 -52.05859,-39.10547 -90.07031,-40.05859 z m 92.05078,87.96875 c -1.98047,14.03906 -8.96485,26.01953 -16.02735,31.01562 -16.98437,11.97657 -36.02734,18.00782 -57.05859,18.00782 -16.98047,0 -36.97656,-3.96875 -58.00781,-11.98047 C 564,533.07812 547.01953,513.08984 545.98828,487.07031 c 0,-16.02344 8.01172,-29.98437 21.98047,-37.99609 18.01172,-9.9961 44.04297,-16.97656 66.02344,-16.97656 1.03125,0 1.98437,0 3.01562,0 41.02735,1.03125 59.99219,5 83.00391,36.01562 11.10937,13.96094 10.07812,31.96484 9.125,40.92969 z m 0,0"
     id="path8" />
  <path
     style="fill:#000000;fill-opacity:1;fill-rule:nonzero;stroke:none"
     d="m 514.00781,514.03906 c -3.01562,0 -5,1.03125 -6.03125,1.98438 -3.01562,1.98437 -6.03125,8.96484 -8.01562,21.01953 -3.01563,-11.97656 -5,-19.03516 -8.01563,-21.01953 -1.03125,-1.03125 -3.01562,-1.98438 -6.03125,-1.98438 -8.96484,0 -18.01172,8.01172 -39.04297,108.03906 0,1.03125 -3.96875,36.01172 20,47.03907 3.01563,1.03125 6.03125,1.98437 8.96485,1.98437 6.98437,0 14.04687,-3.96875 19.04687,-8.96484 1.98438,-3.01563 3.96485,-6.02735 5,-8.96485 1.03125,3.96875 3.01563,6.98047 4.9961,8.96485 3.96875,6.02734 11.03125,8.96484 18.01562,8.96484 3.01563,0 6.03125,-1.03125 8.96484,-1.98437 25,-11.02735 21.03125,-44.97657 21.03125,-47.03907 C 532.01953,522.05078 522.97266,514.03906 514.00781,514.03906 Z m 14.9961,146.98828 c -5,1.98047 -11.98047,1.03125 -14.9961,-3.96875 -3.01562,-4.99609 -6.98437,-13.00781 -8.01562,-29.03125 0,-3.01562 -1.98438,-4.99609 -5,-4.99609 -3.01563,0 -5,1.98047 -5,4.99609 -1.03125,11.97657 -3.96875,23.00391 -8.01563,29.03125 -3.01562,5 -9.99609,6.98047 -16.02734,3.96875 -16.98438,-7.93359 -13.96875,-35.93359 -13.96875,-35.93359 16.98437,-82.01953 26.03125,-97.01172 29.04687,-100.02734 3.01563,3.96484 6.98047,28 8.96485,49.01953 0,3.01562 1.98437,5 5,5 3.01562,0 5,-1.98438 5,-5 1.98437,-19.98828 6.03125,-44.02344 8.96484,-49.01953 3.01563,3.01562 11.98438,18.00781 29.04688,98.99609 -0.95313,0 1.98437,29.03125 -15,36.96484 z m 0,0"
     id="path10" />
  <path
     style="fill:#000000;fill-opacity:1;fill-rule:nonzero;stroke:none"
     d="m 464.01172,487.07031 c 0,-19.03906 -9.9961,-37.99609 -26.98047,-47.03906 -21.02734,-11.97656 -49.99219,-19.03516 -74.03906,-18.00391 -39.04297,1.02735 -64.03906,3.01172 -91.01953,39.97657 -10,13.00781 -13.96485,31.01562 -11.03125,49.02343 3.01562,16.02344 11.03125,31.01563 20,37.9961 19.04297,13.00781 39.99218,19.98828 62.05468,19.98828 19.04688,0 39.04297,-3.96485 61.02344,-13.00781 38.96484,-14.91407 58.96094,-37.91797 59.99219,-68.9336 z m -62.05469,59.01563 c -21.02734,8.01172 -41.02734,11.98047 -58.00781,11.98047 -21.03125,0 -39.04297,-6.03125 -57.0586,-18.00782 -6.98046,-4.99609 -13.96484,-18.00781 -16.02734,-31.01562 -1.03125,-8.96485 -1.98437,-26.96875 8.96484,-42.04297 24.04688,-31.01563 43.01172,-34.98047 83.00782,-36.01172 1.03125,0 1.98437,0 3.01562,0 21.02735,0 48.00781,6.98047 66.02344,16.97656 14.04297,8.01172 21.98047,21.97266 21.98047,37.9961 -0.875,27.1289 -17.85547,47.11718 -51.89844,60.125 z m 0,0"
     id="path12" />
</svg>
