<?xml version="1.0" encoding="UTF-8" standalone="no"?>
<!-- Created with Inkscape (http://www.inkscape.org/) -->

<svg
   width="1000"
   height="1000"
   version="1.1"
   id="svg26"
   xmlns="http://www.w3.org/2000/svg"
   xmlns:svg="http://www.w3.org/2000/svg"
   xmlns:rdf="http://www.w3.org/1999/02/22-rdf-syntax-ns#"
   xmlns:cc="http://creativecommons.org/ns#"
   xmlns:dc="http://purl.org/dc/elements/1.1/">
  <defs
     id="defs5498" />
  <metadata
     id="metadata5594">
    <rdf:RDF>
      <cc:Work
         rdf:about="">
        <dc:format>image/svg+xml</dc:format>
        <dc:type
           rdf:resource="http://purl.org/dc/dcmitype/StillImage" />
      </cc:Work>
    </rdf:RDF>
  </metadata>
  <path
     style="fill:#000000;fill-opacity:1;fill-rule:nonzero;stroke:none"
     d="M 946.29334,796.07422 842.44568,588.38281 C 836.55896,576.69922 824.60974,569.23047 811.5199,569.23047 H 188.44568 c -13.09375,0 -25.1289,7.3789 -30.92578,19.15234 L 53.672244,796.07422 c -5.359375,10.71875 -4.832031,23.46094 1.492187,33.65234 6.328126,10.19141 17.484376,16.42578 29.433594,16.42578 H 465.36756 v 34.61719 h -69.23047 c -19.06641,0 -34.61719,15.55078 -34.61719,34.61328 0,19.06641 15.46484,34.61719 34.61719,34.61719 h 207.6914 c 19.06641,0 34.61719,-15.46094 34.61719,-34.61719 0,-19.15234 -15.46484,-34.61328 -34.61719,-34.61328 h -69.23046 v -34.61719 h 380.76953 c 12.03515,0 23.10547,-6.23437 29.42968,-16.42578 6.32813,-10.1914 6.94141,-22.93359 1.4961,-33.65234 z m 0,0"
     id="path6" />
  <path
     style="fill:#000000;fill-opacity:1;fill-rule:nonzero;stroke:none"
     d="m 499.98084,396.15234 c 57.28515,0 103.84765,-46.5625 103.84765,-103.84375 0,-57.28515 -46.5625,-103.84765 -103.84765,-103.84765 -57.28125,0 -103.84375,46.5625 -103.84375,103.84765 0,57.28125 46.5625,103.84375 103.84375,103.84375 z m 0,0"
     id="path8" />
  <path
     style="fill:#000000;fill-opacity:1;fill-rule:nonzero;stroke:none"
     d="m 499.98084,153.84766 c 19.0664,0 34.61719,-15.55079 34.61719,-34.61719 V 84.617188 C 534.59803,65.550781 519.04724,50 499.98084,50 c -19.0625,0 -34.61328,15.550781 -34.61328,34.617188 v 34.613282 c 0,19.0664 15.55078,34.61719 34.61328,34.61719 z m 0,0"
     id="path10" />
  <path
     style="fill:#000000;fill-opacity:1;fill-rule:nonzero;stroke:none"
     d="M 465.36756,465.38281 V 500 c 0,19.06641 15.55078,34.61719 34.61328,34.61719 19.0664,0 34.61719,-15.46485 34.61719,-34.61719 v -34.61719 c 0,-19.0625 -15.55079,-34.61328 -34.61719,-34.61328 -19.0625,0 -34.61328,15.55078 -34.61328,34.61328 z m 0,0"
     id="path12" />
  <path
     style="fill:#000000;fill-opacity:1;fill-rule:nonzero;stroke:none"
     d="m 638.44568,292.30859 c 0,19.0625 15.55078,34.61328 34.61328,34.61328 h 34.61719 c 19.0625,0 34.61328,-15.55078 34.61328,-34.61328 0,-19.0664 -15.46094,-34.61718 -34.61328,-34.61718 h -34.61719 c -19.0625,0 -34.61328,15.55078 -34.61328,34.61718 z m 0,0"
     id="path14" />
  <path
     style="fill:#000000;fill-opacity:1;fill-rule:nonzero;stroke:none"
     d="m 292.28943,326.92187 h 34.61719 c 19.0625,0 34.61328,-15.55078 34.61328,-34.61328 0,-19.0664 -15.55078,-34.61718 -34.61328,-34.61718 h -34.61719 c -19.0625,0 -34.61328,15.55078 -34.61328,34.61718 0,19.0625 15.55078,34.61328 34.61328,34.61328 z m 0,0"
     id="path16" />
  <path
     style="fill:#000000;fill-opacity:1;fill-rule:nonzero;stroke:none"
     d="m 622.36756,204.53906 c 8.87109,0 17.74609,-3.33984 24.51172,-10.10156 l 24.51171,-24.51172 c 13.52735,-13.53125 13.52735,-35.40625 0,-48.9375 -13.53125,-13.53125 -35.40625,-13.53125 -48.9375,0 L 597.94178,145.5 c -13.52735,13.53125 -13.52735,35.40625 0,48.9375 6.67578,6.67578 15.55078,10.10156 24.42578,10.10156 z m 0,0"
     id="path18" />
  <path
     style="fill:#000000;fill-opacity:1;fill-rule:nonzero;stroke:none"
     d="m 353.08631,390.17969 -24.51172,24.51172 c -13.53125,13.53125 -13.53125,35.40625 0,48.9375 6.76562,6.76171 15.64062,10.10156 24.51172,10.10156 8.875,0 17.74609,-3.33985 24.51172,-10.10156 l 24.51171,-24.51172 c 13.53125,-13.53125 13.53125,-35.40625 0,-48.9375 -13.52734,-13.44141 -35.49218,-13.44141 -49.02343,0 z m 0,0"
     id="path20" />
  <path
     style="fill:#000000;fill-opacity:1;fill-rule:nonzero;stroke:none"
     d="m 646.87928,390.17969 c -13.53125,-13.53125 -35.40625,-13.53125 -48.9375,0 -13.52735,13.53125 -13.52735,35.40625 0,48.9375 l 24.51171,24.51172 c 6.76563,6.76171 15.64063,10.10156 24.51172,10.10156 8.875,0 17.7461,-3.33985 24.51172,-10.10156 13.53125,-13.53125 13.53125,-35.40625 0,-48.9375 z m 0,0"
     id="path22" />
  <path
     style="fill:#000000;fill-opacity:1;fill-rule:nonzero;stroke:none"
     d="m 353.08631,194.4375 c 6.76562,6.76172 15.64062,10.10156 24.51172,10.10156 8.875,0 17.74609,-3.33984 24.51171,-10.10156 13.53125,-13.53125 13.53125,-35.40625 0,-48.9375 l -24.51171,-24.51172 c -13.52735,-13.53125 -35.40625,-13.53125 -48.9336,0 -13.53125,13.53125 -13.53125,35.40625 0,48.9375 z m 0,0"
     id="path24" />
</svg>
