<?xml version="1.0" encoding="UTF-8" standalone="no"?>
<!-- Created with Inkscape (http://www.inkscape.org/) -->

<svg
   width="1000"
   height="1000"
   version="1.1"
   id="svg16"
   xmlns="http://www.w3.org/2000/svg"
   xmlns:svg="http://www.w3.org/2000/svg"
   xmlns:rdf="http://www.w3.org/1999/02/22-rdf-syntax-ns#"
   xmlns:cc="http://creativecommons.org/ns#"
   xmlns:dc="http://purl.org/dc/elements/1.1/">
  <defs
     id="defs5498" />
  <metadata
     id="metadata5594">
    <rdf:RDF>
      <cc:Work
         rdf:about="">
        <dc:format>image/svg+xml</dc:format>
        <dc:type
           rdf:resource="http://purl.org/dc/dcmitype/StillImage" />
      </cc:Work>
    </rdf:RDF>
  </metadata>
  <path
     style="fill:#000000;fill-opacity:1;fill-rule:nonzero;stroke:none"
     d="M 207.51122,277.31982 354.85497,129.97607 284.58544,59.706543 c -12.94141,-12.941406 -33.8711,-12.941406 -46.81641,0 L 137.24169,160.23389 c -6.21875,6.22265 -9.66797,14.625 -9.66797,23.45312 0,8.74219 3.44922,17.23047 9.66797,23.44922 z m 0,0"
     id="path6" />
  <path
     style="fill:#000000;fill-opacity:1;fill-rule:nonzero;stroke:none"
     d="m 940.28466,715.40576 -70.26563,-70.26563 -147.34766,147.34375 70.26954,70.26954 c 6.21875,6.21875 14.625,9.66406 23.44921,9.66406 8.74219,0 17.23047,-3.53125 23.45313,-9.66406 L 940.37059,762.22607 c 12.85938,-12.94531 12.85938,-33.875 -0.0859,-46.82031 z m 0,0"
     id="path8" />
  <path
     style="fill:#000000;fill-opacity:1;fill-rule:nonzero;stroke:none"
     d="m 752.93309,528.0542 c -12.94531,-12.94532 -33.875,-12.94532 -46.82031,0 l -30.25781,30.25781 -23.45313,-23.45313 70.26953,-70.26562 c 6.22266,-6.22266 9.66797,-14.625 9.66797,-23.45313 0,-8.74218 -3.53125,-17.23046 -9.66797,-23.44921 L 582.13622,277.15185 c -12.44141,-12.4375 -34.37891,-12.4375 -46.82031,0 l -70.26563,70.26953 -23.45312,-23.44921 30.26171,-30.26172 c 6.21875,-6.21875 9.66407,-14.625 9.66407,-23.44922 0,-8.74219 -3.53125,-17.23047 -9.66407,-23.44922 l -70.26953,-70.26953 -147.26172,147.59765 70.26954,70.26563 c 6.21875,6.22266 14.625,9.66797 23.44921,9.66797 8.74219,0 17.23047,-3.53125 23.45313,-9.66797 l 23.44922,-23.44922 23.44922,23.44922 -70.26563,70.26953 c -6.22265,6.22266 -9.66797,14.625 -9.66797,23.45313 0,8.82421 3.53125,17.23046 9.66797,23.44921 l 46.81641,46.81641 -4.03516,4.03516 c -13.19531,-6.30469 -27.73828,-9.75 -42.78125,-9.75 -26.5625,0 -51.4414,10.33984 -70.26953,29.08203 -38.75,38.75 -38.75,101.78906 0,140.53906 18.74219,18.74219 43.70703,29.08203 70.26953,29.08203 26.5586,0 51.4375,-10.33984 70.26563,-29.08203 30.51172,-30.51172 36.64843,-75.90234 19.08203,-112.80078 l 4.28515,-4.28516 46.82032,46.81641 c 6.46875,6.47266 14.96093,9.66797 23.44922,9.66797 8.48828,0 16.98046,-3.19531 23.44921,-9.66797 l 70.26954,-70.26953 23.45312,23.45312 -23.36719,23.36719 c -12.94531,12.94141 -12.94531,33.87109 0,46.81641 l 70.26563,70.26953 147.09375,-147.34766 z m 0,0"
     id="path10" />
  <path
     style="fill:#000000;fill-opacity:1;fill-rule:nonzero;stroke:none"
     d="m 348.04637,784.49951 c -73.04296,0 -132.46875,-59.42578 -132.46875,-132.46875 0,-18.23828 -14.875,-33.11719 -33.11718,-33.11719 -18.23828,0 -33.11719,14.87891 -33.11719,33.11719 0,109.60547 89.09766,198.70312 198.70312,198.70312 18.23829,0 33.11719,-14.8789 33.11719,-33.11718 0,-18.32422 -14.79297,-33.11719 -33.11719,-33.11719 z m 0,0"
     id="path12" />
  <path
     style="fill:#000000;fill-opacity:1;fill-rule:nonzero;stroke:none"
     d="m 348.04637,883.76513 c -61.94531,0 -120.11328,-24.12109 -163.90234,-67.91406 -43.79297,-43.79297 -67.91406,-102.04297 -67.91406,-163.90625 0,-18.23828 -14.79688,-33.11328 -33.117191,-33.11328 -18.242187,0 -33.117187,14.79297 -33.117187,33.11328 0,79.60156 31.015625,154.49219 87.328128,210.8086 56.3164,56.3164 131.125,87.24609 210.72265,87.24609 18.23829,0 33.11719,-14.87891 33.11719,-33.11719 0,-18.23828 -14.79297,-33.11719 -33.11719,-33.11719 z m 0,0"
     id="path14" />
</svg>
