<?xml version="1.0" encoding="UTF-8" standalone="no"?>
<!-- Created with Inkscape (http://www.inkscape.org/) -->

<svg
   width="1000"
   height="1000"
   version="1.1"
   id="svg8"
   xmlns="http://www.w3.org/2000/svg"
   xmlns:svg="http://www.w3.org/2000/svg"
   xmlns:rdf="http://www.w3.org/1999/02/22-rdf-syntax-ns#"
   xmlns:cc="http://creativecommons.org/ns#"
   xmlns:dc="http://purl.org/dc/elements/1.1/">
  <defs
     id="defs5498" />
  <metadata
     id="metadata5594">
    <rdf:RDF>
      <cc:Work
         rdf:about="">
        <dc:format>image/svg+xml</dc:format>
        <dc:type
           rdf:resource="http://purl.org/dc/dcmitype/StillImage" />
      </cc:Work>
    </rdf:RDF>
  </metadata>
  <path
     style="fill:#000000;fill-opacity:1;fill-rule:nonzero;stroke:none"
     d="m 320,770 c -49.5,0 -89.55078,40.5 -89.55078,90 0,49.5 40.05078,90 89.55078,90 49.5,0 90,-40.5 90,-90 0,-49.5 -40.5,-90 -90,-90 z M 50,50 v 90 h 90 l 162,341.55078 -60.75,110.25 C 234.05078,604.39844 230,619.25 230,635 c 0,49.5 40.5,90 90,90 H 860 V 635 H 338.89844 c -6.29688,0 -11.25,-4.94922 -11.25,-11.25 L 329,618.35156 369.5,545 h 335.25 c 33.75,0 63.44922,-18.44922 78.75,-46.35156 L 944.60156,206.60156 C 948.19922,200.30078 950,192.64844 950,185 950,160.25 929.75,140 905,140 H 239.44922 L 197.14844,50 Z m 720,720 c -49.5,0 -89.55078,40.5 -89.55078,90 0,49.5 40.05078,90 89.55078,90 49.5,0 90,-40.5 90,-90 0,-49.5 -40.5,-90 -90,-90 z m 0,0"
     id="path6" />
</svg>
