<?xml version="1.0" encoding="UTF-8" standalone="no"?>
<!-- Created with Inkscape (http://www.inkscape.org/) -->

<svg
   width="1000"
   height="1000"
   version="1.1"
   id="svg16"
   xmlns="http://www.w3.org/2000/svg"
   xmlns:svg="http://www.w3.org/2000/svg"
   xmlns:rdf="http://www.w3.org/1999/02/22-rdf-syntax-ns#"
   xmlns:cc="http://creativecommons.org/ns#"
   xmlns:dc="http://purl.org/dc/elements/1.1/">
  <defs
     id="defs5498" />
  <metadata
     id="metadata5594">
    <rdf:RDF>
      <cc:Work
         rdf:about="">
        <dc:format>image/svg+xml</dc:format>
        <dc:type
           rdf:resource="http://purl.org/dc/dcmitype/StillImage" />
      </cc:Work>
    </rdf:RDF>
  </metadata>
  <path
     style="fill:#000000;fill-opacity:1;fill-rule:nonzero;stroke:none"
     d="m 275.58611,445 c -11.01953,19.95703 -8.95703,39.91406 4.99218,59.87109 9.98829,14.01563 26.94922,22.96485 45.97266,22.96485 h 45.97266 c 4.99218,0 8.95312,1.98047 11.96484,6.01953 3.96484,6.01953 8.00781,15.99609 6.97656,33.97265 l -3.96093,43.95313 c 0,3.96094 3.01171,8 6.97265,8.94922 6.02344,1.03125 13,3.01172 19.02344,3.96094 1.03125,0 1.03125,0 1.98047,0 4.99219,0 8.00781,-3.96094 8.95703,-8 l 1.98047,-24.94532 h 1.03125 l -1.98047,26.92578 c 0,4.98829 3.01172,8.94922 8.00391,9.98047 6.02343,1.02735 11.96875,1.97657 19.02343,1.97657 h 1.03125 c 4.99219,0 8.95703,-3.95704 8.95703,-7.9961 l 1.98047,-24.94531 -1.03125,24.94531 c 0,4.98828 3.96485,9.97656 8.95703,9.97656 6.02344,0 11.96875,1.03125 17.99219,1.03125 4.99219,0 8.95703,-3.96093 9.98828,-8.94921 v -24.94532 23.9961 c 0,4.98828 4.99219,9.97656 9.98438,9.97656 6.02344,0 11.01953,0 17.99219,-1.03125 4.99609,0 8.95703,-3.95703 8.95703,-8.94531 v -25.97657 l 1.98047,23.9961 c 0,4.98828 4.99609,8.94922 9.98828,8.94922 h 1.03125 c 6.02343,-1.03125 11.96875,-1.03125 17.99218,-1.98047 4.99219,-1.03125 8.00391,-4.98828 8.00391,-9.98047 l -1.98047,-24.94531 h 1.03125 l 1.98047,23.99609 c 1.03125,4.98828 6.02344,8.94922 11.01563,8 6.97656,-1.03125 13,-3.01172 19.02343,-4.99219 3.96485,-1.02734 6.97657,-4.98828 6.02344,-9.97656 l -4.99219,-40.94531 c 0,0 0,0 0,-1.02735 -1.03125,-17.97656 3.01172,-28.98437 6.97657,-34.92578 3.01171,-3.95703 8.0039,-6.96875 12.99609,-6.96875 h 42.00781 c 26,0 48.98438,-14.96875 57.94141,-37.93359 4.99219,-14.96875 3.96484,-29.93359 -3.96485,-43.95313 -11.96484,-21.9375 -1.02734,-49.89062 11.01954,-81.88671 9.98828,-25.97266 21.95312,-55.91016 21.95312,-86.875 0,-63.91016 -75.92969,-225.625002 -256.80469,-225.625002 -180.87109,0 -256.96484,161.714842 -256.96484,226.574212 0,30.96485 11.01953,60.90235 21.95703,86.87891 12.04688,31.91406 22.03516,58.91797 10.06641,80.85547 z M 500.37126,60.593752 c 172.86719,0 246.81641,154.742188 246.81641,215.644528 0,28.98438 -11.01563,56.94141 -21.00391,82.83594 -13,32.94531 -24.96484,63.91015 -11.01562,89.88672 6.02344,11.95703 6.97265,23.99609 3.01172,35.95312 -6.97657,19.00781 -26,30.96485 -47.95313,30.96485 h -42.00781 c -8.95703,0 -16.96484,3.96093 -21.95703,11.95703 -4.99219,6.96875 -9.98438,19.95703 -8.00391,40.94531 0,0 0,0 0,1.02734 l 3.96094,39.91407 c -4.99219,1.03125 -9.98438,3.01171 -14.98047,3.96093 l -3.01172,-27.95703 c 0,-1.02734 -1.02734,-3.00781 -1.98047,-3.95703 -1.03125,-1.03125 -3.01172,-1.03125 -3.96484,-1.03125 -3.01172,1.03125 -6.97266,1.03125 -11.01563,1.98047 -3.01171,0 -4.99218,3.00781 -3.96093,6.01953 l 1.98047,28.98438 c -4.9961,1.02734 -9.98829,1.02734 -16.01172,1.98046 l -1.98047,-28.98828 c 0,-1.02734 -1.03125,-3.00781 -1.98047,-3.95703 -0.95313,-0.95312 -1.98438,-1.03125 -3.96484,-1.03125 -3.01172,0 -6.97657,1.03125 -9.98829,1.03125 -3.01171,0 -4.99218,3.00781 -4.99218,4.98828 v 28.98438 c -4.99219,0 -9.98828,0 -16.01172,1.03125 v -27.95703 c 0,-3.00782 -1.98047,-4.98828 -4.99219,-4.98828 h -9.98828 c -3.01172,0 -4.99219,1.98046 -4.99219,4.98828 l -1.03125,27.95703 c -4.99219,0 -11.01562,0 -16.01172,-1.03125 l 1.03125,-28.98438 c 0,-3.00781 -1.98047,-4.98828 -4.99218,-4.98828 -3.96485,0 -6.97657,-1.03125 -11.01954,-1.03125 -1.02734,0 -3.01171,0 -3.96093,1.03125 -0.95313,1.02735 -1.98047,1.98047 -1.98047,3.95703 l -1.03125,28.98828 c -6.02344,-1.03125 -11.01953,-1.03125 -16.01172,-1.98046 l 1.98047,-29.9375 c 0,-3.00782 -1.98047,-4.98829 -3.96094,-6.01563 -3.96484,-1.03125 -8.00391,-1.03125 -11.01953,-1.98047 -1.02734,0 -3.01172,0 -3.96094,1.02735 -0.95312,1.03125 -1.98047,1.98046 -1.98047,3.96093 l -3.01172,28.98438 c -4.99609,-1.02735 -9.98828,-1.98047 -14.98046,-3.00781 l 3.96093,-42.92579 c 1.03125,-20.98437 -3.96093,-32.9414 -8.95703,-39.91406 -4.99219,-6.96875 -11.96875,-11.00781 -21.0039,-11.00781 h -45.96875 c -14.98047,0 -29.01172,-6.96875 -37.96875,-17.97656 -11.01563,-15.9961 -12.9961,-31.91407 -3.96094,-48.94141 14.02734,-25.97656 1.98047,-56.94141 -11.01953,-89.88281 -9.98438,-26.92578 -21.00391,-53.9336 -21.00391,-82.83985 1.03125,-61.92968 74.98047,-216.671868 247.85156,-216.671868 z m 0,0"
     id="path6" />
  <path
     style="fill:#000000;fill-opacity:1;fill-rule:nonzero;stroke:none"
     d="m 574.32048,446.98047 c 17.99219,6.96875 34.00391,9.97656 47.95313,9.97656 17.99218,0 34.0039,-4.98828 48.98437,-14.96484 8.00391,-4.99219 14.02735,-16.94922 16.00781,-29.9375 1.98438,-14.96875 -1.02734,-28.98438 -8.95703,-39.91407 -21.95312,-28.98437 -42.00781,-30.96484 -71.96875,-31.91406 -19.01953,0 -42.00781,4.98828 -57.9375,14.01563 -14.03125,8 -21.95703,21.9375 -21.95703,37.93359 1.90235,24.86719 16.88281,42.84375 47.875,54.80469 z m -19.97265,-83.86719 c 14.02734,-8 34,-12.98828 50.96484,-12.98828 h 1.98047 c 30.99219,1.03125 45.97265,3.96094 63.96484,27.95703 8.00391,11.00781 8.00391,24.94531 6.97266,31.91406 -1.98047,11.95703 -6.97266,19.95703 -11.96875,23.9961 -12.9961,8.94922 -27.97656,14.01562 -43.98828,14.01562 -13,0 -27.98047,-3.00781 -44.94141,-8.94922 -25.99609,-9.97656 -38.99609,-24.94531 -39.94922,-44.90234 0,-14.01563 5.94531,-25.02344 16.96485,-31.04297 z m 0,0"
     id="path8" />
  <path
     style="fill:#000000;fill-opacity:1;fill-rule:nonzero;stroke:none"
     d="m 474.45329,535.83594 c 8.00391,3.96093 17.99219,1.02734 22.98438,-6.01953 1.03125,-1.03125 1.98047,-3.00782 3.01172,-4.98829 1.03125,1.98047 1.98047,3.95704 3.01172,4.98829 3.96484,4.98828 8.95703,8 14.98047,8 3.01171,0 4.99218,-1.03125 8.0039,-1.98047 19.97656,-8.94922 16.96485,-36.98438 16.96485,-37.9336 -16.96485,-78.8789 -24.01954,-84.89843 -31.94532,-84.89843 -1.98047,0 -3.96093,1.03125 -4.99218,1.98046 -1.03125,1.03125 -3.01172,1.98047 -6.02344,11.96094 -3.01172,-9.98047 -4.99219,-11.96094 -6.02344,-11.96094 -1.03125,-1.02734 -3.01172,-1.98046 -4.99609,-1.98046 -8.00391,0 -14.97657,6.01953 -31.94141,85.84765 -0.0781,1.10938 -3.08984,28.03516 16.96484,36.98438 z m -7.05468,-35.875 c 11.96875,-54.88282 17.99218,-70.87891 21.0039,-75.86719 1.98047,6.01562 4.99219,21.9375 6.02344,35.95312 0,3.00782 3.01172,4.98829 4.99219,4.98829 3.01172,0 4.99219,-1.98047 4.99219,-4.98829 1.03125,-14.01562 3.96484,-29.9375 6.02734,-35.95312 3.01172,4.98828 8.95312,20.98437 21.00391,74.91797 0,0 1.98046,20.98437 -11.01954,26.92578 -3.96093,1.97656 -8.0039,0 -9.98437,-3.01172 -1.98438,-3.00781 -6.02734,-9.97656 -6.02734,-21.9375 0,-3.00781 -1.98047,-4.98828 -4.99219,-4.98828 -3.01172,0 -4.99219,1.98047 -4.99219,4.98828 -1.03125,11.96094 -3.96484,19.00781 -6.02344,21.9375 -2.0625,2.92969 -6.97656,3.96094 -11.01953,3.01172 -11.96875,-5.07031 -9.98437,-25.97656 -9.98437,-25.97656 z m 0,0"
     id="path10" />
  <path
     style="fill:#000000;fill-opacity:1;fill-rule:nonzero;stroke:none"
     d="m 329.48454,441.99219 c 14.98047,9.97656 30.98829,14.96484 48.98047,14.96484 14.98047,0 30.99219,-3.00781 47.95313,-9.97656 29.96094,-11.96094 45.97265,-29.9375 47.0039,-54.88281 0,-15.9961 -8.00781,-29.9336 -21.95703,-37.9336 -16.01172,-8.94922 -38.99609,-14.96875 -57.9375,-14.01562 -29.96093,1.02734 -49.9375,3.00781 -71.96875,31.91406 -8.00781,11.00781 -11.01953,24.94531 -8.95703,39.91406 1.90235,12.03516 8.875,24.07422 16.88281,30.01563 z m 0,-63.91016 c 17.99219,-23.99609 32.97266,-26.92578 63.96094,-27.95703 h 1.98438 c 16.00781,0 36.93359,4.98828 50.96484,12.98828 11.01563,6.01953 16.96094,16.94922 16.96094,28.98438 -1.03125,19.95703 -14.03125,34.92578 -39.94922,44.90234 -16.00781,6.01953 -30.98828,8.94922 -44.94141,8.94922 -16.00781,0 -29.96093,-3.95703 -43.98828,-13.9375 -4.99219,-3.00781 -9.98828,-11.95703 -11.96875,-23.9961 -1.03125,-5.9375 -1.03125,-18.92578 6.97656,-29.93359 z m 0,0"
     id="path12" />
  <path
     style="fill:#000000;fill-opacity:1;fill-rule:nonzero;stroke:none"
     d="m 865.12908,770.48828 c -3.01172,0 -6.02344,0 -8.00391,0 -16.96484,0 -24.01953,6.01563 -30.99219,11.00781 -6.97656,4.98828 -14.03125,9.97657 -31.9414,9.97657 -26,0 -71.96875,-11.95704 -138.94532,-34.92579 l -84.96875,-35.95312 83.9375,-35.95313 c 66.97657,-23.99609 112.94532,-35.95312 138.94532,-35.95312 17.99218,0 24.96484,4.98828 31.9414,9.97656 6.97656,4.98828 14.98047,11.00781 30.99219,11.00781 3.01172,0 4.99219,0 8.00391,0 22.98437,-1.98046 37.96484,-9.97656 44.9414,-22.96484 11.01563,-19.95703 1.03125,-44.90234 -3.96484,-54.88281 -3.96094,-7.9961 -11.01563,-11.95703 -16.96094,-16.94531 -9.98437,-6.01954 -19.02344,-12.98829 -21.00391,-32.94532 0,-3.01172 -1.03125,-6.01953 -1.03125,-8.94922 -1.98046,-23.99609 -3.01171,-42.92187 -38.99609,-42.92187 h -1.02734 c -22.98828,0 -42.96094,16.94531 -59.92188,48.94141 -3.01172,4.98828 -3.96484,9.97656 -6.02344,14.96484 -3.01171,9.98047 -6.02734,16.94922 -14.03125,21.9375 -24.96484,14.01953 -62.93359,30.96484 -111.91406,50.92187 l -141.8789,59.8711 -128.87891,-54.88281 c -71.96875,-29.9336 -105.89063,-47.91016 -122.93359,-57.89063 -8.00391,-4.98828 -14.02735,-12.98437 -16.96094,-22.96484 -6.02344,-21.9375 -21.00391,-58.92188 -54.92969,-61.92969 -3.01172,0 -4.99219,0 -6.97266,0 -14.03125,0 -24.96875,3.96094 -31.9414,11.95703 -11.96875,12.98828 -11.96875,32.94531 -9.98828,50.92188 1.98046,19.00781 -8.95704,31.91796 -19.02344,43.95312 -3.960941,4.98828 -8.003909,9.98047 -9.988284,14.96875 -3.960938,8.94922 -11.015625,26.92578 -3.011719,39.91406 6.023438,9.97657 17.992193,14.96875 34.957033,14.96875 21.00391,1.02735 30.98828,-3.96093 39.94531,-8.94922 8.00781,-3.96093 16.01172,-8 30.99219,-8 27.98047,0 75.93359,12.98829 150.91406,38.96485 l 70.9375,29.93359 -70.9375,29.9375 c -71.96875,29.9336 -120.95312,41.97266 -148.93359,41.97266 -16.01172,0 -22.98438,-3.96094 -30.99219,-8 -8.95312,-4.98828 -19.01953,-9.98047 -39.94531,-8.94922 -16.96094,1.03125 -29.011722,6.01953 -34.953128,14.96875 -8.007813,12.98828 -1.984375,30.96484 3.011719,39.91406 1.980468,4.98828 6.023437,9.97656 9.984379,14.96485 8.95703,11.96093 19.97656,24.94921 19.02343,43.95312 -1.03125,17.97656 -1.03125,37.93359 9.98829,50.92188 6.97265,8 17.99218,11.96093 31.9414,11.96093 1.98047,0 4.99219,0 6.97656,0 34.00001,-3.01172 48.98047,-39.91406 54.92579,-61.92968 3.01172,-9.98047 8.95703,-17.98047 16.96093,-22.96875 16.01172,-9.97657 50.96485,-27.95313 122.9336,-57.89063 l 128.8789,-54.87891 141.87891,59.86719 c 48.98047,20.98828 86.94922,37.9336 111.91406,50.92188 8.00782,3.96093 11.01953,11.96093 14.03125,21.9375 1.98047,4.98828 3.01172,9.98047 6.02344,14.96875 16.96094,31.91406 36.93359,47.91015 59.92188,48.9414 h 1.03125 c 34.95312,0 37.01171,-19.00781 38.99609,-42.92187 0,-3.01172 0,-6.01953 1.02734,-8.94922 1.98438,-19.95703 11.01953,-25.97656 21.00782,-32.94531 6.02343,-3.96094 12.99609,-8.94922 16.96093,-16.94922 4.99219,-9.97656 14.98047,-34.92188 3.96094,-54.87891 -7.92578,-11.16797 -23.85547,-19.08594 -45.89062,-21.14453 z M 640.26579,637.75781 c 49.9336,-20.98828 87.98047,-37.93359 112.94532,-51.95312 11.96875,-6.01563 14.98047,-16.94532 19.02343,-27.95313 1.98047,-4.98828 3.01172,-8.94922 4.99219,-14.01953 14.98047,-27.95312 31.94531,-42.92187 50.96485,-42.92187 h 1.03125 c 26,0 26,8.94921 27.98046,32.94531 0,3.00781 0,6.01953 1.03125,8.94922 1.98047,24.94531 14.98047,33.97265 25.9961,40.9414 6.02344,3.96094 11.01562,6.96875 13,11.96094 3.01172,6.96875 12.99609,28.98438 3.96094,44.90234 -6.02344,9.97657 -17.99219,15.9961 -36.9336,17.97657 -3.01172,0 -4.99609,0 -6.97656,0 -13,0 -19.02344,-3.96094 -24.96484,-8.94922 -8.00782,-6.01953 -16.96485,-11.95703 -37.96875,-11.95703 -27.97657,0 -72.91797,11.95703 -142.90625,35.95312 l -93.92579,39.91406 -48.98046,-20.98828 z M 361.50408,797.49219 c -71.96875,29.93359 -106.92188,47.91406 -123.88282,57.89062 -11.01953,6.01953 -17.99218,15.9961 -21.95703,28.98438 -4.99218,19.00781 -17.99218,51.95312 -45.97266,53.93359 -14.98046,1.02734 -24.01562,-1.03125 -30.98828,-8 -8.95703,-9.98047 -8.95703,-26.92578 -8.00781,-42.92187 1.98438,-22.96875 -11.01562,-38.96485 -21.00391,-50.92188 -3.96093,-4.99219 -6.97265,-8.94922 -8.95703,-12.98828 -3.011717,-6.01953 -8.953123,-20.98828 -3.011717,-29.9375 3.964847,-6.01953 12.999997,-9.97656 25.999997,-9.97656 1.02735,0 1.98047,0 3.01172,0 16.01172,0 22.98438,3.95703 31.94141,7.99609 8.95703,3.96094 17.99219,8.94922 35.98438,8.94922 29.00781,0 78.94531,-12.98828 154.875,-39.91406 l 80.92578,-33.97266 48.98437,20.98828 z m 534.61718,45.93359 c -3.01172,4.98828 -8.00781,8.94922 -13,11.95703 -11.01562,6.96875 -24.01562,14.96875 -25.99609,40.94141 0,3.01172 -1.03125,6.01953 -1.03125,8.94922 -1.98438,23.99609 -1.98438,32.94531 -27.98047,32.94531 h -1.03125 c -19.01953,0 -35.98437,-14.96484 -50.96484,-42.92188 -1.98047,-3.96093 -3.96094,-8.94921 -4.99219,-14.01953 -3.01172,-9.97656 -6.97656,-20.98437 -19.02344,-27.95312 -24.96484,-13.9375 -62.93359,-30.96485 -112.94531,-51.95313 L 501.24236,743.48047 433.31658,714.49609 350.48845,679.65234 c -76.96484,-26.92578 -125.94531,-39.91406 -154.8789,-39.91406 -17.9922,0 -26.94532,4.98828 -35.98438,8.94922 -8.95313,3.95703 -16.96094,7.99609 -34.95313,7.99609 -14.02734,0 -21.95312,-3.95703 -25.996092,-9.97656 -6.023437,-9.98047 0,-23.99609 3.011722,-29.9375 1.98047,-3.95703 4.99218,-7.99609 8.95703,-12.98437 9.98437,-11.96094 22.98437,-27.95704 21.0039,-50.92188 -1.03125,-16 -1.03125,-32.94531 8.00391,-42.92578 6.02344,-6.96875 16.01172,-8.94922 30.99219,-7.99609 26.94922,1.98046 40.97656,34.92187 45.97266,53.92968 3.01172,11.95703 11.01562,21.9375 21.95312,28.98438 16.96094,9.98047 51.9961,27.95703 123.88672,57.89062 l 130.9375,55.91016 71.96875,30.96484 85.91797,36.90625 c 68.95703,24.94532 114.92969,35.95313 142.91016,35.95313 21.0039,0 29.96093,-6.96875 37.96484,-11.95703 6.97656,-4.98828 11.96875,-8.94922 24.96875,-8.94922 1.98047,0 4.99219,0 6.97266,0 19.02343,1.98047 31.9414,8 36.9375,17.97656 9.11328,14.89063 -0.875,37.85547 -4.91407,43.875 z m 0,0"
     id="path14" />
</svg>
