<?xml version="1.0" encoding="UTF-8" standalone="no"?>
<!-- Created with Inkscape (http://www.inkscape.org/) -->

<svg
   width="1000"
   height="1000"
   version="1.1"
   id="svg14"
   xmlns="http://www.w3.org/2000/svg"
   xmlns:svg="http://www.w3.org/2000/svg"
   xmlns:rdf="http://www.w3.org/1999/02/22-rdf-syntax-ns#"
   xmlns:cc="http://creativecommons.org/ns#"
   xmlns:dc="http://purl.org/dc/elements/1.1/">
  <defs
     id="defs5498" />
  <metadata
     id="metadata5594">
    <rdf:RDF>
      <cc:Work
         rdf:about="">
        <dc:format>image/svg+xml</dc:format>
        <dc:type
           rdf:resource="http://purl.org/dc/dcmitype/StillImage" />
      </cc:Work>
    </rdf:RDF>
  </metadata>
  <path
     style="fill:#000000;fill-opacity:1;fill-rule:nonzero;stroke:none"
     d="m 528,444.42624 c 0,0 16.92187,95.61719 42.30469,156.59766 24.17578,58.07812 127.96093,161.99218 77.92187,251.08593 0,0 -21.75781,43.90235 -83.07812,83.53516 H 435.41406 c -61.32031,-39.71484 -83.07812,-83.53516 -83.07812,-83.53516 -50.03907,-89.09375 53.75,-192.84765 77.92187,-251.0039 25.38281,-60.98047 42.30469,-156.67969 42.30469,-156.67969 M 757.73437,94.578582 H 242.18359 l -17.5664,350.089848 h 550.76562 z m -257.77343,-30.125 c -6.52735,0 -11.84766,5.316406 -11.84766,11.839844 0,6.527343 5.32031,11.84375 11.84766,11.84375 6.52734,0 11.84375,-5.316407 11.84375,-11.84375 0.082,-6.523438 -5.23828,-11.839844 -11.84375,-11.839844 z m 0,0"
     id="path6" />
  <path
     style="fill:#000000;fill-opacity:1;fill-rule:nonzero;stroke:none"
     d="m 514.625,448.05124 c 5.32031,29.88672 12.16797,59.60938 20.06641,88.93359 6.20312,22.95704 13.13281,45.75391 22.23828,67.66407 7.01172,16.91406 16.76172,32.38281 26.51172,47.84765 11.60156,18.20703 23.36718,36.33203 34.0039,55.10157 11.44141,20.3789 19.41797,36.8125 25.46485,58.80468 1.36718,4.91016 2.49609,9.98828 3.38281,14.98047 0.24219,1.21094 0.40234,2.4961 0.5625,3.78516 -0.48047,-3.21875 0.082,0.96875 0.16406,1.28906 0.32031,2.90234 0.48047,5.80078 0.64453,8.78125 0.24219,4.99609 0.0781,9.98828 -0.40234,14.98438 -0.082,1.20703 -0.24219,2.49609 -0.40625,3.70312 0.40625,-3.21875 -0.16016,0.88672 -0.24219,1.28906 -0.48047,2.90235 -1.125,5.80078 -1.93359,8.6211 -0.64453,2.49609 -1.44922,4.91406 -2.25391,7.41015 -0.40234,1.20703 -0.88672,2.41797 -1.37109,3.70703 -1.53125,4.02735 1.1289,-2.41796 -0.64453,1.53125 -1.3711,3.0586 -2.98047,5.87891 -4.42969,8.85938 -1.53125,2.89844 -3.22656,5.63672 -4.9961,8.37891 -1.28906,2.01171 -2.66015,4.02734 -4.10937,6.03906 -0.80859,1.21094 -1.69531,2.33594 -2.5,3.46484 -0.40234,0.48438 -0.72656,0.96485 -1.12891,1.44922 -2.01172,2.66016 1.9336,-2.41406 -0.16015,0.24219 -4.75391,6.12109 -9.91016,11.92187 -15.23047,17.5625 -14.98828,15.78906 -31.66797,29.16015 -49.79688,40.92187 2.33594,-0.64453 4.67188,-1.28906 7.00782,-1.93359 -43.26954,0 -86.46094,0 -129.73047,0 2.33593,0.64453 4.67187,1.28906 7.00781,1.93359 -21.19141,-13.77734 -40.53125,-30.04687 -57.37109,-49.21875 -2.82032,-3.22265 -5.64063,-6.60547 -8.30079,-9.99218 2.41797,3.0625 -1.1289,-1.60938 -1.77343,-2.33594 -1.125,-1.52735 -2.17578,-3.0586 -3.22266,-4.58985 -2.41797,-3.46484 -4.67187,-7.08984 -6.76953,-10.79296 -0.23828,-0.48438 -0.48047,-0.96875 -0.72266,-1.3711 -1.21093,-2.41797 -2.57812,-4.7539 -3.70703,-7.25 -0.082,-0.16015 -1.77344,-4.1875 -0.72656,-1.53125 -0.64453,-1.60937 -1.28906,-3.22265 -1.85156,-4.91406 -1.69141,-4.83203 -2.98438,-9.74609 -3.94922,-14.82031 -0.24219,-1.20703 -0.40235,-2.4961 -0.64453,-3.70703 0.48437,3.22265 -0.082,-0.88282 -0.16016,-1.28907 -0.32422,-2.89843 -0.48437,-5.79687 -0.56641,-8.69922 -0.16015,-4.99218 0.082,-9.98828 0.56641,-14.98046 0.0781,-1.28907 0.24219,-2.5 0.40234,-3.78907 -0.40234,3.22266 0.16016,-0.96484 0.24219,-1.28906 0.48047,-2.89844 1.04688,-5.87891 1.69141,-8.77734 2.33594,-10.63282 5.88281,-20.94532 9.91015,-31.01563 0.082,-0.16015 1.77344,-4.1875 0.64454,-1.60937 0.48437,-1.21094 1.04687,-2.41797 1.61328,-3.70703 1.04687,-2.41407 2.2539,-4.91407 3.38281,-7.32813 2.5,-5.23828 5.15625,-10.47266 7.97656,-15.54687 5.23828,-9.82813 10.96094,-19.41407 16.84375,-28.92188 10.71485,-17.39844 22.16016,-34.31641 32.63281,-51.875 22.40235,-37.37891 33.60157,-80.71484 43.83594,-122.68359 5.07813,-20.94532 9.75,-41.96875 13.45703,-63.15625 1.28907,-7.41016 -1.93359,-14.90235 -9.66797,-17.07813 -6.76953,-1.85156 -15.79687,2.25781 -17.08593,9.66797 -5.31641,29.88672 -12.16407,59.60938 -20.0625,88.93359 -6.20313,22.95704 -13.13282,45.75391 -22.24219,67.66407 1.69531,-4.1875 -0.64453,1.36718 -1.125,2.33593 -0.80859,1.69141 -1.61328,3.38282 -2.5,5.07422 -2.01172,3.86719 -4.1875,7.73438 -6.36328,11.51953 -4.75781,8.21485 -9.91406,16.27344 -15.07031,24.32813 -23.85157,37.375 -49.07422,75.23828 -61,118.49609 -9.99219,36.08594 -6.84766,73.54297 12.8125,105.76563 8.70312,14.25781 19.58203,27.30859 31.18359,39.23047 8.86719,9.18359 18.45312,17.55859 28.52734,25.45312 6.125,4.75391 12.32813,9.34766 18.69532,13.77735 4.26953,2.89843 8.3789,6.12109 13.77734,6.12109 24.25391,0 48.51172,0 72.76562,0 14.17969,0 28.44532,0 42.625,0 3.94922,0 7.81641,0 11.76563,0 8.37891,0 14.90625,-5.55859 21.51562,-10.3125 20.30469,-14.41797 39.07813,-31.17188 55.03516,-50.34375 7.49219,-9.02344 14.82813,-18.60938 20.38672,-29 9.50781,-17.88281 15.06641,-36.57031 15.63281,-56.87109 0.64453,-22.15235 -4.91406,-44.30469 -12.89453,-64.76563 -16.03516,-41.08203 -41.66016,-76.84766 -64.46094,-114.30469 -3.94922,-6.52734 -7.8164,-13.13281 -11.28125,-19.89843 -0.72656,-1.3711 -1.37109,-2.82032 -2.09765,-4.1875 -0.48438,-0.96875 -2.89844,-6.44532 -1.12891,-2.33594 -2.09375,-4.9961 -4.02734,-10.15235 -5.87891,-15.22656 -7.65625,-20.78125 -13.69921,-42.12891 -19.26171,-63.47657 -6.60547,-25.69531 -12.48829,-51.71484 -17.16407,-77.89453 -1.28906,-7.49219 -10.3125,-11.60156 -17.08203,-9.66797 -7.65234,1.9336 -10.8789,9.42578 -9.50781,16.83594 z m 0,0"
     id="path8" />
  <path
     style="fill:#000000;fill-opacity:1;fill-rule:nonzero;stroke:none"
     d="m 757.73437,80.484832 c -28.12109,0 -56.24609,0 -84.28515,0 -61.16016,0 -122.24219,0 -183.40235,0 -59.38671,0 -118.77343,0 -178.16015,0 -23.20703,0 -46.4961,0 -69.70313,0 -7.89453,0 -13.53515,6.363281 -13.85937,13.855469 -1.85156,37.214839 -3.70703,74.429689 -5.64063,111.566409 -3.0625,61.70312 -6.20312,123.40625 -9.26562,185.11328 -0.88672,17.80078 -1.77344,35.60547 -2.66016,53.40625 -0.40234,7.57031 6.60938,13.85547 13.85938,13.85547 26.67187,0 53.34375,0 80.01562,0 59.71094,0 119.33985,0 179.05078,0 62.20703,0 124.41407,0 186.54297,0 34.2461,0 68.41016,0 102.65625,0 0.8086,0 1.69141,0 2.5,0 7.25,0 14.26172,-6.28516 13.85938,-13.85547 -1.85547,-37.21484 -3.70703,-74.43359 -5.64063,-111.56641 -3.0625,-61.70703 -6.20703,-123.41015 -9.26562,-185.11328 -0.88672,-17.80469 -1.77344,-35.60547 -2.66016,-53.406249 -0.40234,-7.574219 -6.04297,-13.855469 -13.94141,-13.855469 -7.25,0 -14.26171,6.28125 -13.85937,13.855469 1.85156,37.214839 3.70703,74.429689 5.64062,111.566409 3.0625,61.70312 6.20313,123.40625 9.26563,185.11328 0.88672,17.80078 1.77344,35.60547 2.66016,53.40625 4.59375,-4.58984 9.26562,-9.26172 13.85937,-13.85547 -26.67187,0 -53.34375,0 -80.01562,0 -59.71094,0 -119.33985,0 -179.04688,0 -62.21094,0 -124.41797,0 -186.54297,0 -34.24609,0 -68.41406,0 -102.66015,0 -0.80469,0 -1.69141,0 -2.4961,0 4.58985,4.59375 9.26563,9.26563 13.85938,13.85547 1.85156,-37.21484 3.70703,-74.43359 5.64062,-111.56641 3.0625,-61.70703 6.20313,-123.41015 9.26563,-185.11328 0.88672,-17.80469 1.77344,-35.60547 2.66015,-53.406249 -4.59375,4.589844 -9.26953,9.261719 -13.85937,13.851559 28.12109,0 56.24219,0 84.28516,0 61.16015,0 122.23828,0 183.39843,0 59.39063,0 118.77735,0 178.16406,0 23.20704,0 46.4961,0 69.69922,0 7.57813,0 13.86328,-6.28125 13.86328,-13.851559 0,-7.574219 -6.20703,-13.855469 -13.78125,-13.855469 z m 0,0"
     id="path10" />
  <path
     style="fill:#000000;fill-opacity:1;fill-rule:nonzero;stroke:none"
     d="m 499.96094,50.516082 c -14.58594,0.804687 -24.98047,11.199219 -25.78516,25.777344 -0.80859,14.5 12.40625,25.054684 25.78516,25.777344 14.5039,0.80469 25.05859,-12.406251 25.78515,-25.777344 0.80469,-14.5 -12.41015,-25.050781 -25.78515,-25.777344 -7.57422,-0.402344 -13.85938,6.605469 -13.85938,13.855469 0,7.894531 6.36328,13.453125 13.85938,13.855468 -1.53125,-0.320312 -1.53125,-0.320312 0.0781,0.08203 -0.80469,-0.160156 -1.44922,-0.484375 -1.93359,-1.128906 1.1289,1.128906 1.1289,1.128906 0.16015,0 -1.44921,-2.253907 -0.16015,1.691406 -0.23828,-1.046876 0.32032,-1.53125 0.32032,-1.53125 -0.082,0.08203 0.16016,-0.808594 0.48438,-1.453125 1.12891,-1.933594 -1.12891,1.125 -1.12891,1.125 0,0.160156 2.2539,-1.449218 -1.69141,-0.160156 1.04687,-0.242187 1.53125,0.324219 1.53125,0.324219 -0.082,-0.08203 0.8086,0.164062 1.45313,0.484374 1.9336,1.128906 -1.125,-1.128906 -1.125,-1.128906 -0.16016,0 1.44922,2.257812 0.16016,-1.691406 0.24219,1.046875 -0.32032,1.53125 -0.32032,1.53125 0.082,-0.07813 -0.16406,0.804687 -0.48438,1.449218 -1.12891,1.933594 1.12891,-1.128907 1.12891,-1.128907 0,-0.164063 -2.25781,1.449219 1.69141,0.164063 -1.04687,0.242187 7.57422,-0.402343 13.85937,-6.039062 13.85937,-13.855468 0.0781,-7.25 -6.28515,-14.257813 -13.85937,-13.855469 z m 0,0"
     id="path12" />
</svg>
