<?xml version="1.0" encoding="UTF-8" standalone="no"?>
<!-- Created with Inkscape (http://www.inkscape.org/) -->

<svg
   width="1000"
   height="1000"
   version="1.1"
   id="svg10"
   xmlns="http://www.w3.org/2000/svg"
   xmlns:svg="http://www.w3.org/2000/svg"
   xmlns:rdf="http://www.w3.org/1999/02/22-rdf-syntax-ns#"
   xmlns:cc="http://creativecommons.org/ns#"
   xmlns:dc="http://purl.org/dc/elements/1.1/">
  <defs
     id="defs5498" />
  <metadata
     id="metadata5594">
    <rdf:RDF>
      <cc:Work
         rdf:about="">
        <dc:format>image/svg+xml</dc:format>
        <dc:type
           rdf:resource="http://purl.org/dc/dcmitype/StillImage" />
      </cc:Work>
    </rdf:RDF>
  </metadata>
  <path
     style="fill:#000000;fill-opacity:1;fill-rule:nonzero;stroke:none"
     d="M 940.60156,123.49998 H 59.398438 c -5.03125,0 -9.226563,4.10156 -9.226563,9.22656 v 587.63672 c 0,5.03516 4.101563,9.22656 9.226563,9.22656 H 490.86719 V 858.1367 L 353.13281,858.043 c -5.03125,0 -9.22656,4.10156 -9.22656,9.23047 0,5.03125 4.10156,9.22656 9.22656,9.22656 l 293.73438,-0.0937 c 5.03125,0 9.22656,-4.10156 9.22656,-9.22656 0,-5.03516 -4.10156,-9.23047 -9.22656,-9.23047 H 509.13281 V 729.49998 h 431.46875 c 5.03125,0 9.22656,-4.10156 9.22656,-9.23047 l -0.0937,-587.63281 c 0,-5.03516 -4.10156,-9.13672 -9.13281,-9.13672 z M 931.375,711.13279 H 68.53125 V 141.86326 H 931.375 Z m 0,0"
     id="path6" />
  <path
     style="fill:#000000;fill-opacity:1;fill-rule:nonzero;stroke:none"
     d="m 389.84766,545.86326 c 1.39843,0 2.79687,-0.375 4.10156,-0.93359 L 614.25,434.74998 c 3.07422,-1.58594 5.03125,-4.75391 5.03125,-8.20313 0,-3.44921 -1.95703,-6.62109 -5.03125,-8.20312 L 393.94922,308.16014 c -2.88672,-1.39844 -6.24219,-1.30469 -8.94531,0.375 -2.70313,1.67578 -4.37891,4.66015 -4.37891,7.82812 v 220.36328 c 0,3.16797 1.67578,6.15235 4.37891,7.83203 1.39843,0.83594 3.16796,1.30469 4.84375,1.30469 z m 9.13281,-214.67578 190.57422,95.26562 -190.57422,95.35938 z m 0,0"
     id="path8" />
</svg>
