<?xml version="1.0" encoding="UTF-8" standalone="no"?>
<!-- Created with Inkscape (http://www.inkscape.org/) -->

<svg
   width="1000"
   height="1000"
   version="1.1"
   id="svg8"
   xmlns="http://www.w3.org/2000/svg"
   xmlns:svg="http://www.w3.org/2000/svg"
   xmlns:rdf="http://www.w3.org/1999/02/22-rdf-syntax-ns#"
   xmlns:cc="http://creativecommons.org/ns#"
   xmlns:dc="http://purl.org/dc/elements/1.1/">
  <defs
     id="defs5498" />
  <metadata
     id="metadata5594">
    <rdf:RDF>
      <cc:Work
         rdf:about="">
        <dc:format>image/svg+xml</dc:format>
        <dc:type
           rdf:resource="http://purl.org/dc/dcmitype/StillImage" />
      </cc:Work>
    </rdf:RDF>
  </metadata>
  <path
     style="fill:#000000;fill-opacity:1;fill-rule:nonzero;stroke:none"
     d="m 535.55078,625.5625 -103.79297,-102.66016 1.22656,-1.22656 C 504.08594,442.33203 554.75781,351.125 584.58594,254.60156 H 704.31641 V 172.80078 H 418.27344 V 91 h -81.72657 v 81.80078 H 50.5 v 81.39063 h 456.44531 c -27.3789,78.9375 -70.6914,153.78515 -129.53515,219.22265 -38.00391,-42.125 -69.46875,-88.34375 -94.39454,-137.01562 h -81.73046 c 29.83203,66.66797 70.69531,129.65625 121.77343,186.5039 l -207.99218,205.32032 58.02343,58.07812 204.32032,-204.5 L 504.49609,709 Z M 765.61328,418.19922 H 683.88672 L 500,909 h 81.72656 L 627.49609,786.30078 H 821.59766 L 867.77344,909 H 949.5 Z M 658.55078,704.5 724.75,527.40234 790.94922,704.5 Z m 0,0"
     id="path6" />
</svg>
