<?xml version="1.0" encoding="UTF-8" standalone="no"?>
<!-- Created with Inkscape (http://www.inkscape.org/) -->

<svg
   width="1000"
   height="1000"
   version="1.1"
   id="svg10"
   xmlns="http://www.w3.org/2000/svg"
   xmlns:svg="http://www.w3.org/2000/svg"
   xmlns:rdf="http://www.w3.org/1999/02/22-rdf-syntax-ns#"
   xmlns:cc="http://creativecommons.org/ns#"
   xmlns:dc="http://purl.org/dc/elements/1.1/">
  <defs
     id="defs5498" />
  <metadata
     id="metadata5594">
    <rdf:RDF>
      <cc:Work
         rdf:about="">
        <dc:format>image/svg+xml</dc:format>
        <dc:type
           rdf:resource="http://purl.org/dc/dcmitype/StillImage" />
      </cc:Work>
    </rdf:RDF>
  </metadata>
  <path
     style="fill:#000000;fill-opacity:1;fill-rule:nonzero;stroke:none"
     d="M 913.52715,923.78125 840.85918,778.44922 c -3.04296,-6.17969 -9.40625,-10.05469 -16.23046,-10.05469 h -54.5 V 657.55078 c 41.40625,-8.39062 72.66796,-45.09375 72.66796,-88.98828 0,-50.07422 -40.75781,-90.83203 -90.83203,-90.83203 -18.53515,0 -35.6875,5.625 -49.98437,15.12109 l -272.58985,-272.5 15.39844,-15.39844 c 35.41406,-35.41015 35.41406,-93.04687 0,-128.457026 C 427.63653,59.34375 404.85918,49.9375 380.51543,49.9375 c -24.2539,0 -47.03125,9.40625 -64.27343,26.558594 l -51.36719,51.363286 c -26.1875,26.1914 -60.86328,41.22265 -95.07422,41.22265 -22.41016,0 -43.25,-6.45703 -60.21875,-18.6289 -7.19141,-5.16407 -18.351564,-3.22657 -24.621095,3.04296 -0.183594,0.1836 -0.277344,0.46094 -0.460938,0.64454 L 366.867,436.32422 c 0.64453,-0.55469 1.5664,-0.82813 2.12109,-1.47656 6.26953,-6.26954 7.00781,-16.23047 1.84375,-23.42188 -31.62891,-43.98828 -21.85547,-110.75391 22.59375,-155.19922 l 10.23438,-10.23828 272.59375,272.59375 c -9.5,14.38672 -15.125,31.53906 -15.125,49.98047 0,43.89453 31.26171,80.59766 72.66796,88.98828 V 768.39453 H 388.62872 c -6.91407,0 -13.1836,3.875 -16.23047,10.05469 l -72.66407,145.33203 c -2.85937,5.625 -2.49218,12.35547 0.82813,17.70703 3.32031,5.34766 9.12891,8.57422 15.49219,8.57422 h 581.33593 c 6.26954,0 12.17188,-3.22656 15.49219,-8.66797 3.22656,-5.25781 3.50391,-11.98828 0.64453,-17.61328 z M 697.46465,568.5625 c 0,-30.0625 24.4375,-54.5 54.5,-54.5 30.0625,0 54.5,24.4375 54.5,54.5 0,30.0625 -24.4375,54.5 -54.5,54.5 -30.0625,0 -54.5,-24.4375 -54.5,-54.5 z m 0,0"
     id="path6" />
  <path
     style="fill:#000000;fill-opacity:1;fill-rule:nonzero;stroke:none"
     d="m 136.51153,384.77344 c 17.15234,17.15234 39.92968,26.55859 64.27344,26.55859 23.97656,0 46.57031,-9.3125 63.6289,-26.09375 L 136.05059,256.87109 c -34.95313,35.50391 -34.76563,92.58594 0.46094,127.90235 z m 0,0"
     id="path8" />
</svg>
