<?xml version="1.0" encoding="UTF-8" standalone="no"?>
<!-- Created with Inkscape (http://www.inkscape.org/) -->

<svg
   width="1000"
   height="1000"
   version="1.1"
   id="svg8"
   xmlns="http://www.w3.org/2000/svg"
   xmlns:svg="http://www.w3.org/2000/svg"
   xmlns:rdf="http://www.w3.org/1999/02/22-rdf-syntax-ns#"
   xmlns:cc="http://creativecommons.org/ns#"
   xmlns:dc="http://purl.org/dc/elements/1.1/">
  <defs
     id="defs5498" />
  <metadata
     id="metadata5594">
    <rdf:RDF>
      <cc:Work
         rdf:about="">
        <dc:format>image/svg+xml</dc:format>
        <dc:type
           rdf:resource="http://purl.org/dc/dcmitype/StillImage" />
      </cc:Work>
    </rdf:RDF>
  </metadata>
  <path
     style="fill:#000000;fill-opacity:1;fill-rule:nonzero;stroke:none"
     d="m 950,336.33203 c 0,45.00781 -36.81641,81.83594 -81.81641,81.83594 -7.36718,0 -14.32031,-0.82031 -20.86718,-2.86719 L 701.68359,560.55859 c 2.04297,6.54297 2.86328,13.91016 2.86328,21.27344 0,45.00781 -36.82031,81.83594 -81.82031,81.83594 -45,0 -81.8164,-36.82813 -81.8164,-81.83594 0,-7.36328 0.8164,-14.73047 2.86328,-21.27344 L 439.45312,456.21875 c -6.54296,2.04687 -13.90625,2.86328 -21.26953,2.86328 -7.36718,0 -14.73047,-0.81641 -21.27343,-2.86328 L 210.77344,642.80078 c 2.04297,6.54688 2.86328,13.5 2.86328,20.86719 0,45.00781 -36.82031,81.83203 -81.82031,81.83203 C 86.816406,745.5 50,708.67578 50,663.66797 c 0,-45.00781 36.816406,-81.83594 81.81641,-81.83594 7.36718,0 14.32031,0.82031 20.86718,2.86719 L 339.22656,398.52734 c -2.04297,-6.54687 -2.86328,-13.91406 -2.86328,-21.27734 0,-45.00781 36.82031,-81.83203 81.82031,-81.83203 45,0 81.81641,36.82422 81.81641,81.83203 0,7.36328 -0.81641,14.73047 -2.86328,21.27734 l 104.3164,104.33594 C 608,500.81641 615.36328,500 622.72656,500 c 7.36328,0 14.72656,0.81641 21.27344,2.86328 L 789.22656,357.19922 c -2.04297,-6.54688 -2.86328,-13.5 -2.86328,-20.86719 0,-45.00781 36.82031,-81.83203 81.82031,-81.83203 45,0 81.81641,36.82422 81.81641,81.83203 z m 0,0"
     id="path6" />
</svg>
