<?xml version="1.0" encoding="UTF-8" standalone="no"?>
<!-- Created with Inkscape (http://www.inkscape.org/) -->

<svg
   width="1000"
   height="1000"
   version="1.1"
   id="svg10"
   xmlns="http://www.w3.org/2000/svg"
   xmlns:svg="http://www.w3.org/2000/svg"
   xmlns:rdf="http://www.w3.org/1999/02/22-rdf-syntax-ns#"
   xmlns:cc="http://creativecommons.org/ns#"
   xmlns:dc="http://purl.org/dc/elements/1.1/">
  <defs
     id="defs5498" />
  <metadata
     id="metadata5594">
    <rdf:RDF>
      <cc:Work
         rdf:about="">
        <dc:format>image/svg+xml</dc:format>
        <dc:type
           rdf:resource="http://purl.org/dc/dcmitype/StillImage" />
      </cc:Work>
    </rdf:RDF>
  </metadata>
  <path
     style="fill:#000000;fill-opacity:1;fill-rule:nonzero;stroke:none"
     d="m 730.97919,813.875 c -3.38281,-5.02344 -8.95703,-8.03906 -14.98828,-8.03906 H 587.98309 c 23.39063,-22.82813 38.00782,-54.69922 38.00782,-89.94922 0,-32.87891 -13.06641,-64.47656 -36,-87.94531 V 517.99219 h -180 v 109.94922 c -22.9336,23.46875 -36,55.0664 -36,87.94531 0,35.25 14.62109,67.12109 38.01172,89.94922 H 283.99091 c -6.03125,0 -11.60547,3.01562 -14.98438,8.03906 l -72,107.94141 c -3.65625,5.48046 -4.02343,12.60156 -0.91406,18.44921 3.10547,5.84375 9.22656,9.4961 15.89844,9.4961 h 576.0039 c 6.66797,0 12.69922,-3.65235 15.89844,-9.4961 3.10547,-5.84765 2.73828,-12.96875 -0.91406,-18.44921 z m 0,0"
     id="path6" />
  <path
     style="fill:#000000;fill-opacity:1;fill-rule:nonzero;stroke:none"
     d="M 912.35028,456.53125 732.34638,60.742188 C 729.4245,54.347656 723.02997,50.238281 715.99091,50.238281 h -432 c -7.03516,0 -13.4336,4.109375 -16.35547,10.503907 L 87.635442,456.53125 c -2.558594,5.57031 -2.101563,12.05469 1.277343,17.16797 3.382813,5.11328 9.046876,8.21875 15.167965,8.21875 h 666.00391 v 89.95312 c 0,9.95313 8.03906,17.98828 18,17.98828 9.96093,0 18,-8.03515 18,-17.98828 v -89.95312 h 90 c 6.12109,0 11.78906,-3.10547 15.16797,-8.21875 3.19921,-5.11328 3.65625,-11.59766 1.09765,-17.16797 z m 0,0"
     id="path8" />
</svg>
