<?xml version="1.0" encoding="UTF-8" standalone="no"?>
<!-- Created with Inkscape (http://www.inkscape.org/) -->

<svg
   width="1000"
   height="1000"
   version="1.1"
   id="svg8"
   xmlns="http://www.w3.org/2000/svg"
   xmlns:svg="http://www.w3.org/2000/svg"
   xmlns:rdf="http://www.w3.org/1999/02/22-rdf-syntax-ns#"
   xmlns:cc="http://creativecommons.org/ns#"
   xmlns:dc="http://purl.org/dc/elements/1.1/">
  <defs
     id="defs5498" />
  <metadata
     id="metadata5594">
    <rdf:RDF>
      <cc:Work
         rdf:about="">
        <dc:format>image/svg+xml</dc:format>
        <dc:type
           rdf:resource="http://purl.org/dc/dcmitype/StillImage" />
      </cc:Work>
    </rdf:RDF>
  </metadata>
  <path
     style="fill:#000000;fill-opacity:1;fill-rule:nonzero;stroke:none"
     d="M 360.68359,403.14453 V 242.85547 c 0,-59.14063 48.01172,-107.14063 107.16797,-107.14063 59.15625,0 107.16406,48 107.16406,107.14063 V 403.14453 C 626.88672,368.42969 660.75,309.71484 660.75,242.85547 660.75,136.14453 574.58984,50 467.85156,50 361.11328,50 274.94922,136.14453 274.94922,242.85547 c 0,66.85937 33.86719,125.57422 85.73437,160.28906 z M 782.49219,601.57031 587.875,504.71484 c -7.28516,-3 -15,-4.71484 -23.14453,-4.71484 H 532.14844 V 242.85547 c 0,-35.57031 -28.71875,-64.28516 -64.29688,-64.28516 -35.58203,0 -64.30078,28.71485 -64.30078,64.28516 V 703.14453 L 256.51562,672.28516 C 253.08984,671.85547 250.08594,671 246.23047,671 c -13.28906,0 -25.29297,5.57031 -33.86719,14.14453 L 178.5,719.42969 390.26172,931.14453 C 401.83594,942.71484 418.125,950 435.69922,950 h 291.0664 c 32.14844,0 57.01172,-23.57031 61.72657,-54.85547 l 32.15234,-225.85937 c 0.42578,-3 0.85547,-6 0.85547,-8.57032 0,-26.57031 -16.28906,-49.71484 -39.00781,-59.14453 z m 0,0"
     id="path6" />
</svg>
