<?xml version="1.0" encoding="UTF-8" standalone="no"?>
<!-- Created with Inkscape (http://www.inkscape.org/) -->

<svg
   width="1000"
   height="1000"
   version="1.1"
   id="svg8"
   xmlns="http://www.w3.org/2000/svg"
   xmlns:svg="http://www.w3.org/2000/svg"
   xmlns:rdf="http://www.w3.org/1999/02/22-rdf-syntax-ns#"
   xmlns:cc="http://creativecommons.org/ns#"
   xmlns:dc="http://purl.org/dc/elements/1.1/">
  <defs
     id="defs5498" />
  <metadata
     id="metadata5594">
    <rdf:RDF>
      <cc:Work
         rdf:about="">
        <dc:format>image/svg+xml</dc:format>
        <dc:type
           rdf:resource="http://purl.org/dc/dcmitype/StillImage" />
      </cc:Work>
    </rdf:RDF>
  </metadata>
  <path
     style="fill:#000000;fill-opacity:1;fill-rule:nonzero;stroke:none"
     d="M 50.5,909 H 213.95312 V 418.19922 H 50.5 Z m 899,-449.89844 c 0,-44.99219 -36.77734,-81.80078 -81.72656,-81.80078 H 609.92187 l 38.82032,-186.91406 1.22656,-13.08594 c 0,-16.76953 -6.94531,-32.3125 -17.98047,-43.35547 L 588.67578,91 319.79297,360.53125 c -15.1211,14.72266 -24.10938,35.17187 -24.10938,57.66797 v 409 c 0,44.99219 36.77735,81.80078 81.72657,81.80078 h 367.77343 c 33.91407,0 62.92969,-20.44922 75.1875,-49.89844 L 943.77734,570.75781 C 947.45703,561.35156 949.5,551.53516 949.5,540.89844 v -78.11719 l -0.41016,-0.41016 z m 0,0"
     id="path6" />
</svg>
