<?xml version="1.0" encoding="UTF-8" standalone="no"?>
<!-- Created with Inkscape (http://www.inkscape.org/) -->

<svg
   width="1000"
   height="1000"
   version="1.1"
   id="svg14"
   xmlns="http://www.w3.org/2000/svg"
   xmlns:svg="http://www.w3.org/2000/svg"
   xmlns:rdf="http://www.w3.org/1999/02/22-rdf-syntax-ns#"
   xmlns:cc="http://creativecommons.org/ns#"
   xmlns:dc="http://purl.org/dc/elements/1.1/">
  <defs
     id="defs5498" />
  <metadata
     id="metadata5594">
    <rdf:RDF>
      <cc:Work
         rdf:about="">
        <dc:format>image/svg+xml</dc:format>
        <dc:type
           rdf:resource="http://purl.org/dc/dcmitype/StillImage" />
      </cc:Work>
    </rdf:RDF>
  </metadata>
  <path
     style="fill:#000000;fill-opacity:1;fill-rule:nonzero;stroke:none"
     d="M 455.03125,517.98828 V 140 c 0,-49.507811 -40.51172,-90.01953 -90.01953,-90.01953 -49.50781,0 -90.02344,40.511719 -90.02344,90.01953 V 517.98828 C 193.96094,553.96094 140,634.98828 140,725.01172 c 0,125.99609 99.01562,225.00781 225.01172,225.00781 125.99609,0 225.00781,-99.01172 225.00781,-225.00781 0,-90.02344 -53.96094,-170.96485 -134.98828,-207.02344 z m 0,0"
     id="path6" />
  <path
     style="fill:#000000;fill-opacity:1;fill-rule:nonzero;stroke:none"
     d="M 680.04297,95.031251 H 860 V 185.05469 H 680.04297 Z m 0,0"
     id="path8" />
  <path
     style="fill:#000000;fill-opacity:1;fill-rule:nonzero;stroke:none"
     d="M 680.04297,275.07422 H 860 v 90.02344 H 680.04297 Z m 0,0"
     id="path10" />
  <path
     style="fill:#000000;fill-opacity:1;fill-rule:nonzero;stroke:none"
     d="M 680.04297,455.03125 H 860 v 90.02344 H 680.04297 Z m 0,0"
     id="path12" />
</svg>
