<?xml version="1.0" encoding="UTF-8" standalone="no"?>
<!-- Created with Inkscape (http://www.inkscape.org/) -->

<svg
   width="1000"
   height="1000"
   version="1.1"
   id="svg16"
   xmlns="http://www.w3.org/2000/svg"
   xmlns:svg="http://www.w3.org/2000/svg"
   xmlns:rdf="http://www.w3.org/1999/02/22-rdf-syntax-ns#"
   xmlns:cc="http://creativecommons.org/ns#"
   xmlns:dc="http://purl.org/dc/elements/1.1/">
  <defs
     id="defs5498" />
  <metadata
     id="metadata5594">
    <rdf:RDF>
      <cc:Work
         rdf:about="">
        <dc:format>image/svg+xml</dc:format>
        <dc:type
           rdf:resource="http://purl.org/dc/dcmitype/StillImage" />
      </cc:Work>
    </rdf:RDF>
  </metadata>
  <path
     style="fill:#000000;fill-opacity:1;fill-rule:nonzero;stroke:none"
     d="m 638.39844,223.0821 h -69.19922 v 553.91797 h 69.19922 c 100.89843,0 103.79687,-248.57813 103.79687,-276.96094 0,-28.29297 -2.89844,-276.95703 -103.79687,-276.95703 z m 0,0"
     id="path6" />
  <path
     style="fill:#000000;fill-opacity:1;fill-rule:nonzero;stroke:none"
     d="m 396.20312,326.94148 v 34.61718 H 292.40234 c 19.0586,0 34.60157,-15.46484 34.60157,-34.61718 0,-19.07032 -15.54297,-34.6211 -34.60157,-34.6211 h -69.19531 c -19.05859,0 -34.60156,15.55078 -34.60156,34.6211 0,19.0664 15.45703,34.61718 34.60156,34.61718 h -69.19922 c -57.25781,0 -103.800779,46.57032 -103.800779,103.86328 v 69.23829 c 0,57.28906 46.542969,103.85937 103.800779,103.85937 h 242.19531 v 34.62109 c 0,57.28907 46.54297,103.85938 103.79688,103.85938 V 223.0821 c -57.25391,0 -103.79688,46.56641 -103.79688,103.85938 z m 0,0"
     id="path8" />
  <path
     style="fill:#000000;fill-opacity:1;fill-rule:nonzero;stroke:none"
     d="m 915.19141,465.42194 h -69.19922 c -19.05469,0 -34.59766,15.55079 -34.59766,34.61719 0,19.06641 15.54297,34.6211 34.59766,34.6211 h 69.19922 c 19.05859,0 34.60156,-15.46485 34.60156,-34.6211 0,-19.0664 -15.54297,-34.61719 -34.60156,-34.61719 z m 0,0"
     id="path10" />
  <path
     style="fill:#000000;fill-opacity:1;fill-rule:nonzero;stroke:none"
     d="m 811.39453,326.94148 c 5.17969,0 10.44922,-1.14453 15.45703,-3.69141 l 69.19531,-34.62109 c 17.125,-8.52344 24.0625,-29.34766 15.45704,-46.48047 -8.51954,-17.04688 -29.24219,-24.07813 -46.45313,-15.46485 l -69.19922,34.61719 c -17.125,8.52344 -24.0625,29.35156 -15.45703,46.48438 6.14844,12.21484 18.35547,19.15625 31,19.15625 z m 0,0"
     id="path12" />
  <path
     style="fill:#000000;fill-opacity:1;fill-rule:nonzero;stroke:none"
     d="M 896.04687,711.44929 826.85156,676.8321 c -17.125,-8.52344 -37.85156,-1.58203 -46.45703,15.46484 -8.51562,17.13282 -1.66797,37.8711 15.45703,46.48047 l 69.19922,34.6211 c 5.00391,2.46093 10.27344,3.60156 15.45313,3.60156 12.73437,0 24.9414,-7.03125 31,-19.15625 8.60546,-17.04688 1.66796,-37.87109 -15.45704,-46.39453 z m 0,0"
     id="path14" />
</svg>
