<?xml version="1.0" encoding="UTF-8" standalone="no"?>
<!-- Created with Inkscape (http://www.inkscape.org/) -->

<svg
   width="1000"
   height="1000"
   version="1.1"
   id="svg8"
   xmlns="http://www.w3.org/2000/svg"
   xmlns:svg="http://www.w3.org/2000/svg"
   xmlns:rdf="http://www.w3.org/1999/02/22-rdf-syntax-ns#"
   xmlns:cc="http://creativecommons.org/ns#"
   xmlns:dc="http://purl.org/dc/elements/1.1/">
  <defs
     id="defs5498" />
  <metadata
     id="metadata5594">
    <rdf:RDF>
      <cc:Work
         rdf:about="">
        <dc:format>image/svg+xml</dc:format>
        <dc:type
           rdf:resource="http://purl.org/dc/dcmitype/StillImage" />
      </cc:Work>
    </rdf:RDF>
  </metadata>
  <path
     style="fill:#000000;fill-opacity:1;fill-rule:nonzero;stroke:none"
     d="m 818.14844,181.85156 -63.44922,63.44922 C 819.5,310.55078 860,400.55078 860,500 860,698.89844 698.89844,860 500,860 301.10156,860 140,698.89844 140,500 140,316.39844 277.25,165.19922 455,143.14844 v 90.90234 C 327.19922,255.64844 230,366.35156 230,500 c 0,148.94922 121.05078,270 270,270 148.94922,0 270,-121.05078 270,-270 0,-74.69922 -30.14844,-142.19922 -79.19922,-190.80078 l -63.44922,63.44922 C 659.75,405.5 680,450.5 680,500 c 0,99.44922 -80.55078,180 -180,180 -99.44922,0 -180,-80.55078 -180,-180 0,-83.69922 57.60156,-153.44922 135,-173.69922 v 96.30078 c -27,15.75 -45,44.09766 -45,77.39844 0,49.5 40.5,90 90,90 49.5,0 90,-40.5 90,-90 0,-33.30078 -18,-62.10156 -45,-77.39844 V 50 H 500 C 251.60156,50 50,251.60156 50,500 50,748.39844 251.60156,950 500,950 748.39844,950 950,748.39844 950,500 950,375.80078 899.60156,263.30078 818.14844,181.85156 Z m 0,0"
     id="path6" />
</svg>
