<?xml version="1.0" encoding="UTF-8" standalone="no"?>
<!-- Created with Inkscape (http://www.inkscape.org/) -->

<svg
   width="1000"
   height="1000"
   version="1.1"
   id="svg8"
   xmlns="http://www.w3.org/2000/svg"
   xmlns:svg="http://www.w3.org/2000/svg"
   xmlns:rdf="http://www.w3.org/1999/02/22-rdf-syntax-ns#"
   xmlns:cc="http://creativecommons.org/ns#"
   xmlns:dc="http://purl.org/dc/elements/1.1/">
  <defs
     id="defs5498" />
  <metadata
     id="metadata5594">
    <rdf:RDF>
      <cc:Work
         rdf:about="">
        <dc:format>image/svg+xml</dc:format>
        <dc:type
           rdf:resource="http://purl.org/dc/dcmitype/StillImage" />
      </cc:Work>
    </rdf:RDF>
  </metadata>
  <path
     style="fill:#000000;fill-opacity:1;fill-rule:nonzero;stroke:none"
     d="M 725,500 C 725,411.5 674,335.5 600,298.5 V 409 L 722.5,531.5 C 724,521.5 725,511 725,500 Z m 125,0 c 0,47 -10,91 -27,132 l 75.5,75.5 C 931.5,645.5 950,575 950,500 950,286 800.5,107 600,61.5 v 103 c 144.5,43 250,177 250,335.5 z M 113.5,50 50,113.5 286.5,350 H 50 V 650 H 250 L 500,900 V 563.5 L 712.5,776 c -33.5,26 -71,46.5 -112.5,59 v 103 c 69,-15.5 131.5,-47.5 184.5,-90.5 L 886.5,950 950,886.5 Z M 500,100 395.5,204.5 500,309 Z m 0,0"
     id="path6" />
</svg>
