<?xml version="1.0" encoding="UTF-8" standalone="no"?>
<!-- Created with Inkscape (http://www.inkscape.org/) -->

<svg
   width="1000"
   height="1000"
   version="1.1"
   id="svg8"
   xmlns="http://www.w3.org/2000/svg"
   xmlns:svg="http://www.w3.org/2000/svg"
   xmlns:rdf="http://www.w3.org/1999/02/22-rdf-syntax-ns#"
   xmlns:cc="http://creativecommons.org/ns#"
   xmlns:dc="http://purl.org/dc/elements/1.1/">
  <defs
     id="defs5498" />
  <metadata
     id="metadata5594">
    <rdf:RDF>
      <cc:Work
         rdf:about="">
        <dc:format>image/svg+xml</dc:format>
        <dc:type
           rdf:resource="http://purl.org/dc/dcmitype/StillImage" />
      </cc:Work>
    </rdf:RDF>
  </metadata>
  <path
     style="fill:#000000;fill-opacity:0.98153234;fill-rule:nonzero;stroke:none;stroke-width:1.00156"
     d="m 500.20344,295.20734 c 112.96166,0 204.64007,91.74883 204.64007,204.79266 0,26.62363 -5.32081,51.60798 -14.73396,74.95696 L 809.61659,694.55399 C 871.41629,642.94601 920.12131,576.18545 950,500 879.19406,320.1917 704.43271,192.81298 499.79655,192.81298 c -57.30046,0 -112.14398,10.23866 -162.89123,28.6698 l 88.40375,88.47026 c 23.32551,-9.42097 48.29421,-14.7457 74.89437,-14.7457 z M 90.92723,183.39201 l 93.31768,93.3842 18.82629,18.84194 C 135.1291,348.45461 81.924884,418.90453 50,500 c 70.80594,179.81221 245.56729,307.19093 450.20344,307.19093 63.43897,0 124.01018,-12.28482 179.26448,-34.40532 l 17.19092,17.20266 119.91785,119.60094 51.97574,-52.0188 -725.64556,-726.19718 z m 226.3302,226.50236 63.43897,63.48591 c -2.04617,8.59937 -3.27465,17.60955 -3.27465,26.61972 0,67.99296 54.8435,122.8795 122.78169,122.8795 9.00626,0 18.00861,-1.22848 26.60407,-3.27856 l 63.43897,63.48592 c -27.42175,13.51722 -57.70736,21.7097 -90.04304,21.7097 -112.95775,0 -204.63615,-91.74883 -204.63615,-204.79656 0,-32.35525 8.18466,-62.66433 21.69014,-90.10563 z m 176.40063,-31.94836 128.92019,129.018 0.81768,-6.55321 c 0,-67.98905 -54.84351,-122.8756 -122.78169,-122.8756 z m 0,0"
     id="path6-3" />
</svg>
