<?xml version="1.0" encoding="UTF-8" standalone="no"?>
<!-- Created with Inkscape (http://www.inkscape.org/) -->

<svg
   width="1000"
   height="1000"
   version="1.1"
   id="svg8"
   xmlns="http://www.w3.org/2000/svg"
   xmlns:svg="http://www.w3.org/2000/svg"
   xmlns:rdf="http://www.w3.org/1999/02/22-rdf-syntax-ns#"
   xmlns:cc="http://creativecommons.org/ns#"
   xmlns:dc="http://purl.org/dc/elements/1.1/">
  <defs
     id="defs5498" />
  <metadata
     id="metadata5594">
    <rdf:RDF>
      <cc:Work
         rdf:about="">
        <dc:format>image/svg+xml</dc:format>
        <dc:type
           rdf:resource="http://purl.org/dc/dcmitype/StillImage" />
      </cc:Work>
    </rdf:RDF>
  </metadata>
  <path
     style="fill:#000000;fill-opacity:1;fill-rule:nonzero;stroke:none"
     d="M 902.63281,547.39062 H 97.367188 C 71.316406,547.39062 50,568.71484 50,594.77734 V 879.10937 C 50,905.17578 71.316406,926.5 97.367188,926.5 H 902.63281 C 928.68359,926.5 950,905.17578 950,879.10937 V 594.77734 c 0,-26.0625 -21.31641,-47.38672 -47.36719,-47.38672 z m 0,-473.89062 H 97.367188 C 71.316406,73.5 50,94.824219 50,120.89063 v 284.33203 c 0,26.0625 21.316406,47.38671 47.367188,47.38671 H 902.63281 C 928.68359,452.60937 950,431.28516 950,405.22266 V 120.89063 C 950,94.824219 928.68359,73.5 902.63281,73.5 Z m 0,0"
     id="path6" />
</svg>
