<?xml version="1.0" encoding="UTF-8" standalone="no"?>
<!-- Created with Inkscape (http://www.inkscape.org/) -->

<svg
   width="1000"
   height="1000"
   version="1.1"
   id="svg8"
   xmlns="http://www.w3.org/2000/svg"
   xmlns:svg="http://www.w3.org/2000/svg"
   xmlns:rdf="http://www.w3.org/1999/02/22-rdf-syntax-ns#"
   xmlns:cc="http://creativecommons.org/ns#"
   xmlns:dc="http://purl.org/dc/elements/1.1/">
  <defs
     id="defs5498" />
  <metadata
     id="metadata5594">
    <rdf:RDF>
      <cc:Work
         rdf:about="">
        <dc:format>image/svg+xml</dc:format>
        <dc:type
           rdf:resource="http://purl.org/dc/dcmitype/StillImage" />
      </cc:Work>
    </rdf:RDF>
  </metadata>
  <path
     style="fill:#000000;fill-opacity:1;fill-rule:nonzero;stroke:none"
     d="M 500,193 C 295.45312,193 120.77344,320.30078 50,500 120.77344,679.69922 295.45312,807 500,807 704.54687,807 879.22656,679.69922 950,500 879.22656,320.30078 704.54687,193 500,193 Z m 0,511.66797 c -112.91016,0 -204.54688,-91.69141 -204.54688,-204.66797 0,-112.97656 91.63672,-204.66797 204.54688,-204.66797 112.91016,0 204.54687,91.69141 204.54687,204.66797 0,112.97656 -91.63671,204.66797 -204.54687,204.66797 z m 0,-327.46875 c -67.91016,0 -122.72656,54.85156 -122.72656,122.80078 0,67.94922 54.8164,122.80078 122.72656,122.80078 67.91016,0 122.72656,-54.85156 122.72656,-122.80078 0,-67.94922 -54.8164,-122.80078 -122.72656,-122.80078 z m 0,0"
     id="path6" />
</svg>
