<?xml version="1.0" encoding="UTF-8" standalone="no"?>
<!-- Created with Inkscape (http://www.inkscape.org/) -->

<svg
   width="1000"
   height="1000"
   version="1.1"
   id="svg8"
   xmlns="http://www.w3.org/2000/svg"
   xmlns:svg="http://www.w3.org/2000/svg"
   xmlns:rdf="http://www.w3.org/1999/02/22-rdf-syntax-ns#"
   xmlns:cc="http://creativecommons.org/ns#"
   xmlns:dc="http://purl.org/dc/elements/1.1/">
  <defs
     id="defs5498" />
  <metadata
     id="metadata5594">
    <rdf:RDF>
      <cc:Work
         rdf:about="">
        <dc:format>image/svg+xml</dc:format>
        <dc:type
           rdf:resource="http://purl.org/dc/dcmitype/StillImage" />
      </cc:Work>
    </rdf:RDF>
  </metadata>
  <path
     style="fill:#000000;fill-opacity:1;fill-rule:nonzero;stroke:none"
     d="M 526.58984,418.16797 C 493.04687,322.83203 402.22656,254.5 295.45312,254.5 160.04688,254.5 50,364.56641 50,500 c 0,135.43359 110.04688,245.5 245.45312,245.5 106.77344,0 197.59375,-68.33203 231.13672,-163.66797 H 704.54687 V 745.5 H 868.18359 V 581.83203 H 950 V 418.16797 Z M 295.45312,581.83203 c -45,0 -81.8164,-36.82422 -81.8164,-81.83203 0,-45.00781 36.8164,-81.83203 81.8164,-81.83203 45,0 81.82032,36.82422 81.82032,81.83203 0,45.00781 -36.82032,81.83203 -81.82032,81.83203 z m 0,0"
     id="path6" />
</svg>
