<?xml version="1.0" encoding="UTF-8" standalone="no"?>
<!-- Created with Inkscape (http://www.inkscape.org/) -->

<svg
   width="1000"
   height="1000"
   version="1.1"
   id="svg8"
   xmlns="http://www.w3.org/2000/svg"
   xmlns:svg="http://www.w3.org/2000/svg"
   xmlns:rdf="http://www.w3.org/1999/02/22-rdf-syntax-ns#"
   xmlns:cc="http://creativecommons.org/ns#"
   xmlns:dc="http://purl.org/dc/elements/1.1/">
  <defs
     id="defs5498" />
  <metadata
     id="metadata5594">
    <rdf:RDF>
      <cc:Work
         rdf:about="">
        <dc:format>image/svg+xml</dc:format>
        <dc:type
           rdf:resource="http://purl.org/dc/dcmitype/StillImage" />
      </cc:Work>
    </rdf:RDF>
  </metadata>
  <path
     style="fill:#000000;fill-opacity:1;fill-rule:nonzero;stroke:none"
     d="m 744.01953,293.5 c -114.125,0 -206.47656,92.36328 -206.47656,206.5 0,49.93359 17.64453,95.74219 47.30078,131.41016 H 415.15625 C 444.8125,595.74219 462.45703,549.93359 462.45703,500 462.45703,385.86328 370.10547,293.5 255.98047,293.5 141.85156,293.5 49.5,385.86328 49.5,500 c 0,114.13672 92.35156,206.5 206.48047,206.5 H 744.01953 C 858.14844,706.5 950.5,614.13672 950.5,500 950.5,385.86328 858.14844,293.5 744.01953,293.5 Z M 255.98047,631.41016 c -72.45703,0 -131.39844,-58.94922 -131.39844,-131.41016 0,-72.46094 58.94141,-131.41016 131.39844,-131.41016 72.45312,0 131.39453,58.94922 131.39453,131.41016 0,72.46094 -58.94141,131.41016 -131.39453,131.41016 z m 488.03906,0 C 671.56641,631.41016 612.625,572.46094 612.625,500 c 0,-72.46094 58.94141,-131.41016 131.39453,-131.41016 72.45703,0 131.39844,58.94922 131.39844,131.41016 0,72.46094 -58.94141,131.41016 -131.39844,131.41016 z m 0,0"
     id="path6" />
</svg>
