<?xml version="1.0" encoding="UTF-8" standalone="no"?>
<!-- Created with Inkscape (http://www.inkscape.org/) -->

<svg
   width="1000"
   height="1000"
   version="1.1"
   id="svg8"
   xmlns="http://www.w3.org/2000/svg"
   xmlns:svg="http://www.w3.org/2000/svg"
   xmlns:rdf="http://www.w3.org/1999/02/22-rdf-syntax-ns#"
   xmlns:cc="http://creativecommons.org/ns#"
   xmlns:dc="http://purl.org/dc/elements/1.1/">
  <defs
     id="defs5498" />
  <metadata
     id="metadata5594">
    <rdf:RDF>
      <cc:Work
         rdf:about="">
        <dc:format>image/svg+xml</dc:format>
        <dc:type
           rdf:resource="http://purl.org/dc/dcmitype/StillImage" />
      </cc:Work>
    </rdf:RDF>
  </metadata>
  <path
     style="fill:#000000;fill-opacity:1;fill-rule:nonzero;stroke:none"
     d="M 860.05078,320.01562 H 590.03516 V 229.98437 H 770.01562 C 869.04687,229.98437 950,148.94531 950,50 H 50 c 0,99.03125 81.03906,179.98437 179.98437,179.98437 h 179.98047 v 90.03125 H 140.03516 c -22.53125,0 -44.976566,22.53125 -44.976566,44.97657 V 905.02734 C 95.058594,932.01172 113.05078,950 140.03516,950 h 720.01562 c 26.98438,0 44.97266,-17.98828 44.97266,-44.97266 V 364.99219 c 0,-26.98438 -22.44141,-44.97657 -44.97266,-44.97657 z M 500,815.07812 c -99.02734,0 -179.98438,-81.03906 -179.98438,-179.98437 0,-98.94141 81.03907,-180.06641 179.98438,-180.06641 98.94141,0 180.06641,81.03907 180.06641,179.98047 0,98.94531 -81.03907,180.07031 -180.06641,180.07031 z M 770.01562,500 c -22.52734,0 -44.97265,-17.98828 -44.97265,-44.97266 0,-22.53125 17.98828,-44.97656 44.97265,-44.97656 22.53125,0 44.97657,17.99219 44.97657,44.97656 C 815.07812,477.55469 792.54687,500 770.01562,500 Z m 0,0"
     id="path6" />
</svg>
