<?xml version="1.0" encoding="UTF-8" standalone="no"?>
<!-- Created with Inkscape (http://www.inkscape.org/) -->

<svg
   width="1000"
   height="1000"
   version="1.1"
   id="svg12"
   xmlns="http://www.w3.org/2000/svg"
   xmlns:svg="http://www.w3.org/2000/svg"
   xmlns:rdf="http://www.w3.org/1999/02/22-rdf-syntax-ns#"
   xmlns:cc="http://creativecommons.org/ns#"
   xmlns:dc="http://purl.org/dc/elements/1.1/">
  <defs
     id="defs5498" />
  <metadata
     id="metadata5594">
    <rdf:RDF>
      <cc:Work
         rdf:about="">
        <dc:format>image/svg+xml</dc:format>
        <dc:type
           rdf:resource="http://purl.org/dc/dcmitype/StillImage" />
      </cc:Work>
    </rdf:RDF>
  </metadata>
  <path
     style="fill:#000000;fill-opacity:1;fill-rule:nonzero;stroke:none"
     d="m 500,292.22266 c -133.73437,0 -242.5,108.67187 -242.5,242.29296 v 173.0625 c 0,133.6211 108.76563,242.28907 242.5,242.28907 133.73437,0 242.5,-108.66797 242.5,-242.28907 V 534.51562 C 742.5,400.89453 633.73437,292.22266 500,292.22266 Z m 34.64453,242.29296 c 0,19.0625 -15.56641,34.60938 -34.64453,34.60938 -19.07813,0 -34.64453,-15.46094 -34.64453,-34.60938 v -69.22656 c 0,-19.0625 15.5664,-34.61328 34.64453,-34.61328 19.07812,0 34.64453,15.55078 34.64453,34.61328 z m 0,0"
     id="path6" />
  <path
     style="fill:#000000;fill-opacity:1;fill-rule:nonzero;stroke:none"
     d="m 377.51953,204.46094 c -13.54297,13.53125 -13.54297,35.40625 0,48.93359 6.76953,6.76563 15.64844,10.10156 24.53125,10.10156 8.87891,0 17.76172,-3.33593 24.53125,-10.10156 C 446.1875,233.80469 472.30469,223 500.08984,223 c 27.78125,0 53.8086,10.80469 73.50391,30.39453 13.53906,13.52734 35.43359,13.52734 48.97656,0 13.53906,-13.52734 13.53906,-35.40234 0,-48.93359 -32.71094,-32.67969 -76.23437,-50.6875 -122.48047,-50.6875 -46.25,0 -89.86328,18.00781 -122.57031,50.6875 z m 0,0"
     id="path8" />
  <path
     style="fill:#000000;fill-opacity:1;fill-rule:nonzero;stroke:none"
     d="m 352.98828,180.03906 c 81.06641,-80.996092 212.95703,-80.910155 293.9375,0 6.76953,6.76563 15.64844,10.10547 24.53125,10.10547 8.87891,0 17.76172,-3.33984 24.53125,-10.10547 13.53906,-13.52734 13.53906,-35.40234 0,-48.92969 -108.0625,-107.968746 -283.91406,-107.968746 -391.97656,0 -13.53906,13.52735 -13.53906,35.40235 0,48.92969 13.54297,13.53125 35.43359,13.53125 48.97656,0 z m 0,0"
     id="path10" />
</svg>
