<?xml version="1.0" encoding="UTF-8" standalone="no"?>
<!-- Created with Inkscape (http://www.inkscape.org/) -->

<svg
   width="1000"
   height="1000"
   version="1.1"
   id="svg10"
   xmlns="http://www.w3.org/2000/svg"
   xmlns:svg="http://www.w3.org/2000/svg"
   xmlns:rdf="http://www.w3.org/1999/02/22-rdf-syntax-ns#"
   xmlns:cc="http://creativecommons.org/ns#"
   xmlns:dc="http://purl.org/dc/elements/1.1/">
  <defs
     id="defs5498" />
  <metadata
     id="metadata5594">
    <rdf:RDF>
      <cc:Work
         rdf:about="">
        <dc:format>image/svg+xml</dc:format>
        <dc:type
           rdf:resource="http://purl.org/dc/dcmitype/StillImage" />
      </cc:Work>
    </rdf:RDF>
  </metadata>
  <path
     style="fill:#000000;fill-opacity:1;fill-rule:nonzero;stroke:none"
     d="m 680.00781,950 c 72.03906,0 134.9961,-58.50391 134.9961,-134.99609 H 545.01172 C 545.01172,891.49609 607.96875,950 680.00781,950 Z m 0,0"
     id="path6" />
  <path
     style="fill:#000000;fill-opacity:1;fill-rule:nonzero;stroke:none"
     d="m 634.95312,364.96094 c -26.98437,0 -44.96875,17.98828 -44.96875,44.97265 v 35.97266 C 486.50781,517.94531 410.01562,607.88672 410.01562,724.89453 H 950 C 950,607.88672 873.50781,517.85937 770.03516,445.90625 v -35.97266 c 0,-26.98437 -17.98829,-44.97265 -44.97266,-44.97265 l -0.0859,-89.9375 c 0,-49.51172 -40.51562,-90.02735 -90.02344,-90.02735 H 229.96484 V 94.96875 C 229.96484,67.988281 211.97656,50 184.99609,50 H 50 v 360.01562 h 134.99609 c 26.98047,0 44.96875,-17.98437 44.96875,-44.96875 v -90.02343 h 404.98828 z m 0,0"
     id="path8" />
</svg>
