<?xml version="1.0" encoding="UTF-8" standalone="no"?>
<!-- Created with Inkscape (http://www.inkscape.org/) -->

<svg
   width="1000"
   height="1000"
   version="1.1"
   id="svg7"
   xmlns="http://www.w3.org/2000/svg"
   xmlns:svg="http://www.w3.org/2000/svg"
   xmlns:rdf="http://www.w3.org/1999/02/22-rdf-syntax-ns#"
   xmlns:cc="http://creativecommons.org/ns#"
   xmlns:dc="http://purl.org/dc/elements/1.1/">
  <defs
     id="defs5498" />
  <metadata
     id="metadata5594">
    <rdf:RDF>
      <cc:Work
         rdf:about="">
        <dc:format>image/svg+xml</dc:format>
        <dc:type
           rdf:resource="http://purl.org/dc/dcmitype/StillImage" />
      </cc:Work>
    </rdf:RDF>
  </metadata>
  <g
     id="layer1">
    <g
       transform="matrix(28.125325,0,0,28.125325,-4337.563,49.723132)"
       id="g136">
      <g
         id="g134">
        <g
           transform="matrix(2.2619,0,0,2.375,2.35714,-53.625)"
           id="g124">
          <path
             d="m 75.346,22.738 c -0.084,-0.1 -0.211,-0.159 -0.346,-0.159 -0.135,0 -0.262,0.059 -0.346,0.159 0,0 -1.498,1.799 -2.397,3.417 -0.418,0.753 -0.699,1.476 -0.699,1.988 0,1.809 1.542,3.278 3.442,3.278 1.9,0 3.442,-1.469 3.442,-3.278 0,-0.512 -0.281,-1.235 -0.699,-1.988 -0.899,-1.618 -2.397,-3.417 -2.397,-3.417 z"
             id="path122" />
        </g>
        <g
           transform="matrix(0.333333,0,0,0.458056,104.667,15.7896)"
           id="g128">
          <path
             d="m 159.15,32.522 c 3.66,-2.737 7.013,-0.894 10.597,0.498 5.801,2.252 11.935,4.212 19.215,-0.369 0.065,-0.041 0.128,-0.084 0.188,-0.129 3.66,-2.737 7.013,-0.894 10.597,0.498 5.801,2.252 11.935,4.212 19.215,-0.369 0.065,-0.041 0.128,-0.084 0.188,-0.129 3.647,-2.728 6.897,-1.082 10.414,0.237 5.633,2.111 11.691,4.071 19.226,-0.007 1.329,-0.719 1.605,-2.088 0.617,-3.055 -0.988,-0.967 -2.869,-1.168 -4.197,-0.449 -3.453,1.869 -6.418,1.669 -9.145,0.911 -2.328,-0.648 -4.516,-1.621 -6.669,-2.336 -2.84,-0.944 -5.649,-1.457 -8.509,-0.985 -1.926,0.319 -3.919,1.077 -5.947,2.572 -3.157,1.951 -5.967,1.818 -8.604,1.077 -2.32,-0.652 -4.531,-1.667 -6.714,-2.433 -2.874,-1.008 -5.733,-1.595 -8.614,-1.181 -1.979,0.284 -4.016,1.025 -6.068,2.538 -3.157,1.95 -5.967,1.817 -8.604,1.076 -2.32,-0.652 -4.531,-1.667 -6.714,-2.433 -2.874,-1.008 -5.733,-1.595 -8.614,-1.181 -2.008,0.289 -4.075,1.046 -6.158,2.605 -1.155,0.863 -1.129,2.247 0.058,3.087 1.187,0.84 3.088,0.821 4.242,-0.043 z"
             id="path126" />
        </g>
        <g
           transform="matrix(0.333333,0,0,0.458056,104.667,10.7896)"
           id="g132">
          <path
             d="m 159.15,32.522 c 3.66,-2.737 7.013,-0.894 10.597,0.498 5.801,2.252 11.935,4.212 19.215,-0.369 0.065,-0.041 0.128,-0.084 0.188,-0.129 3.66,-2.737 7.013,-0.894 10.597,0.498 5.801,2.252 11.935,4.212 19.215,-0.369 0.065,-0.041 0.128,-0.084 0.188,-0.129 3.647,-2.728 6.897,-1.082 10.414,0.237 5.633,2.111 11.691,4.071 19.226,-0.007 1.329,-0.719 1.605,-2.088 0.617,-3.055 -0.988,-0.967 -2.869,-1.168 -4.197,-0.449 -3.453,1.869 -6.418,1.669 -9.145,0.911 -2.328,-0.648 -4.516,-1.621 -6.669,-2.336 -2.84,-0.944 -5.649,-1.457 -8.509,-0.985 -1.926,0.319 -3.919,1.077 -5.947,2.572 -3.157,1.951 -5.967,1.818 -8.604,1.077 -2.32,-0.652 -4.531,-1.667 -6.714,-2.433 -2.874,-1.008 -5.733,-1.595 -8.614,-1.181 -1.979,0.284 -4.016,1.025 -6.068,2.538 -3.157,1.95 -5.967,1.817 -8.604,1.076 -2.32,-0.652 -4.531,-1.667 -6.714,-2.433 -2.874,-1.008 -5.733,-1.595 -8.614,-1.181 -2.008,0.289 -4.075,1.046 -6.158,2.605 -1.155,0.863 -1.129,2.247 0.058,3.087 1.187,0.84 3.088,0.821 4.242,-0.043 z"
             id="path130" />
        </g>
      </g>
    </g>
  </g>
</svg>
