<?xml version="1.0" encoding="UTF-8" standalone="no"?>
<!-- Created with Inkscape (http://www.inkscape.org/) -->

<svg
   width="1000"
   height="1000"
   version="1.1"
   id="svg34"
   xmlns="http://www.w3.org/2000/svg"
   xmlns:svg="http://www.w3.org/2000/svg"
   xmlns:rdf="http://www.w3.org/1999/02/22-rdf-syntax-ns#"
   xmlns:cc="http://creativecommons.org/ns#"
   xmlns:dc="http://purl.org/dc/elements/1.1/">
  <defs
     id="defs5498" />
  <metadata
     id="metadata5594">
    <rdf:RDF>
      <cc:Work
         rdf:about="">
        <dc:format>image/svg+xml</dc:format>
        <dc:type
           rdf:resource="http://purl.org/dc/dcmitype/StillImage" />
      </cc:Work>
    </rdf:RDF>
  </metadata>
  <path
     style="fill:#000000;fill-opacity:1;fill-rule:nonzero;stroke:none"
     d="m 194.26953,247.97656 h 179.80469 v 71.98828 H 194.26953 Z m 0,0"
     id="path6" />
  <path
     style="fill:#000000;fill-opacity:1;fill-rule:nonzero;stroke:none"
     d="m 410.09766,247.97656 h 179.80468 v 71.98828 H 410.09766 Z m 0,0"
     id="path8" />
  <path
     style="fill:#000000;fill-opacity:1;fill-rule:nonzero;stroke:none"
     d="m 625.86328,247.97656 h 179.80469 v 71.98828 H 625.86328 Z m 0,0"
     id="path10" />
  <path
     style="fill:#000000;fill-opacity:1;fill-rule:nonzero;stroke:none"
     d="m 302.21484,356.02344 h 179.80469 v 71.98828 H 302.21484 Z m 0,0"
     id="path12" />
  <path
     style="fill:#000000;fill-opacity:1;fill-rule:nonzero;stroke:none"
     d="m 517.98047,356.02344 h 179.80469 v 71.98828 H 517.98047 Z m 0,0"
     id="path14" />
  <path
     style="fill:#000000;fill-opacity:1;fill-rule:nonzero;stroke:none"
     d="m 194.26953,464.00391 h 179.80469 v 71.99218 H 194.26953 Z m 0,0"
     id="path16" />
  <path
     style="fill:#000000;fill-opacity:1;fill-rule:nonzero;stroke:none"
     d="m 410.09766,464.00391 h 179.80468 v 71.99218 H 410.09766 Z m 0,0"
     id="path18" />
  <path
     style="fill:#000000;fill-opacity:1;fill-rule:nonzero;stroke:none"
     d="m 625.86328,464.00391 h 179.80469 v 71.99218 H 625.86328 Z m 0,0"
     id="path20" />
  <path
     style="fill:#000000;fill-opacity:1;fill-rule:nonzero;stroke:none"
     d="m 302.21484,571.98828 h 179.80469 v 71.98828 H 302.21484 Z m 0,0"
     id="path22" />
  <path
     style="fill:#000000;fill-opacity:1;fill-rule:nonzero;stroke:none"
     d="m 517.98047,571.98828 h 179.80469 v 71.98828 H 517.98047 Z m 0,0"
     id="path24" />
  <path
     style="fill:#000000;fill-opacity:1;fill-rule:nonzero;stroke:none"
     d="m 194.26953,679.97266 h 179.80469 v 71.98828 H 194.26953 Z m 0,0"
     id="path26" />
  <path
     style="fill:#000000;fill-opacity:1;fill-rule:nonzero;stroke:none"
     d="m 410.09766,679.97266 h 179.80468 v 71.98828 H 410.09766 Z m 0,0"
     id="path28" />
  <path
     style="fill:#000000;fill-opacity:1;fill-rule:nonzero;stroke:none"
     d="m 625.86328,679.97266 h 179.80469 v 71.98828 H 625.86328 Z m 0,0"
     id="path30" />
  <path
     style="fill:#000000;fill-opacity:1;fill-rule:nonzero;stroke:none"
     d="M 949.57422,104 H 50.425781 V 896 H 949.57422 Z m -35.96094,143.97656 h -71.92187 v 71.98828 h 71.92187 v 35.9961 H 733.80859 v 71.98828 h 179.80469 v 35.99219 h -71.92187 v 71.98828 h 71.92187 v 35.99609 H 733.80859 v 71.98828 h 179.80469 v 35.9961 h -71.92187 v 71.98828 h 71.92187 v 35.99218 H 733.80859 v 71.98829 l -35.96093,0.125 V 788.01562 H 518.04297 v 71.98829 H 482.08203 V 788.01562 H 302.21484 v 71.98829 H 266.25391 V 788.01562 H 86.386719 V 752.02344 H 158.30859 V 679.97266 H 86.386719 v -35.9961 H 266.19141 l 0.0625,-71.98828 H 86.386719 V 535.99609 H 158.30859 V 464.00391 H 86.386719 V 428.01172 H 266.19141 l 0.0625,-71.98828 H 86.386719 v -35.9961 H 158.30859 V 247.97656 H 86.386719 V 211.98438 H 266.19141 l 0.0625,-71.98829 h 35.96093 v 71.98829 h 179.80469 v -71.98829 h 35.96094 v 71.98829 h 179.86719 v -71.98829 h 35.96093 v 71.98829 h 179.80469 z m 0,0"
     id="path32" />
</svg>
