<?xml version="1.0" encoding="UTF-8" standalone="no"?>
<!-- Created with Inkscape (http://www.inkscape.org/) -->

<svg
   width="1000"
   height="1000"
   version="1.1"
   id="svg10"
   xmlns="http://www.w3.org/2000/svg"
   xmlns:svg="http://www.w3.org/2000/svg"
   xmlns:rdf="http://www.w3.org/1999/02/22-rdf-syntax-ns#"
   xmlns:cc="http://creativecommons.org/ns#"
   xmlns:dc="http://purl.org/dc/elements/1.1/">
  <defs
     id="defs5498" />
  <metadata
     id="metadata5594">
    <rdf:RDF>
      <cc:Work
         rdf:about="">
        <dc:format>image/svg+xml</dc:format>
        <dc:type
           rdf:resource="http://purl.org/dc/dcmitype/StillImage" />
      </cc:Work>
    </rdf:RDF>
  </metadata>
  <path
     style="fill:#000000;fill-opacity:1;fill-rule:nonzero;stroke:none"
     d="M 904.94531,50.04297 H 94.96875 C 72.441406,50.04297 50,72.570313 50,95.01172 v 809.97656 c 0,26.98047 17.988281,44.96875 44.96875,44.96875 h 809.97656 c 26.98047,0 44.96875,-17.98828 44.96875,-44.96875 L 950,95.01172 C 950,72.570313 927.47266,50.04297 904.94531,50.04297 Z m -404.98828,90.02734 c 26.98047,0 44.96875,17.98828 44.96875,44.96875 0,26.98047 -17.90234,44.96875 -44.96875,44.96875 -27.06641,0 -44.96875,-17.98828 -44.96875,-44.96875 0,-22.52734 17.98828,-44.96875 44.96875,-44.96875 z m -224.9375,0 c 26.98438,0 44.97266,17.98828 44.97266,44.96875 0,26.98047 -17.98828,44.96875 -44.97266,44.96875 -26.98047,0 -45.05469,-17.98828 -45.05469,-44.96875 0,-22.52734 17.98828,-44.96875 45.05469,-44.96875 z m 224.9375,719.94531 c -148.53125,0 -269.99219,-121.46093 -269.99219,-269.98828 0,-148.53125 121.46094,-269.99218 269.99219,-269.99218 148.53125,0 269.99219,121.46093 269.99219,269.99218 0,148.52735 -121.46094,269.98828 -269.99219,269.98828 z M 724.97656,230.00781 c -26.98047,0 -44.96875,-17.98828 -44.96875,-44.96875 0,-26.98047 17.98828,-44.96875 44.96875,-44.96875 26.98438,0 44.97266,17.98828 44.97266,44.96875 0,26.98047 -17.98828,44.96875 -44.97266,44.96875 z m 0,0"
     id="path6" />
  <path
     style="fill:#000000;fill-opacity:1;fill-rule:nonzero;stroke:none"
     d="m 589.98437,634.99609 c 0,49.50782 -40.51562,90.02735 -90.02734,90.02735 -49.51172,0 -89.94141,-40.51953 -89.94141,-90.02735 0,-49.51172 89.94141,-179.96484 89.94141,-179.96484 0,0 90.02734,130.45312 90.02734,179.96484 z m 0,0"
     id="path8" />
</svg>
