<?xml version="1.0" encoding="UTF-8" standalone="no"?>
<!-- Created with Inkscape (http://www.inkscape.org/) -->

<svg
   width="1000"
   height="1000"
   version="1.1"
   id="svg10"
   xmlns="http://www.w3.org/2000/svg"
   xmlns:svg="http://www.w3.org/2000/svg"
   xmlns:rdf="http://www.w3.org/1999/02/22-rdf-syntax-ns#"
   xmlns:cc="http://creativecommons.org/ns#"
   xmlns:dc="http://purl.org/dc/elements/1.1/">
  <defs
     id="defs5498" />
  <metadata
     id="metadata5594">
    <rdf:RDF>
      <cc:Work
         rdf:about="">
        <dc:format>image/svg+xml</dc:format>
        <dc:type
           rdf:resource="http://purl.org/dc/dcmitype/StillImage" />
      </cc:Work>
    </rdf:RDF>
  </metadata>
  <path
     style="fill:#000000;fill-opacity:1;fill-rule:nonzero;stroke:none"
     d="m 915.90234,768.19531 c -11.95703,0 -16.08984,-2.98828 -26.02343,-10.11328 -13.53907,-9.76172 -32.17579,-23.12891 -66.46094,-23.12891 -34.28125,0 -52.83203,13.36719 -66.45703,23.12891 -9.9336,7.125 -14.06641,10.11328 -26.02344,10.11328 -11.95313,0 -16,-2.98828 -25.93359,-10.11328 -13.53516,-9.76172 -32.17188,-23.12891 -66.45704,-23.12891 -34.28515,0 -52.83593,13.36719 -66.37109,23.12891 -9.9375,7.125 -13.98047,10.11328 -25.93359,10.11328 -11.8711,0 -16,-2.98828 -25.9336,-10.11328 -13.53906,-9.76172 -32.17578,-23.12891 -66.46093,-23.12891 -34.28516,0 -52.83204,13.36719 -66.46094,23.12891 -9.9336,7.125 -13.97656,10.11328 -25.9336,10.11328 -11.95312,0 -16,-2.98828 -25.93359,-10.11328 -13.53516,-9.76172 -32.17187,-23.12891 -66.45703,-23.12891 -34.28516,0 -52.83594,13.36719 -66.46094,23.12891 -9.93359,7.125 -13.97656,10.11328 -25.93359,10.11328 -11.86719,0 -16,-2.98828 -25.93359,-10.11328 -13.53907,-9.76172 -32.08594,-23.12891 -66.371099,-23.12891 -19.078125,0 -34.636719,15.47657 -34.636719,34.65235 0,19.08203 15.558594,34.64844 34.636719,34.64844 11.867188,0 15.999999,2.99218 25.933589,10.11718 13.53907,9.76172 32.17579,23.12891 66.3711,23.12891 34.28515,0 52.83594,-13.36719 66.37109,-23.12891 9.9336,-7.125 13.98047,-10.11718 25.9336,-10.11718 11.95703,0 16,2.99218 25.93359,10.11718 13.53906,9.76172 32.17578,23.12891 66.37109,23.12891 34.28516,0 52.83594,-13.36719 66.46094,-23.12891 9.93359,-7.125 13.97656,-10.11718 25.93359,-10.11718 11.95704,0 16,2.99218 25.9336,10.11718 13.53906,9.76172 32.17578,23.12891 66.37109,23.12891 34.19531,0 52.83203,-13.36719 66.3711,-23.12891 9.93359,-7.125 14.0664,-10.11718 25.93359,-10.11718 11.95703,0 16.08984,2.99218 25.93359,10.11718 13.53907,9.76172 32.17578,23.12891 66.46094,23.12891 34.28516,0 52.83203,-13.36719 66.45703,-23.12891 9.9375,-7.125 14.06641,-10.11718 26.02344,-10.11718 11.95703,0 16.08594,2.99218 26.01953,10.11718 13.53906,9.76172 32.17578,23.12891 66.46094,23.12891 19.07812,0 34.63672,-15.56641 34.63672,-34.65234 0,-19.08204 -15.29688,-34.65235 -34.3711,-34.65235 z m 0,0"
     id="path6" />
  <path
     style="fill:#000000;fill-opacity:1;fill-rule:nonzero;stroke:none"
     d="m 257.80859,509.01562 c 16.52735,0 30.41797,-11.60937 33.84375,-27.17578 1.14453,-0.70312 2.81641,-1.49609 4.75,-2.28906 5.97657,30.69531 18.8125,58.83984 36.65625,83.11328 -24.4375,36.32031 -27.25,74.49219 -4.21875,97.53125 6.76953,6.77344 15.64844,10.11719 24.52735,10.11719 8.8789,0 17.75781,-3.34375 24.52734,-10.11719 11.69141,-11.69531 13.27344,-29.72656 4.74609,-43.09375 0.35157,-1.3164 0.96875,-3.07812 1.75782,-4.92578 24.78906,16.71094 53.53906,28.05859 84.30468,32.80469 8.35157,43.09765 33.67188,71.9414 66.28516,71.9414 19.07422,0 34.63672,-15.5664 34.63672,-34.64843 0,-16.53516 -11.60547,-30.42969 -27.16406,-33.86328 -0.70313,-1.14063 -1.4961,-2.8125 -2.28516,-4.7461 30.58984,-5.98047 58.63281,-18.73437 82.89844,-36.58594 19.42578,13.10157 39.38281,20.05079 57.22656,20.05079 15.64844,0 29.71484,-5.1875 40.44141,-15.91797 13.53515,-13.54297 13.53515,-35.44532 0,-48.98828 -11.69141,-11.69532 -29.71485,-13.28125 -43.07813,-4.75 -1.3164,-0.35157 -3.07422,-0.96485 -4.92187,-1.75782 16.70312,-24.80078 28.04297,-53.55859 32.78906,-84.34375 43.07812,-8.35156 71.91016,-33.76953 71.91016,-66.3125 0,-19.08203 -15.5586,-34.64843 -34.63672,-34.64843 -16.52344,0 -30.41407,11.60937 -33.84375,27.17578 -1.14063,0.70312 -2.8125,1.49218 -4.7461,2.28515 -5.98047,-30.69531 -18.8125,-58.83593 -36.66015,-83.10937 24.4414,-36.32422 27.2539,-74.58203 4.22265,-97.53516 -13.53906,-13.54297 -35.42968,-13.54297 -48.96875,0 -11.6914,11.69532 -13.27343,29.72657 -4.74609,43.09375 -0.35156,1.32032 -0.96875,3.07813 -1.75781,4.92578 C 591.51562,250.44922 562.76562,239.19141 532,234.44141 523.64844,191.34766 498.24219,162.5 465.62891,162.5 c -19.07813,0 -34.63672,15.56641 -34.63672,34.65234 0,16.53516 11.60156,30.42969 27.16406,33.85938 0.70312,1.14453 1.49219,2.8125 2.28516,4.75 -30.67969,5.98047 -58.8125,18.82031 -83.07422,36.67187 -36.3086,-24.44922 -74.54688,-27.26172 -97.49219,-4.21875 -13.53906,13.54297 -13.53906,35.44141 0,48.98438 11.69141,11.69922 29.71094,13.28125 43.07422,4.75 1.32031,0.35156 3.07812,0.96875 4.92187,1.75781 -16.69922,24.80469 -28.04297,53.5625 -32.78906,84.34375 -43.07422,8.35547 -71.91016,33.68359 -71.91016,66.3125 0,19.08594 15.5625,34.65234 34.63672,34.65234 z m 176.875,-84.78125 34.63672,-69.30468 c 8.61328,-17.14844 29.35938,-24.09766 46.50391,-15.48047 17.14062,8.53125 24.08594,29.375 15.47265,46.52734 l -9.67187,19.08203 h 13.27344 c 11.95703,0 23.12109,6.2461 29.45312,16.44922 6.32813,10.19922 6.85547,22.95313 1.49219,33.6836 l -34.63672,69.30078 c -6.06641,12.13672 -18.28516,19.17578 -31.03125,19.17578 -5.1875,0 -10.46094,-1.14453 -15.47266,-3.69531 -17.14062,-8.53125 -24,-29.375 -15.47265,-46.52344 l 9.67187,-19.08594 h -13.27343 c -11.95704,0 -23.1211,-6.24609 -29.45313,-16.44531 -6.32812,-10.20313 -6.85547,-22.95703 -1.49219,-33.6836 z m 0,0"
     id="path8" />
</svg>
