<?xml version="1.0" encoding="UTF-8" standalone="no"?>
<!-- Created with Inkscape (http://www.inkscape.org/) -->

<svg
   width="1000"
   height="1000"
   version="1.1"
   id="svg30"
   xmlns="http://www.w3.org/2000/svg"
   xmlns:svg="http://www.w3.org/2000/svg"
   xmlns:rdf="http://www.w3.org/1999/02/22-rdf-syntax-ns#"
   xmlns:cc="http://creativecommons.org/ns#"
   xmlns:dc="http://purl.org/dc/elements/1.1/">
  <defs
     id="defs5498" />
  <metadata
     id="metadata5594">
    <rdf:RDF>
      <cc:Work
         rdf:about="">
        <dc:format>image/svg+xml</dc:format>
        <dc:type
           rdf:resource="http://purl.org/dc/dcmitype/StillImage" />
      </cc:Work>
    </rdf:RDF>
  </metadata>
  <path
     style="fill:#000000;fill-opacity:1;fill-rule:nonzero;stroke:none"
     d="m 464.14844,534.28125 c -13.30469,0 -24.14063,-10.82813 -24.14063,-24.12891 0,-13.29687 10.83594,-24.1289 24.14063,-24.1289 13.30468,0 24.14062,10.83203 24.14062,24.1289 0,13.30078 -10.83594,24.12891 -24.14062,24.12891 z m 0,0"
     id="path6" />
  <path
     style="fill:#000000;fill-opacity:1;fill-rule:nonzero;stroke:none"
     d="m 464.14844,520.50391 c -1.67188,-0.16016 -1.83203,-0.0781 -0.39844,0.16015 -1.27344,-0.16015 -2.55078,-0.55859 -3.82422,-0.95703 2.55078,0.79688 -1.03516,-0.63672 -1.43359,-0.79297 -3.34766,-1.91406 1.59375,1.58985 -1.27344,-0.95703 -0.24219,-0.23828 -2.78906,-3.26562 -1.19531,-1.11328 -0.71875,-1.03516 -1.35547,-2.23047 -1.91407,-3.34766 1.19532,2.46875 -0.23828,-1.35156 -0.3164,-1.67187 -0.95703,-3.82031 0,2.39062 -0.082,-1.67188 0.16015,-1.67187 0.082,-1.83203 -0.16016,-0.39843 0.16016,-1.27344 0.55859,-2.54688 0.95703,-3.82032 -0.79687,2.54688 0.63672,-1.03515 0.79688,-1.43359 1.91406,-3.34375 -1.59375,1.58984 0.95703,-1.27344 0.23828,-0.24219 3.26562,-2.78906 1.11328,-1.19531 1.03516,-0.71875 2.23047,-1.35547 3.34766,-1.91016 -2.46875,1.19141 1.35546,-0.24218 1.67187,-0.32031 3.82422,-0.95703 -2.39062,0 1.67578,-0.0781 1.67188,0.15625 1.83203,0.0781 0.39844,-0.16016 1.27344,0.16016 2.54687,0.55859 3.82422,0.95703 -2.55078,-0.79687 1.03515,0.63672 1.43359,0.79297 3.34375,1.91406 -1.59375,-1.58984 1.27344,0.95703 0.23828,0.23828 2.78906,3.26563 1.19531,1.11328 0.79688,1.03516 1.35547,2.23047 1.91016,3.34766 -1.19531,-2.46875 0.24219,1.35156 0.32031,1.67187 0.95703,3.82032 0,-2.39062 0.0781,1.67188 -0.15625,1.67187 -0.0781,1.83203 0.16015,0.39844 -0.16015,1.27343 -0.55859,2.54687 -0.95703,3.82031 0.79688,-2.54688 -0.63672,1.03515 -0.79687,1.43359 -1.91016,3.34375 1.59375,-1.59375 -0.95313,1.27344 -0.23828,0.23828 -3.26562,2.78906 -1.11719,1.19531 -1.03515,0.71875 -2.23047,1.35547 -3.34375,1.91016 2.46875,-1.19141 -1.35547,0.23828 -1.67578,0.32031 -3.82422,0.95313 2.39063,0 -1.67187,0.0781 -7.48828,0.23828 -13.70313,6.05468 -13.70313,13.69921 0,7.32422 6.21485,13.9336 13.70313,13.69532 21.03125,-0.5586 37.28515,-16.88282 37.92187,-37.90625 0.5586,-21.01953 -17.76562,-37.26563 -37.92187,-37.82422 -21.03125,-0.55469 -37.36719,17.75781 -37.92188,37.82422 -0.55859,21.02343 17.76563,37.34765 37.92188,37.90625 7.48828,0.23828 13.70312,-6.3711 13.70312,-13.69532 0,-7.5664 -6.21484,-13.46093 -13.70312,-13.69921 z m 0,0"
     id="path8" />
  <path
     style="fill:#000000;fill-opacity:1;fill-rule:nonzero;stroke:none"
     d="M 180.20312,63.585938 V 198.23828 H 819.79687 V 63.585938 Z M 568.35547,157.62891 H 431.08594 c -14.89844,0 -27.00782,-12.10547 -27.00782,-26.9961 0,-7.48437 3.02735,-14.17187 7.88672,-19.03125 4.85938,-4.85547 11.63282,-7.88281 19.03907,-7.88281 h 137.35156 c 14.89844,0 27.01172,12.10547 27.01172,26.99609 0,14.89063 -12.11328,26.91407 -27.01172,26.91407 z m 80.30859,1.35156 c -15.61328,0 -29.3164,-12.66016 -29.3164,-28.26563 0,-15.60937 13.62109,-28.26953 29.3164,-28.26953 15.69531,0 28.28516,12.66016 28.28516,28.26953 0,15.60547 -12.58985,28.26563 -28.28516,28.26563 z m 82.69922,0 c -15.61719,0 -28.28516,-12.66016 -28.28516,-28.26563 0,-15.60937 12.66797,-28.26953 28.28516,-28.26953 15.61328,0 28.28125,12.66016 28.28125,28.26953 0,15.60547 -12.66797,28.26563 -28.28125,28.26563 z m -551.16016,92.29297 v 685.0625 h 639.59375 v -685.0625 z m 319.39844,576.52734 c -139.74219,0 -253.03125,-104.23828 -253.03125,-232.76172 0,-128.52344 113.28906,-232.76172 253.03125,-232.76172 139.74219,0 253.03125,104.23828 253.03125,232.76172 0,128.52344 -113.28906,232.76172 -253.03125,232.76172 z m 0,0"
     id="path10" />
  <path
     style="fill:#000000;fill-opacity:1;fill-rule:nonzero;stroke:none"
     d="m 731.36328,145.20703 c -0.23828,0 -4.62109,-0.48047 -1.75391,0 -0.55859,-0.082 -5.33593,-1.59375 -2.94921,-0.55859 -1.19141,-0.47657 -2.3086,-1.19532 -3.42579,-1.83203 -1.27343,-0.875 -1.43359,-0.95313 -0.3164,-0.0781 -0.63672,-0.5586 -1.27344,-1.11719 -1.91406,-1.75391 -0.23829,-0.15625 -2.70704,-3.34375 -1.11329,-1.11328 -1.03515,-1.35547 -1.83203,-2.94531 -2.55078,-4.46094 1.19532,2.46875 -0.23828,-1.43359 -0.3164,-1.67187 -0.32032,-1.58985 -0.39844,-1.75 -0.16016,-0.31641 -0.082,-0.875 -0.16016,-1.83203 -0.16016,-2.70703 -0.16015,-8.04297 6.85157,-14.41406 14.57813,-14.57422 8.04687,-0.16016 14.42187,6.84766 14.58203,14.57422 0.23828,7.96094 -6.77344,14.33203 -14.5,14.49219 -7.48828,0.16015 -13.70312,6.12891 -13.70312,13.6953 0,7.32813 6.21484,13.9375 13.70312,13.69532 23.26172,-0.55469 41.50781,-18.79297 42.06641,-42.04297 0.55468,-23.2539 -19.60157,-41.488279 -42.06641,-42.046873 -23.26562,-0.554687 -41.50781,19.589843 -42.06641,42.046873 -0.55859,23.25 19.59766,41.48828 42.06641,42.04297 7.48828,0.16015 13.70313,-6.36719 13.70313,-13.69532 0,-7.5664 -6.21485,-13.53515 -13.70313,-13.6953 z m 0,0"
     id="path12" />
  <path
     style="fill:#000000;fill-opacity:1;fill-rule:nonzero;stroke:none"
     d="m 648.66406,145.20703 c -0.23828,0 -4.62109,-0.48047 -1.7539,0 -1.75,-0.32031 -3.42579,-0.875 -5.09766,-1.43359 2.55078,0.875 -1.27344,-0.79688 -1.43359,-0.95703 -0.71875,-0.47657 -1.51172,-0.95313 -2.23047,-1.4336 1.03515,0.79688 0.95703,0.63672 -0.23828,-0.39844 -0.16016,-0.15625 -2.94922,-3.26171 -1.27735,-1.11328 -1.03515,-1.35547 -1.91015,-2.94531 -2.70703,-4.46093 1.19531,2.39062 -0.32031,-1.35157 -0.39844,-1.67188 -0.32031,-1.58984 -0.39843,-1.75 -0.23828,-0.31641 -0.082,-0.875 -0.16015,-1.83203 -0.16015,-2.70703 0,-0.32031 0.55859,-4.53906 0.0781,-1.7539 0.082,-0.5586 1.75391,-5.25391 0.71875,-2.94531 0.55859,-1.19532 1.27344,-2.3086 1.91406,-3.42579 0.875,-1.35156 1.03516,-1.43359 0.23828,-0.3164 0.55469,-0.63672 1.19532,-1.27344 1.83204,-1.91016 2.86718,-2.86719 -1.99219,1.19141 1.35546,-1.11719 0.47657,-0.3164 4.85938,-2.6289 2.54688,-1.67187 1.27734,-0.47656 2.55078,-0.875 3.82422,-1.19531 1.67187,-0.31641 1.7539,-0.39844 0.32031,-0.15625 0.875,-0.082 1.83203,-0.16016 2.70703,-0.16016 8.04688,-0.16016 14.42188,6.84766 14.58203,14.57031 0.23828,8.04297 -6.85156,14.41406 -14.58203,14.57422 -7.48828,0.16016 -13.70312,6.12891 -13.70312,13.69531 0,7.32813 6.21484,13.9375 13.70312,13.69532 23.26563,-0.55469 41.50781,-18.79297 42.06641,-42.04297 0.55859,-23.25391 -19.59766,-41.488284 -42.06641,-42.046878 -23.18359,-0.554687 -42.46484,19.429688 -43.01953,42.046878 -0.64062,23.49219 20.71094,41.48828 43.01953,42.04297 7.48828,0.16015 13.70313,-6.36719 13.70313,-13.69532 0.082,-7.5664 -6.21485,-13.53515 -13.70313,-13.69531 z m 0,0"
     id="path14" />
  <path
     style="fill:#000000;fill-opacity:1;fill-rule:nonzero;stroke:none"
     d="m 568.35547,143.85156 c -45.48828,0 -90.98047,0 -136.39453,0 -1.19532,0 -2.39063,-0.0781 -3.58594,-0.16015 2.87109,0.24218 -1.11328,-0.39454 -1.43359,-0.55469 -3.82422,-1.03516 2.07421,1.19531 -1.4336,-0.5586 -1.11328,-0.55859 -2.15234,-1.27343 -3.1875,-1.99218 2.15235,1.51562 -1.43359,-1.58985 -1.83203,-2.07032 1.83203,1.99219 -0.55859,-0.95312 -0.79687,-1.27343 -0.16016,-0.31641 -1.75,-3.98047 -0.71485,-1.35157 -0.48047,-1.19531 -0.71875,-2.46875 -1.03515,-3.74218 0.63671,2.78515 0,-1.19532 0,-1.59375 -0.082,-3.90235 -0.5586,1.19531 0.23828,-2.54688 0,0.15625 1.51172,-4.30078 0.63672,-2.39062 0.63671,-1.35547 1.43359,-2.62891 2.30859,-3.82422 -1.27344,1.91406 3.1875,-2.70703 1.35547,-1.35156 4.14453,-3.10547 6.05469,-3.1836 10.99609,-3.1836 3.82422,0 7.56641,0 11.39063,0 29.63672,0 59.27734,0 88.91406,0 11.39062,0 22.78516,0 34.17578,0 0.16016,0 0.39844,0 0.55859,0 0.32032,0 4.54297,0.55469 1.67579,0 0.55468,0.0781 5.25781,1.67188 2.78515,0.63672 1.51563,0.63672 2.94922,1.58985 4.38281,2.54688 -2.15234,-1.51172 1.4336,1.59375 1.83204,2.07031 -1.75,-1.91016 1.11718,1.83203 1.43359,2.39062 0.71875,1.42969 0.71875,1.51172 0.16016,0.23829 0.32031,0.79687 0.55859,1.58984 0.71875,2.46875 1.03515,3.90234 0,-2.55079 0.23828,1.51171 0.0781,0.63672 -0.47657,5.73438 0,2.94532 -0.082,0.55859 -1.67188,5.25781 -0.63672,2.78906 -0.63672,1.51172 -1.59375,2.94531 -2.55078,4.3789 1.51562,-2.15234 -1.59375,1.4336 -2.07032,1.83204 1.91016,-1.75391 -1.83203,1.11328 -2.39062,1.43359 -1.43359,0.71484 -1.51563,0.71484 -0.23828,0.15625 -0.79688,0.32031 -1.59375,0.55859 -2.47266,0.71875 -1.58984,0.31641 -1.67187,0.39844 -0.23828,0.16016 -0.95312,0.3164 -1.83203,0.3164 -2.78906,0.3164 -7.48828,0.16016 -13.70313,6.13281 -13.70313,13.69922 0,7.32422 6.21485,13.9336 13.70313,13.69531 14.34375,-0.32031 26.45312,-7.32812 34.5,-19.11328 8.20312,-11.9414 7.41015,-27.23047 1.83203,-39.89453 C 599.10937,99.5 585.56641,91.773438 572.33984,90.101562 c -2.70703,-0.316406 -5.41797,-0.316406 -8.20703,-0.316406 -27.00781,0 -54.01562,0 -81.02344,0 -13.46484,0 -26.84765,0 -40.23437,0 -11.71094,0 -22.625,-0.242187 -33.22266,6.050782 -26.84765,16.003902 -24.53515,57.253902 3.10938,70.949222 9.8789,4.85937 20.15625,4.3789 30.7539,4.3789 41.58594,0 83.25391,0 124.83985,0 7.49219,0 13.70312,-6.21093 13.70312,-13.69531 0.082,-7.32422 -6.21093,-13.61719 -13.70312,-13.61719 z m 0,0"
     id="path16" />
  <path
     style="fill:#000000;fill-opacity:1;fill-rule:nonzero;stroke:none"
     d="m 166.5,63.585938 c 0,44.750002 0,89.503902 0,134.257812 0,0.15625 0,0.31641 0,0.47656 0,7.48438 6.21484,13.69531 13.70312,13.69531 23.10547,0 46.20704,0 69.3125,0 54.73438,0 109.46875,0 164.1211,0 64.45312,0 128.90625,0 193.35937,0 52.34375,0 104.60938,0 156.95313,0 18.64062,0 37.20312,0 55.84765,0 7.48829,0 13.70313,-6.21093 13.70313,-13.69531 0,-44.7539 0,-89.5039 0,-134.25781 0,-0.160156 0,-0.316406 0,-0.476562 0,-7.484376 -6.21484,-13.699219 -13.70313,-13.699219 -23.10546,0 -46.20703,0 -69.3125,0 -54.73437,0 -109.46875,0 -164.12109,0 -64.45312,0 -128.90625,0 -193.35937,0 -52.34375,0 -104.60938,0 -156.95313,0 -18.64062,0 -37.20312,0 -55.84765,0 -7.48829,0 -13.70313,6.214843 -13.70313,13.699219 0,7.484374 6.21484,13.695312 13.70312,13.695312 23.10547,0 46.20704,0 69.3125,0 54.73438,0 109.46875,0 164.1211,0 64.45312,0 128.90625,0 193.35937,0 52.34375,0 104.60938,0 156.95313,0 18.64062,0 37.20312,0 55.84765,0 -4.54296,-4.539062 -9.16406,-9.15625 -13.70312,-13.695312 0,44.750002 0,89.503902 0,134.257812 0,0.15625 0,0.31641 0,0.47656 4.53906,-4.53906 9.16016,-9.15625 13.70312,-13.69531 -23.10546,0 -46.20703,0 -69.3125,0 -54.73437,0 -109.46875,0 -164.12109,0 -64.45312,0 -128.90625,0 -193.35937,0 -52.34375,0 -104.60938,0 -156.95313,0 -18.64062,0 -37.20312,0 -55.84765,0 4.54296,4.53906 9.16406,9.15625 13.70312,13.69531 0,-44.7539 0,-89.5039 0,-134.25781 0,-0.160156 0,-0.316406 0,-0.476562 0,-7.484376 -6.21484,-13.699219 -13.70312,-13.699219 -7.48829,0 -13.70313,6.214843 -13.70313,13.699219 z m 0,0"
     id="path18" />
  <path
     style="fill:#000000;fill-opacity:1;fill-rule:nonzero;stroke:none"
     d="m 499.60156,814.10156 c -11.87109,0 -23.66015,-0.79687 -35.375,-2.23047 2.78906,0.32032 -1.75,-0.23828 -1.91015,-0.23828 -1.35547,-0.23828 -2.78907,-0.39844 -4.14454,-0.63672 -2.70703,-0.47656 -5.41796,-0.95312 -8.20312,-1.51172 -5.81641,-1.11328 -11.63281,-2.46875 -17.37109,-3.98046 -22.625,-5.97266 -39.51563,-12.98047 -59.59375,-24.44922 -9.48047,-5.33594 -18.48047,-11.38672 -27.16407,-17.91407 -3.42968,-2.55078 1.98828,1.58985 -1.27734,-1.03515 -1.03516,-0.79688 -1.99219,-1.59375 -3.02734,-2.39063 -1.99219,-1.59375 -3.98438,-3.26562 -5.89454,-4.9375 -4.22265,-3.66406 -8.28515,-7.40625 -12.1914,-11.30859 -3.66406,-3.58203 -7.08985,-7.32422 -10.51563,-11.14844 -1.67187,-1.91015 -3.34375,-3.82031 -4.9375,-5.8125 -0.79687,-0.95312 -1.59375,-1.98828 -2.39062,-2.94531 -0.5586,-0.63672 -1.03516,-1.35547 -1.59375,-1.99219 0.875,1.11719 0.79687,1.03516 -0.16016,-0.23828 -6.375,-8.35937 -12.1914,-17.27734 -17.36718,-26.4375 -2.46875,-4.37891 -4.78125,-8.91797 -6.9336,-13.45703 -1.11328,-2.30859 -2.14844,-4.61719 -3.10547,-6.92578 -1.67187,-3.82422 1.03516,2.46875 -0.55859,-1.35547 -0.63672,-1.59375 -1.27344,-3.10547 -1.83203,-4.69922 -3.82422,-9.87109 -6.77344,-20.14453 -9.08203,-30.41797 -1.11719,-5.01562 -1.99219,-10.11328 -2.78907,-15.20703 -0.63672,-4.22266 0.32032,2.78516 -0.16015,-1.51562 -0.15625,-1.27344 -0.31641,-2.54688 -0.39844,-3.90235 -0.31641,-3.02344 -0.55469,-6.05078 -0.71484,-9.07812 -0.71875,-10.90625 -0.48047,-21.89844 0.47656,-32.80469 0.23828,-2.62891 0.55859,-5.17578 0.8789,-7.72656 -0.39843,3.02734 0.15625,-1.19532 0.23829,-1.51172 0.15625,-1.27344 0.39843,-2.54688 0.63671,-3.82422 0.95704,-5.49219 2.07032,-10.90625 3.42579,-16.32422 2.55078,-10.26953 5.97656,-20.30469 9.95703,-30.09766 -1.11328,2.70704 0.48047,-1.11718 0.63672,-1.35546 0.48047,-1.19532 1.03906,-2.3086 1.59375,-3.42188 1.03906,-2.3125 2.15234,-4.53906 3.26953,-6.85156 2.46875,-4.85547 5.09765,-9.71485 7.88672,-14.41016 2.54687,-4.38281 5.33593,-8.60156 8.20703,-12.74219 1.43359,-2.07031 2.94531,-4.14062 4.46093,-6.21093 0.71485,-1.03516 1.51172,-1.99219 2.3086,-3.02735 -1.67188,2.15235 1.51562,-1.83203 1.7539,-2.23047 6.69141,-8.28125 13.94141,-16.0039 21.66797,-23.32812 3.7461,-3.50391 7.57032,-6.92969 11.55469,-10.19531 1.99219,-1.67188 3.98438,-3.26563 6.05469,-4.85547 -2.15235,1.67187 1.19531,-0.87891 1.35547,-1.03516 1.35156,-1.03515 2.78515,-2.07031 4.22265,-3.02734 8.84375,-6.3711 18.16407,-12.10547 27.72266,-17.28125 4.62109,-2.54688 9.40234,-4.85547 14.18359,-7.08594 6.21485,-2.86719 7.48828,-3.42187 13.94141,-5.8125 10.51562,-4.0625 21.35156,-7.32422 32.34766,-9.95312 5.33593,-1.27344 10.7539,-2.39063 16.17187,-3.34375 7.16797,-1.27735 9.16016,-1.51563 15.69531,-2.23047 11.78907,-1.27344 23.74219,-1.67188 35.61328,-1.35547 5.65625,0.16015 11.39063,0.48047 17.04688,0.95703 7.01172,0.55859 10.19922,1.03516 15.77734,1.91016 11.3125,1.7539 22.46485,4.3789 33.46094,7.5664 5.17578,1.51172 10.35547,3.1836 15.375,5.01563 2.55078,0.875 5.01953,1.83203 7.48828,2.86718 3.98438,1.59375 2.62891,1.03516 6.53516,2.78516 10.03906,4.46094 19.83594,9.55859 29.23828,15.28906 4.46094,2.71094 8.84375,5.57422 13.14453,8.52344 2.15234,1.51172 4.22266,3.02344 6.29297,4.53906 1.03906,0.79297 2.07422,1.51172 3.10937,2.3086 -2.07031,-1.59375 1.91016,1.58984 2.3086,1.83203 8.36719,6.6875 16.17578,14.01172 23.58203,21.73828 3.50781,3.66406 6.93359,7.48437 10.19922,11.38672 1.67187,1.91015 3.26562,3.90234 4.78125,5.89062 -1.75391,-2.22656 0.79687,1.11719 0.95703,1.27735 1.03516,1.35156 1.98828,2.70703 3.02734,4.05859 6.13282,8.52344 11.62891,17.59766 16.57032,26.83594 2.39062,4.46094 4.53906,9.07812 6.61328,13.61719 0.0781,0.23828 1.75,4.0625 0.63672,1.35546 0.47656,1.19141 0.95703,2.3086 1.43359,3.50391 1.11719,2.78516 2.07031,5.49219 3.10547,8.28125 3.50781,10.03125 6.21484,20.38281 8.20703,30.81641 0.48047,2.54687 0.87891,5.09765 1.27734,7.64453 0.0781,0.3164 0.63672,4.53906 0.23828,1.51172 0.15625,1.27343 0.31641,2.55078 0.47657,3.90234 0.63672,5.65234 0.95703,11.30859 1.19531,16.96094 0.79687,23.09375 -1.43359,39.97656 -7.57031,61.79297 -1.35157,4.85937 -2.94532,9.71484 -4.69922,14.49218 -0.875,2.39063 -1.75391,4.78125 -2.70703,7.08985 -0.082,0.23828 -1.67578,4.14062 -0.5586,1.43359 -0.63672,1.51172 -1.35547,3.10547 -2.07031,4.61719 -4.30469,9.63672 -9.40234,18.87109 -15.05859,27.71094 -2.71094,4.30078 -5.57813,8.4414 -8.60547,12.5039 -0.71485,1.03516 -1.51172,2.07032 -2.3086,3.02344 -2.55078,3.34375 1.59375,-2.07031 -0.95703,1.19531 -1.83203,2.3086 -3.74609,4.61719 -5.65625,6.84766 -6.93359,8.12109 -14.42187,15.6875 -22.30859,22.77344 -2.55078,2.3125 -5.17969,4.53906 -7.80859,6.6914 -1.35157,1.11328 -2.70704,2.14844 -3.98438,3.26563 -1.27344,0.95312 -1.35156,1.03515 -0.31641,0.23828 -1.03515,0.79687 -2.07031,1.58984 -3.10937,2.30859 -6.29297,4.69922 -12.74609,8.9961 -19.4375,13.0586 -6.375,3.90234 -12.90625,7.40625 -19.59766,10.75 -3.58593,1.7539 -7.17187,3.42578 -10.83593,5.01562 -2.46875,1.11719 -4.78125,2.07031 -9.08204,3.66406 -31.55078,11.86719 -60.78906,16.88282 -92.97656,16.96094 -7.48828,0 -13.70312,6.21094 -13.70312,13.69922 0,7.48438 6.21484,13.77344 13.70312,13.69531 92.25781,-0.23828 182.28516,-45.23047 231.67969,-124.22265 23.50391,-37.58594 35.69531,-81.94141 35.05859,-126.21485 -0.64062,-44.19531 -14.74218,-87.91406 -39.12109,-124.70312 -51.625,-77.71875 -143.88281,-120.32031 -236.22266,-117.69141 -91.62109,2.54688 -180.61328,50.5625 -226.98047,130.59375 -22.30859,38.46094 -33.14062,83.29297 -30.83203,127.64453 2.3125,44.11719 17.60938,87.11719 43.1836,123.03125 50.90625,71.42969 136.23437,111.40235 223.23437,111.5625 7.48828,0 13.70313,-6.29297 13.70313,-13.69531 0,-7.48828 -6.21485,-13.69922 -13.70313,-13.69922 z m 0,0"
     id="path20" />
  <path
     style="fill:#000000;fill-opacity:1;fill-rule:nonzero;stroke:none"
     d="m 166.5,251.27344 c 0,21.73828 0,43.48047 0,65.21875 0,52.55468 0,105.11328 0,157.66797 0,64.33984 0,128.76171 0,193.10546 0,57.17188 0,114.42579 0,171.60157 0,31.05468 0,62.11328 0,93.16797 0,1.43359 0,2.86718 0,4.3789 0,7.48438 6.21484,13.69922 13.70312,13.69922 23.10547,0 46.20704,0 69.3125,0 54.73438,0 109.46875,0 164.1211,0 64.45312,0 128.90625,0 193.35937,0 52.34375,0 104.60938,0 156.95313,0 18.64062,0 37.20312,0 55.84765,0 7.48829,0 13.70313,-6.21484 13.70313,-13.69922 0,-21.73828 0,-43.47656 0,-65.21484 0,-52.5586 0,-105.11328 0,-157.67188 0,-64.33984 0,-128.76172 0,-193.10156 0,-57.17578 0,-114.42969 0,-171.60547 0,-31.05469 0,-62.10937 0,-93.16797 0,-1.43359 0,-2.86718 0,-4.3789 0,-7.48438 -6.21484,-13.69532 -13.70313,-13.69532 -23.10546,0 -46.20703,0 -69.3125,0 -54.73437,0 -109.46875,0 -164.12109,0 -64.45312,0 -128.90625,0 -193.35937,0 -52.34375,0 -104.60938,0 -156.95313,0 -18.64062,0 -37.20312,0 -55.84765,0 -7.48829,-0.082 -13.70313,6.21094 -13.70313,13.69532 0,7.48437 6.21484,13.69531 13.70312,13.69531 23.10547,0 46.20704,0 69.3125,0 54.73438,0 109.46875,0 164.1211,0 64.45312,0 128.90625,0 193.35937,0 52.34375,0 104.60938,0 156.95313,0 18.64062,0 37.20312,0 55.84765,0 -4.54296,-4.53906 -9.16406,-9.15625 -13.70312,-13.69531 0,21.73828 0,43.48047 0,65.21875 0,52.55468 0,105.11328 0,157.66797 0,64.33984 0,128.76171 0,193.10546 0,57.17188 0,114.42579 0,171.60157 0,31.05468 0,62.11328 0,93.16797 0,1.43359 0,2.86718 0,4.3789 4.53906,-4.53906 9.16016,-9.15625 13.70312,-13.69531 -23.10546,0 -46.20703,0 -69.3125,0 -54.73437,0 -109.46875,0 -164.12109,0 -64.45312,0 -128.90625,0 -193.35937,0 -52.34375,0 -104.60938,0 -156.95313,0 -18.64062,0 -37.20312,0 -55.84765,0 4.54296,4.53906 9.16406,9.15625 13.70312,13.69531 0,-21.73828 0,-43.47656 0,-65.21484 0,-52.5586 0,-105.11328 0,-157.67188 0,-64.33984 0,-128.76172 0,-193.10156 0,-57.17578 0,-114.42969 0,-171.60547 0,-31.05469 0,-62.10937 0,-93.16797 0,-1.43359 0,-2.86718 0,-4.3789 0,-7.48438 -6.21484,-13.69532 -13.70312,-13.69532 -7.48829,-0.082 -13.70313,6.21094 -13.70313,13.69532 z m 0,0"
     id="path22" />
  <path
     style="fill:#000000;fill-opacity:1;fill-rule:nonzero;stroke:none"
     d="m 558.23828,581.89844 c -11.94922,5.97265 -25.17578,18.63672 -44.45703,25.64062 -12.66406,4.69922 -28.04297,6.92969 -47.40234,3.34766 -12.90625,-2.39063 -27.56641,-7.32813 -44.45704,-15.92578 -69.94921,-35.51563 -110.82031,25.95703 -110.66015,26.91406 14.10156,83.92969 92.97265,148.27344 188.26172,148.27344 105.16406,0 190.49218,-78.4375 190.49218,-175.1875 -71.22656,-65.9375 -106.67968,-25.64063 -131.77734,-13.0625 z m -3.1875,123.98437 c -15.375,0 -27.80469,-12.42187 -27.80469,-27.78906 0,-15.28906 12.42969,-27.71094 27.80469,-27.71094 15.37891,0 27.80469,12.42188 27.80469,27.71094 0,15.28906 -12.42578,27.78906 -27.80469,27.78906 z m 0,0"
     id="path24" />
  <path
     style="fill:#000000;fill-opacity:1;fill-rule:nonzero;stroke:none"
     d="m 555.05078,692.10937 c -0.31641,0 -4.53906,-0.48046 -1.67187,0 -0.5586,-0.082 -5.33594,-1.59375 -2.86719,-0.55859 -1.19531,-0.47656 -2.23047,-1.11328 -3.34766,-1.75 -1.27344,-0.87891 -1.43359,-0.95703 -0.23828,-0.082 -0.63672,-0.55469 -1.27344,-1.11328 -1.83203,-1.67188 -0.23828,-0.23828 -2.71094,-3.34375 -1.03516,-1.11328 -0.95703,-1.35547 -1.7539,-2.86718 -2.46875,-4.3789 1.19141,2.54687 -0.16015,-1.27735 -0.24218,-1.59375 -0.31641,-1.59375 -0.39844,-1.67188 -0.15625,-0.23828 -0.082,-0.87891 -0.16016,-1.75391 -0.16016,-2.70704 0,-0.32031 0.47656,-4.53906 0,-1.59375 0.0781,-0.55859 1.59375,-5.33593 0.55859,-2.86718 0.47657,-1.19532 1.11328,-2.23047 1.83203,-3.34375 0.875,-1.27344 0.95313,-1.4336 0.0781,-0.23828 0.55859,-0.63672 1.11719,-1.27735 1.67187,-1.83204 0.23829,-0.23828 3.34766,-2.70703 1.11719,-1.03515 1.35547,-0.95703 2.86719,-1.75391 4.38281,-2.46875 -2.55078,1.19531 1.27344,-0.16016 1.59375,-0.23828 1.58985,-0.32032 1.67188,-0.39844 0.23829,-0.16016 0.875,-0.0781 1.75,-0.16016 2.70703,-0.16016 0.32031,0 4.54297,0.47657 1.67187,0 0.5586,0.082 5.33985,1.59375 2.8711,0.5586 1.19531,0.47656 2.23046,1.11328 3.34375,1.75 1.27734,0.8789 1.43359,0.95703 0.24218,0.082 0.63672,0.55469 1.27344,1.11328 1.83203,1.67187 0.23829,0.23829 2.70704,3.34375 1.03516,1.03516 0.95313,1.35156 1.75,2.86719 2.46875,4.37891 -1.19531,-2.54688 0.16016,1.27343 0.32031,1.59375 0.31641,1.58984 0.31641,1.67187 0.15625,0.23828 0.082,0.875 0.16016,1.75 0.16016,2.70703 0,7.72266 -6.76953,13.85547 -14.26172,14.01562 -7.48828,0.16016 -13.70312,6.12891 -13.70312,13.69532 0,7.32812 6.21484,13.9375 13.70312,13.69531 23.02734,-0.55469 41.03125,-18.55078 41.50781,-41.48438 0.5586,-22.93359 -19.4375,-40.93359 -41.50781,-41.48828 -22.94531,-0.55859 -41.02734,19.34766 -41.50781,41.48828 -0.5586,23.01172 19.35937,41.00782 41.50781,41.48438 7.49219,0.16016 13.70313,-6.36719 13.70313,-13.69531 0.082,-7.56641 -6.21094,-13.53516 -13.70313,-13.69532 z m 0,0"
     id="path26" />
  <path
     style="fill:#000000;fill-opacity:1;fill-rule:nonzero;stroke:none"
     d="m 551.30859,570.03516 c -9.96093,5.09765 -18.72265,12.34375 -28.36328,17.99609 -9.64062,5.65234 -21.91015,9.79297 -31.15234,10.67187 -12.82422,1.11329 -25.01563,-1.11718 -37.20313,-4.85937 -13.625,-4.21875 -25.8164,-11.22656 -39.03906,-16.5625 -36.80859,-14.8125 -77.35937,-4.53906 -104.76953,23.41016 -3.58203,3.66406 -6.92969,7.80468 -9.87891,12.02734 -4.53906,6.44922 -2.94531,13.375 -1.35156,20.62109 4.62109,21.66016 13.85938,42.60547 26.21094,60.91797 25.97265,38.78125 65.64844,66.57031 110.02344,80.34766 90.26562,27.94922 195.91015,-7.88281 244.03125,-90.69922 10.99218,-18.95313 18.5625,-40.13281 21.75,-61.79297 0.875,-5.97266 1.59375,-11.86328 1.91015,-17.91797 0.16016,-2.625 0.24219,-5.2539 0.24219,-7.88281 0.0781,-6.84766 -3.50781,-10.66797 -8.28906,-14.89063 -10.35547,-9.23828 -21.66797,-17.83593 -33.85938,-24.52734 -18.08594,-9.87109 -37.60156,-14.33203 -58,-11.30469 -13.70312,2.07032 -26.37109,8.75782 -38.08203,15.92578 -4.62109,3.02344 -9.24219,6.05079 -14.17969,8.51954 -6.6914,3.42578 -8.52734,12.58203 -4.9414,18.79296 3.98437,6.76954 12.10937,8.28125 18.80468,4.9375 7.00782,-3.58593 13.54297,-8.12109 20.3125,-12.10546 1.91407,-1.11329 3.90625,-2.14844 5.89844,-3.1836 0.875,-0.47656 1.83203,-0.875 2.78906,-1.35547 0.875,-0.39843 5.25782,-2.23047 1.03516,-0.47656 4.53906,-1.83203 9.24219,-3.26562 14.01953,-4.14062 0.95703,-0.16016 5.01953,-0.63672 0.5586,-0.16016 1.43359,-0.16016 2.94921,-0.23828 4.38281,-0.31641 2.78906,-0.16015 5.57812,0 8.36328,0.23828 0.64062,0.0781 1.27734,0.16016 1.91406,0.23829 -1.99219,-0.32032 -2.23047,-0.32032 -0.71875,-0.0781 1.67578,0.23828 3.42578,0.63672 5.10156,1.03516 3.26563,0.71484 6.45313,1.82812 9.5586,2.94531 0.71875,0.31641 1.51562,0.55859 2.23047,0.875 -1.4336,-0.63672 -1.35157,-0.55859 0.082,0.0781 1.99219,0.87891 3.90234,1.83204 5.8164,2.86719 3.74219,1.99219 7.40625,4.22266 10.99219,6.53125 8.28516,5.41406 15.375,11.38672 22.78516,18.23438 -1.35156,-3.26563 -2.70703,-6.44922 -3.98438,-9.71485 0,5.25782 -0.23828,10.51172 -0.79297,15.76563 -0.082,1.27734 -0.24218,2.55078 -0.39843,3.90234 -0.48047,4.22266 0.39843,-2.70703 -0.24219,1.51563 -0.47656,2.94531 -1.03516,5.89062 -1.59375,8.83593 -1.03516,5.01954 -2.38672,9.95704 -3.90234,14.8125 -0.71875,2.39063 -1.59375,4.85938 -2.46875,7.2461 -0.39844,1.19531 -0.87891,2.39062 -1.35547,3.58594 -0.16016,0.47656 -2.15235,5.17578 -1.03516,2.54687 -4.14453,9.71484 -9.32031,18.87109 -15.21875,27.63281 -1.43359,2.07032 -2.86719,4.14063 -4.37891,6.21094 -0.16015,0.15625 -2.71093,3.50391 -0.95703,1.27344 -0.79687,1.03515 -1.59375,1.98828 -2.39062,2.94531 -3.50391,4.30078 -7.25,8.36328 -11.15235,12.26172 -3.58593,3.66406 -7.41015,7.08984 -11.3164,10.43359 -1.98828,1.67188 -3.98047,3.26563 -5.97266,4.85547 2.14844,-1.67187 -1.19531,0.87891 -1.35547,0.95703 -1.35547,1.03516 -2.78906,2.07032 -4.22265,3.02735 -8.92188,6.28906 -18.48438,11.70312 -28.36328,16.40234 -1.19532,0.55859 -2.39063,1.11719 -3.58594,1.67188 -0.0781,0.082 -4.14063,1.7539 -1.58985,0.71875 -2.47265,1.03515 -4.9414,1.98828 -7.49218,2.94531 -5.4961,2.07031 -11.07422,3.82031 -16.73047,5.33594 -5.25781,1.43359 -10.67578,2.625 -16.09375,3.66406 -7.00781,1.35156 -8.60156,1.51172 -15.69531,2.14844 -24.53516,2.23046 -45.57032,0.3164 -68.27735,-5.65235 -11.07422,-2.94922 -21.58984,-6.85156 -30.03515,-10.83203 -10.03907,-4.69922 -19.67579,-10.35156 -28.83985,-16.72266 -14.89844,-10.42968 -31.86719,-27.78906 -42.14453,-43.07812 -2.86719,-4.30078 -5.5,-8.67969 -7.96875,-13.21875 -1.19531,-2.23047 -2.39062,-4.53906 -3.50391,-6.84766 -0.55859,-1.19531 -1.11718,-2.3125 -1.67578,-3.5039 -0.23828,-0.39844 -2.23047,-5.17578 -1.1914,-2.62891 -4.14453,-9.95312 -7.17188,-20.38672 -9.24219,-30.97656 -0.87891,-4.46094 1.11328,-2.54688 -0.71875,3.34375 -1.27344,4.30078 -1.83203,4.0625 -1.19531,2.94531 0.16015,-0.31641 0.39843,-0.63672 0.63672,-1.03516 0.32031,-0.47656 0.71875,-1.03515 1.03515,-1.51171 2.23438,-3.10547 -1.91015,2.30859 -0.0781,0.0781 3.34765,-4.14062 7.08984,-7.88281 11.07422,-11.38672 1.19531,-1.03515 2.39062,-2.07031 3.66406,-3.02344 -3.42578,2.78516 1.11719,-0.79687 1.99219,-1.35546 3.26562,-2.23047 6.6914,-4.30079 10.19921,-6.05079 0.875,-0.47656 6.45313,-2.86718 2.94532,-1.43359 1.83593,-0.79687 3.74609,-1.43359 5.73828,-2.07031 1.99219,-0.63672 4.0625,-1.19531 6.05469,-1.67188 1.03515,-0.23828 2.07031,-0.48047 3.1875,-0.63672 0.71484,-0.16015 1.43359,-0.23828 2.14843,-0.39843 -1.83203,0.23828 -1.91015,0.23828 -0.3164,0.0781 4.69922,-0.55859 9.40234,-0.47656 14.10156,-0.16015 1.27344,0.082 2.46875,0.24218 3.74609,0.39843 -3.10937,-0.39843 1.11328,0.23828 1.4336,0.32032 3.10547,0.55859 6.21093,1.35156 9.24218,2.23046 12.90625,3.74219 24.69532,11.06641 38.16016,16.24219 25.09766,9.71485 53.53906,12.90235 79.27344,3.66406 9.64062,-3.42578 18.5625,-8.28125 27.08594,-13.85546 6.85156,-4.46094 13.38671,-9.47657 20.71484,-13.21875 6.61328,-3.42579 8.52344,-12.58204 4.94141,-18.79297 -3.98438,-6.92969 -12.19141,-8.60157 -18.88282,-5.17578 z m 0,0"
     id="path28" />
</svg>
