<?xml version="1.0" encoding="UTF-8" standalone="no"?>
<!-- Created with Inkscape (http://www.inkscape.org/) -->

<svg
   width="1000"
   height="1000"
   version="1.1"
   id="svg8"
   xmlns="http://www.w3.org/2000/svg"
   xmlns:svg="http://www.w3.org/2000/svg"
   xmlns:rdf="http://www.w3.org/1999/02/22-rdf-syntax-ns#"
   xmlns:cc="http://creativecommons.org/ns#"
   xmlns:dc="http://purl.org/dc/elements/1.1/">
  <defs
     id="defs5498" />
  <metadata
     id="metadata5594">
    <rdf:RDF>
      <cc:Work
         rdf:about="">
        <dc:format>image/svg+xml</dc:format>
        <dc:type
           rdf:resource="http://purl.org/dc/dcmitype/StillImage" />
      </cc:Work>
    </rdf:RDF>
  </metadata>
  <path
     style="fill:#000000;fill-opacity:1;fill-rule:nonzero;stroke:none"
     d="m 859.91406,454.99609 v 45.04688 H 679.98047 C 648.46094,455.08203 598.96094,428.01562 545.00391,414.57031 V 275.05859 h 103.45703 c 13.53125,26.97657 44.96484,44.96094 76.48047,44.96094 49.5,0 90.01171,-40.50781 90.01171,-90.00781 0,-49.50391 -40.51171,-90.01172 -90.01171,-90.01172 -31.51563,0 -62.94922,17.98437 -76.48047,44.96094 l -296.92188,0.0859 c -13.53125,-26.97657 -44.96484,-44.96094 -76.48047,-44.96094 -49.5,0 -90.01172,40.50781 -90.01172,90.01172 0,49.5 40.51172,90.00781 90.01172,90.00781 31.51563,0 62.94922,-17.98438 76.48047,-44.96094 h 103.45703 v 139.51172 c -53.95703,13.53125 -103.45703,40.50781 -134.97656,85.47266 l -179.93359,-0.0859 v -44.96094 l -90.011721,-0.0859 V 814.95312 H 140.08594 V 769.98828 H 320.01953 C 360.53125,823.94531 423.47656,860 499.95703,860 c 72.02734,0 139.51172,-35.96875 179.9375,-90.01172 h 179.93359 v 44.96484 h 90.01172 l 0.0859,-44.96484 V 455.08203 Z m 0,0"
     id="path6" />
</svg>
