<?xml version="1.0" encoding="UTF-8" standalone="no"?>
<!-- Created with Inkscape (http://www.inkscape.org/) -->

<svg
   width="1000"
   height="1000"
   version="1.1"
   id="svg12"
   xmlns="http://www.w3.org/2000/svg"
   xmlns:svg="http://www.w3.org/2000/svg"
   xmlns:rdf="http://www.w3.org/1999/02/22-rdf-syntax-ns#"
   xmlns:cc="http://creativecommons.org/ns#"
   xmlns:dc="http://purl.org/dc/elements/1.1/">
  <defs
     id="defs5498" />
  <metadata
     id="metadata5594">
    <rdf:RDF>
      <cc:Work
         rdf:about="">
        <dc:format>image/svg+xml</dc:format>
        <dc:type
           rdf:resource="http://purl.org/dc/dcmitype/StillImage" />
      </cc:Work>
    </rdf:RDF>
  </metadata>
  <path
     style="fill:#000000;fill-opacity:1;fill-rule:nonzero;stroke:none"
     d="m 500,541.29687 c 97.05078,0 175.94141,-78.96875 175.94141,-176.11718 0,-90.88672 -144.48438,-266.808596 -160.95704,-286.476565 -7.4414,-8.9375 -22.625,-8.9375 -29.96875,0 -16.47265,19.667969 -160.95703,195.488285 -160.95703,286.476565 0,97.05078 78.89063,176.11718 175.94141,176.11718 z m 0,0"
     id="path6" />
  <path
     style="fill:#000000;fill-opacity:1;fill-rule:nonzero;stroke:none"
     d="m 69.921875,702.51562 c 48.027345,0 70.753905,14.5 96.949215,31.38672 27.48828,17.58203 58.55078,37.55078 118.08985,37.55078 59.4414,0 90.60156,-19.96875 117.98828,-37.55078 26.29687,-16.78515 48.92187,-31.38672 96.95312,-31.38672 48.02735,0 70.75391,14.5 97.05078,31.38672 27.48438,17.58203 58.54688,37.55078 118.08594,37.55078 59.44141,0 90.60156,-19.96875 118.08985,-37.55078 26.29687,-16.78515 48.92187,-31.38672 97.05078,-31.38672 10.8164,0 19.54687,-8.74218 19.54687,-19.57031 0,-10.82812 -8.73047,-19.5664 -19.54687,-19.5664 -59.54297,0 -90.60157,19.96484 -118.08985,37.54687 -26.29687,16.78516 -48.92187,31.39063 -97.05078,31.39063 -48.02734,0 -70.7539,-14.50391 -97.05078,-31.39063 C 590.5,683.34375 559.44141,663.37891 499.90234,663.37891 c -59.4414,0 -90.60156,19.96484 -117.99218,37.54687 -26.29688,16.78516 -48.92188,31.39063 -96.94922,31.39063 -48.03125,0 -70.75391,-14.50391 -96.95313,-31.39063 -27.48437,-17.58203 -58.54687,-37.54687 -118.085935,-37.54687 -10.816406,0 -19.550781,8.73828 -19.550781,19.5664 0,10.82813 8.734375,19.57031 19.550781,19.57031 z m 0,0"
     id="path8" />
  <path
     style="fill:#000000;fill-opacity:1;fill-rule:nonzero;stroke:none"
     d="m 930.07812,819.92578 c -59.53906,0 -90.60156,19.96484 -118.08593,37.54688 -26.29688,16.78906 -48.92188,31.39062 -97.05078,31.39062 -48.03125,0 -70.75391,-14.50391 -97.05079,-31.39062 -27.48828,-17.58204 -58.55078,-37.54688 -118.08984,-37.54688 -59.44141,0 -90.60156,19.96484 -117.98828,37.54688 -26.29688,16.78906 -48.92188,31.39062 -96.94922,31.39062 -48.03125,0 -70.75391,-14.50391 -96.95312,-31.39062 -27.48828,-17.58204 -58.54688,-37.54688 -118.089848,-37.54688 -10.816406,0 -19.546874,8.74219 -19.546874,19.57031 0,10.82422 8.730468,19.56641 19.546874,19.56641 48.031248,0 70.753908,14.50391 96.953128,31.39062 C 194.26172,908.03516 225.32031,928 284.86328,928 c 59.4375,0 90.59766,-19.96484 117.98828,-37.54688 26.29688,-16.78906 48.92188,-31.39062 96.94922,-31.39062 48.03125,0 70.75391,14.50391 97.05078,31.39062 C 624.33984,908.03516 655.39844,928 714.94141,928 c 59.4414,0 90.59765,-19.96484 118.08593,-37.54688 26.29688,-16.78906 48.92188,-31.39062 97.05078,-31.39062 10.81641,0 19.55079,-8.74219 19.55079,-19.56641 0,-10.82812 -8.73438,-19.57031 -19.55079,-19.57031 z m 0,0"
     id="path10" />
</svg>
