<?xml version="1.0" encoding="UTF-8" standalone="no"?>
<!-- Created with Inkscape (http://www.inkscape.org/) -->

<svg
   width="1000"
   height="1000"
   version="1.1"
   id="svg8"
   xmlns="http://www.w3.org/2000/svg"
   xmlns:svg="http://www.w3.org/2000/svg"
   xmlns:rdf="http://www.w3.org/1999/02/22-rdf-syntax-ns#"
   xmlns:cc="http://creativecommons.org/ns#"
   xmlns:dc="http://purl.org/dc/elements/1.1/">
  <defs
     id="defs5498" />
  <metadata
     id="metadata5594">
    <rdf:RDF>
      <cc:Work
         rdf:about="">
        <dc:format>image/svg+xml</dc:format>
        <dc:type
           rdf:resource="http://purl.org/dc/dcmitype/StillImage" />
      </cc:Work>
    </rdf:RDF>
  </metadata>
  <path
     style="fill:#000000;fill-opacity:1;fill-rule:nonzero;stroke:none"
     d="M 693.22656,616.03906 H 652.57422 L 638.16406,602.14453 C 688.59375,543.48047 718.95312,467.32422 718.95312,384.47656 718.95312,199.74219 569.21094,50 384.47656,50 199.74219,50 50,199.74219 50,384.47656 c 0,184.73438 149.74219,334.47656 334.47656,334.47656 82.84766,0 159.00391,-30.35937 217.66797,-80.78906 l 13.89453,14.41016 v 40.65234 L 873.32812,950 950,873.32812 Z m -308.75,0 c -128.1289,0 -231.5625,-103.43359 -231.5625,-231.5625 0,-128.1289 103.4336,-231.5625 231.5625,-231.5625 128.12891,0 231.5625,103.4336 231.5625,231.5625 0,128.12891 -103.43359,231.5625 -231.5625,231.5625 z M 513.12109,410.20703 H 410.20703 V 513.12109 H 358.74609 V 410.20703 H 255.83203 V 358.74609 H 358.74609 V 255.83203 h 51.46094 v 102.91406 h 102.91406 z m 0,0"
     id="path6" />
</svg>
